<?xml version="1.0" encoding="UTF-8"?><svg xmlns="http://www.w3.org/2000/svg" viewBox="0 0 1018.64 947.73"><defs><style>.cls-1{fill:#fff;}.cls-2{fill:#b0adb0;}.cls-3{fill:#575548;}.cls-4{fill:#d32027;}.cls-5{fill:#33353b;}.cls-6{fill:#656569;}.cls-7{fill:none;stroke:#b0adb0;stroke-miterlimit:10;}.cls-8{fill:#79c143;}</style></defs><g id="Body"><path class="cls-5" d="m59.44,532.17h73v-24h18v50h-72v78h32.04v6h-48.04v101l131.01,131h185.07v6.82c0,36.09,26.4,65.35,58.96,65.35s58.96-29.26,58.96-65.35v-98.82h104.01l97.06-34h50.94v-30h0v-120h10v2h-8v38h8v64h167v-55h-17v-9h68v-199.61l40-39.39v-27h-40v-106h5v-77.99h-147v32h-52v-108h-186.99l-22.99-23.09V2.17h-194.01v134.01h-73.01l-86.99,86.87v123.12h-56v16h-26v-16H62.44L4.44,429.17v48l55,55Zm286-18v-48h103v-52h34v96h64v46.01h-13.99l-65.03,31.99h-28.97v16h-6v-72h-103.99v-18.01h16.99Zm-65.07,134l39.07,20h27v-106h56.01v58.41l13.99,28.58v55l4,12.05v11.95h-34v84h-10v-19.99h-71.99l-6.04,4.01h-9.95v-40.98l-2.56-2.56h.01s-19.46-19.47-19.46-19.47l-11,11-13-13,11.01-11.01-23.99-23.99h-9.03v-48.01h59.93Zm24.08,185h42.99v2h-84v-2h41.01Zm-82.02,11.01l-13.99-21.02v-23l-48-47.99h-28v-18h81l26,26-10,10,19,19v.98h2v54.02h-28.01Zm526.01-284.02v-23.99h-40v182h-9.99v-80h7.99v-38h-58v96h-38v-20h-88v52h-70v24h-8v60h-10v-56h-28v-10.01h36v-23.39c.12-.14.23-.29.29-.47l22.06-70.04c.41-1.31,1.33-2.4,2.55-3.03.08-.04.16-.07.24-.09l99.92-28.7c.18-.05.34-.15.48-.27h.47v-109.99h72v-28h118v78h-10Zm40,112.01v-34h94v34h-94Zm130-301h22v41h-22v-41Zm-139.94-105h103.94v138h-8v50h7.83v62.01h-95.82v-22.01h15.99v-58h-79.14l-33.85-24h-63v32h-110.08l-13.91-6.15v-2.9l13.91-12.94h36.07v-80.01h7.02l15.03,16.03h69.97v-200.04h38v108h96.06Zm-407.01-59.96h156.94v-73.04l22.01-22h2l21,21v2l-11,10.01v103.99h20v68h-36.99l-43.01-44.01h-57.99v-9.99h1.99v-46.01h-95.99v-25.96h12.61l8.43,16Zm-141.57,193.96h76.53v-194.89l8.08-15.07h13.93v71.97h74v34h-31.99v88h31.99v41h-10.02v-11h-133.98v49l20,19v119.99h-74v-44.98h-9.01v-49.01h24.04v-29.94l-115.03-40.06v-18l78.01-20h47.46Z"/></g><g id="Bombsite"><polygon class="cls-3" points="77.52 636.97 109.78 636.97 109.78 696.63 114.93 696.63 114.93 710.67 109.52 710.67 132.45 734.28 132.45 734.85 136.98 734.85 204.44 734.85 204.44 602.17 132.45 602.17 132.45 602.18 77.52 602.18 77.52 636.97"/><rect class="cls-3" x="786.44" y="515.31" width="96" height="122.85" transform="translate(1668.88 1153.48) rotate(180)"/><polygon class="cls-5" points="141.93 680.65 189.22 680.65 189.22 660.63 189.06 660.63 189.06 645.26 174.09 645.26 174.09 660.63 141.93 660.63 141.93 680.65"/><rect class="cls-5" x="849.09" y="622.71" width="16.99" height="16.08" transform="translate(1715.17 1261.49) rotate(180)"/><rect class="cls-5" x="781.51" y="569.75" width="26.56" height="19.08" transform="translate(1589.57 1158.58) rotate(180)"/><rect class="cls-5" x="827.96" y="515.62" width="14.9" height="15.3" transform="translate(1670.81 1046.54) rotate(180)"/></g><g id="Lines"><path class="cls-2" d="m316.43,434.21v13.96h-13.96v-13.96h13.96m1-1h-15.96v15.96h15.96v-15.96h0Z"/><path class="cls-2" d="m448.48,415.17v51.05h-6.96v-51.05h6.96m1-1h-8.96v53.05h8.96v-53.05h0Z"/><path class="cls-2" d="m473.43,361.29v52.9h-15.9v-52.9h15.9m1-1h-17.9v54.9h17.9v-54.9h0Z"/><line class="cls-7" x1="501.19" y1="416.52" x2="481.72" y2="424.39"/><path class="cls-2" d="m596.43,249.17v15h-14v-15h14m1-1h-16v17h16v-17h0Z"/><path class="cls-2" d="m569.43,241.19v7.01h-7.01v-7.01h7.01m1-1h-9.01v9.01h9.01v-9.01h0Z"/><path class="cls-2" d="m572.47,55.16v19.03h-5.96v-19.03h5.96m1-1h-7.96v21.03h7.96v-21.03h0Z"/><path class="cls-2" d="m572.47,2.17v17h-64.01V2.17h64.01m1-1h-66.01v19h66.01V1.17h0Z"/><path class="cls-2" d="m459.44,2.17v17h-81V2.17h81m1-1h-83v19h83V1.17h0Z"/><path class="cls-2" d="m383.43,52.16v19.03h-5v-19.03h5m1-1h-7v21.03h7v-21.03h0Z"/><polyline class="cls-7" points="278.96 223.18 278.96 271.66 307.35 271.66"/><path class="cls-2" d="m233.46,267.25v15.9h-15.05v-15.9h15.05m1-1h-17.05v17.9h17.05v-17.9h0Z"/><line class="cls-7" x1="281.93" y1="379.16" x2="281.93" y2="302.15"/><path class="cls-2" d="m59.81,414.99l12.93,7.47-18.44,31.93-12.93-7.47,18.44-31.93m-.37-1.37l-19.44,33.66,14.67,8.47,19.44-33.66-14.67-8.47h0Z"/><path class="cls-2" d="m188.46,646.26v33.93h-46v-18.97h32.02v-14.97h13.98m1-1h-15.98v14.97h-32.02v20.97h48v-35.93h0Z"/><path class="cls-2" d="m109.48,642.14v55.04h4.96v12.99h-8.01v-68.03h3.05m1-1h-5.05v70.03h10.01v-14.99h-4.96v-55.04h0Z"/><rect class="cls-2" x="98.45" y="710.17" width="7.17" height="1" transform="translate(204.07 1421.33) rotate(180)"/><path class="cls-2" d="m264.44,834.17v9h-14.02v-9h14.02m1-1h-16.02v11h16.02v-11h0Z"/><path class="cls-2" d="m257.43,826.23v6.93h-7.01v-6.93h7.01m1-1h-9.01v8.93h9.01v-8.93h0Z"/><path class="cls-2" d="m434.47,756.16v21.99h-26.93v-21.99h26.93m1-1h-28.93v23.99h28.93v-23.99h0Z"/><path class="cls-2" d="m292.45,586.16v15.01h-14.03v-15.01h14.03m1-1h-16.03v17.01h16.03v-17.01h0Z"/><polyline class="cls-7" points="385.03 562.94 385.03 540.8 377.8 531.44"/><rect class="cls-2" x="577.46" y="482.17" width="67.37" height="1.01" transform="translate(1222.28 965.34) rotate(180)"/><polygon class="cls-2" points="689.45 475.17 689.45 483.19 690.44 483.19 690.44 474.19 690.22 474.19 689.45 474.19 598.44 474.19 598.44 475.17 689.45 475.17"/><path class="cls-2" d="m512.46,496.19v13.98h-14.96v-13.98h14.96m1-1h-16.96v15.98h16.96v-15.98h0Z"/><path class="cls-2" d="m647.44,696.15v14.04h-15.98v-14.04h15.98m1-1h-17.98v16.04h17.98v-16.04h0Z"/><path class="cls-2" d="m630.43,696.15v6.01h-5.98v-6.01h5.98m1-1h-7.98v8.01h7.98v-8.01h0Z"/><path class="cls-2" d="m807.47,570.21v17.96h-49.03v-17.96h49.03m1-1h-51.03v19.96h51.03v-19.96h0Z"/><path class="cls-2" d="m788.46,570.21v17.96h-30.02v-17.96h30.02m1-1h-32.02v19.96h32.02v-19.96h0Z"/><rect class="cls-2" x="757.44" y="559.57" width=".99" height="39.14" transform="translate(1515.88 1158.29) rotate(180)"/><path class="cls-2" d="m865.48,623.2v15h-16v-15h16m1-1h-18v17h18v-17h0Z"/><path class="cls-2" d="m976.46,548.19v14.99h-46.01v-14.99h46.01m1-1h-48.01v16.99h48.01v-16.99h0Z"/><path class="cls-2" d="m842.43,516.16v14.03h-13.88v-14.03h13.88m1-1h-15.88v16.03h15.88v-16.03h0Z"/><path class="cls-2" d="m984.47,372.14v14.02h-7.03v-14.02h7.03m1-1h-9.03v16.02h9.03v-16.02h0Z"/><path class="cls-2" d="m757.44,468.17v14.02h-15.89v-14.02h15.89m1-1h-17.89v16.02h17.89v-16.02h0Z"/><path class="cls-2" d="m721.47,215.17c5.53,0,10.02,4.5,10.02,10.02s-4.5,10.02-10.02,10.02-10.02-4.5-10.02-10.02,4.5-10.02,10.02-10.02m0-1c-6.09,0-11.02,4.93-11.02,11.02s4.93,11.02,11.02,11.02,11.02-4.93,11.02-11.02-4.93-11.02-11.02-11.02h0Z"/><rect class="cls-2" x="722.45" y="235.64" width="1" height="31.24" transform="translate(1445.89 502.53) rotate(180)"/><rect class="cls-2" x="731.45" y="226.23" width="1" height="40.66" transform="translate(1463.89 493.12) rotate(180)"/><rect class="cls-2" x="731.45" y="169.18" width=".99" height="54.99" transform="translate(1463.89 393.35) rotate(180)"/><path class="cls-2" d="m944.43,228.17v15.03h-29.99v-15.03h29.99m1-1h-31.99v17.03h31.99v-17.03h0Z"/><rect class="cls-2" x="596.47" y="155.16" width=".96" height="93.34" transform="translate(1193.89 403.66) rotate(180)"/><path class="cls-2" d="m976.46,564.18v13.99h-14.01v-13.99h14.01m1-1h-16.01v15.99h16.01v-15.99h0Z"/><path class="cls-2" d="m961.45,564.18v5.98h-7.01v-5.98h7.01m1-1h-9.01v7.98h9.01v-7.98h0Z"/><path class="cls-2" d="m936.44,220.17v7h-14v-7h14m1-1h-16v9h16v-9h0Z"/></g><g id="Outlines"><path class="cls-6" d="m572.45,2.17v86.9l22.99,23.09h186.99v108h52v-32h147v77.99h-5v106h40v27l-40,39.39v199.61h-68v9h17v55h-167v-64h-8v-38h8v-2h-10v120h0v30h-50.94l-97.06,34h-104.01v98.82c0,36.09-26.4,65.35-58.97,65.35s-58.96-29.26-58.96-65.35v-6.82h-185.07l-131.01-131v-101h48.04v-6h-32.04v-78h72v-50h-18.01v24H59.44l-55-55v-48l58-83h74v16h26v-16h56v-123.12l86.99-86.87h73.01V2.17h194.01m-200.97,204.03l-8.43-16h-12.61v25.96h95.99v46.01h-1.99v9.99h57.99l43.01,44.01h36.99v-68h-20v-103.99l11-10.01v-2l-21-21h-2l-22.01,22v73.04h-156.94m202.99,152l-15.03-16.03h-7.02v80.01h-36.07l-13.91,12.94v2.9l13.91,6.15h110.08v-32h63l33.85,24h79.14v58h-15.99v22.01h95.82v-62.01h-7.83v-50h8v-138h-200v-108h-38v200.04h-69.97m-379.04,198.98h9.01v44.98h74v-119.99l-20-19v-49h133.98v11h10.02v-41h-31.99v-88h31.99v-34h-74v-71.97h-13.93l-8.08,15.07v194.89h-123.99l-78.01,20v18l115.03,40.06v29.94h-24.04v49.01m723.01-145.01h22v-41h-22v41m-589.98,120h103.99v72h6v-16h28.97l65.03-31.99h13.99v-46.01h-64v-96h-34v52h-103v48h-16.99v18.01m77.98,224h28v56h10v-60h8v-24h70v-52h88v20h38v-96h58v38h-7.99v80h9.99v-182h40v23.99h10v-78h-118v28h-72v109.99h-.47c-.14.12-.29.22-.48.27l-99.92,28.7c-.08.02-.16.06-.24.09-1.22.63-2.14,1.72-2.55,3.03l-22.06,70.04c-.06.18-.16.34-.29.47v23.39h-36v10.01m-87-88.01l-39.07-20h-59.93v48.01h9.03l23.99,23.99-11.01,11.01,13,13,11-11,19.46,19.46h-.01s2.56,2.57,2.56,2.57v40.98h9.95l6.04-4.01h71.99v19.99h10v-84h34v-11.95l-4-12.05v-55l-13.99-28.58v-58.41h-56.01v106h-27m469,4h94v-34h-94v34m-655.99,80h28l48,47.99v23l13.99,21.02h28.01v-54.02h-2v-.98l-19-19,10-10-26-26h-81v18m131,83h84v-2h-84v2M573.5,1.12h-196.11v134.01h-72.4l-.31.31-86.99,86.87-.31.31v122.51h-56v16h-23.9v-16H61.89l-.31.45L3.58,428.57l-.19.27v48.76l.31.31,55,55,.31.31h74.48v-24h15.91v47.9h-72v80.1h32.04v3.9h-48.04v102.49l.31.31,131.01,131,.31.31h184.45v5.77c0,36.61,26.92,66.4,60.01,66.4s60.02-29.79,60.02-66.4v-97.77h103.13l.17-.06,96.89-33.94h51.81v-32.1h0v-77.9h7.9v64h169.1v-57.1h-17v-6.9h68v-200.22l39.69-39.08.31-.31v-28.49h-40v-103.9h5v-80.09h-149.1v32h-49.9v-108h-187.6l-22.38-22.48V1.12h0Zm-22.63,111.09h1.13l20.39,20.39v1.1l-10.66,9.7-.34.31v105.51h20v65.9h-35.5l-42.7-43.69-.31-.32h-57.38v-7.89h1.99v-48.11h-95.99v-23.86h10.93l8.13,15.44.3.56h158.63v-73.65l21.4-21.38h0Zm94.61,47h35.9v108h200v135.9h-8v52.1h7.83v59.91h-93.72v-19.91h15.99v-60.1h-79.86l-33.58-23.8-.27-.19h-64.39v32h-108.81l-13.08-5.78v-1.76l13.27-12.35h36.7v-80.01h5.51l14.72,15.7.31.33h71.47v-200.04h0Zm-330.34,32.04h12.25v71.97h74v31.9h-31.99v90.1h31.99v38.9h-7.92v-11h-136.08v50.5l.33.31,19.67,18.69v118.49h-71.9v-44.98h-9.01v-46.91h24.04v-31.74l-.7-.25-114.33-39.82v-16.44l77.09-19.77h124.91v-195.68l7.66-14.28h0Zm604.34,180.97h19.9v38.9h-19.9v-38.9h0Zm-470,43h31.9v96h64v43.91h-13.18l-.22.11-64.82,31.88h-29.78v16h-3.9v-72h-103.99v-15.91h16.99v-48h103v-52h0Zm192,68h115.9v75.89h-7.9v-23.99h-42.1v64h-60v96h-35.9v-20h-90.1v52h-70v24h-8v60h-7.9v-56h-28v-7.91h36v-24.09c.1-.16.18-.33.24-.51l22.06-70.03c.33-1.04,1.07-1.92,2.03-2.42l99.97-28.72c.18-.05.35-.13.52-.23h1.18v-109.99h72v-28h0Zm-294,80h53.91v57.61l.11.22,13.88,28.37v54.92l.05.16,3.94,11.89v10.73h-34v84h-7.9v-19.99h-73.36l-.26.17-5.78,3.83h-8.59v-40.36l-.31-.31-1.82-1.82-.73-.76-19.46-19.46-.74-.74-.74.74-10.26,10.26-11.51-11.51,10.27-10.27.74-.74-.74-.74-23.99-23.99-.31-.31h-8.41v-45.91h58.63l38.84,19.88.23.12h28.3v-106h0Zm442,76h91.9v31.9h-91.9v-31.9h0Zm-89.99,0h7.89v77.9h-7.89v-77.9h0Zm-566,96h79.51l24.95,24.95-9.26,9.26-.74.74.74.74,18.7,18.7v1.6h2v51.92h-26.4l-13.5-20.28v-23.12l-.31-.31-48-47.99-.31-.31h-27.38v-15.9h0Z"/></g><g id="CAllouts_copy"><path class="cls-4" d="m427.99,69.15c0-.16.04-.37.13-.61l2.5-6.81c.27-.74.72-1.09,1.44-1.09s1.19.33,1.47,1.08l2.51,6.82c.09.25.12.42.12.61,0,.53-.4.9-.96.9s-.83-.25-1-.84l-.48-1.45h-3.31l-.48,1.43c-.18.61-.46.86-.97.86-.6,0-.97-.35-.97-.9Zm5.29-2.88l-1.21-3.75h-.04l-1.19,3.75h2.44Z"/><path class="cls-4" d="m437.21,64.52h-.36c-.44,0-.72-.27-.72-.7s.28-.7.72-.7h.36v-.76c0-.6.35-.96.93-.96s.93.37.93.96v.76h.65c.44,0,.71.27.71.7s-.27.7-.71.7h-.65v3.26c0,.48.17.69.56.72h.12c.46.06.7.25.7.69,0,.55-.53.83-1.31.83h-.06c-1.24,0-1.87-.62-1.87-1.82v-3.67Z"/><path class="cls-4" d="m441.83,64.52h-.36c-.44,0-.72-.27-.72-.7s.28-.7.72-.7h.36v-.76c0-.6.35-.96.93-.96s.93.37.93.96v.76h.65c.44,0,.71.27.71.7s-.27.7-.71.7h-.65v3.26c0,.48.17.69.56.72h.12c.46.06.7.25.7.69,0,.55-.53.83-1.31.83h-.06c-1.24,0-1.87-.62-1.87-1.82v-3.67Z"/><path class="cls-4" d="m445.63,67.97c0-1.24.95-1.96,2.65-2.06l1.71-.1v-.45c0-.63-.44-1-1.14-1-.56,0-.91.18-1.32.72-.2.23-.44.34-.74.34-.45,0-.77-.29-.77-.71,0-.15.03-.28.1-.42.32-.81,1.41-1.31,2.82-1.31,1.75,0,2.88.9,2.88,2.27v3.88c0,.62-.37.93-.9.93s-.85-.28-.89-.83v-.35h-.04c-.38.72-1.23,1.15-2.08,1.15-1.29,0-2.28-.84-2.28-2.06Zm4.37-.54v-.5l-1.43.09c-.69.05-1.09.36-1.09.84,0,.51.42.83,1.04.83.81,0,1.48-.53,1.48-1.26Z"/><path class="cls-4" d="m452.76,66.52c0-2.18,1.29-3.55,3.34-3.55,1.36,0,2.5.66,2.87,1.62.06.16.1.32.1.46,0,.46-.36.72-.79.72-.37,0-.59-.15-.78-.48-.34-.6-.75-.87-1.34-.87-.94,0-1.52.77-1.52,2.09s.58,2.1,1.5,2.1c.65,0,1.05-.32,1.33-.8.25-.39.45-.55.84-.55.43,0,.78.29.78.74,0,.15-.04.3-.12.48-.41.93-1.57,1.57-2.87,1.57-2.05,0-3.35-1.35-3.35-3.55Z"/><path class="cls-4" d="m460.14,69.09v-7.5c0-.63.39-.97.93-.97s.93.34.93.97v4.22h.03l2.46-2.47c.25-.26.46-.37.74-.37.48,0,.83.35.83.81,0,.28-.08.45-.35.7l-1.73,1.64,1.9,2.42c.2.27.26.44.26.68,0,.5-.36.84-.88.84-.39,0-.62-.14-.91-.58l-1.75-2.31-.59.55v1.38c0,.63-.38.96-.93.96s-.93-.33-.93-.96Z"/><path class="cls-4" d="m466.52,66.56c0-2.19,1.28-3.58,3.29-3.58s3.22,1.32,3.22,3.17c0,.51-.29.81-.81.81h-3.88v.08c0,1.01.61,1.67,1.55,1.67.68,0,1.12-.23,1.62-.82.2-.2.36-.27.6-.27.4,0,.72.25.72.68,0,.15-.04.3-.13.45-.45.84-1.5,1.33-2.82,1.33-2.13,0-3.38-1.31-3.38-3.52Zm4.73-.74c-.04-.89-.61-1.47-1.42-1.47s-1.4.6-1.47,1.47h2.89Z"/><path class="cls-4" d="m473.99,69.09v-5.18c0-.59.36-.93.9-.93s.88.34.88.93v.44h.04c.18-.84.74-1.35,1.42-1.35.25,0,.44.06.58.17.18.14.27.37.27.69,0,.29-.09.51-.27.67s-.44.23-.81.24c-.84.01-1.14.49-1.14,1.29v3.02c0,.62-.36.96-.93.96s-.93-.35-.93-.96Z"/><path class="cls-4" d="m481.33,68.32c-.06-.17-.1-.34-.1-.51,0-.51.35-.84.84-.84.39,0,.65.15.88.56.3.7,1.02,1.02,1.89,1.02,1.03,0,1.73-.5,1.73-1.17,0-.6-.43-.95-1.58-1.18l-.97-.19c-1.83-.36-2.72-1.24-2.72-2.6,0-1.68,1.46-2.79,3.5-2.79,1.68,0,2.94.7,3.35,1.9.04.13.07.26.07.43,0,.46-.33.77-.82.77-.43,0-.7-.17-.91-.56-.3-.69-.9-.98-1.68-.98-.95,0-1.57.44-1.57,1.12,0,.56.44.91,1.52,1.13l.96.2c1.94.39,2.78,1.17,2.78,2.56,0,1.79-1.4,2.92-3.69,2.92-1.89,0-3.1-.76-3.47-1.76Z"/><path class="cls-4" d="m489.5,71.39v-7.45c0-.62.38-.95.91-.95s.91.33.91.96v.37h.04c.37-.8,1.12-1.29,2.11-1.29,1.73,0,2.79,1.31,2.79,3.51s-1.05,3.51-2.75,3.51c-.99,0-1.75-.48-2.11-1.25h-.04v2.6c0,.63-.38.96-.93.96s-.93-.33-.93-.96Zm4.86-4.86c0-1.23-.58-2.02-1.51-2.02s-1.5.81-1.5,2.02.6,2.02,1.5,2.02,1.51-.78,1.51-2.02Z"/><path class="cls-4" d="m496.94,67.97c0-1.24.95-1.96,2.65-2.06l1.71-.1v-.45c0-.63-.44-1-1.14-1-.56,0-.91.18-1.32.72-.2.23-.44.34-.74.34-.45,0-.77-.29-.77-.71,0-.15.03-.28.1-.42.32-.81,1.41-1.31,2.82-1.31,1.75,0,2.88.9,2.88,2.27v3.88c0,.62-.37.93-.9.93s-.85-.28-.89-.83v-.35h-.04c-.38.72-1.23,1.15-2.08,1.15-1.29,0-2.28-.84-2.28-2.06Zm4.37-.54v-.5l-1.43.09c-.69.05-1.09.36-1.09.84,0,.51.42.83,1.04.83.81,0,1.48-.53,1.48-1.26Z"/><path class="cls-4" d="m505.4,69.09l-1.37-4.74c-.07-.24-.1-.39-.1-.57,0-.46.37-.79.9-.79.46,0,.76.28.87.79l1.01,4.4h.04l1.05-4.34c.12-.55.48-.85,1.05-.85s.91.3,1.03.85l1.06,4.34h.04l1.02-4.41c.1-.5.4-.77.86-.77.51,0,.88.32.88.79,0,.17-.03.32-.1.56l-1.37,4.75c-.19.67-.55.98-1.19.98-.68,0-1.04-.29-1.2-.98l-1.04-3.96h-.04l-1.03,3.97c-.16.67-.53.97-1.19.97s-.98-.3-1.17-.97Z"/><path class="cls-4" d="m514.56,69.09v-5.18c0-.58.34-.93.89-.93s.93.36.93.94v.38h.04c.36-.84,1.05-1.31,2.09-1.31,1.51,0,2.36.95,2.36,2.55v3.55c0,.63-.39.96-.93.96s-.93-.33-.93-.96v-3.17c0-.89-.42-1.4-1.25-1.4s-1.36.61-1.36,1.49v3.07c0,.63-.38.96-.93.96s-.93-.33-.93-.96Z"/><path class="cls-1" d="m141.85,796.52c-.05-.13-.08-.26-.08-.39,0-.39.27-.65.65-.65.3,0,.5.12.68.43.23.54.78.78,1.46.78.79,0,1.33-.38,1.33-.9,0-.46-.33-.73-1.22-.91l-.75-.15c-1.41-.28-2.09-.95-2.09-2,0-1.29,1.12-2.14,2.69-2.14,1.29,0,2.26.54,2.57,1.46.03.1.05.2.05.33,0,.35-.25.59-.63.59-.33,0-.54-.13-.7-.43-.23-.53-.69-.75-1.29-.75-.73,0-1.21.34-1.21.86,0,.43.34.7,1.17.87l.74.15c1.49.3,2.14.9,2.14,1.97,0,1.38-1.08,2.25-2.84,2.25-1.46,0-2.39-.58-2.67-1.35Z"/><path class="cls-1" d="m147.94,795.16c0-1.68.98-2.75,2.53-2.75s2.48,1.02,2.48,2.44c0,.39-.22.62-.62.62h-2.99v.06c0,.78.47,1.28,1.19,1.28.52,0,.86-.18,1.25-.63.15-.16.28-.21.46-.21.31,0,.56.2.56.52,0,.11-.03.23-.1.35-.35.64-1.16,1.03-2.17,1.03-1.64,0-2.6-1.01-2.6-2.71Zm3.64-.57c-.03-.68-.47-1.13-1.09-1.13s-1.08.46-1.13,1.13h2.22Z"/><path class="cls-1" d="m153.49,795.14c0-1.68,1-2.73,2.57-2.73,1.05,0,1.92.51,2.21,1.25.05.12.08.25.08.35,0,.35-.27.56-.61.56-.28,0-.45-.11-.6-.37-.26-.46-.58-.67-1.03-.67-.72,0-1.17.6-1.17,1.61s.44,1.62,1.16,1.62c.5,0,.81-.24,1.03-.62.19-.3.35-.42.65-.42.33,0,.6.22.6.57,0,.11-.03.23-.09.37-.31.71-1.21,1.21-2.21,1.21-1.58,0-2.58-1.04-2.58-2.73Z"/><path class="cls-1" d="m159.13,797.12v-3.98c0-.45.28-.72.69-.72s.67.26.67.72v.34h.03c.14-.65.57-1.04,1.09-1.04.19,0,.34.04.44.13.14.11.21.28.21.53,0,.22-.07.39-.21.51s-.34.18-.62.19c-.65,0-.88.38-.88,1v2.32c0,.47-.28.74-.71.74s-.71-.27-.71-.74Z"/><path class="cls-1" d="m162.41,795.16c0-1.68.98-2.75,2.53-2.75s2.48,1.02,2.48,2.44c0,.39-.22.62-.62.62h-2.99v.06c0,.78.47,1.28,1.19,1.28.52,0,.86-.18,1.25-.63.15-.16.28-.21.46-.21.31,0,.56.2.56.52,0,.11-.03.23-.1.35-.35.64-1.16,1.03-2.17,1.03-1.64,0-2.6-1.01-2.6-2.71Zm3.64-.57c-.03-.68-.47-1.13-1.09-1.13s-1.08.46-1.13,1.13h2.22Z"/><path class="cls-1" d="m168.53,793.6h-.27c-.34,0-.55-.21-.55-.54s.21-.54.55-.54h.27v-.58c0-.46.27-.74.71-.74s.71.28.71.74v.58h.5c.34,0,.55.21.55.54s-.21.54-.55.54h-.5v2.5c0,.37.13.53.43.55h.09c.35.05.54.2.54.53,0,.42-.41.63-1.01.63h-.05c-.95,0-1.44-.47-1.44-1.4v-2.82Z"/><path class="cls-1" d="m914.54,437.91v-5.51c0-.48.27-.77.74-.77h2.33c1.32,0,2.15.68,2.15,1.76,0,.77-.58,1.42-1.32,1.53v.04c.96.07,1.66.77,1.66,1.7,0,1.24-.93,2.02-2.44,2.02h-2.38c-.46,0-.74-.28-.74-.77Zm2.54-3.34c.79,0,1.23-.35,1.23-.94s-.39-.89-1.08-.89h-1.21v1.83h1.06Zm.21,3.02c.85,0,1.31-.36,1.31-1.04s-.47-1.01-1.34-1.01h-1.24v2.05h1.27Z"/><path class="cls-1" d="m922.91,438.09v-5.6c0-.6.35-.95.95-.95.51,0,.8.21,1.01.76l1.75,4.33h.04l1.74-4.33c.21-.54.5-.76,1.02-.76.6,0,.95.35.95.95v5.6c0,.43-.24.69-.66.69s-.65-.25-.65-.69v-4.16h-.04l-1.74,4.26c-.13.31-.32.45-.63.45s-.52-.14-.64-.44l-1.74-4.27h-.04v4.16c0,.43-.24.69-.65.69s-.66-.25-.66-.69Z"/><path class="cls-1" d="m931.11,437.18c0-.95.73-1.5,2.04-1.58l1.32-.08v-.35c0-.49-.34-.77-.88-.77-.43,0-.7.14-1.02.55-.16.18-.34.26-.57.26-.35,0-.6-.22-.6-.55,0-.11.03-.21.07-.32.24-.62,1.08-1.01,2.17-1.01,1.34,0,2.22.69,2.22,1.75v2.98c0,.47-.29.72-.69.72s-.65-.21-.68-.63v-.27h-.03c-.29.56-.95.88-1.6.88-1,0-1.75-.64-1.75-1.59Zm3.36-.42v-.38l-1.1.07c-.53.04-.83.28-.83.65,0,.39.32.63.8.63.62,0,1.14-.41,1.14-.97Z"/><path class="cls-1" d="m936.76,432.06c0-.42.33-.74.76-.74s.76.32.76.74-.33.74-.76.74-.76-.33-.76-.74Zm.05,5.98v-3.96c0-.46.27-.75.71-.75s.71.28.71.75v3.96c0,.46-.27.74-.71.74s-.71-.28-.71-.74Z"/><path class="cls-1" d="m939.18,438.04v-3.98c0-.44.26-.72.69-.72s.71.27.71.72v.29h.03c.28-.65.8-1.01,1.61-1.01,1.16,0,1.82.73,1.82,1.96v2.73c0,.49-.3.74-.71.74s-.71-.25-.71-.74v-2.44c0-.68-.32-1.07-.96-1.07s-1.04.47-1.04,1.15v2.36c0,.49-.29.74-.71.74s-.71-.25-.71-.74Z"/><path class="cls-1" d="m936.11,608.44c-.05-.13-.08-.26-.08-.4,0-.39.27-.65.65-.65.3,0,.5.12.68.43.23.54.78.78,1.46.78.79,0,1.33-.38,1.33-.9,0-.46-.33-.73-1.22-.91l-.75-.15c-1.41-.28-2.09-.95-2.09-2,0-1.29,1.12-2.14,2.69-2.14,1.29,0,2.26.54,2.57,1.46.03.1.05.2.05.33,0,.35-.25.59-.63.59-.33,0-.54-.13-.7-.43-.23-.53-.69-.75-1.29-.75-.73,0-1.21.34-1.21.86,0,.43.34.7,1.17.87l.74.15c1.49.3,2.14.9,2.14,1.97,0,1.38-1.08,2.25-2.84,2.25-1.46,0-2.39-.58-2.67-1.35Z"/><path class="cls-1" d="m942.21,607.06c0-1.67,1-2.73,2.57-2.73,1.05,0,1.92.51,2.21,1.25.05.12.08.25.08.35,0,.35-.27.56-.61.56-.28,0-.45-.11-.6-.37-.26-.46-.58-.67-1.03-.67-.72,0-1.17.6-1.17,1.61s.44,1.62,1.16,1.62c.5,0,.81-.24,1.03-.62.19-.3.35-.42.65-.42.33,0,.6.22.6.57,0,.11-.03.23-.09.37-.31.71-1.21,1.21-2.21,1.21-1.58,0-2.58-1.04-2.58-2.73Z"/><path class="cls-1" d="m947.85,609.03v-3.98c0-.45.28-.72.69-.72s.67.26.67.72v.34h.03c.14-.65.57-1.04,1.09-1.04.19,0,.34.04.44.13.14.11.21.28.21.53,0,.22-.07.4-.21.51s-.34.18-.62.19c-.65,0-.88.38-.88,1v2.32c0,.47-.28.74-.71.74s-.71-.27-.71-.74Z"/><path class="cls-1" d="m951.12,607.08c0-1.68.98-2.75,2.53-2.75s2.48,1.02,2.48,2.44c0,.4-.22.62-.62.62h-2.99v.06c0,.78.47,1.28,1.19,1.28.52,0,.86-.18,1.25-.63.15-.16.28-.21.46-.21.31,0,.56.2.56.52,0,.11-.03.23-.1.35-.35.64-1.16,1.03-2.17,1.03-1.64,0-2.6-1.01-2.6-2.71Zm3.64-.57c-.03-.68-.47-1.13-1.09-1.13s-1.08.46-1.13,1.13h2.22Z"/><path class="cls-1" d="m956.67,607.08c0-1.68.98-2.75,2.53-2.75s2.48,1.02,2.48,2.44c0,.4-.22.62-.62.62h-2.99v.06c0,.78.47,1.28,1.19,1.28.52,0,.86-.18,1.25-.63.15-.16.28-.21.46-.21.31,0,.56.2.56.52,0,.11-.03.23-.1.35-.35.64-1.16,1.03-2.17,1.03-1.64,0-2.6-1.01-2.6-2.71Zm3.64-.57c-.03-.68-.47-1.13-1.09-1.13s-1.08.46-1.13,1.13h2.22Z"/><path class="cls-1" d="m962.42,609.03v-3.98c0-.44.26-.72.69-.72s.71.27.71.72v.29h.03c.28-.65.81-1.01,1.61-1.01,1.16,0,1.82.73,1.82,1.96v2.73c0,.49-.3.74-.71.74s-.71-.25-.71-.74v-2.44c0-.68-.32-1.07-.96-1.07s-1.04.47-1.04,1.15v2.36c0,.49-.29.74-.71.74s-.71-.25-.71-.74Z"/><path class="cls-1" d="m826.51,690.26v-5.7c0-.49.27-.77.74-.77s.74.28.74.77v2.19h3.17v-2.19c0-.49.27-.77.74-.77s.74.28.74.77v5.7c0,.48-.27.77-.74.77s-.74-.28-.74-.77v-2.29h-3.17v2.29c0,.48-.27.77-.74.77s-.74-.28-.74-.77Z"/><path class="cls-1" d="m833.37,689.43c0-.95.73-1.5,2.04-1.58l1.32-.08v-.35c0-.49-.34-.77-.88-.77-.43,0-.7.14-1.02.55-.16.18-.34.26-.57.26-.35,0-.6-.22-.6-.55,0-.11.02-.21.07-.32.24-.62,1.08-1.01,2.17-1.01,1.34,0,2.22.69,2.22,1.75v2.98c0,.47-.29.72-.69.72s-.65-.21-.68-.63v-.27h-.03c-.29.56-.95.88-1.6.88-1,0-1.75-.64-1.75-1.59Zm3.36-.42v-.38l-1.1.07c-.53.04-.83.28-.83.65,0,.39.32.63.8.63.62,0,1.14-.41,1.14-.97Z"/><path class="cls-1" d="m839.08,690.29v-5.77c0-.49.3-.75.71-.75s.71.26.71.75v5.77c0,.49-.29.74-.71.74s-.71-.25-.71-.74Z"/><path class="cls-1" d="m841.5,690.29v-5.77c0-.49.3-.75.71-.75s.71.26.71.75v5.77c0,.49-.29.74-.71.74s-.71-.25-.71-.74Z"/><path class="cls-1" d="m301.22,474.11c0-.12.03-.29.1-.47l1.92-5.24c.21-.57.55-.83,1.11-.83s.92.25,1.13.83l1.93,5.24c.07.19.09.32.09.47,0,.41-.31.69-.74.69s-.63-.19-.77-.65l-.37-1.11h-2.54l-.37,1.1c-.14.47-.36.66-.75.66-.46,0-.75-.27-.75-.69Zm4.07-2.21l-.93-2.89h-.03l-.91,2.89h1.88Z"/><path class="cls-1" d="m308.28,474.07v-3.98c0-.45.28-.72.69-.72s.67.26.67.72v.34h.03c.14-.65.57-1.04,1.09-1.04.19,0,.34.04.44.13.14.11.21.28.21.53,0,.22-.07.4-.21.51s-.34.18-.62.19c-.65,0-.88.38-.88,1v2.32c0,.47-.28.74-.71.74s-.71-.27-.71-.74Z"/><path class="cls-1" d="m312.3,470.55h-.27c-.34,0-.55-.21-.55-.54s.21-.54.55-.54h.27v-.58c0-.46.27-.74.71-.74s.71.28.71.74v.58h.5c.34,0,.55.21.55.54s-.21.54-.55.54h-.5v2.5c0,.37.13.53.43.55h.09c.35.05.54.2.54.53,0,.42-.41.63-1.01.63h-.05c-.95,0-1.44-.47-1.44-1.4v-2.82Z"/><path class="cls-1" d="m303.34,627.01c0-.12.03-.29.1-.47l1.92-5.24c.21-.57.55-.83,1.11-.83s.92.25,1.13.83l1.93,5.24c.07.19.09.32.09.47,0,.41-.31.69-.74.69s-.63-.19-.77-.65l-.37-1.11h-2.54l-.37,1.1c-.14.47-.36.66-.75.66-.46,0-.75-.27-.75-.69Zm4.07-2.21l-.93-2.89h-.03l-.91,2.89h1.88Z"/><path class="cls-1" d="m312.5,626.84v-5.6c0-.49.27-.77.74-.77s.74.28.74.77v5.15h2.5c.4,0,.67.23.67.61s-.26.61-.67.61h-3.24c-.46,0-.74-.28-.74-.77Z"/><path class="cls-1" d="m317.78,620.99c0-.42.33-.74.76-.74s.76.32.76.74-.33.74-.76.74-.76-.33-.76-.74Zm.05,5.98v-3.96c0-.46.27-.75.71-.75s.71.28.71.75v3.96c0,.46-.27.74-.71.74s-.71-.28-.71-.74Z"/><path class="cls-1" d="m320.2,626.98v-3.98c0-.44.26-.72.69-.72s.71.27.71.72v.29h.03c.28-.65.81-1.01,1.61-1.01,1.16,0,1.82.73,1.82,1.96v2.73c0,.49-.3.74-.71.74s-.71-.25-.71-.74v-2.44c0-.68-.32-1.07-.96-1.07s-1.04.47-1.04,1.15v2.36c0,.49-.29.74-.71.74s-.71-.25-.71-.74Z"/><path class="cls-1" d="m326,626.98v-5.77c0-.49.3-.75.71-.75s.71.26.71.75v3.25h.02l1.89-1.9c.19-.2.35-.28.57-.28.37,0,.63.27.63.62,0,.21-.06.35-.27.54l-1.33,1.26,1.46,1.86c.16.21.2.34.2.52,0,.38-.28.64-.68.64-.3,0-.47-.11-.7-.44l-1.34-1.78-.45.42v1.06c0,.49-.29.74-.71.74s-.71-.25-.71-.74Z"/><path class="cls-1" d="m38.06,474.12c0-.12.03-.29.1-.47l1.92-5.24c.21-.57.55-.83,1.11-.83s.92.25,1.13.83l1.93,5.24c.07.19.09.32.09.47,0,.41-.31.69-.74.69s-.63-.19-.77-.65l-.37-1.11h-2.54l-.37,1.1c-.14.47-.36.66-.75.66-.46,0-.75-.27-.75-.69Zm4.07-2.21l-.93-2.89h-.03l-.91,2.89h1.88Z"/><path class="cls-1" d="m47.21,474.12v-5.6c0-.6.35-.95.95-.95.51,0,.8.21,1.01.76l1.75,4.33h.04l1.74-4.33c.21-.54.5-.76,1.02-.76.6,0,.95.35.95.95v5.6c0,.43-.24.69-.66.69s-.65-.25-.65-.69v-4.16h-.04l-1.74,4.26c-.13.31-.32.45-.63.45s-.52-.14-.64-.44l-1.74-4.27h-.04v4.16c0,.43-.24.69-.65.69s-.66-.25-.66-.69Z"/><path class="cls-1" d="m55.41,473.21c0-.95.73-1.5,2.04-1.58l1.32-.08v-.35c0-.49-.34-.77-.88-.77-.43,0-.7.14-1.02.55-.16.18-.34.26-.57.26-.35,0-.6-.22-.6-.55,0-.11.02-.21.07-.32.24-.62,1.08-1.01,2.17-1.01,1.34,0,2.22.69,2.22,1.75v2.98c0,.47-.29.72-.69.72s-.65-.21-.68-.63v-.27h-.03c-.29.56-.95.88-1.6.88-1,0-1.75-.64-1.75-1.59Zm3.36-.42v-.38l-1.1.07c-.53.04-.83.28-.83.65,0,.39.32.63.8.63.62,0,1.14-.41,1.14-.97Z"/><path class="cls-1" d="m61.07,468.1c0-.42.33-.74.76-.74s.76.32.76.74-.33.74-.76.74-.76-.33-.76-.74Zm.05,5.98v-3.96c0-.46.27-.75.71-.75s.71.28.71.75v3.96c0,.46-.27.74-.71.74s-.71-.28-.71-.74Z"/><path class="cls-1" d="m63.49,474.08v-3.98c0-.44.26-.72.69-.72s.71.27.71.72v.29h.03c.28-.65.81-1.01,1.61-1.01,1.16,0,1.82.73,1.82,1.96v2.73c0,.49-.3.74-.71.74s-.71-.25-.71-.74v-2.44c0-.68-.32-1.07-.96-1.07s-1.04.47-1.04,1.15v2.36c0,.49-.29.74-.71.74s-.71-.25-.71-.74Z"/><path class="cls-8" d="m388.47,891.57v-7.16c0-.63.36-1,.96-1h2.54c2.75,0,4.37,1.64,4.37,4.54s-1.62,4.62-4.37,4.62h-2.54c-.6,0-.96-.37-.96-1Zm3.27-.58c1.71,0,2.64-1.04,2.64-3.02s-.95-2.97-2.64-2.97h-1.35v5.99h1.35Z"/><path class="cls-8" d="m397.16,889.2c0-2.19,1.28-3.58,3.29-3.58s3.22,1.32,3.22,3.17c0,.51-.29.81-.81.81h-3.88v.08c0,1.01.61,1.67,1.55,1.67.68,0,1.12-.23,1.62-.82.2-.2.36-.27.6-.27.4,0,.72.25.72.68,0,.15-.04.3-.13.45-.45.84-1.5,1.33-2.82,1.33-2.13,0-3.38-1.31-3.38-3.52Zm4.73-.74c-.04-.89-.61-1.47-1.42-1.47s-1.4.6-1.47,1.47h2.89Z"/><path class="cls-8" d="m405.12,891.74v-4.58h-.36c-.39,0-.68-.25-.68-.69s.29-.68.68-.68h.36v-.51c0-1.35.66-1.94,1.94-1.96.98,0,1.4.31,1.4.75,0,.26-.13.41-.37.49-.1.03-.22.04-.36.05-.57.02-.8.25-.8.75v.43h.78c.39,0,.68.25.68.68s-.29.69-.68.69h-.74v4.58c0,.64-.38.96-.93.96s-.93-.32-.93-.96Z"/><path class="cls-8" d="m408.82,889.2c0-2.19,1.28-3.58,3.29-3.58s3.22,1.32,3.22,3.17c0,.51-.29.81-.81.81h-3.88v.08c0,1.01.61,1.67,1.55,1.67.68,0,1.12-.23,1.62-.82.2-.2.36-.27.6-.27.4,0,.72.25.72.68,0,.15-.04.3-.13.45-.45.84-1.5,1.33-2.82,1.33-2.13,0-3.38-1.31-3.38-3.52Zm4.73-.74c-.04-.89-.61-1.47-1.42-1.47s-1.4.6-1.47,1.47h2.89Z"/><path class="cls-8" d="m416.28,891.74v-5.18c0-.58.34-.93.9-.93s.93.36.93.94v.38h.04c.36-.84,1.05-1.31,2.09-1.31,1.51,0,2.36.95,2.36,2.54v3.55c0,.63-.39.96-.93.96s-.93-.33-.93-.96v-3.17c0-.89-.42-1.4-1.25-1.4s-1.36.61-1.36,1.49v3.07c0,.63-.38.96-.93.96s-.93-.33-.93-.96Z"/><path class="cls-8" d="m423.53,889.16c0-2.16,1.08-3.5,2.79-3.5.98,0,1.75.52,2.08,1.28h.04v-2.69c0-.63.39-.97.93-.97s.93.34.93.97v7.52c0,.62-.38.94-.92.94s-.93-.32-.93-.94v-.39h-.03c-.3.76-1.05,1.31-2.09,1.31-1.7,0-2.77-1.35-2.77-3.52Zm4.91.01c0-1.24-.59-2.03-1.51-2.03s-1.5.78-1.5,2.03.57,2.02,1.5,2.02,1.51-.77,1.51-2.02Z"/><path class="cls-8" d="m431.27,889.2c0-2.19,1.28-3.58,3.29-3.58s3.22,1.32,3.22,3.17c0,.51-.29.81-.81.81h-3.88v.08c0,1.01.61,1.67,1.55,1.67.68,0,1.12-.23,1.62-.82.2-.2.36-.27.6-.27.4,0,.72.25.72.68,0,.15-.04.3-.13.45-.45.84-1.5,1.33-2.82,1.33-2.13,0-3.38-1.31-3.38-3.52Zm4.73-.74c-.04-.89-.61-1.47-1.42-1.47s-1.4.6-1.47,1.47h2.89Z"/><path class="cls-8" d="m438.74,891.74v-5.18c0-.59.36-.93.9-.93s.88.34.88.93v.45h.04c.18-.84.74-1.35,1.42-1.35.25,0,.44.06.58.17.18.14.27.37.27.69,0,.29-.09.51-.27.67s-.44.23-.81.24c-.84.01-1.14.49-1.14,1.29v3.02c0,.62-.36.96-.93.96s-.93-.35-.93-.96Z"/><path class="cls-8" d="m446.07,890.97c-.06-.17-.1-.34-.1-.51,0-.51.35-.84.84-.84.39,0,.65.15.88.56.3.7,1.02,1.02,1.89,1.02,1.03,0,1.73-.49,1.73-1.17,0-.6-.43-.95-1.58-1.18l-.97-.19c-1.83-.36-2.72-1.24-2.72-2.6,0-1.68,1.46-2.79,3.5-2.79,1.68,0,2.94.71,3.35,1.9.04.13.07.26.07.42,0,.46-.33.77-.82.77-.43,0-.7-.17-.91-.57-.3-.69-.9-.98-1.68-.98-.95,0-1.57.44-1.57,1.12,0,.56.44.91,1.52,1.13l.96.2c1.94.39,2.78,1.17,2.78,2.56,0,1.79-1.4,2.92-3.69,2.92-1.89,0-3.1-.76-3.47-1.76Z"/><path class="cls-8" d="m454.24,894.03v-7.45c0-.62.38-.95.91-.95s.91.33.91.96v.37h.04c.37-.8,1.12-1.29,2.11-1.29,1.73,0,2.79,1.31,2.79,3.51s-1.05,3.51-2.75,3.51c-.99,0-1.75-.48-2.11-1.25h-.04v2.6c0,.63-.38.96-.93.96s-.93-.33-.93-.96Zm4.86-4.86c0-1.23-.58-2.03-1.51-2.03s-1.5.81-1.5,2.03.6,2.02,1.5,2.02,1.51-.78,1.51-2.02Z"/><path class="cls-8" d="m461.69,890.62c0-1.24.95-1.96,2.65-2.06l1.71-.1v-.45c0-.63-.44-1-1.14-1-.56,0-.91.18-1.32.72-.2.23-.44.34-.74.34-.45,0-.77-.29-.77-.71,0-.15.03-.28.1-.42.32-.81,1.41-1.31,2.82-1.31,1.75,0,2.88.9,2.88,2.27v3.88c0,.62-.37.93-.9.93s-.85-.28-.89-.82v-.35h-.04c-.38.72-1.23,1.15-2.08,1.15-1.29,0-2.28-.84-2.28-2.06Zm4.37-.54v-.5l-1.43.09c-.69.05-1.09.36-1.09.84,0,.51.42.83,1.04.83.81,0,1.48-.53,1.48-1.26Z"/><path class="cls-8" d="m470.15,891.73l-1.37-4.74c-.07-.24-.1-.39-.1-.57,0-.46.37-.79.9-.79.46,0,.76.28.87.79l1.01,4.4h.04l1.05-4.34c.12-.55.48-.85,1.05-.85s.91.3,1.03.85l1.06,4.34h.04l1.02-4.41c.1-.5.4-.77.86-.77.51,0,.88.32.88.79,0,.17-.03.32-.1.57l-1.37,4.75c-.19.67-.55.98-1.19.98-.68,0-1.04-.29-1.2-.98l-1.03-3.96h-.04l-1.03,3.97c-.16.67-.53.97-1.19.97s-.98-.3-1.17-.97Z"/><path class="cls-8" d="m479.31,891.74v-5.18c0-.58.34-.93.9-.93s.93.36.93.94v.38h.04c.36-.84,1.05-1.31,2.09-1.31,1.51,0,2.36.95,2.36,2.54v3.55c0,.63-.39.96-.93.96s-.93-.33-.93-.96v-3.17c0-.89-.42-1.4-1.25-1.4s-1.36.61-1.36,1.49v3.07c0,.63-.38.96-.93.96s-.93-.33-.93-.96Z"/><path class="cls-1" d="m715.6,582.53v-5.7c0-.49.27-.77.74-.77s.74.28.74.77v2.19h3.17v-2.19c0-.49.27-.77.74-.77s.74.28.74.77v5.7c0,.48-.27.77-.74.77s-.74-.28-.74-.77v-2.29h-3.17v2.29c0,.48-.27.77-.74.77s-.74-.28-.74-.77Z"/><path class="cls-1" d="m722.58,580.61c0-1.68.98-2.75,2.53-2.75s2.48,1.02,2.48,2.44c0,.39-.22.62-.62.62h-2.99v.06c0,.78.47,1.28,1.19,1.28.52,0,.86-.18,1.25-.63.15-.16.28-.21.46-.21.31,0,.56.2.56.52,0,.11-.03.23-.1.35-.35.64-1.16,1.03-2.17,1.03-1.64,0-2.6-1.01-2.6-2.71Zm3.64-.57c-.03-.68-.47-1.13-1.09-1.13s-1.08.46-1.13,1.13h2.22Z"/><path class="cls-1" d="m728.12,581.7c0-.95.73-1.5,2.04-1.58l1.32-.08v-.35c0-.49-.34-.77-.88-.77-.43,0-.7.14-1.02.55-.16.18-.34.26-.57.26-.35,0-.6-.22-.6-.55,0-.11.02-.21.07-.32.24-.62,1.08-1.01,2.17-1.01,1.34,0,2.22.69,2.22,1.75v2.98c0,.47-.29.72-.69.72s-.65-.21-.68-.63v-.27h-.03c-.29.56-.95.88-1.6.88-1,0-1.75-.64-1.75-1.59Zm3.36-.42v-.38l-1.1.07c-.53.04-.83.28-.83.65,0,.39.32.63.8.63.62,0,1.14-.41,1.14-.97Z"/><path class="cls-1" d="m734.94,582.58l-1.36-3.65c-.04-.13-.08-.28-.08-.43,0-.38.31-.64.71-.64.35,0,.58.19.68.57l1.06,3.51h.03l1.06-3.53c.1-.38.34-.56.67-.56.4,0,.69.27.69.63,0,.13-.03.28-.08.4l-1.36,3.68c-.18.5-.48.73-1,.73-.55,0-.84-.22-1.03-.73Z"/><path class="cls-1" d="m738.71,580.61c0-1.68.98-2.75,2.53-2.75s2.48,1.02,2.48,2.44c0,.39-.22.62-.62.62h-2.99v.06c0,.78.47,1.28,1.19,1.28.52,0,.86-.18,1.25-.63.15-.16.28-.21.46-.21.31,0,.56.2.56.52,0,.11-.03.23-.1.35-.35.64-1.16,1.03-2.17,1.03-1.64,0-2.6-1.01-2.6-2.71Zm3.64-.57c-.03-.68-.47-1.13-1.09-1.13s-1.08.46-1.13,1.13h2.22Z"/><path class="cls-1" d="m744.46,582.57v-3.98c0-.44.26-.72.69-.72s.71.27.71.72v.29h.03c.28-.65.81-1.01,1.61-1.01,1.16,0,1.82.73,1.82,1.96v2.73c0,.49-.3.74-.71.74s-.71-.25-.71-.74v-2.44c0-.68-.32-1.07-.96-1.07s-1.04.47-1.04,1.15v2.36c0,.49-.29.74-.71.74s-.71-.25-.71-.74Z"/><path class="cls-1" d="m401.22,740.64l-1.47-5.33c-.05-.18-.08-.36-.08-.49,0-.41.28-.66.73-.66.39,0,.62.21.71.63l1.05,4.57h.04l1.19-4.54c.11-.46.35-.66.76-.66s.64.21.75.65l1.19,4.55h.04l1.05-4.57c.09-.42.33-.63.71-.63.45,0,.73.25.73.66,0,.13-.03.3-.08.49l-1.47,5.34c-.15.52-.4.74-.85.74s-.73-.22-.87-.75l-1.17-4.16h-.04l-1.17,4.16c-.14.52-.41.75-.87.75s-.72-.22-.86-.75Z"/><path class="cls-1" d="m408.57,739.8c0-.95.73-1.5,2.04-1.58l1.32-.08v-.35c0-.49-.34-.77-.88-.77-.43,0-.7.14-1.02.55-.16.18-.34.26-.57.26-.35,0-.6-.22-.6-.55,0-.11.02-.21.07-.32.24-.62,1.08-1.01,2.17-1.01,1.34,0,2.22.69,2.22,1.75v2.98c0,.47-.29.72-.69.72s-.65-.21-.68-.63v-.27h-.03c-.29.56-.95.88-1.6.88-1,0-1.75-.64-1.75-1.59Zm3.36-.42v-.38l-1.1.07c-.53.04-.83.28-.83.65,0,.39.32.63.8.63.62,0,1.14-.41,1.14-.97Z"/><path class="cls-1" d="m414.63,737.14h-.27c-.34,0-.55-.21-.55-.54s.21-.54.55-.54h.27v-.58c0-.46.27-.74.71-.74s.71.28.71.74v.58h.5c.34,0,.55.21.55.54s-.21.54-.55.54h-.5v2.5c0,.37.13.53.43.55h.09c.35.05.54.2.54.53,0,.42-.41.63-1.01.63h-.05c-.95,0-1.44-.47-1.44-1.4v-2.82Z"/><path class="cls-1" d="m417.54,738.71c0-1.68.98-2.75,2.53-2.75s2.48,1.02,2.48,2.44c0,.4-.22.62-.62.62h-2.99v.06c0,.78.47,1.28,1.19,1.28.52,0,.86-.18,1.25-.63.15-.16.28-.21.46-.21.31,0,.56.2.56.52,0,.11-.03.23-.1.35-.35.64-1.16,1.03-2.17,1.03-1.64,0-2.6-1.01-2.6-2.71Zm3.64-.57c-.03-.68-.47-1.13-1.09-1.13s-1.08.46-1.13,1.13h2.22Z"/><path class="cls-1" d="m423.28,740.66v-3.98c0-.45.28-.72.69-.72s.67.26.67.72v.34h.03c.14-.65.57-1.04,1.09-1.04.19,0,.34.04.44.13.14.11.21.28.21.53,0,.22-.07.4-.21.51s-.34.18-.62.19c-.65,0-.88.38-.88,1v2.32c0,.47-.28.74-.71.74s-.71-.27-.71-.74Z"/><path class="cls-1" d="m661.39,623.71v-5.15h-1.46c-.4,0-.67-.23-.67-.61s.26-.61.67-.61h4.39c.4,0,.66.23.66.61s-.27.61-.66.61h-1.46v5.15c0,.48-.27.77-.74.77s-.74-.28-.74-.77Z"/><path class="cls-1" d="m664.93,622.52v-2.73c0-.49.3-.75.71-.75s.71.26.71.75v2.44c0,.7.35,1.07.98,1.07s1.03-.45,1.03-1.15v-2.36c0-.49.3-.75.71-.75s.71.26.71.75v3.97c0,.47-.28.72-.69.72s-.69-.25-.69-.72v-.32h-.03c-.26.66-.78,1.04-1.57,1.04-1.13,0-1.88-.74-1.88-1.96Z"/><path class="cls-1" d="m670.71,623.74v-3.98c0-.44.26-.72.69-.72s.71.27.71.72v.29h.03c.28-.65.81-1.01,1.61-1.01,1.16,0,1.82.73,1.82,1.96v2.73c0,.49-.3.74-.71.74s-.71-.25-.71-.74v-2.44c0-.68-.32-1.07-.96-1.07s-1.04.47-1.04,1.15v2.36c0,.49-.29.74-.71.74s-.71-.25-.71-.74Z"/><path class="cls-1" d="m676.48,623.74v-3.98c0-.44.26-.72.69-.72s.71.27.71.72v.29h.03c.28-.65.81-1.01,1.61-1.01,1.16,0,1.82.73,1.82,1.96v2.73c0,.49-.3.74-.71.74s-.71-.25-.71-.74v-2.44c0-.68-.32-1.07-.96-1.07s-1.04.47-1.04,1.15v2.36c0,.49-.29.74-.71.74s-.71-.25-.71-.74Z"/><path class="cls-1" d="m682.05,621.79c0-1.68.98-2.75,2.53-2.75s2.48,1.02,2.48,2.44c0,.39-.22.62-.62.62h-2.99v.06c0,.78.47,1.28,1.19,1.28.52,0,.86-.18,1.25-.63.15-.16.28-.21.46-.21.31,0,.56.2.56.52,0,.11-.03.23-.1.35-.35.64-1.16,1.03-2.17,1.03-1.64,0-2.6-1.01-2.6-2.71Zm3.64-.57c-.03-.68-.47-1.13-1.09-1.13s-1.08.46-1.13,1.13h2.22Z"/><path class="cls-1" d="m687.82,623.74v-5.77c0-.49.3-.75.71-.75s.71.26.71.75v5.77c0,.49-.29.74-.71.74s-.71-.25-.71-.74Z"/><path class="cls-1" d="m456.95,339.05v-5.6c0-.6.35-.95.95-.95.51,0,.8.21,1.01.76l1.75,4.33h.04l1.74-4.33c.21-.54.5-.76,1.02-.76.6,0,.95.35.95.95v5.6c0,.43-.24.69-.66.69s-.65-.25-.65-.69v-4.16h-.04l-1.74,4.26c-.13.31-.32.45-.63.45s-.52-.14-.64-.44l-1.74-4.27h-.04v4.16c0,.43-.24.69-.65.69s-.66-.25-.66-.69Z"/><path class="cls-1" d="m465.43,333.03c0-.42.33-.74.76-.74s.76.32.76.74-.33.74-.76.74-.76-.33-.76-.74Zm.05,5.98v-3.96c0-.46.27-.75.71-.75s.71.28.71.75v3.96c0,.46-.27.74-.71.74s-.71-.28-.71-.74Z"/><path class="cls-1" d="m467.66,337.02c0-1.66.83-2.69,2.14-2.69.76,0,1.34.4,1.6.98h.03v-2.07c0-.49.3-.75.71-.75s.71.26.71.75v5.79c0,.47-.29.72-.71.72s-.72-.24-.72-.72v-.3h-.02c-.23.59-.81,1.01-1.61,1.01-1.31,0-2.13-1.04-2.13-2.71Zm3.78,0c0-.95-.45-1.56-1.16-1.56s-1.16.6-1.16,1.56.44,1.55,1.16,1.55,1.16-.6,1.16-1.55Z"/><path class="cls-1" d="m244.07,770.94v-5.61c0-.48.27-.77.74-.77h3.3c.41,0,.67.23.67.61s-.27.61-.67.61h-2.56v1.88h2.32c.38,0,.63.22.63.58s-.24.59-.63.59h-2.32v2.1c0,.48-.27.77-.74.77s-.74-.28-.74-.77Z"/><path class="cls-1" d="m249.47,770.98v-5.77c0-.49.3-.75.71-.75s.71.26.71.75v5.77c0,.49-.29.74-.71.74s-.71-.25-.71-.74Z"/><path class="cls-1" d="m251.66,769c0-1.69,1.03-2.72,2.59-2.72s2.59,1.03,2.59,2.72-1.01,2.73-2.59,2.73-2.59-1.02-2.59-2.73Zm3.74,0c0-1.04-.45-1.64-1.14-1.64s-1.15.6-1.15,1.64.44,1.64,1.15,1.64,1.14-.59,1.14-1.64Z"/><path class="cls-1" d="m258.39,770.97l-1.05-3.65c-.05-.19-.08-.3-.08-.44,0-.36.29-.61.69-.61.36,0,.59.21.67.61l.78,3.38h.03l.81-3.33c.09-.42.37-.65.81-.65s.7.23.8.65l.82,3.33h.03l.78-3.39c.08-.38.31-.6.66-.6.4,0,.67.25.67.61,0,.13-.02.25-.08.43l-1.05,3.65c-.15.52-.42.75-.91.75-.52,0-.8-.22-.92-.76l-.8-3.05h-.03l-.79,3.06c-.12.52-.41.75-.91.75s-.75-.23-.9-.75Z"/><path class="cls-1" d="m265.17,769.03c0-1.68.98-2.75,2.53-2.75s2.48,1.02,2.48,2.44c0,.4-.22.62-.62.62h-2.99v.06c0,.78.47,1.28,1.19,1.28.52,0,.86-.18,1.25-.63.15-.16.28-.21.46-.21.31,0,.56.2.56.52,0,.11-.03.23-.1.35-.35.64-1.16,1.03-2.17,1.03-1.64,0-2.6-1.01-2.6-2.71Zm3.64-.57c-.03-.68-.47-1.13-1.09-1.13s-1.08.46-1.13,1.13h2.22Z"/><path class="cls-1" d="m270.91,770.98v-3.98c0-.45.28-.72.69-.72s.67.26.67.72v.34h.03c.14-.65.57-1.04,1.09-1.04.19,0,.34.04.44.13.14.11.21.28.21.53,0,.22-.07.4-.21.51s-.34.18-.62.19c-.65,0-.88.38-.88,1v2.32c0,.47-.28.74-.71.74s-.71-.27-.71-.74Z"/><path class="cls-1" d="m274.43,770.69c-.03-.09-.05-.19-.05-.26,0-.33.24-.55.58-.55.23,0,.42.1.62.32.28.37.6.53,1.14.53s.85-.21.85-.56c0-.28-.18-.43-.69-.55l-.88-.19c-1.03-.22-1.54-.74-1.54-1.52,0-1,.86-1.65,2.22-1.65,1.08,0,1.88.49,2.05,1.08.02.07.03.14.03.21,0,.29-.18.49-.55.49-.19,0-.39-.07-.52-.22-.25-.32-.53-.56-1.04-.56-.48,0-.82.23-.82.57,0,.27.21.45.73.57l.86.19c1.11.23,1.57.64,1.57,1.43,0,1.04-.93,1.71-2.31,1.71-1.2,0-2-.43-2.25-1.04Z"/><path class="cls-1" d="m422.27,623.21c0-2.27,1.29-3.64,3.32-3.64,1.32,0,2.34.59,2.82,1.6.1.19.15.38.15.55,0,.39-.26.63-.65.63-.33,0-.54-.15-.7-.49-.32-.72-.9-1.08-1.6-1.08-1.11,0-1.83.93-1.83,2.42s.71,2.43,1.84,2.43c.74,0,1.3-.34,1.62-1.04.15-.33.34-.46.65-.46.42,0,.69.26.69.65,0,.17-.04.32-.11.49-.44.98-1.49,1.58-2.82,1.58-2.09,0-3.36-1.37-3.36-3.64Z"/><path class="cls-1" d="m429.3,624.12c0-1.69,1.03-2.72,2.59-2.72s2.59,1.03,2.59,2.72-1.01,2.73-2.59,2.73-2.59-1.02-2.59-2.73Zm3.74,0c0-1.04-.45-1.64-1.14-1.64s-1.15.6-1.15,1.64.44,1.64,1.15,1.64,1.14-.59,1.14-1.64Z"/><path class="cls-1" d="m435.22,626.1v-3.98c0-.44.26-.72.69-.72s.71.27.71.72v.29h.03c.28-.65.81-1.01,1.61-1.01,1.16,0,1.82.73,1.82,1.96v2.73c0,.49-.3.74-.71.74s-.71-.25-.71-.74v-2.44c0-.68-.32-1.07-.96-1.07s-1.04.47-1.04,1.15v2.36c0,.49-.29.74-.71.74s-.71-.25-.71-.74Z"/><path class="cls-1" d="m440.98,626.1v-3.98c0-.44.26-.72.69-.72s.71.27.71.72v.29h.03c.28-.65.81-1.01,1.61-1.01,1.16,0,1.82.73,1.82,1.96v2.73c0,.49-.3.74-.71.74s-.71-.25-.71-.74v-2.44c0-.68-.32-1.07-.96-1.07s-1.04.47-1.04,1.15v2.36c0,.49-.29.74-.71.74s-.71-.25-.71-.74Z"/><path class="cls-1" d="m446.55,624.15c0-1.68.98-2.75,2.53-2.75s2.48,1.02,2.48,2.44c0,.4-.22.62-.62.62h-2.99v.06c0,.78.47,1.28,1.19,1.28.52,0,.86-.18,1.25-.63.15-.16.28-.21.46-.21.31,0,.56.2.56.52,0,.11-.03.23-.1.35-.35.64-1.16,1.03-2.17,1.03-1.64,0-2.6-1.01-2.6-2.71Zm3.64-.57c-.03-.68-.47-1.13-1.09-1.13s-1.08.46-1.13,1.13h2.22Z"/><path class="cls-1" d="m452.1,624.12c0-1.67,1-2.73,2.57-2.73,1.05,0,1.92.51,2.21,1.25.05.12.08.25.08.35,0,.35-.27.56-.61.56-.28,0-.45-.11-.6-.37-.26-.46-.58-.67-1.03-.67-.72,0-1.17.6-1.17,1.61s.44,1.62,1.16,1.62c.5,0,.81-.24,1.03-.62.19-.3.35-.42.65-.42.33,0,.6.22.6.57,0,.11-.03.23-.09.37-.31.71-1.21,1.21-2.21,1.21-1.58,0-2.58-1.04-2.58-2.73Z"/><path class="cls-1" d="m458.12,622.58h-.27c-.34,0-.55-.21-.55-.54s.21-.54.55-.54h.27v-.58c0-.46.27-.74.71-.74s.71.28.71.74v.58h.5c.34,0,.55.21.55.54s-.21.54-.55.54h-.5v2.5c0,.37.13.53.43.55h.09c.35.05.54.2.54.53,0,.42-.41.63-1.01.63h-.05c-.95,0-1.44-.47-1.44-1.4v-2.82Z"/><path class="cls-1" d="m461.03,624.12c0-1.69,1.03-2.72,2.59-2.72s2.59,1.03,2.59,2.72-1.01,2.73-2.59,2.73-2.59-1.02-2.59-2.73Zm3.74,0c0-1.04-.45-1.64-1.14-1.64s-1.15.6-1.15,1.64.44,1.64,1.15,1.64,1.14-.59,1.14-1.64Z"/><path class="cls-1" d="m466.95,626.1v-3.98c0-.45.28-.72.69-.72s.67.26.67.72v.34h.03c.14-.65.57-1.04,1.09-1.04.19,0,.34.04.44.13.14.11.21.28.21.53,0,.22-.07.4-.21.51s-.34.18-.62.19c-.65,0-.88.38-.88,1v2.32c0,.47-.28.74-.71.74s-.71-.27-.71-.74Z"/><path class="cls-1" d="m584.16,739.93v-5.62c0-.48.27-.77.74-.77h2.15c1.62,0,2.55.86,2.55,2.25,0,.88-.43,1.63-1.21,1.96l1.02,1.76c.12.21.16.34.16.51,0,.39-.31.67-.74.67-.35,0-.51-.13-.75-.56l-1.17-2.12h-1.25v1.91c0,.48-.27.77-.74.77s-.74-.28-.74-.77Zm2.74-2.98c.74,0,1.18-.42,1.18-1.12s-.46-1.12-1.19-1.12h-1.25v2.25h1.27Z"/><path class="cls-1" d="m590.2,738c0-1.68.98-2.75,2.53-2.75s2.48,1.02,2.48,2.44c0,.39-.22.62-.62.62h-2.99v.06c0,.78.47,1.28,1.19,1.28.52,0,.86-.18,1.25-.63.15-.16.28-.21.46-.21.31,0,.56.2.56.52,0,.11-.03.23-.1.35-.35.64-1.16,1.03-2.17,1.03-1.64,0-2.6-1.01-2.6-2.71Zm3.64-.57c-.03-.68-.47-1.13-1.09-1.13s-1.08.46-1.13,1.13h2.22Z"/><path class="cls-1" d="m595.75,737.98c0-1.68,1-2.73,2.57-2.73,1.05,0,1.92.51,2.21,1.25.05.12.08.25.08.35,0,.35-.27.56-.61.56-.28,0-.45-.11-.6-.37-.26-.46-.58-.67-1.03-.67-.72,0-1.17.6-1.17,1.61s.44,1.62,1.16,1.62c.5,0,.81-.24,1.03-.62.19-.3.35-.42.65-.42.33,0,.6.22.6.57,0,.11-.03.23-.09.37-.31.71-1.21,1.21-2.21,1.21-1.58,0-2.58-1.04-2.58-2.73Z"/><path class="cls-1" d="m601.2,737.97c0-1.69,1.03-2.72,2.59-2.72s2.59,1.03,2.59,2.72-1.01,2.73-2.59,2.73-2.59-1.02-2.59-2.73Zm3.74,0c0-1.04-.45-1.64-1.14-1.64s-1.15.6-1.15,1.64.44,1.64,1.15,1.64,1.14-.59,1.14-1.64Z"/><path class="cls-1" d="m607.12,739.95v-3.98c0-.45.28-.72.69-.72s.67.26.67.72v.34h.03c.14-.65.57-1.04,1.09-1.04.19,0,.34.04.44.13.14.11.21.28.21.53,0,.22-.07.39-.21.51s-.34.18-.62.19c-.65,0-.88.38-.88,1v2.32c0,.47-.28.74-.71.74s-.71-.27-.71-.74Z"/><path class="cls-1" d="m610.4,737.97c0-1.66.83-2.69,2.14-2.69.76,0,1.34.4,1.6.98h.03v-2.07c0-.49.3-.75.71-.75s.71.26.71.75v5.79c0,.47-.29.72-.71.72s-.72-.24-.72-.72v-.3h-.02c-.23.59-.81,1.01-1.61,1.01-1.31,0-2.13-1.04-2.13-2.71Zm3.78,0c0-.95-.45-1.56-1.16-1.56s-1.16.6-1.16,1.56.44,1.55,1.16,1.55,1.16-.6,1.16-1.55Z"/><path class="cls-1" d="m768.03,465.9v-5.51c0-.48.27-.77.74-.77h2.33c1.32,0,2.15.68,2.15,1.76,0,.77-.58,1.42-1.32,1.53v.04c.96.07,1.66.77,1.66,1.7,0,1.24-.93,2.02-2.44,2.02h-2.38c-.46,0-.74-.28-.74-.77Zm2.53-3.34c.79,0,1.24-.35,1.24-.94s-.4-.89-1.08-.89h-1.21v1.83h1.06Zm.21,3.02c.85,0,1.31-.36,1.31-1.04s-.47-1.01-1.34-1.01h-1.24v2.05h1.27Z"/><path class="cls-1" d="m776.4,465.9v-5.6c0-.49.27-.77.74-.77s.74.28.74.77v5.15h2.5c.4,0,.67.23.67.61s-.26.61-.67.61h-3.24c-.46,0-.74-.28-.74-.77Z"/><path class="cls-1" d="m781.69,460.05c0-.42.33-.74.76-.74s.76.32.76.74-.33.74-.76.74-.76-.33-.76-.74Zm.05,5.98v-3.96c0-.46.27-.75.71-.75s.71.28.71.75v3.96c0,.46-.27.74-.71.74s-.71-.28-.71-.74Z"/><path class="cls-1" d="m784.11,466.03v-3.98c0-.44.26-.72.69-.72s.71.27.71.72v.29h.03c.28-.65.81-1.01,1.61-1.01,1.16,0,1.82.73,1.82,1.96v2.73c0,.49-.3.74-.71.74s-.71-.25-.71-.74v-2.44c0-.68-.32-1.07-.96-1.07s-1.04.47-1.04,1.15v2.36c0,.49-.29.74-.71.74s-.71-.25-.71-.74Z"/><path class="cls-1" d="m789.9,466.03v-5.77c0-.49.3-.75.71-.75s.71.26.71.75v3.25h.02l1.89-1.9c.19-.2.35-.28.57-.28.37,0,.63.27.63.62,0,.21-.06.35-.27.54l-1.33,1.26,1.46,1.86c.16.21.2.34.2.52,0,.38-.28.64-.68.64-.3,0-.47-.11-.7-.44l-1.34-1.78-.45.42v1.06c0,.49-.29.74-.71.74s-.71-.25-.71-.74Z"/><path class="cls-1" d="m832.24,578.78v-15.97c0-1.4.79-2.22,2.14-2.22h6.75c3.84,0,6.24,1.97,6.24,5.1,0,2.24-1.67,4.11-3.84,4.43v.11c2.78.21,4.81,2.24,4.81,4.94,0,3.6-2.7,5.85-7.07,5.85h-6.91c-1.35,0-2.14-.82-2.14-2.24Zm7.35-9.7c2.28,0,3.58-1.01,3.58-2.73s-1.15-2.58-3.14-2.58h-3.51v5.31h3.07Zm.61,8.75c2.46,0,3.79-1.05,3.79-3s-1.37-2.93-3.89-2.93h-3.58v5.93h3.68Z"/><path class="cls-1" d="m68.34,675.24v-5.51c0-.48.27-.77.74-.77h1.95c2.11,0,3.36,1.26,3.36,3.5s-1.25,3.55-3.36,3.55h-1.95c-.46,0-.74-.28-.74-.77Zm2.51-.45c1.32,0,2.03-.8,2.03-2.32s-.73-2.29-2.03-2.29h-1.04v4.61h1.04Z"/><path class="cls-1" d="m75.2,674.15v-2.73c0-.49.3-.75.71-.75s.71.26.71.75v2.44c0,.7.35,1.07.98,1.07s1.03-.45,1.03-1.15v-2.36c0-.49.3-.75.71-.75s.71.26.71.75v3.97c0,.47-.28.72-.69.72s-.69-.25-.69-.72v-.32h-.03c-.26.66-.78,1.04-1.57,1.04-1.13,0-1.88-.74-1.88-1.96Z"/><path class="cls-1" d="m81.12,677.02c-.08-.13-.11-.26-.11-.4,0-.3.22-.52.58-.52.19,0,.33.06.49.21.39.37.76.57,1.23.57.78,0,1.24-.42,1.24-1.08v-.84h-.03c-.24.56-.85.94-1.61.94-1.3,0-2.12-1-2.12-2.59s.8-2.61,2.15-2.61c.75,0,1.32.4,1.6.99h.03v-.29c0-.48.31-.72.72-.72s.71.24.71.72v4.41c0,1.36-.99,2.18-2.67,2.17-1.07,0-1.87-.41-2.2-.96Zm3.45-3.69c0-.94-.46-1.55-1.17-1.55s-1.15.6-1.15,1.54.44,1.52,1.15,1.52,1.17-.57,1.17-1.51Z"/><path class="cls-1" d="m86.72,673.39c0-1.69,1.03-2.72,2.59-2.72s2.59,1.03,2.59,2.72-1.01,2.73-2.59,2.73-2.59-1.02-2.59-2.73Zm3.74,0c0-1.04-.45-1.64-1.14-1.64s-1.15.6-1.15,1.64.44,1.64,1.15,1.64,1.14-.59,1.14-1.64Z"/><path class="cls-1" d="m92.62,674.15v-2.73c0-.49.3-.75.71-.75s.71.26.71.75v2.44c0,.7.35,1.07.98,1.07s1.03-.45,1.03-1.15v-2.36c0-.49.3-.75.71-.75s.71.26.71.75v3.97c0,.47-.28.72-.69.72s-.69-.25-.69-.72v-.32h-.03c-.26.66-.78,1.04-1.57,1.04-1.13,0-1.88-.74-1.88-1.96Z"/><path class="cls-1" d="m98.78,671.85h-.27c-.34,0-.55-.21-.55-.54s.21-.54.55-.54h.27v-.58c0-.46.27-.74.71-.74s.71.28.71.74v.58h.5c.34,0,.55.21.55.54s-.21.54-.55.54h-.5v2.5c0,.37.13.53.43.55h.09c.35.05.54.2.54.53,0,.42-.41.63-1.01.63h-.05c-.95,0-1.44-.47-1.44-1.4v-2.82Z"/><path class="cls-1" d="m149.39,634.73c-1.13,0-1.77-.57-2.17-1.93l-1.08-3.19h-7.38l-1.08,3.23c-.38,1.33-1.02,1.88-2.22,1.88s-2.14-.83-2.14-2.01c0-.42.07-.81.27-1.36l5.61-15.21c.61-1.67,1.6-2.41,3.27-2.41s2.62.76,3.21,2.42l5.58,15.19c.18.52.28,1.01.28,1.36,0,1.23-.84,2.01-2.17,2.01Zm-4.18-8.42l-2.65-8.37h-.1l-2.7,8.37h5.45Z"/><path class="cls-1" d="m916.83,263.53v-5.62c0-.48.27-.77.74-.77h2.15c1.62,0,2.55.85,2.55,2.25,0,.88-.43,1.63-1.21,1.96l1.02,1.76c.12.21.16.34.16.51,0,.39-.31.67-.74.67-.35,0-.51-.13-.75-.56l-1.17-2.12h-1.25v1.91c0,.48-.27.77-.74.77s-.74-.28-.74-.77Zm2.74-2.98c.74,0,1.18-.42,1.18-1.12s-.46-1.12-1.19-1.12h-1.25v2.25h1.27Z"/><path class="cls-1" d="m922.88,262.69c0-.95.73-1.5,2.04-1.58l1.32-.08v-.35c0-.49-.34-.77-.88-.77-.43,0-.7.14-1.02.55-.16.18-.34.26-.57.26-.35,0-.6-.22-.6-.55,0-.11.02-.21.07-.32.24-.62,1.08-1.01,2.17-1.01,1.34,0,2.22.69,2.22,1.75v2.98c0,.47-.29.72-.69.72s-.65-.21-.68-.63v-.27h-.03c-.29.56-.95.88-1.6.88-1,0-1.75-.64-1.75-1.59Zm3.36-.42v-.38l-1.1.07c-.53.04-.83.28-.83.65,0,.39.32.63.8.63.62,0,1.14-.41,1.14-.97Z"/><path class="cls-1" d="m928.56,263.55v-3.97c0-.48.28-.73.69-.73s.69.25.69.73v.33h.03c.22-.63.78-1.04,1.49-1.04.76,0,1.28.39,1.46,1.07h.03c.23-.66.86-1.07,1.63-1.07,1.03,0,1.71.7,1.71,1.76v2.93c0,.48-.29.74-.72.74s-.71-.26-.71-.74v-2.58c0-.61-.3-.94-.85-.94s-.9.4-.9.98v2.54c0,.48-.26.74-.69.74s-.68-.26-.68-.74v-2.62c0-.56-.32-.89-.84-.89s-.91.41-.91,1v2.52c0,.48-.29.74-.71.74s-.71-.26-.71-.74Z"/><path class="cls-1" d="m937.19,265.32v-5.73c0-.48.29-.73.7-.73s.7.25.7.74v.28h.03c.28-.62.86-1,1.62-1,1.33,0,2.14,1.01,2.14,2.7s-.81,2.7-2.12,2.7c-.76,0-1.35-.37-1.63-.96h-.03v2c0,.49-.29.74-.71.74s-.71-.25-.71-.74Zm3.74-3.74c0-.95-.45-1.56-1.16-1.56s-1.16.62-1.16,1.56.46,1.55,1.16,1.55,1.16-.6,1.16-1.55Z"/><path class="cls-1" d="m374.95,242.1v-5.6c0-.6.35-.95.95-.95.51,0,.8.21,1.01.76l1.75,4.33h.04l1.74-4.33c.21-.54.5-.76,1.02-.76.6,0,.95.35.95.95v5.6c0,.43-.24.69-.66.69s-.65-.25-.65-.69v-4.16h-.04l-1.74,4.26c-.13.31-.32.45-.63.45s-.52-.14-.64-.44l-1.74-4.27h-.04v4.16c0,.43-.24.69-.65.69s-.66-.25-.66-.69Z"/><path class="cls-1" d="m383.15,241.19c0-.95.73-1.5,2.04-1.58l1.32-.08v-.35c0-.49-.34-.77-.88-.77-.43,0-.7.14-1.02.55-.16.18-.34.26-.57.26-.35,0-.6-.22-.6-.55,0-.11.02-.21.07-.32.24-.62,1.08-1.01,2.17-1.01,1.34,0,2.22.69,2.22,1.75v2.98c0,.47-.29.72-.69.72s-.65-.21-.68-.63v-.27h-.03c-.29.56-.95.88-1.6.88-1,0-1.75-.64-1.75-1.59Zm3.36-.42v-.38l-1.1.07c-.53.04-.83.28-.83.65,0,.39.32.63.8.63.62,0,1.14-.41,1.14-.97Z"/><path class="cls-1" d="m388.82,242.05v-3.98c0-.45.28-.72.69-.72s.67.26.67.72v.34h.03c.14-.65.57-1.04,1.09-1.04.19,0,.34.04.44.13.14.11.21.28.21.53,0,.22-.07.4-.21.51s-.34.18-.62.19c-.65,0-.88.38-.88,1v2.32c0,.47-.28.74-.71.74s-.71-.27-.71-.74Z"/><path class="cls-1" d="m392.5,242.05v-5.77c0-.49.3-.75.71-.75s.71.26.71.75v3.25h.02l1.89-1.9c.19-.2.35-.28.57-.28.37,0,.63.27.63.62,0,.21-.06.35-.27.54l-1.33,1.26,1.46,1.86c.16.21.2.34.2.52,0,.38-.28.64-.68.64-.3,0-.47-.11-.7-.44l-1.34-1.78-.45.42v1.06c0,.49-.29.74-.71.74s-.71-.25-.71-.74Z"/><path class="cls-1" d="m397.41,240.1c0-1.68.98-2.75,2.53-2.75s2.48,1.02,2.48,2.44c0,.4-.22.62-.62.62h-2.99v.06c0,.78.47,1.28,1.19,1.28.52,0,.86-.18,1.25-.63.15-.16.28-.21.46-.21.31,0,.56.2.56.52,0,.11-.03.23-.1.35-.35.64-1.16,1.03-2.17,1.03-1.64,0-2.6-1.01-2.6-2.71Zm3.64-.57c-.03-.68-.47-1.13-1.09-1.13s-1.08.46-1.13,1.13h2.22Z"/><path class="cls-1" d="m403.53,238.53h-.27c-.34,0-.55-.21-.55-.54s.21-.54.55-.54h.27v-.58c0-.46.27-.74.71-.74s.71.28.71.74v.58h.5c.34,0,.55.21.55.54s-.21.54-.55.54h-.5v2.5c0,.37.13.53.43.55h.09c.35.05.54.2.54.53,0,.42-.41.63-1.01.63h-.05c-.95,0-1.44-.47-1.44-1.4v-2.82Z"/><path class="cls-1" d="m610.19,250.96c-.05-.13-.08-.26-.08-.4,0-.39.27-.65.65-.65.3,0,.5.12.68.43.23.54.78.78,1.46.78.79,0,1.33-.38,1.33-.9,0-.46-.33-.73-1.22-.91l-.75-.15c-1.41-.28-2.09-.95-2.09-2,0-1.29,1.12-2.14,2.69-2.14,1.29,0,2.26.54,2.57,1.46.03.1.05.2.05.33,0,.35-.25.59-.63.59-.33,0-.54-.13-.7-.43-.23-.53-.69-.75-1.29-.75-.73,0-1.21.34-1.21.86,0,.43.34.7,1.17.87l.74.15c1.49.3,2.14.9,2.14,1.97,0,1.38-1.08,2.25-2.84,2.25-1.46,0-2.39-.58-2.67-1.35Z"/><path class="cls-1" d="m616.51,251.56v-5.78c0-.46.26-.73.7-.73s.7.27.7.73v2.12h.03c.28-.66.85-1.03,1.65-1.03,1.16,0,1.83.75,1.83,1.96v2.73c0,.49-.29.74-.71.74s-.71-.25-.71-.74v-2.43c0-.67-.33-1.08-.98-1.08s-1.07.47-1.07,1.16v2.35c0,.49-.29.74-.71.74s-.71-.25-.71-.74Z"/><path class="cls-1" d="m622.13,249.57c0-1.69,1.03-2.72,2.59-2.72s2.59,1.03,2.59,2.72-1.01,2.73-2.59,2.73-2.59-1.02-2.59-2.73Zm3.74,0c0-1.04-.45-1.64-1.14-1.64s-1.15.6-1.15,1.64.44,1.64,1.15,1.64,1.14-.59,1.14-1.64Z"/><path class="cls-1" d="m628.05,253.32v-5.73c0-.48.29-.73.7-.73s.7.25.7.74v.28h.03c.28-.62.86-1,1.62-1,1.33,0,2.14,1.01,2.14,2.7s-.81,2.7-2.12,2.7c-.76,0-1.35-.37-1.63-.96h-.03v2c0,.49-.29.74-.71.74s-.71-.25-.71-.74Zm3.74-3.74c0-.95-.45-1.56-1.16-1.56s-1.16.62-1.16,1.56.46,1.55,1.16,1.55,1.16-.6,1.16-1.55Z"/><path class="cls-1" d="m726.14,147.11c0-2.27,1.29-3.64,3.32-3.64,1.32,0,2.34.59,2.82,1.6.1.19.15.38.15.55,0,.39-.26.63-.65.63-.33,0-.54-.15-.7-.49-.32-.72-.9-1.08-1.6-1.08-1.11,0-1.83.93-1.83,2.42s.71,2.43,1.84,2.43c.74,0,1.3-.34,1.62-1.04.15-.33.34-.46.65-.46.42,0,.69.26.69.65,0,.17-.04.32-.11.49-.44.98-1.49,1.58-2.82,1.58-2.09,0-3.36-1.37-3.36-3.64Z"/><path class="cls-1" d="m733.4,149.99v-5.77c0-.49.3-.75.71-.75s.71.26.71.75v5.77c0,.49-.29.74-.71.74s-.71-.25-.71-.74Z"/><path class="cls-1" d="m735.76,148.77v-2.73c0-.49.3-.75.71-.75s.71.26.71.75v2.44c0,.7.35,1.07.98,1.07s1.03-.45,1.03-1.15v-2.36c0-.49.3-.75.71-.75s.71.26.71.75v3.97c0,.47-.28.72-.69.72s-.69-.25-.69-.72v-.32h-.03c-.26.66-.78,1.04-1.57,1.04-1.13,0-1.88-.74-1.88-1.96Z"/><path class="cls-1" d="m741.58,150.01v-5.79c0-.49.3-.75.71-.75s.71.26.71.75v2.08h.03c.29-.62.87-.99,1.62-.99,1.32,0,2.13,1.01,2.13,2.7s-.8,2.7-2.12,2.7c-.77,0-1.35-.37-1.64-.98h-.03v.28c0,.47-.29.72-.71.72s-.7-.24-.7-.72Zm3.74-2c0-.95-.44-1.56-1.15-1.56s-1.17.62-1.17,1.56.47,1.55,1.17,1.55,1.15-.6,1.15-1.55Z"/><path class="cls-1" d="m491.83,473.94v-5.51c0-.48.27-.77.74-.77h1.95c2.11,0,3.36,1.26,3.36,3.5s-1.25,3.55-3.36,3.55h-1.95c-.46,0-.74-.28-.74-.77Zm2.51-.45c1.32,0,2.03-.8,2.03-2.32s-.73-2.29-2.03-2.29h-1.04v4.61h1.04Z"/><path class="cls-1" d="m498.51,472.09c0-1.69,1.03-2.72,2.59-2.72s2.59,1.03,2.59,2.72-1.01,2.73-2.59,2.73-2.59-1.02-2.59-2.73Zm3.74,0c0-1.04-.45-1.64-1.14-1.64s-1.15.6-1.15,1.64.44,1.64,1.15,1.64,1.14-.59,1.14-1.64Z"/><path class="cls-1" d="m504.24,472.09c0-1.69,1.03-2.72,2.59-2.72s2.59,1.03,2.59,2.72-1.01,2.73-2.59,2.73-2.59-1.02-2.59-2.73Zm3.74,0c0-1.04-.45-1.64-1.14-1.64s-1.15.6-1.15,1.64.44,1.64,1.15,1.64,1.14-.59,1.14-1.64Z"/><path class="cls-1" d="m510.16,474.08v-3.98c0-.45.28-.72.69-.72s.67.26.67.72v.34h.03c.14-.65.57-1.04,1.09-1.04.19,0,.34.04.44.13.14.11.21.28.21.53,0,.22-.07.4-.21.51s-.34.18-.62.19c-.65,0-.88.38-.88,1v2.32c0,.47-.28.74-.71.74s-.71-.27-.71-.74Z"/><path class="cls-1" d="m513.68,473.78c-.03-.09-.05-.19-.05-.26,0-.33.24-.55.58-.55.23,0,.42.1.62.32.28.37.6.53,1.14.53s.85-.21.85-.56c0-.28-.18-.43-.69-.55l-.88-.19c-1.03-.22-1.54-.74-1.54-1.52,0-1,.86-1.65,2.22-1.65,1.08,0,1.88.49,2.05,1.08.02.07.03.14.03.21,0,.29-.18.49-.55.49-.19,0-.39-.07-.52-.22-.25-.32-.53-.56-1.04-.56-.48,0-.82.23-.82.57,0,.27.21.45.73.57l.86.19c1.11.23,1.57.64,1.57,1.43,0,1.04-.93,1.71-2.31,1.71-1.2,0-2-.43-2.25-1.04Z"/><path class="cls-1" d="m240.27,293.55v-5.62c0-.48.27-.77.74-.77h2.15c1.62,0,2.55.85,2.55,2.25,0,.88-.43,1.63-1.21,1.96l1.02,1.76c.12.21.16.34.16.51,0,.39-.31.67-.74.67-.35,0-.51-.13-.75-.56l-1.17-2.12h-1.25v1.91c0,.48-.27.77-.74.77s-.74-.28-.74-.77Zm2.74-2.98c.74,0,1.18-.42,1.18-1.12s-.46-1.12-1.19-1.12h-1.25v2.25h1.27Z"/><path class="cls-1" d="m246.31,291.62c0-1.68.98-2.75,2.53-2.75s2.48,1.02,2.48,2.44c0,.4-.22.62-.62.62h-2.99v.06c0,.78.47,1.28,1.19,1.28.52,0,.86-.18,1.25-.63.15-.16.28-.21.46-.21.31,0,.56.2.56.52,0,.11-.03.23-.1.35-.35.64-1.16,1.03-2.17,1.03-1.64,0-2.6-1.01-2.6-2.71Zm3.64-.57c-.03-.68-.47-1.13-1.09-1.13s-1.08.46-1.13,1.13h2.22Z"/><path class="cls-1" d="m251.93,293.28c-.03-.09-.05-.19-.05-.26,0-.33.24-.55.58-.55.23,0,.42.1.62.32.28.37.6.53,1.14.53s.85-.21.85-.56c0-.28-.18-.43-.69-.55l-.88-.19c-1.03-.22-1.54-.74-1.54-1.52,0-1,.86-1.65,2.22-1.65,1.08,0,1.88.49,2.05,1.08.02.07.03.14.03.21,0,.29-.18.49-.55.49-.19,0-.39-.07-.52-.22-.25-.32-.53-.56-1.04-.56-.48,0-.82.23-.82.57,0,.27.21.45.73.57l.86.19c1.11.23,1.57.64,1.57,1.43,0,1.04-.93,1.71-2.31,1.71-1.2,0-2-.43-2.25-1.04Z"/><path class="cls-1" d="m257.58,290.05h-.27c-.34,0-.55-.21-.55-.54s.21-.54.55-.54h.27v-.58c0-.46.27-.74.71-.74s.71.28.71.74v.58h.5c.34,0,.55.21.55.54s-.21.54-.55.54h-.5v2.5c0,.37.13.53.43.55h.09c.35.05.54.2.54.53,0,.42-.41.63-1.01.63h-.05c-.95,0-1.44-.47-1.44-1.4v-2.82Z"/><path class="cls-1" d="m260.5,292.71c0-.95.73-1.5,2.04-1.58l1.32-.08v-.35c0-.49-.34-.77-.88-.77-.43,0-.7.14-1.02.55-.16.18-.34.26-.57.26-.35,0-.6-.22-.6-.55,0-.11.02-.21.07-.32.24-.62,1.08-1.01,2.17-1.01,1.34,0,2.22.69,2.22,1.75v2.98c0,.47-.29.72-.69.72s-.65-.21-.68-.63v-.27h-.03c-.29.56-.95.88-1.6.88-1,0-1.75-.64-1.75-1.59Zm3.36-.42v-.38l-1.1.07c-.53.04-.83.28-.83.65,0,.39.32.63.8.63.62,0,1.14-.41,1.14-.97Z"/><path class="cls-1" d="m266.16,292.35v-2.73c0-.49.3-.75.71-.75s.71.26.71.75v2.44c0,.7.35,1.07.98,1.07s1.03-.45,1.03-1.15v-2.36c0-.49.3-.75.71-.75s.71.26.71.75v3.97c0,.47-.28.72-.69.72s-.69-.25-.69-.72v-.32h-.03c-.26.66-.78,1.04-1.57,1.04-1.13,0-1.88-.74-1.88-1.96Z"/><path class="cls-1" d="m271.94,293.57v-3.98c0-.45.28-.72.69-.72s.67.26.67.72v.34h.03c.14-.65.57-1.04,1.09-1.04.19,0,.34.04.44.13.14.11.21.28.21.53,0,.22-.07.4-.21.51s-.34.18-.62.19c-.65,0-.88.38-.88,1v2.32c0,.47-.28.74-.71.74s-.71-.27-.71-.74Z"/><path class="cls-1" d="m275.25,292.71c0-.95.73-1.5,2.04-1.58l1.32-.08v-.35c0-.49-.34-.77-.88-.77-.43,0-.7.14-1.02.55-.16.18-.34.26-.57.26-.35,0-.6-.22-.6-.55,0-.11.02-.21.07-.32.24-.62,1.08-1.01,2.17-1.01,1.34,0,2.22.69,2.22,1.75v2.98c0,.47-.29.72-.69.72s-.65-.21-.68-.63v-.27h-.03c-.29.56-.95.88-1.6.88-1,0-1.75-.64-1.75-1.59Zm3.36-.42v-.38l-1.1.07c-.53.04-.83.28-.83.65,0,.39.32.63.8.63.62,0,1.14-.41,1.14-.97Z"/><path class="cls-1" d="m280.93,293.57v-3.98c0-.44.26-.72.69-.72s.71.27.71.72v.29h.03c.28-.65.81-1.01,1.61-1.01,1.16,0,1.82.73,1.82,1.96v2.73c0,.49-.3.74-.71.74s-.71-.25-.71-.74v-2.44c0-.68-.32-1.07-.96-1.07s-1.04.47-1.04,1.15v2.36c0,.49-.29.74-.71.74s-.71-.25-.71-.74Z"/><path class="cls-1" d="m287.07,290.05h-.27c-.34,0-.55-.21-.55-.54s.21-.54.55-.54h.27v-.58c0-.46.27-.74.71-.74s.71.28.71.74v.58h.5c.34,0,.55.21.55.54s-.21.54-.55.54h-.5v2.5c0,.37.13.53.43.55h.09c.35.05.54.2.54.53,0,.42-.41.63-1.01.63h-.05c-.95,0-1.44-.47-1.44-1.4v-2.82Z"/></g></svg>