<svg xmlns="http://www.w3.org/2000/svg" viewBox="0 0 923.1 879.06"><defs><style>.cls-1{fill:#ffd20a;}.cls-2{fill:#33353b;}.cls-3{fill:#575548;}.cls-10,.cls-11,.cls-12,.cls-4,.cls-5,.cls-6,.cls-7,.cls-8,.cls-9{fill:none;stroke:#b0adb0;stroke-miterlimit:10;}.cls-5{stroke-dasharray:6.62 9.46;}.cls-6{stroke-dasharray:6.63 9.48;}.cls-7{stroke-dasharray:5.58 7.98;}.cls-8{stroke-dasharray:4.62 3.69;}.cls-9{stroke-dasharray:4.99 3.99;}.cls-10{stroke-dasharray:7.11 10.15;}.cls-11{stroke-dasharray:7.19 10.27;}.cls-12{stroke-dasharray:7.12 10.18;}.cls-13{fill:#b0adb0;}.cls-14{fill:#656569;}.cls-15{fill:#d32027;}.cls-16{fill:#fff;}.cls-17{fill:#79c143;}</style></defs><title>fracture Defence</title><g id="Layer_9" data-name="Layer 9"><rect class="cls-1" x="407.99" y="185.53" width="1.06" height="550.36"/><rect class="cls-1" x="441.17" y="185.45" width="1.06" height="550.34"/></g><g id="Body_merge" data-name="Body merge"><path class="cls-2" d="M1050,1332.4h-16v-130h-15v-14H985l-21.2,34H959v-65h23v-26l-54-89.09,0-3,25-17v-26H859v-79H810v1H762l-26,15H708v-18H637v23H618v-88H489v4H406l-22,11v69h25v61.05H331V971.4H299.48c0-.89-36.48,0-36.48,0l-23,23-48,48v119h8v30H129v40.44h0v114.54h93v-40h42v10.07H242v130l59.12,42c34,2.22,34.86,12.94,34.86,12.94v2c-6.68,4.18-8.88,9.29-9.61,12.05H326v2c8.91,10.16,27,82.26,27,82.26v21.76H333v42l27,31,43,2,50,6.9,13,3,14.87,2,16,10,7.28,1.89,9.79,7.06H743l57-57v-125H775v-59H877l44-44v-9h22l13-16v-60h94Zm-353,17H675v-65.93l72.3-72.07H841v9H753l-36,36v30l-20,19v44Zm-238-300v-127h12v12h48v88l7,12h92v-15h66l23.16-46.05h29.73L802,1111.54v54.88h51v-84.71l33-20.29h2l25,45v62H789v-15H729l-88.16,89H577v77H530v-76H503v-114H447v-24.84l-37-37.14H361v-18Zm-42.54,269H412v-56H370v-11h57l20-16,16-15v-62h9v85H457v75ZM235,1192.13V1162.4h22v-104H301v27h42v29l43,43h3v41H296v21H256ZM401,1599.2c2.83-.58,4.67-1.18,5-1.8,1.74-3.47,3-12,3-12v-22l-3-9.06v-21.21l.9-12.67c-3.58-12.17-53.88-77.08-53.88-77.08H295v-18h23v-79H295v-16.06h23.94l8.09-15v-20.88h49v49l36,36h53.9v0H640.36l22.69,12H756v-75h60v108H783v-26H761v-5H726v67H667v69l24,31h36V1596l-38,38.4H615v-49H489v51H407v-15h-6Zm530-202.93v8.14H921v-14H877v-48H854v-37h48v17h103v10H931v63.87Z" transform="translate(-127.95 -849.39)"/></g><g id="Bombsite"><polygon class="cls-3" points="774.06 473.04 876.21 473.04 876.21 429.06 906.14 429.06 906.14 352.84 891.06 352.84 891.06 338.84 857.07 338.84 835.56 372.46 831.59 372.58 831.58 393.07 774.06 393.07 774.06 473.04"/><polygon class="cls-3" points="0.33 497.64 94.05 497.64 94.05 407.06 94.05 393.21 94.05 362.06 16.07 362.06 16.07 393.21 0.33 393.21 0.33 497.64"/><polygon class="cls-2" points="771.11 404.53 779.57 404.53 779.57 414.48 795.54 414.48 795.54 430.39 779.57 430.39 779.57 421.56 763.52 421.49 763.52 404.53 771.11 404.53"/></g><g id="Hell_lines" data-name="Hell lines"><line class="cls-4" x1="725.6" y1="318.7" x2="725.6" y2="322.2"/><line class="cls-5" x1="725.6" y1="331.66" x2="725.6" y2="423.37"/><polyline class="cls-4" points="725.6 428.1 725.6 431.6 722.1 431.6"/><line class="cls-6" x1="712.62" y1="431.6" x2="636.81" y2="431.6"/><polyline class="cls-4" points="632.07 431.6 628.57 431.6 628.57 435.1"/><line class="cls-7" x1="628.57" y1="443.08" x2="628.57" y2="466.21"/><line class="cls-4" x1="628.57" y1="470.2" x2="628.57" y2="473.7"/><polyline class="cls-4" points="48.53 396.1 48.53 393.6 51.03 393.6"/><line class="cls-8" x1="54.72" y1="393.6" x2="61.18" y2="393.6"/><polyline class="cls-4" points="63.03 393.6 65.53 393.6 65.53 396.1"/><line class="cls-9" x1="65.53" y1="400.09" x2="65.53" y2="416.05"/><polyline class="cls-4" points="65.53 418.04 65.53 420.54 63.03 420.54"/><line class="cls-8" x1="59.34" y1="420.54" x2="52.87" y2="420.54"/><polyline class="cls-4" points="51.03 420.54 48.53 420.54 48.53 418.04"/><line class="cls-9" x1="48.53" y1="414.05" x2="48.53" y2="398.09"/><line class="cls-4" x1="597.54" y1="542.52" x2="597.54" y2="539.02"/><polyline class="cls-10" points="597.53 528.86 597.45 397.9 598.89 396.45"/><polyline class="cls-4" points="602.47 392.86 604.94 390.38 608.44 390.38"/><line class="cls-11" x1="618.71" y1="390.38" x2="665.93" y2="390.38"/><polyline class="cls-4" points="671.06 390.38 674.56 390.38 674.56 386.88"/><polyline class="cls-4" points="674.56 374.01 674.56 370.51 673.53 370.51 673.53 367.01"/><line class="cls-12" x1="673.53" y1="356.83" x2="673.53" y2="327.32"/><line class="cls-4" x1="673.53" y1="322.23" x2="673.53" y2="318.73"/></g><g id="Lines"><path class="cls-13" d="M193,1243.49v62.93H129v-62.93h64m1-1H128v64.93h66v-64.93Z" transform="translate(-127.95 -849.39)"/><path class="cls-13" d="M144,1291.4v15H129v-15h15m1-1H128v17h17v-17Z" transform="translate(-127.95 -849.39)"/><path class="cls-13" d="M273,1219.44v14H258v-14h15m1-1H257v16h17v-16Z" transform="translate(-127.95 -849.39)"/><path class="cls-13" d="M312,1295.4l15,0v19.87l-8.11,15.06-6.91,0V1295.4m-1-1v36.93l8.5,0,8.52-15.8v-21.13l-17,0Z" transform="translate(-127.95 -849.39)"/><path class="cls-13" d="M388,1239.42v12H371v-12h17m1-1H370v14h19v-14Z" transform="translate(-127.95 -849.39)"/><path class="cls-13" d="M471,1294.39v23H457v-23h14m1-1H456v25h16v-25Z" transform="translate(-127.95 -849.39)"/><path class="cls-13" d="M471,1294.39v15H457v-15h14m1-1H456v17h16v-17Z" transform="translate(-127.95 -849.39)"/><path class="cls-13" d="M907,1254.48v10h16v14.89H908.11v-9H892v-15.94h15m1-1H891v17.94h16.08v9H924v-16.89H908v-10Z" transform="translate(-127.95 -849.39)"/><path class="cls-13" d="M874,1168.44v13H861v-13h13m1-1H860v15h15v-15Z" transform="translate(-127.95 -849.39)"/><path class="cls-13" d="M795,1220.4v51H780v-51h15m1-1H779v53h17v-53Z" transform="translate(-127.95 -849.39)"/><path class="cls-13" d="M867.73,1418.93l10,10-22.49,22.49-10-10,22.49-22.49m0-1.41-23.9,23.9,11.44,11.44,23.91-23.9-11.45-11.44Z" transform="translate(-127.95 -849.39)"/><path class="cls-13" d="M859,983.42v15H844v-15h15m1-1H843v17h17v-17Z" transform="translate(-127.95 -849.39)"/><path class="cls-13" d="M797.59,1024.72,812.07,1045l-31,22.15-10.79-22.89,27.32-19.52m.23-1.4L769,1043.91l11.66,24.73,32.79-23.43-15.64-21.89Z" transform="translate(-127.95 -849.39)"/><path class="cls-13" d="M815.06,1022.93l6.29,8.79-11.6,8.29-6.28-8.8,11.59-8.28m.23-1.4L802.07,1031l7.45,10.42,13.22-9.44-7.45-10.43Z" transform="translate(-127.95 -849.39)"/><path class="cls-4" d="M779.7,1069.33" transform="translate(-127.95 -849.39)"/><path class="cls-13" d="M636,938.39v14H619v-14h17m1-1H618v16h19v-16Z" transform="translate(-127.95 -849.39)"/><path class="cls-13" d="M552,874.52l24,2.79v12l-24-2.86V874.52m-1-1.13v14l26,3.1v-14l-26-3Z" transform="translate(-127.95 -849.39)"/><path class="cls-13" d="M564.09,888.93l7.91.93v6.55h-7.91v-7.48m-1-1.12v9.6H573V889l-9.91-1.16Z" transform="translate(-127.95 -849.39)"/><path class="cls-13" d="M554,887.72l9.1,1.1v7.59H554v-8.69m-1-1.13v10.82h11.1v-9.48L553,886.59Z" transform="translate(-127.95 -849.39)"/><path class="cls-13" d="M551,880.36v7.1h-6.95v-7.1H551m1-1h-8.95v9.1H552v-9.1Z" transform="translate(-127.95 -849.39)"/><path class="cls-13" d="M459,1043.4v6h-6v-6h6m1-1h-8v8h8v-8Z" transform="translate(-127.95 -849.39)"/><path class="cls-13" d="M300,1043.47v14.94H285.09v-14.94H300m1-1H284.09v16.94H301v-16.94Z" transform="translate(-127.95 -849.39)"/><path class="cls-13" d="M212,1091.46v15.94H192v-15.94h20m1-1H191v17.94h22v-17.94Z" transform="translate(-127.95 -849.39)"/><line class="cls-4" x1="233.6" y1="217.56" x2="214.34" y2="236.87"/><path class="cls-4" d="M618.56,1020" transform="translate(-127.95 -849.39)"/><line class="cls-4" x1="490.55" y1="141.02" x2="490.55" y2="170.63"/><polyline class="cls-4" points="783.57 355.05 783.57 392.56 771.53 392.56 771.53 396.52 755.6 396.52 755.6 428.57 773.53 428.57 773.53 456.65"/><line class="cls-4" x1="755.6" y1="428.57" x2="743.1" y2="428.57"/><line class="cls-4" x1="831.59" y1="393.07" x2="831.59" y2="372.58"/><line class="cls-4" x1="551.57" y1="696.96" x2="551.57" y2="610.52"/><polyline class="cls-4" points="459.61 392.6 459.61 485.51 391.56 485.51 391.56 393.46"/><line class="cls-4" x1="319.55" y1="386.53" x2="319.55" y2="279.38"/><polyline class="cls-4" points="46.07 361.56 15.58 361.56 15.58 393.51"/><line class="cls-4" x1="167.56" y1="576.04" x2="167.56" y2="530.04"/><path class="cls-13" d="M581,1700.37v16h15v11H566v-27h15m1-1H565v29h32v-13H582v-16Z" transform="translate(-127.95 -849.39)"/><path class="cls-13" d="M501,1684.39v35.13l-4.07-1.06-3.8-2.37-.09-31.7h8m1-1h-10l.09,33.26,4.4,2.74,5.47,1.42v-37.42Z" transform="translate(-127.95 -849.39)"/><rect class="cls-13" x="438" y="1683.39" width="54.72" height="1.01" transform="translate(802.77 2518.41) rotate(180)"/><path class="cls-13" d="M840,1212.43v7H802v-7h38m1-1H801v9h40v-9Z" transform="translate(-127.95 -849.39)"/><line class="cls-4" x1="793.57" y1="584.53" x2="793.57" y2="554.55"/><line class="cls-4" x1="876.54" y1="473.55" x2="876.54" y2="429.06"/><path class="cls-4" d="M263.9,1330.94" transform="translate(-127.95 -849.39)"/><path class="cls-4" d="M295.2,1330.94" transform="translate(-127.95 -849.39)"/><polygon class="cls-13" points="136.04 480.95 136.04 466.94 135.05 466.94 135.05 481.95 135.55 481.95 136.05 481.95 167.7 481.95 167.7 480.95 136.04 480.95"/><path class="cls-13" d="M503,1129.37v7H490v-7h13m1-1H489v9h15v-9Z" transform="translate(-127.95 -849.39)"/></g><g id="Outlines"><path class="cls-14" d="M618,850.44v88h19v-23h71v18h28l26-15h48v-1h49v79h94v26l-25,17,0,3,54,89.09v26H959v65h4.82l21.2-34h34v14h15v130h16v25H956v60l-13,16H921v9l-44,44H775v59h25v125l-57,57H514l-9.79-7.06-7.28-1.89-16-10-14.87-2-13-3-50-6.9-43-2-27-31v-42h20v-21.76s-18.07-72.1-27-82.26v-2h.35c.73-2.76,2.93-7.87,9.61-12.05v-2s-.88-10.72-34.86-12.94l-59.12-42v-130h22v-10.07H222v40H129V1231.84h0V1191.4h71v-30h-8v-119l48-48,23-23s16.21-.39,27-.39c5.4,0,9.46.1,9.46.39H331v24.05h78V934.4H384v-69l22-11h83v-4H618m-257,217h49l37,37.14v24.84h56v114h27v76h47v-77h63.84l88.16-89h60v15H913v-62l-25-45h-2l-33,20.29v84.71H802v-54.88L736.92,973.4H707.19L684,1019.45H618v15H526l-7-12v-88H471v-12H459v127H361v18M256,1219.44h40v-21h93v-41h-3l-43-43v-29H301v-27H257v104H235v29.73l21,27.31m114,43h42v56h45v-75h15v-85h-9v62l-16,15-20,16H370v11m305,87h22v-44l20-19v-30l36-36h88v-9H747.31L675,1283.48v65.93m-380-3h23v79H295v18h58s50.3,64.91,53.88,77.08l-.9,12.67v21.21l3,9.06v22s-1.27,8.53-3,12c-.3.62-2.14,1.22-5,1.8v22.22h6v15h82v-51H615v49h74l38-38.4v-35.59h-36l-24-31v-69h59v-67h35v5h22v26h33v-108H756v75H663.05l-22.69-12H465.91v0H412l-36-36v-49H327v20.88l-8.09,15H295v16.06m559-4h23v48h44v14h10v-72h74v-10H902v-17H854v37m-235-493.05H488v4H405.76l-.22.11-22,11-.58.29v70.68h25V994.4H332.05v-24H299.77a11.65,11.65,0,0,0-3-.31c-1.58,0-3.87-.08-6.79-.08-10.7,0-26.88.39-27,.39h-.42l-.29.3-23,23-48,48-.31.31v120.45h8v27.91H128v42.54h0v114.54h95.07v-40h39.89v8h-22v131.57l.45.32,59.11,42,.25.18H301c31.35,2.06,33.75,11.36,33.88,12v1.33c-6.05,4-8.42,8.67-9.35,11.58H325v3.43l.26.3c8.47,9.66,25.86,78.31,26.72,81.7v20.58H332v43.42l.26.3,27,31,.29.33.45,0,43,2,49.86,6.89,13,3h.1l14.64,2,15.85,9.93.14.09.16,0,7.09,1.83,9.63,7,.28.2H743.43l.31-.31,57-57,.31-.31V1544.36H776v-56.91H877.45l.3-.3,44-44,.3-.31v-8.37h21.46l.32-.39,13-16,.24-.29v-59.29h94v-27.14h-16v-130h-15v-14h-35.6l-.31.49-20.89,33.49h-3.19v-62.88h23v-27.3l-.15-.25-53.86-88.84,0-2.11,24.52-16.7.46-.32V995.36H860v-79h-51.1v1H761.74l-.25.14-25.76,14.86H709.05v-18H636v23H619.05v-88Zm-159,74.1H470v12h48v87.23l.14.25,7,12,.3.53h93.61v-15h65.63l.29-.58,22.87-45.47h28.42L801,1111.77v55.65H790.05v-15.05H728.57l-.3.31-87.85,88.68H576v77H531.05v-76h-27v-114h-56v-24.22l-.31-.31-37-37.15-.31-.3H362.09v-15.92h98v-127Zm-202,136H300v27h42v28.37l.31.31,43,43,.3.31H388v38.91H295v21H256.5l-20.44-26.61v-28.33h22v-104Zm628.3,3h1L912,1106.69v60.73H854.06V1082.3l32.28-19.83Zm-422.29,97H471v83H456v75h-42.9v-56H371v-8.94h56.33l.29-.23,20-16,0,0,0,0,16-15,.33-.31v-61.43Zm283.7,53h92.19v6.91H752.58l-.31.31-36,36-.31.31v30l-19.66,18.66-.33.31v43.44h-19.9v-64.44l71.69-71.46Zm-419.7,83H375v48.38l.3.31,36,36,.31.31H467v0H640.1l22.46,11.89.23.12H725v66.94H666v70.38l.22.28,24,31,.32.41H726v34.11l-37.42,37.78H616.06v-49H488v51H408.06v-15h-6v-20.32c3.5-.78,4.5-1.44,4.86-2.18,1.79-3.58,3.06-12,3.11-12.31v-22.31l-.05-.16-3-8.9v-21l.89-12.63,0-.19-.06-.18c-3.58-12.22-52-74.77-54.05-77.43l-.32-.41H296v-15.89h23v-81.11H296v-14h23.52l.29-.56,8.09-15,.13-.23v-20.1Zm527,11H901v17h103v7.89H930v72h-7.91v-14h-44v-48h-23v-34.93Zm-98,11H815v105.93H784.06v-26h-22v-5h-5v-74.92Z" transform="translate(-127.95 -849.39)"/></g><g id="Callouts_copy" data-name="Callouts copy"><path class="cls-15" d="M512.7,915.27a1.81,1.81,0,0,1,.13-.61l2.5-6.81a1.51,1.51,0,0,1,2.9,0l2.52,6.82a1.68,1.68,0,0,1,.12.61.89.89,0,0,1-1,.9c-.54,0-.83-.25-1-.84l-.48-1.45h-3.31l-.48,1.43c-.18.61-.46.86-1,.86A.87.87,0,0,1,512.7,915.27ZM518,912.4l-1.22-3.76h0l-1.19,3.76Z" transform="translate(-127.95 -849.39)"/><path class="cls-15" d="M521.92,910.64h-.35a.7.7,0,1,1,0-1.39h.35v-.76a.93.93,0,1,1,1.86,0v.76h.65a.7.7,0,1,1,0,1.39h-.65v3.26c0,.48.16.68.56.72h.12c.46,0,.71.24.71.67s-.54.83-1.32.83h-.06a1.64,1.64,0,0,1-1.87-1.82Z" transform="translate(-127.95 -849.39)"/><path class="cls-15" d="M526.54,910.64h-.35a.7.7,0,1,1,0-1.39h.35v-.76a.93.93,0,1,1,1.86,0v.76h.65a.7.7,0,1,1,0,1.39h-.65v3.26c0,.48.16.68.56.72h.12c.46,0,.71.24.71.67s-.54.83-1.32.83h-.06a1.64,1.64,0,0,1-1.87-1.82Z" transform="translate(-127.95 -849.39)"/><path class="cls-15" d="M530.34,914.1c0-1.24.95-2,2.65-2.06l1.72-.1v-.45c0-.64-.45-1-1.15-1a1.51,1.51,0,0,0-1.32.72.91.91,0,0,1-.73.34.72.72,0,0,1-.78-.71.92.92,0,0,1,.1-.42c.32-.81,1.41-1.31,2.82-1.31,1.74,0,2.88.9,2.88,2.27v3.88a.84.84,0,0,1-.9.93.82.82,0,0,1-.89-.82V915h0a2.36,2.36,0,0,1-2.08,1.15A2.1,2.1,0,0,1,530.34,914.1Zm4.37-.54v-.5l-1.44.09c-.69.05-1.08.36-1.08.84s.42.83,1,.83A1.37,1.37,0,0,0,534.71,913.56Z" transform="translate(-127.95 -849.39)"/><path class="cls-15" d="M537.47,912.65a3.22,3.22,0,0,1,3.34-3.55,3,3,0,0,1,2.87,1.63,1.12,1.12,0,0,1,.1.45.73.73,0,0,1-.79.73.81.81,0,0,1-.78-.49,1.46,1.46,0,0,0-1.34-.87c-.94,0-1.52.78-1.52,2.09s.58,2.1,1.51,2.1a1.45,1.45,0,0,0,1.33-.8c.25-.38.45-.54.84-.54a.73.73,0,0,1,.79.74,1.05,1.05,0,0,1-.13.48,3.07,3.07,0,0,1-2.86,1.58A3.21,3.21,0,0,1,537.47,912.65Z" transform="translate(-127.95 -849.39)"/><path class="cls-15" d="M544.85,915.22v-7.5a.93.93,0,1,1,1.85,0v4.22h0l2.46-2.46a.94.94,0,0,1,.74-.37.79.79,0,0,1,.82.8.84.84,0,0,1-.35.7l-1.73,1.64,1.9,2.42a1,1,0,0,1,.26.68.82.82,0,0,1-.88.83c-.4,0-.62-.14-.91-.57l-1.75-2.31-.59.54v1.38a.93.93,0,1,1-1.85,0Z" transform="translate(-127.95 -849.39)"/><path class="cls-15" d="M551.24,912.68c0-2.19,1.27-3.58,3.28-3.58a3.06,3.06,0,0,1,3.23,3.17.73.73,0,0,1-.81.8h-3.88v.09a1.51,1.51,0,0,0,1.55,1.67,1.92,1.92,0,0,0,1.62-.82.74.74,0,0,1,.6-.28.68.68,0,0,1,.73.68,1,1,0,0,1-.13.45,3.06,3.06,0,0,1-2.82,1.34C552.49,916.2,551.24,914.88,551.24,912.68Zm4.72-.74a1.4,1.4,0,0,0-1.42-1.47,1.46,1.46,0,0,0-1.46,1.47Z" transform="translate(-127.95 -849.39)"/><path class="cls-15" d="M558.7,915.22V910a.85.85,0,0,1,.9-.93.84.84,0,0,1,.87.93v.44h0a1.5,1.5,0,0,1,1.42-1.34.88.88,0,0,1,.57.17.82.82,0,0,1,.27.69.81.81,0,0,1-.27.66,1.19,1.19,0,0,1-.8.24c-.85,0-1.15.49-1.15,1.3v3a.93.93,0,1,1-1.85,0Z" transform="translate(-127.95 -849.39)"/><path class="cls-15" d="M566,914.45a1.37,1.37,0,0,1-.1-.52.8.8,0,0,1,.84-.84.91.91,0,0,1,.88.56,1.9,1.9,0,0,0,1.89,1c1,0,1.73-.49,1.73-1.17s-.43-.94-1.58-1.18l-1-.19c-1.83-.36-2.72-1.24-2.72-2.6,0-1.68,1.46-2.79,3.49-2.79,1.68,0,2.94.71,3.35,1.9a1.38,1.38,0,0,1,.07.43.75.75,0,0,1-.82.76.93.93,0,0,1-.91-.56,1.67,1.67,0,0,0-1.69-1c-.94,0-1.57.45-1.57,1.12s.44.91,1.52,1.13l1,.2c1.94.38,2.78,1.16,2.78,2.55,0,1.79-1.4,2.92-3.69,2.92C567.62,916.2,566.41,915.45,566,914.45Z" transform="translate(-127.95 -849.39)"/><path class="cls-15" d="M574.21,917.51v-7.45a.92.92,0,1,1,1.83,0v.36h0a2.22,2.22,0,0,1,2.11-1.29c1.73,0,2.79,1.31,2.79,3.51s-1.06,3.51-2.76,3.51a2.22,2.22,0,0,1-2.11-1.25h0v2.6a.93.93,0,1,1-1.85,0Zm4.86-4.86c0-1.23-.58-2-1.51-2s-1.51.81-1.51,2,.6,2,1.51,2S579.07,913.89,579.07,912.65Z" transform="translate(-127.95 -849.39)"/><path class="cls-15" d="M581.65,914.1c0-1.24,1-2,2.66-2.06l1.71-.1v-.45c0-.64-.44-1-1.14-1a1.49,1.49,0,0,0-1.32.72.93.93,0,0,1-.74.34.71.71,0,0,1-.77-.71,1.06,1.06,0,0,1,.09-.42c.32-.81,1.41-1.31,2.82-1.31,1.75,0,2.88.9,2.88,2.27v3.88a.84.84,0,0,1-.9.93.82.82,0,0,1-.89-.82V915h0a2.36,2.36,0,0,1-2.08,1.15A2.11,2.11,0,0,1,581.65,914.1Zm4.37-.54v-.5l-1.43.09c-.7.05-1.09.36-1.09.84s.42.83,1,.83A1.37,1.37,0,0,0,586,913.56Z" transform="translate(-127.95 -849.39)"/><path class="cls-15" d="M590.12,915.21l-1.38-4.74a1.9,1.9,0,0,1-.1-.57.82.82,0,0,1,.9-.79.86.86,0,0,1,.87.78l1,4.4h0l1-4.33a1.06,1.06,0,0,1,2.08,0l1.06,4.33h0l1-4.41a.85.85,0,0,1,.86-.77.8.8,0,0,1,.88.78,1.9,1.9,0,0,1-.1.57L597,915.21a1.12,1.12,0,0,1-1.18,1,1.09,1.09,0,0,1-1.2-1l-1-4h0l-1,4a1.2,1.2,0,0,1-2.36,0Z" transform="translate(-127.95 -849.39)"/><path class="cls-15" d="M599.28,915.22V910a.84.84,0,0,1,.89-.93.87.87,0,0,1,.93.94v.38h0a2.09,2.09,0,0,1,2.1-1.31,2.24,2.24,0,0,1,2.36,2.55v3.55a.93.93,0,1,1-1.85,0v-3.17c0-.89-.42-1.39-1.25-1.39a1.35,1.35,0,0,0-1.36,1.49v3.07a.93.93,0,1,1-1.85,0Z" transform="translate(-127.95 -849.39)"/><path class="cls-16" d="M679.26,1371.07v-5.51a.68.68,0,0,1,.74-.76h2.33c1.32,0,2.15.67,2.15,1.75a1.55,1.55,0,0,1-1.32,1.53v0a1.71,1.71,0,0,1,1.66,1.71c0,1.24-.94,2-2.44,2H680A.69.69,0,0,1,679.26,1371.07Zm2.53-3.34c.79,0,1.24-.35,1.24-1s-.4-.89-1.08-.89h-1.22v1.84Zm.21,3c.85,0,1.31-.36,1.31-1s-.47-1-1.34-1h-1.24v2Z" transform="translate(-127.95 -849.39)"/><path class="cls-16" d="M687.63,1371.07v-5.6a.74.74,0,1,1,1.48,0v5.15h2.5a.61.61,0,1,1,0,1.22h-3.24A.69.69,0,0,1,687.63,1371.07Z" transform="translate(-127.95 -849.39)"/><path class="cls-16" d="M692.92,1365.22a.76.76,0,1,1,.76.74A.74.74,0,0,1,692.92,1365.22Zm.05,6v-4a.71.71,0,1,1,1.42,0v4a.71.71,0,1,1-1.42,0Z" transform="translate(-127.95 -849.39)"/><path class="cls-16" d="M695.34,1371.2v-4a.65.65,0,0,1,.69-.72.66.66,0,0,1,.71.72v.3h0a1.61,1.61,0,0,1,1.61-1,1.73,1.73,0,0,1,1.82,2v2.73a.67.67,0,0,1-.72.74.67.67,0,0,1-.71-.74v-2.43c0-.69-.32-1.08-1-1.08a1,1,0,0,0-1,1.15v2.36a.71.71,0,1,1-1.42,0Z" transform="translate(-127.95 -849.39)"/><path class="cls-16" d="M701.13,1371.2v-5.76a.68.68,0,0,1,.72-.75.67.67,0,0,1,.71.75v3.24h0l1.89-1.9a.76.76,0,0,1,.57-.28.62.62,0,0,1,.64.62.68.68,0,0,1-.27.54l-1.34,1.26,1.46,1.86a.75.75,0,0,1,.2.52.62.62,0,0,1-.67.64.74.74,0,0,1-.7-.44l-1.35-1.78-.45.42v1.06a.67.67,0,0,1-.71.74A.67.67,0,0,1,701.13,1371.2Z" transform="translate(-127.95 -849.39)"/><path class="cls-16" d="M750.29,1229.72c0-2.25,1.29-3.62,3.36-3.62a3,3,0,0,1,2.81,1.5,1,1,0,0,1,.11.45.61.61,0,0,1-.65.64.77.77,0,0,1-.71-.43,1.66,1.66,0,0,0-1.55-.94c-1.16,0-1.86.88-1.86,2.38s.74,2.46,1.91,2.46a1.52,1.52,0,0,0,1.66-1.46v-.11h-1a.54.54,0,1,1,0-1.08h1.73a.69.69,0,0,1,.73.77v.11a2.83,2.83,0,0,1-3.12,3C751.58,1233.38,750.29,1232,750.29,1229.72Z" transform="translate(-127.95 -849.39)"/><path class="cls-16" d="M757.47,1230.67a2.47,2.47,0,0,1,2.53-2.75,2.35,2.35,0,0,1,2.48,2.44.56.56,0,0,1-.62.62h-3v.06a1.17,1.17,0,0,0,1.2,1.29,1.5,1.5,0,0,0,1.25-.63.56.56,0,0,1,.46-.21.51.51,0,0,1,.56.52.74.74,0,0,1-.1.34,2.35,2.35,0,0,1-2.17,1A2.43,2.43,0,0,1,757.47,1230.67Zm3.64-.57A1.07,1.07,0,0,0,760,1229a1.12,1.12,0,0,0-1.13,1.12Z" transform="translate(-127.95 -849.39)"/><path class="cls-16" d="M763.21,1232.63v-4a.65.65,0,0,1,.69-.71.67.67,0,0,1,.72.72v.29h0a1.58,1.58,0,0,1,1.61-1,1.72,1.72,0,0,1,1.81,2v2.74a.71.71,0,1,1-1.42,0v-2.44c0-.68-.32-1.07-1-1.07a1,1,0,0,0-1.05,1.14v2.37a.67.67,0,0,1-.71.74A.67.67,0,0,1,763.21,1232.63Z" transform="translate(-127.95 -849.39)"/><path class="cls-16" d="M404.18,1179.87a1.14,1.14,0,0,1-.08-.4.62.62,0,0,1,.65-.65.72.72,0,0,1,.68.43,1.45,1.45,0,0,0,1.46.78c.79,0,1.32-.38,1.32-.89s-.33-.73-1.21-.91l-.75-.15c-1.41-.28-2.09-.95-2.09-2,0-1.29,1.12-2.14,2.69-2.14a2.49,2.49,0,0,1,2.57,1.46,1,1,0,0,1,.05.32.58.58,0,0,1-.63.59.73.73,0,0,1-.7-.43,1.27,1.27,0,0,0-1.29-.75c-.73,0-1.21.34-1.21.86s.33.7,1.17.87l.74.15c1.49.3,2.14.9,2.14,2,0,1.37-1.08,2.24-2.84,2.24C405.4,1181.22,404.46,1180.64,404.18,1179.87Z" transform="translate(-127.95 -849.39)"/><path class="cls-16" d="M410.26,1179.6c0-.95.73-1.5,2-1.58l1.32-.08v-.35c0-.49-.34-.77-.88-.77a1.16,1.16,0,0,0-1,.55.69.69,0,0,1-.56.27.56.56,0,0,1-.6-.55.76.76,0,0,1,.08-.32c.24-.63,1.08-1,2.16-1,1.35,0,2.22.69,2.22,1.75v3a.65.65,0,0,1-.69.72.64.64,0,0,1-.69-.64v-.27h0a1.79,1.79,0,0,1-1.6.89A1.62,1.62,0,0,1,410.26,1179.6Zm3.36-.41v-.39l-1.1.07c-.54,0-.84.28-.84.65s.32.64.8.64A1,1,0,0,0,413.62,1179.19Z" transform="translate(-127.95 -849.39)"/><path class="cls-16" d="M415.94,1180.46v-4a.65.65,0,0,1,.69-.72.67.67,0,0,1,.71.72v.3h0a1.6,1.6,0,0,1,1.61-1,1.73,1.73,0,0,1,1.82,2v2.73a.68.68,0,0,1-.72.75.67.67,0,0,1-.71-.75V1178c0-.69-.32-1.08-1-1.08a1,1,0,0,0-1.05,1.15v2.36a.71.71,0,1,1-1.42,0Z" transform="translate(-127.95 -849.39)"/><path class="cls-16" d="M421.51,1178.48c0-1.66.83-2.69,2.14-2.69a1.68,1.68,0,0,1,1.6,1h0v-2.07a.71.71,0,1,1,1.42,0v5.78a.66.66,0,0,1-.7.73.67.67,0,0,1-.72-.73v-.3h0a1.64,1.64,0,0,1-1.61,1C422.33,1181.19,421.51,1180.15,421.51,1178.48Zm3.78,0c0-1-.46-1.56-1.16-1.56s-1.16.6-1.16,1.56.44,1.55,1.16,1.55S425.29,1179.44,425.29,1178.49Z" transform="translate(-127.95 -849.39)"/><path class="cls-16" d="M264,1384.5V1379a.68.68,0,0,1,.73-.76h2c2.11,0,3.36,1.26,3.36,3.49s-1.25,3.55-3.36,3.55h-2A.68.68,0,0,1,264,1384.5Zm2.51-.45c1.32,0,2-.8,2-2.32s-.73-2.29-2-2.29h-1v4.61Z" transform="translate(-127.95 -849.39)"/><path class="cls-16" d="M270.82,1384.63v-4a.65.65,0,0,1,.69-.72.64.64,0,0,1,.67.72v.34h0a1.15,1.15,0,0,1,1.09-1,.69.69,0,0,1,.45.13.63.63,0,0,1,.2.52.67.67,0,0,1-.2.52,1,1,0,0,1-.62.18c-.65,0-.88.38-.88,1v2.32a.72.72,0,1,1-1.43,0Z" transform="translate(-127.95 -849.39)"/><path class="cls-16" d="M274.1,1382.65a2.59,2.59,0,1,1,2.59,2.73A2.47,2.47,0,0,1,274.1,1382.65Zm3.73,0c0-1-.45-1.65-1.14-1.65s-1.15.61-1.15,1.65.45,1.64,1.15,1.64S277.83,1383.71,277.83,1382.66Z" transform="translate(-127.95 -849.39)"/><path class="cls-16" d="M280,1386.4v-5.74a.7.7,0,1,1,1.4,0v.28h0a1.7,1.7,0,0,1,1.62-1c1.33,0,2.15,1,2.15,2.7s-.82,2.7-2.12,2.7a1.72,1.72,0,0,1-1.63-1h0v2a.71.71,0,1,1-1.42,0Zm3.74-3.74c0-1-.45-1.56-1.17-1.56s-1.15.62-1.15,1.56.46,1.55,1.15,1.55S283.76,1383.61,283.76,1382.66Z" transform="translate(-127.95 -849.39)"/><path class="cls-17" d="M508.44,1366.41v-7.16a.89.89,0,0,1,1-1h2.54c2.75,0,4.36,1.63,4.36,4.54s-1.61,4.62-4.36,4.62H509.4A.9.9,0,0,1,508.44,1366.41Zm3.27-.58c1.71,0,2.64-1,2.64-3s-1-3-2.64-3h-1.35v6Z" transform="translate(-127.95 -849.39)"/><path class="cls-17" d="M517.13,1364c0-2.18,1.28-3.58,3.29-3.58a3.05,3.05,0,0,1,3.22,3.17.73.73,0,0,1-.8.81H519v.08a1.51,1.51,0,0,0,1.55,1.67,2,2,0,0,0,1.63-.82.75.75,0,0,1,.6-.27.67.67,0,0,1,.72.68,1,1,0,0,1-.12.45,3.07,3.07,0,0,1-2.82,1.33C518.38,1367.56,517.13,1366.25,517.13,1364Zm4.73-.74a1.4,1.4,0,0,0-1.42-1.46,1.46,1.46,0,0,0-1.47,1.46Z" transform="translate(-127.95 -849.39)"/><path class="cls-17" d="M525.09,1366.58V1362h-.36a.69.69,0,0,1,0-1.37h.36v-.51a1.72,1.72,0,0,1,1.94-2c1,0,1.4.31,1.4.75a.47.47,0,0,1-.38.49,1.18,1.18,0,0,1-.35,0c-.57,0-.8.25-.8.75v.43h.78a.69.69,0,0,1,0,1.37h-.74v4.57a.93.93,0,1,1-1.85,0Z" transform="translate(-127.95 -849.39)"/><path class="cls-17" d="M528.78,1364c0-2.18,1.28-3.58,3.29-3.58a3.06,3.06,0,0,1,3.23,3.17.74.74,0,0,1-.81.81h-3.88v.08a1.51,1.51,0,0,0,1.54,1.67,1.94,1.94,0,0,0,1.63-.82.76.76,0,0,1,.6-.27.68.68,0,0,1,.73.68,1,1,0,0,1-.13.45,3.05,3.05,0,0,1-2.82,1.33C530,1367.56,528.78,1366.25,528.78,1364Zm4.73-.74a1.39,1.39,0,0,0-1.42-1.46,1.45,1.45,0,0,0-1.46,1.46Z" transform="translate(-127.95 -849.39)"/><path class="cls-17" d="M536.25,1366.58v-5.18a.85.85,0,0,1,.89-.93.87.87,0,0,1,.93.94v.38h0a2.09,2.09,0,0,1,2.09-1.31,2.25,2.25,0,0,1,2.36,2.55v3.55a.93.93,0,1,1-1.85,0v-3.16c0-.89-.42-1.4-1.25-1.4a1.35,1.35,0,0,0-1.36,1.49v3.07a.93.93,0,1,1-1.85,0Z" transform="translate(-127.95 -849.39)"/><path class="cls-17" d="M543.49,1364c0-2.16,1.08-3.5,2.79-3.5a2.18,2.18,0,0,1,2.07,1.28h0v-2.69a.93.93,0,1,1,1.86,0v7.52a.86.86,0,0,1-.92.94.87.87,0,0,1-.94-.94v-.39h0a2.14,2.14,0,0,1-2.09,1.3C544.56,1367.52,543.49,1366.18,543.49,1364Zm4.91,0c0-1.23-.59-2-1.51-2s-1.5.78-1.5,2,.57,2,1.5,2S548.4,1365.26,548.4,1364Z" transform="translate(-127.95 -849.39)"/><path class="cls-17" d="M551.24,1364c0-2.18,1.27-3.58,3.28-3.58a3.06,3.06,0,0,1,3.23,3.17.73.73,0,0,1-.81.81h-3.88v.08a1.51,1.51,0,0,0,1.55,1.67,1.92,1.92,0,0,0,1.62-.82.76.76,0,0,1,.6-.27.68.68,0,0,1,.73.68,1,1,0,0,1-.13.45,3.05,3.05,0,0,1-2.82,1.33C552.49,1367.56,551.24,1366.25,551.24,1364Zm4.72-.74a1.39,1.39,0,0,0-1.42-1.46,1.45,1.45,0,0,0-1.46,1.46Z" transform="translate(-127.95 -849.39)"/><path class="cls-17" d="M558.7,1366.58v-5.18a.85.85,0,0,1,.9-.93.84.84,0,0,1,.87.93v.45h0a1.5,1.5,0,0,1,1.42-1.35.88.88,0,0,1,.57.17.82.82,0,0,1,.27.69.85.85,0,0,1-.27.67,1.25,1.25,0,0,1-.8.24c-.85,0-1.15.49-1.15,1.29v3a.93.93,0,1,1-1.85,0Z" transform="translate(-127.95 -849.39)"/><path class="cls-17" d="M566,1365.81a1.32,1.32,0,0,1-.1-.51.81.81,0,0,1,.84-.85.91.91,0,0,1,.88.56,1.9,1.9,0,0,0,1.89,1c1,0,1.73-.5,1.73-1.17s-.43-.95-1.58-1.18l-1-.19c-1.83-.36-2.72-1.24-2.72-2.61,0-1.67,1.46-2.78,3.49-2.78,1.68,0,2.94.7,3.35,1.9a1.32,1.32,0,0,1,.07.42.75.75,0,0,1-.82.77.93.93,0,0,1-.91-.57,1.67,1.67,0,0,0-1.69-1c-.94,0-1.57.44-1.57,1.11s.44.92,1.52,1.13l1,.2c1.94.39,2.78,1.17,2.78,2.56,0,1.79-1.4,2.92-3.69,2.92C567.62,1367.57,566.41,1366.81,566,1365.81Z" transform="translate(-127.95 -849.39)"/><path class="cls-17" d="M574.21,1368.88v-7.46a.92.92,0,1,1,1.83,0v.37h0a2.23,2.23,0,0,1,2.11-1.3c1.73,0,2.79,1.32,2.79,3.51s-1.06,3.51-2.76,3.51a2.22,2.22,0,0,1-2.11-1.25h0v2.61a.93.93,0,1,1-1.85,0Zm4.86-4.87c0-1.23-.58-2-1.51-2s-1.51.8-1.51,2,.6,2,1.51,2S579.07,1365.25,579.07,1364Z" transform="translate(-127.95 -849.39)"/><path class="cls-17" d="M581.65,1365.46c0-1.24,1-2,2.66-2.06l1.71-.1v-.45c0-.63-.44-1-1.14-1a1.47,1.47,0,0,0-1.32.72,1,1,0,0,1-.74.34.71.71,0,0,1-.77-.71,1,1,0,0,1,.09-.42c.32-.81,1.41-1.32,2.82-1.32,1.75,0,2.88.91,2.88,2.28v3.88a.84.84,0,0,1-.9.93.82.82,0,0,1-.89-.83v-.34h0a2.35,2.35,0,0,1-2.08,1.14A2.1,2.1,0,0,1,581.65,1365.46Zm4.37-.54v-.49l-1.43.08c-.7.06-1.09.37-1.09.85s.42.82,1,.82A1.36,1.36,0,0,0,586,1364.92Z" transform="translate(-127.95 -849.39)"/><path class="cls-17" d="M590.12,1366.58l-1.38-4.74a2,2,0,0,1-.1-.58.82.82,0,0,1,.9-.79.86.86,0,0,1,.87.79l1,4.4h0l1-4.34a1.06,1.06,0,0,1,2.08,0l1.06,4.34h0l1-4.41a.85.85,0,0,1,.86-.78.8.8,0,0,1,.88.79,1.89,1.89,0,0,1-.1.56l-1.38,4.75a1.13,1.13,0,0,1-1.18,1,1.09,1.09,0,0,1-1.2-1l-1-4h0l-1,4a1.1,1.1,0,0,1-1.19,1A1.11,1.11,0,0,1,590.12,1366.58Z" transform="translate(-127.95 -849.39)"/><path class="cls-17" d="M599.28,1366.58v-5.18a.84.84,0,0,1,.89-.93.87.87,0,0,1,.93.94v.38h0a2.1,2.1,0,0,1,2.1-1.31,2.25,2.25,0,0,1,2.36,2.55v3.55a.93.93,0,1,1-1.85,0v-3.16c0-.89-.42-1.4-1.25-1.4a1.35,1.35,0,0,0-1.36,1.49v3.07a.93.93,0,1,1-1.85,0Z" transform="translate(-127.95 -849.39)"/><path class="cls-16" d="M967.88,1347.2v-5.15h-1.46a.61.61,0,1,1,0-1.22h4.39a.61.61,0,1,1,0,1.22h-1.46v5.15a.74.74,0,1,1-1.47,0Z" transform="translate(-127.95 -849.39)"/><path class="cls-16" d="M970.75,1345.25a2.59,2.59,0,1,1,2.59,2.73A2.47,2.47,0,0,1,970.75,1345.25Zm3.73,0c0-1-.45-1.64-1.14-1.64s-1.15.6-1.15,1.64.45,1.65,1.15,1.65S974.48,1346.3,974.48,1345.25Z" transform="translate(-127.95 -849.39)"/><path class="cls-16" d="M977.47,1347.23l-1.05-3.65a1.33,1.33,0,0,1-.08-.44.63.63,0,0,1,.69-.61.68.68,0,0,1,.67.61l.77,3.38h0l.81-3.34a.82.82,0,0,1,1.6,0l.82,3.34h0l.78-3.39a.66.66,0,0,1,.66-.6.62.62,0,0,1,.67.61,1.32,1.32,0,0,1-.08.43l-1,3.65a.87.87,0,0,1-.91.75.84.84,0,0,1-.93-.75l-.79-3h0l-.79,3.06a.84.84,0,0,1-.92.74A.85.85,0,0,1,977.47,1347.23Z" transform="translate(-127.95 -849.39)"/><path class="cls-16" d="M984.25,1345.28a2.46,2.46,0,0,1,2.53-2.75,2.34,2.34,0,0,1,2.48,2.43.56.56,0,0,1-.62.62h-3v.07a1.17,1.17,0,0,0,1.2,1.28,1.5,1.5,0,0,0,1.25-.63.56.56,0,0,1,.46-.21.52.52,0,0,1,.56.52.81.81,0,0,1-.1.35,2.37,2.37,0,0,1-2.17,1A2.43,2.43,0,0,1,984.25,1345.28Zm3.64-.57a1.08,1.08,0,0,0-1.09-1.13,1.13,1.13,0,0,0-1.13,1.13Z" transform="translate(-127.95 -849.39)"/><path class="cls-16" d="M990,1347.23v-4a.68.68,0,1,1,1.36,0v.34h0a1.15,1.15,0,0,1,1.09-1,.64.64,0,0,1,.44.14.6.6,0,0,1,.21.52.64.64,0,0,1-.21.52,1,1,0,0,1-.62.18c-.65,0-.88.38-.88,1v2.32a.71.71,0,1,1-1.42,0Z" transform="translate(-127.95 -849.39)"/><path class="cls-16" d="M404.82,1658.81c0-2.26,1.29-3.62,3.36-3.62a3,3,0,0,1,2.8,1.5.9.9,0,0,1,.11.45.6.6,0,0,1-.64.63.78.78,0,0,1-.72-.43,1.64,1.64,0,0,0-1.55-.93c-1.16,0-1.86.88-1.86,2.38s.74,2.46,1.92,2.46a1.52,1.52,0,0,0,1.66-1.46v-.12h-1a.54.54,0,1,1,0-1.07h1.72a.69.69,0,0,1,.74.77v.1a2.84,2.84,0,0,1-3.13,3C406.11,1662.47,404.82,1661.1,404.82,1658.81Z" transform="translate(-127.95 -849.39)"/><path class="cls-16" d="M411.93,1660.85c0-.95.73-1.5,2-1.58l1.32-.08v-.35c0-.48-.34-.77-.88-.77a1.13,1.13,0,0,0-1,.55.72.72,0,0,1-.57.27.56.56,0,0,1-.6-.55.76.76,0,0,1,.08-.32c.24-.63,1.08-1,2.17-1,1.34,0,2.21.69,2.21,1.75v3a.65.65,0,0,1-.69.72.62.62,0,0,1-.68-.64v-.27h0a1.82,1.82,0,0,1-1.61.89A1.62,1.62,0,0,1,411.93,1660.85Zm3.36-.41v-.39l-1.1.07c-.53,0-.84.28-.84.65s.32.64.8.64A1,1,0,0,0,415.29,1660.44Z" transform="translate(-127.95 -849.39)"/><path class="cls-16" d="M418,1658.19h-.27a.5.5,0,0,1-.55-.53.51.51,0,0,1,.55-.54H418v-.58a.72.72,0,1,1,1.43,0v.58h.5a.54.54,0,1,1,0,1.07h-.5v2.51c0,.37.12.53.43.55h.09c.36,0,.55.19.55.52s-.41.63-1,.63h-.05A1.25,1.25,0,0,1,418,1661Z" transform="translate(-127.95 -849.39)"/><path class="cls-16" d="M420.9,1659.76a2.47,2.47,0,0,1,2.53-2.75,2.34,2.34,0,0,1,2.48,2.43.56.56,0,0,1-.62.62h-3v.07a1.16,1.16,0,0,0,1.19,1.28,1.45,1.45,0,0,0,1.25-.63.62.62,0,0,1,.47-.21.51.51,0,0,1,.55.52.76.76,0,0,1-.09.35,2.35,2.35,0,0,1-2.17,1A2.43,2.43,0,0,1,420.9,1659.76Zm3.64-.57a1.08,1.08,0,0,0-1.09-1.13,1.13,1.13,0,0,0-1.13,1.13Z" transform="translate(-127.95 -849.39)"/><path class="cls-16" d="M689.31,1509.44v-5.5a.69.69,0,0,1,.74-.77h2.33c1.32,0,2.15.68,2.15,1.76a1.56,1.56,0,0,1-1.32,1.53v0a1.72,1.72,0,0,1,1.66,1.71c0,1.24-.93,2-2.44,2h-2.38A.69.69,0,0,1,689.31,1509.44Zm2.54-3.34c.78,0,1.23-.35,1.23-.94s-.39-.89-1.08-.89h-1.21v1.83Zm.21,3c.85,0,1.31-.37,1.31-1s-.48-1-1.35-1h-1.23v2Z" transform="translate(-127.95 -849.39)"/><path class="cls-16" d="M695.4,1507.62a2.47,2.47,0,0,1,2.53-2.75,2.34,2.34,0,0,1,2.48,2.43.56.56,0,0,1-.62.62h-3v.07a1.16,1.16,0,0,0,1.19,1.28,1.48,1.48,0,0,0,1.25-.63.6.6,0,0,1,.46-.21.52.52,0,0,1,.56.53.77.77,0,0,1-.1.34,2.35,2.35,0,0,1-2.17,1A2.43,2.43,0,0,1,695.4,1507.62Zm3.63-.57a1.08,1.08,0,0,0-1.09-1.13,1.13,1.13,0,0,0-1.13,1.13Z" transform="translate(-127.95 -849.39)"/><path class="cls-16" d="M701.14,1509.58v-4a.65.65,0,0,1,.69-.72.67.67,0,0,1,.71.73v.29h0a1.61,1.61,0,0,1,1.61-1,1.73,1.73,0,0,1,1.82,2v2.74a.68.68,0,0,1-.72.74.67.67,0,0,1-.71-.74v-2.44c0-.68-.32-1.08-1-1.08a1,1,0,0,0-1.05,1.15v2.37a.71.71,0,1,1-1.42,0Z" transform="translate(-127.95 -849.39)"/><path class="cls-16" d="M706.71,1507.6a2.47,2.47,0,0,1,2.57-2.73,2.26,2.26,0,0,1,2.2,1.25,1,1,0,0,1,.08.35.56.56,0,0,1-.61.56.64.64,0,0,1-.6-.37,1.11,1.11,0,0,0-1-.67c-.72,0-1.17.59-1.17,1.6s.45,1.62,1.16,1.62a1.13,1.13,0,0,0,1-.62c.19-.29.34-.42.65-.42a.57.57,0,0,1,.6.58.86.86,0,0,1-.1.37,2.37,2.37,0,0,1-2.2,1.21A2.47,2.47,0,0,1,706.71,1507.6Z" transform="translate(-127.95 -849.39)"/><path class="cls-16" d="M712.38,1509.58v-5.79a.66.66,0,0,1,.71-.73.66.66,0,0,1,.7.73v2.12h0a1.67,1.67,0,0,1,1.65-1,1.75,1.75,0,0,1,1.83,2v2.73a.72.72,0,1,1-1.43,0v-2.43c0-.68-.33-1.09-1-1.09a1.05,1.05,0,0,0-1.07,1.17v2.35a.67.67,0,0,1-.71.74A.68.68,0,0,1,712.38,1509.58Z" transform="translate(-127.95 -849.39)"/><path class="cls-16" d="M462.33,1148.09v-5.62a.68.68,0,0,1,.74-.76h2.15c1.62,0,2.54.85,2.54,2.24a2.06,2.06,0,0,1-1.21,2l1,1.75a.94.94,0,0,1,.16.51.7.7,0,0,1-.75.68c-.35,0-.51-.13-.75-.56l-1.17-2.13H463.8v1.92a.69.69,0,0,1-.73.77A.7.7,0,0,1,462.33,1148.09Zm2.74-3a1.06,1.06,0,0,0,1.18-1.13,1.08,1.08,0,0,0-1.19-1.12H463.8v2.25Z" transform="translate(-127.95 -849.39)"/><path class="cls-16" d="M468.37,1146.13a2.6,2.6,0,1,1,2.59,2.74A2.48,2.48,0,0,1,468.37,1146.13Zm3.74,0c0-1-.45-1.64-1.15-1.64s-1.14.6-1.14,1.64.44,1.64,1.14,1.64S472.11,1147.19,472.11,1146.14Z" transform="translate(-127.95 -849.39)"/><path class="cls-16" d="M474.29,1149.88v-5.74a.7.7,0,1,1,1.4,0v.28h0a1.72,1.72,0,0,1,1.62-1c1.33,0,2.15,1,2.15,2.7s-.81,2.7-2.12,2.7a1.73,1.73,0,0,1-1.63-1h0v2a.71.71,0,1,1-1.42,0Zm3.74-3.74c0-1-.45-1.56-1.16-1.56s-1.16.62-1.16,1.56.46,1.55,1.16,1.55S478,1147.09,478,1146.14Z" transform="translate(-127.95 -849.39)"/><path class="cls-16" d="M480,1146.16a2.47,2.47,0,0,1,2.53-2.75,2.34,2.34,0,0,1,2.48,2.43.56.56,0,0,1-.62.62h-3v.07a1.16,1.16,0,0,0,1.19,1.28,1.48,1.48,0,0,0,1.25-.63.57.57,0,0,1,.47-.21.52.52,0,0,1,.55.52.76.76,0,0,1-.09.35,2.38,2.38,0,0,1-2.17,1A2.44,2.44,0,0,1,480,1146.16Zm3.64-.57a1.09,1.09,0,0,0-1.1-1.13,1.13,1.13,0,0,0-1.12,1.13Z" transform="translate(-127.95 -849.39)"/><path class="cls-16" d="M923.88,1109.11v-5.51a.68.68,0,0,1,.74-.76h2.32c1.33,0,2.16.68,2.16,1.76a1.55,1.55,0,0,1-1.33,1.52v0a1.72,1.72,0,0,1,1.66,1.71c0,1.24-.93,2-2.43,2h-2.38A.69.69,0,0,1,923.88,1109.11Zm2.53-3.34c.79,0,1.24-.35,1.24-.94s-.4-.89-1.09-.89h-1.21v1.83Zm.21,3c.85,0,1.31-.37,1.31-1s-.47-1-1.34-1h-1.24v2Z" transform="translate(-127.95 -849.39)"/><path class="cls-16" d="M932.25,1109.29v-5.6a.87.87,0,0,1,1-1,1,1,0,0,1,1,.76l1.75,4.33h0l1.75-4.33a1,1,0,0,1,1-.76.87.87,0,0,1,.94,1v5.6a.66.66,0,1,1-1.31,0v-4.16h0l-1.74,4.26a.63.63,0,0,1-.63.45.63.63,0,0,1-.64-.44l-1.75-4.27h0v4.16a.66.66,0,1,1-1.32,0Z" transform="translate(-127.95 -849.39)"/><path class="cls-16" d="M940.45,1108.38c0-1,.73-1.5,2-1.58l1.32-.08v-.35c0-.48-.34-.77-.88-.77a1.13,1.13,0,0,0-1,.55.72.72,0,0,1-.57.27.56.56,0,0,1-.6-.55.76.76,0,0,1,.08-.32c.24-.63,1.08-1,2.16-1,1.35,0,2.22.69,2.22,1.75v3a.65.65,0,0,1-.69.72.64.64,0,0,1-.69-.64v-.27h0a1.79,1.79,0,0,1-1.6.89A1.62,1.62,0,0,1,940.45,1108.38Zm3.36-.41v-.39l-1.1.07c-.54,0-.84.28-.84.65s.32.64.8.64A1,1,0,0,0,943.81,1108Z" transform="translate(-127.95 -849.39)"/><path class="cls-16" d="M946.1,1103.26a.74.74,0,0,1,.77-.73.73.73,0,0,1,.76.73.74.74,0,0,1-.76.74A.75.75,0,0,1,946.1,1103.26Zm0,6v-4a.72.72,0,1,1,1.43,0v4a.72.72,0,1,1-1.43,0Z" transform="translate(-127.95 -849.39)"/><path class="cls-16" d="M948.53,1109.24v-4a.65.65,0,0,1,.68-.72.68.68,0,0,1,.72.73v.29h0a1.6,1.6,0,0,1,1.61-1,1.72,1.72,0,0,1,1.81,2v2.73a.71.71,0,1,1-1.42,0v-2.43c0-.69-.32-1.08-1-1.08a1,1,0,0,0-1,1.15v2.36a.71.71,0,1,1-1.42,0Z" transform="translate(-127.95 -849.39)"/><path class="cls-16" d="M359.11,1526.21v-5.51a.69.69,0,0,1,.74-.77h1.95c2.11,0,3.36,1.26,3.36,3.5s-1.25,3.55-3.36,3.55h-1.95A.69.69,0,0,1,359.11,1526.21Zm2.51-.45c1.32,0,2-.8,2-2.32s-.74-2.29-2-2.29h-1v4.61Z" transform="translate(-127.95 -849.39)"/><path class="cls-16" d="M366,1520.36a.76.76,0,1,1,.76.74A.74.74,0,0,1,366,1520.36Zm.05,6v-3.95a.71.71,0,1,1,1.42,0v3.95a.71.71,0,1,1-1.42,0Z" transform="translate(-127.95 -849.39)"/><path class="cls-16" d="M368.26,1526.05a.91.91,0,0,1-.05-.27.54.54,0,0,1,.58-.54.81.81,0,0,1,.62.32,1.26,1.26,0,0,0,1.14.53c.52,0,.85-.21.85-.56s-.18-.43-.69-.55l-.88-.18c-1-.22-1.54-.74-1.54-1.52,0-1,.86-1.65,2.22-1.65a2,2,0,0,1,2.05,1.09.78.78,0,0,1,0,.21c0,.29-.18.49-.55.49a.69.69,0,0,1-.52-.22,1.23,1.23,0,0,0-1-.57c-.49,0-.82.23-.82.57s.2.46.72.57l.87.18c1.11.24,1.57.65,1.57,1.43,0,1-.93,1.71-2.31,1.71C369.31,1527.09,368.51,1526.66,368.26,1526.05Z" transform="translate(-127.95 -849.39)"/><path class="cls-16" d="M373.57,1526.34v-5.78a.7.7,0,1,1,1.4,0v2.12h0a1.66,1.66,0,0,1,1.64-1,1.74,1.74,0,0,1,1.83,2v2.73a.67.67,0,0,1-.71.74.67.67,0,0,1-.72-.74v-2.43c0-.67-.33-1.08-1-1.08A1,1,0,0,0,375,1524v2.35a.71.71,0,1,1-1.42,0Z" transform="translate(-127.95 -849.39)"/><path class="cls-16" d="M794.75,955.24v-5.16H793.3a.61.61,0,1,1,0-1.22h4.39a.61.61,0,1,1,0,1.22h-1.46v5.16a.74.74,0,1,1-1.48,0Z" transform="translate(-127.95 -849.39)"/><path class="cls-16" d="M798.3,955.27v-4a.65.65,0,0,1,.69-.72.64.64,0,0,1,.67.72v.34h0a1.16,1.16,0,0,1,1.09-1,.75.75,0,0,1,.45.13.66.66,0,0,1,.2.53.63.63,0,0,1-.2.51,1,1,0,0,1-.62.19c-.65,0-.88.38-.88,1v2.32a.72.72,0,1,1-1.43,0Z" transform="translate(-127.95 -849.39)"/><path class="cls-16" d="M801.58,953.32a2.47,2.47,0,0,1,2.53-2.76,2.35,2.35,0,0,1,2.48,2.44.56.56,0,0,1-.62.62h-3v.06a1.17,1.17,0,0,0,1.19,1.29,1.5,1.5,0,0,0,1.25-.63.57.57,0,0,1,.46-.21.51.51,0,0,1,.56.52.69.69,0,0,1-.1.35,2.35,2.35,0,0,1-2.17,1A2.43,2.43,0,0,1,801.58,953.32Zm3.63-.57a1.07,1.07,0,0,0-1.09-1.13,1.13,1.13,0,0,0-1.13,1.13Z" transform="translate(-127.95 -849.39)"/><path class="cls-16" d="M807.13,953.32a2.47,2.47,0,0,1,2.53-2.76,2.35,2.35,0,0,1,2.48,2.44.56.56,0,0,1-.62.62h-3v.06a1.17,1.17,0,0,0,1.19,1.29,1.49,1.49,0,0,0,1.25-.63.57.57,0,0,1,.47-.21.51.51,0,0,1,.55.52.69.69,0,0,1-.1.35,2.34,2.34,0,0,1-2.16,1A2.43,2.43,0,0,1,807.13,953.32Zm3.64-.57a1.08,1.08,0,0,0-1.1-1.13,1.13,1.13,0,0,0-1.13,1.13Z" transform="translate(-127.95 -849.39)"/><path class="cls-16" d="M869.52,1450a1.59,1.59,0,0,1,.09-.47l1.93-5.24a1.16,1.16,0,0,1,2.23,0l1.94,5.24a1.29,1.29,0,0,1,.09.47.69.69,0,0,1-.74.7c-.41,0-.63-.2-.76-.65l-.38-1.12h-2.54l-.37,1.1c-.14.47-.36.67-.75.67A.67.67,0,0,1,869.52,1450Zm4.06-2.21-.93-2.89h0l-.92,2.89Z" transform="translate(-127.95 -849.39)"/><path class="cls-16" d="M876.57,1450v-4a.65.65,0,0,1,.69-.72.64.64,0,0,1,.67.72v.34h0a1.15,1.15,0,0,1,1.09-1,.69.69,0,0,1,.45.13.63.63,0,0,1,.2.52.67.67,0,0,1-.2.52,1,1,0,0,1-.62.18c-.65,0-.88.38-.88,1V1450a.72.72,0,1,1-1.43,0Z" transform="translate(-127.95 -849.39)"/><path class="cls-16" d="M879.85,1448a2.47,2.47,0,0,1,2.57-2.73,2.25,2.25,0,0,1,2.2,1.25.93.93,0,0,1,.08.35.55.55,0,0,1-.61.55.63.63,0,0,1-.6-.37,1.12,1.12,0,0,0-1-.67c-.72,0-1.17.6-1.17,1.61s.45,1.62,1.16,1.62a1.13,1.13,0,0,0,1-.62c.19-.3.34-.42.65-.42a.56.56,0,0,1,.6.57.79.79,0,0,1-.1.37,2.35,2.35,0,0,1-2.2,1.21A2.46,2.46,0,0,1,879.85,1448Z" transform="translate(-127.95 -849.39)"/><path class="cls-16" d="M885.28,1449.14c0-1,.73-1.51,2-1.58l1.32-.08v-.35c0-.49-.34-.77-.88-.77a1.13,1.13,0,0,0-1,.55.72.72,0,0,1-.57.27.56.56,0,0,1-.6-.55.72.72,0,0,1,.08-.32c.24-.63,1.08-1,2.17-1,1.34,0,2.21.69,2.21,1.74v3a.65.65,0,0,1-.69.72.63.63,0,0,1-.68-.64v-.27h0a1.82,1.82,0,0,1-1.6.89A1.63,1.63,0,0,1,885.28,1449.14Zm3.36-.42v-.38l-1.1.07c-.53,0-.84.28-.84.65s.33.64.8.64A1.05,1.05,0,0,0,888.64,1448.72Z" transform="translate(-127.95 -849.39)"/><path class="cls-16" d="M890.77,1448c0-1.66.83-2.69,2.14-2.69a1.68,1.68,0,0,1,1.6,1h0v-2.07a.72.72,0,1,1,1.43,0V1450a.67.67,0,0,1-.71.73.67.67,0,0,1-.72-.73v-.3h0a1.65,1.65,0,0,1-1.62,1C891.6,1450.73,890.77,1449.69,890.77,1448Zm3.78,0c0-1-.45-1.56-1.16-1.56s-1.16.6-1.16,1.56.44,1.55,1.16,1.55S894.55,1449,894.55,1448Z" transform="translate(-127.95 -849.39)"/><path class="cls-16" d="M896.73,1448.05a2.47,2.47,0,0,1,2.53-2.75,2.34,2.34,0,0,1,2.48,2.43.56.56,0,0,1-.62.62h-3v.07a1.16,1.16,0,0,0,1.19,1.28,1.5,1.5,0,0,0,1.25-.63.57.57,0,0,1,.46-.21.52.52,0,0,1,.56.52.67.67,0,0,1-.1.35,2.34,2.34,0,0,1-2.16,1A2.43,2.43,0,0,1,896.73,1448.05Zm3.64-.57a1.08,1.08,0,0,0-1.1-1.13,1.13,1.13,0,0,0-1.13,1.13Z" transform="translate(-127.95 -849.39)"/><path class="cls-16" d="M990.23,1246.41v-16a2,2,0,0,1,2.14-2.22h6.75c3.84,0,6.25,2,6.25,5.1a4.52,4.52,0,0,1-3.84,4.43v.11a5,5,0,0,1,4.81,4.94c0,3.6-2.7,5.85-7.06,5.85h-6.91A2,2,0,0,1,990.23,1246.41Zm7.35-9.7c2.28,0,3.58-1,3.58-2.73s-1.15-2.58-3.14-2.58H994.5v5.31Zm.61,8.75c2.46,0,3.79-1,3.79-3s-1.37-2.93-3.89-2.93H994.5v5.93Z" transform="translate(-127.95 -849.39)"/><path class="cls-16" d="M177.14,1299.18c-1.13,0-1.77-.56-2.17-1.92l-1.07-3.19h-7.38l-1.08,3.23c-.38,1.33-1,1.88-2.22,1.88a2,2,0,0,1-2.14-2,3.75,3.75,0,0,1,.27-1.36L167,1280.6a3.38,3.38,0,0,1,6.48,0l5.58,15.19a4.32,4.32,0,0,1,.29,1.36A2,2,0,0,1,177.14,1299.18Zm-4.18-8.42-2.65-8.37h-.09l-2.71,8.37Z" transform="translate(-127.95 -849.39)"/><path class="cls-16" d="M741.39,1186.45c0-2.27,1.29-3.64,3.32-3.64a3,3,0,0,1,2.82,1.6,1.2,1.2,0,0,1,.15.55.61.61,0,0,1-.65.64.72.72,0,0,1-.71-.49,1.68,1.68,0,0,0-1.6-1.08c-1.11,0-1.83.93-1.83,2.42s.71,2.43,1.84,2.43a1.64,1.64,0,0,0,1.61-1.05.65.65,0,0,1,.65-.46.63.63,0,0,1,.69.65,1.29,1.29,0,0,1-.11.5,2.94,2.94,0,0,1-2.82,1.57C742.66,1190.09,741.39,1188.73,741.39,1186.45Z" transform="translate(-127.95 -849.39)"/><path class="cls-16" d="M748.38,1188.47c0-1,.73-1.5,2-1.58l1.32-.08v-.34c0-.49-.34-.77-.88-.77a1.15,1.15,0,0,0-1,.55.71.71,0,0,1-.56.26.55.55,0,0,1-.6-.55.92.92,0,0,1,.07-.32,2.22,2.22,0,0,1,2.17-1c1.35,0,2.22.69,2.22,1.75v3a.65.65,0,0,1-.69.72.63.63,0,0,1-.69-.63v-.27h0a1.81,1.81,0,0,1-1.6.88A1.62,1.62,0,0,1,748.38,1188.47Zm3.36-.41v-.38l-1.11.07c-.53,0-.83.27-.83.65s.32.63.8.63A1,1,0,0,0,751.74,1188.06Z" transform="translate(-127.95 -849.39)"/><path class="cls-16" d="M754.06,1189.34v-4a.65.65,0,0,1,.69-.71.66.66,0,0,1,.71.72v.29h0a1.59,1.59,0,0,1,1.61-1,1.73,1.73,0,0,1,1.82,1.95v2.74a.67.67,0,0,1-.72.74.67.67,0,0,1-.71-.74v-2.44c0-.68-.32-1.07-1-1.07a1,1,0,0,0-1,1.14v2.37a.71.71,0,1,1-1.42,0Z" transform="translate(-127.95 -849.39)"/><path class="cls-16" d="M760.2,1185.82h-.27a.54.54,0,1,1,0-1.08h.27v-.58a.72.72,0,1,1,1.43,0v.58h.5a.54.54,0,1,1,0,1.08h-.5v2.5c0,.37.12.53.43.55h.09c.35,0,.55.19.55.52s-.41.64-1,.64h0a1.26,1.26,0,0,1-1.44-1.4Z" transform="translate(-127.95 -849.39)"/><path class="cls-16" d="M763.11,1187.38a2.47,2.47,0,0,1,2.53-2.75,2.35,2.35,0,0,1,2.48,2.44.56.56,0,0,1-.62.62h-3v.06a1.17,1.17,0,0,0,1.19,1.29,1.48,1.48,0,0,0,1.25-.63.57.57,0,0,1,.47-.21.51.51,0,0,1,.55.52.72.72,0,0,1-.09.34,2.35,2.35,0,0,1-2.17,1A2.43,2.43,0,0,1,763.11,1187.38Zm3.64-.57a1.08,1.08,0,0,0-1.1-1.12,1.12,1.12,0,0,0-1.12,1.12Z" transform="translate(-127.95 -849.39)"/><path class="cls-16" d="M768.66,1187.38a2.47,2.47,0,0,1,2.53-2.75,2.35,2.35,0,0,1,2.48,2.44.56.56,0,0,1-.62.62h-3v.06a1.17,1.17,0,0,0,1.19,1.29,1.48,1.48,0,0,0,1.25-.63.59.59,0,0,1,.47-.21.51.51,0,0,1,.56.52.74.74,0,0,1-.1.34,2.35,2.35,0,0,1-2.17,1A2.43,2.43,0,0,1,768.66,1187.38Zm3.64-.57a1.07,1.07,0,0,0-1.09-1.12,1.12,1.12,0,0,0-1.13,1.12Z" transform="translate(-127.95 -849.39)"/><path class="cls-16" d="M774.4,1189.34v-4a.65.65,0,0,1,.69-.71.67.67,0,0,1,.72.72v.29h0a1.61,1.61,0,0,1,1.62-1,1.72,1.72,0,0,1,1.81,1.95v2.74a.71.71,0,1,1-1.42,0v-2.44c0-.68-.33-1.07-1-1.07a1,1,0,0,0-1,1.14v2.37a.67.67,0,0,1-.71.74A.67.67,0,0,1,774.4,1189.34Z" transform="translate(-127.95 -849.39)"/><path class="cls-16" d="M741.86,1412v-5.16h-1.45a.61.61,0,1,1,0-1.22h4.39a.61.61,0,1,1,0,1.22h-1.46V1412a.74.74,0,1,1-1.48,0Z" transform="translate(-127.95 -849.39)"/><path class="cls-16" d="M745.4,1410.85v-2.73a.68.68,0,0,1,.72-.75.67.67,0,0,1,.71.75v2.43c0,.7.34,1.07,1,1.07a1,1,0,0,0,1-1.15v-2.35a.68.68,0,0,1,.72-.75.67.67,0,0,1,.71.75v4a.69.69,0,1,1-1.38,0v-.32h0a1.54,1.54,0,0,1-1.56,1A1.79,1.79,0,0,1,745.4,1410.85Z" transform="translate(-127.95 -849.39)"/><path class="cls-16" d="M751.19,1412.07v-4a.65.65,0,0,1,.69-.72.66.66,0,0,1,.71.72v.29h0a1.59,1.59,0,0,1,1.61-1,1.73,1.73,0,0,1,1.82,2v2.73a.67.67,0,0,1-.72.74.67.67,0,0,1-.71-.74v-2.44c0-.68-.32-1.07-1-1.07a1,1,0,0,0-1,1.15v2.36a.71.71,0,1,1-1.42,0Z" transform="translate(-127.95 -849.39)"/><path class="cls-16" d="M757,1412.07v-4a.65.65,0,0,1,.69-.72.66.66,0,0,1,.71.72v.29h0a1.6,1.6,0,0,1,1.61-1,1.73,1.73,0,0,1,1.82,2v2.73a.72.72,0,1,1-1.43,0v-2.44c0-.68-.32-1.07-1-1.07a1,1,0,0,0-1,1.15v2.36a.72.72,0,1,1-1.43,0Z" transform="translate(-127.95 -849.39)"/><path class="cls-16" d="M762.52,1410.12a2.47,2.47,0,0,1,2.53-2.76,2.35,2.35,0,0,1,2.48,2.44.56.56,0,0,1-.62.62h-3v.06a1.17,1.17,0,0,0,1.19,1.29,1.48,1.48,0,0,0,1.25-.63.59.59,0,0,1,.47-.21.51.51,0,0,1,.55.52.79.79,0,0,1-.09.35,2.37,2.37,0,0,1-2.17,1A2.43,2.43,0,0,1,762.52,1410.12Zm3.64-.57a1.08,1.08,0,0,0-1.09-1.13,1.13,1.13,0,0,0-1.13,1.13Z" transform="translate(-127.95 -849.39)"/><path class="cls-16" d="M768.3,1412.07v-5.77a.71.71,0,1,1,1.42,0v5.77a.71.71,0,1,1-1.42,0Z" transform="translate(-127.95 -849.39)"/><path class="cls-16" d="M279.74,1020.85a1.32,1.32,0,0,1,.1-.47l1.92-5.24a1.09,1.09,0,0,1,1.11-.84,1.1,1.1,0,0,1,1.13.83l1.93,5.25a1.25,1.25,0,0,1,.09.47.69.69,0,0,1-.73.69c-.42,0-.64-.19-.77-.65l-.37-1.11H281.6l-.37,1.1c-.13.46-.35.66-.74.66A.67.67,0,0,1,279.74,1020.85Zm4.07-2.22-.94-2.88h0l-.91,2.88Z" transform="translate(-127.95 -849.39)"/><path class="cls-16" d="M288.89,1020.85v-5.6a.88.88,0,0,1,1-1,1,1,0,0,1,1,.76l1.74,4.34h0l1.75-4.34a1,1,0,0,1,1-.76.87.87,0,0,1,.94,1v5.6a.66.66,0,1,1-1.31,0v-4.16h0l-1.74,4.26a.62.62,0,0,1-.63.45.63.63,0,0,1-.64-.44l-1.74-4.27h0v4.16a.66.66,0,1,1-1.32,0Z" transform="translate(-127.95 -849.39)"/><path class="cls-16" d="M297.09,1019.94c0-1,.73-1.5,2-1.58l1.32-.08v-.34c0-.49-.34-.78-.88-.78a1.14,1.14,0,0,0-1,.56.75.75,0,0,1-.57.26.56.56,0,0,1-.6-.55.76.76,0,0,1,.08-.32c.24-.62,1.08-1,2.17-1,1.34,0,2.21.69,2.21,1.75v3a.65.65,0,0,1-.69.72.62.62,0,0,1-.68-.64v-.26h0a1.83,1.83,0,0,1-1.61.88A1.62,1.62,0,0,1,297.09,1019.94Zm3.36-.41v-.38l-1.1.06c-.53,0-.84.28-.84.65s.32.64.8.64A1,1,0,0,0,300.45,1019.53Z" transform="translate(-127.95 -849.39)"/><path class="cls-16" d="M302.75,1014.83a.76.76,0,1,1,.76.73A.74.74,0,0,1,302.75,1014.83Zm0,6v-4a.72.72,0,1,1,1.43,0v4a.72.72,0,1,1-1.43,0Z" transform="translate(-127.95 -849.39)"/><path class="cls-16" d="M305.17,1020.81v-4a.65.65,0,0,1,.69-.72.67.67,0,0,1,.71.73v.29h0a1.6,1.6,0,0,1,1.61-1,1.73,1.73,0,0,1,1.82,2v2.74a.68.68,0,0,1-.72.74.67.67,0,0,1-.71-.74v-2.44c0-.68-.32-1.07-1-1.07a1,1,0,0,0-1.05,1.14v2.37a.71.71,0,1,1-1.42,0Z" transform="translate(-127.95 -849.39)"/><path class="cls-16" d="M421.31,1352.45a1.37,1.37,0,0,1,.1-.47l1.92-5.24a1.17,1.17,0,0,1,2.24,0l1.93,5.25a1.25,1.25,0,0,1,.09.47.68.68,0,0,1-.73.69c-.42,0-.64-.19-.77-.65l-.37-1.11h-2.54l-.38,1.1c-.13.47-.35.66-.74.66A.67.67,0,0,1,421.31,1352.45Zm4.07-2.21-.93-2.89h0l-.91,2.89Z" transform="translate(-127.95 -849.39)"/><path class="cls-16" d="M430.47,1352.28v-5.6a.74.74,0,1,1,1.47,0v5.15h2.5a.61.61,0,1,1,0,1.22H431.2A.69.69,0,0,1,430.47,1352.28Z" transform="translate(-127.95 -849.39)"/><path class="cls-16" d="M435.75,1346.43a.76.76,0,1,1,.76.73A.74.74,0,0,1,435.75,1346.43Zm.05,6v-4a.71.71,0,1,1,1.42,0v4a.71.71,0,1,1-1.42,0Z" transform="translate(-127.95 -849.39)"/><path class="cls-16" d="M438.17,1352.41v-4a.65.65,0,0,1,.69-.71.66.66,0,0,1,.71.72v.29h0a1.6,1.6,0,0,1,1.61-1,1.72,1.72,0,0,1,1.82,2v2.74a.72.72,0,1,1-1.43,0V1350c0-.68-.32-1.07-1-1.07a1,1,0,0,0-1,1.14v2.37a.72.72,0,1,1-1.43,0Z" transform="translate(-127.95 -849.39)"/><path class="cls-16" d="M444,1352.41v-5.77a.71.71,0,1,1,1.42,0v3.25h0l1.9-1.9a.73.73,0,0,1,.56-.28.61.61,0,0,1,.64.62.66.66,0,0,1-.27.53l-1.33,1.26,1.46,1.86a.82.82,0,0,1,.2.53.63.63,0,0,1-.68.64.75.75,0,0,1-.7-.44l-1.34-1.78-.46.42v1.06a.71.71,0,1,1-1.42,0Z" transform="translate(-127.95 -849.39)"/><path class="cls-16" d="M723.79,1661.58v-5.5a.69.69,0,0,1,.74-.77h2.32c1.33,0,2.16.68,2.16,1.76a1.55,1.55,0,0,1-1.33,1.52v0a1.72,1.72,0,0,1,1.66,1.71c0,1.24-.93,2-2.43,2h-2.38A.69.69,0,0,1,723.79,1661.58Zm2.53-3.34c.79,0,1.24-.35,1.24-.94s-.4-.89-1.09-.89h-1.21v1.83Zm.21,3c.85,0,1.31-.37,1.31-1s-.47-1-1.34-1h-1.24v2Z" transform="translate(-127.95 -849.39)"/><path class="cls-16" d="M732.16,1661.58V1656a.74.74,0,1,1,1.48,0v5.15h2.5a.61.61,0,1,1,0,1.22H732.9A.69.69,0,0,1,732.16,1661.58Z" transform="translate(-127.95 -849.39)"/><path class="cls-16" d="M737.21,1659.73a2.59,2.59,0,1,1,2.59,2.74A2.47,2.47,0,0,1,737.21,1659.73Zm3.73,0c0-1-.45-1.64-1.14-1.64s-1.15.6-1.15,1.64.45,1.64,1.15,1.64S740.94,1660.79,740.94,1659.74Z" transform="translate(-127.95 -849.39)"/><path class="cls-16" d="M743.16,1661.73V1656a.71.71,0,1,1,1.42,0V1658h0a1.72,1.72,0,0,1,1.62-1c1.32,0,2.13,1,2.13,2.7s-.8,2.7-2.13,2.7a1.74,1.74,0,0,1-1.64-1h0v.27a.7.7,0,1,1-1.4,0Zm3.74-2c0-1-.45-1.56-1.15-1.56s-1.17.62-1.17,1.56.47,1.55,1.17,1.55S746.9,1660.69,746.9,1659.74Z" transform="translate(-127.95 -849.39)"/><path class="cls-16" d="M749.13,1661.73V1656a.72.72,0,1,1,1.43,0V1658h0a1.72,1.72,0,0,1,1.62-1c1.32,0,2.13,1,2.13,2.7s-.8,2.7-2.12,2.7a1.72,1.72,0,0,1-1.64-1h0v.27a.67.67,0,0,1-.71.73A.66.66,0,0,1,749.13,1661.73Zm3.74-2c0-1-.44-1.56-1.15-1.56s-1.17.62-1.17,1.56.47,1.55,1.17,1.55S752.87,1660.69,752.87,1659.74Z" transform="translate(-127.95 -849.39)"/><path class="cls-16" d="M754.87,1663.62a.46.46,0,0,1,.52-.46h.25a.73.73,0,0,0,.69-.47l.08-.19-1.67-4.4a1.22,1.22,0,0,1-.09-.42.69.69,0,0,1,.74-.67c.38,0,.57.16.69.58l1.14,3.62h0l1.14-3.63c.12-.4.32-.57.69-.57a.64.64,0,0,1,.69.65,1.4,1.4,0,0,1-.08.42l-1.6,4.36c-.49,1.35-1.1,1.85-2.25,1.85C755.21,1664.29,754.87,1664.05,754.87,1663.62Z" transform="translate(-127.95 -849.39)"/></g></svg>