<?xml version="1.0" encoding="UTF-8"?><svg xmlns="http://www.w3.org/2000/svg" viewBox="0 0 896.39 794.81"><defs><style>.cls-1{fill:#fff;}.cls-2{fill:#b0adb0;}.cls-3{fill:#575548;}.cls-4{fill:#d32027;}.cls-5{fill:#33353b;}.cls-6{fill:#656569;}.cls-7{fill:none;stroke:#b0adb0;stroke-miterlimit:10;}.cls-8{fill:#79c143;}</style></defs><g id="Body_Merge"><path class="cls-5" d="m14.29,700.36h204.19v93h203.96l27.08-9,13.96-26.09,11.93-43.89,9.04-13.02v-21h233.98v-78h135.01v-55h-18.99v-89.01h60v-114.96s-3.83-27.09-29.81-33.03h-104.18v29h-37.01v-104.01l-37.02-36.96v-28.87h37.02v-34.16l-179-85h-58.01V1.37h-136.97v115.98h-129.02v111.01h48.02v7H79.46v160h-33.99L1.45,439.37v260.99h12.84Zm39.16-129v14.01h-7v-46.03h59.03v46.03h-8.03v-14.01h-44Zm85,32.99v-75.99h21.99v19.99h23v4.01h-23v35h8v57.99h113.01v15h-121.01v-56h-21.99Zm15.99-315h20.01v20h-20.01v-20Zm214,185v-49.99h15.01v85.99h22.01v7h-95.01v94.02h-98v-23l6.98-9.03v-15s-17.94-12.98,4.01-31.99v-72h60v14h85Zm158.74,143h-92.73v85.01h-53.01v-132.99h-14.99v-14.99h22v14.98h54v-52h-14.98v-22h22v55h89v66.99h-11.28Zm154.26-69.99v69.99h-110v-56h80.01v-92h80v63h69.98v15h-119.99Zm102-81.99h14v30.01h-14v-30.01Zm50.99-52v-18.01h23.02v18.01h-23.02Zm-74,0v15h-28.99s-65.01,0-65.01,0v-15.01h-57.99v89h-85v22h-29.01v-29h58.99v-96.99h-29.99v-29.02h77.99v-14.99h33.01v30.01h0v21.99h75l14-13.99v-8h37v29Zm-236.97-310.01v81h103.97v15h-10.99v111h-165.92v-34h58.91v-82.02h0v-9.98h-53.97v-7.01h30.97v-73.99h37.04Zm-46.03,142v-3.99h4v3.99h-4Zm4-30h-4v-3.99h4v3.99Zm-121.18-53.99h45.18v211.96h52.03v-22.94h28.99v47.98h-94.58s-23.44,0-23.44,0h-85v45h-8.01v-73.99h-69.99v-9.01h22.01v-21.17l11.02-11.71,14.01-21.13,6.84-3.09,1.16-8.61,7.97-7.31,29.98-8.97v-50l4.04-5.01h4.96v-4.95l9-4.04v-52.99h43.82ZM55.65,474.34h0s67.8.01,67.8.01v-17.99h-10.01c-2.34-1.34-3.96-4.19-3.96-7.5s1.62-6.15,3.96-7.5v-.03h9.99v-45.99h0v-10.98h8.02v56.98h31v45.01H38.46v-12.03h17.19Zm-27.07,171.02h80.88v15H23.45v-15h5.13Z"/></g><g id="Bombsite"><polygon class="cls-3" points="449.39 465.61 449.39 524.35 494.55 524.35 494.55 496.34 523.45 496.34 523.45 446.35 494.55 446.35 492.61 446.35 465.91 446.35 448.92 446.35 389.94 446.35 389.94 465.61 449.39 465.61"/><rect class="cls-5" x="448.46" y="490.36" width="9.96" height="20.96"/><rect class="cls-5" x="23.45" y="630.39" width="15.07" height="15.93"/><path class="cls-3" d="m105.03,645.36h4.42l28.99-41.01v-75.99H1.45v116.99h103.58Zm.42-106.01v46.03h-8.01v-14.02h-43.98v14.02h-7.02v-46.03h59.01Z"/><rect class="cls-5" x="68.5" y="524.41" width="15.02" height="15.98"/><rect class="cls-5" x="23.83" y="630.78" width="14.49" height="15.3"/><rect class="cls-3" x="797.4" y="396.06" width="37.1" height="99.29" transform="translate(1631.91 891.42) rotate(180)"/><rect class="cls-3" x="783.89" y="396.11" width="15.22" height="69.76" transform="translate(1583.01 861.97) rotate(180)"/><rect class="cls-3" x="827.33" y="413.35" width="67.85" height="45.89" transform="translate(1722.51 872.59) rotate(180)"/></g><g id="Lines"><path class="cls-2" d="m223.46,461.35v12.02h-12.93v-12.02h12.93m1-1h-14.93v14.02h14.93v-14.02h0Z"/><path class="cls-2" d="m82.51,525.41v13.96h-13.02v-13.96h13.02m1-1h-15.02v15.96h15.02v-15.96h0Z"/><path class="cls-2" d="m37.51,631.39v13.99h-13.06v-13.99h13.06m1-1h-15.06v15.99h15.06v-15.99h0Z"/><path class="cls-2" d="m174.45,660.36v13h-13v-13h13m1-1h-15v15h15v-15h0Z"/><path class="cls-2" d="m234.42,756.43v36.93h-15.95v-36.93h15.95m1-1h-17.95v38.93h17.95v-38.93h0Z"/><path class="cls-2" d="m234.42,756.43v12.9h-15.95v-12.9h15.95m1-1h-17.95v14.9h17.95v-14.9h0Z"/><path class="cls-2" d="m457.43,491.36v18.96h-7.96v-18.96h7.96m1-1h-9.96v20.96h9.96v-20.96h0Z"/><path class="cls-2" d="m553.5,481.38v14.01h-29.05v-14.01h29.05m1-1h-31.05v16.01h31.05v-16.01h0Z"/><path class="cls-2" d="m553.47,474.34v6.02h-6.02v-6.02h6.02m1-1h-8.02v8.02h8.02v-8.02h0Z"/><path class="cls-2" d="m389.45,440.36v25h-6.04v-25h6.04m1-1h-8.04v27h8.04v-27h0Z"/><path class="cls-2" d="m522.45,310.35v13h-12v-13h12m1-1h-14v15h14v-15h0Z"/><path class="cls-2" d="m419.45,162.36v20.99h-14.01v-20.99h14.01m1-1h-16.01v22.99h16.01v-22.99h0Z"/><path class="cls-2" d="m641.45,185.35v12h-14.02v-12h14.02m1-1h-16.02v14h16.02v-14h0Z"/><path class="cls-2" d="m563.45,103.35v28.02h-13v-28.02h13m1-1h-15v30.02h15v-30.02h0Z"/><path class="cls-2" d="m563.45,133.32v13.02h-5v-13.02h5m1-1h-7v15.02h7v-15.02h0Z"/><path class="cls-2" d="m648.45,355.35v13h-14.02v-13h14.02m1-1h-16.02v15h16.02v-15h0Z"/><path class="cls-2" d="m856.46,366.35v29.02h-13.02v-29.02h13.02m1-1h-15.02v31.02h15.02v-31.02h0Z"/><path class="cls-2" d="m744.45,518.35v14.02h-13.01v-14.02h13.01m1-1h-15.01v16.02h15.01v-16.02h0Z"/><path class="cls-2" d="m680.45,617.34v14.01h-13v-14.01h13m1-1h-15v16.01h15v-16.01h0Z"/><rect class="cls-2" x="726.47" y="587.35" width="127.55" height="1" transform="translate(1580.5 1175.71) rotate(180)"/><polygon class="cls-2" points="783.45 396.35 783.45 465.56 784.45 465.56 784.45 396.35 834.64 396.35 834.64 395.35 784.45 395.35 783.45 395.35 783.45 395.35 783.45 396.35 783.45 396.35"/><polygon class="cls-7" points="658.96 244.37 635.45 254.41 628.47 282.93 639.49 304.37 673.37 312.36 691.47 306.34 709.47 287.53 696.47 257.4 658.96 244.37"/><rect class="cls-2" x="563.45" y="145.91" width="1" height="39.08"/><polyline class="cls-7" points="253.96 793.32 253.96 779.57 234.76 764.21"/><rect class="cls-2" x="53.45" y="659.52" width="1" height="41.38" transform="translate(107.91 1360.42) rotate(180)"/><polygon class="cls-2" points="448.46 466.35 448.46 490.74 449.45 490.74 449.45 466.35 449.45 465.35 448.46 465.35 389.66 465.35 389.66 466.35 448.46 466.35"/><path class="cls-7" d="m447.97,465.85h.99v24.86h8.89c13.43-7.1,23.17-21.44,23.17-37.59,0-23.32-19.05-42.22-42.54-42.22s-42.54,18.9-42.54,42.22c0,4.25.64,8.86,1.82,12.73h50.22Z"/><polyline class="cls-7" points="230.02 337.39 218.93 303.78 218.93 294.31 229.08 286.79 234.44 286.79 239.97 291.81 239.97 294.31"/><line class="cls-7" x1="218.93" y1="298.96" x2="268.9" y2="287.75"/><polyline class="cls-7" points="154.51 289.85 102.91 289.85 101.97 308.87 137.9 308.87 144.95 310.86 152.02 310.86 155.16 308.16"/><path class="cls-2" d="m226.45,369.34v14.01h-20v-14.01h20m1-1h-22v16.01h22v-16.01h0Z"/><line class="cls-7" x1="108.92" y1="646.13" x2="139.14" y2="603.38"/><path class="cls-2" d="m774.45,310.32v13.03h-14.02v-13.03h14.02m1-1h-16.02v15.03h16.02v-15.03h0Z"/><path class="cls-2" d="m782.44,310.32v6.03h-6.99v-6.03h6.99m1-1h-8.99v8.03h8.99v-8.03h0Z"/><path class="cls-2" d="m752.45,525.35v7.02h-6.99v-7.02h6.99m1-1h-8.99v9.02h8.99v-9.02h0Z"/><rect class="cls-2" x="219.45" y="369" width="1" height="14.94" transform="translate(439.9 752.94) rotate(180)"/></g><g id="Outlines"><path class="cls-6" d="m486.44,1.37v49h58.01l179,85v34.16h-37.02v28.87l37.02,36.96v104.01h37.01v-29h104.18c25.99,5.94,29.81,33.03,29.81,33.03v114.96h-60v89.01h18.99v55h-135.01v78h-233.98v21l-9.04,13.02-11.93,43.89-13.96,26.09-27.08,9h-203.96v-93H1.45v-260.99l44.01-44.01h33.99v-160h189.01v-7h-48.02v-111.01h129.02V1.37h136.97m-30.97,182.99h53.97v9.98h0v82.02h-58.91v34h165.92v-111h10.99v-15h-103.97v-81h-37.04v73.99h-30.97v7.01m-250.02,185.01h69.99v73.99h8.01v-45h108.44s94.58,0,94.58,0v-47.98h-28.99v22.94h-52.03v-211.95h-89v52.99l-9,4.04v4.95h-4.96l-4.04,5.01v50l-29.98,8.97-7.97,7.31-1.16,8.61-6.84,3.09-14.01,21.13-11.02,11.71v21.17h-22.01v9.01m271.99-154.01h4v-3.99h-4v3.99m0,30h4v-3.99h-4v3.99m-323,64.01h20.01v-20h-20.01v20m369,89h29.99v96.99h-58.99v29h29.01v-22h85v-89h57.99v15.01h65.01s28.99,0,28.99,0v-44h-37v8l-14,13.99h-75v-21.99h0v-30.01h-33.01v14.99h-77.99v29.02m-400.01-3.01h0v45.99h-9.99v.03c-2.34,1.34-3.96,4.19-3.96,7.5s1.62,6.15,3.96,7.5h10.01v17.99H55.65s-17.19-.01-17.19-.01v12.03h124v-45.01h-31v-56.98h-8.02v10.98m711.01,18h23.02v-18.01h-23.02v18.01m-550.99,60.99v-14h-60v72c-21.95,19.01-4.01,31.99-4.01,31.99v15l-6.98,9.03v23h98v-94.02h95.01v-7h-22.01v-85.99h-15.01v49.99h-85m500,21.02h14v-30.01h-14v30.01m-212,121.98h110v-69.99h119.99v-15h-69.98v-63h-80v92h-80.01v56m-143.98-99.99h14.98v52h-54v-14.98h-22v14.99h14.99v132.99h53.01v-85.01h104.01v-66.99h-89v-55h-22v22m-289.01,87h21.99v56h121.01v-15h-113.01v-57.99h-8v-35h23v-4.01h-23v-19.99h-21.99v75.99m-92.01-18.98h7v-14.01h44v14.01h8.03v-46.03h-59.03v46.03m-23,74.98h86.01v-15H23.45v15M487.49.32h-139.07v115.98h-129.02v113.11h48.02v4.9H78.41v160h-33.38l-.31.31L.71,438.63l-.31.31v262.47h217.04v93h205.18l.16-.05,27.08-9,.4-.13.2-.37,13.96-26.09.06-.1.03-.11,11.89-43.71,8.94-12.87.19-.27v-20.28h233.98v-78h135.01v-57.1h-18.99v-86.91h60v-116.16c-.05-.28-1.04-7.06-5.3-14.65-3.94-7.04-11.53-16.1-25.34-19.25l-.12-.03h-105.35v29h-34.91v-103.39l-.31-.31-36.71-36.65v-27.39h37.02v-35.88l-.6-.28-179-85-.21-.1h-57.2V.32h0Zm0,104.09h34.94v81h103.97v12.9h-10.99v111h-163.82v-31.9h58.91v-84.12h0v-9.98h-53.97v-4.91h30.97v-73.99h0Zm-169.99,58.01h86.9v211.95h54.13v-22.94h26.89v45.88h-93.53s-23.44,0-23.44,0h-86.05v45h-5.91v-73.99h-69.99v-6.91h22.01v-21.8l10.74-11.4.06-.07.05-.07,13.84-20.88,6.57-2.96.53-.24.08-.58,1.11-8.23,7.51-6.89,29.75-8.91.75-.22v-50.41l3.5-4.33h5.5v-5.32l8.38-3.77.62-.28v-52.62h0Zm161,49.99h1.9v1.89h-1.9v-1.89h0Zm0,30.01h1.9v1.89h-1.9v-1.89h0Zm-323,47.99h17.91v17.9h-17.91v-17.9h0Zm446.99,65h30.91v30.01h0v21.99h76.48l.31-.31,14-13.99.31-.31v-7.39h34.9v41.9h-28.99s-62.91,0-62.91,0v-15.01h-60.09v89h-85v22h-26.91v-26.9h58.99v-99.09h-29.99v-26.92h77.99v-14.99h0Zm-478,30.03h5.92v56.98h31v42.91H39.51v-9.93h16.14s67.8.01,67.8.01h1.05v-20.09h-10.76c-1.95-1.25-3.2-3.75-3.2-6.45s1.27-5.23,3.24-6.47h10.71v-47.04h0v-9.93h0Zm711.01,10.97h20.92v15.91h-20.92v-15.91h0Zm-466,29.01h12.91v85.99h22.01v4.9h-95.01v94.02h-95.9v-21.59l6.76-8.74.22-.28v-15.89l-.43-.31c-.06-.04-6.15-4.56-6.46-11.89-.25-5.97,3.29-12.18,10.54-18.45l.36-.31v-71.43h57.9v14h87.1v-49.99h0Zm415,41h11.9v27.91h-11.9v-27.91h0Zm-131.99,3.99h77.9v63h69.98v12.9h-119.99v69.99h-107.9v-53.9h80.01v-92h0Zm-223.99,26h19.9v55h89v64.89h-104.01v85.01h-50.91v-132.99h-14.99v-12.89h19.9v14.98h56.1v-54.1h-14.98v-19.9h0Zm-289.01,33.01h19.89v19.99h23v1.91h-23v37.1h8v57.99h113.01v12.9h-118.91v-56h-21.99v-73.89h0Zm-92.01,10.99h56.93v43.93h-5.93v-14.01h-46.1v14.01h-4.9v-43.93h0Zm-23,106.01h83.91v12.9H24.5v-12.9h0Z"/></g><g id="Callouts_copy"><path class="cls-4" d="m369.96,47.46c0-.16.04-.37.13-.61l2.5-6.81c.27-.74.72-1.09,1.44-1.09s1.19.33,1.47,1.08l2.51,6.82c.09.25.12.42.12.61,0,.53-.4.9-.96.9s-.83-.25-1-.84l-.48-1.45h-3.31l-.48,1.43c-.18.61-.46.86-.97.86-.6,0-.97-.35-.97-.9Zm5.29-2.88l-1.21-3.75h-.04l-1.19,3.75h2.44Z"/><path class="cls-4" d="m379.18,42.83h-.36c-.44,0-.72-.27-.72-.7s.28-.7.72-.7h.36v-.76c0-.6.35-.96.93-.96s.93.37.93.96v.76h.65c.44,0,.71.27.71.7s-.27.7-.71.7h-.65v3.26c0,.48.17.69.56.72h.12c.46.06.7.25.7.69,0,.55-.53.83-1.31.83h-.06c-1.24,0-1.87-.62-1.87-1.82v-3.67Z"/><path class="cls-4" d="m383.8,42.83h-.36c-.44,0-.72-.27-.72-.7s.28-.7.72-.7h.36v-.76c0-.6.35-.96.93-.96s.93.37.93.96v.76h.65c.44,0,.71.27.71.7s-.27.7-.71.7h-.65v3.26c0,.48.17.69.56.72h.12c.46.06.7.25.7.69,0,.55-.53.83-1.31.83h-.06c-1.24,0-1.87-.62-1.87-1.82v-3.67Z"/><path class="cls-4" d="m387.6,46.29c0-1.24.95-1.96,2.65-2.06l1.71-.1v-.45c0-.63-.44-1-1.14-1-.56,0-.91.18-1.32.72-.2.23-.44.34-.74.34-.45,0-.77-.29-.77-.71,0-.15.03-.28.1-.42.32-.81,1.41-1.31,2.82-1.31,1.75,0,2.88.9,2.88,2.27v3.88c0,.62-.37.93-.9.93s-.85-.28-.89-.83v-.35h-.04c-.38.72-1.23,1.15-2.08,1.15-1.29,0-2.28-.84-2.28-2.06Zm4.37-.54v-.5l-1.43.09c-.69.05-1.09.36-1.09.84,0,.51.42.83,1.04.83.81,0,1.48-.53,1.48-1.26Z"/><path class="cls-4" d="m394.73,44.84c0-2.18,1.29-3.55,3.34-3.55,1.36,0,2.5.66,2.87,1.62.06.16.1.32.1.46,0,.46-.36.72-.79.72-.37,0-.59-.15-.78-.48-.34-.6-.75-.87-1.34-.87-.94,0-1.52.77-1.52,2.09s.58,2.1,1.5,2.1c.65,0,1.05-.32,1.33-.8.25-.39.45-.55.84-.55.43,0,.78.29.78.74,0,.15-.04.3-.12.48-.41.93-1.57,1.57-2.87,1.57-2.05,0-3.35-1.35-3.35-3.55Z"/><path class="cls-4" d="m402.11,47.41v-7.5c0-.63.39-.97.93-.97s.93.34.93.97v4.22h.03l2.46-2.47c.25-.26.46-.37.74-.37.48,0,.83.35.83.81,0,.28-.08.45-.35.7l-1.73,1.64,1.9,2.42c.2.27.26.44.26.68,0,.5-.36.84-.88.84-.39,0-.62-.14-.91-.58l-1.75-2.31-.59.55v1.38c0,.63-.38.96-.93.96s-.93-.33-.93-.96Z"/><path class="cls-4" d="m408.49,44.87c0-2.19,1.28-3.58,3.29-3.58s3.22,1.32,3.22,3.17c0,.51-.29.81-.81.81h-3.88v.08c0,1.01.61,1.67,1.55,1.67.68,0,1.12-.23,1.62-.82.2-.2.36-.27.6-.27.4,0,.72.25.72.68,0,.15-.04.3-.13.45-.45.84-1.5,1.33-2.82,1.33-2.13,0-3.38-1.31-3.38-3.52Zm4.73-.74c-.04-.89-.61-1.47-1.42-1.47s-1.4.6-1.47,1.47h2.89Z"/><path class="cls-4" d="m415.96,47.41v-5.18c0-.59.36-.93.9-.93s.88.34.88.93v.44h.04c.18-.84.74-1.35,1.42-1.35.25,0,.44.06.58.17.18.14.27.37.27.69,0,.29-.09.51-.27.67s-.44.23-.81.24c-.84.01-1.14.49-1.14,1.29v3.02c0,.62-.36.96-.93.96s-.93-.35-.93-.96Z"/><path class="cls-4" d="m423.29,46.64c-.06-.17-.1-.34-.1-.51,0-.51.35-.84.84-.84.39,0,.65.15.88.56.3.7,1.02,1.02,1.89,1.02,1.03,0,1.73-.5,1.73-1.17,0-.6-.43-.95-1.58-1.18l-.97-.19c-1.83-.36-2.72-1.24-2.72-2.6,0-1.68,1.46-2.79,3.5-2.79,1.68,0,2.94.7,3.35,1.9.04.13.07.26.07.43,0,.46-.33.77-.82.77-.43,0-.7-.17-.91-.56-.3-.69-.9-.98-1.68-.98-.95,0-1.57.44-1.57,1.12,0,.56.44.91,1.52,1.13l.96.2c1.94.39,2.78,1.17,2.78,2.56,0,1.79-1.4,2.92-3.69,2.92-1.89,0-3.1-.76-3.47-1.76Z"/><path class="cls-4" d="m431.46,49.7v-7.45c0-.62.38-.95.91-.95s.91.33.91.96v.37h.04c.37-.8,1.12-1.29,2.11-1.29,1.73,0,2.79,1.31,2.79,3.51s-1.05,3.51-2.75,3.51c-.99,0-1.75-.48-2.11-1.25h-.04v2.6c0,.63-.38.96-.93.96s-.93-.33-.93-.96Zm4.86-4.86c0-1.23-.58-2.02-1.51-2.02s-1.5.81-1.5,2.02.6,2.02,1.5,2.02,1.51-.78,1.51-2.02Z"/><path class="cls-4" d="m438.91,46.29c0-1.24.95-1.96,2.65-2.06l1.71-.1v-.45c0-.63-.44-1-1.14-1-.56,0-.91.18-1.32.72-.2.23-.44.34-.74.34-.45,0-.77-.29-.77-.71,0-.15.03-.28.1-.42.32-.81,1.41-1.31,2.82-1.31,1.75,0,2.88.9,2.88,2.27v3.88c0,.62-.37.93-.9.93s-.85-.28-.89-.83v-.35h-.04c-.38.72-1.23,1.15-2.08,1.15-1.29,0-2.28-.84-2.28-2.06Zm4.37-.54v-.5l-1.43.09c-.69.05-1.09.36-1.09.84,0,.51.42.83,1.04.83.81,0,1.48-.53,1.48-1.26Z"/><path class="cls-4" d="m447.37,47.4l-1.37-4.74c-.07-.24-.1-.39-.1-.57,0-.46.37-.79.9-.79.46,0,.76.28.87.79l1.01,4.4h.04l1.05-4.34c.12-.55.48-.85,1.05-.85s.91.3,1.03.85l1.06,4.34h.04l1.02-4.41c.1-.5.4-.77.86-.77.51,0,.88.32.88.79,0,.17-.03.32-.1.56l-1.37,4.75c-.19.67-.55.98-1.19.98-.68,0-1.04-.29-1.2-.98l-1.03-3.96h-.04l-1.03,3.97c-.16.67-.53.97-1.19.97s-.98-.3-1.17-.97Z"/><path class="cls-4" d="m456.53,47.41v-5.18c0-.58.34-.93.89-.93s.93.36.93.94v.38h.04c.36-.84,1.05-1.31,2.09-1.31,1.51,0,2.36.95,2.36,2.55v3.55c0,.63-.39.96-.93.96s-.93-.33-.93-.96v-3.17c0-.89-.42-1.4-1.25-1.4s-1.36.61-1.36,1.49v3.07c0,.63-.38.96-.93.96s-.93-.33-.93-.96Z"/><path class="cls-1" d="m14.88,682.57v-5.51c0-.48.27-.77.74-.77h1.95c2.11,0,3.36,1.26,3.36,3.5s-1.25,3.55-3.36,3.55h-1.95c-.46,0-.74-.28-.74-.77Zm2.51-.45c1.32,0,2.03-.8,2.03-2.32s-.73-2.29-2.03-2.29h-1.04v4.61h1.04Z"/><path class="cls-1" d="m21.75,682.7v-3.98c0-.45.28-.72.69-.72s.67.26.67.72v.34h.03c.14-.65.57-1.04,1.09-1.04.19,0,.34.04.44.13.14.11.21.28.21.53,0,.22-.07.4-.21.51s-.34.18-.62.19c-.65,0-.88.38-.88,1v2.32c0,.47-.28.74-.71.74s-.71-.27-.71-.74Z"/><path class="cls-1" d="m25.03,680.72c0-1.69,1.03-2.72,2.59-2.72s2.59,1.03,2.59,2.72-1.01,2.73-2.59,2.73-2.59-1.02-2.59-2.73Zm3.74,0c0-1.04-.45-1.64-1.14-1.64s-1.15.6-1.15,1.64.44,1.64,1.15,1.64,1.14-.59,1.14-1.64Z"/><path class="cls-1" d="m30.95,684.46v-5.73c0-.48.29-.73.7-.73s.7.25.7.74v.28h.03c.28-.62.86-1,1.62-1,1.33,0,2.14,1.01,2.14,2.7s-.81,2.7-2.12,2.7c-.76,0-1.35-.37-1.63-.96h-.03v2c0,.49-.29.74-.71.74s-.71-.25-.71-.74Zm3.74-3.74c0-.95-.45-1.56-1.16-1.56s-1.16.62-1.16,1.56.46,1.55,1.16,1.55,1.16-.6,1.16-1.55Z"/><path class="cls-1" d="m203.28,629.54c-.05-.13-.08-.26-.08-.4,0-.39.27-.65.65-.65.3,0,.5.12.68.43.23.54.78.78,1.46.78.79,0,1.33-.38,1.33-.9,0-.46-.33-.73-1.22-.91l-.75-.15c-1.41-.28-2.09-.95-2.09-2,0-1.29,1.12-2.14,2.69-2.14,1.29,0,2.26.54,2.57,1.46.03.1.05.2.05.33,0,.35-.25.59-.63.59-.33,0-.54-.13-.7-.43-.23-.53-.69-.75-1.29-.75-.73,0-1.21.34-1.21.86,0,.43.34.7,1.17.87l.74.15c1.49.3,2.14.9,2.14,1.97,0,1.38-1.08,2.25-2.84,2.25-1.46,0-2.39-.58-2.67-1.35Z"/><path class="cls-1" d="m209.95,626.62h-.27c-.34,0-.55-.21-.55-.54s.21-.54.55-.54h.27v-.58c0-.46.27-.74.71-.74s.71.28.71.74v.58h.5c.34,0,.55.21.55.54s-.21.54-.55.54h-.5v2.5c0,.37.13.53.43.55h.09c.35.05.54.2.54.53,0,.42-.41.63-1.01.63h-.05c-.95,0-1.44-.47-1.44-1.4v-2.82Z"/><path class="cls-1" d="m212.87,629.28c0-.95.73-1.5,2.04-1.58l1.32-.08v-.35c0-.49-.34-.77-.88-.77-.43,0-.7.14-1.02.55-.16.18-.34.26-.57.26-.35,0-.6-.22-.6-.55,0-.11.02-.21.07-.32.24-.62,1.08-1.01,2.17-1.01,1.34,0,2.22.69,2.22,1.75v2.98c0,.47-.29.72-.69.72s-.65-.21-.68-.63v-.27h-.03c-.29.56-.95.88-1.6.88-1,0-1.75-.64-1.75-1.59Zm3.36-.42v-.38l-1.1.07c-.53.04-.83.28-.83.65,0,.39.32.63.8.63.62,0,1.14-.41,1.14-.97Z"/><path class="cls-1" d="m218.52,624.16c0-.42.33-.74.76-.74s.76.32.76.74-.33.74-.76.74-.76-.33-.76-.74Zm.05,5.98v-3.96c0-.46.27-.75.71-.75s.71.28.71.75v3.96c0,.46-.27.74-.71.74s-.71-.28-.71-.74Z"/><path class="cls-1" d="m220.94,630.14v-3.98c0-.45.28-.72.69-.72s.67.26.67.72v.34h.03c.14-.65.57-1.04,1.09-1.04.19,0,.34.04.44.13.14.11.21.28.21.53,0,.22-.07.4-.21.51s-.34.18-.62.19c-.65,0-.88.38-.88,1v2.32c0,.47-.28.74-.71.74s-.71-.27-.71-.74Z"/><path class="cls-1" d="m224.46,629.85c-.03-.09-.05-.19-.05-.26,0-.33.24-.55.58-.55.23,0,.42.1.62.32.28.37.6.53,1.14.53s.85-.21.85-.56c0-.28-.18-.43-.69-.55l-.88-.19c-1.03-.22-1.54-.74-1.54-1.52,0-1,.86-1.65,2.22-1.65,1.08,0,1.88.49,2.05,1.08.02.07.03.14.03.21,0,.29-.18.49-.55.49-.19,0-.39-.07-.52-.22-.25-.32-.53-.56-1.04-.56-.48,0-.82.23-.82.57,0,.27.21.45.73.57l.86.19c1.11.23,1.57.64,1.57,1.43,0,1.04-.93,1.71-2.31,1.71-1.2,0-2-.43-2.25-1.04Z"/><path class="cls-1" d="m401.91,481.51v-3.88c0-.49.27-.77.74-.77s.74.28.74.77v3.74c0,.9.53,1.49,1.48,1.49s1.47-.59,1.47-1.49v-3.74c0-.49.27-.77.74-.77s.74.28.74.77v3.88c0,1.55-1.15,2.61-2.95,2.61s-2.95-1.05-2.95-2.61Z"/><path class="cls-1" d="m408.87,485.13v-5.73c0-.48.29-.73.7-.73s.7.25.7.74v.28h.03c.28-.62.86-1,1.62-1,1.33,0,2.14,1.01,2.14,2.7s-.81,2.7-2.12,2.7c-.76,0-1.35-.37-1.63-.96h-.03v2c0,.49-.29.74-.71.74s-.71-.25-.71-.74Zm3.74-3.74c0-.95-.45-1.56-1.16-1.56s-1.16.62-1.16,1.56.46,1.55,1.16,1.55,1.16-.6,1.16-1.55Z"/><path class="cls-1" d="m414.8,485.13v-5.73c0-.48.29-.73.7-.73s.7.25.7.74v.28h.03c.28-.62.86-1,1.62-1,1.33,0,2.14,1.01,2.14,2.7s-.81,2.7-2.12,2.7c-.76,0-1.35-.37-1.63-.96h-.03v2c0,.49-.29.74-.71.74s-.71-.25-.71-.74Zm3.74-3.74c0-.95-.45-1.56-1.16-1.56s-1.16.62-1.16,1.56.46,1.55,1.16,1.55,1.16-.6,1.16-1.55Z"/><path class="cls-1" d="m420.54,481.41c0-1.68.98-2.75,2.53-2.75s2.48,1.02,2.48,2.44c0,.4-.22.62-.62.62h-2.99v.06c0,.78.47,1.28,1.19,1.28.52,0,.86-.18,1.25-.63.15-.16.28-.21.46-.21.31,0,.56.2.56.52,0,.11-.03.23-.1.35-.35.64-1.16,1.03-2.17,1.03-1.64,0-2.6-1.01-2.6-2.71Zm3.64-.57c-.03-.68-.47-1.13-1.09-1.13s-1.08.46-1.13,1.13h2.22Z"/><path class="cls-1" d="m426.28,483.36v-3.98c0-.45.28-.72.69-.72s.67.26.67.72v.34h.03c.14-.65.57-1.04,1.09-1.04.19,0,.34.04.44.13.14.11.21.28.21.53,0,.22-.07.4-.21.51s-.34.18-.62.19c-.65,0-.88.38-.88,1v2.32c0,.47-.28.74-.71.74s-.71-.27-.71-.74Z"/><path class="cls-1" d="m105.96,263.32v-5.62c0-.48.27-.77.74-.77h2.15c1.62,0,2.55.85,2.55,2.25,0,.88-.43,1.63-1.21,1.96l1.02,1.76c.12.21.16.34.16.51,0,.39-.31.67-.74.67-.35,0-.51-.13-.75-.56l-1.17-2.12h-1.25v1.91c0,.48-.27.77-.74.77s-.74-.28-.74-.77Zm2.74-2.98c.74,0,1.18-.42,1.18-1.12s-.46-1.12-1.19-1.12h-1.25v2.25h1.27Z"/><path class="cls-1" d="m112.22,262.12v-2.73c0-.49.3-.75.71-.75s.71.26.71.75v2.44c0,.7.35,1.07.98,1.07s1.03-.45,1.03-1.15v-2.36c0-.49.3-.75.71-.75s.71.26.71.75v3.97c0,.47-.28.72-.69.72s-.69-.25-.69-.72v-.32h-.03c-.26.66-.78,1.04-1.57,1.04-1.13,0-1.88-.74-1.88-1.96Z"/><path class="cls-1" d="m118.04,263.36v-5.79c0-.49.3-.75.71-.75s.71.26.71.75v2.08h.03c.29-.62.87-.99,1.62-.99,1.32,0,2.13,1.01,2.13,2.7s-.8,2.7-2.12,2.7c-.77,0-1.35-.37-1.64-.98h-.03v.28c0,.47-.29.72-.71.72s-.7-.24-.7-.72Zm3.74-2c0-.95-.44-1.56-1.15-1.56s-1.17.62-1.17,1.56.47,1.55,1.17,1.55,1.15-.6,1.15-1.55Z"/><path class="cls-1" d="m124.01,263.36v-5.79c0-.49.3-.75.71-.75s.71.26.71.75v2.08h.03c.29-.62.87-.99,1.62-.99,1.32,0,2.13,1.01,2.13,2.7s-.8,2.7-2.12,2.7c-.77,0-1.35-.37-1.64-.98h-.03v.28c0,.47-.29.72-.71.72s-.7-.24-.7-.72Zm3.74-2c0-.95-.44-1.56-1.15-1.56s-1.17.62-1.17,1.56.47,1.55,1.17,1.55,1.15-.6,1.15-1.55Z"/><path class="cls-1" d="m129.98,263.34v-5.77c0-.49.3-.75.71-.75s.71.26.71.75v5.77c0,.49-.29.74-.71.74s-.71-.25-.71-.74Z"/><path class="cls-1" d="m132.18,261.39c0-1.68.98-2.75,2.53-2.75s2.48,1.02,2.48,2.44c0,.4-.22.62-.62.62h-2.99v.06c0,.78.47,1.28,1.19,1.28.52,0,.86-.18,1.25-.63.15-.16.28-.21.46-.21.31,0,.56.2.56.52,0,.11-.03.23-.1.35-.35.64-1.16,1.03-2.17,1.03-1.64,0-2.6-1.01-2.6-2.71Zm3.64-.57c-.03-.68-.47-1.13-1.09-1.13s-1.08.46-1.13,1.13h2.22Z"/><path class="cls-1" d="m313.21,439.41c0-.12.03-.29.1-.47l1.92-5.24c.21-.57.55-.83,1.11-.83s.92.25,1.13.83l1.93,5.24c.07.19.09.32.09.47,0,.41-.31.69-.74.69s-.63-.19-.77-.65l-.37-1.11h-2.54l-.37,1.1c-.14.47-.36.66-.75.66-.46,0-.75-.27-.75-.69Zm4.07-2.21l-.93-2.89h-.03l-.91,2.89h1.88Z"/><path class="cls-1" d="m322.36,439.24v-5.6c0-.49.27-.77.74-.77s.74.28.74.77v5.15h2.5c.4,0,.67.23.67.61s-.26.61-.67.61h-3.24c-.46,0-.74-.28-.74-.77Z"/><path class="cls-1" d="m327.65,433.39c0-.42.33-.74.76-.74s.76.32.76.74-.33.74-.76.74-.76-.33-.76-.74Zm.05,5.98v-3.96c0-.46.27-.75.71-.75s.71.28.71.75v3.96c0,.46-.27.74-.71.74s-.71-.28-.71-.74Z"/><path class="cls-1" d="m330.07,439.37v-3.98c0-.44.26-.72.69-.72s.71.27.71.72v.29h.03c.28-.65.81-1.01,1.61-1.01,1.16,0,1.82.73,1.82,1.96v2.73c0,.49-.3.74-.71.74s-.71-.25-.71-.74v-2.44c0-.68-.32-1.07-.96-1.07s-1.04.47-1.04,1.15v2.36c0,.49-.29.74-.71.74s-.71-.25-.71-.74Z"/><path class="cls-1" d="m335.86,439.37v-5.77c0-.49.3-.75.71-.75s.71.26.71.75v3.25h.02l1.89-1.9c.19-.2.35-.28.57-.28.37,0,.63.27.63.62,0,.21-.06.35-.27.54l-1.33,1.26,1.46,1.86c.16.21.2.34.2.52,0,.38-.28.64-.68.64-.3,0-.47-.11-.7-.44l-1.34-1.78-.45.42v1.06c0,.49-.29.74-.71.74s-.71-.25-.71-.74Z"/><path class="cls-1" d="m226.28,311.74v-5.62c0-.48.27-.77.74-.77h2.15c1.62,0,2.55.85,2.55,2.25,0,.88-.43,1.63-1.21,1.96l1.02,1.76c.12.21.16.34.16.51,0,.39-.31.67-.74.67-.35,0-.51-.13-.75-.56l-1.17-2.12h-1.25v1.91c0,.48-.27.77-.74.77s-.74-.28-.74-.77Zm2.74-2.98c.74,0,1.18-.42,1.18-1.12s-.46-1.12-1.19-1.12h-1.25v2.25h1.27Z"/><path class="cls-1" d="m232.32,309.79c0-1.69,1.03-2.72,2.59-2.72s2.59,1.03,2.59,2.72-1.01,2.73-2.59,2.73-2.59-1.02-2.59-2.73Zm3.74,0c0-1.04-.45-1.64-1.14-1.64s-1.15.6-1.15,1.64.44,1.64,1.15,1.64,1.14-.59,1.14-1.64Z"/><path class="cls-1" d="m238.05,309.79c0-1.69,1.03-2.72,2.59-2.72s2.59,1.03,2.59,2.72-1.01,2.73-2.59,2.73-2.59-1.02-2.59-2.73Zm3.74,0c0-1.04-.45-1.64-1.14-1.64s-1.15.6-1.15,1.64.44,1.64,1.15,1.64,1.14-.59,1.14-1.64Z"/><path class="cls-1" d="m244.35,308.25h-.27c-.34,0-.55-.21-.55-.54s.21-.54.55-.54h.27v-.58c0-.46.27-.74.71-.74s.71.28.71.74v.58h.5c.34,0,.55.21.55.54s-.21.54-.55.54h-.5v2.5c0,.37.13.53.43.55h.09c.35.05.54.2.54.53,0,.42-.41.63-1.01.63h-.05c-.95,0-1.44-.47-1.44-1.4v-2.82Z"/><path class="cls-1" d="m180.73,418.44c0-.12.03-.29.1-.47l1.92-5.24c.21-.57.55-.83,1.11-.83s.92.25,1.13.83l1.93,5.24c.07.19.09.32.09.47,0,.41-.31.69-.74.69s-.63-.19-.77-.65l-.37-1.11h-2.54l-.37,1.1c-.14.47-.36.66-.75.66-.46,0-.75-.27-.75-.69Zm4.07-2.21l-.93-2.89h-.03l-.91,2.89h1.88Z"/><path class="cls-1" d="m189.88,418.45v-5.6c0-.6.35-.95.95-.95.51,0,.8.21,1.01.76l1.75,4.33h.04l1.74-4.33c.21-.54.5-.76,1.02-.76.6,0,.95.35.95.95v5.6c0,.43-.24.69-.66.69s-.65-.25-.65-.69v-4.16h-.04l-1.74,4.26c-.13.31-.32.45-.63.45s-.52-.14-.64-.44l-1.74-4.27h-.04v4.16c0,.43-.24.69-.65.69s-.66-.25-.66-.69Z"/><path class="cls-1" d="m198.08,417.54c0-.95.73-1.5,2.04-1.58l1.32-.08v-.35c0-.49-.34-.77-.88-.77-.43,0-.7.14-1.02.55-.16.18-.34.26-.57.26-.35,0-.6-.22-.6-.55,0-.11.02-.21.07-.32.24-.62,1.08-1.01,2.17-1.01,1.34,0,2.22.69,2.22,1.75v2.98c0,.47-.29.72-.69.72s-.65-.21-.68-.63v-.27h-.03c-.29.56-.95.88-1.6.88-1,0-1.75-.64-1.75-1.59Zm3.36-.42v-.38l-1.1.07c-.53.04-.83.28-.83.65,0,.39.32.63.8.63.62,0,1.14-.41,1.14-.97Z"/><path class="cls-1" d="m203.74,412.42c0-.42.33-.74.76-.74s.76.32.76.74-.33.74-.76.74-.76-.33-.76-.74Zm.05,5.98v-3.96c0-.46.27-.75.71-.75s.71.28.71.75v3.96c0,.46-.27.74-.71.74s-.71-.28-.71-.74Z"/><path class="cls-1" d="m206.16,418.4v-3.98c0-.44.26-.72.69-.72s.71.27.71.72v.29h.03c.28-.65.81-1.01,1.61-1.01,1.16,0,1.82.73,1.82,1.96v2.73c0,.49-.3.74-.71.74s-.71-.25-.71-.74v-2.44c0-.68-.32-1.07-.96-1.07s-1.04.47-1.04,1.15v2.36c0,.49-.29.74-.71.74s-.71-.25-.71-.74Z"/><path class="cls-1" d="m65.94,436.03v-5.15h-1.46c-.4,0-.67-.23-.67-.61s.26-.61.67-.61h4.39c.4,0,.66.23.66.61s-.27.61-.66.61h-1.46v5.15c0,.48-.27.77-.74.77s-.74-.28-.74-.77Z"/><path class="cls-1" d="m69.49,436.06v-3.98c0-.45.28-.72.69-.72s.67.26.67.72v.34h.03c.14-.65.57-1.04,1.09-1.04.19,0,.34.04.44.13.14.11.21.28.21.53,0,.22-.07.4-.21.51s-.34.18-.62.19c-.65,0-.88.38-.88,1v2.32c0,.47-.28.74-.71.74s-.71-.27-.71-.74Z"/><path class="cls-1" d="m72.76,434.11c0-1.68.98-2.75,2.53-2.75s2.48,1.02,2.48,2.44c0,.4-.22.62-.62.62h-2.99v.06c0,.78.47,1.28,1.19,1.28.52,0,.86-.18,1.25-.63.15-.16.28-.21.46-.21.31,0,.56.2.56.52,0,.11-.03.23-.1.35-.35.64-1.16,1.03-2.17,1.03-1.64,0-2.6-1.01-2.6-2.71Zm3.64-.57c-.03-.68-.47-1.13-1.09-1.13s-1.08.46-1.13,1.13h2.22Z"/><path class="cls-1" d="m78.31,434.11c0-1.68.98-2.75,2.53-2.75s2.48,1.02,2.48,2.44c0,.4-.22.62-.62.62h-2.99v.06c0,.78.47,1.28,1.19,1.28.52,0,.86-.18,1.25-.63.15-.16.28-.21.46-.21.31,0,.56.2.56.52,0,.11-.03.23-.1.35-.35.64-1.16,1.03-2.17,1.03-1.64,0-2.6-1.01-2.6-2.71Zm3.64-.57c-.03-.68-.47-1.13-1.09-1.13s-1.08.46-1.13,1.13h2.22Z"/><path class="cls-8" d="m291.73,744.41v-7.16c0-.63.36-1,.96-1h2.54c2.75,0,4.37,1.64,4.37,4.54s-1.62,4.61-4.37,4.61h-2.54c-.6,0-.96-.37-.96-1Zm3.27-.58c1.71,0,2.64-1.04,2.64-3.02s-.95-2.97-2.64-2.97h-1.35v5.99h1.35Z"/><path class="cls-8" d="m300.42,742.04c0-2.19,1.28-3.58,3.29-3.58s3.22,1.32,3.22,3.17c0,.51-.29.81-.81.81h-3.88v.08c0,1.01.61,1.67,1.55,1.67.68,0,1.12-.23,1.62-.82.2-.2.36-.27.6-.27.4,0,.72.25.72.68,0,.15-.04.3-.13.45-.45.84-1.5,1.33-2.82,1.33-2.13,0-3.38-1.31-3.38-3.52Zm4.73-.74c-.04-.89-.61-1.47-1.42-1.47s-1.4.6-1.47,1.47h2.89Z"/><path class="cls-8" d="m308.38,744.58v-4.58h-.36c-.39,0-.68-.25-.68-.69s.29-.68.68-.68h.36v-.51c0-1.35.66-1.94,1.94-1.96.98,0,1.4.31,1.4.75,0,.26-.13.41-.37.49-.1.03-.22.04-.36.05-.57.02-.8.25-.8.75v.43h.78c.39,0,.68.25.68.68s-.29.69-.68.69h-.74v4.58c0,.64-.38.96-.93.96s-.93-.32-.93-.96Z"/><path class="cls-8" d="m312.07,742.04c0-2.19,1.28-3.58,3.29-3.58s3.22,1.32,3.22,3.17c0,.51-.29.81-.81.81h-3.88v.08c0,1.01.61,1.67,1.55,1.67.68,0,1.12-.23,1.62-.82.2-.2.36-.27.6-.27.4,0,.72.25.72.68,0,.15-.04.3-.13.45-.45.84-1.5,1.33-2.82,1.33-2.13,0-3.38-1.31-3.38-3.52Zm4.73-.74c-.04-.89-.61-1.47-1.42-1.47s-1.4.6-1.47,1.47h2.89Z"/><path class="cls-8" d="m319.54,744.58v-5.18c0-.58.34-.93.9-.93s.93.36.93.94v.38h.04c.36-.84,1.05-1.31,2.09-1.31,1.51,0,2.36.95,2.36,2.55v3.55c0,.63-.39.96-.93.96s-.93-.33-.93-.96v-3.17c0-.89-.42-1.4-1.25-1.4s-1.36.61-1.36,1.49v3.07c0,.63-.38.96-.93.96s-.93-.33-.93-.96Z"/><path class="cls-8" d="m326.78,742c0-2.16,1.08-3.5,2.79-3.5.98,0,1.75.52,2.08,1.28h.04v-2.69c0-.63.39-.97.93-.97s.93.34.93.97v7.52c0,.62-.38.94-.92.94s-.93-.32-.93-.94v-.39h-.03c-.3.76-1.05,1.31-2.09,1.31-1.7,0-2.77-1.35-2.77-3.52Zm4.91.01c0-1.24-.59-2.02-1.51-2.02s-1.5.78-1.5,2.02.57,2.02,1.5,2.02,1.51-.77,1.51-2.02Z"/><path class="cls-8" d="m334.52,742.04c0-2.19,1.28-3.58,3.29-3.58s3.22,1.32,3.22,3.17c0,.51-.29.81-.81.81h-3.88v.08c0,1.01.61,1.67,1.55,1.67.68,0,1.12-.23,1.62-.82.2-.2.36-.27.6-.27.4,0,.72.25.72.68,0,.15-.04.3-.13.45-.45.84-1.5,1.33-2.82,1.33-2.13,0-3.38-1.31-3.38-3.52Zm4.73-.74c-.04-.89-.61-1.47-1.42-1.47s-1.4.6-1.47,1.47h2.89Z"/><path class="cls-8" d="m341.99,744.58v-5.18c0-.59.36-.93.9-.93s.88.34.88.93v.44h.04c.18-.84.74-1.35,1.42-1.35.25,0,.44.06.58.17.18.14.27.37.27.69,0,.29-.09.51-.27.67s-.44.24-.81.24c-.84.01-1.14.49-1.14,1.29v3.02c0,.62-.36.96-.93.96s-.93-.35-.93-.96Z"/><path class="cls-8" d="m349.33,743.81c-.06-.16-.1-.34-.1-.51,0-.51.35-.84.84-.84.39,0,.65.15.88.56.3.7,1.02,1.02,1.89,1.02,1.03,0,1.73-.5,1.73-1.17,0-.6-.43-.95-1.58-1.18l-.97-.19c-1.83-.36-2.72-1.24-2.72-2.6,0-1.68,1.46-2.79,3.5-2.79,1.68,0,2.94.7,3.35,1.9.04.13.07.26.07.43,0,.46-.33.77-.82.77-.43,0-.7-.17-.91-.56-.3-.69-.9-.98-1.68-.98-.95,0-1.57.44-1.57,1.12,0,.57.44.91,1.52,1.13l.96.2c1.94.39,2.78,1.17,2.78,2.56,0,1.79-1.4,2.92-3.69,2.92-1.89,0-3.1-.75-3.47-1.76Z"/><path class="cls-8" d="m357.5,746.87v-7.45c0-.62.38-.95.91-.95s.91.33.91.96v.37h.04c.37-.8,1.12-1.29,2.11-1.29,1.73,0,2.79,1.31,2.79,3.51s-1.05,3.51-2.75,3.51c-.99,0-1.75-.48-2.11-1.25h-.04v2.6c0,.63-.38.96-.93.96s-.93-.33-.93-.96Zm4.86-4.86c0-1.23-.58-2.02-1.51-2.02s-1.5.81-1.5,2.02.6,2.02,1.5,2.02,1.51-.78,1.51-2.02Z"/><path class="cls-8" d="m364.94,743.46c0-1.24.95-1.96,2.65-2.06l1.71-.1v-.45c0-.63-.44-1-1.14-1-.56,0-.91.18-1.32.72-.2.23-.44.34-.74.34-.45,0-.77-.29-.77-.71,0-.15.03-.28.1-.42.32-.81,1.41-1.31,2.82-1.31,1.75,0,2.88.9,2.88,2.27v3.88c0,.62-.37.93-.9.93s-.85-.28-.89-.83v-.35h-.04c-.38.72-1.23,1.15-2.08,1.15-1.29,0-2.28-.84-2.28-2.06Zm4.37-.54v-.49l-1.43.09c-.69.05-1.09.36-1.09.84,0,.51.42.83,1.04.83.81,0,1.48-.53,1.48-1.26Z"/><path class="cls-8" d="m373.4,744.58l-1.37-4.74c-.07-.24-.1-.39-.1-.57,0-.46.37-.79.9-.79.46,0,.76.28.87.79l1.01,4.4h.04l1.05-4.33c.12-.55.48-.85,1.05-.85s.91.3,1.03.85l1.06,4.33h.04l1.02-4.41c.1-.5.4-.77.86-.77.51,0,.88.32.88.79,0,.17-.03.32-.1.56l-1.37,4.75c-.19.67-.55.98-1.19.98-.68,0-1.04-.29-1.2-.98l-1.03-3.96h-.04l-1.03,3.97c-.16.67-.53.97-1.19.97s-.98-.3-1.17-.97Z"/><path class="cls-8" d="m382.56,744.58v-5.18c0-.58.34-.93.9-.93s.93.36.93.94v.38h.04c.36-.84,1.05-1.31,2.09-1.31,1.51,0,2.36.95,2.36,2.55v3.55c0,.63-.39.96-.93.96s-.93-.33-.93-.96v-3.17c0-.89-.42-1.4-1.25-1.4s-1.36.61-1.36,1.49v3.07c0,.63-.38.96-.93.96s-.93-.33-.93-.96Z"/><path class="cls-1" d="m665.76,452.19l-1.47-5.33c-.05-.18-.08-.36-.08-.49,0-.41.28-.66.73-.66.39,0,.62.21.71.63l1.05,4.57h.04l1.19-4.54c.11-.46.35-.66.76-.66s.64.21.75.65l1.19,4.55h.04l1.05-4.57c.09-.42.33-.63.71-.63.45,0,.73.25.73.66,0,.13-.03.3-.08.49l-1.47,5.34c-.15.52-.4.74-.85.74s-.73-.22-.87-.75l-1.17-4.16h-.04l-1.17,4.16c-.14.52-.41.75-.87.75s-.72-.22-.86-.75Z"/><path class="cls-1" d="m673.11,451.35c0-.95.73-1.5,2.04-1.58l1.32-.08v-.35c0-.49-.34-.77-.88-.77-.43,0-.7.14-1.02.55-.16.18-.34.26-.57.26-.35,0-.6-.22-.6-.55,0-.11.02-.21.07-.32.24-.62,1.08-1.01,2.17-1.01,1.34,0,2.22.69,2.22,1.75v2.98c0,.47-.29.72-.69.72s-.65-.21-.68-.63v-.27h-.03c-.29.56-.95.88-1.6.88-1,0-1.75-.64-1.75-1.59Zm3.36-.42v-.38l-1.1.07c-.53.04-.83.28-.83.65,0,.39.32.63.8.63.62,0,1.14-.41,1.14-.97Z"/><path class="cls-1" d="m679.17,448.69h-.27c-.34,0-.55-.21-.55-.54s.21-.54.55-.54h.27v-.58c0-.46.27-.74.71-.74s.71.28.71.74v.58h.5c.34,0,.55.21.55.54s-.21.54-.55.54h-.5v2.5c0,.37.13.53.43.55h.09c.35.05.54.2.54.53,0,.42-.41.63-1.01.63h-.05c-.95,0-1.44-.47-1.44-1.4v-2.82Z"/><path class="cls-1" d="m682.08,450.26c0-1.68.98-2.75,2.53-2.75s2.48,1.02,2.48,2.44c0,.4-.22.62-.62.62h-2.99v.06c0,.78.47,1.28,1.19,1.28.52,0,.86-.18,1.25-.63.15-.16.28-.21.46-.21.31,0,.56.2.56.52,0,.11-.03.23-.1.35-.35.64-1.16,1.03-2.17,1.03-1.64,0-2.6-1.01-2.6-2.71Zm3.64-.57c-.03-.68-.47-1.13-1.09-1.13s-1.08.46-1.13,1.13h2.22Z"/><path class="cls-1" d="m687.82,452.21v-3.98c0-.45.28-.72.69-.72s.67.26.67.72v.34h.03c.14-.65.57-1.04,1.09-1.04.19,0,.34.04.44.13.14.11.21.28.21.53,0,.22-.07.4-.21.51s-.34.18-.62.19c-.65,0-.88.38-.88,1v2.32c0,.47-.28.74-.71.74s-.71-.27-.71-.74Z"/><path class="cls-1" d="m691.87,452.21v-3.52h-.27c-.3,0-.52-.19-.52-.53s.22-.52.52-.52h.27v-.4c0-1.04.51-1.49,1.49-1.5.76,0,1.07.24,1.07.58,0,.2-.1.32-.29.38-.08.02-.17.03-.27.04-.44.01-.62.19-.62.58v.33h.6c.3,0,.52.19.52.52s-.22.53-.52.53h-.57v3.52c0,.49-.29.74-.71.74s-.71-.25-.71-.74Z"/><path class="cls-1" d="m694.57,451.35c0-.95.73-1.5,2.04-1.58l1.32-.08v-.35c0-.49-.34-.77-.88-.77-.43,0-.7.14-1.02.55-.16.18-.34.26-.57.26-.35,0-.6-.22-.6-.55,0-.11.02-.21.07-.32.24-.62,1.08-1.01,2.17-1.01,1.34,0,2.22.69,2.22,1.75v2.98c0,.47-.29.72-.69.72s-.65-.21-.68-.63v-.27h-.03c-.29.56-.95.88-1.6.88-1,0-1.75-.64-1.75-1.59Zm3.36-.42v-.38l-1.1.07c-.53.04-.83.28-.83.65,0,.39.32.63.8.63.62,0,1.14-.41,1.14-.97Z"/><path class="cls-1" d="m700.29,452.21v-5.77c0-.49.3-.75.71-.75s.71.26.71.75v5.77c0,.49-.29.74-.71.74s-.71-.25-.71-.74Z"/><path class="cls-1" d="m702.71,452.21v-5.77c0-.49.3-.75.71-.75s.71.26.71.75v5.77c0,.49-.29.74-.71.74s-.71-.25-.71-.74Z"/><path class="cls-1" d="m855.53,349.62v-5.51c0-.48.27-.77.74-.77h3.35c.41,0,.67.23.67.61s-.27.61-.67.61h-2.61v1.69h2.49c.37,0,.62.21.62.57s-.24.57-.62.57h-2.49v1.78h2.61c.4,0,.67.23.67.61s-.26.61-.67.61h-3.35c-.46,0-.74-.28-.74-.77Z"/><path class="cls-1" d="m861.18,349.75v-5.77c0-.49.3-.75.71-.75s.71.26.71.75v5.77c0,.49-.29.74-.71.74s-.71-.25-.71-.74Z"/><path class="cls-1" d="m863.6,349.77v-5.79c0-.49.3-.75.71-.75s.71.26.71.75v2.08h.03c.29-.62.87-.99,1.62-.99,1.32,0,2.13,1.01,2.13,2.7s-.8,2.7-2.12,2.7c-.77,0-1.35-.37-1.64-.98h-.03v.28c0,.47-.29.72-.71.72s-.7-.24-.7-.72Zm3.74-2c0-.95-.44-1.56-1.15-1.56s-1.17.62-1.17,1.56.47,1.55,1.17,1.55,1.15-.6,1.15-1.55Z"/><path class="cls-1" d="m869.34,347.77c0-1.69,1.03-2.72,2.59-2.72s2.59,1.03,2.59,2.72-1.01,2.73-2.59,2.73-2.59-1.02-2.59-2.73Zm3.74,0c0-1.04-.45-1.64-1.14-1.64s-1.15.6-1.15,1.64.44,1.64,1.15,1.64,1.14-.59,1.14-1.64Z"/><path class="cls-1" d="m876.07,349.75l-1.05-3.65c-.05-.19-.08-.3-.08-.44,0-.36.29-.61.69-.61.36,0,.59.21.67.61l.78,3.38h.03l.81-3.33c.09-.42.37-.65.81-.65s.7.23.8.65l.82,3.33h.03l.78-3.39c.08-.38.31-.6.66-.6.4,0,.67.25.67.61,0,.13-.02.25-.08.43l-1.05,3.65c-.15.52-.42.75-.91.75-.52,0-.8-.22-.92-.76l-.8-3.05h-.03l-.79,3.06c-.12.52-.41.75-.91.75s-.75-.23-.9-.75Z"/><path class="cls-1" d="m742.77,573.16v-5.7c0-.49.27-.77.74-.77s.74.28.74.77v2.19h3.17v-2.19c0-.49.27-.77.74-.77s.74.28.74.77v5.7c0,.48-.27.77-.74.77s-.74-.28-.74-.77v-2.29h-3.17v2.29c0,.48-.27.77-.74.77s-.74-.28-.74-.77Z"/><path class="cls-1" d="m749.63,572.33c0-.95.73-1.5,2.04-1.58l1.32-.08v-.35c0-.49-.34-.77-.88-.77-.43,0-.7.14-1.02.55-.16.18-.34.26-.57.26-.35,0-.6-.22-.6-.55,0-.11.02-.21.07-.32.24-.62,1.08-1.01,2.17-1.01,1.34,0,2.22.69,2.22,1.75v2.98c0,.47-.29.72-.69.72s-.65-.21-.68-.63v-.27h-.03c-.29.56-.95.88-1.6.88-1,0-1.75-.64-1.75-1.59Zm3.36-.42v-.38l-1.1.07c-.53.04-.83.28-.83.65,0,.39.32.63.8.63.62,0,1.14-.41,1.14-.97Z"/><path class="cls-1" d="m755.34,573.19v-5.77c0-.49.3-.75.71-.75s.71.26.71.75v5.77c0,.49-.29.74-.71.74s-.71-.25-.71-.74Z"/><path class="cls-1" d="m757.77,573.19v-5.77c0-.49.3-.75.71-.75s.71.26.71.75v5.77c0,.49-.29.74-.71.74s-.71-.25-.71-.74Z"/><path class="cls-1" d="m620.32,142.38c0-2.27,1.29-3.64,3.32-3.64,1.32,0,2.34.59,2.82,1.6.1.19.15.38.15.55,0,.39-.26.63-.65.63-.33,0-.54-.15-.7-.49-.32-.72-.9-1.08-1.6-1.08-1.11,0-1.83.93-1.83,2.42s.71,2.43,1.84,2.43c.74,0,1.3-.34,1.62-1.04.15-.33.34-.46.65-.46.42,0,.69.26.69.65,0,.17-.04.32-.11.49-.44.98-1.49,1.58-2.82,1.58-2.09,0-3.36-1.37-3.36-3.64Z"/><path class="cls-1" d="m629.64,145.14v-5.6c0-.49.27-.77.74-.77s.74.28.74.77v5.15h2.5c.4,0,.67.23.67.61s-.26.61-.67.61h-3.24c-.46,0-.74-.28-.74-.77Z"/><path class="cls-1" d="m634.68,143.29c0-1.69,1.03-2.72,2.59-2.72s2.59,1.03,2.59,2.72-1.01,2.73-2.59,2.73-2.59-1.02-2.59-2.73Zm3.74,0c0-1.04-.45-1.64-1.14-1.64s-1.15.6-1.15,1.64.44,1.64,1.15,1.64,1.14-.59,1.14-1.64Z"/><path class="cls-1" d="m640.64,145.29v-5.79c0-.49.3-.75.71-.75s.71.26.71.75v2.08h.03c.29-.62.87-.99,1.62-.99,1.32,0,2.13,1.01,2.13,2.7s-.8,2.7-2.12,2.7c-.77,0-1.35-.37-1.64-.98h-.03v.28c0,.47-.29.72-.71.72s-.7-.24-.7-.72Zm3.74-2c0-.95-.44-1.56-1.15-1.56s-1.17.62-1.17,1.56.47,1.55,1.17,1.55,1.15-.6,1.15-1.55Z"/><path class="cls-1" d="m646.61,145.29v-5.79c0-.49.3-.75.71-.75s.71.26.71.75v2.08h.03c.29-.62.87-.99,1.62-.99,1.32,0,2.13,1.01,2.13,2.7s-.8,2.7-2.12,2.7c-.77,0-1.35-.37-1.64-.98h-.03v.28c0,.47-.29.72-.71.72s-.7-.24-.7-.72Zm3.74-2c0-.95-.44-1.56-1.15-1.56s-1.17.62-1.17,1.56.47,1.55,1.17,1.55,1.15-.6,1.15-1.55Z"/><path class="cls-1" d="m652.35,147.18c0-.29.2-.47.52-.47.1,0,.15,0,.25,0,.25,0,.52-.11.69-.47l.07-.19-1.67-4.4c-.05-.15-.08-.3-.08-.42,0-.39.32-.66.74-.66.38,0,.57.16.69.58l1.14,3.62h.02l1.14-3.63c.12-.4.32-.57.69-.57.41,0,.69.27.69.64,0,.12-.03.28-.08.42l-1.61,4.37c-.49,1.35-1.09,1.85-2.24,1.85-.62,0-.96-.24-.96-.67Z"/><path class="cls-1" d="m691.38,362.16c0-2.27,1.29-3.64,3.32-3.64,1.32,0,2.34.59,2.82,1.6.1.19.15.38.15.55,0,.39-.26.63-.65.63-.33,0-.54-.15-.7-.49-.32-.72-.9-1.08-1.6-1.08-1.11,0-1.83.93-1.83,2.42s.71,2.43,1.84,2.43c.74,0,1.3-.34,1.62-1.04.15-.33.34-.46.65-.46.42,0,.69.26.69.65,0,.17-.04.32-.11.49-.44.98-1.49,1.58-2.82,1.58-2.09,0-3.36-1.37-3.36-3.64Z"/><path class="cls-1" d="m700.7,365.09v-5.6c0-.6.35-.95.95-.95.51,0,.8.21,1.01.76l1.75,4.33h.04l1.74-4.33c.21-.54.5-.76,1.02-.76.6,0,.95.35.95.95v5.6c0,.43-.24.69-.66.69s-.65-.25-.65-.69v-4.16h-.04l-1.74,4.26c-.13.31-.32.45-.63.45s-.52-.14-.64-.44l-1.74-4.27h-.04v4.16c0,.43-.24.69-.65.69s-.66-.25-.66-.69Z"/><path class="cls-1" d="m708.9,364.18c0-.95.73-1.5,2.04-1.58l1.32-.08v-.35c0-.49-.34-.77-.88-.77-.43,0-.7.14-1.02.55-.16.18-.34.26-.57.26-.35,0-.6-.22-.6-.55,0-.11.02-.21.07-.32.24-.62,1.08-1.01,2.17-1.01,1.34,0,2.22.69,2.22,1.75v2.98c0,.47-.29.72-.69.72s-.65-.21-.68-.63v-.27h-.03c-.29.56-.95.88-1.6.88-1,0-1.75-.64-1.75-1.59Zm3.36-.42v-.38l-1.1.07c-.53.04-.83.28-.83.65,0,.39.32.63.8.63.62,0,1.14-.41,1.14-.97Z"/><path class="cls-1" d="m714.55,359.06c0-.42.33-.74.76-.74s.76.32.76.74-.33.74-.76.74-.76-.33-.76-.74Zm.05,5.98v-3.96c0-.46.27-.75.71-.75s.71.28.71.75v3.96c0,.46-.27.74-.71.74s-.71-.28-.71-.74Z"/><path class="cls-1" d="m716.97,365.05v-3.98c0-.44.26-.72.69-.72s.71.27.71.72v.29h.03c.28-.65.81-1.01,1.61-1.01,1.16,0,1.82.73,1.82,1.96v2.73c0,.49-.3.74-.71.74s-.71-.25-.71-.74v-2.44c0-.68-.32-1.07-.96-1.07s-1.04.47-1.04,1.15v2.36c0,.49-.29.74-.71.74s-.71-.25-.71-.74Z"/><path class="cls-1" d="m538.83,649.55c0-2.26,1.29-3.62,3.36-3.62,1.35,0,2.41.63,2.81,1.5.08.17.11.31.11.45,0,.38-.26.63-.64.63-.31,0-.53-.13-.71-.43-.35-.63-.86-.94-1.55-.94-1.16,0-1.86.88-1.86,2.38s.74,2.46,1.91,2.46c.96,0,1.63-.59,1.66-1.46v-.11s-1.02,0-1.02,0c-.35,0-.59-.2-.59-.54s.23-.54.59-.54h1.72c.46,0,.74.28.74.77v.11c0,1.79-1.14,3-3.12,3-2.1,0-3.39-1.37-3.39-3.66Z"/><path class="cls-1" d="m546.2,652.45v-3.98c0-.45.28-.72.69-.72s.67.26.67.72v.34h.03c.14-.65.57-1.04,1.09-1.04.19,0,.34.04.44.13.14.11.21.28.21.53,0,.22-.07.4-.21.51s-.34.18-.62.19c-.65,0-.88.38-.88,1v2.32c0,.47-.28.74-.71.74s-.71-.27-.71-.74Z"/><path class="cls-1" d="m549.51,651.59c0-.95.73-1.5,2.04-1.58l1.32-.08v-.35c0-.49-.34-.77-.88-.77-.43,0-.7.14-1.02.55-.16.18-.34.26-.57.26-.35,0-.6-.22-.6-.55,0-.11.02-.21.07-.32.24-.62,1.08-1.01,2.17-1.01,1.34,0,2.22.69,2.22,1.75v2.98c0,.47-.29.72-.69.72s-.65-.21-.68-.63v-.27h-.03c-.29.56-.95.88-1.6.88-1,0-1.75-.64-1.75-1.59Zm3.36-.42v-.38l-1.1.07c-.53.04-.83.28-.83.65,0,.39.32.63.8.63.62,0,1.14-.41,1.14-.97Z"/><path class="cls-1" d="m556.33,652.47l-1.36-3.65c-.04-.13-.08-.28-.08-.42,0-.39.31-.64.71-.64.35,0,.58.19.68.57l1.06,3.51h.03l1.06-3.53c.1-.38.34-.56.67-.56.4,0,.69.27.69.63,0,.13-.03.28-.08.4l-1.36,3.68c-.18.5-.48.73-1,.73-.55,0-.84-.22-1.03-.73Z"/><path class="cls-1" d="m560.11,650.5c0-1.68.98-2.75,2.53-2.75s2.48,1.02,2.48,2.44c0,.4-.22.62-.62.62h-2.99v.06c0,.78.47,1.28,1.19,1.28.52,0,.86-.18,1.25-.63.15-.16.28-.21.46-.21.31,0,.56.2.56.52,0,.11-.03.23-.1.35-.35.64-1.16,1.03-2.17,1.03-1.64,0-2.6-1.01-2.6-2.71Zm3.64-.57c-.03-.68-.47-1.13-1.09-1.13s-1.08.46-1.13,1.13h2.22Z"/><path class="cls-1" d="m565.88,652.45v-5.77c0-.49.3-.75.71-.75s.71.26.71.75v5.77c0,.49-.29.74-.71.74s-.71-.25-.71-.74Z"/><path class="cls-1" d="m581.84,532.34c0-2.27,1.29-3.64,3.32-3.64,1.32,0,2.34.59,2.82,1.6.1.19.15.38.15.55,0,.39-.26.63-.65.63-.33,0-.54-.15-.7-.49-.32-.72-.9-1.08-1.6-1.08-1.11,0-1.83.93-1.83,2.42s.71,2.43,1.84,2.43c.74,0,1.3-.34,1.62-1.04.15-.33.34-.46.65-.46.42,0,.69.26.69.65,0,.17-.04.32-.11.49-.44.98-1.49,1.58-2.82,1.58-2.09,0-3.36-1.37-3.36-3.64Z"/><path class="cls-1" d="m591.16,535.09v-5.6c0-.49.27-.77.74-.77s.74.28.74.77v5.15h2.5c.4,0,.67.23.67.61s-.26.61-.67.61h-3.24c-.46,0-.74-.28-.74-.77Z"/><path class="cls-1" d="m596.44,529.24c0-.42.33-.74.76-.74s.76.32.76.74-.33.74-.76.74-.76-.33-.76-.74Zm.05,5.98v-3.96c0-.46.27-.75.71-.75s.71.28.71.75v3.96c0,.46-.27.74-.71.74s-.71-.28-.71-.74Z"/><path class="cls-1" d="m598.86,535.22v-3.98c0-.44.26-.72.69-.72s.71.27.71.72v.29h.03c.28-.65.81-1.01,1.61-1.01,1.16,0,1.82.73,1.82,1.96v2.73c0,.49-.3.74-.71.74s-.71-.25-.71-.74v-2.44c0-.68-.32-1.07-.96-1.07s-1.04.47-1.04,1.15v2.36c0,.49-.29.74-.71.74s-.71-.25-.71-.74Z"/><path class="cls-1" d="m604.66,535.22v-5.77c0-.49.3-.75.71-.75s.71.26.71.75v3.25h.02l1.89-1.9c.19-.2.35-.28.57-.28.37,0,.63.27.63.62,0,.21-.06.35-.27.54l-1.33,1.26,1.46,1.86c.16.21.2.34.2.52,0,.38-.28.64-.68.64-.3,0-.47-.11-.7-.44l-1.34-1.78-.45.42v1.06c0,.49-.29.74-.71.74s-.71-.25-.71-.74Z"/><path class="cls-1" d="m491.78,476.42v-15.97c0-1.4.79-2.22,2.14-2.22h6.75c3.84,0,6.24,1.97,6.24,5.1,0,2.24-1.67,4.11-3.84,4.43v.11c2.78.21,4.81,2.24,4.81,4.94,0,3.6-2.71,5.85-7.07,5.85h-6.91c-1.34,0-2.14-.82-2.14-2.24Zm7.35-9.7c2.28,0,3.58-1,3.58-2.73s-1.15-2.58-3.14-2.58h-3.51v5.31h3.07Zm.61,8.75c2.46,0,3.79-1.05,3.79-3s-1.37-2.93-3.89-2.93h-3.58v5.93h3.68Z"/><path class="cls-1" d="m81.98,615.64c-1.13,0-1.77-.57-2.17-1.93l-1.08-3.19h-7.38l-1.08,3.23c-.38,1.33-1.02,1.88-2.22,1.88s-2.14-.84-2.14-2.01c0-.42.07-.81.27-1.36l5.61-15.21c.61-1.67,1.6-2.41,3.27-2.41s2.62.76,3.21,2.42l5.58,15.19c.18.52.28,1,.28,1.36,0,1.23-.84,2.01-2.17,2.01Zm-4.18-8.43l-2.65-8.37h-.1l-2.7,8.37h5.45Z"/><path class="cls-1" d="m828.52,436.63c0-6.58,3.75-10.56,9.63-10.56,3.82,0,6.78,1.7,8.18,4.64.28.54.42,1.09.42,1.6,0,1.12-.75,1.84-1.88,1.84-.96,0-1.57-.42-2.04-1.42-.93-2.08-2.61-3.13-4.64-3.13-3.23,0-5.31,2.7-5.31,7.01s2.05,7.05,5.32,7.05c2.15,0,3.77-.98,4.69-3.03.44-.96.98-1.34,1.88-1.34,1.2,0,2,.76,2,1.9,0,.48-.11.93-.33,1.43-1.27,2.83-4.32,4.57-8.18,4.57-6.06,0-9.74-3.96-9.74-10.56Z"/><path class="cls-1" d="m650.04,282.23v-5.6c0-.6.35-.95.95-.95.51,0,.8.21,1.01.76l1.75,4.33h.04l1.74-4.33c.21-.54.5-.76,1.02-.76.6,0,.95.35.95.95v5.6c0,.43-.24.69-.66.69s-.65-.25-.65-.69v-4.16h-.04l-1.74,4.26c-.13.31-.32.45-.63.45s-.52-.14-.64-.44l-1.74-4.27h-.04v4.16c0,.43-.24.69-.65.69s-.66-.25-.66-.69Z"/><path class="cls-1" d="m658.36,280.2c0-1.69,1.03-2.72,2.59-2.72s2.59,1.03,2.59,2.72-1.01,2.73-2.59,2.73-2.59-1.02-2.59-2.73Zm3.74,0c0-1.04-.45-1.64-1.14-1.64s-1.15.6-1.15,1.64.44,1.64,1.15,1.64,1.14-.59,1.14-1.64Z"/><path class="cls-1" d="m664.25,280.96v-2.73c0-.49.3-.75.71-.75s.71.26.71.75v2.44c0,.7.35,1.07.98,1.07s1.03-.45,1.03-1.15v-2.36c0-.49.3-.75.71-.75s.71.26.71.75v3.97c0,.47-.28.72-.69.72s-.69-.25-.69-.72v-.32h-.03c-.26.66-.78,1.04-1.57,1.04-1.13,0-1.88-.74-1.88-1.96Z"/><path class="cls-1" d="m670.04,282.19v-3.98c0-.44.26-.72.69-.72s.71.27.71.72v.29h.03c.28-.65.81-1.01,1.61-1.01,1.16,0,1.82.73,1.82,1.96v2.73c0,.49-.3.74-.71.74s-.71-.25-.71-.74v-2.44c0-.68-.32-1.07-.96-1.07s-1.04.47-1.04,1.15v2.36c0,.49-.29.74-.71.74s-.71-.25-.71-.74Z"/><path class="cls-1" d="m675.61,280.2c0-1.66.83-2.69,2.14-2.69.76,0,1.34.4,1.6.98h.03v-2.07c0-.49.3-.75.71-.75s.71.26.71.75v5.79c0,.47-.29.72-.71.72s-.72-.24-.72-.72v-.3h-.02c-.23.59-.81,1.01-1.61,1.01-1.31,0-2.13-1.04-2.13-2.71Zm3.78,0c0-.95-.45-1.56-1.16-1.56s-1.16.6-1.16,1.56.44,1.55,1.16,1.55,1.16-.6,1.16-1.55Z"/><path class="cls-1" d="m463.51,333.87v-5.51c0-.48.27-.77.74-.77h2.33c1.32,0,2.15.68,2.15,1.76,0,.77-.58,1.42-1.32,1.53v.04c.96.07,1.66.77,1.66,1.7,0,1.24-.93,2.02-2.44,2.02h-2.38c-.46,0-.74-.28-.74-.77Zm2.53-3.34c.79,0,1.24-.35,1.24-.94s-.4-.89-1.08-.89h-1.21v1.83h1.06Zm.21,3.02c.85,0,1.31-.36,1.31-1.04s-.47-1.01-1.34-1.01h-1.24v2.05h1.27Z"/><path class="cls-1" d="m471.88,334.05v-5.6c0-.6.35-.95.95-.95.51,0,.8.21,1.01.76l1.75,4.33h.04l1.74-4.33c.21-.54.5-.76,1.02-.76.6,0,.95.35.95.95v5.6c0,.43-.24.69-.66.69s-.65-.25-.65-.69v-4.16h-.04l-1.74,4.26c-.13.31-.32.45-.63.45s-.52-.14-.64-.44l-1.74-4.27h-.04v4.16c0,.43-.24.69-.65.69s-.66-.25-.66-.69Z"/><path class="cls-1" d="m480.08,333.14c0-.95.73-1.5,2.04-1.58l1.32-.08v-.35c0-.49-.34-.77-.88-.77-.43,0-.7.14-1.02.55-.16.18-.34.26-.57.26-.35,0-.6-.22-.6-.55,0-.11.02-.21.07-.32.24-.62,1.08-1.01,2.17-1.01,1.34,0,2.22.69,2.22,1.75v2.98c0,.47-.29.72-.69.72s-.65-.21-.68-.63v-.27h-.03c-.29.56-.95.88-1.6.88-1,0-1.75-.64-1.75-1.59Zm3.36-.42v-.38l-1.1.07c-.53.04-.83.28-.83.65,0,.39.32.63.8.63.62,0,1.14-.41,1.14-.97Z"/><path class="cls-1" d="m485.73,328.02c0-.42.33-.74.76-.74s.76.32.76.74-.33.74-.76.74-.76-.33-.76-.74Zm.05,5.98v-3.96c0-.46.27-.75.71-.75s.71.28.71.75v3.96c0,.46-.27.74-.71.74s-.71-.28-.71-.74Z"/><path class="cls-1" d="m488.15,334.01v-3.98c0-.44.26-.72.69-.72s.71.27.71.72v.29h.03c.28-.65.81-1.01,1.61-1.01,1.16,0,1.82.73,1.82,1.96v2.73c0,.49-.3.74-.71.74s-.71-.25-.71-.74v-2.44c0-.68-.32-1.07-.96-1.07s-1.04.47-1.04,1.15v2.36c0,.49-.29.74-.71.74s-.71-.25-.71-.74Z"/><path class="cls-1" d="m428.58,231.97v-5.61c0-.48.27-.77.74-.77h2.13c1.45,0,2.44.96,2.44,2.41s-1.03,2.41-2.51,2.41h-1.32v1.55c0,.48-.27.77-.74.77s-.74-.28-.74-.77Zm2.47-2.7c.84,0,1.34-.45,1.34-1.25s-.49-1.25-1.33-1.25h-1v2.5h1Z"/><path class="cls-1" d="m434.61,226.02c0-.42.33-.74.76-.74s.76.32.76.74-.33.74-.76.74-.76-.33-.76-.74Zm.05,5.98v-3.96c0-.46.27-.75.71-.75s.71.28.71.75v3.96c0,.46-.27.74-.71.74s-.71-.28-.71-.74Z"/><path class="cls-1" d="m437.07,232v-5.77c0-.49.3-.75.71-.75s.71.26.71.75v5.77c0,.49-.29.74-.71.74s-.71-.25-.71-.74Z"/><path class="cls-1" d="m439.49,232v-5.77c0-.49.3-.75.71-.75s.71.26.71.75v5.77c0,.49-.29.74-.71.74s-.71-.25-.71-.74Z"/><path class="cls-1" d="m441.67,231.14c0-.95.73-1.5,2.04-1.58l1.32-.08v-.35c0-.49-.34-.77-.88-.77-.43,0-.7.14-1.02.55-.16.18-.34.26-.57.26-.35,0-.6-.22-.6-.55,0-.11.02-.21.07-.32.24-.62,1.08-1.01,2.17-1.01,1.34,0,2.22.69,2.22,1.75v2.98c0,.47-.29.72-.69.72s-.65-.21-.68-.63v-.27h-.03c-.29.56-.95.88-1.6.88-1,0-1.75-.64-1.75-1.59Zm3.36-.42v-.38l-1.1.07c-.53.04-.83.28-.83.65,0,.39.32.63.8.63.62,0,1.14-.41,1.14-.97Z"/><path class="cls-1" d="m447.35,232v-3.98c0-.45.28-.72.69-.72s.67.26.67.72v.34h.03c.14-.65.57-1.04,1.09-1.04.19,0,.34.04.44.13.14.11.21.28.21.53,0,.22-.07.4-.21.51s-.34.18-.62.19c-.65,0-.88.38-.88,1v2.32c0,.47-.28.74-.71.74s-.71-.27-.71-.74Z"/><path class="cls-1" d="m450.87,231.71c-.03-.09-.05-.19-.05-.26,0-.33.24-.55.58-.55.23,0,.42.1.62.32.28.37.6.53,1.14.53s.85-.21.85-.56c0-.28-.18-.43-.69-.55l-.88-.19c-1.03-.22-1.54-.74-1.54-1.52,0-1,.86-1.65,2.22-1.65,1.08,0,1.88.49,2.05,1.08.02.07.03.14.03.21,0,.29-.18.49-.55.49-.19,0-.39-.07-.52-.22-.25-.32-.53-.56-1.04-.56-.48,0-.82.23-.82.57,0,.27.21.45.73.57l.86.19c1.11.23,1.57.64,1.57,1.43,0,1.04-.93,1.71-2.31,1.71-1.2,0-2-.43-2.25-1.04Z"/><path class="cls-1" d="m249.15,176.74c0-.12.03-.29.1-.47l1.92-5.24c.21-.57.55-.83,1.11-.83s.92.25,1.13.83l1.93,5.24c.07.19.09.32.09.47,0,.41-.31.69-.74.69s-.63-.19-.77-.65l-.37-1.11h-2.54l-.37,1.1c-.14.47-.36.66-.75.66-.46,0-.75-.27-.75-.69Zm4.07-2.21l-.93-2.89h-.03l-.91,2.89h1.88Z"/><path class="cls-1" d="m258.31,176.57v-5.6c0-.49.27-.77.74-.77s.74.28.74.77v5.15h2.5c.4,0,.67.23.67.61s-.26.61-.67.61h-3.24c-.46,0-.74-.28-.74-.77Z"/><path class="cls-1" d="m263.35,174.72c0-1.69,1.03-2.72,2.59-2.72s2.59,1.03,2.59,2.72-1.01,2.73-2.59,2.73-2.59-1.02-2.59-2.73Zm3.74,0c0-1.04-.45-1.64-1.14-1.64s-1.15.6-1.15,1.64.44,1.64,1.15,1.64,1.14-.59,1.14-1.64Z"/><path class="cls-1" d="m269.3,176.72v-5.79c0-.49.3-.75.71-.75s.71.26.71.75v2.08h.03c.29-.62.87-.99,1.62-.99,1.32,0,2.13,1.01,2.13,2.7s-.8,2.7-2.12,2.7c-.77,0-1.35-.37-1.64-.98h-.03v.28c0,.47-.29.72-.71.72s-.7-.24-.7-.72Zm3.74-2c0-.95-.44-1.56-1.15-1.56s-1.17.62-1.17,1.56.47,1.55,1.17,1.55,1.15-.6,1.15-1.55Z"/><path class="cls-1" d="m275.28,176.72v-5.79c0-.49.3-.75.71-.75s.71.26.71.75v2.08h.03c.29-.62.87-.99,1.62-.99,1.32,0,2.13,1.01,2.13,2.7s-.8,2.7-2.12,2.7c-.77,0-1.35-.37-1.64-.98h-.03v.28c0,.47-.29.72-.71.72s-.7-.24-.7-.72Zm3.74-2c0-.95-.44-1.56-1.15-1.56s-1.17.62-1.17,1.56.47,1.55,1.17,1.55,1.15-.6,1.15-1.55Z"/><path class="cls-1" d="m281.02,178.61c0-.29.2-.47.52-.47.1,0,.15,0,.25,0,.25,0,.52-.11.69-.47l.07-.19-1.67-4.4c-.05-.15-.08-.3-.08-.42,0-.39.32-.66.74-.66.38,0,.57.16.69.58l1.14,3.62h.02l1.14-3.63c.12-.4.32-.57.69-.57.41,0,.69.27.69.64,0,.12-.03.28-.08.42l-1.61,4.37c-.49,1.35-1.09,1.85-2.24,1.85-.62,0-.96-.24-.96-.67Z"/><path class="cls-1" d="m85.34,381.88c0-.12.03-.29.1-.47l1.92-5.24c.21-.57.55-.83,1.11-.83s.92.25,1.13.83l1.93,5.24c.07.19.09.32.09.47,0,.41-.31.69-.74.69s-.63-.19-.77-.65l-.37-1.11h-2.54l-.37,1.1c-.14.47-.36.66-.75.66-.46,0-.75-.27-.75-.69Zm4.07-2.21l-.93-2.89h-.03l-.91,2.89h1.88Z"/><path class="cls-1" d="m94.5,381.71v-5.51c0-.48.27-.77.74-.77h1.95c2.11,0,3.36,1.26,3.36,3.5s-1.25,3.55-3.36,3.55h-1.95c-.46,0-.74-.28-.74-.77Zm2.51-.45c1.32,0,2.03-.8,2.03-2.32s-.73-2.29-2.03-2.29h-1.04v4.61h1.04Z"/><path class="cls-1" d="m101.18,379.86c0-1.69,1.03-2.72,2.59-2.72s2.59,1.03,2.59,2.72-1.01,2.73-2.59,2.73-2.59-1.02-2.59-2.73Zm3.74,0c0-1.04-.45-1.64-1.14-1.64s-1.15.6-1.15,1.64.44,1.64,1.15,1.64,1.14-.59,1.14-1.64Z"/><path class="cls-1" d="m106.91,379.86c0-1.69,1.03-2.72,2.59-2.72s2.59,1.03,2.59,2.72-1.01,2.73-2.59,2.73-2.59-1.02-2.59-2.73Zm3.74,0c0-1.04-.45-1.64-1.14-1.64s-1.15.6-1.15,1.64.44,1.64,1.15,1.64,1.14-.59,1.14-1.64Z"/><path class="cls-1" d="m112.83,381.84v-3.98c0-.45.28-.72.69-.72s.67.26.67.72v.34h.03c.14-.65.57-1.04,1.09-1.04.19,0,.34.04.44.13.14.11.21.28.21.53,0,.22-.07.4-.21.51s-.34.18-.62.19c-.65,0-.88.38-.88,1v2.32c0,.47-.28.74-.71.74s-.71-.27-.71-.74Z"/><path class="cls-1" d="m583.73,332.74c0-2.27,1.29-3.64,3.32-3.64,1.32,0,2.34.59,2.82,1.6.1.19.15.38.15.55,0,.39-.26.63-.65.63-.33,0-.54-.15-.7-.49-.32-.72-.9-1.08-1.6-1.08-1.11,0-1.83.93-1.83,2.42s.71,2.43,1.84,2.43c.74,0,1.3-.34,1.62-1.04.15-.33.34-.46.65-.46.42,0,.69.26.69.65,0,.17-.04.32-.11.49-.44.98-1.49,1.58-2.82,1.58-2.09,0-3.36-1.37-3.36-3.64Z"/><path class="cls-1" d="m593.05,335.49v-5.51c0-.48.27-.77.74-.77h1.95c2.11,0,3.36,1.26,3.36,3.5s-1.25,3.55-3.36,3.55h-1.95c-.46,0-.74-.28-.74-.77Zm2.51-.45c1.32,0,2.03-.8,2.03-2.32s-.73-2.29-2.03-2.29h-1.04v4.61h1.04Z"/><path class="cls-1" d="m599.74,333.64c0-1.69,1.03-2.72,2.59-2.72s2.59,1.03,2.59,2.72-1.01,2.73-2.59,2.73-2.59-1.02-2.59-2.73Zm3.74,0c0-1.04-.45-1.64-1.14-1.64s-1.15.6-1.15,1.64.44,1.64,1.15,1.64,1.14-.59,1.14-1.64Z"/><path class="cls-1" d="m605.47,333.64c0-1.69,1.03-2.72,2.59-2.72s2.59,1.03,2.59,2.72-1.01,2.73-2.59,2.73-2.59-1.02-2.59-2.73Zm3.74,0c0-1.04-.45-1.64-1.14-1.64s-1.15.6-1.15,1.64.44,1.64,1.15,1.64,1.14-.59,1.14-1.64Z"/><path class="cls-1" d="m611.38,335.62v-3.98c0-.45.28-.72.69-.72s.67.26.67.72v.34h.03c.14-.65.57-1.04,1.09-1.04.19,0,.34.04.44.13.14.11.21.28.21.53,0,.22-.07.4-.21.51s-.34.18-.62.19c-.65,0-.88.38-.88,1v2.32c0,.47-.28.74-.71.74s-.71-.27-.71-.74Z"/></g></svg>