<svg xmlns="http://www.w3.org/2000/svg" viewBox="0 0 888.98 948.98"><defs><style>.cls-1{fill:#33353b;}.cls-2{fill:#575548;}.cls-3{fill:#b0adb0;}.cls-4,.cls-5,.cls-6{fill:none;stroke-miterlimit:10;}.cls-4,.cls-5{stroke:#b0adb0;}.cls-5{stroke-dasharray:5.52 1.84;}.cls-6{stroke:#656569;}.cls-7{fill:#d32027;}.cls-8{fill:#fff;}.cls-9{fill:#79c143;}</style></defs><title>Ascent Defence</title><g id="May_body_merge" data-name="May body merge"><path class="cls-1" d="M144,1239.9h42.7v35h-53v207h150v88H389.75v12h42.91v-13h8v105h128v-106h185v-57h-13v-7h186v-28h6v14h57v-104h-57v14h-6v-60h-186v-7h107v-111h-7v-5h13v-142h-106v-240h-64v-109h-40l-22,26v7h-38v101h-11v1h-152v20h-59v73h15v43h-89v192h24v8h-142v14h-22v-14h-46v43Zm82.69,200h50v-93h13v-22h9v15h34V1347h-21v49.93l15,21v21h10v5h-16v5h-2v-2h-92Zm92,93.1V1478.9h2v3h48v-38h-17v-5h39V1533h-72Zm114-94.11v-35h-56v-57H355.62v-7.06h64v-58H404.69v-14h100v65h29v42h-36v51h27l15,15v11.94l-14,14.06h-57v41h14v3h-42v21h-8Zm279,72h-35v22h-29v-22h-135v-3h56v-67h15v-10h3v16h76v-15h7v31h35v41h7Zm101-294v5h-8v61h-43v-22H683.81v72h27.86v7h-20v31h-22v39h-7v-26h0v-23h-52l-24,23v15h-3v-66h35v-143h4v27h75v-20h42v20Zm-401-263h9v0h106v28h78v-7h100v193h-28v-29h-54v29h-4v-35h-77l-15-15.05V1010.92h-115v-57Zm-74,235h24v-128h100v172h-35v-22h-57v57h14v14h-85v15h-9v-22h-67v-35h88v21h37v-64h-10Z" transform="translate(-100.93 -725.4)"/></g><g id="Bombsite"><rect class="cls-2" x="799.06" y="1377.06" width="132.69" height="121.97" transform="translate(-673.57 1578.04) rotate(-90)"/><rect class="cls-2" x="161.63" y="1324.34" width="86.49" height="143.66" transform="translate(-1292.23 875.64) rotate(-90)"/><rect class="cls-1" x="739.88" y="764.19" width="13.1" height="13.45"/><rect class="cls-1" x="703.72" y="646.78" width="13.15" height="12.08"/><polygon class="cls-1" points="757.91 686.03 770.99 686.03 770.99 697.09 774.76 700.8 773.89 701.81 773.89 713 760.94 713 761.01 705.52 756.43 700.87 757.98 699.5 757.91 686.03"/><rect class="cls-1" x="140.41" y="643.34" width="12.94" height="41.01"/><rect class="cls-1" x="68.97" y="660.99" width="13.1" height="12.99"/><rect class="cls-1" x="82.98" y="664.98" width="13.04" height="13.04"/><rect class="cls-1" x="33.39" y="628.39" width="13.15" height="14.09"/><rect class="cls-1" x="33.19" y="700.39" width="13.48" height="13.21"/></g><g id="Lines"><path class="cls-3" d="M300.42,1075.9v13H288.87v-13h11.55m1-1H287.87v15h13.55v-15Z" transform="translate(-100.93 -725.4)"/><path class="cls-3" d="M307.44,1075.89v6h-5.51v-6h5.51m1-1h-7.51v8h7.51v-8Z" transform="translate(-100.93 -725.4)"/><path class="cls-3" d="M360.06,1118.88v12H348.43v-12h11.63m1-1H347.43v14h13.63v-14Z" transform="translate(-100.93 -725.4)"/><path class="cls-3" d="M295.45,1180.91v6.61h-6.61v-6.61h6.61m1-1h-8.61v8.61h8.61v-8.61Z" transform="translate(-100.93 -725.4)"/><path class="cls-3" d="M300.42,1175.89v11.58H288.84v-11.58h11.58m1-1H287.84v13.58h13.58v-13.58Z" transform="translate(-100.93 -725.4)"/><path class="cls-3" d="M160.93,1276.36v26H134.1v-26h26.83m1-1H133.1v28h28.83v-28Z" transform="translate(-100.93 -725.4)"/><path class="cls-3" d="M160.93,1275.92v26.45H147.8v-26.45h13.13m1-1H146.8v28.45h15.13v-28.45Z" transform="translate(-100.93 -725.4)"/><path class="cls-3" d="M147,1354.33v13.11H134.85v-13.11H147m1-1H133.85v15.11H148v-15.11Z" transform="translate(-100.93 -725.4)"/><path class="cls-3" d="M147.18,1426.33v12.2H134.84v-12.2h12.34m1-1H133.84v14.2h14.34v-14.2Z" transform="translate(-100.93 -725.4)"/><path class="cls-3" d="M148.18,1448.37v11.1H134.84v-11.1h13.34m1-1H133.84v13.1h15.34v-13.1Z" transform="translate(-100.93 -725.4)"/><rect class="cls-4" x="169.96" y="1386.34" width="12.99" height="13.1" transform="translate(-1317.37 843.94) rotate(-90)"/><rect class="cls-4" x="183.91" y="1390.39" width="13.04" height="13.04" transform="translate(-1307.41 861.94) rotate(-90)"/><path class="cls-3" d="M253.87,1369.43v39.93h-12v-39.93h12m1-1h-14v41.93h14v-41.93Z" transform="translate(-100.93 -725.4)"/><path class="cls-3" d="M356.89,1426.43v11h-29v-11h29m1-1h-31v13h31v-13Z" transform="translate(-100.93 -725.4)"/><path class="cls-3" d="M334.85,1418.34v6.24h-7v-6.24h7m1-1h-9v8.24h9v-8.24Z" transform="translate(-100.93 -725.4)"/><path class="cls-3" d="M316.71,1348l5.59,3.68-3.08,4.67-5.59-3.68,3.08-4.67m-.29-1.39-4.17,6.34,7.26,4.79,4.18-6.34-7.27-4.79Z" transform="translate(-100.93 -725.4)"/><path class="cls-3" d="M314.55,1347.55a2.61,2.61,0,1,1-2.6,2.61,2.6,2.6,0,0,1,2.6-2.61m0-1a3.61,3.61,0,1,0,3.6,3.61,3.61,3.61,0,0,0-3.6-3.61Z" transform="translate(-100.93 -725.4)"/><path class="cls-3" d="M402.87,1441.39v12h-11v-12h11m1-1h-13v14h13v-14Z" transform="translate(-100.93 -725.4)"/><path class="cls-3" d="M505.58,1581.31a4.47,4.47,0,1,1-4.46,4.47,4.47,4.47,0,0,1,4.46-4.47m0-1a5.47,5.47,0,1,0,5.46,5.47,5.47,5.47,0,0,0-5.46-5.47Z" transform="translate(-100.93 -725.4)"/><path class="cls-3" d="M562.45,1175.4a4.7,4.7,0,1,1-4.7,4.7,4.71,4.71,0,0,1,4.7-4.7m0-1a5.7,5.7,0,1,0,5.7,5.7,5.7,5.7,0,0,0-5.7-5.7Z" transform="translate(-100.93 -725.4)"/><rect class="cls-4" x="555.66" y="1133.06" width="12.64" height="14.09" transform="translate(-679.06 976.68) rotate(-90)"/><path class="cls-3" d="M525,1047.9v12H513.42v-12H525m1-1H512.42v14H526v-14Z" transform="translate(-100.93 -725.4)"/><path class="cls-3" d="M375.92,998.23v31.6h-2v-31.6h2m1-1h-4v33.6h4v-33.6Z" transform="translate(-100.93 -725.4)"/><path class="cls-3" d="M445.43,862.33v17.56H421.86V862.33h23.57m1-1H420.86v19.56h25.57V861.33Z" transform="translate(-100.93 -725.4)"/><path class="cls-3" d="M635.26,908.91a9.89,9.89,0,1,1-9.89,9.89,9.91,9.91,0,0,1,9.89-9.89m0-1a10.89,10.89,0,1,0,10.89,10.89,10.89,10.89,0,0,0-10.89-10.89Z" transform="translate(-100.93 -725.4)"/><path class="cls-3" d="M709.89,835.88l6.5,6.5v9.19l-6.5,6.5H700.7l-6.5-6.5v-9.19l6.5-6.5h9.19m.41-1h-10L693.2,842v10l7.08,7.09h10l7.09-7.09V842l-7.09-7.09Z" transform="translate(-100.93 -725.4)"/><path class="cls-3" d="M852,1133v27.87H826.4V1133H852m1-1H825.4v29.87H853V1132Z" transform="translate(-100.93 -725.4)"/><path class="cls-3" d="M925.44,1368.91v2h-122v103h-33v-1h32v-102h-32v-2h155m1-1h-157v4h32v100h-32v3h35v-103h122v-4Z" transform="translate(-100.93 -725.4)"/><path class="cls-3" d="M817.28,1372.79v11h-12v-11h12m1-1h-14v13h14v-13Z" transform="translate(-100.93 -725.4)"/><path class="cls-3" d="M853.39,1490.15v12.36H841.44v-12.36h11.95m1-1H840.44v14.36h13.95v-14.36Z" transform="translate(-100.93 -725.4)"/><path class="cls-3" d="M931.38,1415.91v45h-3.94v-45h3.94m1-1h-5.94v47h5.94v-47Z" transform="translate(-100.93 -725.4)"/><polygon class="cls-4" points="831.49 669.01 838.03 669.01 843.97 662.47 843.97 660.48 831.49 660.48 831.49 669.01"/><path class="cls-3" d="M871.43,1411.93v10.79l.29.3,3.29,3.29-.32.32-.3.3v11H862.44v-7.19l-.29-.29-4.09-4.09,1.09-1.09.29-.29v-13h12m1-1h-14v13.58l-1.8,1.8,4.8,4.79v7.78h13.95v-11.54l1-1-4-4v-11.38Z" transform="translate(-100.93 -725.4)"/><path class="cls-3" d="M779.92,1398.89a2.48,2.48,0,0,1,2.48,2.49v34.14l-6.46,7.94-6.47-7.94v-34.14a2.49,2.49,0,0,1,2.49-2.49h8m0-1h-8a3.49,3.49,0,0,0-3.49,3.49v34.5h0l7.47,9.17,7.46-9.17v-34.5a3.48,3.48,0,0,0-3.48-3.49Z" transform="translate(-100.93 -725.4)"/><path class="cls-4" d="M697.21,1335.35" transform="translate(-100.93 -725.4)"/><polygon class="cls-3" points="584.58 616.03 584.58 616.03 584.58 616.04 584.58 616.03 584.58 616.03"/><path class="cls-3" d="M699.74,1340.41V1342a6.22,6.22,0,0,1-6.21,6.22h-1.59v-7.8h7.8m1-1h-9.8v9.8h2.59a7.21,7.21,0,0,0,7.21-7.22v-2.58Z" transform="translate(-100.93 -725.4)"/><rect class="cls-4" x="678.68" y="1379.11" width="2.96" height="21.51" transform="translate(-810.64 1344.63) rotate(-90)"/><polyline class="cls-4" points="589.99 665.94 602.99 665.94 602.99 716.03 582.51 716.03"/><line class="cls-4" x1="729.93" y1="646.02" x2="729.93" y2="643.02"/><polyline class="cls-4" points="387.93 542.47 387.93 470.98 425.45 470.98"/><polyline class="cls-4" points="425.95 336.92 387.93 336.92 387.93 435.96 425.45 435.96"/><rect class="cls-4" x="448.34" y="1046.93" width="12.6" height="13.54" transform="translate(-700 782.94) rotate(-90)"/><line class="cls-4" x1="225" y1="664.48" x2="225" y2="621.55"/><line class="cls-4" x1="262.02" y1="664.48" x2="262.02" y2="621.13"/><rect class="cls-4" x="473.17" y="1254.18" width="13.49" height="11.96" transform="translate(-881.18 1014.67) rotate(-90)"/><rect class="cls-4" x="524.68" y="1252.11" width="2.07" height="42.6" transform="translate(-848.63 1073.73) rotate(-90)"/><rect class="cls-4" x="596.64" y="1252.66" width="2.07" height="41.5" transform="translate(-776.67 1145.69) rotate(-90)"/><rect class="cls-4" x="583.46" y="1258.86" width="13.96" height="13.07" transform="translate(-775.89 1130.43) rotate(-90)"/><rect class="cls-4" x="589.42" y="1270.96" width="6.93" height="14.01" transform="translate(-786.02 1145.44) rotate(-90)"/><rect class="cls-4" x="604.72" y="1275.68" width="13.96" height="11.59" transform="translate(-770.72 1167.77) rotate(-90)"/><polyline class="cls-4" points="472.99 546.97 475.99 546.97 475.99 549.04 472.99 549.04"/><line class="cls-5" x1="471.15" y1="549.04" x2="450.01" y2="549.04"/><polyline class="cls-4" points="449.09 549.04 446.09 549.04 446.09 546.97 449.09 546.97"/><line class="cls-5" x1="450.93" y1="546.97" x2="472.07" y2="546.97"/><rect class="cls-3" x="133.84" y="1439.39" width="92.22" height="0.91" transform="translate(258.97 2154.29) rotate(180)"/><path class="cls-3" d="M829.87,1318.35v13.17H816.7v-13.17h13.17m1-1H815.7v15.17h15.17v-15.17Z" transform="translate(-100.93 -725.4)"/><path class="cls-3" d="M821.85,1311.48v5.15H816.7v-5.15h5.15m1-1H815.7v7.15h7.15v-7.15Z" transform="translate(-100.93 -725.4)"/><rect class="cls-4" x="621.88" y="1361.84" width="39.62" height="11.31" transform="translate(1182.43 2009.58) rotate(180)"/><rect class="cls-4" x="498.41" y="1375.82" width="13.62" height="13.62" transform="translate(909.5 2039.86) rotate(180)"/><rect class="cls-4" x="498.41" y="1389.44" width="6.08" height="6.08" transform="translate(901.97 2059.57) rotate(180)"/><circle class="cls-4" cx="311.62" cy="607.7" r="5.83"/><circle class="cls-4" cx="311.62" cy="563.34" r="5.83"/><rect class="cls-4" x="370.38" y="1211.83" width="17.97" height="17.75" transform="translate(657.8 1716) rotate(180)"/><rect class="cls-4" x="388.35" y="1211.83" width="8.29" height="8.29" transform="translate(684.06 1706.54) rotate(180)"/><rect class="cls-4" x="740.43" y="1511.76" width="12" height="12" transform="translate(1391.92 2310.11) rotate(180)"/><path class="cls-3" d="M106.72,1230.7a3.87,3.87,0,1,1-3.87,3.86,3.86,3.86,0,0,1,3.87-3.86m0-1a4.87,4.87,0,1,0,4.86,4.86,4.87,4.87,0,0,0-4.86-4.86Z" transform="translate(-100.93 -725.4)"/><path class="cls-3" d="M289.85,1150.06v10h-1v-10h1m1-1h-3v12h3v-12Z" transform="translate(-100.93 -725.4)"/></g><g id="Outlines"><path class="cls-6" d="M143.71,1239.9h42.7v35h-53v207h150v88H389.49v12H432.4v-13h8v105h128v-106h185v-57h-13v-7h186v-28h6v14h57v-104h-57v14h-6v-60h-186v-7h107v-111h-7v-5h13v-142h-106v-240h-64v-109h-40l-22,26v7h-38v101h-11v1h-152v20h-59v73h15v43h-89v192h24v8h-142v14h-22v-14h-46v43Zm82.7,200h50v-93h13v-22h9v15h34V1347h-21v49.93l15,21v21h10v5h-16v5h-2v-2h-92Zm92,93.1V1478.9h2v3h48v-38h-17v-5h39V1533h-72Zm114-94.11v-35h-56v-57H355.37v-7.06h64v-58H404.44v-14h100v65h29v42h-36v51h27l15,15v11.94l-14,14.06h-57v41h14v3h-42v21h-8Zm279,72h-35v22h-29v-22h-135v-3h56v-67h15v-10h3v16h76v-15h7v31h35v41h7Zm101-294v5h-8v61h-43v-22H683.56v72h27.86v7h-20v31h-22v39h-7v-26h0v-23h-52l-24,23v15h-3v-66h35v-143h4v27h75v-20h42v20Zm-401-263h9v0h106v28h78v-7h100v193h-28v-29h-54v29h-4v-35h-77l-15-15.05V1010.92h-115v-57Zm-74,235h24v-128h100v172h-35v-22h-57v57h14v14h-85v15h-9v-22h-67v-35h88v21h37v-64h-10Z" transform="translate(-100.93 -725.4)"/></g><g id="callouts_copy" data-name="callouts copy"><path class="cls-7" d="M586.73,813.29a1.76,1.76,0,0,1,.13-.61l2.5-6.81a1.51,1.51,0,0,1,2.9,0l2.52,6.82a1.64,1.64,0,0,1,.12.61.9.9,0,0,1-1,.9c-.54,0-.83-.25-1-.85l-.48-1.44h-3.31l-.48,1.42c-.18.61-.46.87-1,.87A.87.87,0,0,1,586.73,813.29Zm5.29-2.88-1.22-3.75h0l-1.19,3.75Z" transform="translate(-100.93 -725.4)"/><path class="cls-7" d="M596,808.66h-.35a.7.7,0,1,1,0-1.4H596v-.75a.93.93,0,1,1,1.85,0v.75h.66a.7.7,0,1,1,0,1.4h-.66v3.26c0,.48.17.68.57.71l.12,0c.46.05.71.24.71.67s-.54.82-1.32.82h-.06a1.63,1.63,0,0,1-1.87-1.81Z" transform="translate(-100.93 -725.4)"/><path class="cls-7" d="M600.57,808.66h-.35a.7.7,0,1,1,0-1.4h.35v-.75a.93.93,0,1,1,1.86,0v.75h.65a.7.7,0,1,1,0,1.4h-.65v3.26c0,.48.16.68.56.71l.12,0c.46.05.71.24.71.67s-.54.82-1.32.82h-.06a1.63,1.63,0,0,1-1.87-1.81Z" transform="translate(-100.93 -725.4)"/><path class="cls-7" d="M604.37,812.11c0-1.24,1-2,2.65-2.05l1.72-.11v-.45c0-.63-.45-1-1.15-1a1.49,1.49,0,0,0-1.32.72.92.92,0,0,1-.73.34.72.72,0,0,1-.78-.71.9.9,0,0,1,.1-.42c.31-.81,1.41-1.31,2.82-1.31,1.74,0,2.88.9,2.88,2.27v3.88a.85.85,0,0,1-.9.93.82.82,0,0,1-.89-.82V813h0a2.35,2.35,0,0,1-2.08,1.14A2.1,2.1,0,0,1,604.37,812.11Zm4.37-.54v-.49l-1.44.09c-.69.05-1.08.36-1.08.84s.41.83,1,.83A1.37,1.37,0,0,0,608.74,811.57Z" transform="translate(-100.93 -725.4)"/><path class="cls-7" d="M611.5,810.66a3.21,3.21,0,0,1,3.34-3.54,3,3,0,0,1,2.87,1.62,1.16,1.16,0,0,1,.1.46.72.72,0,0,1-.79.72.8.8,0,0,1-.78-.48,1.45,1.45,0,0,0-1.34-.87c-.94,0-1.52.77-1.52,2.09s.58,2.1,1.51,2.1a1.47,1.47,0,0,0,1.33-.8c.25-.39.45-.55.84-.55a.73.73,0,0,1,.78.75,1.09,1.09,0,0,1-.12.48,3.06,3.06,0,0,1-2.86,1.57A3.21,3.21,0,0,1,611.5,810.66Z" transform="translate(-100.93 -725.4)"/><path class="cls-7" d="M618.88,813.24v-7.5a.93.93,0,1,1,1.85,0V810h0l2.46-2.47a1,1,0,0,1,.74-.37.8.8,0,0,1,.82.81.84.84,0,0,1-.35.7l-1.73,1.63,1.9,2.42a1,1,0,0,1,.26.68.82.82,0,0,1-.88.84c-.4,0-.62-.14-.91-.58l-1.75-2.31-.59.55v1.38a.93.93,0,1,1-1.85,0Z" transform="translate(-100.93 -725.4)"/><path class="cls-7" d="M625.27,810.7c0-2.19,1.27-3.58,3.28-3.58a3.05,3.05,0,0,1,3.23,3.16.73.73,0,0,1-.81.81h-3.88v.08a1.51,1.51,0,0,0,1.55,1.67,1.93,1.93,0,0,0,1.62-.82.76.76,0,0,1,.6-.27.68.68,0,0,1,.73.68,1,1,0,0,1-.13.45,3.05,3.05,0,0,1-2.82,1.33A3.16,3.16,0,0,1,625.27,810.7ZM630,810a1.39,1.39,0,0,0-1.42-1.46,1.45,1.45,0,0,0-1.46,1.46Z" transform="translate(-100.93 -725.4)"/><path class="cls-7" d="M632.73,813.24v-5.18a.86.86,0,0,1,.9-.94.84.84,0,0,1,.87.94v.44h0a1.51,1.51,0,0,1,1.42-1.35.83.83,0,0,1,.57.18.8.8,0,0,1,.27.68.83.83,0,0,1-.27.67,1.27,1.27,0,0,1-.8.24c-.85,0-1.15.49-1.15,1.29v3a.93.93,0,1,1-1.85,0Z" transform="translate(-100.93 -725.4)"/><path class="cls-7" d="M640.07,812.46a1.29,1.29,0,0,1-.1-.51.81.81,0,0,1,.84-.85.92.92,0,0,1,.88.56,1.9,1.9,0,0,0,1.89,1c1,0,1.73-.5,1.73-1.17s-.43-1-1.58-1.18l-1-.19c-1.83-.36-2.72-1.24-2.72-2.6,0-1.68,1.46-2.79,3.49-2.79,1.68,0,2.94.7,3.35,1.9a1.32,1.32,0,0,1,.07.42.75.75,0,0,1-.82.77.93.93,0,0,1-.91-.57,1.67,1.67,0,0,0-1.69-1c-.94,0-1.57.44-1.57,1.11s.44.92,1.52,1.13l1,.2c1.94.39,2.78,1.17,2.78,2.56,0,1.79-1.4,2.92-3.69,2.92C641.65,814.22,640.44,813.46,640.07,812.46Z" transform="translate(-100.93 -725.4)"/><path class="cls-7" d="M648.24,815.53v-7.46a.86.86,0,0,1,.91-1,.87.87,0,0,1,.92,1v.37h0a2.23,2.23,0,0,1,2.11-1.3c1.73,0,2.79,1.32,2.79,3.51s-1.06,3.51-2.76,3.51a2.22,2.22,0,0,1-2.11-1.25h0v2.61a.93.93,0,1,1-1.85,0Zm4.86-4.87c0-1.23-.58-2-1.51-2s-1.51.81-1.51,2,.6,2,1.51,2S653.1,811.9,653.1,810.66Z" transform="translate(-100.93 -725.4)"/><path class="cls-7" d="M655.68,812.11c0-1.24,1-2,2.66-2.05l1.71-.11v-.45c0-.63-.44-1-1.14-1a1.47,1.47,0,0,0-1.32.72.94.94,0,0,1-.74.34.71.71,0,0,1-.77-.71,1,1,0,0,1,.09-.42c.32-.81,1.41-1.31,2.82-1.31,1.75,0,2.88.9,2.88,2.27v3.88a.84.84,0,0,1-.9.93.82.82,0,0,1-.89-.82V813h0a2.35,2.35,0,0,1-2.08,1.14A2.1,2.1,0,0,1,655.68,812.11Zm4.37-.54v-.49l-1.43.09c-.7.05-1.09.36-1.09.84s.42.83,1,.83A1.37,1.37,0,0,0,660.05,811.57Z" transform="translate(-100.93 -725.4)"/><path class="cls-7" d="M664.14,813.23l-1.37-4.74a2,2,0,0,1-.1-.57.82.82,0,0,1,.9-.8.86.86,0,0,1,.87.79l1,4.4h0l1.06-4.34a1.06,1.06,0,0,1,2.08,0l1.06,4.34h0l1-4.41a.85.85,0,0,1,.86-.78.81.81,0,0,1,.88.79,2.29,2.29,0,0,1-.1.56L671,813.22a1.12,1.12,0,0,1-1.18,1,1.09,1.09,0,0,1-1.2-1l-1-4h0l-1,4a1.1,1.1,0,0,1-1.19,1A1.12,1.12,0,0,1,664.14,813.23Z" transform="translate(-100.93 -725.4)"/><path class="cls-7" d="M673.3,813.24v-5.18a.85.85,0,0,1,.9-.94.87.87,0,0,1,.93.94v.38h0a2.09,2.09,0,0,1,2.1-1.3,2.24,2.24,0,0,1,2.36,2.54v3.56a.93.93,0,1,1-1.85,0v-3.17c0-.89-.42-1.4-1.25-1.4a1.34,1.34,0,0,0-1.36,1.49v3.08a.93.93,0,1,1-1.86,0Z" transform="translate(-100.93 -725.4)"/><path class="cls-8" d="M751.44,1147.78v-5.51a.7.7,0,0,1,.74-.77h2.33c1.32,0,2.15.68,2.15,1.76a1.55,1.55,0,0,1-1.32,1.53v0a1.7,1.7,0,0,1,1.66,1.7c0,1.24-.93,2-2.44,2h-2.38A.69.69,0,0,1,751.44,1147.78Zm2.54-3.35c.78,0,1.23-.34,1.23-.94s-.39-.89-1.08-.89h-1.21v1.83Zm.21,3c.85,0,1.31-.36,1.31-1s-.48-1-1.35-1h-1.23v2Z" transform="translate(-100.93 -725.4)"/><path class="cls-8" d="M759.82,1147.78v-5.6a.74.74,0,1,1,1.47,0v5.15h2.5a.61.61,0,1,1,0,1.22h-3.24A.68.68,0,0,1,759.82,1147.78Z" transform="translate(-100.93 -725.4)"/><path class="cls-8" d="M764.86,1145.93a2.6,2.6,0,1,1,2.59,2.73A2.48,2.48,0,0,1,764.86,1145.93Zm3.74,0c0-1-.45-1.64-1.15-1.64s-1.14.6-1.14,1.64.44,1.64,1.14,1.64S768.6,1147,768.6,1145.93Z" transform="translate(-100.93 -725.4)"/><path class="cls-8" d="M770.81,1147.93v-5.79a.68.68,0,0,1,.72-.74.67.67,0,0,1,.71.74v2.08h0a1.7,1.7,0,0,1,1.61-1c1.33,0,2.13,1,2.13,2.7s-.8,2.7-2.12,2.7a1.72,1.72,0,0,1-1.64-1h0v.28a.66.66,0,0,1-.71.72A.65.65,0,0,1,770.81,1147.93Zm3.74-2c0-1-.44-1.55-1.15-1.55s-1.17.62-1.17,1.55.48,1.56,1.17,1.56S774.55,1146.89,774.55,1145.93Z" transform="translate(-100.93 -725.4)"/><path class="cls-8" d="M776.78,1147.93v-5.79a.68.68,0,0,1,.72-.74.67.67,0,0,1,.71.74v2.08h0a1.71,1.71,0,0,1,1.62-1c1.32,0,2.12,1,2.12,2.7s-.8,2.7-2.12,2.7a1.72,1.72,0,0,1-1.64-1h0v.28a.66.66,0,0,1-.71.72A.65.65,0,0,1,776.78,1147.93Zm3.74-2c0-1-.44-1.55-1.15-1.55s-1.16.62-1.16,1.55.47,1.56,1.16,1.56S780.52,1146.89,780.52,1145.93Z" transform="translate(-100.93 -725.4)"/><path class="cls-8" d="M782.53,1149.82a.46.46,0,0,1,.52-.47h.25a.73.73,0,0,0,.69-.48l.07-.18-1.67-4.41a1.35,1.35,0,0,1-.08-.42.68.68,0,0,1,.73-.66c.38,0,.58.16.69.58l1.14,3.62h0l1.14-3.63c.12-.4.32-.57.69-.57a.64.64,0,0,1,.69.64,1.6,1.6,0,0,1-.07.42l-1.61,4.37c-.49,1.35-1.09,1.85-2.24,1.85C782.86,1150.49,782.53,1150.25,782.53,1149.82Z" transform="translate(-100.93 -725.4)"/><path class="cls-8" d="M645.79,1183.12V1178h-1.45a.61.61,0,1,1,0-1.22h4.38a.61.61,0,1,1,0,1.22h-1.45v5.15a.74.74,0,1,1-1.48,0Z" transform="translate(-100.93 -725.4)"/><path class="cls-8" d="M649.76,1177.17a.76.76,0,0,1,1.52,0,.76.76,0,0,1-1.52,0Zm0,6v-4a.72.72,0,1,1,1.43,0v4a.72.72,0,1,1-1.43,0Z" transform="translate(-100.93 -725.4)"/><path class="cls-8" d="M652.21,1183.16v-5.77a.72.72,0,1,1,1.43,0v5.77a.72.72,0,1,1-1.43,0Z" transform="translate(-100.93 -725.4)"/><path class="cls-8" d="M654.41,1181.2a2.47,2.47,0,0,1,2.53-2.75,2.35,2.35,0,0,1,2.48,2.44.57.57,0,0,1-.62.62h-3v.06a1.16,1.16,0,0,0,1.19,1.28,1.47,1.47,0,0,0,1.25-.63.6.6,0,0,1,.46-.21.52.52,0,0,1,.56.53.63.63,0,0,1-.1.34,2.33,2.33,0,0,1-2.16,1A2.43,2.43,0,0,1,654.41,1181.2Zm3.64-.57a1.09,1.09,0,0,0-1.1-1.13,1.13,1.13,0,0,0-1.13,1.13Z" transform="translate(-100.93 -725.4)"/><path class="cls-8" d="M660,1182.86a.85.85,0,0,1,0-.26.54.54,0,0,1,.58-.55.81.81,0,0,1,.62.32,1.27,1.27,0,0,0,1.14.54c.52,0,.85-.22.85-.56s-.18-.44-.69-.55l-.88-.19c-1-.22-1.54-.74-1.54-1.52,0-1,.86-1.64,2.22-1.64a2,2,0,0,1,2.05,1.08.86.86,0,0,1,0,.21c0,.29-.19.49-.55.49a.69.69,0,0,1-.52-.22,1.22,1.22,0,0,0-1-.56c-.49,0-.82.23-.82.57s.2.45.72.56l.87.19c1.11.23,1.57.64,1.57,1.42,0,1-.93,1.72-2.31,1.72C661.08,1183.91,660.28,1183.48,660,1182.86Z" transform="translate(-100.93 -725.4)"/><path class="cls-8" d="M551.75,1208.37v-5.6a.87.87,0,0,1,1-1,1,1,0,0,1,1,.76l1.75,4.33h0l1.74-4.33a1,1,0,0,1,1-.76.87.87,0,0,1,1,1v5.6a.66.66,0,1,1-1.32,0v-4.16h0l-1.74,4.26a.67.67,0,0,1-1.27,0l-1.74-4.26h0v4.16a.66.66,0,1,1-1.31,0Z" transform="translate(-100.93 -725.4)"/><path class="cls-8" d="M560.23,1202.34a.76.76,0,1,1,.76.74A.74.74,0,0,1,560.23,1202.34Zm0,6v-4a.67.67,0,0,1,.71-.75.68.68,0,0,1,.72.75v4a.67.67,0,0,1-.72.74A.67.67,0,0,1,560.28,1208.32Z" transform="translate(-100.93 -725.4)"/><path class="cls-8" d="M562.46,1206.34c0-1.66.83-2.69,2.15-2.69a1.68,1.68,0,0,1,1.59,1h0v-2.07a.68.68,0,0,1,.72-.75.67.67,0,0,1,.71.75v5.78a.65.65,0,0,1-.71.72.67.67,0,0,1-.72-.72v-.3h0a1.65,1.65,0,0,1-1.61,1C563.29,1209.05,562.46,1208,562.46,1206.34Zm3.78,0c0-1-.45-1.56-1.16-1.56s-1.16.6-1.16,1.56.44,1.55,1.16,1.55S566.24,1207.3,566.24,1206.35Z" transform="translate(-100.93 -725.4)"/><path class="cls-8" d="M535.89,1306.64v-5.51a.69.69,0,0,1,.73-.77H539c1.33,0,2.16.68,2.16,1.76a1.56,1.56,0,0,1-1.33,1.53v0a1.7,1.7,0,0,1,1.66,1.7c0,1.24-.93,2-2.43,2h-2.39A.68.68,0,0,1,535.89,1306.64Zm2.53-3.35c.79,0,1.24-.34,1.24-.94s-.4-.89-1.09-.89h-1.21v1.83Zm.21,3c.85,0,1.31-.36,1.31-1s-.47-1-1.34-1h-1.24v2Z" transform="translate(-100.93 -725.4)"/><path class="cls-8" d="M542,1304.79a2.6,2.6,0,1,1,2.59,2.73A2.48,2.48,0,0,1,542,1304.79Zm3.74,0c0-1-.45-1.64-1.15-1.64s-1.14.6-1.14,1.64.44,1.64,1.14,1.64S545.71,1305.84,545.71,1304.79Z" transform="translate(-100.93 -725.4)"/><path class="cls-8" d="M548.27,1303.25H548a.54.54,0,1,1,0-1.08h.27v-.58a.72.72,0,1,1,1.43,0v.58h.5a.54.54,0,1,1,0,1.08h-.5v2.5c0,.38.12.53.43.56h.09c.35,0,.54.18.54.51s-.41.64-1,.64h0a1.26,1.26,0,0,1-1.44-1.4Z" transform="translate(-100.93 -725.4)"/><path class="cls-8" d="M551.82,1303.25h-.27a.54.54,0,1,1,0-1.08h.27v-.58a.72.72,0,1,1,1.43,0v.58h.5a.54.54,0,1,1,0,1.08h-.5v2.5c0,.38.13.53.43.56h.1c.35,0,.54.18.54.51s-.41.64-1,.64h0a1.26,1.26,0,0,1-1.44-1.4Z" transform="translate(-100.93 -725.4)"/><path class="cls-8" d="M554.73,1304.79a2.6,2.6,0,1,1,2.6,2.73A2.48,2.48,0,0,1,554.73,1304.79Zm3.74,0c0-1-.45-1.64-1.14-1.64s-1.15.6-1.15,1.64.44,1.64,1.15,1.64S558.47,1305.84,558.47,1304.79Z" transform="translate(-100.93 -725.4)"/><path class="cls-8" d="M560.65,1306.77v-4a.69.69,0,1,1,1.38,0v.33h0a1.53,1.53,0,0,1,1.49-1,1.38,1.38,0,0,1,1.46,1.07h0a1.66,1.66,0,0,1,1.63-1.07,1.64,1.64,0,0,1,1.71,1.75v2.94a.67.67,0,0,1-.72.74.66.66,0,0,1-.7-.74v-2.58c0-.6-.31-.94-.86-.94a.89.89,0,0,0-.9,1v2.54a.69.69,0,1,1-1.37,0v-2.62a.81.81,0,0,0-.84-.9.91.91,0,0,0-.91,1v2.52a.72.72,0,1,1-1.43,0Z" transform="translate(-100.93 -725.4)"/><path class="cls-8" d="M571.38,1306.81v-5.59a.88.88,0,0,1,1-1,1,1,0,0,1,1,.76l1.75,4.33h0l1.75-4.33a1,1,0,0,1,1-.76.87.87,0,0,1,1,1v5.59a.66.66,0,1,1-1.32,0v-4.16h0l-1.74,4.27a.63.63,0,0,1-.63.45.64.64,0,0,1-.64-.45l-1.74-4.27h0v4.16a.66.66,0,1,1-1.32,0Z" transform="translate(-100.93 -725.4)"/><path class="cls-8" d="M579.87,1300.79a.76.76,0,1,1,.76.74A.74.74,0,0,1,579.87,1300.79Zm0,6v-4a.67.67,0,0,1,.71-.74.68.68,0,0,1,.72.74v4a.68.68,0,0,1-.72.74A.67.67,0,0,1,579.92,1306.77Z" transform="translate(-100.93 -725.4)"/><path class="cls-8" d="M582.1,1304.78c0-1.66.83-2.69,2.15-2.69a1.68,1.68,0,0,1,1.59,1h0V1301a.72.72,0,1,1,1.43,0v5.79a.72.72,0,1,1-1.43,0v-.3h0a1.65,1.65,0,0,1-1.61,1C582.93,1307.49,582.1,1306.46,582.1,1304.78Zm3.78,0c0-1-.45-1.56-1.16-1.56s-1.16.6-1.16,1.56.44,1.55,1.16,1.55S585.88,1305.75,585.88,1304.79Z" transform="translate(-100.93 -725.4)"/><path class="cls-8" d="M504.62,1405.36v-5.61a.7.7,0,0,1,.74-.77h2.13a2.31,2.31,0,0,1,2.44,2.42,2.34,2.34,0,0,1-2.51,2.41H506.1v1.55a.74.74,0,1,1-1.48,0Zm2.47-2.7a1.26,1.26,0,1,0,0-2.51h-1v2.51Z" transform="translate(-100.93 -725.4)"/><path class="cls-8" d="M510.65,1399.41a.77.77,0,1,1,.77.74A.75.75,0,0,1,510.65,1399.41Zm.05,6v-4a.72.72,0,1,1,1.43,0v4a.72.72,0,1,1-1.43,0Z" transform="translate(-100.93 -725.4)"/><path class="cls-8" d="M513,1405.46a.74.74,0,0,1,.2-.49l2.41-3.06v0h-2.06a.54.54,0,1,1,0-1.08h3.05a.61.61,0,0,1,.68.62.9.9,0,0,1-.23.58l-2.23,2.91v0h2a.55.55,0,1,1,0,1.09h-3.21A.56.56,0,0,1,513,1405.46Z" transform="translate(-100.93 -725.4)"/><path class="cls-8" d="M518,1405.46a.69.69,0,0,1,.2-.49l2.41-3.06v0h-2.07a.54.54,0,1,1,0-1.08h3a.61.61,0,0,1,.68.62.85.85,0,0,1-.23.58l-2.23,2.91v0h2a.55.55,0,1,1,0,1.09h-3.21A.55.55,0,0,1,518,1405.46Z" transform="translate(-100.93 -725.4)"/><path class="cls-8" d="M523,1404.53c0-1,.73-1.51,2-1.59l1.32-.07v-.35c0-.49-.34-.77-.88-.77a1.15,1.15,0,0,0-1,.55.68.68,0,0,1-.56.26.55.55,0,0,1-.6-.54.75.75,0,0,1,.07-.33,2.22,2.22,0,0,1,2.17-1c1.34,0,2.22.7,2.22,1.75v3a.65.65,0,0,1-.7.71.63.63,0,0,1-.68-.63v-.27h0a1.8,1.8,0,0,1-1.6.88A1.61,1.61,0,0,1,523,1404.53Zm3.36-.42v-.38l-1.11.07c-.53,0-.83.28-.83.65s.32.63.8.63A1,1,0,0,0,526.34,1404.11Z" transform="translate(-100.93 -725.4)"/><path class="cls-8" d="M610.1,1409.7v-5.59a.88.88,0,0,1,1-1,1,1,0,0,1,1,.76l1.74,4.34h0l1.75-4.34a1,1,0,0,1,1-.76.87.87,0,0,1,.94,1v5.59a.66.66,0,1,1-1.31,0v-4.16h0l-1.74,4.26a.62.62,0,0,1-.63.45.63.63,0,0,1-.64-.44l-1.74-4.27h0v4.16a.66.66,0,1,1-1.32,0Z" transform="translate(-100.93 -725.4)"/><path class="cls-8" d="M618.3,1408.79c0-1,.74-1.5,2-1.58l1.32-.08v-.34c0-.49-.34-.78-.88-.78a1.14,1.14,0,0,0-1,.56.75.75,0,0,1-.57.26.54.54,0,0,1-.59-.55.74.74,0,0,1,.07-.32c.24-.62,1.08-1,2.17-1,1.34,0,2.21.69,2.21,1.75v3a.65.65,0,0,1-.69.72.62.62,0,0,1-.68-.64v-.26h0a1.83,1.83,0,0,1-1.61.88A1.62,1.62,0,0,1,618.3,1408.79Zm3.36-.41V1408l-1.1.06c-.53,0-.84.28-.84.65s.32.64.8.64A1,1,0,0,0,621.66,1408.38Z" transform="translate(-100.93 -725.4)"/><path class="cls-8" d="M624,1409.66v-4a.65.65,0,0,1,.69-.71.64.64,0,0,1,.67.71v.34h0a1.16,1.16,0,0,1,1.09-1,.69.69,0,0,1,.45.13.65.65,0,0,1,.2.53.66.66,0,0,1-.2.51,1,1,0,0,1-.62.19c-.65,0-.88.37-.88,1v2.33a.72.72,0,1,1-1.43,0Z" transform="translate(-100.93 -725.4)"/><path class="cls-8" d="M627.65,1409.66v-5.77a.68.68,0,0,1,.72-.75.67.67,0,0,1,.71.75v3.25h0l1.89-1.9a.73.73,0,0,1,.57-.28.6.6,0,0,1,.63.61.65.65,0,0,1-.26.54l-1.34,1.26,1.46,1.86a.76.76,0,0,1,.2.52.64.64,0,0,1-.68.65c-.3,0-.47-.11-.69-.44l-1.35-1.78-.45.42v1.06a.67.67,0,0,1-.71.74A.68.68,0,0,1,627.65,1409.66Z" transform="translate(-100.93 -725.4)"/><path class="cls-8" d="M632.56,1407.7a2.47,2.47,0,0,1,2.53-2.75,2.34,2.34,0,0,1,2.48,2.44.56.56,0,0,1-.61.62h-3v.06a1.16,1.16,0,0,0,1.19,1.28,1.48,1.48,0,0,0,1.25-.63.6.6,0,0,1,.46-.21.52.52,0,0,1,.56.53.74.74,0,0,1-.1.34,2.35,2.35,0,0,1-2.17,1A2.44,2.44,0,0,1,632.56,1407.7Zm3.64-.57a1.08,1.08,0,0,0-1.09-1.13,1.13,1.13,0,0,0-1.13,1.13Z" transform="translate(-100.93 -725.4)"/><path class="cls-8" d="M638.69,1406.14h-.28a.54.54,0,1,1,0-1.08h.28v-.58a.71.71,0,1,1,1.42,0v.58h.51a.54.54,0,1,1,0,1.08h-.51v2.5c0,.37.13.53.44.55h.09c.35,0,.54.19.54.52s-.41.64-1,.64h0a1.26,1.26,0,0,1-1.43-1.4Z" transform="translate(-100.93 -725.4)"/><path class="cls-8" d="M740.09,1308.12v-5.51a.68.68,0,0,1,.74-.76h2.33c1.32,0,2.15.67,2.15,1.75a1.55,1.55,0,0,1-1.32,1.53v0a1.71,1.71,0,0,1,1.66,1.71c0,1.24-.94,2-2.44,2h-2.38A.69.69,0,0,1,740.09,1308.12Zm2.53-3.34c.79,0,1.24-.35,1.24-1s-.4-.89-1.08-.89h-1.22v1.84Zm.21,3c.85,0,1.31-.36,1.31-1s-.47-1-1.34-1h-1.24v2Z" transform="translate(-100.93 -725.4)"/><path class="cls-8" d="M748.46,1308.3v-5.6a.88.88,0,0,1,1-1,1,1,0,0,1,1,.76l1.74,4.33h0l1.75-4.33a1,1,0,0,1,1-.76.87.87,0,0,1,.94,1v5.6a.66.66,0,1,1-1.31,0v-4.16h0l-1.74,4.26a.67.67,0,0,1-1.27,0l-1.74-4.26h0v4.16a.66.66,0,1,1-1.32,0Z" transform="translate(-100.93 -725.4)"/><path class="cls-8" d="M756.66,1307.39c0-1,.73-1.51,2-1.58l1.32-.08v-.35c0-.49-.34-.77-.88-.77a1.13,1.13,0,0,0-1,.55.71.71,0,0,1-.57.26.55.55,0,0,1-.6-.54.72.72,0,0,1,.08-.32c.24-.63,1.08-1,2.17-1,1.34,0,2.21.7,2.21,1.75v3a.65.65,0,0,1-.69.71.62.62,0,0,1-.68-.63v-.27h0a1.81,1.81,0,0,1-1.6.88A1.62,1.62,0,0,1,756.66,1307.39ZM760,1307v-.38l-1.1.07c-.53,0-.84.28-.84.65s.33.63.8.63A1,1,0,0,0,760,1307Z" transform="translate(-100.93 -725.4)"/><path class="cls-8" d="M762.32,1302.27a.76.76,0,1,1,.76.74A.74.74,0,0,1,762.32,1302.27Zm0,6v-4a.71.71,0,1,1,1.42,0v4a.71.71,0,1,1-1.42,0Z" transform="translate(-100.93 -725.4)"/><path class="cls-8" d="M764.74,1308.25v-4a.65.65,0,0,1,.69-.72.66.66,0,0,1,.71.72v.3h0a1.6,1.6,0,0,1,1.61-1,1.73,1.73,0,0,1,1.82,2v2.73a.67.67,0,0,1-.72.74.67.67,0,0,1-.71-.74v-2.43c0-.69-.32-1.08-1-1.08a1,1,0,0,0-1.05,1.15v2.36a.71.71,0,1,1-1.42,0Z" transform="translate(-100.93 -725.4)"/><path class="cls-8" d="M934.21,1442.91v-5.51a.7.7,0,0,1,.74-.77h2.33c1.32,0,2.15.68,2.15,1.76a1.55,1.55,0,0,1-1.32,1.53v0a1.7,1.7,0,0,1,1.66,1.7c0,1.24-.93,2-2.44,2H935A.69.69,0,0,1,934.21,1442.91Zm2.54-3.35c.79,0,1.23-.34,1.23-.94s-.39-.89-1.08-.89h-1.21v1.83Zm.21,3c.85,0,1.31-.36,1.31-1s-.48-1-1.35-1h-1.23v2Z" transform="translate(-100.93 -725.4)"/><path class="cls-8" d="M940.3,1441.06a2.59,2.59,0,1,1,2.59,2.73A2.48,2.48,0,0,1,940.3,1441.06Zm3.73,0c0-1-.45-1.64-1.14-1.64s-1.15.6-1.15,1.64.45,1.64,1.15,1.64S944,1442.11,944,1441.06Z" transform="translate(-100.93 -725.4)"/><path class="cls-8" d="M946,1442.17c0-1,.73-1.5,2-1.58l1.32-.08v-.34c0-.49-.34-.77-.88-.77a1.13,1.13,0,0,0-1,.55.75.75,0,0,1-.57.26.55.55,0,0,1-.6-.54.76.76,0,0,1,.08-.33c.24-.62,1.08-1,2.17-1,1.34,0,2.21.7,2.21,1.75v3a.65.65,0,0,1-.69.72.62.62,0,0,1-.68-.63v-.27h0a1.83,1.83,0,0,1-1.61.88A1.62,1.62,0,0,1,946,1442.17Zm3.36-.41v-.38l-1.1.07c-.53,0-.84.28-.84.65s.32.63.8.63A1,1,0,0,0,949.37,1441.76Z" transform="translate(-100.93 -725.4)"/><path class="cls-8" d="M952.07,1439.52h-.27a.54.54,0,1,1,0-1.08h.27v-.58a.72.72,0,1,1,1.43,0v.58h.5a.54.54,0,1,1,0,1.08h-.5v2.5c0,.37.12.53.43.56H954c.36,0,.55.19.55.52s-.41.64-1,.64h0a1.26,1.26,0,0,1-1.44-1.4Z" transform="translate(-100.93 -725.4)"/><path class="cls-8" d="M957.34,1443v-5.69a.74.74,0,1,1,1.48,0v2.18H962v-2.18a.74.74,0,1,1,1.48,0V1443a.74.74,0,1,1-1.48,0v-2.29h-3.17V1443a.74.74,0,1,1-1.48,0Z" transform="translate(-100.93 -725.4)"/><path class="cls-8" d="M964.33,1441.06a2.59,2.59,0,1,1,2.59,2.73A2.48,2.48,0,0,1,964.33,1441.06Zm3.73,0c0-1-.45-1.64-1.14-1.64s-1.15.6-1.15,1.64.45,1.64,1.15,1.64S968.06,1442.11,968.06,1441.06Z" transform="translate(-100.93 -725.4)"/><path class="cls-8" d="M970.22,1441.82v-2.74a.72.72,0,1,1,1.43,0v2.44c0,.7.34,1.07,1,1.07a1,1,0,0,0,1-1.15v-2.36a.68.68,0,0,1,.72-.74.67.67,0,0,1,.71.74v4a.69.69,0,1,1-1.38,0v-.32h0a1.55,1.55,0,0,1-1.56,1A1.79,1.79,0,0,1,970.22,1441.82Z" transform="translate(-100.93 -725.4)"/><path class="cls-8" d="M975.89,1442.75a1,1,0,0,1,0-.27.53.53,0,0,1,.57-.54.8.8,0,0,1,.62.32,1.29,1.29,0,0,0,1.14.53c.52,0,.86-.21.86-.56s-.18-.44-.69-.55l-.88-.18c-1-.22-1.55-.75-1.55-1.52,0-1,.87-1.65,2.23-1.65a2,2,0,0,1,2.05,1.09.76.76,0,0,1,0,.21c0,.28-.18.48-.55.48a.63.63,0,0,1-.51-.22,1.26,1.26,0,0,0-1-.56c-.48,0-.82.23-.82.57s.21.45.73.57l.86.18c1.12.24,1.58.65,1.58,1.43,0,1-.94,1.71-2.32,1.71C976.94,1443.79,976.14,1443.36,975.89,1442.75Z" transform="translate(-100.93 -725.4)"/><path class="cls-8" d="M981,1441.09a2.47,2.47,0,0,1,2.53-2.76,2.35,2.35,0,0,1,2.48,2.44.57.57,0,0,1-.62.62h-3v.06a1.17,1.17,0,0,0,1.19,1.29,1.5,1.5,0,0,0,1.25-.63.57.57,0,0,1,.46-.21.51.51,0,0,1,.56.52.69.69,0,0,1-.1.35,2.34,2.34,0,0,1-2.16,1A2.43,2.43,0,0,1,981,1441.09Zm3.64-.58a1.08,1.08,0,0,0-1.1-1.12,1.13,1.13,0,0,0-1.13,1.12Z" transform="translate(-100.93 -725.4)"/><path class="cls-9" d="M454.09,1642.32v-7.16a.9.9,0,0,1,1-1h2.54c2.75,0,4.37,1.64,4.37,4.55s-1.62,4.61-4.37,4.61h-2.54A.9.9,0,0,1,454.09,1642.32Zm3.27-.59c1.72,0,2.64-1,2.64-3s-.95-3-2.64-3H456v6Z" transform="translate(-100.93 -725.4)"/><path class="cls-9" d="M462.78,1640c0-2.19,1.28-3.58,3.29-3.58a3,3,0,0,1,3.22,3.17.73.73,0,0,1-.8.8H464.6v.09a1.51,1.51,0,0,0,1.55,1.67,1.94,1.94,0,0,0,1.63-.82.73.73,0,0,1,.6-.28.67.67,0,0,1,.72.68,1,1,0,0,1-.12.45,3.07,3.07,0,0,1-2.82,1.34A3.17,3.17,0,0,1,462.78,1640Zm4.73-.74a1.41,1.41,0,0,0-1.42-1.47,1.48,1.48,0,0,0-1.47,1.47Z" transform="translate(-100.93 -725.4)"/><path class="cls-9" d="M470.74,1642.49v-4.58h-.35a.68.68,0,1,1,0-1.36h.35V1636a1.71,1.71,0,0,1,1.94-2c1,0,1.4.31,1.4.75a.48.48,0,0,1-.37.49l-.36,0c-.57,0-.8.24-.8.75v.43h.78a.68.68,0,0,1,0,1.36h-.73v4.58a.93.93,0,1,1-1.86,0Z" transform="translate(-100.93 -725.4)"/><path class="cls-9" d="M474.44,1640c0-2.19,1.27-3.58,3.28-3.58a3.06,3.06,0,0,1,3.23,3.17.73.73,0,0,1-.81.8h-3.88v.09a1.51,1.51,0,0,0,1.55,1.67,1.92,1.92,0,0,0,1.62-.82.75.75,0,0,1,.61-.28.67.67,0,0,1,.72.68,1,1,0,0,1-.13.45,3.06,3.06,0,0,1-2.82,1.34C475.69,1643.47,474.44,1642.15,474.44,1640Zm4.73-.74a1.41,1.41,0,0,0-1.43-1.47,1.46,1.46,0,0,0-1.46,1.47Z" transform="translate(-100.93 -725.4)"/><path class="cls-9" d="M481.9,1642.49v-5.18a.84.84,0,0,1,.9-.93.87.87,0,0,1,.92.94v.38h0a2.08,2.08,0,0,1,2.1-1.31,2.24,2.24,0,0,1,2.36,2.54v3.56a.93.93,0,1,1-1.86,0v-3.17c0-.89-.42-1.4-1.25-1.4a1.35,1.35,0,0,0-1.36,1.5v3.07a.93.93,0,1,1-1.85,0Z" transform="translate(-100.93 -725.4)"/><path class="cls-9" d="M489.14,1639.91c0-2.16,1.08-3.5,2.79-3.5a2.2,2.2,0,0,1,2.08,1.27h0V1635a.93.93,0,1,1,1.86,0v7.52a.86.86,0,0,1-.92.94.87.87,0,0,1-.94-.94v-.39h0a2.13,2.13,0,0,1-2.09,1.31C490.22,1643.43,489.14,1642.08,489.14,1639.91Zm4.92,0c0-1.24-.59-2-1.51-2s-1.51.78-1.51,2,.57,2,1.51,2S494.06,1641.16,494.06,1639.92Z" transform="translate(-100.93 -725.4)"/><path class="cls-9" d="M496.89,1640c0-2.19,1.27-3.58,3.29-3.58a3,3,0,0,1,3.22,3.17.73.73,0,0,1-.81.8h-3.88v.09a1.51,1.51,0,0,0,1.55,1.67,1.92,1.92,0,0,0,1.62-.82.76.76,0,0,1,.61-.28.67.67,0,0,1,.72.68.86.86,0,0,1-.13.45,3,3,0,0,1-2.81,1.34A3.17,3.17,0,0,1,496.89,1640Zm4.73-.74a1.41,1.41,0,0,0-1.42-1.47,1.47,1.47,0,0,0-1.47,1.47Z" transform="translate(-100.93 -725.4)"/><path class="cls-9" d="M504.35,1642.49v-5.18a.85.85,0,0,1,.9-.93.84.84,0,0,1,.87.93v.44h0a1.5,1.5,0,0,1,1.42-1.34.85.85,0,0,1,.58.17,1,1,0,0,1,0,1.35,1.24,1.24,0,0,1-.81.24c-.85,0-1.14.49-1.14,1.3v3a.93.93,0,1,1-1.86,0Z" transform="translate(-100.93 -725.4)"/><path class="cls-9" d="M511.69,1641.71a1.49,1.49,0,0,1-.1-.51.8.8,0,0,1,.84-.84.93.93,0,0,1,.89.55,1.88,1.88,0,0,0,1.89,1c1,0,1.72-.49,1.72-1.17s-.43-.94-1.58-1.18l-1-.19c-1.83-.36-2.72-1.24-2.72-2.6,0-1.68,1.46-2.79,3.5-2.79,1.67,0,2.94.71,3.34,1.9a1.14,1.14,0,0,1,.07.43.75.75,0,0,1-.82.76.93.93,0,0,1-.91-.56,1.67,1.67,0,0,0-1.68-1c-.95,0-1.58.45-1.58,1.12s.44.91,1.53,1.13l1,.19c1.94.39,2.78,1.17,2.78,2.56,0,1.79-1.4,2.92-3.69,2.92C513.27,1643.47,512.06,1642.72,511.69,1641.71Z" transform="translate(-100.93 -725.4)"/><path class="cls-9" d="M519.86,1644.78v-7.45a.92.92,0,1,1,1.83,0v.37h0a2.2,2.2,0,0,1,2.1-1.29c1.73,0,2.79,1.31,2.79,3.51s-1,3.51-2.75,3.51a2.23,2.23,0,0,1-2.12-1.25h0v2.6a.93.93,0,1,1-1.85,0Zm4.86-4.86c0-1.23-.58-2-1.51-2s-1.5.81-1.5,2,.59,2,1.5,2S524.72,1641.16,524.72,1639.92Z" transform="translate(-100.93 -725.4)"/><path class="cls-9" d="M527.31,1641.37c0-1.24,1-2,2.65-2.06l1.71-.1v-.45c0-.64-.44-1-1.14-1a1.5,1.5,0,0,0-1.32.72.93.93,0,0,1-.74.34.71.71,0,0,1-.77-.71,1.06,1.06,0,0,1,.09-.42c.32-.81,1.41-1.31,2.82-1.31,1.75,0,2.89.9,2.89,2.27v3.88a.85.85,0,0,1-.91.93.81.81,0,0,1-.88-.82v-.35h0a2.36,2.36,0,0,1-2.09,1.15A2.1,2.1,0,0,1,527.31,1641.37Zm4.36-.54v-.5l-1.43.09c-.69,0-1.09.36-1.09.84s.42.83,1,.83A1.36,1.36,0,0,0,531.67,1640.83Z" transform="translate(-100.93 -725.4)"/><path class="cls-9" d="M535.77,1642.48l-1.37-4.74a2,2,0,0,1-.11-.57.82.82,0,0,1,.9-.79.86.86,0,0,1,.87.78l1,4.4h0l1-4.33a1.06,1.06,0,0,1,2.08,0l1.06,4.33h0l1-4.41a.84.84,0,0,1,.85-.77.8.8,0,0,1,.88.78,2,2,0,0,1-.1.57l-1.37,4.75a1.13,1.13,0,0,1-1.19,1,1.09,1.09,0,0,1-1.2-1l-1-4h0l-1,4a1.2,1.2,0,0,1-2.36,0Z" transform="translate(-100.93 -725.4)"/><path class="cls-9" d="M544.93,1642.49v-5.18a.84.84,0,0,1,.89-.93.87.87,0,0,1,.93.94v.38h0a2.07,2.07,0,0,1,2.09-1.31,2.24,2.24,0,0,1,2.36,2.54v3.56a.93.93,0,1,1-1.85,0v-3.17c0-.89-.42-1.4-1.25-1.4a1.35,1.35,0,0,0-1.36,1.5v3.07a.93.93,0,1,1-1.85,0Z" transform="translate(-100.93 -725.4)"/><path class="cls-8" d="M238.56,1221.72a1.37,1.37,0,0,1,.1-.47l1.92-5.24a1.17,1.17,0,0,1,2.24,0l1.93,5.24a1.29,1.29,0,0,1,.09.47.69.69,0,0,1-.73.7c-.42,0-.64-.2-.77-.65l-.37-1.12h-2.54l-.38,1.1c-.13.47-.35.67-.74.67A.68.68,0,0,1,238.56,1221.72Zm4.07-2.21-.93-2.89h0l-.91,2.89Z" transform="translate(-100.93 -725.4)"/><path class="cls-8" d="M247.72,1221.73v-5.6a.87.87,0,0,1,.95-1,1,1,0,0,1,1,.76l1.75,4.33h0l1.74-4.33a1,1,0,0,1,1-.76.87.87,0,0,1,1,1v5.6a.66.66,0,1,1-1.32,0v-4.16h0l-1.74,4.26a.67.67,0,0,1-1.27,0l-1.74-4.26h0v4.16a.66.66,0,1,1-1.31,0Z" transform="translate(-100.93 -725.4)"/><path class="cls-8" d="M255.91,1220.82c0-1,.74-1.51,2-1.58l1.31-.08v-.35c0-.49-.34-.77-.88-.77a1.14,1.14,0,0,0-1,.55.72.72,0,0,1-.57.27.55.55,0,0,1-.59-.55.71.71,0,0,1,.07-.32c.24-.63,1.08-1,2.17-1,1.34,0,2.21.69,2.21,1.74v3a.64.64,0,0,1-.69.71.63.63,0,0,1-.68-.63v-.27h0a1.81,1.81,0,0,1-1.6.89A1.63,1.63,0,0,1,255.91,1220.82Zm3.36-.42V1220l-1.1.07c-.53,0-.84.28-.84.65s.33.64.81.64A1,1,0,0,0,259.27,1220.4Z" transform="translate(-100.93 -725.4)"/><path class="cls-8" d="M261.57,1215.7a.76.76,0,1,1,.76.74A.74.74,0,0,1,261.57,1215.7Zm.05,6v-4a.71.71,0,1,1,1.42,0v4a.71.71,0,1,1-1.42,0Z" transform="translate(-100.93 -725.4)"/><path class="cls-8" d="M264,1221.68v-4a.65.65,0,0,1,.69-.72.66.66,0,0,1,.71.72v.3h0a1.61,1.61,0,0,1,1.61-1,1.73,1.73,0,0,1,1.82,2v2.73a.72.72,0,1,1-1.43,0v-2.43c0-.69-.32-1.08-1-1.08a1,1,0,0,0-1,1.15v2.36a.72.72,0,1,1-1.43,0Z" transform="translate(-100.93 -725.4)"/><path class="cls-8" d="M345.3,1316.17V1311h-1.46a.61.61,0,1,1,0-1.22h4.39a.61.61,0,1,1,0,1.22h-1.46v5.15a.74.74,0,1,1-1.47,0Z" transform="translate(-100.93 -725.4)"/><path class="cls-8" d="M348.85,1316.21v-4a.66.66,0,0,1,.69-.72.65.65,0,0,1,.67.72v.34h0a1.16,1.16,0,0,1,1.09-1,.64.64,0,0,1,.44.13.62.62,0,0,1,.21.53.64.64,0,0,1-.21.51,1,1,0,0,1-.62.19c-.65,0-.88.37-.88,1v2.33a.71.71,0,1,1-1.42,0Z" transform="translate(-100.93 -725.4)"/><path class="cls-8" d="M352.12,1314.25a2.47,2.47,0,0,1,2.53-2.75,2.35,2.35,0,0,1,2.48,2.44.56.56,0,0,1-.62.62h-3v.06a1.15,1.15,0,0,0,1.19,1.28,1.48,1.48,0,0,0,1.25-.63.6.6,0,0,1,.46-.21.52.52,0,0,1,.56.53.74.74,0,0,1-.1.34,2.35,2.35,0,0,1-2.17,1A2.44,2.44,0,0,1,352.12,1314.25Zm3.64-.57a1.08,1.08,0,0,0-1.09-1.13,1.13,1.13,0,0,0-1.13,1.13Z" transform="translate(-100.93 -725.4)"/><path class="cls-8" d="M357.68,1314.25a2.47,2.47,0,0,1,2.53-2.75,2.35,2.35,0,0,1,2.48,2.44.57.57,0,0,1-.62.62h-3v.06a1.16,1.16,0,0,0,1.19,1.28,1.48,1.48,0,0,0,1.25-.63.6.6,0,0,1,.46-.21.52.52,0,0,1,.56.53.74.74,0,0,1-.1.34,2.35,2.35,0,0,1-2.17,1A2.43,2.43,0,0,1,357.68,1314.25Zm3.63-.57a1.08,1.08,0,0,0-1.09-1.13,1.13,1.13,0,0,0-1.13,1.13Z" transform="translate(-100.93 -725.4)"/><path class="cls-8" d="M308.51,1157.53a1.59,1.59,0,0,1,.09-.47l1.93-5.24a1.16,1.16,0,0,1,2.23,0l1.94,5.24a1.25,1.25,0,0,1,.09.47.69.69,0,0,1-.74.69c-.41,0-.63-.19-.76-.65l-.37-1.11h-2.55l-.37,1.1c-.14.47-.36.66-.75.66A.67.67,0,0,1,308.51,1157.53Zm4.06-2.21-.93-2.89h0l-.92,2.89Z" transform="translate(-100.93 -725.4)"/><path class="cls-8" d="M317.66,1157.36v-5.6a.74.74,0,1,1,1.48,0v5.15h2.5a.61.61,0,1,1,0,1.22H318.4A.69.69,0,0,1,317.66,1157.36Z" transform="translate(-100.93 -725.4)"/><path class="cls-8" d="M322.71,1155.51a2.59,2.59,0,1,1,2.59,2.73A2.48,2.48,0,0,1,322.71,1155.51Zm3.73,0c0-1-.45-1.64-1.14-1.64s-1.15.6-1.15,1.64.45,1.64,1.15,1.64S326.44,1156.56,326.44,1155.51Z" transform="translate(-100.93 -725.4)"/><path class="cls-8" d="M328.66,1157.51v-5.79a.71.71,0,1,1,1.42,0v2.08h0a1.72,1.72,0,0,1,1.62-1c1.32,0,2.13,1,2.13,2.7s-.8,2.7-2.13,2.7a1.74,1.74,0,0,1-1.64-1h0v.28a.7.7,0,1,1-1.4,0Zm3.74-2c0-1-.45-1.56-1.15-1.56s-1.17.62-1.17,1.56.47,1.55,1.17,1.55S332.4,1156.47,332.4,1155.51Z" transform="translate(-100.93 -725.4)"/><path class="cls-8" d="M334.63,1157.51v-5.79a.72.72,0,1,1,1.43,0v2.08h0a1.72,1.72,0,0,1,1.62-1c1.32,0,2.13,1,2.13,2.7s-.8,2.7-2.12,2.7a1.72,1.72,0,0,1-1.64-1h0v.28a.66.66,0,0,1-.71.72A.65.65,0,0,1,334.63,1157.51Zm3.74-2c0-1-.44-1.56-1.15-1.56s-1.17.62-1.17,1.56.47,1.55,1.17,1.55S338.37,1156.47,338.37,1155.51Z" transform="translate(-100.93 -725.4)"/><path class="cls-8" d="M340.37,1159.4a.46.46,0,0,1,.52-.47h.25a.72.72,0,0,0,.69-.47l.08-.18-1.67-4.41a1.18,1.18,0,0,1-.09-.42.69.69,0,0,1,.74-.66c.38,0,.57.16.69.57l1.14,3.63h0l1.14-3.64a.66.66,0,0,1,.69-.56.64.64,0,0,1,.69.64,1.35,1.35,0,0,1-.08.42l-1.6,4.37c-.49,1.35-1.1,1.85-2.25,1.85C340.71,1160.07,340.37,1159.83,340.37,1159.4Z" transform="translate(-100.93 -725.4)"/><path class="cls-8" d="M448.2,1037.72v-5.15h-1.46a.61.61,0,1,1,0-1.22h4.39a.61.61,0,1,1,0,1.22h-1.46v5.15a.74.74,0,1,1-1.47,0Z" transform="translate(-100.93 -725.4)"/><path class="cls-8" d="M451.07,1035.77a2.59,2.59,0,1,1,2.59,2.74A2.47,2.47,0,0,1,451.07,1035.77Zm3.73,0c0-1-.44-1.64-1.14-1.64s-1.15.6-1.15,1.64.45,1.64,1.15,1.64S454.8,1036.83,454.8,1035.78Z" transform="translate(-100.93 -725.4)"/><path class="cls-8" d="M457,1039.52v-5.73a.7.7,0,1,1,1.4,0v.28h0a1.72,1.72,0,0,1,1.62-1c1.33,0,2.15,1,2.15,2.7s-.81,2.7-2.12,2.7a1.72,1.72,0,0,1-1.63-1h0v2a.71.71,0,1,1-1.42,0Zm3.74-3.74c0-1-.45-1.56-1.16-1.56s-1.16.62-1.16,1.56.46,1.55,1.16,1.55S460.73,1036.73,460.73,1035.78Z" transform="translate(-100.93 -725.4)"/><path class="cls-8" d="M464.8,1034.87c0-2.27,1.29-3.64,3.32-3.64a2.93,2.93,0,0,1,2.82,1.6,1.2,1.2,0,0,1,.15.55.61.61,0,0,1-.65.64.72.72,0,0,1-.7-.49,1.7,1.7,0,0,0-1.61-1.08c-1.11,0-1.83.93-1.83,2.42s.71,2.43,1.84,2.43a1.66,1.66,0,0,0,1.62-1,.64.64,0,0,1,.65-.46.63.63,0,0,1,.68.65,1.29,1.29,0,0,1-.11.5,2.94,2.94,0,0,1-2.82,1.57C466.07,1038.51,464.8,1037.15,464.8,1034.87Z" transform="translate(-100.93 -725.4)"/><path class="cls-8" d="M471.79,1036.89c0-1,.73-1.5,2-1.58l1.32-.08v-.34c0-.49-.34-.78-.88-.78a1.14,1.14,0,0,0-1,.56.75.75,0,0,1-.57.26.56.56,0,0,1-.6-.55.76.76,0,0,1,.08-.32c.24-.62,1.08-1,2.17-1,1.34,0,2.21.69,2.21,1.75v3a.65.65,0,0,1-.69.72.63.63,0,0,1-.68-.64v-.26h0a1.83,1.83,0,0,1-1.61.88A1.62,1.62,0,0,1,471.79,1036.89Zm3.36-.41v-.38l-1.1.06c-.53,0-.84.28-.84.65s.33.64.8.64A1,1,0,0,0,475.15,1036.48Z" transform="translate(-100.93 -725.4)"/><path class="cls-8" d="M477.85,1034.24h-.27a.54.54,0,1,1,0-1.08h.27v-.58a.72.72,0,1,1,1.43,0v.58h.5a.54.54,0,1,1,0,1.08h-.5v2.5c0,.37.12.53.43.55h.09c.36,0,.55.19.55.52s-.41.63-1,.63h0a1.25,1.25,0,0,1-1.44-1.39Z" transform="translate(-100.93 -725.4)"/><path class="cls-8" d="M481.88,1037.75l-1.05-3.65a1.29,1.29,0,0,1-.08-.44.63.63,0,0,1,.69-.61.66.66,0,0,1,.66.61l.78,3.38h0l.81-3.33a.81.81,0,0,1,1.6,0l.82,3.33h0l.78-3.39a.66.66,0,0,1,.66-.6.62.62,0,0,1,.67.61,1.28,1.28,0,0,1-.08.43l-1.05,3.66a.87.87,0,0,1-.91.75.84.84,0,0,1-.93-.76l-.79-3h0l-.79,3.06a.85.85,0,0,1-.92.75C482.29,1038.5,482,1038.27,481.88,1037.75Z" transform="translate(-100.93 -725.4)"/><path class="cls-8" d="M488.65,1036.89c0-1,.73-1.5,2-1.58l1.32-.08v-.34c0-.49-.34-.78-.88-.78a1.16,1.16,0,0,0-1,.56.71.71,0,0,1-.56.26.56.56,0,0,1-.6-.55.74.74,0,0,1,.07-.32,2.22,2.22,0,0,1,2.17-1c1.34,0,2.22.69,2.22,1.75v3a.66.66,0,0,1-.7.72.63.63,0,0,1-.68-.64v-.26h0a1.82,1.82,0,0,1-1.6.88A1.62,1.62,0,0,1,488.65,1036.89Zm3.36-.41v-.38l-1.11.06c-.53,0-.83.28-.83.65s.32.64.8.64A1.06,1.06,0,0,0,492,1036.48Z" transform="translate(-100.93 -725.4)"/><path class="cls-8" d="M494.36,1037.76V1032a.72.72,0,1,1,1.43,0v5.77a.72.72,0,1,1-1.43,0Z" transform="translate(-100.93 -725.4)"/><path class="cls-8" d="M496.78,1037.76V1032a.68.68,0,0,1,.72-.75.67.67,0,0,1,.71.75v3.25h0l1.89-1.9a.74.74,0,0,1,.57-.29.61.61,0,0,1,.63.62.64.64,0,0,1-.27.54l-1.33,1.26,1.46,1.86a.76.76,0,0,1,.2.52.64.64,0,0,1-.68.65c-.3,0-.47-.11-.7-.45l-1.34-1.77-.45.42v1.06a.67.67,0,0,1-.71.74A.68.68,0,0,1,496.78,1037.76Z" transform="translate(-100.93 -725.4)"/><path class="cls-8" d="M171.7,1465.19v-5.7a.74.74,0,1,1,1.47,0v2.19h3.17v-2.19a.74.74,0,1,1,1.48,0v5.7a.74.74,0,1,1-1.48,0v-2.3h-3.17v2.3a.74.74,0,1,1-1.47,0Z" transform="translate(-100.93 -725.4)"/><path class="cls-8" d="M178.68,1463.27a2.46,2.46,0,0,1,2.53-2.75,2.34,2.34,0,0,1,2.48,2.43.56.56,0,0,1-.62.62h-3v.07a1.16,1.16,0,0,0,1.19,1.28,1.5,1.5,0,0,0,1.25-.63.57.57,0,0,1,.46-.21.52.52,0,0,1,.56.52.69.69,0,0,1-.1.35,2.34,2.34,0,0,1-2.16,1A2.43,2.43,0,0,1,178.68,1463.27Zm3.64-.57a1.08,1.08,0,0,0-1.1-1.13,1.13,1.13,0,0,0-1.13,1.13Z" transform="translate(-100.93 -725.4)"/><path class="cls-8" d="M184.21,1464.36c0-.95.74-1.51,2-1.58l1.31-.08v-.35c0-.49-.34-.77-.87-.77a1.15,1.15,0,0,0-1,.55.72.72,0,0,1-.57.27.55.55,0,0,1-.59-.55.71.71,0,0,1,.07-.32c.24-.63,1.08-1,2.17-1,1.34,0,2.22.69,2.22,1.74v3a.65.65,0,0,1-.7.71.63.63,0,0,1-.68-.63v-.27h0a1.81,1.81,0,0,1-1.6.89A1.63,1.63,0,0,1,184.21,1464.36Zm3.36-.42v-.38l-1.1.07c-.53,0-.83.28-.83.65s.32.64.8.64A1,1,0,0,0,187.57,1463.94Z" transform="translate(-100.93 -725.4)"/><path class="cls-8" d="M191,1465.24l-1.37-3.66a1.37,1.37,0,0,1-.07-.42.65.65,0,0,1,.71-.64.67.67,0,0,1,.68.57l1.06,3.51h0l1.06-3.52a.66.66,0,0,1,.67-.56.64.64,0,0,1,.69.64,1.14,1.14,0,0,1-.08.4l-1.36,3.68a1,1,0,0,1-1,.72A1,1,0,0,1,191,1465.24Z" transform="translate(-100.93 -725.4)"/><path class="cls-8" d="M194.81,1463.27a2.46,2.46,0,0,1,2.53-2.75,2.34,2.34,0,0,1,2.48,2.43.56.56,0,0,1-.62.62h-3v.07a1.16,1.16,0,0,0,1.19,1.28,1.48,1.48,0,0,0,1.25-.63.57.57,0,0,1,.47-.21.52.52,0,0,1,.55.52.79.79,0,0,1-.09.35,2.37,2.37,0,0,1-2.17,1A2.43,2.43,0,0,1,194.81,1463.27Zm3.64-.57a1.08,1.08,0,0,0-1.1-1.13,1.13,1.13,0,0,0-1.12,1.13Z" transform="translate(-100.93 -725.4)"/><path class="cls-8" d="M200.55,1465.22v-4a.65.65,0,0,1,.69-.72.66.66,0,0,1,.71.72v.3h0a1.61,1.61,0,0,1,1.61-1,1.72,1.72,0,0,1,1.82,2v2.73a.71.71,0,1,1-1.42,0v-2.43c0-.69-.33-1.08-1-1.08a1,1,0,0,0-1,1.15v2.36a.67.67,0,0,1-.71.74A.67.67,0,0,1,200.55,1465.22Z" transform="translate(-100.93 -725.4)"/><path class="cls-8" d="M329.89,1403.34c0-2.25,1.29-3.62,3.36-3.62a3,3,0,0,1,2.8,1.5.9.9,0,0,1,.11.45.61.61,0,0,1-.64.64.79.79,0,0,1-.72-.43,1.65,1.65,0,0,0-1.55-.94c-1.16,0-1.86.89-1.86,2.39s.74,2.46,1.92,2.46a1.52,1.52,0,0,0,1.66-1.47v-.11h-1a.54.54,0,1,1,0-1.08h1.72a.7.7,0,0,1,.74.77v.11a2.85,2.85,0,0,1-3.13,3C331.18,1407,329.89,1405.63,329.89,1403.34Z" transform="translate(-100.93 -725.4)"/><path class="cls-8" d="M337,1405.39c0-1,.73-1.51,2-1.59l1.32-.07v-.35c0-.49-.34-.77-.88-.77a1.13,1.13,0,0,0-1,.55.75.75,0,0,1-.57.26.55.55,0,0,1-.6-.54.76.76,0,0,1,.08-.33c.24-.62,1.08-1,2.17-1,1.34,0,2.21.7,2.21,1.75v3a.65.65,0,0,1-.69.72.62.62,0,0,1-.68-.63v-.27h0a1.81,1.81,0,0,1-1.61.88A1.62,1.62,0,0,1,337,1405.39Zm3.36-.42v-.38l-1.1.07c-.53,0-.84.28-.84.65s.33.63.8.63A1,1,0,0,0,340.36,1405Z" transform="translate(-100.93 -725.4)"/><path class="cls-8" d="M342.68,1406.25v-4a.65.65,0,0,1,.69-.72.64.64,0,0,1,.67.72v.34h0a1.16,1.16,0,0,1,1.09-1,.75.75,0,0,1,.45.13.66.66,0,0,1,.2.53.63.63,0,0,1-.2.51,1,1,0,0,1-.62.19c-.65,0-.88.38-.88,1v2.32a.72.72,0,1,1-1.43,0Z" transform="translate(-100.93 -725.4)"/><path class="cls-8" d="M346,1404.26c0-1.66.83-2.69,2.14-2.69a1.69,1.69,0,0,1,1.6,1h0v-2.07a.71.71,0,1,1,1.42,0v5.79a.71.71,0,1,1-1.42,0v-.3h0a1.64,1.64,0,0,1-1.61,1C346.78,1407,346,1405.94,346,1404.26Zm3.78,0c0-1-.46-1.56-1.17-1.56s-1.15.61-1.15,1.56.44,1.56,1.15,1.56S349.74,1405.23,349.74,1404.27Z" transform="translate(-100.93 -725.4)"/><path class="cls-8" d="M351.91,1404.3a2.48,2.48,0,0,1,2.53-2.76,2.35,2.35,0,0,1,2.48,2.44.56.56,0,0,1-.62.62h-3v.06a1.16,1.16,0,0,0,1.19,1.29,1.5,1.5,0,0,0,1.25-.63.57.57,0,0,1,.46-.21.51.51,0,0,1,.56.52.81.81,0,0,1-.1.35,2.37,2.37,0,0,1-2.17,1A2.44,2.44,0,0,1,351.91,1404.3Zm3.64-.57a1.08,1.08,0,0,0-1.09-1.13,1.13,1.13,0,0,0-1.13,1.13Z" transform="translate(-100.93 -725.4)"/><path class="cls-8" d="M357.66,1406.25v-4a.65.65,0,0,1,.68-.72.67.67,0,0,1,.72.72v.29h0a1.59,1.59,0,0,1,1.61-1,1.72,1.72,0,0,1,1.81,2v2.73a.71.71,0,1,1-1.42,0v-2.44c0-.68-.32-1.07-1-1.07a1,1,0,0,0-1.05,1.15v2.36a.71.71,0,1,1-1.42,0Z" transform="translate(-100.93 -725.4)"/><path class="cls-8" d="M471,1178.86c0-2.27,1.3-3.64,3.32-3.64a3,3,0,0,1,2.82,1.6,1.2,1.2,0,0,1,.15.55.61.61,0,0,1-.65.64.72.72,0,0,1-.7-.49,1.68,1.68,0,0,0-1.6-1.08c-1.12,0-1.83.93-1.83,2.42s.7,2.43,1.83,2.43a1.67,1.67,0,0,0,1.62-1,.69.69,0,0,1,1.34.19,1.14,1.14,0,0,1-.12.49,2.93,2.93,0,0,1-2.82,1.58C472.28,1182.51,471,1181.14,471,1178.86Z" transform="translate(-100.93 -725.4)"/><path class="cls-8" d="M478,1180.88c0-1,.74-1.5,2-1.58l1.32-.08v-.34c0-.49-.34-.77-.88-.77a1.14,1.14,0,0,0-1,.55.75.75,0,0,1-.57.26.54.54,0,0,1-.59-.54.75.75,0,0,1,.07-.33c.24-.62,1.08-1,2.17-1,1.34,0,2.21.7,2.21,1.75v3a.64.64,0,0,1-.69.72.63.63,0,0,1-.68-.63v-.27h0a1.82,1.82,0,0,1-1.6.88A1.62,1.62,0,0,1,478,1180.88Zm3.36-.41v-.38l-1.1.07c-.53,0-.84.28-.84.65s.33.63.81.63A1,1,0,0,0,481.36,1180.47Z" transform="translate(-100.93 -725.4)"/><path class="cls-8" d="M484.06,1178.23h-.27a.54.54,0,1,1,0-1.08h.27v-.58a.72.72,0,1,1,1.43,0v.58h.5a.54.54,0,1,1,0,1.08h-.5v2.5c0,.37.13.53.43.56h.1c.35,0,.54.19.54.52s-.41.64-1,.64h-.05a1.26,1.26,0,0,1-1.44-1.4Z" transform="translate(-100.93 -725.4)"/><path class="cls-8" d="M488.09,1181.74l-1-3.64a1.37,1.37,0,0,1-.08-.44.63.63,0,0,1,.69-.61.67.67,0,0,1,.67.6l.77,3.39h0l.81-3.34a.77.77,0,0,1,.81-.65.75.75,0,0,1,.79.65l.82,3.34h0l.78-3.4a.65.65,0,0,1,.66-.59.61.61,0,0,1,.67.6,1.64,1.64,0,0,1-.07.44l-1.06,3.65a.87.87,0,0,1-.91.75.84.84,0,0,1-.93-.76l-.79-3h0l-.79,3a.84.84,0,0,1-.91.75A.86.86,0,0,1,488.09,1181.74Z" transform="translate(-100.93 -725.4)"/><path class="cls-8" d="M494.86,1180.88c0-1,.73-1.5,2-1.58l1.32-.08v-.34c0-.49-.34-.77-.88-.77a1.16,1.16,0,0,0-1,.55.71.71,0,0,1-.56.26.55.55,0,0,1-.6-.54.76.76,0,0,1,.08-.33,2.2,2.2,0,0,1,2.16-1c1.35,0,2.22.7,2.22,1.75v3a.65.65,0,0,1-.69.72.63.63,0,0,1-.69-.63v-.27h0a1.81,1.81,0,0,1-1.6.88A1.62,1.62,0,0,1,494.86,1180.88Zm3.36-.41v-.38l-1.1.07c-.54,0-.84.28-.84.65s.32.63.8.63A1,1,0,0,0,498.22,1180.47Z" transform="translate(-100.93 -725.4)"/><path class="cls-8" d="M500.57,1181.75V1176a.67.67,0,0,1,.72-.74.67.67,0,0,1,.71.74v5.77a.67.67,0,0,1-.71.74A.67.67,0,0,1,500.57,1181.75Z" transform="translate(-100.93 -725.4)"/><path class="cls-8" d="M503,1181.75V1176a.67.67,0,0,1,.72-.74.67.67,0,0,1,.71.74v3.25h0l1.89-1.9a.74.74,0,0,1,.57-.28.62.62,0,0,1,.64.62.66.66,0,0,1-.27.53l-1.34,1.26,1.46,1.86a.77.77,0,0,1,.2.53.62.62,0,0,1-.67.64.75.75,0,0,1-.7-.44l-1.35-1.78-.45.42v1.06a.67.67,0,0,1-.71.74A.67.67,0,0,1,503,1181.75Z" transform="translate(-100.93 -725.4)"/><path class="cls-8" d="M325.89,1465.2l-1.47-5.33a2,2,0,0,1-.08-.49.65.65,0,0,1,.73-.66.68.68,0,0,1,.71.63l1.05,4.57h0l1.19-4.54a.76.76,0,0,1,1.51,0l1.18,4.55h0l1.06-4.57a.69.69,0,0,1,.71-.63.65.65,0,0,1,.73.66,2,2,0,0,1-.08.49l-1.47,5.34c-.15.52-.4.75-.86.75s-.73-.22-.87-.75l-1.17-4.16h0l-1.16,4.16c-.15.52-.41.75-.87.75S326,1465.73,325.89,1465.2Z" transform="translate(-100.93 -725.4)"/><path class="cls-8" d="M334.08,1459.24a.76.76,0,1,1,.76.74A.74.74,0,0,1,334.08,1459.24Zm.05,6v-4a.71.71,0,1,1,1.42,0v4a.71.71,0,1,1-1.42,0Z" transform="translate(-100.93 -725.4)"/><path class="cls-8" d="M336.5,1465.22v-4a.65.65,0,0,1,.69-.72.66.66,0,0,1,.71.72v.3h0a1.61,1.61,0,0,1,1.61-1,1.72,1.72,0,0,1,1.82,2v2.73a.72.72,0,1,1-1.43,0v-2.43c0-.69-.32-1.08-1-1.08a1,1,0,0,0-1,1.15v2.36a.72.72,0,1,1-1.43,0Z" transform="translate(-100.93 -725.4)"/><path class="cls-8" d="M342.07,1463.24c0-1.66.83-2.7,2.15-2.7a1.68,1.68,0,0,1,1.59,1h0v-2.07a.68.68,0,0,1,.72-.75.67.67,0,0,1,.71.75v5.78a.65.65,0,0,1-.71.72.67.67,0,0,1-.72-.72v-.3h0a1.65,1.65,0,0,1-1.61,1C342.9,1466,342.07,1464.91,342.07,1463.24Zm3.78,0c0-1-.45-1.56-1.16-1.56s-1.16.6-1.16,1.56.44,1.55,1.16,1.55S345.85,1464.2,345.85,1463.25Z" transform="translate(-100.93 -725.4)"/><path class="cls-8" d="M348,1463.24a2.6,2.6,0,1,1,2.59,2.73A2.48,2.48,0,0,1,348,1463.24Zm3.74,0c0-1-.45-1.65-1.15-1.65s-1.14.61-1.14,1.65.44,1.64,1.14,1.64S351.77,1464.29,351.77,1463.25Z" transform="translate(-100.93 -725.4)"/><path class="cls-8" d="M354.75,1465.22l-1.05-3.65a1.65,1.65,0,0,1-.08-.44.63.63,0,0,1,.69-.61.66.66,0,0,1,.67.61l.77,3.38h0l.81-3.34a.77.77,0,0,1,.81-.65.76.76,0,0,1,.8.65l.81,3.34h0l.78-3.39a.66.66,0,0,1,.66-.6.62.62,0,0,1,.68.61,1.59,1.59,0,0,1-.08.43l-1.06,3.65a.86.86,0,0,1-.91.75.83.83,0,0,1-.92-.75l-.8-3h0l-.79,3.06a.83.83,0,0,1-.91.74C355.16,1466,354.91,1465.74,354.75,1465.22Z" transform="translate(-100.93 -725.4)"/><path class="cls-8" d="M112.39,1221.66l-1.47-5.33a2.5,2.5,0,0,1-.07-.49.64.64,0,0,1,.72-.66.68.68,0,0,1,.71.63l1.06,4.57h0l1.18-4.54a.76.76,0,0,1,1.51,0l1.19,4.55h0l1-4.57a.69.69,0,0,1,.71-.63.65.65,0,0,1,.73.66,2,2,0,0,1-.08.49l-1.47,5.34c-.15.52-.4.75-.86.75s-.73-.22-.87-.75l-1.17-4.16h0l-1.16,4.16c-.14.52-.41.75-.87.75S112.54,1222.19,112.39,1221.66Z" transform="translate(-100.93 -725.4)"/><path class="cls-8" d="M120.58,1215.7a.77.77,0,1,1,.76.74A.75.75,0,0,1,120.58,1215.7Zm0,6v-4a.67.67,0,0,1,.71-.75.68.68,0,0,1,.72.75v4a.67.67,0,0,1-.72.74A.67.67,0,0,1,120.63,1221.68Z" transform="translate(-100.93 -725.4)"/><path class="cls-8" d="M123,1221.68v-4a.65.65,0,0,1,.69-.72.67.67,0,0,1,.72.72v.3h0a1.59,1.59,0,0,1,1.61-1,1.72,1.72,0,0,1,1.81,2v2.73a.71.71,0,1,1-1.42,0v-2.43c0-.69-.32-1.08-1-1.08a1,1,0,0,0-1,1.15v2.36a.67.67,0,0,1-.71.74A.67.67,0,0,1,123,1221.68Z" transform="translate(-100.93 -725.4)"/><path class="cls-8" d="M128.58,1219.73a2.46,2.46,0,0,1,2.53-2.75,2.34,2.34,0,0,1,2.48,2.43.56.56,0,0,1-.62.62h-3v.07a1.16,1.16,0,0,0,1.19,1.28,1.5,1.5,0,0,0,1.25-.63.57.57,0,0,1,.46-.21.52.52,0,0,1,.56.52.69.69,0,0,1-.1.35,2.36,2.36,0,0,1-2.17,1A2.43,2.43,0,0,1,128.58,1219.73Zm3.63-.57a1.07,1.07,0,0,0-1.09-1.13,1.13,1.13,0,0,0-1.13,1.13Z" transform="translate(-100.93 -725.4)"/><path class="cls-8" d="M886.5,1463.94v-16a2,2,0,0,1,2.13-2.22h6.76c3.84,0,6.24,2,6.24,5.1a4.5,4.5,0,0,1-3.83,4.43v.11a5,5,0,0,1,4.81,4.95c0,3.59-2.7,5.85-7.07,5.85h-6.91A2,2,0,0,1,886.5,1463.94Zm7.35-9.7c2.28,0,3.58-1,3.58-2.73s-1.15-2.58-3.14-2.58h-3.52v5.31Zm.61,8.75c2.46,0,3.79-1,3.79-3s-1.37-2.93-3.89-2.93h-3.59V1463Z" transform="translate(-100.93 -725.4)"/><path class="cls-8" d="M226,1393.37c-1.14,0-1.77-.56-2.17-1.92l-1.08-3.19h-7.37l-1.08,3.23c-.38,1.33-1,1.88-2.22,1.88a2,2,0,0,1-2.14-2,3.79,3.79,0,0,1,.27-1.36l5.61-15.2a3.38,3.38,0,0,1,6.48,0l5.58,15.19a4.56,4.56,0,0,1,.28,1.36A1.94,1.94,0,0,1,226,1393.37Zm-4.18-8.42-2.65-8.37h-.1l-2.7,8.37Z" transform="translate(-100.93 -725.4)"/><path class="cls-8" d="M317.87,1022.72c0-2.25,1.29-3.62,3.36-3.62a3,3,0,0,1,2.81,1.5,1,1,0,0,1,.11.45.61.61,0,0,1-.65.64.77.77,0,0,1-.71-.43,1.67,1.67,0,0,0-1.55-.94c-1.16,0-1.86.89-1.86,2.39s.74,2.46,1.91,2.46a1.52,1.52,0,0,0,1.66-1.47v-.11h-1a.54.54,0,1,1,0-1.08h1.72a.69.69,0,0,1,.74.77v.11a2.84,2.84,0,0,1-3.12,3C319.16,1026.39,317.87,1025,317.87,1022.72Z" transform="translate(-100.93 -725.4)"/><path class="cls-8" d="M325.05,1023.68a2.47,2.47,0,0,1,2.53-2.76,2.35,2.35,0,0,1,2.48,2.44.56.56,0,0,1-.62.62h-3v.06a1.17,1.17,0,0,0,1.19,1.29,1.48,1.48,0,0,0,1.25-.63.57.57,0,0,1,.47-.21.51.51,0,0,1,.55.52.79.79,0,0,1-.09.35,2.37,2.37,0,0,1-2.17,1A2.43,2.43,0,0,1,325.05,1023.68Zm3.64-.57a1.08,1.08,0,0,0-1.1-1.13,1.13,1.13,0,0,0-1.12,1.13Z" transform="translate(-100.93 -725.4)"/><path class="cls-8" d="M330.83,1025.63v-5.77a.71.71,0,1,1,1.42,0v5.77a.71.71,0,1,1-1.42,0Z" transform="translate(-100.93 -725.4)"/><path class="cls-8" d="M333,1024.77c0-1,.73-1.51,2-1.59l1.32-.07v-.35c0-.49-.34-.77-.88-.77a1.16,1.16,0,0,0-1,.55.71.71,0,0,1-.56.26.55.55,0,0,1-.6-.54.76.76,0,0,1,.08-.33,2.2,2.2,0,0,1,2.16-1c1.35,0,2.22.7,2.22,1.75v3a.65.65,0,0,1-.69.72.63.63,0,0,1-.69-.63v-.27h0a1.79,1.79,0,0,1-1.6.88A1.62,1.62,0,0,1,333,1024.77Zm3.36-.42V1024l-1.1.07c-.54,0-.84.28-.84.65s.32.63.8.63A1,1,0,0,0,336.37,1024.35Z" transform="translate(-100.93 -725.4)"/><path class="cls-8" d="M339.07,1022.11h-.27a.51.51,0,0,1-.56-.54.51.51,0,0,1,.56-.53h.27v-.59a.72.72,0,1,1,1.43,0v.59h.5a.54.54,0,1,1,0,1.07h-.5v2.5c0,.38.12.53.43.56H341c.35,0,.54.18.54.51s-.41.64-1,.64h-.05a1.26,1.26,0,0,1-1.43-1.4Z" transform="translate(-100.93 -725.4)"/><path class="cls-8" d="M342,1023.65a2.6,2.6,0,1,1,2.59,2.73A2.48,2.48,0,0,1,342,1023.65Zm3.73,0c0-1-.44-1.64-1.14-1.64s-1.15.6-1.15,1.64.45,1.64,1.15,1.64S345.71,1024.7,345.71,1023.65Z" transform="translate(-100.93 -725.4)"/></g></svg>