<svg xmlns="http://www.w3.org/2000/svg" viewBox="0 0 856.09 953.1"><defs><style>.cls-1{fill:#33353b;}.cls-2{fill:#575548;}.cls-3{fill:#b0adb0;}.cls-4{fill:none;stroke:#b0adb0;stroke-miterlimit:10;}.cls-5{fill:#656569;}.cls-6{fill:#d32027;}.cls-7{fill:#fff;}.cls-8{fill:#79c143;}</style></defs><title>Haven Defence</title><g id="Body_Merge" data-name="Body Merge"><polygon class="cls-1" points="47.08 691.1 33.04 691.1 33.04 693.05 47.08 693.05 47.08 723.05 70.04 723.05 70.04 691.1 52.98 691.1 47.08 691.1"/><path class="cls-1" d="M136.39,532.09V602.2H106.45V739.09h36.93v6H122.43v30h54v80h145v77h54v72l44,33h2l70-64v-42h58v3h34v-79h115v-61h108v-39h154v-107h-19v-93h-41v-75h-6v-63h31v-22h4V309.18H897v-.07H821.38v.07h-15v30.91h-8v-47h23v-38h-154v-131l-52-38h-103l-60,38.05v77h54v62h-138v48.68h0v66.28h29.95v5h-31v48h-7v-37h-70v23h-26l-88,53h-70v62Zm69,284v-71h-10v-6h27v62h45v-15h54v30Zm378-2.93H498.46v72.94H414.37v-69h-47v-116h70v-16h15v40l24,23h22v46h62v-46h21l24-23v-11h16v18h46v81.07Zm23-227v-46h-31v-62h46v30h23v9h-23v111h23v4.07h-23v34h77v5h-60v11h-17v4h-16v-91h-52v-9Zm-23-181v-34h-92v-31h-7v-4h22v-27h61v31h31v54h16v15H560.44v-4Zm138,313h6v-40h-6v-12h0v-34h-38v-4.07h23v-20h77v40h-23v107h-39Zm85-347v7h15v16h39v38h-39v54h39v69h-77v25h-77v-63h-23v-9h23v-161h-73v-7h34v-31h62v85h69v-23Zm-169-170v70h-104v-70Zm-216,177h9l22-21v-21h14v4h-6v65h53v4h-54v69h39v108h24v9h-70v61h-15v-15h-116v114h-54v-31h38v-107H267.44v-16h62v16h30v-23h9v23h76v-53h-8v-8h-7v-77h-6v-5h27v-91h-29Zm-157,101h57v22h39v-37h7v10h35.06v5h-1.06l-10,11v66h-23v22h-9v-11h-30v4h-76V539.15h-62V602.2H175.38V532.09h1Z" transform="translate(-105.34 -85.04)"/></g><g id="Bombsite"><rect class="cls-2" x="806.43" y="647.09" width="153.98" height="108.01" transform="translate(1661.49 1317.15) rotate(180)"/><rect class="cls-2" x="371.04" y="537.06" width="106" height="97"/><rect class="cls-2" x="106.37" y="643.11" width="112.02" height="96.02" transform="translate(219.42 1297.19) rotate(180)"/><polygon class="cls-1" points="386.52 608.75 461.49 608.75 461.49 570.59 438.63 570.59 438.63 555.62 409.51 555.62 409.51 570.59 386.52 570.59 386.52 608.75"/><polygon class="cls-1" points="762.57 593.61 762.57 578.55 715.44 578.55 715.44 563.58 701.59 563.58 701.59 578.55 701.59 580.67 701.59 593.61 762.57 593.61"/><rect class="cls-1" x="914.02" y="648.62" width="45.91" height="44.9" transform="translate(1768.61 1257.09) rotate(180)"/><rect class="cls-1" x="952.79" y="693.62" width="7.04" height="14.16" transform="translate(1807.27 1316.35) rotate(180)"/><rect class="cls-1" x="875.83" y="740.62" width="14.07" height="14.24" transform="translate(1660.39 1410.45) rotate(180)"/><polygon class="cls-1" points="63.33 609.62 122.86 594.39 118.61 577.4 59.08 592.57 63.33 609.62"/><rect class="cls-1" x="106.8" y="725.62" width="14.18" height="13.04" transform="translate(122.44 1379.25) rotate(180)"/></g><g id="Lines"><path class="cls-3" d="M188.22,463.45l7.11,11.82-11.48,6.9-7.1-11.82,11.47-6.9m.34-1.37L175.37,470l8.14,13.53,13.19-7.93-8.14-13.53Z" transform="translate(-105.34 -85.04)"/><path class="cls-3" d="M297.38,395.14v19.94h-6V395.14h6m1-1h-8v21.94h8V394.14Z" transform="translate(-105.34 -85.04)"/><path class="cls-3" d="M301.38,395.14v12.94h-3V395.14h3m1-1h-5v14.94h5V394.14Z" transform="translate(-105.34 -85.04)"/><path class="cls-3" d="M381.38,384v12h-13V384h13m1-1h-15v14h15V383Z" transform="translate(-105.34 -85.04)"/><path class="cls-3" d="M449.47,418.1v13H430.4v-13h19.07m1-1H429.4v15h21.07v-15Z" transform="translate(-105.34 -85.04)"/><path class="cls-3" d="M444.37,263.1v15h-62v100h-14v-115h76m1-1h-78v117h16v-100h62v-17Z" transform="translate(-105.34 -85.04)"/><path class="cls-3" d="M451.39,263.1V286H390.33V378.1H368.39v-115h83m1-1h-85V287h0V379.1h23.94V287h61.06V262.1Z" transform="translate(-105.34 -85.04)"/><path class="cls-3" d="M505.42,264.12v13h-13v-13h13m1-1h-15v15h15v-15Z" transform="translate(-105.34 -85.04)"/><path class="cls-3" d="M666.48,325.09v14.07H652.4V325.09h14.08m1-1H651.4v16.07h16.08V324.09Z" transform="translate(-105.34 -85.04)"/><path class="cls-3" d="M647.89,334.06a2.52,2.52,0,1,1-2.51,2.52,2.51,2.51,0,0,1,2.51-2.52m0-1a3.52,3.52,0,1,0,3.51,3.52,3.52,3.52,0,0,0-3.51-3.52Z" transform="translate(-105.34 -85.04)"/><path class="cls-3" d="M628.38,395.09v13h-13v-13h13m1-1h-15v15h15v-15Z" transform="translate(-105.34 -85.04)"/><path class="cls-3" d="M628.38,387.1v7h-30v-7h30m1-1h-32v9h32v-9Z" transform="translate(-105.34 -85.04)"/><path class="cls-3" d="M705.45,433v14H691.4V433h14.05m1-1H690.4v16h16.05V432Z" transform="translate(-105.34 -85.04)"/><path class="cls-3" d="M690.45,433v6h-6v-6h6m1-1h-8v8h8v-8Z" transform="translate(-105.34 -85.04)"/><path class="cls-3" d="M626.35,518.09a4,4,0,1,1-4,4,4,4,0,0,1,4-4m0-1a5,5,0,1,0,5,5,5,5,0,0,0-5-5Z" transform="translate(-105.34 -85.04)"/><path class="cls-3" d="M636.37,553.12v12h-14v-12h14m1-1h-16v14h16v-14Z" transform="translate(-105.34 -85.04)"/><path class="cls-3" d="M682.39,614.12v14h-37v-14h37m1-1h-39v16h39v-16Z" transform="translate(-105.34 -85.04)"/><path class="cls-3" d="M682.39,614.12v17h-37v-17h37m1-1h-39v19h39v-19Z" transform="translate(-105.34 -85.04)"/><path class="cls-3" d="M675.38,619.08v9h-23v-9h23m1-1h-25v11h25v-11Z" transform="translate(-105.34 -85.04)"/><path class="cls-3" d="M843.4,556.1v13h-13v-13h13m1-1h-15v15h15v-15Z" transform="translate(-105.34 -85.04)"/><path class="cls-3" d="M797.43,379.11v14h-13v-14h13m1-1h-15v16h15v-16Z" transform="translate(-105.34 -85.04)"/><path class="cls-3" d="M783.42,387.09v6h-7v-6h7m1-1h-9v8h9v-8Z" transform="translate(-105.34 -85.04)"/><polyline class="cls-4" points="754.56 401.7 754.56 362.54 740.1 362.54"/><path class="cls-3" d="M867.42,664.11v13.95h-60V664.11h60m1-1h-62v15.95h62V663.11Z" transform="translate(-105.34 -85.04)"/><path class="cls-3" d="M820.39,649.1v14h-13v-14h13m1-1h-15v16h15v-16Z" transform="translate(-105.34 -85.04)"/><path class="cls-3" d="M889.38,741.1v13h-13v-13h13m1-1h-15v15h15v-15Z" transform="translate(-105.34 -85.04)"/><path class="cls-3" d="M959.4,649.11v44h-45v-44h45m1-1h-47v46h47v-46Z" transform="translate(-105.34 -85.04)"/><path class="cls-3" d="M959.4,694.1v13h-5.95v-13h5.95m1-1h-7.95v15h7.95v-15Z" transform="translate(-105.34 -85.04)"/><path class="cls-3" d="M728.4,295.1v13h-13v-13h13m1-1h-15v15h15v-15Z" transform="translate(-105.34 -85.04)"/><path class="cls-3" d="M513.38,479.12v12h-14v-12h14m1-1h-16v14h16v-14Z" transform="translate(-105.34 -85.04)"/><path class="cls-3" d="M605.4,595.06v67h-13v-67h13m1-1h-15v69h15v-69Z" transform="translate(-105.34 -85.04)"/><path class="cls-3" d="M543.38,749.12v1h-28v-1h28m1-1h-30v3h30v-3Z" transform="translate(-105.34 -85.04)"/><path class="cls-3" d="M543.38,641.12v15h23v37h-74v-37h23v-15h28m1-1h-30v15h-23v39h76v-39h-23v-15Z" transform="translate(-105.34 -85.04)"/><path class="cls-3" d="M467.37,596v12.08h-14V596h14m1-1h-16v14.08h16V595Z" transform="translate(-105.34 -85.04)"/><path class="cls-3" d="M459.36,609.09v7h-6.17v-7h6.17m1-1h-8.17v9h8.17v-9Z" transform="translate(-105.34 -85.04)"/><path class="cls-3" d="M444.38,602.12v15h-14v-15h14m1-1h-16v17h16v-17Z" transform="translate(-105.34 -85.04)"/><path class="cls-3" d="M567.38,409.1v22H507.44v-22h59.94m1-1H506.44v24h61.94v-24Z" transform="translate(-105.34 -85.04)"/><path class="cls-3" d="M560.47,406.09v18H513.36v-18h47.11m1-1H512.36v20h49.11v-20Z" transform="translate(-105.34 -85.04)"/><path class="cls-3" d="M774.38,649.09v29h-13v-29h13m1-1h-15v31h15v-31Z" transform="translate(-105.34 -85.04)"/><path class="cls-3" d="M774.38,679.11v14h-13v-14h13m1-1h-15v16h15v-16Z" transform="translate(-105.34 -85.04)"/><path class="cls-3" d="M805.47,779.12v14.06H791.42V779.12h14.05m1-1H790.42v16.06h16.05V778.12Z" transform="translate(-105.34 -85.04)"/><path class="cls-3" d="M380.4,967.15v22h-5v-22h5m1-1h-7v24h7v-24Z" transform="translate(-105.34 -85.04)"/><path class="cls-3" d="M491.47,965.19v7.61l-13,12.57V965.19h13m1-1h-15v23.53l15-14.5v-9Z" transform="translate(-105.34 -85.04)"/><path class="cls-3" d="M560.4,787.12v7h-62v-7h62m1-1h-64v9h64v-9Z" transform="translate(-105.34 -85.04)"/><path class="cls-3" d="M366.53,722.12v13H353.58v-13h12.95m1-1H352.58v15h14.95v-15Z" transform="translate(-105.34 -85.04)"/><path class="cls-3" d="M366.53,736.08v6h-4.92v-6h4.92m1-1h-6.92v8h6.92v-8Z" transform="translate(-105.34 -85.04)"/><path class="cls-3" d="M234.39,788.11v13h-12v-13h12m1-1h-14v15h14v-15Z" transform="translate(-105.34 -85.04)"/><path class="cls-3" d="M120.39,726.09v12h-13v-12h13m1-1h-15v14h15v-14Z" transform="translate(-105.34 -85.04)"/><path class="cls-3" d="M120.39,726.09v2h-13v-2h13m1-1h-15v4h15v-4Z" transform="translate(-105.34 -85.04)"/><path class="cls-3" d="M205.4,589.08v27h-29V602.18h15.05v-13.1h14m1-1h-16v13.1H175.38V617.1h31v-29Z" transform="translate(-105.34 -85.04)"/><path class="cls-3" d="M266.51,605.1v11H255.42v-11h11.09m1-1H254.42v13h13.09v-13Z" transform="translate(-105.34 -85.04)"/><path class="cls-3" d="M194.39,740.09v4h-29v-4h29m1-1h-31v6h31v-6Z" transform="translate(-105.34 -85.04)"/><path class="cls-3" d="M164.37,741.1v2h-21v-2h21m1-1h-23v4h23v-4Z" transform="translate(-105.34 -85.04)"/><path class="cls-3" d="M223.52,663.08l4.08,16L169.07,694,165,678l58.53-14.92m.72-1.21-60.46,15.4,4.56,17.93,60.47-15.4-4.57-17.93Z" transform="translate(-105.34 -85.04)"/><line class="cls-4" x1="578.49" y1="427.82" x2="561.18" y2="437.93"/><line class="cls-4" x1="538.53" y1="428.98" x2="554.71" y2="419.38"/><line class="cls-4" x1="732.05" y1="309.48" x2="715.68" y2="293.4"/></g><g id="Outlines"><path class="cls-5" d="M175.38,776.13v32H152.43v-30H138.38v-2h37m1.05-1h-39.1v4.06h14v30h25.05V775.08Z" transform="translate(-105.34 -85.04)"/><path class="cls-5" d="M615.39,86.09l52,38.05v131h154v38h-23v47h8V309.18h15v-.07H897v.07h32.36v85.89h-4v22h-31v63h6v75h41v93h19v107h-154v39h-108v61h-115v79h-34v-3h-58v42l-70,64h-2l-44-33v-72h-54v-77h-145v-80h-54v-30h20.95v-6H106.45V602.2h29.94V532.09h-30v-62h70l88-53h26v-23h70v37h7v-48h31v-5H368.41V311.81h0V263.13h138v-62h-54v-77l60-38h103m-82,185h104v-70h-104v70m100,76h73v161h-23v9h23v63h77v-25h77v-69h-39v-54h39v-38h-39v-16h-15v-7h-8v23h-69v-85h-62v31h-34v7m-149-7h7v31h92v34H560.44v4h53.95v-15h-16v-54h-31v-31h-61v27h-22v4m-63,43h29v91h-27v5h6v77h7v8h8v53h-76v-23h-9v23h-30v-16h-62v16h37.95v107h-38v31h54v-114h116v15h15v-61h70v-9h-24v-108h-39v-69h54v-4h-53v-65h6v-4h-14v21l-22,21h-9v5m-100,118v-22h-57l-88,53h-1V602.2h16.06V539.15h62v31.94h76v-4h30v11h9v-22h23v-66l10-11h1.06v-5H367.38v-10h-7v37h-39m254,39h31v46h-53v9h52v91h16v-4h17v-11h60v-5h-77v-34h23v-4.07h-23v-111h23v-9h-23v-30h-46v62m108,92h38v34h0v12h6v40h-6v37h39v-107h23v-40h-77v20h-23v4.07m-316,185h47v69h84.09V813.15H667.38V732.08h-46v-18h-16v11l-24,23h-21v46h-62v-46h-22l-24-23v-40h-15v16h-70v116m-172-72h10v71h116v-30h-54v15h-45v-62h-27v6M615.73,85H512.09l-.26.16-60,38.05-.49.31v78.59h54v59.93h-138v48.68l0,1.05v67.33h29.95V382h-31v48h-4.89v-37H289.33v23H264.11l-.25.15L176.09,469H105.34v64.1h30v68H105.4v139h36.93v3.93h-21v32.07h54v80h145v77h54v71.48l.42.31,44,33,.28.21h2.75l.3-.28,70-64,.35-.31v-41.4h55.92v3h36.08v-79h115v-61H807.48v-39h154V647.06h-19v-93h-41v-75h-6V418.15h31v-22h4v-88H898.08v-.07H820.33v.07h-15V339h-5.93V294.16h23V254.05h-154V123.61l-.43-.32L616,85.24l-.28-.2ZM534.47,202.15H636.35V270H534.47V202.15Zm134,108h59.9v85h71.1v-23h5.93v7h15v16h39v35.91h-39v56.11h39v66.9h-77v25H707.43V516h-23v-6.9h23V346.07h-73v-4.93h34v-31Zm-161,0h58.92v31h31v54h16v12.92H561.49v-1.92h22.94V370.05h-92v-31h-7v-1.91h22v-27Zm-54,27h11.91v1.91h-6v67.08h53v1.92h-54v71.07h39v108h24V594h-70v61H438.44v-15H320.35v114H268.44V725.14h38V616H268.49v-13.9h59.86v16h32.08v-23h6.91v23h78.09V563.05h-8v-8h-7v-77h-6v-2.91h27V382h-29v-2.89h8.36l.3-.29,22-21,.32-.31V337.15Zm-92,128h4.89v10h35.06v2.91h-.48l-.31.34-10,11-.28.3v65.37h-23v22h-6.91V566H328.35v4h-73.9V538.1H190.39v63h-14v-68h.25l.24-.15,87.78-52.84h55.65v22h41.09v-37Zm215,14h43.91v30h23V516h-23V629.11h23v2h-23v36.08h77V670h-60v11h-17v4H606.43V594h-52v-6.89h53V539h-31V479.13Zm131,130h74.91v37.91h-23V754H722.43V719.14h6V677h-6v-9.88l0-1v-35h-38v-2h23v-20Zm-269,77h12.89v39.36l.32.31,24,23,.3.29h21.38v46h64.08v-46H581.8l.31-.29,24-23,.32-.31V715.15h13.92v18h46v79H497.41V885h-82v-69h-47V702.14h70v-16Zm-242,54h24.89v62h47.11v-15h51.91V815H206.43v-71h-10v-3.93Z" transform="translate(-105.34 -85.04)"/></g><g id="Callouts_copy" data-name="Callouts copy"><path class="cls-6" d="M517.59,140.45a2.09,2.09,0,0,1,.13-.61l2.5-6.81a1.52,1.52,0,0,1,2.91,0l2.51,6.81a1.68,1.68,0,0,1,.12.61.89.89,0,0,1-1,.9c-.53,0-.82-.24-1-.84l-.48-1.45H520l-.48,1.43c-.18.61-.47.86-1,.86A.87.87,0,0,1,517.59,140.45Zm5.29-2.87-1.21-3.75h0l-1.19,3.75Z" transform="translate(-105.34 -85.04)"/><path class="cls-6" d="M526.82,135.83h-.36a.7.7,0,1,1,0-1.4h.36v-.76a.93.93,0,1,1,1.85,0v.76h.65a.7.7,0,1,1,0,1.4h-.65v3.25c0,.48.17.69.57.72h.12c.45.05.7.24.7.67s-.53.83-1.31.83h-.07a1.64,1.64,0,0,1-1.86-1.82Z" transform="translate(-105.34 -85.04)"/><path class="cls-6" d="M531.44,135.83h-.36a.7.7,0,1,1,0-1.4h.36v-.76a.93.93,0,1,1,1.85,0v.76H534a.7.7,0,1,1,0,1.4h-.66v3.25c0,.48.17.69.57.72H534c.45.05.7.24.7.67s-.53.83-1.31.83h-.07a1.64,1.64,0,0,1-1.86-1.82Z" transform="translate(-105.34 -85.04)"/><path class="cls-6" d="M535.23,139.28c0-1.24,1-2,2.66-2.06l1.71-.1v-.45c0-.63-.44-1-1.14-1a1.48,1.48,0,0,0-1.32.71.94.94,0,0,1-.74.35.71.71,0,0,1-.77-.71,1,1,0,0,1,.09-.42c.32-.82,1.41-1.32,2.82-1.32,1.75,0,2.88.9,2.88,2.28v3.87a.85.85,0,0,1-.9.94.82.82,0,0,1-.89-.83v-.35h0a2.36,2.36,0,0,1-2.09,1.15A2.11,2.11,0,0,1,535.23,139.28Zm4.37-.54v-.5l-1.43.09c-.7,0-1.09.36-1.09.85s.42.82,1,.82A1.35,1.35,0,0,0,539.6,138.74Z" transform="translate(-105.34 -85.04)"/><path class="cls-6" d="M542.37,137.83a3.21,3.21,0,0,1,3.34-3.55,3,3,0,0,1,2.87,1.63,1.36,1.36,0,0,1,.1.46.73.73,0,0,1-.8.72.82.82,0,0,1-.78-.48,1.42,1.42,0,0,0-1.33-.87c-.94,0-1.52.77-1.52,2.09s.58,2.1,1.5,2.1a1.47,1.47,0,0,0,1.34-.8.9.9,0,0,1,.84-.55.74.74,0,0,1,.78.74,1.25,1.25,0,0,1-.12.49,3.11,3.11,0,0,1-2.87,1.57A3.21,3.21,0,0,1,542.37,137.83Z" transform="translate(-105.34 -85.04)"/><path class="cls-6" d="M549.75,140.4v-7.49a.93.93,0,1,1,1.85,0v4.22h0l2.47-2.47a.94.94,0,0,1,.73-.37.8.8,0,0,1,.83.81.81.81,0,0,1-.35.69l-1.73,1.64,1.89,2.42a1,1,0,0,1,.26.68.82.82,0,0,1-.88.84c-.39,0-.61-.14-.91-.58l-1.74-2.31-.59.54v1.38a.93.93,0,1,1-1.85,0Z" transform="translate(-105.34 -85.04)"/><path class="cls-6" d="M556.13,137.86c0-2.19,1.28-3.58,3.29-3.58a3,3,0,0,1,3.22,3.17.73.73,0,0,1-.8.81H558v.08A1.51,1.51,0,0,0,559.5,140a1.94,1.94,0,0,0,1.63-.82.75.75,0,0,1,.6-.27.67.67,0,0,1,.72.68,1,1,0,0,1-.12.45,3.08,3.08,0,0,1-2.82,1.33C557.38,141.38,556.13,140.07,556.13,137.86Zm4.73-.74a1.41,1.41,0,0,0-1.42-1.47,1.48,1.48,0,0,0-1.47,1.47Z" transform="translate(-105.34 -85.04)"/><path class="cls-6" d="M563.6,140.4v-5.18a.89.89,0,1,1,1.77,0v.45h0a1.5,1.5,0,0,1,1.42-1.35.91.91,0,0,1,.58.17.82.82,0,0,1,.26.69.8.8,0,0,1-.26.66,1.24,1.24,0,0,1-.81.25c-.84,0-1.14.48-1.14,1.29v3a.93.93,0,1,1-1.85,0Z" transform="translate(-105.34 -85.04)"/><path class="cls-6" d="M570.93,139.63a1.55,1.55,0,0,1-.1-.52.81.81,0,0,1,.85-.84.92.92,0,0,1,.88.56,1.88,1.88,0,0,0,1.89,1c1,0,1.73-.49,1.73-1.16s-.43-1-1.58-1.18l-1-.2c-1.83-.36-2.73-1.23-2.73-2.6,0-1.67,1.46-2.78,3.5-2.78,1.68,0,2.94.7,3.34,1.89a1.14,1.14,0,0,1,.07.43.75.75,0,0,1-.81.77.94.94,0,0,1-.92-.57,1.65,1.65,0,0,0-1.68-1c-.95,0-1.57.45-1.57,1.12s.43.92,1.52,1.13l1,.2c2,.39,2.78,1.17,2.78,2.56,0,1.79-1.4,2.92-3.68,2.92C572.51,141.39,571.3,140.63,570.93,139.63Z" transform="translate(-105.34 -85.04)"/><path class="cls-6" d="M579.1,142.69v-7.45a.92.92,0,1,1,1.83,0v.37h0a2.22,2.22,0,0,1,2.11-1.3c1.72,0,2.78,1.32,2.78,3.51s-1.05,3.51-2.75,3.51a2.24,2.24,0,0,1-2.12-1.25h0v2.6a.93.93,0,1,1-1.86,0Zm4.86-4.86c0-1.23-.58-2-1.5-2s-1.51.8-1.51,2,.6,2,1.51,2S584,139.07,584,137.83Z" transform="translate(-105.34 -85.04)"/><path class="cls-6" d="M586.55,139.28c0-1.24,1-2,2.65-2.06l1.72-.1v-.45c0-.63-.45-1-1.15-1a1.5,1.5,0,0,0-1.32.71.92.92,0,0,1-.73.35.72.72,0,0,1-.78-.71.9.9,0,0,1,.1-.42c.32-.82,1.41-1.32,2.82-1.32,1.74,0,2.88.9,2.88,2.28v3.87a.85.85,0,0,1-.9.94.82.82,0,0,1-.89-.83v-.35h0a2.34,2.34,0,0,1-2.08,1.15A2.1,2.1,0,0,1,586.55,139.28Zm4.37-.54v-.5l-1.44.09c-.69,0-1.08.36-1.08.85s.41.82,1,.82A1.36,1.36,0,0,0,590.92,138.74Z" transform="translate(-105.34 -85.04)"/><path class="cls-6" d="M595,140.4l-1.37-4.75a1.9,1.9,0,0,1-.1-.57.81.81,0,0,1,.89-.79.86.86,0,0,1,.87.79l1,4.4h0l1-4.34a1.07,1.07,0,0,1,2.09,0l1,4.34h0l1-4.42a.85.85,0,0,1,.86-.77.8.8,0,0,1,.87.79,1.89,1.89,0,0,1-.1.56l-1.37,4.75a1.14,1.14,0,0,1-1.19,1,1.09,1.09,0,0,1-1.2-1l-1-4h0l-1,4a1.1,1.1,0,0,1-1.19,1C595.54,141.37,595.21,141.07,595,140.4Z" transform="translate(-105.34 -85.04)"/><path class="cls-6" d="M604.17,140.4v-5.18a.85.85,0,0,1,.89-.93.87.87,0,0,1,.93.94v.38h0a2.09,2.09,0,0,1,2.1-1.31,2.25,2.25,0,0,1,2.36,2.55v3.55a.93.93,0,1,1-1.86,0v-3.17c0-.88-.42-1.39-1.25-1.39a1.35,1.35,0,0,0-1.36,1.49v3.07a.93.93,0,1,1-1.85,0Z" transform="translate(-105.34 -85.04)"/><path class="cls-7" d="M141.23,764.93v-5.7a.74.74,0,1,1,1.47,0v2.19h3.18v-2.19a.74.74,0,1,1,1.47,0v5.7a.74.74,0,1,1-1.47,0v-2.3H142.7v2.3a.74.74,0,1,1-1.47,0Z" transform="translate(-105.34 -85.04)"/><path class="cls-7" d="M148.21,763a2.47,2.47,0,0,1,2.53-2.75,2.34,2.34,0,0,1,2.48,2.43.56.56,0,0,1-.62.62h-3v.07a1.16,1.16,0,0,0,1.19,1.28,1.49,1.49,0,0,0,1.25-.63.6.6,0,0,1,.47-.21.52.52,0,0,1,.55.52.67.67,0,0,1-.1.35,2.34,2.34,0,0,1-2.16,1A2.43,2.43,0,0,1,148.21,763Zm3.64-.57a1.09,1.09,0,0,0-1.1-1.13,1.12,1.12,0,0,0-1.12,1.13Z" transform="translate(-105.34 -85.04)"/><path class="cls-7" d="M153.75,764.1c0-1,.73-1.5,2-1.58l1.32-.08v-.35c0-.49-.35-.77-.88-.77a1.15,1.15,0,0,0-1,.55.72.72,0,0,1-.57.27.55.55,0,0,1-.59-.55.74.74,0,0,1,.07-.32,2.2,2.2,0,0,1,2.17-1c1.34,0,2.22.69,2.22,1.74v3a.66.66,0,0,1-.7.72.63.63,0,0,1-.68-.64v-.27h0a1.81,1.81,0,0,1-1.6.89A1.62,1.62,0,0,1,153.75,764.1Zm3.36-.42v-.38l-1.11.07c-.53,0-.83.28-.83.65s.32.64.8.64A1.06,1.06,0,0,0,157.11,763.68Z" transform="translate(-105.34 -85.04)"/><path class="cls-7" d="M160.57,765l-1.36-3.65a1.22,1.22,0,0,1-.08-.43.65.65,0,0,1,.71-.64.66.66,0,0,1,.68.57l1.06,3.51h0l1.06-3.52a.66.66,0,0,1,.67-.56.65.65,0,0,1,.69.64,1.4,1.4,0,0,1-.07.4L162.59,765a1,1,0,0,1-1,.73A1,1,0,0,1,160.57,765Z" transform="translate(-105.34 -85.04)"/><path class="cls-7" d="M164.34,763a2.47,2.47,0,0,1,2.53-2.75,2.34,2.34,0,0,1,2.48,2.43.56.56,0,0,1-.62.62h-3v.07a1.16,1.16,0,0,0,1.19,1.28,1.48,1.48,0,0,0,1.25-.63.62.62,0,0,1,.47-.21.52.52,0,0,1,.56.52.78.78,0,0,1-.1.35,2.37,2.37,0,0,1-2.17,1A2.43,2.43,0,0,1,164.34,763Zm3.64-.57a1.08,1.08,0,0,0-1.09-1.13,1.13,1.13,0,0,0-1.13,1.13Z" transform="translate(-105.34 -85.04)"/><path class="cls-7" d="M170.08,765v-4a.65.65,0,0,1,.69-.72.68.68,0,0,1,.72.72v.3h0a1.61,1.61,0,0,1,1.62-1,1.72,1.72,0,0,1,1.81,2V765a.71.71,0,1,1-1.42,0v-2.43c0-.69-.33-1.08-1-1.08a1,1,0,0,0-1,1.15V765a.67.67,0,0,1-.71.75A.68.68,0,0,1,170.08,765Z" transform="translate(-105.34 -85.04)"/><path class="cls-7" d="M350.85,677.13a1.59,1.59,0,0,1,.1-.47l1.92-5.24a1.17,1.17,0,0,1,2.24,0l1.93,5.25a1.28,1.28,0,0,1,.1.47.69.69,0,0,1-.74.69c-.42,0-.64-.19-.77-.65l-.37-1.11h-2.54l-.37,1.1c-.14.47-.36.66-.75.66A.67.67,0,0,1,350.85,677.13Zm4.07-2.21L354,672h0l-.91,2.89Z" transform="translate(-105.34 -85.04)"/><path class="cls-7" d="M360,677v-5.6a.74.74,0,1,1,1.47,0v5.15H364a.61.61,0,1,1,0,1.22h-3.24A.69.69,0,0,1,360,677Z" transform="translate(-105.34 -85.04)"/><path class="cls-7" d="M365.29,671.11a.76.76,0,1,1,.76.73A.74.74,0,0,1,365.29,671.11Zm0,6v-4a.71.71,0,1,1,1.42,0v4a.71.71,0,1,1-1.42,0Z" transform="translate(-105.34 -85.04)"/><path class="cls-7" d="M367.71,677.09v-4a.65.65,0,0,1,.69-.71.66.66,0,0,1,.71.72v.29h0a1.6,1.6,0,0,1,1.61-1,1.72,1.72,0,0,1,1.82,2v2.74a.72.72,0,1,1-1.43,0v-2.44c0-.68-.32-1.07-1-1.07a1,1,0,0,0-1,1.14v2.37a.72.72,0,1,1-1.43,0Z" transform="translate(-105.34 -85.04)"/><path class="cls-7" d="M373.51,677.09v-5.77a.71.71,0,1,1,1.42,0v3.25h0l1.9-1.9a.73.73,0,0,1,.56-.28.61.61,0,0,1,.64.62.66.66,0,0,1-.27.53l-1.33,1.26,1.46,1.86a.82.82,0,0,1,.2.53.63.63,0,0,1-.68.64.76.76,0,0,1-.7-.44l-1.34-1.78-.46.42v1.06a.71.71,0,1,1-1.42,0Z" transform="translate(-105.34 -85.04)"/><path class="cls-7" d="M518,390.46l-1.47-5.33a2.4,2.4,0,0,1-.07-.49.64.64,0,0,1,.72-.66.68.68,0,0,1,.71.63l1.06,4.57h0l1.18-4.54a.76.76,0,0,1,1.51,0l1.19,4.55h0l1-4.57a.69.69,0,0,1,.71-.63.65.65,0,0,1,.73.66,2,2,0,0,1-.08.49l-1.47,5.34c-.15.52-.4.75-.86.75s-.73-.22-.87-.75l-1.17-4.16h0l-1.16,4.16c-.14.52-.41.75-.87.75S518.1,391,518,390.46Z" transform="translate(-105.34 -85.04)"/><path class="cls-7" d="M526.14,384.5a.73.73,0,0,1,.76-.73.74.74,0,0,1,.77.73.75.75,0,0,1-.77.74A.74.74,0,0,1,526.14,384.5Zm.05,6v-4a.67.67,0,0,1,.71-.75.68.68,0,0,1,.72.75v4a.68.68,0,0,1-.72.75A.67.67,0,0,1,526.19,390.48Z" transform="translate(-105.34 -85.04)"/><path class="cls-7" d="M528.56,390.48v-4a.65.65,0,0,1,.69-.72.68.68,0,0,1,.72.72v.3h0a1.59,1.59,0,0,1,1.61-1,1.72,1.72,0,0,1,1.81,2v2.73a.71.71,0,1,1-1.42,0v-2.43c0-.69-.33-1.08-1-1.08a1,1,0,0,0-1,1.15v2.36a.67.67,0,0,1-.71.75A.68.68,0,0,1,528.56,390.48Z" transform="translate(-105.34 -85.04)"/><path class="cls-7" d="M534.14,388.5c0-1.66.83-2.69,2.14-2.69a1.69,1.69,0,0,1,1.6,1h0v-2.07a.71.71,0,1,1,1.42,0v5.78a.71.71,0,1,1-1.42,0v-.3h0a1.64,1.64,0,0,1-1.61,1C535,391.21,534.14,390.17,534.14,388.5Zm3.78,0c0-1-.46-1.56-1.17-1.56s-1.15.6-1.15,1.56.44,1.55,1.15,1.55S537.92,389.46,537.92,388.51Z" transform="translate(-105.34 -85.04)"/><path class="cls-7" d="M540.09,388.5a2.6,2.6,0,1,1,2.6,2.74A2.48,2.48,0,0,1,540.09,388.5Zm3.74,0c0-1-.45-1.64-1.14-1.64s-1.15.6-1.15,1.64.44,1.64,1.15,1.64S543.83,389.56,543.83,388.51Z" transform="translate(-105.34 -85.04)"/><path class="cls-7" d="M546.82,390.48l-1.06-3.65a1.58,1.58,0,0,1-.08-.44.63.63,0,0,1,.69-.61.66.66,0,0,1,.67.61l.78,3.38h0l.81-3.33a.81.81,0,0,1,1.6,0l.81,3.33h0l.78-3.39a.66.66,0,0,1,.66-.6.62.62,0,0,1,.68.61,1.59,1.59,0,0,1-.08.43l-1.06,3.65a.86.86,0,0,1-.91.76.84.84,0,0,1-.92-.76l-.8-3.05h0l-.79,3.06a.84.84,0,0,1-.91.75C547.23,391.23,547,391,546.82,390.48Z" transform="translate(-105.34 -85.04)"/><path class="cls-7" d="M654.77,371.09c0-2.26,1.29-3.62,3.36-3.62a3,3,0,0,1,2.81,1.5,1,1,0,0,1,.1.45.6.6,0,0,1-.64.63.77.77,0,0,1-.71-.43,1.66,1.66,0,0,0-1.56-.93c-1.16,0-1.86.88-1.86,2.38s.75,2.46,1.92,2.46a1.52,1.52,0,0,0,1.66-1.46V372h-1a.54.54,0,1,1,0-1.07h1.72a.69.69,0,0,1,.74.77v.1a2.84,2.84,0,0,1-3.13,3C656.06,374.75,654.77,373.38,654.77,371.09Z" transform="translate(-105.34 -85.04)"/><path class="cls-7" d="M662.14,374v-4a.66.66,0,0,1,.69-.72.65.65,0,0,1,.67.72v.34h0a1.15,1.15,0,0,1,1.09-1,.64.64,0,0,1,.44.13.62.62,0,0,1,.21.53.64.64,0,0,1-.21.51.9.9,0,0,1-.62.18c-.65,0-.88.38-.88,1V374a.71.71,0,1,1-1.42,0Z" transform="translate(-105.34 -85.04)"/><path class="cls-7" d="M665.45,373.13c0-.95.73-1.5,2-1.58l1.32-.08v-.35c0-.48-.34-.77-.88-.77a1.16,1.16,0,0,0-1,.55.69.69,0,0,1-.56.27.56.56,0,0,1-.6-.55.76.76,0,0,1,.08-.32c.24-.63,1.08-1,2.16-1,1.35,0,2.22.69,2.22,1.75v3a.65.65,0,0,1-.69.72.64.64,0,0,1-.69-.64v-.27h0a1.79,1.79,0,0,1-1.6.89A1.62,1.62,0,0,1,665.45,373.13Zm3.36-.41v-.39l-1.1.07c-.54,0-.84.28-.84.65s.32.64.8.64A1,1,0,0,0,668.81,372.72Z" transform="translate(-105.34 -85.04)"/><path class="cls-7" d="M671,373.7a.85.85,0,0,1,0-.26.54.54,0,0,1,.57-.55.8.8,0,0,1,.62.32,1.28,1.28,0,0,0,1.15.54c.51,0,.85-.22.85-.57s-.18-.43-.69-.54l-.88-.19c-1-.22-1.54-.74-1.54-1.52,0-1,.86-1.64,2.22-1.64a2,2,0,0,1,2,1.08.76.76,0,0,1,0,.21c0,.29-.18.49-.55.49a.67.67,0,0,1-.51-.22,1.23,1.23,0,0,0-1-.56c-.48,0-.82.23-.82.56s.21.46.73.57l.86.19c1.12.23,1.58.64,1.58,1.42,0,1-.94,1.72-2.32,1.72C672.06,374.75,671.26,374.32,671,373.7Z" transform="translate(-105.34 -85.04)"/><path class="cls-7" d="M676.16,373.7a.85.85,0,0,1,0-.26.54.54,0,0,1,.57-.55.8.8,0,0,1,.62.32,1.29,1.29,0,0,0,1.15.54c.51,0,.85-.22.85-.57s-.18-.43-.69-.54l-.88-.19c-1-.22-1.54-.74-1.54-1.52,0-1,.86-1.64,2.22-1.64a2,2,0,0,1,2.05,1.08.76.76,0,0,1,0,.21.47.47,0,0,1-.54.49.69.69,0,0,1-.52-.22,1.23,1.23,0,0,0-1-.56c-.48,0-.82.23-.82.56s.21.46.73.57l.87.19c1.11.23,1.57.64,1.57,1.42,0,1-.94,1.72-2.32,1.72C677.21,374.75,676.41,374.32,676.16,373.7Z" transform="translate(-105.34 -85.04)"/><path class="cls-7" d="M529.18,514.32v-5.59a.87.87,0,0,1,1-1,1,1,0,0,1,1,.76l1.75,4.33h0l1.74-4.33a1,1,0,0,1,1-.76.87.87,0,0,1,.95,1v5.59a.66.66,0,1,1-1.32,0v-4.16h0l-1.75,4.27a.62.62,0,0,1-.63.45.64.64,0,0,1-.64-.45l-1.74-4.27h0v4.16a.66.66,0,1,1-1.31,0Z" transform="translate(-105.34 -85.04)"/><path class="cls-7" d="M537.66,508.3a.75.75,0,0,1,.77-.74.74.74,0,1,1,0,1.48A.75.75,0,0,1,537.66,508.3Zm.05,6v-4a.72.72,0,1,1,1.43,0v4a.72.72,0,1,1-1.43,0Z" transform="translate(-105.34 -85.04)"/><path class="cls-7" d="M539.89,512.29c0-1.66.83-2.69,2.15-2.69a1.68,1.68,0,0,1,1.59,1h0v-2.07a.67.67,0,0,1,.72-.74.67.67,0,0,1,.71.74v5.79a.66.66,0,0,1-.71.72.67.67,0,0,1-.72-.72V514h0a1.65,1.65,0,0,1-1.61,1C540.72,515,539.89,514,539.89,512.29Zm3.78,0c0-.95-.45-1.56-1.16-1.56s-1.15.6-1.15,1.56.43,1.55,1.15,1.55S543.67,513.26,543.67,512.3Z" transform="translate(-105.34 -85.04)"/><path class="cls-7" d="M388.58,590a1.32,1.32,0,0,1,.1-.46l1.92-5.24a1.17,1.17,0,0,1,2.24,0l1.93,5.25a1.24,1.24,0,0,1,.09.46.69.69,0,0,1-.73.7c-.42,0-.64-.19-.77-.65l-.37-1.11h-2.55l-.37,1.09c-.13.47-.35.67-.74.67A.68.68,0,0,1,388.58,590Zm4.07-2.21-.94-2.88h0l-.91,2.88Z" transform="translate(-105.34 -85.04)"/><path class="cls-7" d="M397.64,589.36a1.1,1.1,0,0,1-.08-.4.62.62,0,0,1,.65-.65.7.7,0,0,1,.68.43,1.46,1.46,0,0,0,1.46.79c.79,0,1.32-.38,1.32-.9s-.33-.73-1.21-.91l-.75-.15c-1.4-.28-2.09-1-2.09-2,0-1.29,1.12-2.14,2.69-2.14a2.49,2.49,0,0,1,2.57,1.46.8.8,0,0,1,.05.32.58.58,0,0,1-.63.6.74.74,0,0,1-.7-.44,1.27,1.27,0,0,0-1.29-.75c-.73,0-1.21.34-1.21.86s.33.7,1.17.87l.74.15c1.49.3,2.14.9,2.14,2,0,1.37-1.08,2.24-2.84,2.24C398.86,590.71,397.92,590.13,397.64,589.36Z" transform="translate(-105.34 -85.04)"/><path class="cls-7" d="M404,590v-5.79a.7.7,0,1,1,1.4,0v2.12h0a1.67,1.67,0,0,1,1.65-1,1.75,1.75,0,0,1,1.82,2V590a.71.71,0,1,1-1.42,0v-2.43c0-.68-.34-1.09-1-1.09a1,1,0,0,0-1.07,1.17V590a.72.72,0,1,1-1.43,0Z" transform="translate(-105.34 -85.04)"/><path class="cls-7" d="M409.58,588a2.6,2.6,0,1,1,2.59,2.74A2.48,2.48,0,0,1,409.58,588Zm3.74,0c0-1-.45-1.64-1.15-1.64s-1.14.6-1.14,1.64.44,1.64,1.14,1.64S413.32,589,413.32,588Z" transform="translate(-105.34 -85.04)"/><path class="cls-7" d="M415.5,590v-4a.66.66,0,0,1,.69-.72.65.65,0,0,1,.67.72v.34h0a1.15,1.15,0,0,1,1.09-1,.64.64,0,0,1,.44.13.62.62,0,0,1,.21.53.64.64,0,0,1-.21.51,1,1,0,0,1-.62.19c-.65,0-.88.37-.88,1V590a.71.71,0,1,1-1.42,0Z" transform="translate(-105.34 -85.04)"/><path class="cls-7" d="M419.52,586.44h-.28a.54.54,0,1,1,0-1.08h.28v-.58a.71.71,0,1,1,1.42,0v.58h.51a.54.54,0,1,1,0,1.08h-.51v2.5c0,.37.13.53.44.55h.09c.35,0,.54.19.54.52s-.41.63-1,.63H421a1.25,1.25,0,0,1-1.43-1.39Z" transform="translate(-105.34 -85.04)"/><path class="cls-7" d="M384.72,428a1.65,1.65,0,0,1,.1-.47l1.92-5.24a1.17,1.17,0,0,1,2.24,0l1.93,5.25a1.28,1.28,0,0,1,.1.47.69.69,0,0,1-.74.69c-.42,0-.63-.19-.77-.65l-.37-1.11h-2.54l-.37,1.1c-.14.47-.36.66-.75.66A.67.67,0,0,1,384.72,428Zm4.07-2.21-.93-2.89h0l-.91,2.89Z" transform="translate(-105.34 -85.04)"/><path class="cls-7" d="M393.88,428V422.4a.88.88,0,0,1,.95-1,1,1,0,0,1,1,.77l1.75,4.33h0l1.74-4.33a1,1,0,0,1,1-.77.88.88,0,0,1,.95,1V428a.66.66,0,1,1-1.31,0v-4.16h0l-1.75,4.26a.61.61,0,0,1-.63.45.64.64,0,0,1-.64-.44l-1.74-4.27h0V428a.66.66,0,1,1-1.31,0Z" transform="translate(-105.34 -85.04)"/><path class="cls-7" d="M402.08,427.08c0-.95.73-1.5,2-1.58l1.32-.08v-.34c0-.49-.35-.77-.88-.77a1.15,1.15,0,0,0-1,.55.73.73,0,0,1-.56.26.55.55,0,0,1-.6-.55.74.74,0,0,1,.07-.32,2.22,2.22,0,0,1,2.17-1c1.34,0,2.22.69,2.22,1.75v3a.65.65,0,0,1-.7.72.63.63,0,0,1-.68-.63v-.27h0a1.82,1.82,0,0,1-1.6.88A1.61,1.61,0,0,1,402.08,427.08Zm3.36-.41v-.38l-1.11.07c-.53,0-.83.27-.83.65s.32.63.8.63A1,1,0,0,0,405.44,426.67Z" transform="translate(-105.34 -85.04)"/><path class="cls-7" d="M407.73,422a.76.76,0,1,1,.76.73A.74.74,0,0,1,407.73,422Zm0,6v-4a.67.67,0,0,1,.71-.74.68.68,0,0,1,.72.74v4a.68.68,0,0,1-.72.74A.67.67,0,0,1,407.78,428Z" transform="translate(-105.34 -85.04)"/><path class="cls-7" d="M410.15,428v-4a.65.65,0,0,1,.69-.71.66.66,0,0,1,.71.72v.29h0a1.6,1.6,0,0,1,1.61-1,1.72,1.72,0,0,1,1.82,1.95V428a.71.71,0,1,1-1.42,0v-2.44c0-.68-.33-1.07-1-1.07a1,1,0,0,0-1,1.14V428a.67.67,0,0,1-.71.74A.67.67,0,0,1,410.15,428Z" transform="translate(-105.34 -85.04)"/><path class="cls-8" d="M385.18,959.56V952.4a.9.9,0,0,1,1-1h2.53c2.75,0,4.37,1.64,4.37,4.55s-1.62,4.61-4.37,4.61h-2.53A.9.9,0,0,1,385.18,959.56Zm3.27-.58c1.71,0,2.64-1.05,2.64-3s-1-3-2.64-3h-1.36v6Z" transform="translate(-105.34 -85.04)"/><path class="cls-8" d="M393.87,957.19c0-2.19,1.27-3.58,3.29-3.58a3.05,3.05,0,0,1,3.22,3.17.74.74,0,0,1-.81.81h-3.88v.08a1.51,1.51,0,0,0,1.55,1.67,1.92,1.92,0,0,0,1.62-.82.77.77,0,0,1,.61-.27.66.66,0,0,1,.72.67.92.92,0,0,1-.13.46,3.07,3.07,0,0,1-2.82,1.33C395.12,960.71,393.87,959.39,393.87,957.19Zm4.73-.74a1.41,1.41,0,0,0-1.43-1.47,1.46,1.46,0,0,0-1.46,1.47Z" transform="translate(-105.34 -85.04)"/><path class="cls-8" d="M401.83,959.73v-4.58h-.36a.68.68,0,0,1,0-1.36h.36v-.51a1.72,1.72,0,0,1,1.94-2c1,0,1.4.31,1.4.75a.47.47,0,0,1-.38.49l-.35.05c-.58,0-.8.25-.8.75v.43h.78a.68.68,0,0,1,0,1.36h-.74v4.58a.93.93,0,1,1-1.85,0Z" transform="translate(-105.34 -85.04)"/><path class="cls-8" d="M405.52,957.19c0-2.19,1.28-3.58,3.29-3.58a3,3,0,0,1,3.22,3.17.73.73,0,0,1-.8.81h-3.89v.08a1.51,1.51,0,0,0,1.55,1.67,1.94,1.94,0,0,0,1.63-.82.75.75,0,0,1,.6-.27.66.66,0,0,1,.72.67,1,1,0,0,1-.12.46,3.08,3.08,0,0,1-2.82,1.33A3.17,3.17,0,0,1,405.52,957.19Zm4.73-.74a1.41,1.41,0,0,0-1.42-1.47,1.48,1.48,0,0,0-1.47,1.47Z" transform="translate(-105.34 -85.04)"/><path class="cls-8" d="M413,959.73v-5.18a.84.84,0,0,1,.89-.93.87.87,0,0,1,.93.94v.38h0a2.07,2.07,0,0,1,2.09-1.31,2.24,2.24,0,0,1,2.36,2.55v3.55a.93.93,0,1,1-1.85,0v-3.17c0-.89-.42-1.39-1.25-1.39a1.35,1.35,0,0,0-1.36,1.49v3.07a.93.93,0,1,1-1.85,0Z" transform="translate(-105.34 -85.04)"/><path class="cls-8" d="M420.23,957.15c0-2.16,1.08-3.5,2.79-3.5a2.18,2.18,0,0,1,2.07,1.28h0v-2.7a.93.93,0,1,1,1.85,0v7.53a.93.93,0,1,1-1.85,0v-.4h0a2.13,2.13,0,0,1-2.1,1.31C421.3,960.67,420.23,959.32,420.23,957.15Zm4.91,0c0-1.24-.59-2-1.51-2s-1.5.79-1.5,2,.57,2,1.5,2S425.14,958.4,425.14,957.16Z" transform="translate(-105.34 -85.04)"/><path class="cls-8" d="M428,957.19c0-2.19,1.28-3.58,3.29-3.58a3.06,3.06,0,0,1,3.23,3.17.74.74,0,0,1-.81.81h-3.89v.08a1.51,1.51,0,0,0,1.55,1.67,1.94,1.94,0,0,0,1.63-.82.76.76,0,0,1,.6-.27.67.67,0,0,1,.73.67,1,1,0,0,1-.13.46,3.08,3.08,0,0,1-2.82,1.33A3.17,3.17,0,0,1,428,957.19Zm4.73-.74a1.41,1.41,0,0,0-1.42-1.47,1.48,1.48,0,0,0-1.47,1.47Z" transform="translate(-105.34 -85.04)"/><path class="cls-8" d="M435.44,959.73v-5.18a.89.89,0,1,1,1.77,0V955h0a1.49,1.49,0,0,1,1.41-1.35.89.89,0,0,1,.58.17.82.82,0,0,1,.27.69.81.81,0,0,1-.27.66,1.17,1.17,0,0,1-.81.24c-.84,0-1.14.49-1.14,1.3v3a.93.93,0,1,1-1.85,0Z" transform="translate(-105.34 -85.04)"/><path class="cls-8" d="M442.78,959a1.39,1.39,0,0,1-.11-.52.8.8,0,0,1,.85-.84.92.92,0,0,1,.88.56,1.89,1.89,0,0,0,1.89,1c1,0,1.73-.49,1.73-1.17s-.43-.94-1.58-1.18l-1-.19c-1.83-.36-2.73-1.23-2.73-2.6,0-1.67,1.46-2.79,3.5-2.79,1.68,0,2.94.71,3.35,1.9a1.38,1.38,0,0,1,.07.43.76.76,0,0,1-.82.77,1,1,0,0,1-.92-.57,1.65,1.65,0,0,0-1.68-1c-.94,0-1.57.45-1.57,1.12s.44.91,1.52,1.13l1,.2c1.94.38,2.78,1.16,2.78,2.55,0,1.79-1.41,2.92-3.69,2.92C444.36,960.71,443.14,960,442.78,959Z" transform="translate(-105.34 -85.04)"/><path class="cls-8" d="M451,962v-7.45a.91.91,0,1,1,1.82,0V955h0a2.22,2.22,0,0,1,2.11-1.3c1.73,0,2.79,1.31,2.79,3.51s-1.06,3.51-2.76,3.51a2.22,2.22,0,0,1-2.11-1.25h0V962a.93.93,0,1,1-1.85,0Zm4.86-4.86c0-1.23-.59-2-1.51-2s-1.51.81-1.51,2,.6,2,1.51,2S455.81,958.4,455.81,957.16Z" transform="translate(-105.34 -85.04)"/><path class="cls-8" d="M458.39,958.61c0-1.24.95-2,2.65-2.06l1.72-.1V956c0-.64-.45-1-1.14-1a1.48,1.48,0,0,0-1.32.71,1,1,0,0,1-.74.35.73.73,0,0,1-.78-.72,1,1,0,0,1,.1-.41c.32-.82,1.41-1.32,2.82-1.32,1.74,0,2.88.9,2.88,2.27v3.88a.85.85,0,0,1-.9.94.82.82,0,0,1-.89-.83v-.35h0a2.34,2.34,0,0,1-2.08,1.15A2.11,2.11,0,0,1,458.39,958.61Zm4.37-.54v-.5l-1.44.09c-.69.05-1.08.36-1.08.85s.42.82,1,.82A1.37,1.37,0,0,0,462.76,958.07Z" transform="translate(-105.34 -85.04)"/><path class="cls-8" d="M466.85,959.72,465.48,955a1.9,1.9,0,0,1-.1-.57.81.81,0,0,1,.89-.79.85.85,0,0,1,.87.79l1,4.39h0l1.06-4.33a1.06,1.06,0,0,1,2.08,0l1.06,4.33h0l1-4.41a.85.85,0,0,1,.86-.77.8.8,0,0,1,.87.79,1.89,1.89,0,0,1-.1.56l-1.37,4.75a1.13,1.13,0,0,1-1.19,1,1.1,1.1,0,0,1-1.2-1l-1-4h0l-1,4a1.08,1.08,0,0,1-1.18,1C467.39,960.7,467.05,960.4,466.85,959.72Z" transform="translate(-105.34 -85.04)"/><path class="cls-8" d="M476,959.73v-5.18a.84.84,0,0,1,.9-.93.86.86,0,0,1,.92.94v.38h0a2.08,2.08,0,0,1,2.1-1.31,2.24,2.24,0,0,1,2.36,2.55v3.55a.93.93,0,1,1-1.86,0v-3.17c0-.89-.41-1.39-1.25-1.39a1.34,1.34,0,0,0-1.35,1.49v3.07a.93.93,0,1,1-1.86,0Z" transform="translate(-105.34 -85.04)"/><path class="cls-7" d="M932.46,709.77v-5.61a.69.69,0,0,1,.74-.77h2.12a2.31,2.31,0,0,1,2.45,2.42,2.35,2.35,0,0,1-2.52,2.41h-1.32v1.55a.74.74,0,1,1-1.47,0Zm2.47-2.7a1.26,1.26,0,1,0,0-2.51h-1v2.51Z" transform="translate(-105.34 -85.04)"/><path class="cls-7" d="M938.55,709.8V704a.71.71,0,1,1,1.42,0v5.76a.71.71,0,1,1-1.42,0Z" transform="translate(-105.34 -85.04)"/><path class="cls-7" d="M940.73,708.94c0-1,.73-1.51,2-1.58l1.32-.08v-.35c0-.49-.34-.77-.88-.77a1.16,1.16,0,0,0-1,.55.68.68,0,0,1-.56.26.55.55,0,0,1-.6-.54.69.69,0,0,1,.08-.32,2.18,2.18,0,0,1,2.16-1c1.35,0,2.22.7,2.22,1.75v3a.65.65,0,0,1-.69.71.63.63,0,0,1-.69-.63v-.27h0a1.79,1.79,0,0,1-1.6.88A1.62,1.62,0,0,1,940.73,708.94Zm3.36-.42v-.38l-1.1.07c-.54,0-.84.28-.84.65s.32.63.8.63A1,1,0,0,0,944.09,708.52Z" transform="translate(-105.34 -85.04)"/><path class="cls-7" d="M946.79,706.28h-.27a.54.54,0,1,1,0-1.07h.27v-.58a.71.71,0,1,1,1.42,0v.58h.51a.54.54,0,1,1,0,1.07h-.51v2.51c0,.37.13.52.44.55h.09c.35,0,.54.18.54.52s-.41.63-1,.63h0a1.25,1.25,0,0,1-1.43-1.4Z" transform="translate(-105.34 -85.04)"/><path class="cls-7" d="M865.21,492.65c0-2.27,1.29-3.65,3.32-3.65a2.94,2.94,0,0,1,2.82,1.61,1.14,1.14,0,0,1,.15.55.6.6,0,0,1-.65.63.7.7,0,0,1-.7-.49,1.7,1.7,0,0,0-1.61-1.07c-1.11,0-1.83.93-1.83,2.41s.71,2.43,1.84,2.43a1.65,1.65,0,0,0,1.62-1,.65.65,0,0,1,.64-.47.64.64,0,0,1,.69.66,1.24,1.24,0,0,1-.11.49,2.93,2.93,0,0,1-2.82,1.58C866.48,496.29,865.21,494.92,865.21,492.65Z" transform="translate(-105.34 -85.04)"/><path class="cls-7" d="M874.53,495.4v-5.6a.74.74,0,1,1,1.47,0V495h2.5a.61.61,0,1,1,0,1.22h-3.23A.69.69,0,0,1,874.53,495.4Z" transform="translate(-105.34 -85.04)"/><path class="cls-7" d="M879.57,493.55a2.6,2.6,0,1,1,2.6,2.73A2.48,2.48,0,0,1,879.57,493.55Zm3.74,0c0-1-.45-1.65-1.14-1.65s-1.15.61-1.15,1.65.44,1.64,1.15,1.64S883.31,494.6,883.31,493.56Z" transform="translate(-105.34 -85.04)"/><path class="cls-7" d="M885.49,495.53v-4a.65.65,0,0,1,.69-.72.66.66,0,0,1,.71.72v.3h0a1.61,1.61,0,0,1,1.61-1,1.72,1.72,0,0,1,1.82,2v2.73a.72.72,0,1,1-1.43,0V493.1c0-.69-.32-1.08-1-1.08a1,1,0,0,0-1,1.15v2.36a.67.67,0,0,1-.71.74A.67.67,0,0,1,885.49,495.53Z" transform="translate(-105.34 -85.04)"/><path class="cls-7" d="M891.39,497.18a.76.76,0,0,1-.11-.4.53.53,0,0,1,.58-.52.68.68,0,0,1,.5.21,1.77,1.77,0,0,0,1.23.57c.78,0,1.24-.43,1.24-1.08v-.84h0a1.71,1.71,0,0,1-1.61.94c-1.31,0-2.13-1-2.13-2.59s.8-2.62,2.15-2.62a1.7,1.7,0,0,1,1.6,1h0v-.29a.67.67,0,0,1,.72-.72.65.65,0,0,1,.7.72V496c0,1.36-1,2.18-2.67,2.17A2.52,2.52,0,0,1,891.39,497.18Zm3.45-3.69c0-.95-.46-1.55-1.17-1.55s-1.15.59-1.15,1.54S893,495,893.67,495,894.84,494.43,894.84,493.49Z" transform="translate(-105.34 -85.04)"/><path class="cls-7" d="M776.85,709.67v-5.6a.74.74,0,1,1,1.47,0v5.15h2.5a.61.61,0,1,1,0,1.22h-3.24A.68.68,0,0,1,776.85,709.67Z" transform="translate(-105.34 -85.04)"/><path class="cls-7" d="M781.89,707.82a2.6,2.6,0,1,1,2.59,2.73A2.49,2.49,0,0,1,781.89,707.82Zm3.74,0c0-1-.45-1.64-1.15-1.64s-1.14.6-1.14,1.64.44,1.64,1.14,1.64S785.63,708.87,785.63,707.82Z" transform="translate(-105.34 -85.04)"/><path class="cls-7" d="M788,711.45a.78.78,0,0,1-.11-.4.52.52,0,0,1,.58-.52.69.69,0,0,1,.49.2,1.72,1.72,0,0,0,1.23.57c.78,0,1.24-.42,1.24-1.07v-.84h0a1.69,1.69,0,0,1-1.61.94c-1.3,0-2.12-1-2.12-2.59s.8-2.62,2.15-2.62a1.69,1.69,0,0,1,1.59,1h0v-.29a.67.67,0,0,1,.72-.72.66.66,0,0,1,.71.72v4.42c0,1.36-1,2.18-2.67,2.17A2.53,2.53,0,0,1,788,711.45Zm3.45-3.69c0-1-.46-1.55-1.17-1.55s-1.15.59-1.15,1.54.44,1.52,1.15,1.52S791.4,708.7,791.4,707.76Z" transform="translate(-105.34 -85.04)"/><path class="cls-7" d="M793.63,709.51a.7.7,0,0,1-.06-.27.54.54,0,0,1,.58-.54.81.81,0,0,1,.62.32,1.26,1.26,0,0,0,1.14.53c.52,0,.85-.21.85-.56s-.18-.43-.69-.55l-.88-.18c-1-.22-1.54-.74-1.54-1.52,0-1,.86-1.65,2.22-1.65a2,2,0,0,1,2,1.09.78.78,0,0,1,0,.21c0,.29-.18.49-.55.49a.69.69,0,0,1-.52-.22,1.22,1.22,0,0,0-1-.56c-.49,0-.82.22-.82.56s.2.46.72.57l.87.18c1.11.24,1.57.65,1.57,1.43,0,1-.93,1.71-2.31,1.71C794.67,710.55,793.87,710.12,793.63,709.51Z" transform="translate(-105.34 -85.04)"/><path class="cls-7" d="M218.48,471.88a1.37,1.37,0,0,1,.1-.47l1.92-5.24a1.17,1.17,0,0,1,2.24,0l1.93,5.24a1.25,1.25,0,0,1,.09.47.68.68,0,0,1-.73.69c-.42,0-.64-.19-.77-.65l-.37-1.11h-2.55l-.37,1.1c-.13.47-.35.66-.74.66A.67.67,0,0,1,218.48,471.88Zm4.07-2.21-.94-2.89h0l-.91,2.89Z" transform="translate(-105.34 -85.04)"/><path class="cls-7" d="M227.63,471.71v-5.6a.74.74,0,1,1,1.48,0v5.15h2.5a.61.61,0,1,1,0,1.22h-3.24A.69.69,0,0,1,227.63,471.71Z" transform="translate(-105.34 -85.04)"/><path class="cls-7" d="M232.68,469.86a2.59,2.59,0,1,1,2.59,2.73A2.48,2.48,0,0,1,232.68,469.86Zm3.73,0c0-1-.45-1.64-1.14-1.64s-1.15.6-1.15,1.64.45,1.64,1.15,1.64S236.41,470.91,236.41,469.86Z" transform="translate(-105.34 -85.04)"/><path class="cls-7" d="M238.6,471.84v-4a.64.64,0,0,1,.68-.72.67.67,0,0,1,.72.72v.29h0a1.58,1.58,0,0,1,1.61-1,1.72,1.72,0,0,1,1.81,2v2.73a.71.71,0,1,1-1.42,0V469.4c0-.68-.32-1.07-1-1.07a1,1,0,0,0-1,1.15v2.36a.71.71,0,1,1-1.42,0Z" transform="translate(-105.34 -85.04)"/><path class="cls-7" d="M244.49,473.49a.88.88,0,0,1-.1-.4.52.52,0,0,1,.58-.52.7.7,0,0,1,.49.2,1.72,1.72,0,0,0,1.23.57c.78,0,1.24-.42,1.24-1.07v-.84h0a1.69,1.69,0,0,1-1.61.94c-1.3,0-2.12-1-2.12-2.6s.8-2.61,2.15-2.61a1.69,1.69,0,0,1,1.59,1h0v-.29a.67.67,0,0,1,.72-.72.66.66,0,0,1,.71.72v4.41c0,1.37-1,2.19-2.67,2.18A2.57,2.57,0,0,1,244.49,473.49Zm3.46-3.7c0-.94-.46-1.54-1.18-1.54s-1.14.59-1.14,1.54.44,1.52,1.14,1.52S248,470.74,248,469.79Z" transform="translate(-105.34 -85.04)"/><path class="cls-7" d="M400.49,319a1.32,1.32,0,0,1,.1-.46l1.92-5.24a1.17,1.17,0,0,1,2.24,0l1.93,5.25a1.24,1.24,0,0,1,.09.46.69.69,0,0,1-.73.7c-.42,0-.64-.19-.77-.65l-.37-1.12h-2.55L402,319c-.13.47-.35.67-.74.67A.68.68,0,0,1,400.49,319Zm4.07-2.21-.94-2.88h0l-.91,2.88Z" transform="translate(-105.34 -85.04)"/><path class="cls-7" d="M409.64,318.84v-5.6a.74.74,0,1,1,1.48,0v5.15h2.5a.61.61,0,1,1,0,1.22h-3.24A.69.69,0,0,1,409.64,318.84Z" transform="translate(-105.34 -85.04)"/><path class="cls-7" d="M414.69,317a2.59,2.59,0,1,1,2.59,2.74A2.47,2.47,0,0,1,414.69,317Zm3.73,0c0-1-.45-1.64-1.14-1.64s-1.15.6-1.15,1.64.45,1.64,1.15,1.64S418.42,318.05,418.42,317Z" transform="translate(-105.34 -85.04)"/><path class="cls-7" d="M420.64,319v-5.78a.72.72,0,1,1,1.43,0v2.08h0a1.69,1.69,0,0,1,1.61-1c1.33,0,2.13,1,2.13,2.7s-.8,2.7-2.12,2.7a1.72,1.72,0,0,1-1.64-1h0V319a.67.67,0,0,1-.71.73A.66.66,0,0,1,420.64,319Zm3.74-2c0-.95-.44-1.56-1.15-1.56s-1.17.62-1.17,1.56.48,1.55,1.17,1.55S424.38,318,424.38,317Z" transform="translate(-105.34 -85.04)"/><path class="cls-7" d="M426.61,319v-5.78a.68.68,0,0,1,.72-.75.67.67,0,0,1,.71.75v2.08h0a1.7,1.7,0,0,1,1.61-1c1.33,0,2.13,1,2.13,2.7s-.8,2.7-2.12,2.7a1.72,1.72,0,0,1-1.64-1h0V319a.71.71,0,1,1-1.41,0Zm3.74-2c0-.95-.44-1.56-1.15-1.56S428,316.06,428,317s.48,1.55,1.17,1.55S430.35,318,430.35,317Z" transform="translate(-105.34 -85.04)"/><path class="cls-7" d="M432.35,320.88c0-.28.2-.46.53-.46h.25a.72.72,0,0,0,.68-.47l.08-.19-1.67-4.4a1.22,1.22,0,0,1-.09-.42.69.69,0,0,1,.74-.67c.38,0,.57.16.69.58l1.14,3.62h0l1.14-3.63c.12-.4.32-.57.69-.57a.64.64,0,0,1,.69.65,1.4,1.4,0,0,1-.08.42l-1.6,4.36c-.49,1.36-1.1,1.85-2.24,1.85C432.69,321.55,432.35,321.31,432.35,320.88Z" transform="translate(-105.34 -85.04)"/><path class="cls-7" d="M650.59,573.06c0-2.26,1.29-3.62,3.36-3.62a3,3,0,0,1,2.81,1.5,1,1,0,0,1,.11.45.6.6,0,0,1-.65.63.77.77,0,0,1-.71-.43,1.66,1.66,0,0,0-1.55-.93c-1.17,0-1.87.88-1.87,2.38s.75,2.46,1.92,2.46a1.52,1.52,0,0,0,1.66-1.46v-.12h-1a.54.54,0,1,1,0-1.07h1.72a.69.69,0,0,1,.74.77v.1a2.84,2.84,0,0,1-3.13,3C651.88,576.72,650.59,575.35,650.59,573.06Z" transform="translate(-105.34 -85.04)"/><path class="cls-7" d="M657.71,575.1c0-1,.73-1.5,2-1.58l1.31-.08v-.35c0-.49-.34-.77-.87-.77a1.15,1.15,0,0,0-1,.55.72.72,0,0,1-.57.27.55.55,0,0,1-.59-.55.74.74,0,0,1,.07-.32,2.2,2.2,0,0,1,2.17-1c1.34,0,2.22.69,2.22,1.75v3a.66.66,0,0,1-.7.72.63.63,0,0,1-.68-.64v-.27h0a1.81,1.81,0,0,1-1.6.89A1.62,1.62,0,0,1,657.71,575.1Zm3.35-.41v-.39l-1.1.07c-.53,0-.83.28-.83.65s.32.64.8.64A1,1,0,0,0,661.06,574.69Z" transform="translate(-105.34 -85.04)"/><path class="cls-7" d="M663.38,576v-4a.69.69,0,1,1,1.37,0v.34h0a1.14,1.14,0,0,1,1.08-1,.67.67,0,0,1,.45.13.62.62,0,0,1,.2.53.63.63,0,0,1-.2.51.92.92,0,0,1-.62.18c-.65,0-.88.38-.88,1V576a.67.67,0,0,1-.71.75A.68.68,0,0,1,663.38,576Z" transform="translate(-105.34 -85.04)"/><path class="cls-7" d="M666.69,575.1c0-1,.74-1.5,2-1.58l1.31-.08v-.35c0-.49-.34-.77-.88-.77a1.14,1.14,0,0,0-1,.55.72.72,0,0,1-.57.27.55.55,0,0,1-.59-.55.74.74,0,0,1,.07-.32c.24-.63,1.08-1,2.17-1,1.34,0,2.22.69,2.22,1.75v3a.66.66,0,0,1-.7.72.63.63,0,0,1-.68-.64v-.27h0a1.81,1.81,0,0,1-1.6.89A1.63,1.63,0,0,1,666.69,575.1Zm3.36-.41v-.39l-1.1.07c-.53,0-.83.28-.83.65s.32.64.8.64A1,1,0,0,0,670.05,574.69Z" transform="translate(-105.34 -85.04)"/><path class="cls-7" d="M672.51,577.61a.73.73,0,0,1-.11-.4.53.53,0,0,1,.58-.52.68.68,0,0,1,.5.21,1.77,1.77,0,0,0,1.23.57c.78,0,1.24-.43,1.24-1.08v-.84h0a1.69,1.69,0,0,1-1.61.94c-1.31,0-2.13-1-2.13-2.59s.8-2.61,2.15-2.61a1.71,1.71,0,0,1,1.6,1h0V572a.71.71,0,1,1,1.42,0v4.42c0,1.36-1,2.18-2.67,2.17A2.52,2.52,0,0,1,672.51,577.61Zm3.45-3.69c0-.94-.46-1.55-1.17-1.55s-1.15.6-1.15,1.54.44,1.52,1.15,1.52S676,574.87,676,573.92Z" transform="translate(-105.34 -85.04)"/><path class="cls-7" d="M678.12,574a2.47,2.47,0,0,1,2.52-2.75,2.35,2.35,0,0,1,2.49,2.43.57.57,0,0,1-.63.62h-3v.07a1.16,1.16,0,0,0,1.19,1.28A1.48,1.48,0,0,0,682,575a.6.6,0,0,1,.46-.21.52.52,0,0,1,.56.52.78.78,0,0,1-.1.35,2.35,2.35,0,0,1-2.17,1A2.43,2.43,0,0,1,678.12,574Zm3.63-.57a1.08,1.08,0,0,0-1.09-1.13,1.13,1.13,0,0,0-1.13,1.13Z" transform="translate(-105.34 -85.04)"/><path class="cls-7" d="M653.87,653l-1.47-5.33a2,2,0,0,1-.08-.49.65.65,0,0,1,.73-.66.67.67,0,0,1,.7.63l1.06,4.57h0l1.19-4.54c.11-.46.34-.66.75-.66a.72.72,0,0,1,.75.65l1.19,4.55h0l1.05-4.57a.7.7,0,0,1,.72-.63.64.64,0,0,1,.72.66,2,2,0,0,1-.07.49L659.71,653c-.14.52-.4.74-.85.74s-.73-.22-.88-.74l-1.17-4.17h0L655.6,653c-.14.51-.4.74-.87.74S654,653.48,653.87,653Z" transform="translate(-105.34 -85.04)"/><path class="cls-7" d="M662.06,647a.76.76,0,1,1,.76.74A.74.74,0,0,1,662.06,647Zm0,6v-4a.72.72,0,1,1,1.43,0v4a.72.72,0,1,1-1.43,0Z" transform="translate(-105.34 -85.04)"/><path class="cls-7" d="M664.48,653v-4a.65.65,0,0,1,.69-.72.66.66,0,0,1,.71.72v.29h0a1.59,1.59,0,0,1,1.61-1,1.73,1.73,0,0,1,1.82,2V653a.67.67,0,0,1-.72.74.67.67,0,0,1-.71-.74v-2.44c0-.68-.32-1.07-1-1.07a1,1,0,0,0-1.05,1.15V653a.71.71,0,1,1-1.42,0Z" transform="translate(-105.34 -85.04)"/><path class="cls-7" d="M670.05,651c0-1.66.83-2.69,2.14-2.69a1.68,1.68,0,0,1,1.6,1h0V647.2a.71.71,0,1,1,1.42,0V653a.66.66,0,0,1-.7.72.67.67,0,0,1-.72-.72v-.3h0a1.64,1.64,0,0,1-1.61,1C670.87,653.69,670.05,652.66,670.05,651Zm3.78,0c0-1-.46-1.56-1.16-1.56s-1.16.61-1.16,1.56.44,1.55,1.16,1.55S673.83,652,673.83,651Z" transform="translate(-105.34 -85.04)"/><path class="cls-7" d="M676,651a2.59,2.59,0,1,1,2.59,2.73A2.48,2.48,0,0,1,676,651Zm3.73,0c0-1-.45-1.64-1.14-1.64s-1.15.6-1.15,1.64.45,1.64,1.15,1.64S679.74,652,679.74,651Z" transform="translate(-105.34 -85.04)"/><path class="cls-7" d="M682.73,653l-1.06-3.64a1.64,1.64,0,0,1-.07-.44.62.62,0,0,1,.69-.61.65.65,0,0,1,.66.6l.78,3.39h0l.81-3.34a.82.82,0,0,1,1.6,0l.82,3.34h0l.78-3.4a.65.65,0,0,1,.66-.59.61.61,0,0,1,.67.6,1.37,1.37,0,0,1-.08.44L688,653a.87.87,0,0,1-.92.75.83.83,0,0,1-.92-.75l-.79-3.05h0l-.79,3.05a.85.85,0,0,1-.92.75C683.14,653.71,682.88,653.48,682.73,653Z" transform="translate(-105.34 -85.04)"/><path class="cls-7" d="M660.42,701.25c0-2.27,1.29-3.64,3.32-3.64a3,3,0,0,1,2.82,1.6,1.2,1.2,0,0,1,.15.55.61.61,0,0,1-.65.64.72.72,0,0,1-.71-.49,1.68,1.68,0,0,0-1.6-1.08c-1.11,0-1.83.93-1.83,2.42s.71,2.43,1.84,2.43a1.64,1.64,0,0,0,1.61-1,.65.65,0,0,1,.65-.46.63.63,0,0,1,.69.66,1.28,1.28,0,0,1-.11.49,3,3,0,0,1-2.82,1.58C661.69,704.9,660.42,703.53,660.42,701.25Z" transform="translate(-105.34 -85.04)"/><path class="cls-7" d="M669.74,704v-5.6a.74.74,0,1,1,1.47,0v5.15h2.5a.61.61,0,1,1,0,1.22h-3.23A.69.69,0,0,1,669.74,704Z" transform="translate(-105.34 -85.04)"/><path class="cls-7" d="M675,698.16a.76.76,0,1,1,.76.73A.74.74,0,0,1,675,698.16Zm.05,6v-4a.67.67,0,0,1,.71-.74.68.68,0,0,1,.72.74v4a.68.68,0,0,1-.72.74A.67.67,0,0,1,675.07,704.14Z" transform="translate(-105.34 -85.04)"/><path class="cls-7" d="M677.44,704.14v-4a.65.65,0,0,1,.69-.71.66.66,0,0,1,.71.72v.29h0a1.61,1.61,0,0,1,1.62-1,1.72,1.72,0,0,1,1.81,1.95v2.74a.71.71,0,1,1-1.42,0V701.7c0-.68-.33-1.07-1-1.07a1,1,0,0,0-1,1.15v2.36a.67.67,0,0,1-.71.74A.67.67,0,0,1,677.44,704.14Z" transform="translate(-105.34 -85.04)"/><path class="cls-7" d="M683.24,704.14v-5.77a.72.72,0,1,1,1.43,0v3.25h0l1.9-1.9a.73.73,0,0,1,.57-.28.61.61,0,0,1,.63.62.63.63,0,0,1-.27.53l-1.33,1.26,1.46,1.86a.82.82,0,0,1,.2.53.63.63,0,0,1-.68.64c-.3,0-.47-.11-.7-.44l-1.34-1.78-.45.42v1.06a.72.72,0,1,1-1.43,0Z" transform="translate(-105.34 -85.04)"/><path class="cls-7" d="M522.26,681.18v-16a2,2,0,0,1,2.13-2.22h6.76c3.84,0,6.24,2,6.24,5.1a4.51,4.51,0,0,1-3.83,4.43v.11a5,5,0,0,1,4.81,4.94c0,3.6-2.7,5.85-7.07,5.85h-6.91A2,2,0,0,1,522.26,681.18Zm7.35-9.7c2.28,0,3.58-1,3.58-2.74s-1.15-2.57-3.15-2.57h-3.51v5.31Zm.6,8.75c2.47,0,3.8-1.05,3.8-3s-1.37-2.93-3.89-2.93h-3.59v5.94Z" transform="translate(-105.34 -85.04)"/><path class="cls-7" d="M879.22,699.76c3.86,0,6.91,1.74,8.18,4.57a3.46,3.46,0,0,1,.33,1.43,1.84,1.84,0,0,1-2,1.9,1.88,1.88,0,0,1-1.88-1.35,4.8,4.8,0,0,0-4.69-3c-3.27,0-5.32,2.69-5.32,7.05s2.08,7,5.31,7a4.89,4.89,0,0,0,4.64-3.13,2.08,2.08,0,0,1,2-1.41,1.75,1.75,0,0,1,1.88,1.84,3.51,3.51,0,0,1-.42,1.6c-1.4,2.94-4.36,4.64-8.18,4.64-5.88,0-9.63-4-9.63-10.56S873.16,699.76,879.22,699.76Z" transform="translate(-105.34 -85.04)"/><path class="cls-7" d="M155.12,793.92v-5.7a.74.74,0,1,1,1.48,0v2.19h3.17v-2.19a.74.74,0,1,1,1.47,0v5.7a.74.74,0,1,1-1.47,0v-2.29H156.6v2.29a.74.74,0,1,1-1.48,0Z" transform="translate(-105.34 -85.04)"/><path class="cls-7" d="M162.1,792a2.47,2.47,0,0,1,2.53-2.75,2.34,2.34,0,0,1,2.48,2.44.56.56,0,0,1-.62.62h-3v.06a1.15,1.15,0,0,0,1.19,1.28A1.48,1.48,0,0,0,166,793a.6.6,0,0,1,.46-.21.52.52,0,0,1,.56.53.74.74,0,0,1-.1.34,2.35,2.35,0,0,1-2.17,1A2.44,2.44,0,0,1,162.1,792Zm3.64-.57a1.08,1.08,0,0,0-1.09-1.13,1.13,1.13,0,0,0-1.13,1.13Z" transform="translate(-105.34 -85.04)"/><path class="cls-7" d="M167.88,794v-5.77a.72.72,0,1,1,1.43,0V794a.72.72,0,1,1-1.43,0Z" transform="translate(-105.34 -85.04)"/><path class="cls-7" d="M170.3,794v-5.77a.68.68,0,0,1,.72-.75.67.67,0,0,1,.71.75V794a.67.67,0,0,1-.71.74A.68.68,0,0,1,170.3,794Z" transform="translate(-105.34 -85.04)"/><path class="cls-7" d="M138.34,700.65c-1.13,0-1.77-.57-2.17-1.93l-1.07-3.18h-7.38l-1.08,3.23c-.38,1.33-1,1.88-2.22,1.88a2,2,0,0,1-2.14-2,3.71,3.71,0,0,1,.27-1.36l5.61-15.21a3.38,3.38,0,0,1,6.48,0l5.58,15.19a4.26,4.26,0,0,1,.29,1.36A2,2,0,0,1,138.34,700.65Zm-4.18-8.43-2.64-8.36h-.1l-2.71,8.36Z" transform="translate(-105.34 -85.04)"/><path class="cls-7" d="M269.69,712.34c0-2.25,1.29-3.62,3.36-3.62a3,3,0,0,1,2.81,1.5,1,1,0,0,1,.1.45.61.61,0,0,1-.64.64.77.77,0,0,1-.71-.43,1.67,1.67,0,0,0-1.56-.94c-1.16,0-1.86.89-1.86,2.39s.74,2.46,1.92,2.46a1.52,1.52,0,0,0,1.66-1.47v-.11h-1a.54.54,0,1,1,0-1.08h1.72a.7.7,0,0,1,.74.77V713a2.85,2.85,0,0,1-3.13,3C271,716,269.69,714.63,269.69,712.34Z" transform="translate(-105.34 -85.04)"/><path class="cls-7" d="M277.06,715.25v-4a.68.68,0,1,1,1.36,0v.34h0a1.15,1.15,0,0,1,1.09-1,.7.7,0,0,1,.44.13.64.64,0,0,1,.21.53.61.61,0,0,1-.21.51,1,1,0,0,1-.62.19c-.65,0-.88.38-.88,1v2.32a.71.71,0,1,1-1.42,0Z" transform="translate(-105.34 -85.04)"/><path class="cls-7" d="M280.37,714.39c0-1,.73-1.51,2-1.59l1.32-.07v-.35c0-.49-.35-.77-.88-.77a1.15,1.15,0,0,0-1,.55.71.71,0,0,1-.56.26.55.55,0,0,1-.6-.54.75.75,0,0,1,.07-.33,2.22,2.22,0,0,1,2.17-1c1.34,0,2.22.7,2.22,1.75v3a.65.65,0,0,1-.7.72.63.63,0,0,1-.68-.63v-.27h0a1.8,1.8,0,0,1-1.6.88A1.61,1.61,0,0,1,280.37,714.39Zm3.36-.42v-.38l-1.11.07c-.53,0-.83.28-.83.65s.32.63.8.63A1,1,0,0,0,283.73,714Z" transform="translate(-105.34 -85.04)"/><path class="cls-7" d="M286.43,715.25v-3.52h-.28a.53.53,0,0,1,0-1.05h.28v-.4a1.31,1.31,0,0,1,1.49-1.5c.76,0,1.08.24,1.08.58a.36.36,0,0,1-.29.37,1.11,1.11,0,0,1-.28,0c-.44,0-.61.19-.61.58v.33h.6a.53.53,0,0,1,0,1.05h-.57v3.52a.71.71,0,1,1-1.42,0Z" transform="translate(-105.34 -85.04)"/><path class="cls-7" d="M290,715.25v-3.52h-.28a.53.53,0,0,1,0-1.05H290v-.4a1.31,1.31,0,0,1,1.49-1.5c.76,0,1.07.24,1.07.58a.35.35,0,0,1-.28.37,1.11,1.11,0,0,1-.28,0c-.44,0-.61.19-.61.58v.33h.6a.53.53,0,0,1,0,1.05h-.57v3.52a.71.71,0,1,1-1.42,0Z" transform="translate(-105.34 -85.04)"/><path class="cls-7" d="M293.14,709.27a.76.76,0,1,1,.76.74A.74.74,0,0,1,293.14,709.27Zm.05,6v-4a.67.67,0,0,1,.71-.74.68.68,0,0,1,.72.74v4a.68.68,0,0,1-.72.74A.67.67,0,0,1,293.19,715.25Z" transform="translate(-105.34 -85.04)"/><path class="cls-7" d="M295.94,711.73h-.27a.51.51,0,0,1-.55-.54.5.5,0,0,1,.55-.53h.27v-.59a.72.72,0,1,1,1.43,0v.59h.5a.54.54,0,1,1,0,1.07h-.5v2.5c0,.38.13.53.43.56h.1c.35,0,.54.18.54.51s-.41.64-1,.64h-.05a1.26,1.26,0,0,1-1.44-1.4Z" transform="translate(-105.34 -85.04)"/><path class="cls-7" d="M299.09,709.27a.74.74,0,0,1,.76-.74.74.74,0,1,1-.76.74Zm.05,6v-4a.67.67,0,0,1,.71-.74.68.68,0,0,1,.72.74v4a.68.68,0,0,1-.72.74A.67.67,0,0,1,299.14,715.25Z" transform="translate(-105.34 -85.04)"/></g></svg>