<?xml version="1.0" encoding="UTF-8"?><svg xmlns="http://www.w3.org/2000/svg" viewBox="0 0 1096.99 968.09"><defs><style>.cls-1{fill:#fff;}.cls-2{fill:#b0adb0;}.cls-3{fill:#575548;}.cls-4{fill:#d32027;}.cls-5{fill:#33353b;}.cls-6{fill:#656569;}.cls-7{fill:#79c143;}</style></defs><g id="Body_Merge"><rect class="cls-5" x="1026.06" y="401.36" width="8" height="50"/><polygon class="cls-5" points="217.05 790.36 208.07 790.36 208.07 798.36 208.07 799.39 208.07 806.37 274.05 806.37 274.05 798.36 217.05 798.36 217.05 790.36"/><path class="cls-5" d="m52.06,550.36v115.99h66.01v33.02h-33v65.98h131.99v-33h77.37s39.63,0,39.63,0v2.01h-2v61.99h2v2h-35v82h99.01v83h197.99v-83h133v-115h-33v-42.01h214v-33h-16v-16h116l16-16v-17.01h16v-164.99h-99v-99.01h99v-49.99h-56.89v-8h23.88v-33h-136v-48h-2v-2h5.99v-40.22l35-34.78v-57h-182.99v33.01h-66.01s-33,0-33,0V5.38h-214.98v131.98h-66.01v-33h-132v132h33v83h-33v-33H85.06v33h-17v33h-12v33h70v33H52.06v66h16.02v66h-16.02Zm145.56,149.01h-30.57v-66.02h83.01v-124h8v11l8,37.26v73.73h2v2.01h-2v66.02h-68.44Zm233.44-149.03v-57.99h50v42h32.99v-27.97c1.78-1.06,2.98-3,2.98-5.23s-1.2-4.17-2.98-5.23v-31.35c1.78-1.06,2.98-3,2.98-5.23s-1.2-4.17-2.98-5.23v-31.35c1.78-1.06,2.98-3,2.98-5.23s-1.2-4.17-2.98-5.23v-59.98h50.12v33h-19.1v132h-5.98v33h5.98v33h2v99h-33.01v-106.99h-32.99v57.98h-184v-2.01h1.99v-81h132.01Zm-68.01,248.01v-2h2v-61.99h-2v-2.01h2v-66h83.01v33l33,33h99v-83h83v149.07l-15.71,15.93h-282.3v-16h-2Zm481.02-108h-82.02v-132h49v100l16,16h17.02v16Zm49.99-214v33h-182v74h17.05v33h-116.05v-297h58.01v74h32.99v-7.99h2.01v7.99h154.96v-16.01h33.04v99.01Zm41.02-157v8h-99.03v-16.99h4.03v8.99h95.01Zm-92.99-81h-2.02v56h-4.03v-58.01h6.04v2Zm-72.08-68l16.05,16.07v99.93h-33v39.89l-47,17.11v9.01h-2.01v-66.01h-189.99v16.01h-17.01v-57.01h-8.01v-17h7.99v-58h67.03v33h98.98v-33h106.96Zm-172.95-132.01v66.03h-67.02V38.35h67.02Zm-300.01,322.01v-16.01h2.01v16.01h-2.01Zm18.74,25h0s16.25,0,16.25,0v-182h99.01v25h9v17h-9v24.01h-33v115.99h83v91h-98.99v58h-50.01v-82.99h-42.21s-31.79,0-31.79,0v8.01h-8v-8.01h-33.3l-32.7-33v-33h131.74Zm-230.76,99h66.03v66h-66.03v-66Z"/></g><g id="Bombsite"><rect class="cls-3" x="877.06" y="541.37" width="165.01" height="100" transform="translate(1919.12 1182.73) rotate(180)"/><polygon class="cls-3" points="51.98 617.36 217.05 617.36 217.05 569.08 217.05 550.36 217.05 500.36 150.95 500.36 150.95 550.36 85.05 550.36 85.05 500.36 68.04 500.36 68.04 550.36 51.98 550.36 51.98 617.36"/><rect class="cls-5" x="985.7" y="601.03" width="15.03" height="7.34" transform="translate(1986.42 1209.41) rotate(180)"/><rect class="cls-5" x="976.81" y="509.92" width="31.5" height="97.89" transform="translate(1985.12 1117.73) rotate(180)"/><rect class="cls-5" x="943.69" y="591.88" width="35.6" height="15.93" transform="translate(1922.98 1199.69) rotate(180)"/><rect class="cls-5" x="952.84" y="575.86" width="7.53" height="16.12" transform="translate(1913.22 1167.84) rotate(180)"/><rect class="cls-5" x="960.83" y="558.87" width="15.52" height="33.02" transform="translate(1937.19 1150.75) rotate(180)"/><rect class="cls-5" x="101.62" y="550.07" width="97.8" height="32.76" transform="translate(301.04 1132.9) rotate(180)"/><rect class="cls-5" x="150.52" y="517.91" width="15.88" height="32.16" transform="translate(316.92 1067.98) rotate(180)"/><rect class="cls-5" x="166.61" y="534.9" width="32.81" height="14.87" transform="translate(366.03 1084.66) rotate(180)"/><rect class="cls-5" x="166.56" y="526.86" width="16.03" height="8.19" transform="translate(349.14 1061.91) rotate(180)"/><rect class="cls-5" x="877.61" y="526.07" width="15.88" height="31.69" transform="translate(1771.09 1083.82) rotate(180)"/></g><g id="Lines"><rect class="cls-2" x="563.03" y="104.18" width="1.05" height="66.28" transform="translate(1127.1 274.64) rotate(180)"/><path class="cls-2" d="m900.09,104.32v.02h11.99v38h-10.99v-28.99h-20.97v-9.03h19.96m1-1h-21.96v11.03h20.97v28.99h12.99v-40h-11.99v-.02h0Z"/><path class="cls-2" d="m795.77,151.59l10.15,10.15-22.3,22.3-10.15-10.15,22.3-22.3m0-1.41l-23.71,23.71,11.56,11.56,23.71-23.71-11.56-11.56h0Z"/><rect class="cls-2" x="839.06" y="294.14" width="1.01" height="16.31" transform="translate(1679.13 604.59) rotate(180)"/><rect class="cls-2" x="836.04" y="294.14" width="1.01" height="16.47" transform="translate(1673.1 604.75) rotate(180)"/><path class="cls-2" d="m785.06,286.33v32.03h-32.03v-32.03h32.03m1-1h-34.03v34.03h34.03v-34.03h0Z"/><path class="cls-2" d="m768.04,319.36v5.89h-15.01v-5.89h15.01m1-1h-17.01v7.89h17.01v-7.89h0Z"/><rect class="cls-2" x="705.06" y="352.1" width=".99" height="33.42" transform="translate(1411.12 737.62) rotate(180)"/><rect class="cls-2" x="959.66" y="301.61" width="1.01" height="50.48" transform="translate(633.31 1287.02) rotate(-90)"/><path class="cls-2" d="m967.01,327.35v16.03h-13.98v-16.03h13.98m1-1h-15.98v18.03h15.98v-18.03h0Z"/><path class="cls-2" d="m827.06,609.37v32.99h158.99v-34.99h-8.98v-97h30.97v97h-7.98v34.99h26.12v-1.01h-25.12v-32.97h7.98v-99.02h-32.99v49h-16.01v17h-8v16.03h-9v16.98h41.99v32.97h-156.98v-32.99h-17.2v1.01h16.2Zm149.01-50v32.02h-15v-32.02h15Zm-23.01,17h6.99v15.02h-6.99v-15.02Zm-9,16.03h32v14.96h-32v-14.96Z"/><path class="cls-2" d="m893.06,509.33v48.03h-15.01v-48.03h15.01m1-1h-17.01v50.03h17.01v-50.03h0Z"/><path class="cls-2" d="m877.04,509.32v31.05h-14.98v-31.05h14.98m1-1h-16.98v33.05h16.98v-33.05h0Z"/><polygon class="cls-2" points="877.61 533.36 861.83 533.36 861.83 534.35 877.61 534.35 877.61 533.36 877.61 533.36"/><path class="cls-2" d="m728.11,616.33v24.02h-15.04v-24.02h15.04m1-1h-17.04v26.02h17.04v-26.02h0Z"/><path class="cls-2" d="m660.1,801.44l10.43,10.43-10.23,10.23-10.43-10.43,10.23-10.23m0-1.41l-11.64,11.64,11.85,11.85,11.64-11.64-11.85-11.85h0Z"/><path class="cls-2" d="m583.04,952.39v11.01h-26.99v-11.01h26.99m1-1h-28.99v13.01h28.99v-13.01h0Z"/><path class="cls-2" d="m509.06,952.39v11.01h-26.99v-11.01h26.99m1-1h-28.99v13.01h28.99v-13.01h0Z"/><path class="cls-2" d="m447.04,952.39v11.01h-26.99v-11.01h26.99m1-1h-28.99v13.01h28.99v-13.01h0Z"/><path class="cls-2" d="m404.06,954.38v9.02h-6.02v-9.02h6.02m1-1h-8.02v11.02h8.02v-11.02h0Z"/><path class="cls-2" d="m381.05,814.32v16.04h-15v-16.04h15m1-1h-17v18.04h17v-18.04h0Z"/><path class="cls-2" d="m389.05,814.32v8.04h-7v-8.04h7m1-1h-9v10.04h9v-10.04h0Z"/><path class="cls-2" d="m538.04,682.33v16.05h-14.99v-16.05h14.99m1-1h-16.99v18.05h16.99v-18.05h0Z"/><path class="cls-2" d="m315.06,633.33v15.04h-15v-15.04h15m1-1h-17v17.04h17v-17.04h0Z"/><path class="cls-2" d="m323.05,633.34v7.03h-6.99v-7.03h6.99m1-1h-8.99v9.03h8.99v-9.03h0Z"/><path class="cls-2" d="m613.09,485.37v15.01h-32.01v-15.01h32.01m1-1h-34.01v17.01h34.01v-17.01h0Z"/><path class="cls-2" d="m605.07,477.38v6.99h-6.99v-6.99h6.99m1-1h-8.99v8.99h8.99v-8.99h0Z"/><path class="cls-2" d="m613.09,468.38v15.99h-7.01v-15.99h7.01m1-1h-9.01v17.99h9.01v-17.99h0Z"/><path class="cls-2" d="m529.05,286.31v7.05h-15.04v-7.05h15.04m1-1h-17.04v9.05h17.04v-9.05h0Z"/><path class="cls-2" d="m513.06,302.33v16.03h-15.01v-16.03h15.01m1-1h-17.01v18.03h17.01v-18.03h0Z"/><path class="cls-2" d="m307.05,146.37v22.98h-32v-22.98h32m1-1h-34v24.98h34v-24.98h0Z"/><path class="cls-2" d="m307.05,146.37v7.98h-32v-7.98h32m1-1h-34v9.98h34v-9.98h0Z"/><path class="cls-2" d="m158.02,286.33v32.07h-73v-32.07h73m1-1h-75v34.07h75v-34.07h0Z"/><path class="cls-2" d="m125.06,312.39v6.01h-14.96v-6.01h14.96m1-1h-16.96v8.01h16.96v-8.01h0Z"/><path class="cls-2" d="m199.08,369.42v15.97h-14.02v-15.97h14.02m1-1h-16.02v17.97h16.02v-17.97h0Z"/><path class="cls-2" d="m84.05,418.32v15.05h-32.04v-15.05h32.04m1-1h-34.04v17.05h34.04v-17.05h0Z"/><path class="cls-2" d="m117.06,733.36v32.04h-32.02v-32.04h32.02m1-1h-34.02v34.04h34.02v-34.04h0Z"/><path class="cls-2" d="m430.05,353.37h84.17v-1h-66.17v-17.01h-17v-16h-1v33.01h0v1Zm1-17.01h16v16.01h-16v-16.01Z"/><rect class="cls-2" x="299.07" y="253.4" width=".97" height="132.19"/><rect class="cls-2" x="150.02" y="285.93" width=".97" height="33.05"/><rect class="cls-2" x="250.06" y="459.19" width=".99" height="50.37"/><path class="cls-2" d="m194.87,429.26l10.85,10.92-11.08,11.08-10.88-10.88,11.12-11.12m0-1.42l-12.53,12.53,12.3,12.3,12.49-12.49-12.26-12.34h0Z"/><path class="cls-2" d="m199.06,583.36h.99v-49h-17v-8h-16v-9h-.99s-15.91,0-15.91,0v.99h15.91v31.01h-16.39v.99h49.39v32h-97.01v-32.09h-.99v33.08h98Zm-17-56v7h-15.01v-7h15.01Zm-15.01,22.02v-14.02h32.01v14.02h-32.01Z"/><rect class="cls-2" x="100.55" y="732.18" width=".99" height="33.42" transform="translate(-647.84 849.93) rotate(-90)"/><rect class="cls-2" x="348" y="815.3" width=".99" height="99.1" transform="translate(-516.36 1213.35) rotate(-90)"/><rect class="cls-2" x="562.86" y="847.58" width="1" height="66.55" transform="translate(-317.5 1444.21) rotate(-90)"/></g><g id="Outlines"><path class="cls-6" d="m1034.06,401.36v50h-8v-50h8m1.05-1.05h-10.1v52.1h10.1v-52.1h0Z"/><path class="cls-6" d="m217.05,790.36v8h57v8.01h-65.99v-16.01h8.99m1.05-1.05h-11.09v18.11h68.09v-10.11h-57v-8h0Z"/><path class="cls-6" d="m630.05,5.38v131.98h33s66.01,0,66.01,0v-33.01h182.99v57l-35,34.78v40.22h-5.99v2h2v48h136v33h-23.88v8h56.89v49.99h-99v99.01h99v164.99h-16v17.01l-16,16h-116v16h16v33h-214v42.01h33v115h-133v83h-197.99v-83h-99.01v-82h35v-2h-2v-61.99h2v-2.01h-39.63s-77.37,0-77.37,0v33H85.06v-65.98h33v-33.02H52.06v-115.99h16.02v-66h-16.02v-66h74v-33H56.06v-33h12v-33h17v-33h132v33h33v-83h-33V104.36h132v33h66.01V5.38h214.98m-100,99h67.02V38.35h-67.02v66.03m-41,140.98h8.01v57.01h17.01v-16.01h189.99v66.01h2.01v-9.01l47-17.11v-39.89h33v-99.93l-16.05-16.07h-106.96v33h-98.98v-33h-67.03v58h-7.99v17m-272.29,206h33.3v8.01h8v-8.01h31.79s42.21,0,42.21,0v82.99h50.01v-58h98.99v-91h-83v-115.99h33v-24.01h9v-17h-9v-25h-99.01v182h-16.25s-131.74,0-131.74,0v33l32.7,33m619.29-157h4.03v-56h2.02v-2h-6.04v58.01m0,33h99.03v-8h-95.01v-8.99h-4.03v16.99m-222.99,289h116.05v-33h-17.05v-74h182v-132.01h-33.04v16.01h-154.96v-7.99h-2.01v7.99h-32.99v-74h-58.01v297m-316-256h2.01v-16.01h-2.01v16.01m184,174v-42h-50v57.99h-132.01v81h-1.99v2.01h184v-57.98h32.99v106.99h33.01v-99h-2v-33h-5.98v-33h5.98v-132h19.1v-33h-50.12v59.98c1.78,1.06,2.98,3,2.98,5.23s-1.2,4.17-2.98,5.23v31.35c1.78,1.06,2.98,3,2.98,5.23s-1.2,4.17-2.98,5.23v31.35c1.78,1.06,2.98,3,2.98,5.23s-1.2,4.17-2.98,5.23v27.97h-32.99m-396.02,16.01h66.03v-66h-66.03v66m82.02,149.01h99v-66.02h2v-2.01h-2v-73.73l-8-37.26v-11h-8v124h-83.01v66.02m595-9.02h82.02v-16h-17.02l-16-16v-100h-49v132m-281,42l-33-33v-33h-83.01v66h-2v2.01h2v61.99h-2v2h2v16h282.3l15.71-15.93v-149.07h-83v83h-99M631.1,4.33h-217.08v131.98h-63.91v-33h-134.1v134.1h33v80.9h-30.9v-33H84.01v33h-17v33h-12v35.1h70v30.9H51.01v68.1h16.02v63.9h-16.02v118.09h66.01v30.92h-33v68.08h134.09v-33h77.37s35.53,0,35.53,0v63.9h-33v84.1h99.01v83h200.09v-83h133v-117.1h-33v-39.91h214v-35.1h-16v-13.9h115.38l.31-.31,16-16,.31-.31v-16.39h16v-167.09h-99v-96.91h99v-52.09h-56.89v-5.9h23.88v-35.1h-136v-47.91h4v-40.83l34.69-34.47.31-.31v-58.48h-185.09v33.01h-64.96s-31.95,0-31.95,0V4.33h0Zm-100,35.07h64.92v63.93h-64.92v-63.93h0Zm-33,132.01h64.93v33h101.08v-33h105.48l15.43,15.45v98.45h-33v40.2l-46.31,16.86-.6.22v-57.29h-192.09v16.01h-14.91v-57.01h-8.01v-14.9h7.99v-58h0Zm-164.99,33h96.91v25h9v14.9h-9v24.01h-33v118.09h83v88.9h-98.99v58h-47.91v-82.99h-43.26s-31.79,0-31.79,0h-1.05v8.01h-5.9v-8.01h-33.92l-32.09-32.38v-31.52h131.74s15.2,0,15.2,0h1.05v-182h0Zm503.99,33h1.93v55.91h-1.93v-55.91h0Zm0,74.01h1.93v8.99h95.01v5.9h-96.93v-14.89h0Zm-222.99,8.99h55.91v74h192.06v-16.01h30.94v129.91h-182v76.1h17.05v30.9h-113.95v-294.9h0Zm-99.01,33h48.02v30.9h-19.1v132h-5.98v35.1h5.98v33h2v96.9h-30.91v-106.99h-35.09v57.98h-179.9v-80.91h132.01v-57.99h47.9v42h35.09v-28.45c1.85-1.33,2.98-3.5,2.98-5.79s-1.13-4.46-2.98-5.79v-30.22c1.85-1.33,2.98-3.5,2.98-5.79s-1.13-4.46-2.98-5.79v-30.22c1.85-1.33,2.98-3.5,2.98-5.79s-1.13-4.46-2.98-5.79v-58.36h0ZM86.08,485.41h63.93v63.9h-63.93v-63.9h0Zm165.02,25h5.9v10.06l.02.11,7.97,37.15v140.6h-96.9v-63.92h83.01v-124h0Zm511.99,49h46.9v99.38l.31.31,16,16,.31.31h16.4v13.9h-79.92v-129.9h0Zm-182,91h80.9v147.59l-15.1,15.31h-280.81v-16h0v-129.9h80.91v32.39l.31.31,33,33,.31.31h100.49v-83h0Z"/></g><g id="Callouts_copy"><path class="cls-4" d="m427.42,70.46c0-.16.04-.37.13-.61l2.5-6.81c.27-.74.72-1.09,1.44-1.09s1.19.33,1.47,1.08l2.51,6.82c.09.25.12.42.12.61,0,.53-.4.9-.96.9s-.83-.25-1-.84l-.48-1.45h-3.31l-.48,1.43c-.18.61-.46.86-.97.86-.6,0-.97-.35-.97-.9Zm5.29-2.88l-1.21-3.75h-.04l-1.19,3.75h2.44Z"/><path class="cls-4" d="m436.64,65.84h-.36c-.44,0-.72-.27-.72-.7s.28-.7.72-.7h.36v-.76c0-.6.35-.96.93-.96s.93.37.93.96v.76h.65c.44,0,.71.27.71.7s-.27.7-.71.7h-.65v3.26c0,.48.17.69.56.72h.12c.46.06.7.25.7.69,0,.55-.53.83-1.31.83h-.06c-1.24,0-1.87-.62-1.87-1.82v-3.67Z"/><path class="cls-4" d="m441.27,65.84h-.36c-.44,0-.72-.27-.72-.7s.28-.7.72-.7h.36v-.76c0-.6.35-.96.93-.96s.93.37.93.96v.76h.65c.44,0,.71.27.71.7s-.27.7-.71.7h-.65v3.26c0,.48.17.69.56.72h.12c.46.06.7.25.7.69,0,.55-.53.83-1.31.83h-.06c-1.24,0-1.87-.62-1.87-1.82v-3.67Z"/><path class="cls-4" d="m445.06,69.29c0-1.24.95-1.96,2.65-2.06l1.71-.1v-.45c0-.63-.44-1-1.14-1-.56,0-.91.18-1.32.72-.2.23-.44.34-.74.34-.45,0-.77-.29-.77-.71,0-.15.03-.28.1-.42.32-.81,1.41-1.31,2.82-1.31,1.75,0,2.88.9,2.88,2.27v3.88c0,.62-.37.93-.9.93s-.85-.28-.89-.83v-.35h-.04c-.38.72-1.23,1.15-2.08,1.15-1.29,0-2.28-.84-2.28-2.06Zm4.37-.54v-.5l-1.43.09c-.69.05-1.09.36-1.09.84,0,.51.42.83,1.04.83.81,0,1.48-.53,1.48-1.26Z"/><path class="cls-4" d="m452.2,67.84c0-2.18,1.29-3.55,3.34-3.55,1.36,0,2.5.66,2.87,1.62.06.16.1.32.1.46,0,.46-.36.72-.79.72-.37,0-.59-.15-.78-.48-.34-.6-.75-.87-1.34-.87-.94,0-1.52.77-1.52,2.09s.58,2.1,1.5,2.1c.65,0,1.05-.32,1.33-.8.25-.39.45-.55.84-.55.43,0,.78.29.78.74,0,.15-.04.3-.12.48-.41.93-1.57,1.57-2.87,1.57-2.05,0-3.35-1.35-3.35-3.55Z"/><path class="cls-4" d="m459.57,70.41v-7.5c0-.63.39-.97.93-.97s.93.34.93.97v4.22h.03l2.46-2.47c.25-.26.46-.37.74-.37.48,0,.83.35.83.81,0,.28-.08.45-.35.7l-1.73,1.64,1.9,2.42c.2.27.26.44.26.68,0,.5-.36.84-.88.84-.39,0-.62-.14-.91-.58l-1.75-2.31-.59.55v1.38c0,.63-.38.96-.93.96s-.93-.33-.93-.96Z"/><path class="cls-4" d="m465.96,67.87c0-2.19,1.28-3.58,3.29-3.58s3.22,1.32,3.22,3.17c0,.51-.29.81-.81.81h-3.88v.08c0,1.01.61,1.67,1.55,1.67.68,0,1.12-.23,1.62-.82.2-.2.36-.27.6-.27.4,0,.72.25.72.68,0,.15-.04.3-.13.45-.45.84-1.5,1.33-2.82,1.33-2.13,0-3.38-1.31-3.38-3.52Zm4.73-.74c-.04-.89-.61-1.47-1.42-1.47s-1.4.6-1.47,1.47h2.89Z"/><path class="cls-4" d="m473.42,70.41v-5.18c0-.59.36-.93.9-.93s.88.34.88.93v.44h.04c.18-.84.74-1.35,1.42-1.35.25,0,.44.06.58.17.18.14.27.37.27.69,0,.29-.09.51-.27.67s-.44.23-.81.24c-.84.01-1.14.49-1.14,1.29v3.02c0,.62-.36.96-.93.96s-.93-.35-.93-.96Z"/><path class="cls-4" d="m480.76,69.64c-.06-.17-.1-.34-.1-.51,0-.51.35-.84.84-.84.39,0,.65.15.88.56.3.7,1.02,1.02,1.89,1.02,1.03,0,1.73-.5,1.73-1.17,0-.6-.43-.95-1.58-1.18l-.97-.19c-1.83-.36-2.72-1.24-2.72-2.6,0-1.68,1.46-2.79,3.5-2.79,1.68,0,2.94.7,3.35,1.9.04.13.07.26.07.43,0,.46-.33.77-.82.77-.43,0-.7-.17-.91-.56-.3-.69-.9-.98-1.68-.98-.95,0-1.57.44-1.57,1.12,0,.56.44.91,1.52,1.13l.96.2c1.94.39,2.78,1.17,2.78,2.56,0,1.79-1.4,2.92-3.69,2.92-1.89,0-3.1-.76-3.47-1.76Z"/><path class="cls-4" d="m488.93,72.7v-7.45c0-.62.38-.95.91-.95s.91.33.91.96v.37h.04c.37-.8,1.12-1.29,2.11-1.29,1.73,0,2.79,1.31,2.79,3.51s-1.05,3.51-2.75,3.51c-.99,0-1.75-.48-2.11-1.25h-.04v2.6c0,.63-.38.96-.93.96s-.93-.33-.93-.96Zm4.86-4.86c0-1.23-.58-2.02-1.51-2.02s-1.5.81-1.5,2.02.6,2.02,1.5,2.02,1.51-.78,1.51-2.02Z"/><path class="cls-4" d="m496.38,69.29c0-1.24.95-1.96,2.65-2.06l1.71-.1v-.45c0-.63-.44-1-1.14-1-.56,0-.91.18-1.32.72-.2.23-.44.34-.74.34-.45,0-.77-.29-.77-.71,0-.15.03-.28.1-.42.32-.81,1.41-1.31,2.82-1.31,1.75,0,2.88.9,2.88,2.27v3.88c0,.62-.37.93-.9.93s-.85-.28-.89-.83v-.35h-.04c-.38.72-1.23,1.15-2.08,1.15-1.29,0-2.28-.84-2.28-2.06Zm4.37-.54v-.5l-1.43.09c-.69.05-1.09.36-1.09.84,0,.51.42.83,1.04.83.81,0,1.48-.53,1.48-1.26Z"/><path class="cls-4" d="m504.84,70.41l-1.37-4.74c-.07-.24-.1-.39-.1-.57,0-.46.37-.79.9-.79.46,0,.76.28.87.79l1.01,4.4h.04l1.05-4.34c.12-.55.48-.85,1.05-.85s.91.3,1.03.85l1.06,4.34h.04l1.02-4.41c.1-.5.4-.77.86-.77.51,0,.88.32.88.79,0,.17-.03.32-.1.56l-1.37,4.75c-.19.67-.55.98-1.19.98-.68,0-1.04-.29-1.2-.98l-1.03-3.96h-.04l-1.03,3.97c-.16.67-.53.97-1.19.97s-.98-.3-1.17-.97Z"/><path class="cls-4" d="m514,70.41v-5.18c0-.58.34-.93.9-.93s.93.36.93.94v.38h.04c.36-.84,1.05-1.31,2.09-1.31,1.51,0,2.36.95,2.36,2.55v3.55c0,.63-.39.96-.93.96s-.93-.33-.93-.96v-3.17c0-.89-.42-1.4-1.25-1.4s-1.36.61-1.36,1.49v3.07c0,.63-.38.96-.93.96s-.93-.33-.93-.96Z"/><path class="cls-1" d="m146.62,736.71c-.05-.13-.08-.26-.08-.4,0-.39.27-.65.65-.65.3,0,.5.12.68.43.23.54.78.78,1.46.78.79,0,1.33-.38,1.33-.9,0-.46-.33-.73-1.22-.91l-.75-.15c-1.41-.28-2.09-.95-2.09-2,0-1.29,1.12-2.14,2.69-2.14,1.29,0,2.26.54,2.57,1.46.03.1.05.2.05.33,0,.35-.25.59-.63.59-.33,0-.54-.13-.7-.43-.23-.53-.69-.75-1.29-.75-.73,0-1.21.34-1.21.86,0,.43.34.7,1.17.87l.74.15c1.49.3,2.14.9,2.14,1.97,0,1.38-1.08,2.25-2.84,2.25-1.46,0-2.39-.58-2.67-1.35Z"/><path class="cls-1" d="m152.71,735.35c0-1.68.98-2.75,2.53-2.75s2.48,1.02,2.48,2.44c0,.4-.22.62-.62.62h-2.99v.06c0,.78.47,1.28,1.19,1.28.52,0,.86-.18,1.25-.63.15-.16.28-.21.46-.21.31,0,.56.2.56.52,0,.11-.03.23-.1.35-.35.64-1.16,1.03-2.17,1.03-1.64,0-2.6-1.01-2.6-2.71Zm3.64-.57c-.03-.68-.47-1.13-1.09-1.13s-1.08.46-1.13,1.13h2.22Z"/><path class="cls-1" d="m158.26,735.33c0-1.67,1-2.73,2.57-2.73,1.05,0,1.92.51,2.21,1.25.05.12.08.25.08.35,0,.35-.27.56-.61.56-.28,0-.45-.11-.6-.37-.26-.46-.58-.67-1.03-.67-.72,0-1.17.6-1.17,1.61s.44,1.62,1.16,1.62c.5,0,.81-.24,1.03-.62.19-.3.35-.42.65-.42.33,0,.6.22.6.57,0,.11-.03.23-.09.37-.31.71-1.21,1.21-2.21,1.21-1.58,0-2.58-1.04-2.58-2.73Z"/><path class="cls-1" d="m163.88,736.08v-2.73c0-.49.3-.75.71-.75s.71.26.71.75v2.44c0,.7.35,1.07.98,1.07s1.03-.45,1.03-1.15v-2.36c0-.49.3-.75.71-.75s.71.26.71.75v3.97c0,.47-.28.72-.69.72s-.69-.25-.69-.72v-.32h-.03c-.26.66-.78,1.04-1.57,1.04-1.13,0-1.88-.74-1.88-1.96Z"/><path class="cls-1" d="m169.66,737.3v-3.98c0-.45.28-.72.69-.72s.67.26.67.72v.34h.03c.14-.65.57-1.04,1.09-1.04.19,0,.34.04.44.13.14.11.21.28.21.53,0,.22-.07.4-.21.51s-.34.18-.62.19c-.65,0-.88.38-.88,1v2.32c0,.47-.28.74-.71.74s-.71-.27-.71-.74Z"/><path class="cls-1" d="m173.28,731.32c0-.42.33-.74.76-.74s.76.32.76.74-.33.74-.76.74-.76-.33-.76-.74Zm.05,5.98v-3.96c0-.46.27-.75.71-.75s.71.28.71.75v3.96c0,.46-.27.74-.71.74s-.71-.28-.71-.74Z"/><path class="cls-1" d="m176.08,733.78h-.27c-.34,0-.55-.21-.55-.54s.21-.54.55-.54h.27v-.58c0-.46.27-.74.71-.74s.71.28.71.74v.58h.5c.34,0,.55.21.55.54s-.21.54-.55.54h-.5v2.5c0,.37.13.53.43.55h.09c.35.05.54.2.54.53,0,.42-.41.63-1.01.63h-.05c-.95,0-1.44-.47-1.44-1.4v-2.82Z"/><path class="cls-1" d="m179.18,739.21c0-.29.2-.47.52-.47.1,0,.15,0,.25,0,.25,0,.52-.11.69-.47l.07-.19-1.67-4.4c-.05-.15-.08-.3-.08-.42,0-.39.32-.66.74-.66.38,0,.57.16.69.58l1.14,3.62h.02l1.14-3.63c.12-.4.32-.57.69-.57.41,0,.69.27.69.64,0,.12-.03.28-.08.42l-1.61,4.37c-.49,1.35-1.09,1.85-2.24,1.85-.62,0-.96-.24-.96-.67Z"/><path class="cls-1" d="m302.49,686.74c0-.12.03-.29.1-.47l1.92-5.24c.21-.57.55-.83,1.11-.83s.92.25,1.13.83l1.93,5.24c.07.19.09.32.09.47,0,.41-.31.69-.74.69s-.63-.19-.77-.65l-.37-1.11h-2.54l-.37,1.1c-.14.47-.36.66-.75.66-.46,0-.75-.27-.75-.69Zm4.07-2.21l-.93-2.89h-.03l-.91,2.89h1.88Z"/><path class="cls-1" d="m311.65,686.56v-5.6c0-.49.27-.77.74-.77s.74.28.74.77v5.15h2.5c.4,0,.67.23.67.61s-.26.61-.67.61h-3.24c-.46,0-.74-.28-.74-.77Z"/><path class="cls-1" d="m316.93,680.72c0-.42.33-.74.76-.74s.76.32.76.74-.33.74-.76.74-.76-.33-.76-.74Zm.05,5.98v-3.96c0-.46.27-.75.71-.75s.71.28.71.75v3.96c0,.46-.27.74-.71.74s-.71-.28-.71-.74Z"/><path class="cls-1" d="m319.35,686.7v-3.98c0-.44.26-.72.69-.72s.71.27.71.72v.29h.03c.28-.65.81-1.01,1.61-1.01,1.16,0,1.82.73,1.82,1.96v2.73c0,.49-.3.74-.71.74s-.71-.25-.71-.74v-2.44c0-.68-.32-1.07-.96-1.07s-1.04.47-1.04,1.15v2.36c0,.49-.29.74-.71.74s-.71-.25-.71-.74Z"/><path class="cls-1" d="m325.15,686.7v-5.77c0-.49.3-.75.71-.75s.71.26.71.75v3.25h.02l1.89-1.9c.19-.2.35-.28.57-.28.37,0,.63.27.63.62,0,.21-.06.35-.27.54l-1.33,1.26,1.46,1.86c.16.21.2.34.2.52,0,.38-.28.64-.68.64-.3,0-.47-.11-.7-.44l-1.34-1.78-.45.42v1.06c0,.49-.29.74-.71.74s-.71-.25-.71-.74Z"/><path class="cls-1" d="m506.97,716.82v-5.15h-1.46c-.4,0-.67-.23-.67-.61s.26-.61.67-.61h4.39c.4,0,.66.23.66.61s-.27.61-.66.61h-1.46v5.15c0,.48-.27.77-.74.77s-.74-.28-.74-.77Z"/><path class="cls-1" d="m509.84,714.87c0-1.69,1.03-2.72,2.59-2.72s2.59,1.03,2.59,2.72-1.01,2.73-2.59,2.73-2.59-1.02-2.59-2.73Zm3.74,0c0-1.04-.45-1.64-1.14-1.64s-1.15.6-1.15,1.64.44,1.64,1.15,1.64,1.14-.59,1.14-1.64Z"/><path class="cls-1" d="m515.76,718.62v-5.73c0-.48.29-.73.7-.73s.7.25.7.74v.28h.03c.28-.62.86-1,1.62-1,1.33,0,2.14,1.01,2.14,2.7s-.81,2.7-2.12,2.7c-.76,0-1.35-.37-1.63-.96h-.03v2c0,.49-.29.74-.71.74s-.71-.25-.71-.74Zm3.74-3.74c0-.95-.45-1.56-1.16-1.56s-1.16.62-1.16,1.56.46,1.55,1.16,1.55,1.16-.6,1.16-1.55Z"/><path class="cls-1" d="m523.79,716.9v-5.6c0-.6.35-.95.95-.95.51,0,.8.21,1.01.76l1.75,4.33h.04l1.74-4.33c.21-.54.5-.76,1.02-.76.6,0,.95.35.95.95v5.6c0,.43-.24.69-.66.69s-.65-.25-.65-.69v-4.16h-.04l-1.74,4.26c-.13.31-.32.45-.63.45s-.52-.14-.64-.44l-1.74-4.27h-.04v4.16c0,.43-.24.69-.65.69s-.66-.25-.66-.69Z"/><path class="cls-1" d="m532.28,710.87c0-.42.33-.74.76-.74s.76.32.76.74-.33.74-.76.74-.76-.33-.76-.74Zm.05,5.98v-3.96c0-.46.27-.75.71-.75s.71.28.71.75v3.96c0,.46-.27.74-.71.74s-.71-.28-.71-.74Z"/><path class="cls-1" d="m534.51,714.87c0-1.66.83-2.69,2.14-2.69.76,0,1.34.4,1.6.98h.03v-2.07c0-.49.3-.75.71-.75s.71.26.71.75v5.79c0,.47-.29.72-.71.72s-.72-.24-.72-.72v-.3h-.02c-.23.59-.81,1.01-1.61,1.01-1.31,0-2.13-1.04-2.13-2.71Zm3.78,0c0-.95-.45-1.56-1.16-1.56s-1.16.6-1.16,1.56.44,1.55,1.16,1.55,1.16-.6,1.16-1.55Z"/><path class="cls-1" d="m136.3,351.75c0-.12.03-.29.1-.47l1.92-5.24c.21-.57.55-.83,1.11-.83s.92.25,1.13.83l1.93,5.24c.07.19.09.32.09.47,0,.41-.31.69-.74.69s-.63-.19-.77-.65l-.37-1.11h-2.54l-.37,1.1c-.14.47-.36.66-.75.66-.46,0-.75-.27-.75-.69Zm4.07-2.21l-.93-2.89h-.03l-.91,2.89h1.88Z"/><path class="cls-1" d="m145.45,351.76v-5.6c0-.6.35-.95.95-.95.51,0,.8.21,1.01.76l1.75,4.33h.04l1.74-4.33c.21-.54.5-.76,1.02-.76.6,0,.95.35.95.95v5.6c0,.43-.24.69-.66.69s-.65-.25-.65-.69v-4.16h-.04l-1.74,4.26c-.13.31-.32.45-.63.45s-.52-.14-.64-.44l-1.74-4.27h-.04v4.16c0,.43-.24.69-.65.69s-.66-.25-.66-.69Z"/><path class="cls-1" d="m153.65,350.85c0-.95.73-1.5,2.04-1.58l1.32-.08v-.35c0-.49-.34-.77-.88-.77-.43,0-.7.14-1.02.55-.16.18-.34.26-.57.26-.35,0-.6-.22-.6-.55,0-.11.02-.21.07-.32.24-.62,1.08-1.01,2.17-1.01,1.34,0,2.22.69,2.22,1.75v2.98c0,.47-.29.72-.69.72s-.65-.21-.68-.63v-.27h-.03c-.29.56-.95.88-1.6.88-1,0-1.75-.64-1.75-1.59Zm3.36-.42v-.38l-1.1.07c-.53.04-.83.28-.83.65,0,.39.32.63.8.63.62,0,1.14-.41,1.14-.97Z"/><path class="cls-1" d="m159.3,345.73c0-.42.33-.74.76-.74s.76.32.76.74-.33.74-.76.74-.76-.33-.76-.74Zm.05,5.98v-3.96c0-.46.27-.75.71-.75s.71.28.71.75v3.96c0,.46-.27.74-.71.74s-.71-.28-.71-.74Z"/><path class="cls-1" d="m161.73,351.72v-3.98c0-.44.26-.72.69-.72s.71.27.71.72v.29h.03c.28-.65.81-1.01,1.61-1.01,1.16,0,1.82.73,1.82,1.96v2.73c0,.49-.3.74-.71.74s-.71-.25-.71-.74v-2.44c0-.68-.32-1.07-.96-1.07s-1.04.47-1.04,1.15v2.36c0,.49-.29.74-.71.74s-.71-.25-.71-.74Z"/><path class="cls-1" d="m479.57,444.43c0-2.27,1.29-3.64,3.32-3.64,1.32,0,2.34.59,2.82,1.6.1.19.15.38.15.55,0,.39-.26.63-.65.63-.33,0-.54-.15-.7-.49-.32-.72-.9-1.08-1.6-1.08-1.11,0-1.83.93-1.83,2.42s.71,2.43,1.84,2.43c.74,0,1.3-.34,1.62-1.04.15-.33.34-.46.65-.46.42,0,.69.26.69.65,0,.17-.04.32-.11.49-.44.98-1.49,1.58-2.82,1.58-2.09,0-3.36-1.37-3.36-3.64Z"/><path class="cls-1" d="m486.56,446.45c0-.95.73-1.5,2.04-1.58l1.32-.08v-.35c0-.49-.34-.77-.88-.77-.43,0-.7.14-1.02.55-.16.18-.34.26-.57.26-.35,0-.6-.22-.6-.55,0-.11.02-.21.07-.32.24-.62,1.08-1.01,2.17-1.01,1.34,0,2.22.69,2.22,1.75v2.98c0,.47-.29.72-.69.72s-.65-.21-.68-.63v-.27h-.03c-.29.56-.95.88-1.6.88-1,0-1.75-.64-1.75-1.59Zm3.36-.42v-.38l-1.1.07c-.53.04-.83.28-.83.65,0,.39.32.63.8.63.62,0,1.14-.41,1.14-.97Z"/><path class="cls-1" d="m492.62,443.79h-.27c-.34,0-.55-.21-.55-.54s.21-.54.55-.54h.27v-.58c0-.46.27-.74.71-.74s.71.28.71.74v.58h.5c.34,0,.55.21.55.54s-.21.54-.55.54h-.5v2.5c0,.37.13.53.43.55h.09c.35.05.54.2.54.53,0,.42-.41.63-1.01.63h-.05c-.95,0-1.44-.47-1.44-1.4v-2.82Z"/><path class="cls-1" d="m496.65,447.31l-1.05-3.65c-.05-.19-.08-.3-.08-.44,0-.36.29-.61.69-.61.36,0,.59.21.67.61l.78,3.38h.03l.81-3.33c.09-.42.37-.65.81-.65s.7.23.8.65l.82,3.33h.03l.78-3.39c.08-.38.31-.6.66-.6.4,0,.67.25.67.61,0,.13-.02.25-.08.43l-1.05,3.65c-.15.52-.42.75-.91.75-.52,0-.8-.22-.92-.76l-.8-3.05h-.03l-.79,3.06c-.12.52-.41.75-.91.75s-.75-.23-.9-.75Z"/><path class="cls-1" d="m503.41,446.45c0-.95.73-1.5,2.04-1.58l1.32-.08v-.35c0-.49-.34-.77-.88-.77-.43,0-.7.14-1.02.55-.16.18-.34.26-.57.26-.35,0-.6-.22-.6-.55,0-.11.02-.21.07-.32.24-.62,1.08-1.01,2.17-1.01,1.34,0,2.22.69,2.22,1.75v2.98c0,.47-.29.72-.69.72s-.65-.21-.68-.63v-.27h-.03c-.29.56-.95.88-1.6.88-1,0-1.75-.64-1.75-1.59Zm3.36-.42v-.38l-1.1.07c-.53.04-.83.28-.83.65,0,.39.32.63.8.63.62,0,1.14-.41,1.14-.97Z"/><path class="cls-1" d="m509.13,447.31v-5.77c0-.49.3-.75.71-.75s.71.26.71.75v5.77c0,.49-.29.74-.71.74s-.71-.25-.71-.74Z"/><path class="cls-1" d="m511.55,447.31v-5.77c0-.49.3-.75.71-.75s.71.26.71.75v3.25h.02l1.89-1.9c.19-.2.35-.28.57-.28.37,0,.63.27.63.62,0,.21-.06.35-.27.54l-1.33,1.26,1.46,1.86c.16.21.2.34.2.52,0,.38-.28.64-.68.64-.3,0-.47-.11-.7-.44l-1.34-1.78-.45.42v1.06c0,.49-.29.74-.71.74s-.71-.25-.71-.74Z"/><path class="cls-1" d="m399.4,514.29l-1.96-5.27c-.05-.14-.07-.27-.07-.42,0-.42.31-.7.78-.7.4,0,.63.18.75.58l1.65,5.04h.03l1.65-5.06c.12-.4.34-.57.73-.57.45,0,.76.28.76.68,0,.13-.02.26-.07.4l-1.97,5.31c-.21.6-.56.85-1.13.85s-.92-.25-1.13-.85Z"/><path class="cls-1" d="m403.51,512.46c0-1.68.98-2.75,2.53-2.75s2.48,1.02,2.48,2.44c0,.4-.22.62-.62.62h-2.99v.06c0,.78.47,1.28,1.19,1.28.52,0,.86-.18,1.25-.63.15-.16.28-.21.46-.21.31,0,.56.2.56.52,0,.11-.03.23-.1.35-.35.64-1.16,1.03-2.17,1.03-1.64,0-2.6-1.01-2.6-2.71Zm3.64-.57c-.03-.68-.47-1.13-1.09-1.13s-1.08.46-1.13,1.13h2.22Z"/><path class="cls-1" d="m409.26,514.41v-3.98c0-.44.26-.72.69-.72s.71.27.71.72v.29h.03c.28-.65.81-1.01,1.61-1.01,1.16,0,1.82.73,1.82,1.96v2.73c0,.49-.3.74-.71.74s-.71-.25-.71-.74v-2.44c0-.68-.32-1.07-.96-1.07s-1.04.47-1.04,1.15v2.36c0,.49-.29.74-.71.74s-.71-.25-.71-.74Z"/><path class="cls-1" d="m415.4,510.89h-.27c-.34,0-.55-.21-.55-.54s.21-.54.55-.54h.27v-.58c0-.46.27-.74.71-.74s.71.28.71.74v.58h.5c.34,0,.55.21.55.54s-.21.54-.55.54h-.5v2.5c0,.37.13.53.43.55h.09c.35.05.54.2.54.53,0,.42-.41.63-1.01.63h-.05c-.95,0-1.44-.47-1.44-1.4v-2.82Z"/><path class="cls-7" d="m450.81,920.46v-7.16c0-.63.36-1,.96-1h2.54c2.75,0,4.37,1.64,4.37,4.54s-1.62,4.62-4.37,4.62h-2.54c-.6,0-.96-.37-.96-1Zm3.27-.58c1.71,0,2.64-1.04,2.64-3.02s-.95-2.97-2.64-2.97h-1.35v5.99h1.35Z"/><path class="cls-7" d="m459.5,918.09c0-2.19,1.28-3.58,3.29-3.58s3.22,1.32,3.22,3.17c0,.51-.29.81-.81.81h-3.88v.08c0,1.01.61,1.67,1.55,1.67.68,0,1.12-.23,1.62-.82.2-.2.36-.27.6-.27.4,0,.72.25.72.68,0,.15-.04.3-.13.45-.45.84-1.5,1.33-2.82,1.33-2.13,0-3.38-1.31-3.38-3.52Zm4.73-.74c-.04-.89-.61-1.47-1.42-1.47s-1.4.6-1.47,1.47h2.89Z"/><path class="cls-7" d="m467.46,920.63v-4.58h-.36c-.39,0-.68-.25-.68-.69s.29-.68.68-.68h.36v-.51c0-1.35.66-1.94,1.94-1.96.98,0,1.4.31,1.4.75,0,.26-.13.41-.37.49-.1.03-.22.04-.36.05-.57.02-.8.25-.8.75v.43h.78c.39,0,.68.25.68.68s-.29.69-.68.69h-.74v4.58c0,.64-.38.96-.93.96s-.93-.32-.93-.96Z"/><path class="cls-7" d="m471.15,918.09c0-2.19,1.28-3.58,3.29-3.58s3.22,1.32,3.22,3.17c0,.51-.29.81-.81.81h-3.88v.08c0,1.01.61,1.67,1.55,1.67.68,0,1.12-.23,1.62-.82.2-.2.36-.27.6-.27.4,0,.72.25.72.68,0,.15-.04.3-.13.45-.45.84-1.5,1.33-2.82,1.33-2.13,0-3.38-1.31-3.38-3.52Zm4.73-.74c-.04-.89-.61-1.47-1.42-1.47s-1.4.6-1.47,1.47h2.89Z"/><path class="cls-7" d="m478.62,920.63v-5.18c0-.58.34-.93.9-.93s.93.36.93.94v.38h.04c.36-.84,1.05-1.31,2.09-1.31,1.51,0,2.36.95,2.36,2.54v3.55c0,.63-.39.96-.93.96s-.93-.33-.93-.96v-3.17c0-.89-.42-1.4-1.25-1.4s-1.36.61-1.36,1.49v3.07c0,.63-.38.96-.93.96s-.93-.33-.93-.96Z"/><path class="cls-7" d="m485.86,918.04c0-2.16,1.08-3.5,2.79-3.5.98,0,1.75.52,2.08,1.28h.04v-2.69c0-.63.39-.97.93-.97s.93.34.93.97v7.52c0,.62-.38.94-.92.94s-.93-.32-.93-.94v-.39h-.03c-.3.76-1.05,1.31-2.09,1.31-1.7,0-2.77-1.35-2.77-3.52Zm4.91.01c0-1.24-.59-2.03-1.51-2.03s-1.5.78-1.5,2.03.57,2.02,1.5,2.02,1.51-.77,1.51-2.02Z"/><path class="cls-7" d="m493.61,918.09c0-2.19,1.28-3.58,3.29-3.58s3.22,1.32,3.22,3.17c0,.51-.29.81-.81.81h-3.88v.08c0,1.01.61,1.67,1.55,1.67.68,0,1.12-.23,1.62-.82.2-.2.36-.27.6-.27.4,0,.72.25.72.68,0,.15-.04.3-.13.45-.45.84-1.5,1.33-2.82,1.33-2.13,0-3.38-1.31-3.38-3.52Zm4.73-.74c-.04-.89-.61-1.47-1.42-1.47s-1.4.6-1.47,1.47h2.89Z"/><path class="cls-7" d="m501.07,920.63v-5.18c0-.59.36-.93.9-.93s.88.34.88.93v.45h.04c.18-.84.74-1.35,1.42-1.35.25,0,.44.06.58.17.18.14.27.37.27.69,0,.29-.09.51-.27.67s-.44.23-.81.24c-.84.01-1.14.49-1.14,1.29v3.02c0,.62-.36.96-.93.96s-.93-.35-.93-.96Z"/><path class="cls-7" d="m508.41,919.85c-.06-.17-.1-.34-.1-.51,0-.51.35-.84.84-.84.39,0,.65.15.88.56.3.7,1.02,1.02,1.89,1.02,1.03,0,1.73-.49,1.73-1.17,0-.6-.43-.95-1.58-1.18l-.97-.19c-1.83-.36-2.72-1.24-2.72-2.6,0-1.68,1.46-2.79,3.5-2.79,1.68,0,2.94.71,3.35,1.9.04.13.07.26.07.42,0,.46-.33.77-.82.77-.43,0-.7-.17-.91-.57-.3-.69-.9-.98-1.68-.98-.95,0-1.57.44-1.57,1.12,0,.56.44.91,1.52,1.13l.96.2c1.94.39,2.78,1.17,2.78,2.56,0,1.79-1.4,2.92-3.69,2.92-1.89,0-3.1-.76-3.47-1.76Z"/><path class="cls-7" d="m516.58,922.92v-7.45c0-.62.38-.95.91-.95s.91.33.91.96v.37h.04c.37-.8,1.12-1.29,2.11-1.29,1.73,0,2.79,1.31,2.79,3.51s-1.05,3.51-2.75,3.51c-.99,0-1.75-.48-2.11-1.25h-.04v2.6c0,.63-.38.96-.93.96s-.93-.33-.93-.96Zm4.86-4.86c0-1.23-.58-2.03-1.51-2.03s-1.5.81-1.5,2.03.6,2.02,1.5,2.02,1.51-.78,1.51-2.02Z"/><path class="cls-7" d="m524.02,919.5c0-1.24.95-1.96,2.65-2.06l1.71-.1v-.45c0-.63-.44-1-1.14-1-.56,0-.91.18-1.32.72-.2.23-.44.34-.74.34-.45,0-.77-.29-.77-.71,0-.15.03-.28.1-.42.32-.81,1.41-1.31,2.82-1.31,1.75,0,2.88.9,2.88,2.27v3.88c0,.62-.37.93-.9.93s-.85-.28-.89-.82v-.35h-.04c-.38.72-1.23,1.15-2.08,1.15-1.29,0-2.28-.84-2.28-2.06Zm4.37-.54v-.5l-1.43.09c-.69.05-1.09.36-1.09.84,0,.51.42.83,1.04.83.81,0,1.48-.53,1.48-1.26Z"/><path class="cls-7" d="m532.48,920.62l-1.37-4.74c-.07-.24-.1-.39-.1-.57,0-.46.37-.79.9-.79.46,0,.76.28.87.79l1.01,4.4h.04l1.05-4.34c.12-.55.48-.85,1.05-.85s.91.3,1.03.85l1.06,4.34h.04l1.02-4.41c.1-.5.4-.77.86-.77.51,0,.88.32.88.79,0,.17-.03.32-.1.57l-1.37,4.75c-.19.67-.55.98-1.19.98-.68,0-1.04-.29-1.2-.98l-1.03-3.96h-.04l-1.03,3.97c-.16.67-.53.97-1.19.97s-.98-.3-1.17-.97Z"/><path class="cls-7" d="m541.64,920.63v-5.18c0-.58.34-.93.9-.93s.93.36.93.94v.38h.04c.36-.84,1.05-1.31,2.09-1.31,1.51,0,2.36.95,2.36,2.54v3.55c0,.63-.39.96-.93.96s-.93-.33-.93-.96v-3.17c0-.89-.42-1.4-1.25-1.4s-1.36.61-1.36,1.49v3.07c0,.63-.38.96-.93.96s-.93-.33-.93-.96Z"/><path class="cls-1" d="m854.68,709.26v-5.7c0-.49.27-.77.74-.77s.74.28.74.77v2.19h3.17v-2.19c0-.49.27-.77.74-.77s.74.28.74.77v5.7c0,.48-.27.77-.74.77s-.74-.28-.74-.77v-2.29h-3.17v2.29c0,.48-.27.77-.74.77s-.74-.28-.74-.77Z"/><path class="cls-1" d="m861.66,707.34c0-1.68.98-2.75,2.53-2.75s2.48,1.02,2.48,2.44c0,.4-.22.62-.62.62h-2.99v.06c0,.78.47,1.28,1.19,1.28.52,0,.86-.18,1.25-.63.15-.16.28-.21.46-.21.31,0,.56.2.56.52,0,.11-.03.23-.1.35-.35.64-1.16,1.03-2.17,1.03-1.64,0-2.6-1.01-2.6-2.71Zm3.64-.57c-.03-.68-.47-1.13-1.09-1.13s-1.08.46-1.13,1.13h2.22Z"/><path class="cls-1" d="m867.2,708.43c0-.95.73-1.5,2.04-1.58l1.32-.08v-.35c0-.49-.34-.77-.88-.77-.43,0-.7.14-1.02.55-.16.18-.34.26-.57.26-.35,0-.6-.22-.6-.55,0-.11.02-.21.07-.32.24-.62,1.08-1.01,2.17-1.01,1.34,0,2.22.69,2.22,1.75v2.98c0,.47-.29.72-.69.72s-.65-.21-.68-.63v-.27h-.03c-.29.56-.95.88-1.6.88-1,0-1.75-.64-1.75-1.59Zm3.36-.42v-.38l-1.1.07c-.53.04-.83.28-.83.65,0,.39.32.63.8.63.62,0,1.14-.41,1.14-.97Z"/><path class="cls-1" d="m874.02,709.31l-1.36-3.65c-.04-.13-.08-.28-.08-.42,0-.39.31-.64.71-.64.35,0,.58.19.68.57l1.06,3.51h.03l1.06-3.53c.1-.38.34-.56.67-.56.4,0,.69.27.69.63,0,.13-.03.28-.08.4l-1.36,3.68c-.18.5-.48.73-1,.73-.55,0-.84-.22-1.03-.73Z"/><path class="cls-1" d="m877.8,707.34c0-1.68.98-2.75,2.53-2.75s2.48,1.02,2.48,2.44c0,.4-.22.62-.62.62h-2.99v.06c0,.78.47,1.28,1.19,1.28.52,0,.86-.18,1.25-.63.15-.16.28-.21.46-.21.31,0,.56.2.56.52,0,.11-.03.23-.1.35-.35.64-1.16,1.03-2.17,1.03-1.64,0-2.6-1.01-2.6-2.71Zm3.64-.57c-.03-.68-.47-1.13-1.09-1.13s-1.08.46-1.13,1.13h2.22Z"/><path class="cls-1" d="m883.54,709.29v-3.98c0-.44.26-.72.69-.72s.71.27.71.72v.29h.03c.28-.65.81-1.01,1.61-1.01,1.16,0,1.82.73,1.82,1.96v2.73c0,.49-.3.74-.71.74s-.71-.25-.71-.74v-2.44c0-.68-.32-1.07-.96-1.07s-1.04.47-1.04,1.15v2.36c0,.49-.29.74-.71.74s-.71-.25-.71-.74Z"/><path class="cls-1" d="m537.24,323.82v-5.51c0-.48.27-.77.74-.77h2.33c1.32,0,2.15.68,2.15,1.76,0,.77-.58,1.42-1.32,1.53v.04c.96.07,1.66.77,1.66,1.7,0,1.24-.93,2.02-2.44,2.02h-2.38c-.46,0-.74-.28-.74-.77Zm2.53-3.34c.79,0,1.24-.35,1.24-.94s-.4-.89-1.08-.89h-1.21v1.83h1.06Zm.21,3.02c.85,0,1.31-.36,1.31-1.04s-.47-1.01-1.34-1.01h-1.24v2.05h1.27Z"/><path class="cls-1" d="m543.32,321.97c0-1.69,1.03-2.72,2.59-2.72s2.59,1.03,2.59,2.72-1.01,2.73-2.59,2.73-2.59-1.02-2.59-2.73Zm3.73,0c0-1.04-.45-1.64-1.14-1.64s-1.15.6-1.15,1.64.44,1.64,1.15,1.64,1.14-.59,1.14-1.64Z"/><path class="cls-1" d="m549.62,320.43h-.27c-.34,0-.55-.21-.55-.54s.21-.54.55-.54h.27v-.58c0-.46.27-.74.71-.74s.71.28.71.74v.58h.5c.34,0,.55.21.55.54s-.21.54-.55.54h-.5v2.5c0,.37.13.53.43.55h.09c.35.05.54.2.54.53,0,.42-.41.63-1.01.63h-.05c-.95,0-1.44-.47-1.44-1.4v-2.82Z"/><path class="cls-1" d="m553.17,320.43h-.27c-.34,0-.55-.21-.55-.54s.21-.54.55-.54h.27v-.58c0-.46.27-.74.71-.74s.71.28.71.74v.58h.5c.34,0,.55.21.55.54s-.21.54-.55.54h-.5v2.5c0,.37.13.53.43.55h.09c.35.05.54.2.54.53,0,.42-.41.63-1.01.63h-.05c-.95,0-1.44-.47-1.44-1.4v-2.82Z"/><path class="cls-1" d="m556.08,321.97c0-1.69,1.03-2.72,2.59-2.72s2.59,1.03,2.59,2.72-1.01,2.73-2.59,2.73-2.59-1.02-2.59-2.73Zm3.74,0c0-1.04-.45-1.64-1.14-1.64s-1.15.6-1.15,1.64.44,1.64,1.15,1.64,1.14-.59,1.14-1.64Z"/><path class="cls-1" d="m562,323.96v-3.97c0-.48.28-.73.69-.73s.69.25.69.73v.33h.03c.22-.63.78-1.04,1.49-1.04.76,0,1.28.39,1.46,1.07h.03c.23-.66.86-1.07,1.63-1.07,1.03,0,1.71.7,1.71,1.76v2.93c0,.48-.29.74-.72.74s-.71-.26-.71-.74v-2.58c0-.61-.3-.94-.85-.94s-.9.4-.9.98v2.54c0,.48-.26.74-.69.74s-.68-.26-.68-.74v-2.62c0-.56-.32-.89-.84-.89s-.91.41-.91,1v2.52c0,.48-.29.74-.71.74s-.71-.26-.71-.74Z"/><path class="cls-1" d="m572.73,324v-5.6c0-.6.35-.95.95-.95.51,0,.8.21,1.01.76l1.75,4.33h.04l1.74-4.33c.21-.54.5-.76,1.02-.76.6,0,.95.35.95.95v5.6c0,.43-.24.69-.66.69s-.65-.25-.65-.69v-4.16h-.04l-1.74,4.26c-.13.31-.32.45-.63.45s-.52-.14-.64-.44l-1.74-4.27h-.04v4.16c0,.43-.24.69-.65.69s-.66-.25-.66-.69Z"/><path class="cls-1" d="m581.22,317.97c0-.42.33-.74.76-.74s.76.32.76.74-.33.74-.76.74-.76-.33-.76-.74Zm.05,5.98v-3.96c0-.46.27-.75.71-.75s.71.28.71.75v3.96c0,.46-.27.74-.71.74s-.71-.28-.71-.74Z"/><path class="cls-1" d="m583.45,321.97c0-1.66.83-2.69,2.14-2.69.76,0,1.34.4,1.6.98h.03v-2.07c0-.49.3-.75.71-.75s.71.26.71.75v5.79c0,.47-.29.72-.71.72s-.72-.24-.72-.72v-.3h-.02c-.23.59-.81,1.01-1.61,1.01-1.31,0-2.13-1.04-2.13-2.71Zm3.78,0c0-.95-.45-1.56-1.16-1.56s-1.16.6-1.16,1.56.44,1.55,1.16,1.55,1.16-.6,1.16-1.55Z"/><path class="cls-1" d="m671.1,305.17v-5.51c0-.48.27-.77.74-.77h2.33c1.32,0,2.15.68,2.15,1.76,0,.77-.58,1.42-1.32,1.53v.04c.96.07,1.66.77,1.66,1.7,0,1.24-.93,2.02-2.44,2.02h-2.38c-.46,0-.74-.28-.74-.77Zm2.53-3.34c.79,0,1.24-.35,1.24-.94s-.4-.89-1.08-.89h-1.21v1.83h1.06Zm.21,3.02c.85,0,1.31-.36,1.31-1.04s-.47-1.01-1.34-1.01h-1.24v2.05h1.27Z"/><path class="cls-1" d="m677.18,303.35c0-1.68.98-2.75,2.53-2.75s2.48,1.02,2.48,2.44c0,.4-.22.62-.62.62h-2.99v.06c0,.78.47,1.28,1.19,1.28.52,0,.86-.18,1.25-.63.15-.16.28-.21.46-.21.31,0,.56.2.56.52,0,.11-.03.23-.1.35-.35.64-1.16,1.03-2.17,1.03-1.64,0-2.6-1.01-2.6-2.71Zm3.64-.57c-.03-.68-.47-1.13-1.09-1.13s-1.08.46-1.13,1.13h2.22Z"/><path class="cls-1" d="m682.93,305.3v-3.98c0-.44.26-.72.69-.72s.71.27.71.72v.29h.03c.28-.65.81-1.01,1.61-1.01,1.16,0,1.82.73,1.82,1.96v2.73c0,.49-.3.74-.71.74s-.71-.25-.71-.74v-2.44c0-.68-.32-1.07-.96-1.07s-1.04.47-1.04,1.15v2.36c0,.49-.29.74-.71.74s-.71-.25-.71-.74Z"/><path class="cls-1" d="m688.5,303.32c0-1.66.83-2.69,2.14-2.69.76,0,1.34.4,1.6.98h.03v-2.07c0-.49.3-.75.71-.75s.71.26.71.75v5.79c0,.47-.29.72-.71.72s-.72-.24-.72-.72v-.3h-.02c-.23.59-.81,1.01-1.61,1.01-1.31,0-2.13-1.04-2.13-2.71Zm3.78,0c0-.95-.45-1.56-1.16-1.56s-1.16.6-1.16,1.56.44,1.55,1.16,1.55,1.16-.6,1.16-1.55Z"/><path class="cls-1" d="m698.35,677.17v-5.51c0-.48.27-.77.74-.77h2.33c1.32,0,2.15.68,2.15,1.76,0,.77-.58,1.42-1.32,1.53v.04c.96.07,1.66.77,1.66,1.7,0,1.24-.93,2.02-2.44,2.02h-2.38c-.46,0-.74-.28-.74-.77Zm2.53-3.34c.79,0,1.24-.35,1.24-.94s-.4-.89-1.08-.89h-1.21v1.83h1.06Zm.21,3.02c.85,0,1.31-.36,1.31-1.04s-.47-1.01-1.34-1.01h-1.24v2.05h1.27Z"/><path class="cls-1" d="m706.72,677.17v-5.6c0-.49.27-.77.74-.77s.74.28.74.77v5.15h2.5c.4,0,.67.23.67.61s-.26.61-.67.61h-3.24c-.46,0-.74-.28-.74-.77Z"/><path class="cls-1" d="m712.01,671.32c0-.42.33-.74.76-.74s.76.32.76.74-.33.74-.76.74-.76-.33-.76-.74Zm.05,5.98v-3.96c0-.46.27-.75.71-.75s.71.28.71.75v3.96c0,.46-.27.74-.71.74s-.71-.28-.71-.74Z"/><path class="cls-1" d="m714.43,677.3v-3.98c0-.44.26-.72.69-.72s.71.27.71.72v.29h.03c.28-.65.81-1.01,1.61-1.01,1.16,0,1.82.73,1.82,1.96v2.73c0,.49-.3.74-.71.74s-.71-.25-.71-.74v-2.44c0-.68-.32-1.07-.96-1.07s-1.04.47-1.04,1.15v2.36c0,.49-.29.74-.71.74s-.71-.25-.71-.74Z"/><path class="cls-1" d="m720.22,677.3v-5.77c0-.49.3-.75.71-.75s.71.26.71.75v3.25h.02l1.89-1.9c.19-.2.35-.28.57-.28.37,0,.63.27.63.62,0,.21-.06.35-.27.54l-1.33,1.26,1.46,1.86c.16.21.2.34.2.52,0,.38-.28.64-.68.64-.3,0-.47-.11-.7-.44l-1.34-1.78-.45.42v1.06c0,.49-.29.74-.71.74s-.71-.25-.71-.74Z"/><path class="cls-1" d="m903.21,598.8v-15.97c0-1.4.79-2.22,2.14-2.22h6.75c3.84,0,6.25,1.97,6.25,5.1,0,2.24-1.67,4.11-3.84,4.43v.11c2.78.21,4.81,2.24,4.81,4.94,0,3.6-2.71,5.85-7.07,5.85h-6.91c-1.34,0-2.14-.82-2.14-2.24Zm7.35-9.7c2.28,0,3.58-1,3.58-2.73s-1.15-2.58-3.14-2.58h-3.51v5.31h3.07Zm.61,8.75c2.46,0,3.79-1.05,3.79-3s-1.37-2.93-3.89-2.93h-3.58v5.93h3.68Z"/><path class="cls-1" d="m83.19,595.08c-1.13,0-1.77-.57-2.17-1.93l-1.08-3.19h-7.38l-1.08,3.23c-.38,1.33-1.02,1.88-2.22,1.88s-2.14-.83-2.14-2.01c0-.42.07-.81.27-1.36l5.61-15.21c.61-1.67,1.6-2.41,3.27-2.41s2.62.76,3.21,2.42l5.58,15.19c.18.52.28,1.01.28,1.36,0,1.23-.84,2.01-2.17,2.01Zm-4.18-8.42l-2.65-8.37h-.1l-2.7,8.37h5.45Z"/><path class="cls-1" d="m833.78,148.04v-5.51c0-.48.27-.77.74-.77h2.33c1.32,0,2.15.68,2.15,1.76,0,.77-.58,1.42-1.32,1.53v.04c.96.07,1.66.77,1.66,1.7,0,1.24-.93,2.02-2.44,2.02h-2.38c-.46,0-.74-.28-.74-.77Zm2.53-3.34c.79,0,1.24-.35,1.24-.94s-.4-.89-1.08-.89h-1.21v1.83h1.06Zm.21,3.02c.85,0,1.31-.36,1.31-1.04s-.47-1.01-1.34-1.01h-1.24v2.05h1.27Z"/><path class="cls-1" d="m842.15,148.04v-5.6c0-.49.27-.77.74-.77s.74.28.74.77v5.15h2.5c.4,0,.67.23.67.61s-.26.61-.67.61h-3.24c-.46,0-.74-.28-.74-.77Z"/><path class="cls-1" d="m847.2,146.19c0-1.69,1.03-2.72,2.59-2.72s2.59,1.03,2.59,2.72-1.01,2.73-2.59,2.73-2.59-1.02-2.59-2.73Zm3.74,0c0-1.04-.45-1.64-1.14-1.64s-1.15.6-1.15,1.64.44,1.64,1.15,1.64,1.14-.59,1.14-1.64Z"/><path class="cls-1" d="m853.15,148.19v-5.79c0-.49.3-.75.71-.75s.71.26.71.75v2.08h.03c.29-.62.87-.99,1.62-.99,1.32,0,2.13,1.01,2.13,2.7s-.8,2.7-2.12,2.7c-.77,0-1.35-.37-1.64-.98h-.03v.28c0,.47-.29.72-.71.72s-.7-.24-.7-.72Zm3.74-2c0-.95-.44-1.56-1.15-1.56s-1.17.62-1.17,1.56.47,1.55,1.17,1.55,1.15-.6,1.15-1.55Z"/><path class="cls-1" d="m859.12,148.19v-5.79c0-.49.3-.75.71-.75s.71.26.71.75v2.08h.03c.29-.62.87-.99,1.62-.99,1.32,0,2.13,1.01,2.13,2.7s-.8,2.7-2.12,2.7c-.77,0-1.35-.37-1.64-.98h-.03v.28c0,.47-.29.72-.71.72s-.7-.24-.7-.72Zm3.74-2c0-.95-.44-1.56-1.15-1.56s-1.17.62-1.17,1.56.47,1.55,1.17,1.55,1.15-.6,1.15-1.55Z"/><path class="cls-1" d="m864.86,150.08c0-.29.2-.47.52-.47.1,0,.15,0,.25,0,.25,0,.52-.11.69-.47l.07-.19-1.67-4.4c-.05-.15-.08-.3-.08-.42,0-.39.32-.66.74-.66.38,0,.57.16.69.58l1.14,3.62h.02l1.14-3.63c.12-.4.32-.57.69-.57.41,0,.69.27.69.64,0,.12-.03.28-.08.42l-1.61,4.37c-.49,1.35-1.09,1.85-2.24,1.85-.62,0-.96-.24-.96-.67Z"/><path class="cls-1" d="m774.48,362.38v-5.51c0-.48.27-.77.74-.77h2.33c1.32,0,2.15.68,2.15,1.76,0,.77-.58,1.42-1.32,1.53v.04c.96.07,1.66.77,1.66,1.7,0,1.24-.93,2.02-2.44,2.02h-2.38c-.46,0-.74-.28-.74-.77Zm2.53-3.34c.79,0,1.24-.35,1.24-.94s-.4-.89-1.08-.89h-1.21v1.83h1.06Zm.21,3.02c.85,0,1.31-.36,1.31-1.04s-.47-1.01-1.34-1.01h-1.24v2.05h1.27Z"/><path class="cls-1" d="m782.86,362.56v-5.6c0-.6.35-.95.95-.95.51,0,.8.21,1.01.76l1.75,4.33h.04l1.74-4.33c.21-.54.5-.76,1.02-.76.6,0,.95.35.95.95v5.6c0,.43-.24.69-.66.69s-.65-.25-.65-.69v-4.16h-.04l-1.74,4.26c-.13.31-.32.45-.63.45s-.52-.14-.64-.44l-1.74-4.27h-.04v4.16c0,.43-.24.69-.65.69s-.66-.25-.66-.69Z"/><path class="cls-1" d="m791.06,361.65c0-.95.73-1.5,2.04-1.58l1.32-.08v-.35c0-.49-.34-.77-.88-.77-.43,0-.7.14-1.02.55-.16.18-.34.26-.57.26-.35,0-.6-.22-.6-.55,0-.11.02-.21.07-.32.24-.62,1.08-1.01,2.17-1.01,1.34,0,2.22.69,2.22,1.75v2.98c0,.47-.29.72-.69.72s-.65-.21-.68-.63v-.27h-.03c-.29.56-.95.88-1.6.88-1,0-1.75-.64-1.75-1.59Zm3.36-.42v-.38l-1.1.07c-.53.04-.83.28-.83.65,0,.39.32.63.8.63.62,0,1.14-.41,1.14-.97Z"/><path class="cls-1" d="m796.71,356.53c0-.42.33-.74.76-.74s.76.32.76.74-.33.74-.76.74-.76-.33-.76-.74Zm.05,5.98v-3.96c0-.46.27-.75.71-.75s.71.28.71.75v3.96c0,.46-.27.74-.71.74s-.71-.28-.71-.74Z"/><path class="cls-1" d="m799.13,362.51v-3.98c0-.44.26-.72.69-.72s.71.27.71.72v.29h.03c.28-.65.81-1.01,1.61-1.01,1.16,0,1.82.73,1.82,1.96v2.73c0,.49-.3.74-.71.74s-.71-.25-.71-.74v-2.44c0-.68-.32-1.07-.96-1.07s-1.04.47-1.04,1.15v2.36c0,.49-.29.74-.71.74s-.71-.25-.71-.74Z"/><path class="cls-1" d="m571.95,532.34v-5.6c0-.6.35-.95.95-.95.51,0,.8.21,1.01.76l1.75,4.33h.04l1.74-4.33c.21-.54.5-.76,1.02-.76.6,0,.95.35.95.95v5.6c0,.43-.24.69-.66.69s-.65-.25-.65-.69v-4.16h-.04l-1.74,4.26c-.13.31-.32.45-.63.45s-.52-.14-.64-.44l-1.74-4.27h-.04v4.16c0,.43-.24.69-.65.69s-.66-.25-.66-.69Z"/><path class="cls-1" d="m580.43,526.32c0-.42.33-.74.76-.74s.76.32.76.74-.33.74-.76.74-.76-.33-.76-.74Zm.05,5.98v-3.96c0-.46.27-.75.71-.75s.71.28.71.75v3.96c0,.46-.27.74-.71.74s-.71-.28-.71-.74Z"/><path class="cls-1" d="m582.66,530.31c0-1.66.83-2.69,2.14-2.69.76,0,1.34.4,1.6.98h.03v-2.07c0-.49.3-.75.71-.75s.71.26.71.75v5.79c0,.47-.29.72-.71.72s-.72-.24-.72-.72v-.3h-.02c-.23.59-.81,1.01-1.61,1.01-1.31,0-2.13-1.04-2.13-2.71Zm3.78,0c0-.95-.45-1.56-1.16-1.56s-1.16.6-1.16,1.56.44,1.55,1.16,1.55,1.16-.6,1.16-1.55Z"/><path class="cls-1" d="m261.15,188.34c0-.12.03-.29.1-.47l1.92-5.24c.21-.57.55-.83,1.11-.83s.92.25,1.13.83l1.93,5.24c.07.19.09.32.09.47,0,.41-.31.69-.74.69s-.63-.19-.77-.65l-.37-1.11h-2.54l-.37,1.1c-.14.47-.36.66-.75.66-.46,0-.75-.27-.75-.69Zm4.07-2.21l-.93-2.89h-.03l-.91,2.89h1.88Z"/><path class="cls-1" d="m270.31,188.17v-5.6c0-.49.27-.77.74-.77s.74.28.74.77v5.15h2.5c.4,0,.67.23.67.61s-.26.61-.67.61h-3.24c-.46,0-.74-.28-.74-.77Z"/><path class="cls-1" d="m275.35,186.32c0-1.69,1.03-2.72,2.59-2.72s2.59,1.03,2.59,2.72-1.01,2.73-2.59,2.73-2.59-1.02-2.59-2.73Zm3.74,0c0-1.04-.45-1.64-1.14-1.64s-1.15.6-1.15,1.64.44,1.64,1.15,1.64,1.14-.59,1.14-1.64Z"/><path class="cls-1" d="m281.3,188.32v-5.79c0-.49.3-.75.71-.75s.71.26.71.75v2.08h.03c.29-.62.87-.99,1.62-.99,1.32,0,2.13,1.01,2.13,2.7s-.8,2.7-2.12,2.7c-.77,0-1.35-.37-1.64-.98h-.03v.28c0,.47-.29.72-.71.72s-.7-.24-.7-.72Zm3.74-2c0-.95-.44-1.56-1.15-1.56s-1.17.62-1.17,1.56.47,1.55,1.17,1.55,1.15-.6,1.15-1.55Z"/><path class="cls-1" d="m287.27,188.32v-5.79c0-.49.3-.75.71-.75s.71.26.71.75v2.08h.03c.29-.62.87-.99,1.62-.99,1.32,0,2.13,1.01,2.13,2.7s-.8,2.7-2.12,2.7c-.77,0-1.35-.37-1.64-.98h-.03v.28c0,.47-.29.72-.71.72s-.7-.24-.7-.72Zm3.74-2c0-.95-.44-1.56-1.15-1.56s-1.17.62-1.17,1.56.47,1.55,1.17,1.55,1.15-.6,1.15-1.55Z"/><path class="cls-1" d="m293.02,190.21c0-.29.2-.47.52-.47.1,0,.15,0,.25,0,.25,0,.52-.11.69-.47l.07-.19-1.67-4.4c-.05-.15-.08-.3-.08-.42,0-.39.32-.66.74-.66.38,0,.57.16.69.58l1.14,3.62h.02l1.14-3.63c.12-.4.32-.57.69-.57.41,0,.69.27.69.64,0,.12-.03.28-.08.42l-1.61,4.37c-.49,1.35-1.09,1.85-2.24,1.85-.62,0-.96-.24-.96-.67Z"/><path class="cls-1" d="m279.64,484.59v-5.7c0-.49.27-.77.74-.77s.74.28.74.77v2.19h3.17v-2.19c0-.49.27-.77.74-.77s.74.28.74.77v5.7c0,.48-.27.77-.74.77s-.74-.28-.74-.77v-2.29h-3.17v2.29c0,.48-.27.77-.74.77s-.74-.28-.74-.77Z"/><path class="cls-1" d="m286.63,482.67c0-1.68.98-2.75,2.53-2.75s2.48,1.02,2.48,2.44c0,.4-.22.62-.62.62h-2.99v.06c0,.78.47,1.28,1.19,1.28.52,0,.86-.18,1.25-.63.15-.16.28-.21.46-.21.31,0,.56.2.56.52,0,.11-.03.23-.1.35-.35.64-1.16,1.03-2.17,1.03-1.64,0-2.6-1.01-2.6-2.71Zm3.64-.57c-.03-.68-.47-1.13-1.09-1.13s-1.08.46-1.13,1.13h2.22Z"/><path class="cls-1" d="m292.16,483.76c0-.95.73-1.5,2.04-1.58l1.32-.08v-.35c0-.49-.34-.77-.88-.77-.43,0-.7.14-1.02.55-.16.18-.34.26-.57.26-.35,0-.6-.22-.6-.55,0-.11.02-.21.07-.32.24-.62,1.08-1.01,2.17-1.01,1.34,0,2.22.69,2.22,1.75v2.98c0,.47-.29.72-.69.72s-.65-.21-.68-.63v-.27h-.03c-.29.56-.95.88-1.6.88-1,0-1.75-.64-1.75-1.59Zm3.36-.42v-.38l-1.1.07c-.53.04-.83.28-.83.65,0,.39.32.63.8.63.62,0,1.14-.41,1.14-.97Z"/><path class="cls-1" d="m298.98,484.64l-1.36-3.65c-.04-.13-.08-.28-.08-.42,0-.39.31-.64.71-.64.35,0,.58.19.68.57l1.06,3.51h.03l1.06-3.53c.1-.38.34-.56.67-.56.4,0,.69.27.69.63,0,.13-.03.28-.08.4l-1.36,3.68c-.18.5-.48.73-1,.73-.55,0-.84-.22-1.03-.73Z"/><path class="cls-1" d="m302.76,482.67c0-1.68.98-2.75,2.53-2.75s2.48,1.02,2.48,2.44c0,.4-.22.62-.62.62h-2.99v.06c0,.78.47,1.28,1.19,1.28.52,0,.86-.18,1.25-.63.15-.16.28-.21.46-.21.31,0,.56.2.56.52,0,.11-.03.23-.1.35-.35.64-1.16,1.03-2.17,1.03-1.64,0-2.6-1.01-2.6-2.71Zm3.64-.57c-.03-.68-.47-1.13-1.09-1.13s-1.08.46-1.13,1.13h2.22Z"/><path class="cls-1" d="m308.5,484.63v-3.98c0-.44.26-.72.69-.72s.71.27.71.72v.29h.03c.28-.65.81-1.01,1.61-1.01,1.16,0,1.82.73,1.82,1.96v2.73c0,.49-.3.74-.71.74s-.71-.25-.71-.74v-2.44c0-.68-.32-1.07-.96-1.07s-1.04.47-1.04,1.15v2.36c0,.49-.29.74-.71.74s-.71-.25-.71-.74Z"/><path class="cls-1" d="m951.23,307.02v-5.76c0-.47.27-.74.74-.74.3,0,.51.12.73.43l3.05,4.26h.04v-3.95c0-.47.26-.74.71-.74s.7.27.7.74v5.78c0,.46-.26.72-.72.72-.32,0-.51-.11-.74-.42l-3.06-4.28h-.04v3.97c0,.47-.26.74-.7.74s-.71-.27-.71-.74Z"/><path class="cls-1" d="m958.06,305.07c0-1.68.98-2.75,2.53-2.75s2.48,1.02,2.48,2.44c0,.4-.22.62-.62.62h-2.99v.06c0,.78.47,1.28,1.19,1.28.52,0,.86-.18,1.25-.63.15-.16.28-.21.46-.21.31,0,.56.2.56.52,0,.11-.03.23-.1.35-.35.64-1.16,1.03-2.17,1.03-1.64,0-2.6-1.01-2.6-2.71Zm3.64-.57c-.03-.68-.47-1.13-1.09-1.13s-1.08.46-1.13,1.13h2.22Z"/><path class="cls-1" d="m963.69,306.73c-.03-.09-.05-.19-.05-.26,0-.33.24-.55.58-.55.23,0,.42.1.62.32.28.37.6.53,1.14.53s.85-.21.85-.56c0-.28-.18-.43-.69-.55l-.88-.19c-1.03-.22-1.54-.74-1.54-1.52,0-1,.86-1.65,2.22-1.65,1.08,0,1.88.49,2.05,1.08.02.07.03.14.03.21,0,.29-.18.49-.55.49-.19,0-.39-.07-.52-.22-.25-.32-.53-.56-1.04-.56-.48,0-.82.23-.82.57,0,.27.21.45.73.57l.86.19c1.11.23,1.57.64,1.57,1.43,0,1.04-.93,1.71-2.31,1.71-1.2,0-2-.43-2.25-1.04Z"/><path class="cls-1" d="m969.34,303.5h-.27c-.34,0-.55-.21-.55-.54s.21-.54.55-.54h.27v-.58c0-.46.27-.74.71-.74s.71.28.71.74v.58h.5c.34,0,.55.21.55.54s-.21.54-.55.54h-.5v2.5c0,.37.13.53.43.55h.09c.35.05.54.2.54.53,0,.42-.41.63-1.01.63h-.05c-.95,0-1.44-.47-1.44-1.4v-2.82Z"/></g></svg>