<svg xmlns="http://www.w3.org/2000/svg" viewBox="0 0 948.1 892.06"><defs><style>.cls-1{fill:#003455;}.cls-2{fill:#33353b;}.cls-3{fill:#575548;}.cls-4{fill:#b0adb0;}.cls-5{fill:#656569;}.cls-6{fill:#d32027;}.cls-7{fill:#fff;}.cls-8{fill:#79c143;}</style></defs><title>Split Defence new site</title><g id="Body"><rect class="cls-1" x="609.96" y="312.75" width="128.16" height="42" transform="translate(132.27 739.16) rotate(-90)"/><rect class="cls-1" x="736.8" y="279.72" width="49.21" height="41.26" transform="translate(253.05 793.13) rotate(-90)"/><rect class="cls-1" x="748.76" y="276.96" width="14.51" height="5.97" transform="translate(268.06 767.33) rotate(-90)"/><rect class="cls-1" x="657.89" y="332.61" width="145.82" height="29.93" transform="translate(175.22 809.75) rotate(-90)"/><rect class="cls-1" x="681.69" y="276.25" width="89.39" height="111.3" transform="translate(186.47 789.66) rotate(-90)"/><rect class="cls-1" x="630.89" y="409.46" width="64.31" height="20.03" transform="translate(35.57 813.9) rotate(-90)"/><rect class="cls-1" x="553.96" y="316.73" width="41" height="182.83" transform="translate(-41.7 713.99) rotate(-90)"/><rect class="cls-1" x="476.67" y="432.31" width="87.71" height="74.97" transform="translate(-157.28 721.7) rotate(-90)"/><rect class="cls-1" x="365.12" y="390.6" width="49.99" height="196.11" transform="translate(-306.55 610.15) rotate(-90)"/><rect class="cls-1" x="179.35" y="604.38" width="259.99" height="34.58" transform="translate(-520.33 662.39) rotate(-90)"/><rect class="cls-1" x="268.56" y="546.17" width="54.99" height="101.97" transform="translate(-509.11 624.59) rotate(-90)"/><rect class="cls-1" x="297.63" y="495.2" width="80.87" height="49.96" transform="translate(-390.12 589.62) rotate(-90)"/><rect class="cls-1" x="310.9" y="557.57" width="41.36" height="30.92" transform="translate(-449.45 635.99) rotate(-90)"/><rect class="cls-1" x="263.2" y="683.81" width="129.12" height="6.59" transform="translate(-567.35 746.24) rotate(-90)"/><rect class="cls-1" x="284.45" y="698.05" width="79.01" height="28.21" transform="translate(-596.2 767.49) rotate(-90)"/><rect class="cls-1" x="320.23" y="670.3" width="46" height="50.7" transform="translate(-560.43 770.25) rotate(-90)"/><rect class="cls-1" x="347.06" y="672.64" width="112" height="47.99" transform="translate(-501.59 831.08) rotate(-90)"/><rect class="cls-1" x="481.5" y="646.2" width="37.1" height="64.02" transform="translate(-386.16 909.63) rotate(-90)"/><rect class="cls-1" x="455.04" y="719.6" width="135.99" height="66.07" transform="translate(-437.6 1007.05) rotate(-90)"/><rect class="cls-1" x="471.07" y="796.66" width="30.97" height="16.96" transform="translate(-526.6 1023.08) rotate(-90)"/><rect class="cls-1" x="435.17" y="666.44" width="33.03" height="83.43" transform="translate(-464.48 891.21) rotate(-90)"/><rect class="cls-1" x="238.84" y="786.87" width="280.45" height="32" transform="translate(-631.81 913.31) rotate(-90)"/><rect class="cls-1" x="191.94" y="902.53" width="173.24" height="22.99" transform="translate(-843.47 923.96) rotate(-90)"/><rect class="cls-1" x="246.18" y="802.77" width="96.01" height="139.75" transform="translate(-786.47 898.2) rotate(-90)"/><rect class="cls-1" x="224.67" y="916.06" width="32.97" height="64.18" transform="translate(-915 920.68) rotate(-90)"/><rect class="cls-1" x="160.44" y="859.54" width="137.26" height="31.99" transform="translate(-854.48 835.99) rotate(-90)"/><rect class="cls-1" x="239.97" y="905.77" width="25.02" height="41.53" transform="translate(-882.06 910.39) rotate(-90)"/><rect class="cls-1" x="203.04" y="786.66" width="30.99" height="18.95" transform="translate(-785.61 746.04) rotate(-90)"/><rect class="cls-1" x="338.25" y="935.67" width="64.2" height="22.6" transform="translate(-784.63 1048.7) rotate(-90)"/><rect class="cls-1" x="322.72" y="932.55" width="25" height="111.2" transform="translate(-860.94 1054.74) rotate(-90)"/><rect class="cls-1" x="326.88" y="944.45" width="104.38" height="38.01" transform="translate(-792.4 1073.9) rotate(-90)"/><rect class="cls-1" x="309.86" y="864.45" width="177.99" height="34.4" transform="translate(-690.81 1011.88) rotate(-90)"/><rect class="cls-1" x="351.23" y="836.82" width="134.99" height="46.65" transform="translate(-649.43 1010.25) rotate(-90)"/><rect class="cls-1" x="425.68" y="898.3" width="34.96" height="23.71" transform="translate(-675.01 1084.7) rotate(-90)"/><rect class="cls-1" x="445.03" y="892.35" width="23.97" height="24.62" transform="translate(-655.66 1093.05) rotate(-90)"/><rect class="cls-1" x="453.98" y="880.55" width="97.17" height="89.01" transform="translate(-630.49 1159) rotate(-90)"/><rect class="cls-1" x="486.31" y="837.29" width="73.41" height="48.12" transform="translate(-546.35 1115.74) rotate(-90)"/><rect class="cls-1" x="495.25" y="809.64" width="30.44" height="32.8" transform="translate(-523.58 1067.88) rotate(-90)"/><rect class="cls-1" x="557.68" y="791.27" width="27.99" height="94.74" transform="translate(-474.98 1141.69) rotate(-90)"/><rect class="cls-1" x="569.41" y="781.28" width="62.29" height="36.96" transform="translate(-407.21 1131.7) rotate(-90)"/><rect class="cls-1" x="642.91" y="735.49" width="27.03" height="93.29" transform="translate(-333.71 1169.94) rotate(-90)"/><rect class="cls-1" x="645.47" y="767.05" width="48.21" height="66.99" transform="translate(-338.98 1201.5) rotate(-90)"/><rect class="cls-1" x="698.54" y="800.19" width="24.95" height="23.97" transform="translate(-309.17 1254.56) rotate(-90)"/><rect class="cls-1" x="599.45" y="617.04" width="225.25" height="69.98" transform="translate(-147.97 1095.48) rotate(-90)"/><rect class="cls-1" x="670.41" y="754.18" width="37.28" height="20.05" transform="translate(-283.16 1184.62) rotate(-90)"/><rect class="cls-1" x="625.99" y="699.71" width="95.99" height="11.86" transform="translate(-239.66 1111) rotate(-90)"/><rect class="cls-1" x="600.5" y="592.24" width="154.65" height="11.49" transform="translate(-128.17 1007.19) rotate(-90)"/><rect class="cls-1" x="681.37" y="570.96" width="135.98" height="35.38" transform="translate(-47.3 1069.39) rotate(-90)"/><rect class="cls-1" x="702.66" y="495.83" width="27.64" height="77.31" transform="translate(-26.01 982.34) rotate(-90)"/><rect class="cls-1" x="766.84" y="542.37" width="32.01" height="36.53" transform="translate(14.2 1074.86) rotate(-90)"/><rect class="cls-1" x="753.57" y="533.15" width="95.99" height="52.99" transform="translate(33.91 1092.59) rotate(-90)"/><rect class="cls-1" x="851.57" y="552.15" width="62.98" height="48.01" transform="translate(98.9 1190.59) rotate(-90)"/><rect class="cls-1" x="853.43" y="502.28" width="59.27" height="48.01" transform="translate(148.76 1140.72) rotate(-90)"/><rect class="cls-1" x="900.4" y="496.1" width="28" height="29.07" transform="translate(195.75 1156.41) rotate(-90)"/><rect class="cls-1" x="871.07" y="460.64" width="200" height="96" transform="translate(254.42 1211.08) rotate(-90)"/><rect class="cls-1" x="845.05" y="333.65" width="42.02" height="140" transform="translate(254.4 1001.09) rotate(-90)"/><rect class="cls-1" x="874.81" y="415.5" width="54.39" height="57.89" transform="translate(249.56 1077.83) rotate(-90)"/><rect class="cls-1" x="708.64" y="305.24" width="34.04" height="204.79" transform="translate(110.02 864.68) rotate(-90)"/><rect class="cls-1" x="704.44" y="328.66" width="50.97" height="96.27" transform="translate(145.11 838.09) rotate(-90)"/><rect class="cls-1" x="355.57" y="992.14" width="55" height="120" transform="translate(-877.08 1166.59) rotate(-90)"/><rect class="cls-1" x="449.4" y="1014.99" width="33.99" height="95.33" transform="translate(-804.26 1260.42) rotate(-90)"/><rect class="cls-1" x="450.79" y="992.94" width="63.56" height="62.99" transform="translate(-749.88 1238.38) rotate(-90)"/><rect class="cls-1" x="518.5" y="909.07" width="64.99" height="64.16" transform="translate(-598.17 1223.52) rotate(-90)"/><rect class="cls-1" x="543.91" y="924.51" width="31.98" height="168.27" transform="translate(-656.76 1299.92) rotate(-90)"/><rect class="cls-1" x="554.47" y="977.18" width="33.21" height="24" transform="translate(-626.12 1291.63) rotate(-90)"/><rect class="cls-1" x="616.59" y="1037.16" width="166.94" height="78" transform="translate(-584.11 1507.59) rotate(-90)"/><rect class="cls-1" x="630.3" y="984.88" width="31.78" height="47.33" transform="translate(-570.36 1386.11) rotate(-90)"/><rect class="cls-1" x="666.08" y="937.66" width="93.97" height="51.99" transform="translate(-458.6 1408.1) rotate(-90)"/><rect class="cls-1" x="804.32" y="855.95" width="37.96" height="183.51" transform="translate(-332.42 1502.38) rotate(-90)"/><rect class="cls-1" x="741.41" y="889.32" width="94.31" height="29.01" transform="translate(-323.26 1423.76) rotate(-90)"/><rect class="cls-1" x="812.51" y="830.09" width="19.97" height="73.11" transform="translate(-252.16 1420.52) rotate(-90)"/><rect class="cls-1" x="793.44" y="802.24" width="99.24" height="31.99" transform="translate(-183.18 1392.67) rotate(-90)"/><rect class="cls-1" x="856.65" y="961.23" width="76.82" height="39.99" transform="translate(-294.18 1607.66) rotate(-90)"/><rect class="cls-1" x="935.05" y="948.65" width="30.99" height="110.98" transform="translate(-261.6 1686.07) rotate(-90)"/><rect class="cls-1" x="962.4" y="957.29" width="28.31" height="58.97" transform="translate(-218.23 1694.7) rotate(-90)"/><rect class="cls-1" x="942.16" y="933.44" width="85.82" height="28" transform="translate(-170.38 1663.88) rotate(-90)"/><rect class="cls-1" x="892.75" y="814.33" width="139.62" height="73" transform="translate(-96.28 1544.77) rotate(-90)"/><rect class="cls-1" x="878.05" y="751.64" width="89.99" height="64.02" transform="translate(-68.61 1438.07) rotate(-90)"/><rect class="cls-1" x="844.79" y="776.45" width="53.96" height="50.43" transform="translate(-137.91 1404.8) rotate(-90)"/><rect class="cls-1" x="804.79" y="729.93" width="139.52" height="24.97" transform="translate(-75.86 1348.34) rotate(-90)"/><rect class="cls-1" x="814.49" y="724.16" width="71.06" height="45.91" transform="translate(-105.1 1328.51) rotate(-90)"/><rect class="cls-1" x="827.76" y="712.38" width="11.02" height="7.89" transform="translate(-91.06 1280.97) rotate(-90)"/><rect class="cls-1" x="798.48" y="693" width="32.01" height="63.27" transform="translate(-118.17 1270.49) rotate(-90)"/><rect class="cls-1" x="751.56" y="713.14" width="64.01" height="55" transform="translate(-165.09 1255.58) rotate(-90)"/><rect class="cls-1" x="746.95" y="687.96" width="32.01" height="73.35" transform="translate(-169.69 1218.97) rotate(-90)"/><rect class="cls-1" x="1024.88" y="685.48" width="55.02" height="205.34" transform="translate(56.23 1571.91) rotate(-90)"/><rect class="cls-1" x="1031.53" y="856.13" width="184.07" height="62.99" transform="translate(27.93 1742.56) rotate(-90)"/><rect class="cls-1" x="1039.59" y="852.1" width="104.98" height="32.09" transform="translate(15.92 1691.6) rotate(-90)"/><rect class="cls-1" x="1004.19" y="801.27" width="67.98" height="170.77" transform="translate(-56.48 1656.21) rotate(-90)"/><rect class="cls-1" x="1034.57" y="609.16" width="103.99" height="70.99" transform="translate(233.9 1462.6) rotate(-90)"/><rect class="cls-1" x="1046.87" y="694.97" width="104.36" height="46.03" transform="translate(173.05 1548.41) rotate(-90)"/><rect class="cls-1" x="976.45" y="606.24" width="72.02" height="108.81" transform="translate(143.81 1404.48) rotate(-90)"/><rect class="cls-1" x="947.68" y="618.31" width="61.75" height="30.95" transform="translate(136.76 1343.72) rotate(-90)"/><rect class="cls-1" x="342.2" y="580.81" width="17.97" height="23.73" transform="translate(-449.51 675.24) rotate(-90)"/><rect class="cls-1" x="367.58" y="561.14" width="31.99" height="63" transform="translate(-417.08 707.59) rotate(-90)"/><rect class="cls-1" x="367.07" y="544.64" width="64" height="32" transform="translate(-369.58 691.09) rotate(-90)"/><rect class="cls-1" x="476.57" y="451.14" width="32.99" height="187.99" transform="translate(-260.08 769.58) rotate(-90)"/><rect class="cls-1" x="535.97" y="571.56" width="78.18" height="23.99" transform="translate(-216.5 889.99) rotate(-90)"/><rect class="cls-1" x="641.83" y="512.46" width="31.98" height="160.38" transform="translate(-142.83 981.84) rotate(-90)"/><polygon class="cls-1" points="487.02 1.05 512.05 6.04 530.03 6.04 545.02 4.07 550.99 4.07 550.99 7.12 548 19.45 482.41 25.52 476.88 4.07 476.88 1.05 487.02 1.05"/><path class="cls-1" d="M827.07,708.63l35-36h8.82L864.82,723s-32.56-3-33.17-3-14.36-5.86-14.36-5.86v-5.52Z" transform="translate(-208.01 -268.62)"/><polygon class="cls-1" points="514.99 531.07 495.06 511.86 477.92 511.86 478.63 537.14 514.99 535.22 514.99 531.07"/><rect class="cls-1" x="625.44" y="1034.26" width="151.34" height="64.1" transform="translate(-573.21 1498.79) rotate(-90)"/><polygon class="cls-1" points="479.06 700.99 461.05 722.01 461.05 724.03 483.12 724.12 482.04 701.74 479.06 698.37 479.06 700.99"/><rect class="cls-1" x="354.69" y="1006.19" width="47.73" height="25.08" transform="translate(-848.19 1128.66) rotate(-90)"/><polygon class="cls-1" points="190.06 714.87 201.1 702.02 201.1 689.23 188.41 693.98 182.54 706.02 183.96 715.32 190.06 714.87"/><polygon class="cls-1" points="20 512.01 82.05 556.02 67.39 589.52 5.07 577.12 6.99 512.01 20 512.01"/><path class="cls-1" d="M454.06,892.68l-12-24.15-6.34-.34.54,33.51s19-3.24,18.87-3.44S454.06,892.68,454.06,892.68Z" transform="translate(-208.01 -268.62)"/><polygon class="cls-1" points="260.07 607.84 286.06 558.44 298.97 556.56 296.68 614.94 259.13 614.26 260.07 607.84"/><path class="cls-1" d="M478.07,789.66l11.94-23,8.95.41s1.68,28.85,1.28,28.92-17.67,1.48-17.67,1.48l-4.5-4Z" transform="translate(-208.01 -268.62)"/><path class="cls-1" d="M532.06,659.66l24,25s-4.94,8.75-5.34,8.82-30.47,3.37-30.67,2.56,5.39-36.35,5.39-36.35Z" transform="translate(-208.01 -268.62)"/><polygon class="cls-1" points="171.05 372.02 139.11 404.03 143.86 411.75 187.06 405.07 179.71 372.02 171.05 372.02"/><rect class="cls-1" x="833.91" y="565.77" width="47.98" height="5.76" transform="translate(81.24 1157.94) rotate(-90)"/><rect class="cls-1" x="806.83" y="557.42" width="62.98" height="37.47" transform="translate(54.16 1145.84) rotate(-90)"/><rect class="cls-1" x="389.13" y="739.22" width="37.92" height="21.42" transform="translate(608.18 1231.25) rotate(180)"/><rect class="cls-1" x="276.08" y="611.4" width="20.73" height="140.26" transform="translate(364.88 1094.44) rotate(180)"/><polygon class="cls-1" points="777.05 492.01 755.05 470.03 743.63 470.03 744.28 497.8 780.49 497.1 779.17 492.01 777.05 492.01"/></g><g id="Body_merge" data-name="Body merge"><path class="cls-2" d="M213.08,811.63v120h-4v33h58v36h93v15H366v9H323.07v55h191v-55H644v-.2h17v135.19h78V966.69h136v52.95h131v-47h-7v-52h93v59h63v-219h-33v-168h-71v32H994v-16h25v-200h-83v-26h-140v8h-18v-14h4V275.74H759v-3.05h-6l-15,2h-18l-25-5H653v118H483v76h-191v106h-47v55h31v127h62v-33h25v106h-73l-62.05-44H209.06v31Zm214-87H490v42l-11.94,23v31h16v6.44l-26,49.4h-10v16.21h-4l-12-24.15V792.65h-47v-32h32v-36Zm48.7,268H451.07v53h-8v-21h-52v-9h7V983.49l11-12.84h6.94v-43h39v-11h3.05v57h101v19H475.76Zm211.31-76v53l-18,21v2h-86v-84h-36v-56h72v-57h17v29H723V799.7l-19.92-19.22V768.62h-4v-4h48v-24h9v32h55v-32h16v116h-53v72.07h-35V916.67Zm260,56v16h-32V928.73h-112v-52.1h56v-48h67v92h45v52Zm52-120v-37h77v37Zm-36-228h-5v72h118v64h-91l-22-22H891v36h-4v-102h-25l-35,36h-80v-52h20v-80h8v31h82v-15h2v15h48v-63h0v-20h16v84h40Zm-474.91-111H558v-85h95v23h20v-27h200v47h50v25h-64v48h-31v-33h-53v33h-8v-24h-95v56h-85v-48h-204v48h-31v7.05h-5V560.62h16v-47H488.17Zm-150.1,159h-7v-48h16v-23h5v7h63v-47h148v61h24v-14h85v49h-4v96h9v11H679v4H582.08v56H526.87v-4h29.2v-136l-24-25H468v32h-41v-51h-48l-31.94,32Zm21,248v55h-69v-55Z" transform="translate(-208.01 -268.62)"/></g><g id="Bombsite"><polygon class="cls-3" points="732.02 571.02 732.02 583.53 732.02 598.42 732.02 652.22 817.95 652.22 851.04 652.22 867.06 652.22 867.06 631.02 851.04 631.02 851.04 583.53 791.05 583.53 791.05 571.02 732.02 571.02"/><polygon class="cls-3" points="1.02 543.44 4.9 543.44 4.9 555.34 4.9 559.35 4.9 630.11 4.9 652.25 4.9 662.74 0.95 662.74 0.95 696.18 58.02 696.18 58.02 697.02 82.43 697.02 82.43 696.18 82.43 691.72 82.43 666.44 82.43 662.74 82.43 652.25 109.03 652.25 109.03 555.34 88.43 555.34 82.48 555.34 21.55 512.03 1.02 512.03 1.02 543.44"/><rect class="cls-2" x="247.51" y="865.12" width="30.13" height="14.16" transform="translate(-817.63 866.16) rotate(-90)"/><rect class="cls-2" x="290.62" y="905.22" width="16" height="16" transform="translate(-822.61 943.21) rotate(-90)"/><rect class="cls-2" x="940.06" y="872.61" width="14.06" height="15.17" transform="translate(-141.12 1558.65) rotate(-90)"/><rect class="cls-2" x="1027.06" y="852.59" width="16.04" height="15.17" transform="translate(-33.1 1626.63) rotate(-90)"/></g><g id="Lines"><path class="cls-4" d="M546.1,893.66v14h-14v-14h14m1-1h-16v16h16v-16Z" transform="translate(-208.01 -268.62)"/><path class="cls-4" d="M546.1,884.66v8h-13v-8h13m1-1h-15v10h15v-10Z" transform="translate(-208.01 -268.62)"/><path class="cls-4" d="M556.09,753.66v14h-20v-14h20m1-1h-22v16h22v-16Z" transform="translate(-208.01 -268.62)"/><path class="cls-4" d="M556.08,769.59v6h-8v-6h8m1-1h-10v8h10v-8Z" transform="translate(-208.01 -268.62)"/><path class="cls-4" d="M427.07,849.65v14h-15v-14h15m1-1h-17v16h17v-16Z" transform="translate(-208.01 -268.62)"/><path class="cls-4" d="M306.1,905.71v14.95h-15V905.71h15m1-1h-17v16.95h17V904.71Z" transform="translate(-208.01 -268.62)"/><path class="cls-4" d="M269.06,857.68v29H256v-29h13m1-1H255v31h15v-31Z" transform="translate(-208.01 -268.62)"/><path class="cls-4" d="M427.05,729.67v31H412v-31h15m1-1H411v33h17v-33Z" transform="translate(-208.01 -268.62)"/><path class="cls-4" d="M306,544.65v24H292v-24h14m1-1H291v26h16v-26Z" transform="translate(-208.01 -268.62)"/><path class="cls-4" d="M306,553.69v15H292v-15h14m1-1H291v17h16v-17Z" transform="translate(-208.01 -268.62)"/><path class="cls-4" d="M299,491.66v35h-7v-35h7m1-1h-9v37h9v-37Z" transform="translate(-208.01 -268.62)"/><path class="cls-4" d="M306.06,464.61v8h-14v-8h14m1-1h-16v10h16v-10Z" transform="translate(-208.01 -268.62)"/><path class="cls-4" d="M538.07,497.63v16h-30v-16h30m1-1h-32v18h32v-18Z" transform="translate(-208.01 -268.62)"/><path class="cls-4" d="M538.07,497.63v16h-15v-16h15m1-1h-17v18h17v-18Z" transform="translate(-208.01 -268.62)"/><path class="cls-4" d="M939,472.64v15h-16v-15h16m1-1h-18v17h18v-17Z" transform="translate(-208.01 -268.62)"/><path class="cls-4" d="M957.06,408.63v14h-20v-14h20m1-1h-22v16h22v-16Z" transform="translate(-208.01 -268.62)"/><path class="cls-4" d="M1019.08,408.63v16h-29v-1.87l-.9-.1-31.06-3.21v-10.8h61m1-1h-63v12.7l32,3.31v2h31v-18Z" transform="translate(-208.01 -268.62)"/><path class="cls-4" d="M1019.09,552.66v56H995v-56h24.06m1-1H994v58h26.06v-58Z" transform="translate(-208.01 -268.62)"/><path class="cls-4" d="M993.12,552.66v8h-5v-8h5m1-1h-7v10h7v-10Z" transform="translate(-208.01 -268.62)"/><path class="cls-4" d="M591.07,787.53v6.11h-8v-6.11h8m1-1H582v8.11h10v-8.11Z" transform="translate(-208.01 -268.62)"/><path class="cls-4" d="M592.05,769.59v16h-9v-16h9m1-1H582v18h11v-18Z" transform="translate(-208.01 -268.62)"/><path class="cls-4" d="M684.06,693.64v14.05H669V693.64h15m1-1H668v16.05h17V692.64Z" transform="translate(-208.01 -268.62)"/><path class="cls-4" d="M702.05,609.64v13H672v-13h30m1-1H671v15h32v-15Z" transform="translate(-208.01 -268.62)"/><path class="cls-4" d="M766.15,520.64V536H752V520.64h14.19m1-1H751V537h16.19V519.64Z" transform="translate(-208.01 -268.62)"/><path class="cls-4" d="M747.65,521.67a2.31,2.31,0,1,1-2.31,2.3,2.31,2.31,0,0,1,2.31-2.3m0-1A3.31,3.31,0,1,0,751,524a3.31,3.31,0,0,0-3.31-3.3Z" transform="translate(-208.01 -268.62)"/><path class="cls-4" d="M790.07,593.66v14h-14v-14h14m1-1h-16v16h16v-16Z" transform="translate(-208.01 -268.62)"/><path class="cls-4" d="M907.08,525.64v82.07h-8V525.64h8m1-1h-10v84.07h10V524.64Z" transform="translate(-208.01 -268.62)"/><path class="cls-4" d="M1018,680.66v16h-14.95v-16H1018m1-1h-16.95v18H1019v-18Z" transform="translate(-208.01 -268.62)"/><path class="cls-4" d="M997.31,687.94a3.81,3.81,0,1,1-3.8,3.81,3.81,3.81,0,0,1,3.8-3.81m0-1a4.81,4.81,0,1,0,4.8,4.81,4.8,4.8,0,0,0-4.8-4.81Z" transform="translate(-208.01 -268.62)"/><path class="cls-4" d="M1106,592.66v3h-21v-3h21m1-1h-23v5h23v-5Z" transform="translate(-208.01 -268.62)"/><path class="cls-4" d="M1122.08,592.65v15h-15v-15h15m1-1h-17v17h17v-17Z" transform="translate(-208.01 -268.62)"/><path class="cls-4" d="M1119.64,609.64a1.42,1.42,0,1,1-1.42,1.42,1.42,1.42,0,0,1,1.42-1.42m0-1a2.42,2.42,0,1,0,2.42,2.42,2.42,2.42,0,0,0-2.42-2.42Z" transform="translate(-208.01 -268.62)"/><path class="cls-4" d="M1122.08,696.64v15h-14v-15h14m1-1h-16v17h16v-17Z" transform="translate(-208.01 -268.62)"/><path class="cls-4" d="M1138,760.63v15h-14.94v-15H1138m1-1h-16.94v17H1139v-17Z" transform="translate(-208.01 -268.62)"/><path class="cls-4" d="M1155.08,760.64v36h-16v-36h16m1-1h-18v38h18v-38Z" transform="translate(-208.01 -268.62)"/><path class="cls-4" d="M1155.08,776.66v20h-16v-20h16m1-1h-18v22h18v-22Z" transform="translate(-208.01 -268.62)"/><path class="cls-4" d="M1155.06,864.66v16h-40v-16h40m1-1h-42v18h42v-18Z" transform="translate(-208.01 -268.62)"/><path class="cls-4" d="M1107,965.66v14h-15v-14h15m1-1h-17v16h17v-16Z" transform="translate(-208.01 -268.62)"/><path class="cls-4" d="M1100,956.66v8h-8v-8h8m1-1h-10v10h10v-10Z" transform="translate(-208.01 -268.62)"/><path class="cls-4" d="M1042.07,852.64v15h-14v-15h14m1-1h-16v17h16v-17Z" transform="translate(-208.01 -268.62)"/><path class="cls-4" d="M1015,800.65v15h-14.94v-15H1015m1-1H999.06v17H1016v-17Z" transform="translate(-208.01 -268.62)"/><path class="cls-4" d="M954.07,873.71v13H940v-13h14m1-1H939v15h16v-15Z" transform="translate(-208.01 -268.62)"/><path class="cls-4" d="M914.1,929.6v14h-14v-14h14m1-1h-16v16h16v-16Z" transform="translate(-208.01 -268.62)"/><path class="cls-4" d="M842.08,769.7v14.94h-15V769.7h15m1-1h-17v16.94h17V768.7Z" transform="translate(-208.01 -268.62)"/><polygon class="cls-4" points="219.06 581.02 219.06 659.77 220.06 659.77 220.06 581.02 234.72 581.02 234.72 580.02 220.06 580.02 219.06 580.02 217.66 580.02 217.66 581.02 219.06 581.02"/><rect class="cls-4" x="478.87" y="679.44" width="1" height="23.39" transform="translate(-419.78 901.88) rotate(-90)"/><rect class="cls-4" x="567.17" y="838.27" width="28.8" height="1.01" transform="translate(-465.21 1151.72) rotate(-90)"/><rect class="cls-4" x="605.76" y="781.63" width="27.58" height="1.03" transform="translate(-370.6 1133.07) rotate(-90)"/><polygon class="cls-4" points="493.06 388.08 460.02 388.08 460.02 389.02 493.06 389.02 493.06 440.01 494.06 440.01 494.06 388.02 493.06 388.02 493.06 388.08"/><rect class="cls-4" x="365.71" y="592.04" width="33.71" height="1" transform="translate(-417.98 706.48) rotate(-90)"/><polygon class="cls-4" points="718.06 531.02 716.05 531.02 715.62 531.02 715.06 531.02 715.06 543.03 683.03 543.03 683.03 504.81 682.03 504.81 682.03 543.03 682.03 543.6 682.03 544.02 716.05 544.02 716.05 543.52 716.05 543.03 716.05 532.02 731.04 532.02 731.04 652.8 732.02 652.8 732.02 532.02 732.02 531.02 731.04 531.02 719.05 531.02 719.05 492.02 777.72 492.02 777.72 491.02 719.05 491.02 718.74 491.02 718.06 491.02 718.06 531.02"/><path class="cls-4" d="M679.07,649.67v7h-7v-7h7m1-1h-9v9h9v-9Z" transform="translate(-208.01 -268.62)"/><rect class="cls-4" x="290.08" y="624.65" width="0.99" height="127.62" transform="translate(373.15 1108.3) rotate(180)"/></g><g id="Outlines"><path class="cls-5" d="M695,269.67l25,5h18l15-2h6v3.05h23V376.6h-4v14h18v-8h140v26h83v200H994v16h57v-32h71v168h33v219h-63v-59h-93v52h7v47h-131V966.69h-136v192.94h-78V1024.44H644v.2h-130v55h-191v-55H366v-9h-5.95v-15h-93v-36h-58v-33h4v-120h-4v-31H228l62.05,44h73v-106h-25v33h-62v-127h-31v-55h47v-106h191v-76H653v-118h42m-42,182v-23H558v85H363v47H347V583.7h5v-7.05h31v-48h204v48h85v-56h95v24h8v-33h53v33h31v-48h64v-25h-50v-47h-200v27H653m254,93h0v63h-48v-15h-2v15h-82v-31h-8v80h-20v52h80l35-36h25v102h4v-36h72l22,22h91v-64h-118v-72h5v-16h-40v-84h-16v20m-555,64v-7h-5v23h-16v48h16.06l31.94-32h48v51h41v-32h64l24,25v136h-29.2v4h55.21v-56H679v-4h-1.94v-11h-9v-96h4v-49h-85v14h-24v-61h-148v47h-63m43,184h47v75.88l12,24.15h4V876.47h10l26-49.4v-6.44h-16v-31l11.94-23v-42H427.06v36h-32v32m361-20v-32h-9v24h-48v4h4v11.86L723,799.7v24.95H636.08v-29H619v57h-72v56h36v84h86v-2l18-21v-53h52v12.06h35V856.66h53v-116h-16v32h-55m243,80h77v-37h-77v37m-196,76.07h112v59.92h32v-16h24v-52h-45v-92h-67v48h-56v52.1m-412,95.91h52v21h8v-53h108v-19h-101v-57H455v11h-39v43h-6.94l-11,12.84v32.16h-7v9m-101-49h69v-55h-69v55m405.08-707H652v118H482v76H291v106H244V625.7h31v127h64.09v-33H362V823.59H290.39l-61.77-43.81-.27-.2H208v33.1h4V930.61h-4v35.07h58v36h93v15H365v6.89H322v57.1H515.11v-55h130v-.2H660v135.19h80.1V967.74H874v53h133.08V971.57h-7V921.69H1091v59h65.09V759.59h-33v-168H1050v32H995.08V609.69h25V407.59h-83v-26H795v8h-15.9V377.65h4v-103H760v-3.05h-7.15l-14.92,2h-17.8l-24.93-5-.1,0Zm-21,157.09H872v47h50v22.9H858v48h-28.9v-33H774v33H768.1v-24H671v56H588.11v-48H382v48H351v7h-2.93v-21h16v-47h195v-85H652v23h22.14v-27Zm234,100H922v84h40v13.89h-5V697.7h118v61.89H985.49L963.8,737.91l-.3-.31H890v36h-1.9v-102H861.63l-.31.32-34.7,35.66H748.11V657.69h20v-80H774v31h134.1V543.61h0V525.69Zm-492,37H562v61h26.09v-14H671v46.9h-4v98.09h9v11H678v1.86H581v56H527.92v-1.92h29.2V684.21l-.29-.3-24-25-.31-.32H467v32H428.11v-51H378.63l-.31.31-31.64,31.7H332.11V625.7h16v-23H351v7h65.1v-47Zm12,163H489v40.7l-11.82,22.77-.12.22v32.28h16v5.13l-25.58,48.61H457v16.21h-2.31l-11.6-23.35V791.6h-47V761.7h32v-36Zm384,16H826V855.61H773v72.07h-32.9V915.62H686v53.61L668.26,990l-.25.29v1.36H584.12v-84h-36V853.68h72v-57H635v29h89V799.25l-.32-.31L704.12,780V767.57h-4v-1.86h48v-24H755v32h57.1v-32Zm188,75H1075v34.9h-74.87v-34.9Zm-140,13H925v92h45v49.88H946v16H916.1V927.68h-112v-50h56v-48Zm-404,88H457v57H558v16.91H450v53h-5.9v-21h-52v-6.89h7V983.88l10.47-12.18h7.51v-43h39v-11Zm-165,4H358v52.9H291.11V921.7Z" transform="translate(-208.01 -268.62)"/></g><g id="Callouts_copy" data-name="Callouts copy"><path class="cls-6" d="M672.58,303.73a2,2,0,0,1,.12-.61l2.5-6.81a1.52,1.52,0,0,1,2.91,0l2.52,6.82a1.92,1.92,0,0,1,.12.61.89.89,0,0,1-1,.9c-.54,0-.83-.25-1-.84l-.48-1.45H675l-.48,1.43c-.18.61-.47.86-1,.86A.87.87,0,0,1,672.58,303.73Zm5.28-2.87-1.21-3.76h0l-1.19,3.76Z" transform="translate(-208.01 -268.62)"/><path class="cls-6" d="M681.8,299.1h-.36a.7.7,0,1,1,0-1.39h.36V297a.93.93,0,1,1,1.85,0v.76h.66a.7.7,0,1,1,0,1.39h-.66v3.26c0,.48.17.69.57.72h.12c.45.05.7.24.7.67s-.53.83-1.31.83h-.06a1.64,1.64,0,0,1-1.87-1.82Z" transform="translate(-208.01 -268.62)"/><path class="cls-6" d="M686.42,299.1h-.36a.7.7,0,1,1,0-1.39h.36V297a.93.93,0,1,1,1.85,0v.76h.66a.7.7,0,1,1,0,1.39h-.66v3.26c0,.48.17.69.57.72H689c.46.05.7.24.7.67s-.53.83-1.31.83h-.06a1.64,1.64,0,0,1-1.87-1.82Z" transform="translate(-208.01 -268.62)"/><path class="cls-6" d="M690.22,302.56c0-1.24.95-2,2.65-2.06l1.71-.1V300c0-.64-.44-1-1.14-1a1.5,1.5,0,0,0-1.32.72.93.93,0,0,1-.74.34.71.71,0,0,1-.77-.71.86.86,0,0,1,.1-.41c.31-.82,1.4-1.32,2.81-1.32,1.75,0,2.89.9,2.89,2.27v3.88a.85.85,0,0,1-.91.94.81.81,0,0,1-.88-.83v-.35h0a2.36,2.36,0,0,1-2.08,1.15A2.1,2.1,0,0,1,690.22,302.56Zm4.36-.54v-.5l-1.43.09c-.69.05-1.09.36-1.09.85s.42.82,1,.82A1.36,1.36,0,0,0,694.58,302Z" transform="translate(-208.01 -268.62)"/><path class="cls-6" d="M697.35,301.11a3.22,3.22,0,0,1,3.34-3.55,3,3,0,0,1,2.87,1.63,1.31,1.31,0,0,1,.1.45.73.73,0,0,1-.79.73.81.81,0,0,1-.78-.49,1.46,1.46,0,0,0-1.34-.87c-.94,0-1.52.78-1.52,2.09s.58,2.1,1.5,2.1a1.45,1.45,0,0,0,1.34-.8.9.9,0,0,1,.84-.54.73.73,0,0,1,.78.74,1.17,1.17,0,0,1-.12.48,3.08,3.08,0,0,1-2.87,1.58A3.21,3.21,0,0,1,697.35,301.11Z" transform="translate(-208.01 -268.62)"/><path class="cls-6" d="M704.73,303.68v-7.5a.93.93,0,1,1,1.85,0v4.22h0l2.46-2.46a1,1,0,0,1,.73-.37.8.8,0,0,1,.83.8.84.84,0,0,1-.35.7l-1.73,1.64,1.9,2.42a1,1,0,0,1,.26.68.83.83,0,0,1-.89.84c-.39,0-.61-.14-.9-.58l-1.75-2.31-.59.54v1.38a.93.93,0,1,1-1.85,0Z" transform="translate(-208.01 -268.62)"/><path class="cls-6" d="M711.11,301.14c0-2.19,1.28-3.58,3.29-3.58a3.06,3.06,0,0,1,3.23,3.17.73.73,0,0,1-.81.8h-3.89v.09a1.51,1.51,0,0,0,1.55,1.67,1.94,1.94,0,0,0,1.63-.82.73.73,0,0,1,.6-.28.68.68,0,0,1,.73.68,1,1,0,0,1-.13.45,3.07,3.07,0,0,1-2.82,1.34A3.17,3.17,0,0,1,711.11,301.14Zm4.73-.74a1.41,1.41,0,0,0-1.42-1.47A1.48,1.48,0,0,0,713,300.4Z" transform="translate(-208.01 -268.62)"/><path class="cls-6" d="M718.58,303.68V298.5a.89.89,0,1,1,1.77,0v.44h0a1.49,1.49,0,0,1,1.41-1.34.89.89,0,0,1,.58.17.82.82,0,0,1,.27.69.81.81,0,0,1-.27.66,1.22,1.22,0,0,1-.81.24c-.84,0-1.14.49-1.14,1.3v3a.93.93,0,1,1-1.85,0Z" transform="translate(-208.01 -268.62)"/><path class="cls-6" d="M725.92,302.91a1.39,1.39,0,0,1-.11-.52.8.8,0,0,1,.85-.84.92.92,0,0,1,.88.56,1.9,1.9,0,0,0,1.89,1c1,0,1.73-.49,1.73-1.17s-.43-.94-1.58-1.18l-1-.19c-1.83-.36-2.73-1.24-2.73-2.6,0-1.68,1.46-2.79,3.5-2.79,1.68,0,2.94.71,3.35,1.9a1.38,1.38,0,0,1,.07.43.75.75,0,0,1-.82.76,1,1,0,0,1-.92-.56,1.65,1.65,0,0,0-1.68-1c-.94,0-1.57.45-1.57,1.12s.44.91,1.52,1.13l1,.2c2,.38,2.79,1.16,2.79,2.55,0,1.79-1.41,2.92-3.69,2.92C727.5,304.66,726.28,303.91,725.92,302.91Z" transform="translate(-208.01 -268.62)"/><path class="cls-6" d="M734.08,306v-7.45a.92.92,0,1,1,1.83,0v.36h0a2.21,2.21,0,0,1,2.11-1.29c1.73,0,2.79,1.31,2.79,3.51s-1.06,3.51-2.76,3.51a2.22,2.22,0,0,1-2.11-1.25h0V306a.93.93,0,1,1-1.86,0Zm4.87-4.86c0-1.23-.59-2-1.51-2s-1.51.81-1.51,2,.6,2,1.51,2S739,302.35,739,301.11Z" transform="translate(-208.01 -268.62)"/><path class="cls-6" d="M741.53,302.56c0-1.24,1-2,2.65-2.06l1.72-.1V300a1,1,0,0,0-1.14-1,1.49,1.49,0,0,0-1.32.72.94.94,0,0,1-.74.34.72.72,0,0,1-.78-.71,1,1,0,0,1,.1-.41c.32-.82,1.41-1.32,2.82-1.32,1.74,0,2.88.9,2.88,2.27v3.88a.85.85,0,0,1-.9.94.82.82,0,0,1-.89-.83v-.35h0a2.36,2.36,0,0,1-2.08,1.15A2.1,2.1,0,0,1,741.53,302.56Zm4.37-.54v-.5l-1.44.09c-.69.05-1.08.36-1.08.85s.42.82,1,.82A1.37,1.37,0,0,0,745.9,302Z" transform="translate(-208.01 -268.62)"/><path class="cls-6" d="M750,303.67l-1.37-4.74a1.9,1.9,0,0,1-.1-.57.81.81,0,0,1,.89-.79.85.85,0,0,1,.87.78l1,4.4h0l1-4.33a1.07,1.07,0,0,1,2.09,0l1.06,4.33h0l1-4.41a.85.85,0,0,1,.86-.77.79.79,0,0,1,.87.78,1.9,1.9,0,0,1-.1.57l-1.37,4.75a1.14,1.14,0,0,1-1.19,1,1.08,1.08,0,0,1-1.19-1l-1-4h0l-1,4a1.08,1.08,0,0,1-1.18,1C750.53,304.65,750.19,304.35,750,303.67Z" transform="translate(-208.01 -268.62)"/><path class="cls-6" d="M759.15,303.68V298.5a.84.84,0,0,1,.9-.93.86.86,0,0,1,.92.94v.38h0a2.08,2.08,0,0,1,2.1-1.31,2.24,2.24,0,0,1,2.36,2.55v3.55a.93.93,0,1,1-1.86,0v-3.17c0-.89-.41-1.39-1.25-1.39a1.34,1.34,0,0,0-1.35,1.49v3.07a.93.93,0,1,1-1.86,0Z" transform="translate(-208.01 -268.62)"/><path class="cls-7" d="M1045.13,659.5V654a.68.68,0,0,1,.73-.77h2.33c1.33,0,2.16.68,2.16,1.76a1.57,1.57,0,0,1-1.33,1.53v0a1.7,1.7,0,0,1,1.66,1.7c0,1.24-.93,2-2.43,2h-2.39A.69.69,0,0,1,1045.13,659.5Zm2.53-3.35c.79,0,1.24-.35,1.24-.94s-.4-.89-1.09-.89h-1.21v1.83Zm.21,3c.85,0,1.31-.36,1.31-1s-.47-1-1.34-1h-1.24v2Z" transform="translate(-208.01 -268.62)"/><path class="cls-7" d="M1053.5,659.67v-5.59a.88.88,0,0,1,1-1,1,1,0,0,1,1,.76l1.75,4.34h0l1.74-4.34a1,1,0,0,1,1-.76.87.87,0,0,1,1,1v5.59a.66.66,0,1,1-1.31,0v-4.16h0l-1.74,4.26a.68.68,0,0,1-1.27,0l-1.75-4.27h0v4.16a.66.66,0,1,1-1.31,0Z" transform="translate(-208.01 -268.62)"/><path class="cls-7" d="M1061.7,658.76c0-1,.73-1.5,2-1.58l1.32-.08v-.34c0-.49-.34-.78-.88-.78a1.16,1.16,0,0,0-1,.56.71.71,0,0,1-.56.26.55.55,0,0,1-.6-.55.92.92,0,0,1,.07-.32,2.22,2.22,0,0,1,2.17-1c1.34,0,2.22.69,2.22,1.75v3a.65.65,0,0,1-.69.72.64.64,0,0,1-.69-.64v-.26h0a1.81,1.81,0,0,1-1.6.88A1.62,1.62,0,0,1,1061.7,658.76Zm3.36-.41V658L1064,658c-.53,0-.83.27-.83.64s.32.64.8.64A1.06,1.06,0,0,0,1065.06,658.35Z" transform="translate(-208.01 -268.62)"/><path class="cls-7" d="M1067.35,653.65a.74.74,0,0,1,.76-.74.74.74,0,1,1,0,1.47A.73.73,0,0,1,1067.35,653.65Zm.05,6v-4a.68.68,0,0,1,.71-.75.69.69,0,0,1,.72.75v4a.68.68,0,0,1-.72.74A.67.67,0,0,1,1067.4,659.63Z" transform="translate(-208.01 -268.62)"/><path class="cls-7" d="M1069.77,659.63v-4a.65.65,0,0,1,.69-.72.68.68,0,0,1,.72.73v.29h0a1.59,1.59,0,0,1,1.61-1,1.73,1.73,0,0,1,1.81,2v2.74a.71.71,0,1,1-1.42,0v-2.44c0-.68-.33-1.07-1-1.07a1,1,0,0,0-1,1.14v2.37a.67.67,0,0,1-.71.74A.67.67,0,0,1,1069.77,659.63Z" transform="translate(-208.01 -268.62)"/><path class="cls-7" d="M825.76,574.56V569a.88.88,0,0,1,1-1,1,1,0,0,1,1,.77l1.75,4.33h0l1.74-4.33a1,1,0,0,1,1-.77.88.88,0,0,1,1,1v5.59a.66.66,0,1,1-1.32,0V570.4h0l-1.75,4.26a.62.62,0,0,1-.63.45.63.63,0,0,1-.64-.44l-1.74-4.27h0v4.16a.66.66,0,1,1-1.31,0Z" transform="translate(-208.01 -268.62)"/><path class="cls-7" d="M834,573.65c0-.95.73-1.5,2-1.58l1.31-.08v-.34c0-.49-.34-.77-.87-.77a1.15,1.15,0,0,0-1,.55.75.75,0,0,1-.57.26.55.55,0,0,1-.59-.55.74.74,0,0,1,.07-.32c.24-.62,1.08-1,2.17-1,1.34,0,2.21.69,2.21,1.75v3a.64.64,0,0,1-.69.72.63.63,0,0,1-.68-.63v-.27h0a1.82,1.82,0,0,1-1.6.88A1.61,1.61,0,0,1,834,573.65Zm3.35-.41v-.38l-1.1.07c-.53,0-.83.27-.83.65s.32.63.8.63A1,1,0,0,0,837.31,573.24Z" transform="translate(-208.01 -268.62)"/><path class="cls-7" d="M839.63,574.52v-4a.69.69,0,1,1,1.37,0v.35h0a1.15,1.15,0,0,1,1.08-1,.67.67,0,0,1,.45.13.63.63,0,0,1,.2.53.62.62,0,0,1-.2.51,1,1,0,0,1-.62.19c-.65,0-.88.37-.88,1v2.33a.67.67,0,0,1-.71.74A.68.68,0,0,1,839.63,574.52Z" transform="translate(-208.01 -268.62)"/><path class="cls-7" d="M843.3,574.52v-5.77A.68.68,0,0,1,844,568a.67.67,0,0,1,.71.75V572h0l1.89-1.9a.76.76,0,0,1,.57-.28.61.61,0,0,1,.64.62.66.66,0,0,1-.27.53l-1.34,1.26,1.47,1.86a.8.8,0,0,1,.19.53.62.62,0,0,1-.67.64.75.75,0,0,1-.7-.44L845.19,573l-.46.42v1.06a.67.67,0,0,1-.71.74A.67.67,0,0,1,843.3,574.52Z" transform="translate(-208.01 -268.62)"/><path class="cls-7" d="M848.22,572.56a2.47,2.47,0,0,1,2.53-2.75,2.35,2.35,0,0,1,2.48,2.44.57.57,0,0,1-.62.62h-3v.06a1.17,1.17,0,0,0,1.19,1.29,1.5,1.5,0,0,0,1.25-.63.57.57,0,0,1,.46-.21.51.51,0,0,1,.56.52.63.63,0,0,1-.1.34,2.33,2.33,0,0,1-2.17,1A2.43,2.43,0,0,1,848.22,572.56Zm3.64-.57a1.08,1.08,0,0,0-1.1-1.12,1.13,1.13,0,0,0-1.13,1.12Z" transform="translate(-208.01 -268.62)"/><path class="cls-7" d="M854.34,571h-.27a.54.54,0,1,1,0-1.08h.27v-.58a.72.72,0,1,1,1.43,0v.58h.5a.54.54,0,1,1,0,1.08h-.5v2.5c0,.37.12.53.43.55h.09c.35,0,.55.19.55.52s-.41.64-1,.64h0a1.26,1.26,0,0,1-1.44-1.4Z" transform="translate(-208.01 -268.62)"/><path class="cls-7" d="M772.84,758.56V753a.87.87,0,0,1,.95-1,1,1,0,0,1,1,.76l1.75,4.33h0l1.74-4.33a1,1,0,0,1,1-.76.87.87,0,0,1,.95,1v5.59a.66.66,0,1,1-1.32,0V754.4h0l-1.75,4.27a.63.63,0,0,1-.63.45.64.64,0,0,1-.64-.45l-1.74-4.27h0v4.16a.66.66,0,1,1-1.31,0Z" transform="translate(-208.01 -268.62)"/><path class="cls-7" d="M781,757.66c0-1,.73-1.51,2-1.59l1.31-.07v-.35c0-.49-.34-.77-.87-.77a1.15,1.15,0,0,0-1,.55.75.75,0,0,1-.57.26.54.54,0,0,1-.59-.54.75.75,0,0,1,.07-.33c.24-.62,1.08-1,2.17-1,1.34,0,2.21.7,2.21,1.75v3a.64.64,0,0,1-.69.72.63.63,0,0,1-.68-.63v-.27h0a1.8,1.8,0,0,1-1.6.88A1.61,1.61,0,0,1,781,757.66Zm3.35-.42v-.38l-1.1.07c-.53,0-.83.28-.83.65s.32.63.8.63A1,1,0,0,0,784.39,757.24Z" transform="translate(-208.01 -268.62)"/><path class="cls-7" d="M786.69,752.54a.76.76,0,1,1,.76.74A.74.74,0,0,1,786.69,752.54Zm0,6v-4a.71.71,0,1,1,1.42,0v4a.71.71,0,1,1-1.42,0Z" transform="translate(-208.01 -268.62)"/><path class="cls-7" d="M789.14,758.52v-5.77a.67.67,0,0,1,.72-.74.67.67,0,0,1,.71.74v5.77a.67.67,0,0,1-.71.74A.67.67,0,0,1,789.14,758.52Z" transform="translate(-208.01 -268.62)"/><path class="cls-7" d="M840.4,803.3v-5.7a.74.74,0,1,1,1.48,0v2.19h3.17V797.6a.74.74,0,1,1,1.47,0v5.7a.74.74,0,1,1-1.47,0V801h-3.17v2.3a.74.74,0,1,1-1.48,0Z" transform="translate(-208.01 -268.62)"/><path class="cls-7" d="M847.38,801.38a2.47,2.47,0,0,1,2.53-2.75,2.34,2.34,0,0,1,2.48,2.43.56.56,0,0,1-.62.62h-3v.07A1.16,1.16,0,0,0,850,803a1.48,1.48,0,0,0,1.25-.63.58.58,0,0,1,.46-.21.52.52,0,0,1,.56.52.78.78,0,0,1-.1.35,2.35,2.35,0,0,1-2.17,1A2.44,2.44,0,0,1,847.38,801.38Zm3.64-.57a1.08,1.08,0,0,0-1.09-1.13,1.13,1.13,0,0,0-1.13,1.13Z" transform="translate(-208.01 -268.62)"/><path class="cls-7" d="M852.92,802.47c0-1,.73-1.5,2-1.58l1.32-.08v-.35c0-.49-.34-.77-.88-.77a1.13,1.13,0,0,0-1,.55.72.72,0,0,1-.57.27.56.56,0,0,1-.6-.55.76.76,0,0,1,.08-.32c.24-.63,1.08-1,2.16-1,1.35,0,2.22.69,2.22,1.75v3a.65.65,0,0,1-.69.72.64.64,0,0,1-.69-.64v-.27h0a1.82,1.82,0,0,1-1.61.89A1.62,1.62,0,0,1,852.92,802.47Zm3.36-.42v-.38l-1.1.07c-.54,0-.84.28-.84.65s.32.64.8.64A1.05,1.05,0,0,0,856.28,802.05Z" transform="translate(-208.01 -268.62)"/><path class="cls-7" d="M859.74,803.35l-1.36-3.65a1.49,1.49,0,0,1-.08-.43.66.66,0,0,1,.71-.64.68.68,0,0,1,.69.57l1.06,3.51h0l1.06-3.52a.65.65,0,0,1,.67-.56.66.66,0,0,1,.69.64,1.42,1.42,0,0,1-.08.4l-1.36,3.68a1,1,0,0,1-1,.73A1,1,0,0,1,859.74,803.35Z" transform="translate(-208.01 -268.62)"/><path class="cls-7" d="M863.52,801.38a2.47,2.47,0,0,1,2.53-2.75,2.34,2.34,0,0,1,2.48,2.43.56.56,0,0,1-.62.62h-3v.07a1.16,1.16,0,0,0,1.19,1.28,1.48,1.48,0,0,0,1.25-.63.6.6,0,0,1,.46-.21.52.52,0,0,1,.56.52.67.67,0,0,1-.1.35,2.33,2.33,0,0,1-2.17,1A2.43,2.43,0,0,1,863.52,801.38Zm3.63-.57a1.07,1.07,0,0,0-1.09-1.13,1.13,1.13,0,0,0-1.13,1.13Z" transform="translate(-208.01 -268.62)"/><path class="cls-7" d="M869.26,803.33v-4a.65.65,0,0,1,.69-.72.67.67,0,0,1,.71.72v.3h0a1.61,1.61,0,0,1,1.61-1,1.73,1.73,0,0,1,1.82,2v2.73a.68.68,0,0,1-.72.75.67.67,0,0,1-.71-.75V800.9c0-.69-.32-1.08-1-1.08a1,1,0,0,0-1.05,1.15v2.36a.71.71,0,1,1-1.42,0Z" transform="translate(-208.01 -268.62)"/><path class="cls-7" d="M670.34,798.86l-2-5.26a1.23,1.23,0,0,1-.07-.42.78.78,0,0,1,1.53-.12l1.65,5.05h0l1.65-5.06a.75.75,0,0,1,1.48.11,1.16,1.16,0,0,1-.07.4l-2,5.31a1.1,1.1,0,0,1-1.13.85A1.09,1.09,0,0,1,670.34,798.86Z" transform="translate(-208.01 -268.62)"/><path class="cls-7" d="M674.45,797a2.47,2.47,0,0,1,2.53-2.75,2.34,2.34,0,0,1,2.48,2.44.56.56,0,0,1-.62.62h-3v.06a1.16,1.16,0,0,0,1.19,1.28,1.45,1.45,0,0,0,1.25-.63.62.62,0,0,1,.47-.21.52.52,0,0,1,.56.53.74.74,0,0,1-.1.34,2.35,2.35,0,0,1-2.17,1A2.43,2.43,0,0,1,674.45,797Zm3.64-.57a1.08,1.08,0,0,0-1.09-1.13,1.13,1.13,0,0,0-1.13,1.13Z" transform="translate(-208.01 -268.62)"/><path class="cls-7" d="M680.19,799v-4a.65.65,0,0,1,.69-.72.68.68,0,0,1,.72.73v.29h0a1.59,1.59,0,0,1,1.61-1,1.73,1.73,0,0,1,1.81,2V799a.71.71,0,1,1-1.42,0v-2.44c0-.68-.33-1.07-1-1.07a1,1,0,0,0-1,1.14V799a.67.67,0,0,1-.71.74A.68.68,0,0,1,680.19,799Z" transform="translate(-208.01 -268.62)"/><path class="cls-7" d="M686.34,795.47h-.28a.54.54,0,1,1,0-1.08h.28v-.58a.71.71,0,1,1,1.42,0v.58h.51a.54.54,0,1,1,0,1.08h-.51V798c0,.37.13.53.44.55h.09c.35,0,.54.19.54.52s-.41.63-1,.63h-.05a1.25,1.25,0,0,1-1.43-1.39Z" transform="translate(-208.01 -268.62)"/><path class="cls-7" d="M807.28,868.91a1.12,1.12,0,0,1-.07-.4.61.61,0,0,1,.65-.65.7.7,0,0,1,.67.43,1.45,1.45,0,0,0,1.46.78c.79,0,1.33-.38,1.33-.9s-.34-.72-1.22-.9l-.75-.15c-1.4-.28-2.09-1-2.09-2,0-1.29,1.12-2.15,2.69-2.15a2.5,2.5,0,0,1,2.57,1.46.84.84,0,0,1,.06.33.58.58,0,0,1-.63.59.74.74,0,0,1-.71-.43,1.26,1.26,0,0,0-1.29-.75c-.73,0-1.21.34-1.21.86s.34.7,1.17.86l.74.15c1.5.3,2.14.9,2.14,2,0,1.38-1.08,2.25-2.83,2.25C808.5,870.26,807.57,869.68,807.28,868.91Z" transform="translate(-208.01 -268.62)"/><path class="cls-7" d="M814,866h-.27a.54.54,0,1,1,0-1.07H814v-.58a.72.72,0,1,1,1.43,0v.58h.5a.54.54,0,1,1,0,1.07h-.5v2.51c0,.37.12.52.43.55h.09c.35,0,.54.18.54.52s-.41.63-1,.63h0a1.25,1.25,0,0,1-1.43-1.4Z" transform="translate(-208.01 -268.62)"/><path class="cls-7" d="M816.87,868.64c0-.95.73-1.51,2-1.58l1.32-.08v-.35c0-.49-.34-.77-.88-.77a1.15,1.15,0,0,0-1,.55.69.69,0,0,1-.56.27.56.56,0,0,1-.6-.55.88.88,0,0,1,.07-.32,2.21,2.21,0,0,1,2.17-1c1.35,0,2.22.7,2.22,1.75v3a.65.65,0,0,1-.69.71.63.63,0,0,1-.69-.63v-.27h0a1.79,1.79,0,0,1-1.6.88A1.62,1.62,0,0,1,816.87,868.64Zm3.36-.42v-.38l-1.1.07c-.54,0-.84.28-.84.65s.32.64.8.64A1.06,1.06,0,0,0,820.23,868.22Z" transform="translate(-208.01 -268.62)"/><path class="cls-7" d="M822.52,863.52a.77.77,0,1,1,.77.74A.75.75,0,0,1,822.52,863.52Zm.05,6v-4a.72.72,0,1,1,1.43,0v4a.72.72,0,1,1-1.43,0Z" transform="translate(-208.01 -268.62)"/><path class="cls-7" d="M825,869.5v-4a.68.68,0,1,1,1.36,0v.34h0a1.15,1.15,0,0,1,1.09-1,.64.64,0,0,1,.44.14.6.6,0,0,1,.2.52.64.64,0,0,1-.2.52,1,1,0,0,1-.62.18c-.65,0-.88.38-.88,1v2.32a.71.71,0,1,1-1.42,0Z" transform="translate(-208.01 -268.62)"/><path class="cls-7" d="M828.46,869.21a.91.91,0,0,1-.05-.26.54.54,0,0,1,.58-.55.81.81,0,0,1,.62.32,1.26,1.26,0,0,0,1.14.53c.52,0,.86-.21.86-.56s-.19-.43-.7-.55L830,868c-1-.22-1.54-.74-1.54-1.52,0-1,.86-1.65,2.22-1.65a2,2,0,0,1,2,1.09.78.78,0,0,1,0,.21c0,.29-.18.49-.55.49a.69.69,0,0,1-.52-.22,1.22,1.22,0,0,0-1-.56c-.49,0-.82.23-.82.56s.2.46.72.57l.87.19c1.11.23,1.57.64,1.57,1.42,0,1-.93,1.71-2.31,1.71C829.52,870.25,828.71,869.82,828.46,869.21Z" transform="translate(-208.01 -268.62)"/><path class="cls-7" d="M915.6,750.78v-5.69a.74.74,0,1,1,1.48,0v2.18h3.17v-2.18a.74.74,0,1,1,1.48,0v5.69a.74.74,0,1,1-1.48,0v-2.29h-3.17v2.29a.74.74,0,1,1-1.48,0Z" transform="translate(-208.01 -268.62)"/><path class="cls-7" d="M922.59,748.87a2.47,2.47,0,0,1,2.53-2.76,2.35,2.35,0,0,1,2.48,2.44.57.57,0,0,1-.62.62h-3v.06a1.17,1.17,0,0,0,1.19,1.29,1.5,1.5,0,0,0,1.25-.63.57.57,0,0,1,.46-.21.51.51,0,0,1,.56.52.63.63,0,0,1-.1.34,2.35,2.35,0,0,1-2.17,1A2.43,2.43,0,0,1,922.59,748.87Zm3.63-.58a1.07,1.07,0,0,0-1.09-1.12,1.13,1.13,0,0,0-1.13,1.12Z" transform="translate(-208.01 -268.62)"/><path class="cls-7" d="M928.36,750.82v-5.77a.68.68,0,0,1,.72-.75.67.67,0,0,1,.71.75v5.77a.67.67,0,0,1-.71.74A.67.67,0,0,1,928.36,750.82Z" transform="translate(-208.01 -268.62)"/><path class="cls-7" d="M930.78,750.82v-5.77a.68.68,0,0,1,.72-.75.67.67,0,0,1,.71.75v5.77a.67.67,0,0,1-.71.74A.67.67,0,0,1,930.78,750.82Z" transform="translate(-208.01 -268.62)"/><path class="cls-7" d="M1023.12,810v-5.76a.67.67,0,0,1,.74-.74.82.82,0,0,1,.73.43l3.05,4.26h0v-3.95a.71.71,0,1,1,1.41,0V810a.65.65,0,0,1-.72.71.82.82,0,0,1-.74-.42l-3.05-4.28h0v4a.71.71,0,1,1-1.41,0Z" transform="translate(-208.01 -268.62)"/><path class="cls-7" d="M1030,808a2.46,2.46,0,0,1,2.53-2.75,2.34,2.34,0,0,1,2.48,2.43.56.56,0,0,1-.62.62h-3v.07a1.16,1.16,0,0,0,1.19,1.28,1.48,1.48,0,0,0,1.25-.63.59.59,0,0,1,.47-.21.51.51,0,0,1,.55.52.79.79,0,0,1-.09.35,2.37,2.37,0,0,1-2.17,1A2.43,2.43,0,0,1,1030,808Zm3.64-.57a1.08,1.08,0,0,0-1.09-1.13,1.13,1.13,0,0,0-1.13,1.13Z" transform="translate(-208.01 -268.62)"/><path class="cls-7" d="M1036.52,810l-1-3.65a1.65,1.65,0,0,1-.08-.44.63.63,0,0,1,.69-.61.66.66,0,0,1,.67.61l.77,3.38h0l.81-3.34a.82.82,0,0,1,1.61,0l.81,3.34h0l.78-3.39a.66.66,0,0,1,.66-.6.61.61,0,0,1,.67.61,1.58,1.58,0,0,1-.07.43l-1.06,3.65a.86.86,0,0,1-.91.75.83.83,0,0,1-.92-.75l-.8-3.05h0l-.79,3.06a.83.83,0,0,1-.91.74A.85.85,0,0,1,1036.52,810Z" transform="translate(-208.01 -268.62)"/><path class="cls-7" d="M1045.67,809.85v-5.51a.68.68,0,0,1,.74-.76h2.33c1.32,0,2.15.67,2.15,1.75a1.55,1.55,0,0,1-1.32,1.53v0a1.71,1.71,0,0,1,1.66,1.71c0,1.24-.94,2-2.44,2h-2.38A.69.69,0,0,1,1045.67,809.85Zm2.53-3.34c.79,0,1.24-.35,1.24-1s-.4-.89-1.09-.89h-1.21v1.84Zm.21,3c.85,0,1.31-.36,1.31-1s-.47-1-1.34-1h-1.24v2Z" transform="translate(-208.01 -268.62)"/><path class="cls-7" d="M1051.75,808a2.6,2.6,0,1,1,2.6,2.73A2.48,2.48,0,0,1,1051.75,808Zm3.74,0c0-1-.45-1.64-1.14-1.64s-1.15.6-1.15,1.64.44,1.65,1.15,1.65S1055.49,809.05,1055.49,808Z" transform="translate(-208.01 -268.62)"/><path class="cls-7" d="M1057.42,810.14a.72.72,0,0,1,.19-.48l1.22-1.65-1.22-1.66a.73.73,0,0,1-.15-.44.64.64,0,0,1,.68-.63c.29,0,.44.1.63.41l1,1.47h0l1-1.46c.19-.3.34-.42.6-.42a.61.61,0,0,1,.67.61.74.74,0,0,1-.19.49l-1.19,1.6,1.21,1.68a.68.68,0,0,1,.16.43.63.63,0,0,1-.68.63.61.61,0,0,1-.58-.36l-1-1.55h0l-1,1.53c-.19.3-.33.38-.59.38A.58.58,0,0,1,1057.42,810.14Z" transform="translate(-208.01 -268.62)"/><path class="cls-8" d="M652.78,1124.81v-7.16a.9.9,0,0,1,1-1h2.54c2.75,0,4.37,1.64,4.37,4.55s-1.62,4.61-4.37,4.61h-2.54A.9.9,0,0,1,652.78,1124.81Zm3.27-.59c1.72,0,2.64-1,2.64-3s-1-3-2.64-3H654.7v6Z" transform="translate(-208.01 -268.62)"/><path class="cls-8" d="M661.47,1122.44c0-2.19,1.28-3.58,3.29-3.58A3.06,3.06,0,0,1,668,1122a.73.73,0,0,1-.81.8H663.3v.09a1.51,1.51,0,0,0,1.55,1.66,1.92,1.92,0,0,0,1.62-.81.74.74,0,0,1,.6-.28.68.68,0,0,1,.73.68,1,1,0,0,1-.13.45,3.06,3.06,0,0,1-2.82,1.34A3.17,3.17,0,0,1,661.47,1122.44Zm4.73-.74a1.4,1.4,0,0,0-1.42-1.47,1.46,1.46,0,0,0-1.46,1.47Z" transform="translate(-208.01 -268.62)"/><path class="cls-8" d="M669.43,1125v-4.58h-.35a.68.68,0,1,1,0-1.36h.35v-.52a1.72,1.72,0,0,1,2-2c1,0,1.39.31,1.39.75a.45.45,0,0,1-.37.48,1.68,1.68,0,0,1-.36.06c-.57,0-.8.24-.8.75v.43H672a.68.68,0,1,1,0,1.36h-.73V1125a.93.93,0,1,1-1.86,0Z" transform="translate(-208.01 -268.62)"/><path class="cls-8" d="M673.13,1122.44c0-2.19,1.27-3.58,3.29-3.58a3,3,0,0,1,3.22,3.17.73.73,0,0,1-.8.8H675v.09a1.51,1.51,0,0,0,1.55,1.66,1.94,1.94,0,0,0,1.63-.81.73.73,0,0,1,.6-.28.67.67,0,0,1,.72.68.86.86,0,0,1-.13.45,3,3,0,0,1-2.81,1.34A3.17,3.17,0,0,1,673.13,1122.44Zm4.73-.74a1.41,1.41,0,0,0-1.42-1.47,1.47,1.47,0,0,0-1.47,1.47Z" transform="translate(-208.01 -268.62)"/><path class="cls-8" d="M680.59,1125v-5.18a.84.84,0,0,1,.9-.93.87.87,0,0,1,.93.93v.39h0a2.09,2.09,0,0,1,2.1-1.31,2.24,2.24,0,0,1,2.36,2.54V1125a.93.93,0,1,1-1.85,0v-3.17c0-.89-.42-1.4-1.25-1.4a1.35,1.35,0,0,0-1.36,1.5V1125a.93.93,0,1,1-1.86,0Z" transform="translate(-208.01 -268.62)"/><path class="cls-8" d="M687.84,1122.39c0-2.15,1.08-3.49,2.78-3.49a2.19,2.19,0,0,1,2.08,1.27h0v-2.69a.93.93,0,1,1,1.85,0V1125a.93.93,0,1,1-1.85,0v-.39h0a2.15,2.15,0,0,1-2.1,1.31C688.91,1125.92,687.84,1124.57,687.84,1122.39Zm4.91,0c0-1.24-.59-2-1.51-2s-1.51.78-1.51,2,.58,2,1.51,2S692.75,1123.65,692.75,1122.41Z" transform="translate(-208.01 -268.62)"/><path class="cls-8" d="M695.58,1122.44c0-2.19,1.28-3.58,3.29-3.58a3,3,0,0,1,3.22,3.17.73.73,0,0,1-.8.8H697.4v.09a1.51,1.51,0,0,0,1.55,1.66,1.94,1.94,0,0,0,1.63-.81.73.73,0,0,1,.6-.28.67.67,0,0,1,.72.68,1,1,0,0,1-.12.45A3.07,3.07,0,0,1,699,1126,3.17,3.17,0,0,1,695.58,1122.44Zm4.73-.74a1.41,1.41,0,0,0-1.42-1.47,1.47,1.47,0,0,0-1.47,1.47Z" transform="translate(-208.01 -268.62)"/><path class="cls-8" d="M703,1125v-5.18a.85.85,0,0,1,.9-.93.84.84,0,0,1,.88.93v.44h0a1.5,1.5,0,0,1,1.42-1.34.85.85,0,0,1,.58.17,1,1,0,0,1,0,1.35,1.24,1.24,0,0,1-.81.24c-.84,0-1.14.49-1.14,1.3v3a.93.93,0,1,1-1.86,0Z" transform="translate(-208.01 -268.62)"/><path class="cls-8" d="M710.38,1124.2a1.49,1.49,0,0,1-.1-.51.8.8,0,0,1,.85-.84.92.92,0,0,1,.88.55,1.89,1.89,0,0,0,1.89,1c1,0,1.73-.5,1.73-1.17s-.43-.94-1.58-1.18l-1-.19c-1.82-.36-2.72-1.24-2.72-2.6,0-1.68,1.46-2.79,3.5-2.79,1.68,0,2.94.71,3.34,1.9a1.12,1.12,0,0,1,.07.42.75.75,0,0,1-.81.77,1,1,0,0,1-.92-.56,1.65,1.65,0,0,0-1.68-1c-1,0-1.57.44-1.57,1.12s.43.91,1.52,1.13l1,.19c2,.39,2.78,1.17,2.78,2.56,0,1.79-1.4,2.92-3.68,2.92C712,1126,710.75,1125.21,710.38,1124.2Z" transform="translate(-208.01 -268.62)"/><path class="cls-8" d="M718.55,1127.27v-7.45a.92.92,0,1,1,1.83,0v.37h0a2.21,2.21,0,0,1,2.11-1.29c1.72,0,2.78,1.31,2.78,3.51s-1,3.51-2.75,3.51a2.24,2.24,0,0,1-2.12-1.25h0v2.6a.93.93,0,1,1-1.86,0Zm4.87-4.86c0-1.23-.59-2-1.52-2s-1.5.81-1.5,2,.6,2,1.5,2S723.42,1123.64,723.42,1122.41Z" transform="translate(-208.01 -268.62)"/><path class="cls-8" d="M726,1123.85c0-1.23,1-1.95,2.65-2l1.72-.1v-.45c0-.64-.45-1-1.15-1a1.51,1.51,0,0,0-1.32.72.92.92,0,0,1-.73.34.72.72,0,0,1-.78-.71.92.92,0,0,1,.1-.42c.31-.81,1.41-1.31,2.82-1.31,1.74,0,2.88.9,2.88,2.27V1125a.84.84,0,0,1-.9.93.82.82,0,0,1-.89-.82v-.35h0a2.36,2.36,0,0,1-2.08,1.15A2.1,2.1,0,0,1,726,1123.85Zm4.37-.54v-.49l-1.44.09c-.69,0-1.08.36-1.08.84s.41.83,1,.83A1.37,1.37,0,0,0,730.37,1123.31Z" transform="translate(-208.01 -268.62)"/><path class="cls-8" d="M734.46,1125l-1.37-4.74a1.9,1.9,0,0,1-.1-.57.81.81,0,0,1,.89-.79.85.85,0,0,1,.87.78l1,4.4h0l1.05-4.33a1.07,1.07,0,0,1,2.09,0l1.06,4.33h0l1-4.41a.84.84,0,0,1,.86-.77.79.79,0,0,1,.87.78,2,2,0,0,1-.1.57l-1.37,4.74a1.13,1.13,0,0,1-1.19,1,1.09,1.09,0,0,1-1.2-1l-1-4h0l-1,4a1.1,1.1,0,0,1-1.19,1C735,1125.94,734.66,1125.64,734.46,1125Z" transform="translate(-208.01 -268.62)"/><path class="cls-8" d="M743.62,1125v-5.18a.84.84,0,0,1,.89-.93.87.87,0,0,1,.93.93v.39h0a2.08,2.08,0,0,1,2.09-1.31,2.25,2.25,0,0,1,2.37,2.54V1125a.93.93,0,1,1-1.86,0v-3.17c0-.89-.42-1.4-1.25-1.4a1.35,1.35,0,0,0-1.36,1.5V1125a.93.93,0,1,1-1.85,0Z" transform="translate(-208.01 -268.62)"/><path class="cls-7" d="M364.68,691.75a1.59,1.59,0,0,1,.09-.47L366.7,686a1.16,1.16,0,0,1,2.23,0l1.94,5.24a1.25,1.25,0,0,1,.09.47.69.69,0,0,1-.74.69c-.41,0-.63-.19-.76-.65l-.37-1.11h-2.55l-.37,1.1c-.14.47-.36.66-.75.66A.66.66,0,0,1,364.68,691.75Zm4.06-2.21-.93-2.89h0l-.92,2.89Z" transform="translate(-208.01 -268.62)"/><path class="cls-7" d="M373.83,691.76v-5.6a.87.87,0,0,1,.95-.95,1,1,0,0,1,1,.76l1.75,4.33h0l1.75-4.33a1,1,0,0,1,1-.76.87.87,0,0,1,.94.95v5.6a.66.66,0,1,1-1.31,0V687.6h0l-1.74,4.26a.67.67,0,0,1-1.27,0l-1.75-4.26h0v4.16a.66.66,0,1,1-1.32,0Z" transform="translate(-208.01 -268.62)"/><path class="cls-7" d="M382,690.85c0-1,.73-1.51,2-1.58l1.32-.08v-.35c0-.49-.34-.77-.88-.77a1.13,1.13,0,0,0-1,.55.71.71,0,0,1-.57.26.55.55,0,0,1-.6-.54.69.69,0,0,1,.08-.32,2.18,2.18,0,0,1,2.16-1c1.35,0,2.22.7,2.22,1.75v3a.65.65,0,0,1-.69.71.63.63,0,0,1-.69-.63v-.27h0a1.79,1.79,0,0,1-1.6.88A1.62,1.62,0,0,1,382,690.85Zm3.36-.42v-.38l-1.1.07c-.54,0-.84.28-.84.65s.32.63.8.63A1,1,0,0,0,385.39,690.43Z" transform="translate(-208.01 -268.62)"/><path class="cls-7" d="M387.68,685.73a.75.75,0,0,1,.77-.74.74.74,0,1,1,0,1.48A.75.75,0,0,1,387.68,685.73Zm.05,6v-4a.72.72,0,1,1,1.43,0v4a.72.72,0,1,1-1.43,0Z" transform="translate(-208.01 -268.62)"/><path class="cls-7" d="M390.11,691.71v-4a.65.65,0,0,1,.68-.72.67.67,0,0,1,.72.72v.3h0a1.6,1.6,0,0,1,1.61-1,1.72,1.72,0,0,1,1.81,2v2.73a.71.71,0,1,1-1.42,0v-2.43c0-.69-.32-1.08-1-1.08a1,1,0,0,0-1.05,1.15v2.36a.71.71,0,1,1-1.42,0Z" transform="translate(-208.01 -268.62)"/><path class="cls-7" d="M299.52,991.29v-5.5a.69.69,0,0,1,.74-.77h3.35a.61.61,0,1,1,0,1.22H301v1.69h2.48a.57.57,0,1,1,0,1.14H301v1.77h2.61a.62.62,0,1,1,0,1.23h-3.35A.7.7,0,0,1,299.52,991.29Z" transform="translate(-208.01 -268.62)"/><path class="cls-7" d="M305.17,991.43v-5.77a.71.71,0,1,1,1.42,0v5.77a.71.71,0,1,1-1.42,0Z" transform="translate(-208.01 -268.62)"/><path class="cls-7" d="M307.59,991.45v-5.79a.71.71,0,1,1,1.42,0v2.08h0a1.72,1.72,0,0,1,1.62-1c1.32,0,2.13,1,2.13,2.7s-.8,2.7-2.13,2.7a1.74,1.74,0,0,1-1.64-1h0v.28a.7.7,0,1,1-1.4,0Zm3.74-2c0-1-.45-1.56-1.15-1.56s-1.17.62-1.17,1.56.47,1.55,1.17,1.55S311.33,990.41,311.33,989.45Z" transform="translate(-208.01 -268.62)"/><path class="cls-7" d="M313.33,989.44a2.6,2.6,0,1,1,2.6,2.74A2.48,2.48,0,0,1,313.33,989.44Zm3.74,0c0-1-.45-1.64-1.14-1.64s-1.15.6-1.15,1.64.44,1.64,1.15,1.64S317.07,990.5,317.07,989.45Z" transform="translate(-208.01 -268.62)"/><path class="cls-7" d="M320.06,991.42,319,987.77a1.53,1.53,0,0,1-.07-.44.63.63,0,0,1,.68-.61.66.66,0,0,1,.67.61l.78,3.38h0l.81-3.33a.81.81,0,0,1,1.6,0l.82,3.33h0l.78-3.39a.65.65,0,0,1,.66-.6.62.62,0,0,1,.67.61,1.28,1.28,0,0,1-.08.43l-1.05,3.66a.88.88,0,0,1-.92.75.84.84,0,0,1-.92-.76l-.79-3h0l-.79,3.06a.85.85,0,0,1-.92.75C320.47,992.17,320.21,991.94,320.06,991.42Z" transform="translate(-208.01 -268.62)"/><path class="cls-7" d="M288.18,596.69c0-2.27,1.29-3.65,3.32-3.65a3,3,0,0,1,2.82,1.6,1.19,1.19,0,0,1,.14.56.6.6,0,0,1-.64.63.72.72,0,0,1-.71-.49,1.7,1.7,0,0,0-1.6-1.08c-1.11,0-1.83.94-1.83,2.42s.71,2.43,1.84,2.43a1.64,1.64,0,0,0,1.61-1,.66.66,0,0,1,.65-.47.64.64,0,0,1,.69.66,1.28,1.28,0,0,1-.11.49,2.93,2.93,0,0,1-2.82,1.58C289.45,600.33,288.18,599,288.18,596.69Z" transform="translate(-208.01 -268.62)"/><path class="cls-7" d="M295.17,598.71c0-1,.73-1.51,2-1.58l1.32-.08v-.35c0-.49-.34-.77-.88-.77a1.15,1.15,0,0,0-1,.55.68.68,0,0,1-.56.26.55.55,0,0,1-.6-.54.83.83,0,0,1,.07-.32,2.21,2.21,0,0,1,2.17-1c1.34,0,2.22.7,2.22,1.75v3a.65.65,0,0,1-.69.71.63.63,0,0,1-.69-.63v-.27h0a1.79,1.79,0,0,1-1.6.88A1.61,1.61,0,0,1,295.17,598.71Zm3.36-.42v-.38l-1.11.07c-.53,0-.83.28-.83.65s.32.63.8.63A1,1,0,0,0,298.53,598.29Z" transform="translate(-208.01 -268.62)"/><path class="cls-7" d="M301.23,599.57v-3.52H301a.53.53,0,0,1,0-1h.28v-.39a1.32,1.32,0,0,1,1.49-1.51c.76,0,1.08.24,1.08.58a.35.35,0,0,1-.29.37,1.11,1.11,0,0,1-.28,0c-.44,0-.61.19-.61.58V595h.6a.53.53,0,0,1,0,1h-.57v3.52a.71.71,0,1,1-1.42,0Z" transform="translate(-208.01 -268.62)"/><path class="cls-7" d="M304.07,597.62a2.47,2.47,0,0,1,2.53-2.76,2.35,2.35,0,0,1,2.48,2.44.56.56,0,0,1-.62.62h-3V598a1.17,1.17,0,0,0,1.19,1.29,1.49,1.49,0,0,0,1.25-.63.57.57,0,0,1,.47-.21.51.51,0,0,1,.55.52.69.69,0,0,1-.1.35,2.34,2.34,0,0,1-2.16,1A2.43,2.43,0,0,1,304.07,597.62Zm3.64-.57a1.08,1.08,0,0,0-1.1-1.13,1.12,1.12,0,0,0-1.12,1.13Z" transform="translate(-208.01 -268.62)"/><path class="cls-7" d="M361.32,1054.18a1.14,1.14,0,0,1-.08-.4.62.62,0,0,1,.65-.65.72.72,0,0,1,.68.43,1.45,1.45,0,0,0,1.45.78c.79,0,1.33-.38,1.33-.9s-.33-.72-1.22-.9l-.74-.15c-1.41-.28-2.1-1-2.1-2,0-1.29,1.13-2.15,2.69-2.15a2.53,2.53,0,0,1,2.58,1.46,1.09,1.09,0,0,1,.05.33.58.58,0,0,1-.63.59.72.72,0,0,1-.7-.43,1.28,1.28,0,0,0-1.3-.76c-.73,0-1.21.35-1.21.86s.34.71,1.17.87l.75.15c1.49.3,2.13.9,2.13,2,0,1.38-1.07,2.25-2.83,2.25C362.53,1055.53,361.6,1055,361.32,1054.18Z" transform="translate(-208.01 -268.62)"/><path class="cls-7" d="M367.41,1052.79a2.48,2.48,0,0,1,2.57-2.73,2.29,2.29,0,0,1,2.21,1.25,1.27,1.27,0,0,1,.07.36.55.55,0,0,1-.61.55.63.63,0,0,1-.6-.37,1.11,1.11,0,0,0-1-.67c-.72,0-1.16.6-1.16,1.61s.44,1.62,1.15,1.62a1.13,1.13,0,0,0,1-.62c.19-.3.34-.42.65-.42a.56.56,0,0,1,.6.57,1,1,0,0,1-.09.37,2.38,2.38,0,0,1-2.21,1.21A2.46,2.46,0,0,1,367.41,1052.79Z" transform="translate(-208.01 -268.62)"/><path class="cls-7" d="M373.05,1054.77v-4a.65.65,0,0,1,.69-.72.64.64,0,0,1,.67.72v.34h0a1.16,1.16,0,0,1,1.09-1,.64.64,0,0,1,.44.14.6.6,0,0,1,.21.52.64.64,0,0,1-.21.52,1,1,0,0,1-.62.18c-.64,0-.87.38-.87,1v2.32a.72.72,0,1,1-1.43,0Z" transform="translate(-208.01 -268.62)"/><path class="cls-7" d="M376.33,1052.82a2.47,2.47,0,0,1,2.53-2.76,2.35,2.35,0,0,1,2.48,2.44.56.56,0,0,1-.62.62h-3v.06a1.17,1.17,0,0,0,1.19,1.29,1.5,1.5,0,0,0,1.25-.63.57.57,0,0,1,.46-.21.51.51,0,0,1,.56.52.69.69,0,0,1-.1.35,2.36,2.36,0,0,1-2.17,1A2.43,2.43,0,0,1,376.33,1052.82Zm3.63-.57a1.07,1.07,0,0,0-1.09-1.13,1.13,1.13,0,0,0-1.13,1.13Z" transform="translate(-208.01 -268.62)"/><path class="cls-7" d="M381.88,1052.82a2.47,2.47,0,0,1,2.53-2.76,2.35,2.35,0,0,1,2.48,2.44.56.56,0,0,1-.62.62h-3v.06a1.17,1.17,0,0,0,1.19,1.29,1.5,1.5,0,0,0,1.25-.63.57.57,0,0,1,.46-.21.51.51,0,0,1,.56.52.69.69,0,0,1-.1.35,2.34,2.34,0,0,1-2.16,1A2.43,2.43,0,0,1,381.88,1052.82Zm3.64-.57a1.08,1.08,0,0,0-1.1-1.13,1.13,1.13,0,0,0-1.13,1.13Z" transform="translate(-208.01 -268.62)"/><path class="cls-7" d="M387.62,1054.77v-4a.65.65,0,0,1,.69-.72.66.66,0,0,1,.71.72v.29h0a1.62,1.62,0,0,1,1.61-1,1.73,1.73,0,0,1,1.82,2v2.73a.72.72,0,1,1-1.43,0v-2.44c0-.68-.32-1.07-1-1.07a1,1,0,0,0-1,1.15v2.36a.72.72,0,1,1-1.43,0Z" transform="translate(-208.01 -268.62)"/><path class="cls-7" d="M393.26,1054.48a.91.91,0,0,1-.05-.27.54.54,0,0,1,.58-.54.81.81,0,0,1,.62.32,1.26,1.26,0,0,0,1.14.53c.52,0,.85-.21.85-.56s-.18-.43-.69-.55l-.88-.18c-1-.22-1.54-.74-1.54-1.52,0-1,.86-1.65,2.22-1.65a2,2,0,0,1,2.05,1.09.78.78,0,0,1,0,.21c0,.29-.18.49-.55.49a.69.69,0,0,1-.52-.22,1.22,1.22,0,0,0-1-.56c-.49,0-.82.22-.82.56s.2.46.72.57l.87.18c1.11.24,1.57.65,1.57,1.43,0,1-.93,1.71-2.31,1.71C394.31,1055.52,393.51,1055.09,393.26,1054.48Z" transform="translate(-208.01 -268.62)"/><path class="cls-7" d="M491.5,939v-5.7a.74.74,0,1,1,1.47,0v2.19h3.17v-2.19a.74.74,0,1,1,1.48,0V939a.74.74,0,1,1-1.48,0v-2.29H493V939a.74.74,0,1,1-1.47,0Z" transform="translate(-208.01 -268.62)"/><path class="cls-7" d="M498.48,937.12a2.47,2.47,0,0,1,2.53-2.75,2.35,2.35,0,0,1,2.48,2.44.57.57,0,0,1-.62.62h-3v.06a1.16,1.16,0,0,0,1.19,1.28,1.47,1.47,0,0,0,1.25-.63.6.6,0,0,1,.47-.21.52.52,0,0,1,.55.53.63.63,0,0,1-.1.34,2.33,2.33,0,0,1-2.16,1A2.43,2.43,0,0,1,498.48,937.12Zm3.64-.57a1.09,1.09,0,0,0-1.1-1.13,1.13,1.13,0,0,0-1.13,1.13Z" transform="translate(-208.01 -268.62)"/><path class="cls-7" d="M504,938.21c0-1,.73-1.5,2-1.58l1.32-.08v-.34a.78.78,0,0,0-.88-.78,1.16,1.16,0,0,0-1,.56.75.75,0,0,1-.57.26.55.55,0,0,1-.59-.55.74.74,0,0,1,.07-.32,2.2,2.2,0,0,1,2.17-1c1.34,0,2.22.69,2.22,1.75v3a.66.66,0,0,1-.7.72.63.63,0,0,1-.68-.64v-.26h0a1.82,1.82,0,0,1-1.6.88A1.62,1.62,0,0,1,504,938.21Zm3.36-.41v-.38l-1.11.06c-.53,0-.83.28-.83.65s.32.64.8.64A1.06,1.06,0,0,0,507.38,937.8Z" transform="translate(-208.01 -268.62)"/><path class="cls-7" d="M510.84,939.09l-1.37-3.65a1.49,1.49,0,0,1-.07-.43.65.65,0,0,1,.71-.64.67.67,0,0,1,.68.58l1.06,3.51h0l1.06-3.53a.66.66,0,0,1,.67-.56.65.65,0,0,1,.69.64,1.34,1.34,0,0,1-.07.4l-1.37,3.68a1,1,0,0,1-1,.73A1,1,0,0,1,510.84,939.09Z" transform="translate(-208.01 -268.62)"/><path class="cls-7" d="M514.61,937.12a2.47,2.47,0,0,1,2.53-2.75,2.34,2.34,0,0,1,2.48,2.44.56.56,0,0,1-.62.62h-3v.06a1.16,1.16,0,0,0,1.19,1.28,1.45,1.45,0,0,0,1.25-.63.62.62,0,0,1,.47-.21.51.51,0,0,1,.55.53.72.72,0,0,1-.09.34,2.35,2.35,0,0,1-2.17,1A2.43,2.43,0,0,1,514.61,937.12Zm3.64-.57a1.08,1.08,0,0,0-1.09-1.13,1.13,1.13,0,0,0-1.13,1.13Z" transform="translate(-208.01 -268.62)"/><path class="cls-7" d="M520.35,939.08v-4a.65.65,0,0,1,.69-.72.67.67,0,0,1,.71.73v.29h0a1.61,1.61,0,0,1,1.62-1,1.73,1.73,0,0,1,1.81,2v2.74a.71.71,0,1,1-1.42,0v-2.44c0-.68-.33-1.07-1-1.07a1,1,0,0,0-1,1.14v2.37a.67.67,0,0,1-.71.74A.68.68,0,0,1,520.35,939.08Z" transform="translate(-208.01 -268.62)"/><path class="cls-7" d="M470.16,547.17a1.14,1.14,0,0,1-.08-.4.62.62,0,0,1,.65-.65.72.72,0,0,1,.68.43,1.45,1.45,0,0,0,1.45.78c.79,0,1.33-.38,1.33-.9s-.33-.72-1.21-.9l-.75-.15c-1.41-.28-2.1-1-2.1-2,0-1.29,1.13-2.15,2.69-2.15a2.53,2.53,0,0,1,2.58,1.46,1.09,1.09,0,0,1,.05.33.58.58,0,0,1-.63.59.72.72,0,0,1-.7-.43,1.28,1.28,0,0,0-1.3-.76c-.72,0-1.21.35-1.21.86s.34.71,1.18.87l.74.15c1.49.3,2.14.9,2.14,2,0,1.38-1.08,2.25-2.84,2.25C471.37,548.52,470.44,547.94,470.16,547.17Z" transform="translate(-208.01 -268.62)"/><path class="cls-7" d="M476.25,545.81a2.47,2.47,0,0,1,2.53-2.76,2.35,2.35,0,0,1,2.48,2.44.56.56,0,0,1-.62.62h-3v.06a1.17,1.17,0,0,0,1.19,1.29,1.48,1.48,0,0,0,1.25-.63.59.59,0,0,1,.47-.21.51.51,0,0,1,.56.52.81.81,0,0,1-.1.35,2.37,2.37,0,0,1-2.17,1A2.43,2.43,0,0,1,476.25,545.81Zm3.64-.57a1.08,1.08,0,0,0-1.09-1.13,1.13,1.13,0,0,0-1.13,1.13Z" transform="translate(-208.01 -268.62)"/><path class="cls-7" d="M482.82,547.76l-1.05-3.65a1.65,1.65,0,0,1-.08-.44.63.63,0,0,1,.69-.61.65.65,0,0,1,.67.61l.78,3.38h0l.82-3.34a.82.82,0,0,1,1.6,0l.81,3.34h0l.78-3.39a.65.65,0,0,1,.66-.6.62.62,0,0,1,.68.61,1.65,1.65,0,0,1-.08.43l-1.06,3.65a.86.86,0,0,1-.91.75.83.83,0,0,1-.92-.75l-.8-3h0l-.79,3.06a.83.83,0,0,1-.91.74C483.23,548.5,483,548.27,482.82,547.76Z" transform="translate(-208.01 -268.62)"/><path class="cls-7" d="M489.61,545.81a2.47,2.47,0,0,1,2.53-2.76,2.35,2.35,0,0,1,2.48,2.44.56.56,0,0,1-.62.62h-3v.06a1.17,1.17,0,0,0,1.19,1.29,1.5,1.5,0,0,0,1.25-.63.57.57,0,0,1,.46-.21.51.51,0,0,1,.56.52.69.69,0,0,1-.1.35,2.36,2.36,0,0,1-2.17,1A2.43,2.43,0,0,1,489.61,545.81Zm3.63-.57a1.07,1.07,0,0,0-1.09-1.13,1.13,1.13,0,0,0-1.13,1.13Z" transform="translate(-208.01 -268.62)"/><path class="cls-7" d="M495.35,547.76v-4a.65.65,0,0,1,.69-.72.64.64,0,0,1,.67.72v.34h0a1.16,1.16,0,0,1,1.09-1,.64.64,0,0,1,.44.14.6.6,0,0,1,.21.52.64.64,0,0,1-.21.52,1,1,0,0,1-.62.18c-.65,0-.88.38-.88,1v2.32a.71.71,0,1,1-1.42,0Z" transform="translate(-208.01 -268.62)"/><path class="cls-7" d="M498.87,547.47a.66.66,0,0,1-.05-.26.54.54,0,0,1,.57-.55.8.8,0,0,1,.62.32,1.26,1.26,0,0,0,1.14.53c.52,0,.86-.21.86-.56s-.18-.43-.69-.55l-.88-.18c-1-.22-1.55-.74-1.55-1.52,0-1,.87-1.65,2.23-1.65a2,2,0,0,1,2.05,1.09.76.76,0,0,1,0,.21c0,.29-.18.49-.55.49a.67.67,0,0,1-.51-.22,1.24,1.24,0,0,0-1.05-.56c-.48,0-.82.23-.82.56s.21.46.73.57l.86.18c1.12.24,1.57.65,1.57,1.43,0,1-.93,1.71-2.31,1.71C499.92,548.51,499.12,548.08,498.87,547.47Z" transform="translate(-208.01 -268.62)"/><path class="cls-7" d="M512.23,711.48v-5.62a.69.69,0,0,1,.74-.76h2.15c1.62,0,2.55.85,2.55,2.24a2,2,0,0,1-1.21,2l1,1.76a.94.94,0,0,1,.16.51.68.68,0,0,1-.74.67c-.36,0-.52-.12-.76-.55L515,709.56h-1.25v1.92a.74.74,0,1,1-1.48,0Zm2.75-3a1,1,0,0,0,1.17-1.12,1.08,1.08,0,0,0-1.19-1.12h-1.25v2.24Z" transform="translate(-208.01 -268.62)"/><path class="cls-7" d="M518.28,710.64c0-.95.73-1.51,2-1.58l1.32-.08v-.35c0-.49-.34-.77-.88-.77a1.13,1.13,0,0,0-1,.55.72.72,0,0,1-.57.27.56.56,0,0,1-.6-.55.72.72,0,0,1,.08-.32c.24-.63,1.08-1,2.17-1,1.34,0,2.21.7,2.21,1.75v3a.65.65,0,0,1-.69.71.62.62,0,0,1-.68-.63v-.27h0a1.81,1.81,0,0,1-1.6.88A1.62,1.62,0,0,1,518.28,710.64Zm3.36-.42v-.38l-1.1.07c-.53,0-.84.28-.84.65s.33.64.8.64A1.05,1.05,0,0,0,521.64,710.22Z" transform="translate(-208.01 -268.62)"/><path class="cls-7" d="M524,711.5v-4a.69.69,0,1,1,1.38,0v.33h0a1.53,1.53,0,0,1,1.49-1.05,1.38,1.38,0,0,1,1.46,1.07h0a1.74,1.74,0,0,1,3.34.69v2.93a.72.72,0,1,1-1.43,0v-2.58c0-.6-.3-.93-.85-.93a.89.89,0,0,0-.9,1v2.54a.65.65,0,0,1-.69.74c-.42,0-.68-.25-.68-.74v-2.62a.8.8,0,0,0-.85-.89.9.9,0,0,0-.9,1v2.52a.67.67,0,0,1-.72.74A.67.67,0,0,1,524,711.5Z" transform="translate(-208.01 -268.62)"/><path class="cls-7" d="M532.59,713.27v-5.74a.71.71,0,1,1,1.41,0v.28h0a1.71,1.71,0,0,1,1.62-1c1.33,0,2.14,1,2.14,2.71s-.81,2.69-2.12,2.69a1.71,1.71,0,0,1-1.62-1h0v2a.67.67,0,0,1-.71.74A.68.68,0,0,1,532.59,713.27Zm3.74-3.74c0-.95-.45-1.56-1.16-1.56s-1.16.62-1.16,1.56.46,1.55,1.16,1.55S536.33,710.48,536.33,709.53Z" transform="translate(-208.01 -268.62)"/><path class="cls-7" d="M989.19,890.68v-16a2,2,0,0,1,2.14-2.22h6.75c3.84,0,6.25,2,6.25,5.1a4.51,4.51,0,0,1-3.84,4.43v.11a5,5,0,0,1,4.81,5c0,3.59-2.7,5.84-7.06,5.84h-6.91A2,2,0,0,1,989.19,890.68Zm7.35-9.7c2.28,0,3.58-1,3.58-2.74s-1.15-2.57-3.14-2.57h-3.52V881Zm.61,8.75c2.46,0,3.79-1.05,3.79-3s-1.37-2.94-3.89-2.94h-3.59v5.94Z" transform="translate(-208.01 -268.62)"/><path class="cls-7" d="M258.11,933.19c-1.14,0-1.77-.57-2.17-1.93l-1.08-3.19h-7.37l-1.08,3.23c-.38,1.33-1,1.89-2.22,1.89a2,2,0,0,1-2.14-2,3.71,3.71,0,0,1,.27-1.36l5.61-15.21a3.38,3.38,0,0,1,6.48,0l5.58,15.2a4.44,4.44,0,0,1,.28,1.36A1.94,1.94,0,0,1,258.11,933.19Zm-4.18-8.43-2.65-8.37h-.1l-2.7,8.37Z" transform="translate(-208.01 -268.62)"/><path class="cls-7" d="M712.31,643.28v-5.6a.87.87,0,0,1,1-.95,1,1,0,0,1,1,.76l1.75,4.33h0l1.74-4.33a1,1,0,0,1,1-.76.87.87,0,0,1,.95.95v5.6a.66.66,0,1,1-1.32,0v-4.16h0l-1.75,4.26a.67.67,0,0,1-1.27,0l-1.74-4.26h0v4.16a.66.66,0,1,1-1.31,0Z" transform="translate(-208.01 -268.62)"/><path class="cls-7" d="M720.79,637.25a.77.77,0,1,1,.76.74A.75.75,0,0,1,720.79,637.25Zm.05,6v-4a.67.67,0,0,1,.71-.75.68.68,0,0,1,.72.75v4a.67.67,0,0,1-.72.74A.67.67,0,0,1,720.84,643.23Z" transform="translate(-208.01 -268.62)"/><path class="cls-7" d="M723,641.25c0-1.67.83-2.7,2.15-2.7a1.68,1.68,0,0,1,1.59,1h0v-2.07a.68.68,0,0,1,.72-.75.67.67,0,0,1,.71.75v5.78a.65.65,0,0,1-.71.72.67.67,0,0,1-.72-.72V643h0a1.65,1.65,0,0,1-1.61,1C723.85,644,723,642.92,723,641.25Zm3.78,0c0-1-.45-1.55-1.16-1.55s-1.16.6-1.16,1.55.44,1.56,1.16,1.56S726.8,642.21,726.8,641.25Z" transform="translate(-208.01 -268.62)"/></g></svg>