<?xml version="1.0" encoding="UTF-8"?><svg xmlns="http://www.w3.org/2000/svg" xmlns:xlink="http://www.w3.org/1999/xlink" viewBox="0 0 918.88 967.3"><defs><style>.cls-1{fill:#297869;}.cls-2{fill:#fff;}.cls-3{fill:#b0adb0;}.cls-4{fill:#575548;}.cls-5{fill:#d32027;}.cls-6{fill:#33353b;}.cls-7{fill:#656569;}.cls-8{fill:none;stroke:#b0adb0;stroke-miterlimit:10;}.cls-9{fill:#79c143;}.cls-10{fill:url(#linear-gradient);}</style><linearGradient id="linear-gradient" x1="390.1" y1="228.79" x2="412.69" y2="228.79" gradientUnits="userSpaceOnUse"><stop offset="0" stop-color="#fff"/><stop offset="1" stop-color="#000"/></linearGradient></defs><g id="Body_Merge"><path class="cls-6" d="m861.89,565.23v-17h3.01v-21.99h-3.01v-16.01h-29.99v-102h-13.01v-13h16v-45l-65.01-65h-93.01l-7,2.98h-30.94l-5.01-.96-6.98,2.98h-7.03l-2.02-2.02h-7.99l-16.99,3.03h-15.98l-26.04-3.99v-12.98h0l-5.98-27.99-6.03-32.06-1.99-7.99-5.06-11.02-6.94-16.96h-2.97s-4.96-4.01-4.96-4.01l-12.13-15.07-7.94-8.95-2.07-5.06-4.9-9.91-5.06-6.02-9.96-9.96-6.98-5.06-10.04-11.98v-39.98l-2.9-5.02-4.04-6.98-3.94-4.96-5.97-4.04-7.18-5.06-9.98-7.99v-3.91l7.02-9.06v-2.98l-5.01-9.05v-1.97h-45.94v1.96l-8.09,7.03v4.99l-2.98,2.93-5.06,7.08-8.95,13.96-6.02,9-4.97,13.05h0v33.99l-25.02,31.02h-4.96l-33.03,34.01v1.97l-50,49.03v105.07l-24,12.94h-90.83v109.97h-6v-16h-43l-16.99,17v24l16.99,19h43v-15h33.01v6h-15v37h-18v54h66.86v54.99h23.98v36.02h-24.02v58.97h12.94l19.08,20.03v.98h1.99v5.02h-21.98v47.98h84.96v-5.98h6.01v4.99h84v.99h31.16l17.87.08v72.93c11.53,47.58,35.93,100.06,35.93,100.06l6.08,3.94h48.94s33.22-70.58,37.06-104.01v-73.03h89.98v-4.99h5.98v4.99h163.97v-66.98h62v-35h-6.99v-2h6.99v-53h-56v-49h-34v-6h16v-18h6v6h67Zm-199.99-163.99h-48.02v-5.01h19.01v-37.01h-80.99v-35.99h19v1.99h58.98v-1.99h68.02v30h12.98v48.02h-48.99Zm-199.97-42.03v49.93l-11.12,11.1h-22.91v21h-2.99v-21h-97.01v-90.99h-37v-62.04h51l17-12.99,5.99-2h4.98l17.03-11.98h6.99l20,5,3,5.01h8.98l24.04,11.99,3.99,6.99h25.03v66.03h30.98v-12.03h17.98v35.99h-65.95Zm-79.18,272.02h0s-21.86,0-21.86,0h-14v24h-13v-29h72.03v5.01h-23.17Zm-78.84-434l7.89-9h12.08v-7.94l12.05-16.04,20.97-27.03h1.99v-7.01l22.01-24.98,24.03-7.99,5.9.03,8.08,9.94h4.93s8.06,7.02,8.06,7.02v6.99l18.03,20.01v10.98l15.51,13.9v1.47l32.44,31.65v5.97s2.01,1.99,2.01,1.99l12.03,10.01v6.01l-6.07,27h-4.94l.02-.02-82.05-35.93h-11.02l-20.97,4.96h-28.99l-44.04,25.99h-3.94l-5.97-11.02h-3.03l-6.02-9.99v-8.87l5.97-7.13,3.03-10.97Zm-126.98,338.01h-5.87v-61.02h-12v-6h11.82v-48.01h36.01v-40.99h91.99v9.99h-25.97v74h36.97v-12.01h43v84l-22.08,11.06h-51.91v39.94h-35.84v-20.98h7.01v-29.98h-73.13Zm111.34,218.98h-8.38v4.99h-6.01v-17.98h-45.99v-5.02h1.99v-.98l20.02-20.03h99.15l3.99-3.99v-5.95h16.85v47.96h-6.02v1h-75.62Zm342.66,4.05v-5.01h-92.01l-46.11,57.97h-36.81l-46.11-58.01h-21v-6h10v-62h-45.83v-10.98h-19.16v-6.02h27v-18h19.01v16.99h44.98v-35.97h-.99v-5.01h.99v-37h-36v-14.97h4.01v-24.03h-4.01v-15.01h25.01v-48.94h-25.01v-23.02h36.01v-4.96h2.99v4.96h62.94v-79.03h97.06v12.01h5v5.01h-21.99v27.5h-.02v84.51h-4.01v-15.03h-42.99l-20.97,21.01v19.99l20.97,19.99h42.99v-14.99h4.01v5.86c2.96,3.91,9.25,6.92,17.01,8.07v.06h.42c2.1.29,4.3.46,6.58.46s4.48-.16,6.58-.46h.42v-.06c7.76-1.15,14.04-4.16,17.01-8.07v-8.88h42.98v66.03h12v1.99h-12v59.02h-23.97v41.98h13.15v43.03h-14.16v5.01h-5.98Zm200.97-73.05v2h-54.99v66.05h-103.85v-6.04h96.83v-85h55.04v23h6.97Zm-43.01-150v-5.99l-12-12h-36l-12,12v48h18.01v6h-7l-18.15,26.01h-23.87v-1.99h12v-52.02h-12v-25h12v-50.01h-48v36.04h-42.99v-5.03h12.99v-54.99h30.01v-30.02h132.99v108.99h-6Z"/></g><g id="Bombsite"><rect class="cls-4" x="667.96" y="662.22" width="84.94" height="66.98" transform="translate(1420.85 1391.43) rotate(180)"/><rect class="cls-4" x="218.97" y="595.31" width="96.88" height="97.89" transform="translate(534.81 1288.52) rotate(180)"/><polyline class="cls-6" points="243.66 619.73 255.66 619.73 255.66 655.73 231.86 655.73 231.86 643.73 243.66 643.73 243.66 630.73"/><rect class="cls-6" x="284.6" y="630.73" width="49.04" height="15.05"/><rect class="cls-6" x="698.8" y="665.8" width="28.92" height="10.92"/><rect class="cls-6" x="685.75" y="676.72" width="55.4" height="22.85"/><rect class="cls-6" x="686.66" y="699.57" width="12.13" height="12.13"/></g><g id="Lines"><rect class="cls-3" x="273.18" y="451.21" width="36.97" height="1.01" transform="translate(583.34 903.44) rotate(180)"/><path class="cls-3" d="m279.98,445.27v5.95h-6.07v-5.95h6.07m1-1h-8.07v7.95h8.07v-7.95h0Z"/><path class="cls-3" d="m424.91,420.22v5.02h-41.76v-5.02h41.76m1-1h-43.76v7.02h43.76v-7.02h0Z"/><path class="cls-3" d="m485.05,452.7c2.65,0,4.8,2.15,4.8,4.8s-2.15,4.8-4.8,4.8-4.8-2.15-4.8-4.8,2.15-4.8,4.8-4.8m0-1c-3.2,0-5.8,2.6-5.8,5.8s2.6,5.8,5.8,5.8,5.8-2.6,5.8-5.8-2.6-5.8-5.8-5.8h0Z"/><path class="cls-3" d="m472.03,359.97v10.24h-9.12v-10.24h9.12m1-1h-11.12v12.24h11.12v-12.24h0Z"/><path class="cls-3" d="m477.72,359.98v3.81h-3.73v-3.81h3.73m1-1h-5.73v5.81h5.73v-5.81h0Z"/><path class="cls-3" d="m678.07,312.49v9.73h-9.97v-9.73h9.97m1-1h-11.97v11.73h11.97v-11.73h0Z"/><path class="cls-3" d="m766.04,335.32l10.19,10.19v14.42l-10.19,10.19h-14.42l-10.19-10.19v-14.42l10.19-10.19h14.42m.41-1h-15.25l-10.78,10.78v15.25l10.78,10.78h15.25l10.78-10.78v-15.25l-10.78-10.78h0Z"/><path class="cls-3" d="m675.24,559.27v14.92h-13.37v-14.92h13.37m1-1h-15.37v16.92h15.37v-16.92h0Z"/><path class="cls-3" d="m672.14,562.27v8.95h-10.27v-8.95h10.27m1-1h-12.27v10.95h12.27v-10.95h0Z"/><path class="cls-3" d="m671.92,610.16v8.07h-9.1v-8.07h9.1m1-1h-11.1v10.07h11.1v-10.07h0Z"/><rect class="cls-3" x="673.38" y="607.25" width="25.11" height=".98" transform="translate(1371.87 1215.47) rotate(180)"/><rect class="cls-3" x="722.6" y="530.67" width="41.08" height=".98" transform="translate(1644.21 381.27) rotate(135)"/><path class="cls-3" d="m709.91,480.21v14.03h-13.72v-14.03h13.72m1-1h-15.72v16.03h15.72v-16.03h0Z"/><path class="cls-3" d="m709.91,480.21v11.03h-10.74v-11.03h10.74m1-1h-12.74v13.03h12.74v-13.03h0Z"/><path class="cls-3" d="m582.14,494.25v8.99h-9.98v-8.99h9.98m1-1h-11.98v10.99h11.98v-10.99h0Z"/><path class="cls-3" d="m806.91,608.21v23.02h-10.84v-23.02h10.84m1-1h-12.84v25.02h12.84v-25.02h0Z"/><path class="cls-3" d="m769.07,663.22v10.12h-10v-10.12h10m1-1h-12v12.12h12v-12.12h0Z"/><path class="cls-3" d="m698.17,700.24v10.98h-10.98v-10.98h10.98m1-1h-12.98v12.98h12.98v-12.98h0Z"/><path class="cls-3" d="m740.15,677.25v21.97h-53.97v-21.97h53.97m1-1h-55.97v23.97h55.97v-23.97h0Z"/><path class="cls-3" d="m727.19,666.26v9.99h-28v-9.99h28m1-1h-30v11.99h30v-11.99h0Z"/><path class="cls-3" d="m237.14,287.26v3.96h-4.99v-3.96h4.99m1-1h-6.99v5.96h6.99v-5.96h0Z"/><path class="cls-3" d="m243.16,293.22v11h-11v-11h11m1-1h-13v13h13v-13h0Z"/><path class="cls-3" d="m164.07,383.23v.99h-47.99v-.99h47.99m1-1h-49.99v2.99h49.99v-2.99h0Z"/><path class="cls-3" d="m128.05,376.22v6h-11.98v-6h11.98m1-1h-13.98v8h13.98v-8h0Z"/><path class="cls-3" d="m206.16,408.25v10.97h-9.97v-10.97h9.97m1-1h-11.97v12.97h11.97v-12.97h0Z"/><path class="cls-3" d="m206.15,402.26v5h-5v-5h5m1-1h-7v7h7v-7h0Z"/><path class="cls-3" d="m364.15,505.23v28.99h-11.01v-28.99h11.01m1-1h-13.01v30.99h13.01v-30.99h0Z"/><path class="cls-3" d="m364.15,505.23v4.98h-11.01v-4.98h11.01m1-1h-13.01v6.98h13.01v-6.98h0Z"/><path class="cls-3" d="m364.19,602.25v22.75h-10.03v-22.75h10.03m1-1h-12.03v24.75h12.03v-24.75h0Z"/><path class="cls-3" d="m364.19,602.25v4.98h-10.03v-4.98h10.03m1-1h-12.03v6.98h12.03v-6.98h0Z"/><path class="cls-3" d="m333.16,631.2v14.03h-47.98v-14.03h47.98m1-1h-49.98v16.03h49.98v-16.03h0Z"/><rect class="cls-3" x="231.06" y="655.23" width="25.1" height="1" transform="translate(487.22 1311.45) rotate(180)"/><rect class="cls-3" x="231.06" y="643.23" width="1" height="12.5" transform="translate(463.12 1298.95) rotate(180)"/><rect class="cls-3" x="231.49" y="643.23" width="12.67" height="1" transform="translate(475.64 1287.45) rotate(180)"/><rect class="cls-3" x="243.07" y="619.89" width="1" height="23.84" transform="translate(487.14 1263.61) rotate(180)"/><rect class="cls-3" x="243.07" y="619.23" width="13" height="1" transform="translate(499.14 1239.45) rotate(180)"/><rect class="cls-3" x="255.07" y="619.73" width="1" height="35.64" transform="translate(511.14 1275.09) rotate(180)"/><path class="cls-3" d="m184.07,599.23v20h-6.15v-20h6.15m1-1h-8.15v22h8.15v-22h0Z"/><rect class="cls-3" x="237.07" y="565.23" width="6.79" height="2.01" transform="translate(480.92 1132.47) rotate(180)"/><rect class="cls-3" x="176.73" y="565.23" width="36.43" height="2.01" transform="translate(389.88 1132.47) rotate(180)"/><path class="cls-3" d="m199.91,568.12v11.1h-21.99v-11.1h21.99m1-1h-23.99v13.1h23.99v-13.1h0Z"/><rect class="cls-3" x="188.15" y="567.71" width="1.03" height="11.79" transform="translate(377.33 1147.21) rotate(180)"/><circle class="cls-8" cx="325.13" cy="332.32" r="2.65"/><rect class="cls-3" x="297.88" y="388.73" width="1" height="31.59" transform="translate(596.77 809.06) rotate(180)"/><path class="cls-3" d="m290.17,576.26v8.72h-10.03v-8.72h10.03m1-1h-12.03v10.72h12.03v-10.72h0Z"/><rect class="cls-3" x="189.87" y="715.01" width="60.42" height="1.01" transform="translate(440.16 1431.03) rotate(180)"/><path class="cls-3" d="m465.15,952.24v9.98h-9.98v-9.98h9.98m1-1h-11.98v11.98h11.98v-11.98h0Z"/><rect class="cls-3" x="242.4" y="643.23" width="13" height="1" transform="translate(497.8 1287.45) rotate(180)"/><circle class="cls-8" cx="179.02" cy="680.22" r="2.65"/></g><g id="Outlines"><path class="cls-7" d="m425.89,1.24v1.97l5.01,9.05v2.98l-7.02,9.06v3.91l9.98,7.99,7.18,5.06,5.97,4.04,3.94,4.96,4.05,6.98,2.9,5.02v39.98l10.04,11.98,6.98,5.06,9.96,9.96,5.06,6.02,4.9,9.91,2.07,5.06,7.94,8.95,12.13,15.07,4.96,3.99h2.97s6.94,16.97,6.94,16.97l5.06,11.02,1.99,7.99,6.03,32.06,5.98,27.99h0v12.98l26.04,3.99h15.98l16.99-3.03h7.99l2.02,2.02h7.03l6.98-2.98,5.01.96h30.94l7-2.98h93.01l65.01,65v45h-16v13h13.01v102h29.99v16.01h3.01v21.99h-3.01v17h-67v-6h-6v18h-16v6h34v49h56v53h-6.99v2h6.99v35h-62v66.98h-163.97v-4.99h-5.98v4.99h-89.98v73.03c-3.84,33.42-37.06,104.01-37.06,104.01h-48.94l-6.08-3.94s-24.4-52.48-35.93-100.06v-72.93l-17.87-.08h-31.16v-.99h-84v-4.99h-6.01v5.98h-84.96v-47.98h21.98v-5.02h-1.99v-.98l-19.08-20.03h-12.94v-58.97h24.02v-36.02h-23.98v-54.99h-66.86v-54h18v-37h15v-6h-33.01v15h-43l-16.99-19v-24l16.99-17h43v16h6v-109.97h90.83l24-12.94v-105.07l50-49.03v-1.97l33.03-34.01h4.96l25.02-31.02v-33.99h0s4.97-13.05,4.97-13.05l6.02-9,8.95-13.96,5.06-7.08,2.98-2.93v-4.99l8.09-7.03v-1.96h45.94m-124.96,232.96h3.03l5.97,11.02h3.94l44.04-25.99h28.99l20.97-4.96h11.02l82.05,35.93-.02.02h4.94l6.07-27v-6.01l-12.03-10.01-2-1.99v-5.97s-32.45-31.65-32.45-31.65v-1.47l-15.51-13.9v-10.98l-18.03-20.01v-6.99l-8.06-7.01h-4.93s-8.08-9.94-8.08-9.94l-5.9-.03-24.03,7.99-22.01,24.98v7.01h-1.99l-20.97,27.03-12.05,16.04v7.94h-12.08l-7.89,9-3.03,10.97-5.97,7.13v8.87l6.02,9.99m-10.04,95.06h37v90.99h97.01v21h2.99v-21h22.91l11.12-11.1v-49.93h65.95v-35.99h-17.98v12.03h-30.98v-66.03h-25.03l-3.99-6.99-24.04-11.99h-8.98l-3-5.01-20-5h-6.99l-17.03,11.98h-4.98l-5.99,2-17,12.99h-51v62.04m280.01-4.04v-1.99h-19v35.99h80.99v37.01h-19.01v5.01h97.01v-48.02h-12.98v-30h-68.02v1.99h-58.98m-411.84,149.02h12v61.02h79.01v29.98h-7.01v20.98h35.84v-39.94h51.91l22.08-11.06v-84h-43v12.01h-36.97v-74h25.97v-9.99h-91.99v40.99h-36.01v48.01h-11.82v6m268.83-10.98v-4.96h-2.99v4.96h-36.01v23.02h25.01v48.94h-25.01v15.01h4.01v24.03h-4.01v14.97h36v37h-.99v5.01h.99v35.97h-44.98v-16.99h-19.01v18h-27v6.02h19.16v10.98h45.83v62h-10v6h21l46.11,58.01h36.81l46.11-57.97h92.01v5.01h5.98v-5.01h14.16v-43.03h-13.15v-41.98h23.97v-59.02h12v-1.99h-12v-66.03h-42.98v8.88c-2.96,3.91-9.25,6.92-17.01,8.07v.06h-.42c-2.1.29-4.3.46-6.58.46s-4.48-.16-6.58-.46h-.42v-.06c-7.76-1.15-14.05-4.16-17.01-8.07v-5.86h-4.01v14.99h-42.99l-20.97-19.99v-19.99l20.97-21.01h42.99v15.03h4.01v-84.51h.02v-27.5h21.99v-5.01h-5v-12.01h-97.06v79.03h-62.94m191,53.01h42.99v-36.04h48v50.01h-12v25h12v52.02h-12v1.99h23.87l18.15-26.01h7v-6h-18.01v-48l12-12h36l12,12v5.99h6v-108.99h-132.99v30.02h-30.01v54.99h-12.99v5.03m-285,138.97h13v-24h35.86s23.17,0,23.17,0v-5.01h-72.03v29m339.16,98.04h103.85v-66.05h54.99v-2h-6.97v-23h-55.04v85h-96.83v6.04m-445.16-12.03h45.99v17.98h6.01v-4.99h84v-1h6.02v-47.96h-16.85v5.95l-3.99,3.99h-99.15l-20.02,20.03v.98h-1.99v5.02M426.94.19h-48.04v1.05s0,1.49,0,1.49l-7.73,6.72-.36.31v5.03l-2.67,2.62-.07.06-.05.07-5.06,7.08-.02.02v.02s-8.96,13.96-8.96,13.96l-6.01,8.98-.07.1-.04.11-4.97,13.05-.07.18v33.81l-24.47,30.34h-4.9l-.31.32-33.03,34.01-.3.31v1.96l-49.68,48.72-.31.31v104.88l-23.21,12.52h-91.61v109.97h-3.9v-16h-44.49l-.31.31-16.99,17-.31.31v24.83l.27.3,16.99,19,.31.35h44.52v-15h30.91v3.9h-15v37h-18v56.1h66.86v54.99h23.98v33.92h-24.02v61.07h13.54l18.48,19.4v1.61h1.99v2.92h-21.98v50.08h87.06v-5.98h3.91v4.99h84v.99h32.21l16.82.07v72.01l.03.12c11.42,47.13,35.76,99.73,36,100.26l.13.27.25.16,6.08,3.94.26.17h49.92l.28-.6c.33-.71,33.34-71.12,37.15-104.33v-.06s0-.06,0-.06v-71.98h89.98v-4.99h3.88v4.99h166.07v-66.98h62v-92.1h-56v-49h-34v-3.9h16v-18h3.9v6h69.1v-17h3.01v-24.09h-3.01v-16.01h-29.99v-102h-13.01v-10.9h16v-46.48l-.31-.31-65.01-65-.31-.31h-93.66l-.2.08-6.81,2.89h-30.63l-4.91-.94-.32-.06-.3.13-6.78,2.9h-6.38l-1.71-1.71-.31-.31h-8.52l-.09.02-16.9,3.02h-15.8l-25.07-3.85v-13.09h-.2s-5.8-27.2-5.8-27.2l-6.03-32.03v-.03s-.01-.03-.01-.03l-1.99-7.99-.02-.1-.04-.09-5.06-11.02-6.92-16.92-.27-.65h-.7s-2.6-.01-2.6-.01l-4.58-3.69-12.06-14.98-7.85-8.85-2.01-4.89v-.03s-.03-.03-.03-.03l-4.9-9.91-.06-.11-.08-.1-5.06-6.02-.03-.03-.03-.03-9.96-9.96-.06-.06-.07-.05-6.87-4.98-9.72-11.59v-39.88l-.14-.24-2.9-5.02-4.05-6.98-.04-.07-.05-.06-3.94-4.96-.1-.13-.13-.09-5.97-4.04-7.14-5.03-9.56-7.65v-3.05l6.8-8.78.22-.28v-3.61l-.13-.24-4.87-8.81V.19h0Zm-45.44,105.95l23.6-7.84,5.23.03,7.77,9.55.31.39h.5s4.54,0,4.54,0l7.4,6.44v6.92l.27.3,17.76,19.71v11.05l.35.31,15.16,13.59v1.44l.32.31,32.13,31.34v5.52s0,.44,0,.44l.31.31,2,1.99.03.03.04.03,11.66,9.7v5.41l-5.86,26.07h-3.82l-81.89-35.86-.2-.09h-11.36l-.12.03-20.85,4.93h-29.15l-.25.15-43.79,25.84h-3.03l-5.67-10.47-.3-.55h-3.07l-5.56-9.23v-8.2l5.72-6.84.15-.17.06-.22,2.97-10.74,7.42-8.46h12.66v-8.64l11.84-15.76,20.64-26.61h2.52v-7.66l21.56-24.47h0Zm5.73,135.15h6.52l19.45,4.86,2.78,4.63.31.51h9.33l23.54,11.74,3.83,6.71.3.53h24.59v66.03h33.08v-12.03h15.88v33.89h-65.95v50.54l-10.51,10.48h-23.53v21h-.89v-21h-97.01v-90.99h-37v-59.94h50.31l.28-.22,16.86-12.89,5.66-1.89h5.14l.27-.19,16.76-11.79h0Zm243.7,82.98h65.92v30h12.98v45.92h-94.91v-2.91h19.01v-39.11h-80.99v-33.89h16.9v1.99h61.08v-1.99h0Zm-422.99,56.01h89.89v7.89h-25.97v76.1h39.07v-12.01h40.9v82.3l-21.28,10.65h-52.71v39.94h-33.74v-18.88h7.01v-32.08h-79.01v-61.02h-12v-3.9h11.82v-48.01h36.01v-40.99h0Zm283.94,4.99h94.96v12.01h5v2.91h-21.99v27.5l-.02,1.05v83.46h-1.91v-15.03h-44.47l-.31.31-20.97,21.01-.31.31v20.87l.33.31,20.97,19.99.3.29h44.46v-14.99h1.91v5.16l.21.28c3.05,4.03,9.14,7.05,16.8,8.34v.21h1.4c2.2.3,4.44.46,6.65.46s4.45-.15,6.65-.46h1.4v-.21c7.65-1.29,13.74-4.3,16.79-8.33l.21-.28v-8.18h40.88v124.94h-23.97v44.08h13.15v40.93h-14.16v5.01h-3.88v-5.01h-93.56l-.32.4-45.8,57.57h-35.8l-45.8-57.61-.32-.4h-20.45v-3.9h10v-64.1h-45.83v-10.98h-19.16v-3.92h27v-18h16.91v16.99h47.08v-38.07h-.99v-2.91h.99v-39.1h-36v-12.87h4.01v-26.13h-4.01v-12.91h25.01v-51.04h-25.01v-20.92h36.01v-4.96h.89v4.96h65.04v-79.03h0Zm171.06,42.01h130.89v106.89h-3.9v-5.38l-.31-.31-12-12-.31-.31h-36.87l-.31.31-12,12-.31.31v49.48h18.01v3.9h-6.49l-.31.45-17.83,25.56h-10.27v-54h-12v-22.9h12v-52.11h-50.1v36.04h-40.89v-2.93h12.99v-54.99h30.01v-30.02h0Zm-328.01,200.01h69.93v2.91h-22.12s-21.86,0-21.86,0h-15.05v24h-10.9v-26.9h0Zm435.99,35.99h52.94v22.9h-48.02v66.05h-101.75v-3.94h96.83v-85h0Zm-416.83,43.05h14.75v45.86h-6.02v1h-84v4.99h-3.91v-17.98h-45.99v-2.92h1.99v-1.59l19.41-19.41h99.15l.31-.31,3.99-3.99.31-.31v-5.34h0Z"/></g><g id="TP_Lines_test"><polygon class="cls-1" points="487.86 530.24 482.85 540.19 492.89 540.2 498.92 530.24 498.92 528.24 492.89 518.28 482.85 518.29 487.86 528.24 487.86 530.24"/><polygon class="cls-1" points="487.86 530.24 482.85 540.19 492.89 540.2 498.92 530.24 498.92 528.24 492.89 518.28 482.85 518.29 487.86 528.24 487.86 530.24"/><polygon class="cls-1" points="401.91 563.17 396.89 573.12 406.94 573.14 412.96 563.17 412.96 561.18 406.94 551.21 396.89 551.23 401.91 561.18 401.91 563.17"/><polygon class="cls-1" points="30.95 454.22 25.93 464.17 35.97 464.19 42 454.22 42 452.23 35.97 442.26 25.93 442.27 30.95 452.23 30.95 454.22"/><polygon class="cls-1" points="874.85 538.19 869.84 548.14 879.88 548.16 885.91 538.19 885.91 536.2 879.88 526.23 869.84 526.25 874.85 536.2 874.85 538.19"/><polygon class="cls-1" points="9.67 459.22 11.99 459.22 25.25 459.22 27.76 454.23 27.76 452.24 25.24 447.22 11.99 447.22 11.99 208.23 220.38 208.23 220.38 196.24 0 196.24 0 202.24 0 208.23 0 459.22 9.67 459.22"/><polygon class="cls-1" points="906.89 531.25 885.91 531.25 885.91 531.28 888.91 536.24 888.91 538.23 885.91 543.19 885.91 543.22 918.88 543.22 918.88 533.1 918.88 531.25 918.88 196.23 910.58 196.23 906.89 196.23 549.9 196.23 549.9 208.22 906.89 208.22 906.89 531.25"/><polygon class="cls-1" points="412.96 568.13 412.96 568.21 464.9 568.21 464.9 558.4 464.9 556.25 464.9 535.23 482.45 535.23 484.97 530.23 484.97 528.23 482.45 523.23 464.9 523.23 464.9 523.23 452.9 523.23 452.9 556.25 412.98 556.25 415.96 561.18 415.96 563.17 412.96 568.13"/></g><g id="Callouts_copy"><path class="cls-5" d="m353.95,73.22c0-.16.04-.37.13-.61l2.5-6.81c.27-.74.72-1.09,1.44-1.09s1.19.33,1.47,1.08l2.51,6.82c.09.25.12.42.12.61,0,.53-.4.9-.96.9s-.83-.25-1-.84l-.48-1.45h-3.31l-.48,1.43c-.18.61-.46.86-.97.86-.6,0-.97-.35-.97-.9Zm5.29-2.88l-1.21-3.75h-.04l-1.19,3.75h2.44Z"/><path class="cls-5" d="m363.17,68.59h-.36c-.44,0-.72-.27-.72-.7s.28-.7.72-.7h.36v-.76c0-.6.35-.96.93-.96s.93.37.93.96v.76h.65c.44,0,.71.27.71.7s-.27.7-.71.7h-.65v3.26c0,.48.17.69.56.72h.12c.46.06.7.25.7.69,0,.55-.53.83-1.31.83h-.06c-1.24,0-1.87-.62-1.87-1.82v-3.67Z"/><path class="cls-5" d="m367.79,68.59h-.36c-.44,0-.72-.27-.72-.7s.28-.7.72-.7h.36v-.76c0-.6.35-.96.93-.96s.93.37.93.96v.76h.65c.44,0,.71.27.71.7s-.27.7-.71.7h-.65v3.26c0,.48.17.69.56.72h.12c.46.06.7.25.7.69,0,.55-.53.83-1.31.83h-.06c-1.24,0-1.87-.62-1.87-1.82v-3.67Z"/><path class="cls-5" d="m371.59,72.04c0-1.24.95-1.96,2.65-2.06l1.71-.1v-.45c0-.63-.44-1-1.14-1-.56,0-.91.18-1.32.72-.2.23-.44.34-.74.34-.45,0-.77-.29-.77-.71,0-.15.03-.28.1-.42.32-.81,1.41-1.31,2.82-1.31,1.75,0,2.88.9,2.88,2.27v3.88c0,.62-.37.93-.9.93s-.85-.28-.89-.83v-.35h-.04c-.38.72-1.23,1.15-2.08,1.15-1.29,0-2.28-.84-2.28-2.06Zm4.37-.54v-.5l-1.43.09c-.69.05-1.09.36-1.09.84,0,.51.42.83,1.04.83.81,0,1.48-.53,1.48-1.26Z"/><path class="cls-5" d="m378.72,70.6c0-2.18,1.29-3.55,3.34-3.55,1.36,0,2.5.66,2.87,1.62.06.16.1.32.1.46,0,.46-.36.72-.79.72-.37,0-.59-.15-.78-.48-.34-.6-.75-.87-1.34-.87-.94,0-1.52.77-1.52,2.09s.58,2.1,1.5,2.1c.65,0,1.05-.32,1.33-.8.25-.39.45-.55.84-.55.43,0,.78.29.78.74,0,.15-.04.3-.12.48-.41.93-1.57,1.57-2.87,1.57-2.05,0-3.35-1.35-3.35-3.55Z"/><path class="cls-5" d="m386.1,73.17v-7.5c0-.63.39-.97.93-.97s.93.34.93.97v4.22h.03l2.46-2.47c.25-.26.46-.37.74-.37.48,0,.83.35.83.81,0,.28-.08.45-.35.7l-1.73,1.64,1.9,2.42c.2.27.26.44.26.68,0,.5-.36.84-.88.84-.39,0-.62-.14-.91-.58l-1.75-2.31-.59.55v1.38c0,.63-.38.96-.93.96s-.93-.33-.93-.96Z"/><path class="cls-5" d="m392.49,70.63c0-2.19,1.28-3.58,3.29-3.58s3.22,1.32,3.22,3.17c0,.51-.29.81-.81.81h-3.88v.08c0,1.01.61,1.67,1.55,1.67.68,0,1.12-.23,1.62-.82.2-.2.36-.27.6-.27.4,0,.72.25.72.68,0,.15-.04.3-.13.45-.45.84-1.5,1.33-2.82,1.33-2.13,0-3.38-1.31-3.38-3.52Zm4.73-.74c-.04-.89-.61-1.47-1.42-1.47s-1.4.6-1.47,1.47h2.89Z"/><path class="cls-5" d="m399.95,73.17v-5.18c0-.59.36-.93.9-.93s.88.34.88.93v.44h.04c.18-.84.74-1.35,1.42-1.35.25,0,.44.06.58.17.18.14.27.37.27.69,0,.29-.09.51-.27.67s-.44.23-.81.24c-.84.01-1.14.49-1.14,1.29v3.02c0,.62-.36.96-.93.96s-.93-.35-.93-.96Z"/><path class="cls-5" d="m407.29,72.39c-.06-.17-.1-.34-.1-.51,0-.51.35-.84.84-.84.39,0,.65.15.88.56.3.7,1.02,1.02,1.89,1.02,1.03,0,1.73-.5,1.73-1.17,0-.6-.43-.95-1.58-1.18l-.97-.19c-1.83-.36-2.72-1.24-2.72-2.6,0-1.68,1.46-2.79,3.5-2.79,1.68,0,2.94.7,3.35,1.9.04.13.07.26.07.43,0,.46-.33.77-.82.77-.43,0-.7-.17-.91-.56-.3-.69-.9-.98-1.68-.98-.95,0-1.57.44-1.57,1.12,0,.56.44.91,1.52,1.13l.96.2c1.94.39,2.78,1.17,2.78,2.56,0,1.79-1.4,2.92-3.69,2.92-1.89,0-3.1-.76-3.47-1.76Z"/><path class="cls-5" d="m415.46,75.46v-7.45c0-.62.38-.95.91-.95s.91.33.91.96v.37h.04c.37-.8,1.12-1.29,2.11-1.29,1.73,0,2.79,1.31,2.79,3.51s-1.05,3.51-2.75,3.51c-.99,0-1.75-.48-2.11-1.25h-.04v2.6c0,.63-.38.96-.93.96s-.93-.33-.93-.96Zm4.86-4.86c0-1.23-.58-2.02-1.51-2.02s-1.5.81-1.5,2.02.6,2.02,1.5,2.02,1.51-.78,1.51-2.02Z"/><path class="cls-5" d="m422.9,72.04c0-1.24.95-1.96,2.65-2.06l1.71-.1v-.45c0-.63-.44-1-1.14-1-.56,0-.91.18-1.32.72-.2.23-.44.34-.74.34-.45,0-.77-.29-.77-.71,0-.15.03-.28.1-.42.32-.81,1.41-1.31,2.82-1.31,1.75,0,2.88.9,2.88,2.27v3.88c0,.62-.37.93-.9.93s-.85-.28-.89-.83v-.35h-.04c-.38.72-1.23,1.15-2.08,1.15-1.29,0-2.28-.84-2.28-2.06Zm4.37-.54v-.5l-1.43.09c-.69.05-1.09.36-1.09.84,0,.51.42.83,1.04.83.81,0,1.48-.53,1.48-1.26Z"/><path class="cls-5" d="m431.37,73.16l-1.37-4.74c-.07-.24-.1-.39-.1-.57,0-.46.37-.79.9-.79.46,0,.76.28.87.79l1.01,4.4h.04l1.05-4.34c.12-.55.48-.85,1.05-.85s.91.3,1.03.85l1.06,4.34h.04l1.02-4.41c.1-.5.4-.77.86-.77.51,0,.88.32.88.79,0,.17-.03.32-.1.56l-1.37,4.75c-.19.67-.55.98-1.19.98-.68,0-1.04-.29-1.2-.98l-1.03-3.96h-.04l-1.03,3.97c-.16.67-.53.97-1.19.97s-.98-.3-1.17-.97Z"/><path class="cls-5" d="m440.53,73.17v-5.18c0-.58.34-.93.9-.93s.93.36.93.94v.38h.04c.36-.84,1.05-1.31,2.09-1.31,1.51,0,2.36.95,2.36,2.55v3.55c0,.63-.39.96-.93.96s-.93-.33-.93-.96v-3.17c0-.89-.42-1.4-1.25-1.4s-1.36.61-1.36,1.49v3.07c0,.63-.38.96-.93.96s-.93-.33-.93-.96Z"/><path class="cls-2" d="m739.18,383.31v-5.61c0-.48.27-.77.74-.77h3.3c.41,0,.67.23.67.61s-.27.61-.67.61h-2.56v1.88h2.32c.38,0,.63.22.63.58s-.24.59-.63.59h-2.32v2.1c0,.48-.27.77-.74.77s-.74-.28-.74-.77Z"/><path class="cls-2" d="m744.21,381.36c0-1.69,1.03-2.72,2.59-2.72s2.59,1.03,2.59,2.72-1.01,2.73-2.59,2.73-2.59-1.02-2.59-2.73Zm3.74,0c0-1.04-.45-1.64-1.14-1.64s-1.15.6-1.15,1.64.44,1.64,1.15,1.64,1.14-.59,1.14-1.64Z"/><path class="cls-2" d="m750.1,382.12v-2.73c0-.49.3-.75.71-.75s.71.26.71.75v2.44c0,.7.35,1.07.98,1.07s1.03-.45,1.03-1.15v-2.36c0-.49.3-.75.71-.75s.71.26.71.75v3.97c0,.47-.28.72-.69.72s-.69-.25-.69-.72v-.32h-.03c-.26.66-.78,1.04-1.57,1.04-1.13,0-1.88-.74-1.88-1.96Z"/><path class="cls-2" d="m755.89,383.34v-3.98c0-.44.26-.72.69-.72s.71.27.71.72v.29h.03c.28-.65.81-1.01,1.61-1.01,1.16,0,1.82.73,1.82,1.96v2.73c0,.49-.3.74-.71.74s-.71-.25-.71-.74v-2.44c0-.68-.32-1.07-.96-1.07s-1.04.47-1.04,1.15v2.36c0,.49-.29.74-.71.74s-.71-.25-.71-.74Z"/><path class="cls-2" d="m762.03,379.82h-.27c-.34,0-.55-.21-.55-.54s.21-.54.55-.54h.27v-.58c0-.46.27-.74.71-.74s.71.28.71.74v.58h.5c.34,0,.55.21.55.54s-.21.54-.55.54h-.5v2.5c0,.37.13.53.43.55h.09c.35.05.54.2.54.53,0,.42-.41.63-1.01.63h-.05c-.95,0-1.44-.47-1.44-1.4v-2.82Z"/><path class="cls-2" d="m764.95,382.48c0-.95.73-1.5,2.04-1.58l1.32-.08v-.35c0-.49-.34-.77-.88-.77-.43,0-.7.14-1.02.55-.16.18-.34.26-.57.26-.35,0-.6-.22-.6-.55,0-.11.02-.21.07-.32.24-.62,1.08-1.01,2.17-1.01,1.34,0,2.22.69,2.22,1.75v2.98c0,.47-.29.72-.69.72s-.65-.21-.68-.63v-.27h-.03c-.29.56-.95.88-1.6.88-1,0-1.75-.64-1.75-1.59Zm3.36-.42v-.38l-1.1.07c-.53.04-.83.28-.83.65,0,.39.32.63.8.63.62,0,1.14-.41,1.14-.97Z"/><path class="cls-2" d="m770.6,377.36c0-.42.33-.74.76-.74s.76.32.76.74-.33.74-.76.74-.76-.33-.76-.74Zm.05,5.98v-3.96c0-.46.27-.75.71-.75s.71.28.71.75v3.96c0,.46-.27.74-.71.74s-.71-.28-.71-.74Z"/><path class="cls-2" d="m773.02,383.34v-3.98c0-.44.26-.72.69-.72s.71.27.71.72v.29h.03c.28-.65.81-1.01,1.61-1.01,1.16,0,1.82.73,1.82,1.96v2.73c0,.49-.3.74-.71.74s-.71-.25-.71-.74v-2.44c0-.68-.32-1.07-.96-1.07s-1.04.47-1.04,1.15v2.36c0,.49-.29.74-.71.74s-.71-.25-.71-.74Z"/><path class="cls-2" d="m593.88,476.8v-5.6c0-.6.35-.95.95-.95.51,0,.79.21,1.01.76l1.75,4.33h.04l1.74-4.33c.21-.54.5-.76,1.02-.76.6,0,.95.35.95.95v5.6c0,.43-.24.69-.66.69s-.65-.25-.65-.69v-4.16h-.04l-1.74,4.26c-.13.31-.32.45-.63.45s-.52-.14-.64-.44l-1.74-4.27h-.04v4.16c0,.43-.24.69-.65.69s-.66-.25-.66-.69Z"/><path class="cls-2" d="m602.37,470.77c0-.42.33-.74.76-.74s.76.32.76.74-.33.74-.76.74-.76-.33-.76-.74Zm.05,5.98v-3.96c0-.46.27-.75.71-.75s.71.28.71.75v3.96c0,.46-.27.74-.71.74s-.71-.28-.71-.74Z"/><path class="cls-2" d="m604.6,474.77c0-1.66.83-2.69,2.14-2.69.76,0,1.34.4,1.6.98h.03v-2.07c0-.49.3-.75.71-.75s.71.26.71.75v5.79c0,.47-.29.72-.71.72s-.72-.24-.72-.72v-.3h-.03c-.23.59-.8,1.01-1.61,1.01-1.31,0-2.13-1.04-2.13-2.71Zm3.78,0c0-.95-.46-1.56-1.16-1.56s-1.16.6-1.16,1.56.44,1.55,1.16,1.55,1.16-.6,1.16-1.55Z"/><path class="cls-2" d="m658.35,531.06v-5.7c0-.49.27-.77.74-.77s.74.28.74.77v2.19h3.17v-2.19c0-.49.27-.77.74-.77s.74.28.74.77v5.7c0,.48-.27.77-.74.77s-.74-.28-.74-.77v-2.29h-3.17v2.29c0,.48-.27.77-.74.77s-.74-.28-.74-.77Z"/><path class="cls-2" d="m665.33,529.11c0-1.69,1.03-2.72,2.59-2.72s2.59,1.03,2.59,2.72-1.01,2.73-2.59,2.73-2.59-1.02-2.59-2.73Zm3.74,0c0-1.04-.45-1.64-1.14-1.64s-1.15.6-1.15,1.64.45,1.64,1.15,1.64,1.14-.59,1.14-1.64Z"/><path class="cls-2" d="m671.06,529.11c0-1.69,1.03-2.72,2.59-2.72s2.59,1.03,2.59,2.72-1.01,2.73-2.59,2.73-2.59-1.02-2.59-2.73Zm3.73,0c0-1.04-.45-1.64-1.14-1.64s-1.15.6-1.15,1.64.44,1.64,1.15,1.64,1.14-.59,1.14-1.64Z"/><path class="cls-2" d="m677.01,531.1v-5.77c0-.49.3-.75.71-.75s.71.26.71.75v3.25h.02l1.89-1.9c.19-.2.35-.28.57-.28.37,0,.63.27.63.62,0,.21-.06.35-.27.54l-1.33,1.26,1.46,1.86c.16.21.2.34.2.52,0,.38-.28.64-.68.64-.3,0-.47-.11-.7-.44l-1.34-1.78-.46.42v1.06c0,.49-.29.74-.71.74s-.71-.25-.71-.74Z"/><path class="cls-2" d="m682.13,530.23c0-.95.73-1.5,2.04-1.58l1.32-.08v-.35c0-.49-.34-.77-.88-.77-.43,0-.7.14-1.02.55-.16.18-.34.26-.57.26-.35,0-.6-.22-.6-.55,0-.11.03-.21.07-.32.24-.62,1.08-1.01,2.17-1.01,1.34,0,2.22.69,2.22,1.75v2.98c0,.47-.29.72-.69.72s-.65-.21-.68-.63v-.27h-.03c-.29.56-.95.88-1.6.88-1,0-1.75-.64-1.75-1.59Zm3.36-.42v-.38l-1.1.07c-.53.04-.83.28-.83.65,0,.39.32.63.8.63.62,0,1.14-.41,1.14-.97Z"/><path class="cls-2" d="m687.84,531.1v-5.78c0-.46.26-.73.7-.73s.7.27.7.73v2.12h.03c.28-.66.85-1.03,1.64-1.03,1.16,0,1.83.75,1.83,1.96v2.73c0,.49-.29.74-.71.74s-.71-.25-.71-.74v-2.43c0-.67-.33-1.08-.98-1.08s-1.07.47-1.07,1.16v2.35c0,.49-.29.74-.71.74s-.71-.25-.71-.74Z"/><path class="cls-2" d="m120.28,542.67c-.05-.13-.08-.26-.08-.4,0-.39.27-.65.65-.65.3,0,.5.12.68.43.23.54.78.78,1.46.78.79,0,1.33-.38,1.33-.9,0-.46-.33-.73-1.22-.91l-.75-.15c-1.41-.28-2.09-.95-2.09-2,0-1.29,1.12-2.14,2.69-2.14,1.29,0,2.26.54,2.57,1.46.03.1.05.2.05.33,0,.35-.25.59-.63.59-.33,0-.54-.13-.7-.43-.23-.53-.69-.75-1.29-.75-.73,0-1.21.34-1.21.86,0,.43.34.7,1.17.87l.74.15c1.49.3,2.14.9,2.14,1.97,0,1.38-1.08,2.25-2.84,2.25-1.46,0-2.39-.58-2.67-1.35Z"/><path class="cls-2" d="m126.6,543.26v-5.78c0-.46.26-.73.7-.73s.7.27.7.73v2.12h.03c.28-.66.85-1.03,1.65-1.03,1.16,0,1.83.75,1.83,1.96v2.73c0,.49-.29.74-.71.74s-.71-.25-.71-.74v-2.43c0-.67-.33-1.08-.98-1.08s-1.07.47-1.07,1.16v2.35c0,.49-.29.74-.71.74s-.71-.25-.71-.74Z"/><path class="cls-2" d="m132.22,541.28c0-1.69,1.03-2.72,2.59-2.72s2.59,1.03,2.59,2.72-1.01,2.73-2.59,2.73-2.59-1.02-2.59-2.73Zm3.74,0c0-1.04-.45-1.64-1.14-1.64s-1.15.6-1.15,1.64.44,1.64,1.15,1.64,1.14-.59,1.14-1.64Z"/><path class="cls-2" d="m138.94,543.26l-1.05-3.65c-.05-.19-.08-.3-.08-.44,0-.36.29-.61.69-.61.36,0,.59.21.67.61l.78,3.38h.03l.81-3.33c.09-.42.37-.65.81-.65s.7.23.8.65l.82,3.33h.03l.78-3.39c.08-.38.31-.6.66-.6.4,0,.67.25.67.61,0,.13-.02.25-.08.43l-1.05,3.65c-.15.52-.42.75-.91.75-.52,0-.8-.22-.92-.76l-.8-3.05h-.03l-.79,3.06c-.12.52-.41.75-.91.75s-.75-.23-.9-.75Z"/><path class="cls-2" d="m145.72,541.31c0-1.68.98-2.75,2.53-2.75s2.48,1.02,2.48,2.44c0,.4-.22.62-.62.62h-2.99v.06c0,.78.47,1.28,1.19,1.28.52,0,.86-.18,1.25-.63.15-.16.28-.21.46-.21.31,0,.56.2.56.52,0,.11-.03.23-.1.35-.35.64-1.16,1.03-2.17,1.03-1.64,0-2.6-1.01-2.6-2.71Zm3.64-.57c-.03-.68-.47-1.13-1.09-1.13s-1.08.46-1.13,1.13h2.22Z"/><path class="cls-2" d="m151.47,543.26v-3.98c0-.45.28-.72.69-.72s.67.26.67.72v.34h.03c.14-.65.57-1.04,1.09-1.04.19,0,.34.04.44.13.14.11.21.28.21.53,0,.22-.07.4-.21.51s-.34.18-.62.19c-.65,0-.88.38-.88,1v2.32c0,.47-.28.74-.71.74s-.71-.27-.71-.74Z"/><path class="cls-2" d="m154.99,542.97c-.03-.09-.05-.19-.05-.26,0-.33.24-.55.58-.55.23,0,.42.1.62.32.28.37.6.53,1.14.53s.85-.21.85-.56c0-.28-.18-.43-.69-.55l-.88-.19c-1.03-.22-1.54-.74-1.54-1.52,0-1,.86-1.65,2.22-1.65,1.08,0,1.88.49,2.05,1.08.02.07.03.14.03.21,0,.29-.18.49-.55.49-.19,0-.39-.07-.52-.22-.25-.32-.53-.56-1.04-.56-.48,0-.82.23-.82.57,0,.27.21.45.73.57l.86.19c1.11.23,1.57.64,1.57,1.43,0,1.04-.93,1.71-2.31,1.71-1.2,0-2-.43-2.25-1.04Z"/><path class="cls-2" d="m744.16,547.68c0-2.26,1.29-3.62,3.36-3.62,1.35,0,2.41.63,2.81,1.5.08.17.11.31.11.45,0,.38-.26.63-.64.63-.31,0-.53-.13-.71-.43-.35-.63-.86-.94-1.55-.94-1.16,0-1.86.88-1.86,2.38s.74,2.46,1.91,2.46c.96,0,1.63-.59,1.66-1.46v-.11s-1.02,0-1.02,0c-.35,0-.59-.2-.59-.54s.23-.54.59-.54h1.72c.46,0,.74.28.74.77v.11c0,1.79-1.14,3-3.12,3-2.1,0-3.39-1.37-3.39-3.66Z"/><path class="cls-2" d="m751.28,549.72c0-.95.73-1.5,2.04-1.58l1.32-.08v-.35c0-.49-.34-.77-.88-.77-.43,0-.7.14-1.02.55-.16.18-.34.26-.57.26-.35,0-.6-.22-.6-.55,0-.11.02-.21.07-.32.24-.62,1.08-1.01,2.17-1.01,1.34,0,2.22.69,2.22,1.75v2.98c0,.47-.29.72-.69.72s-.65-.21-.68-.63v-.27h-.03c-.29.56-.95.88-1.6.88-1,0-1.75-.64-1.75-1.59Zm3.36-.42v-.38l-1.1.07c-.53.04-.83.28-.83.65,0,.39.32.63.8.63.62,0,1.14-.41,1.14-.97Z"/><path class="cls-2" d="m756.96,550.59v-3.98c0-.45.28-.72.69-.72s.67.26.67.72v.34h.03c.14-.65.57-1.04,1.09-1.04.19,0,.34.04.44.13.14.11.21.28.21.53,0,.22-.07.4-.21.51s-.34.18-.62.19c-.65,0-.88.38-.88,1v2.32c0,.47-.28.74-.71.74s-.71-.27-.71-.74Z"/><path class="cls-2" d="m760.23,548.6c0-1.66.83-2.69,2.14-2.69.76,0,1.34.4,1.6.98h.03v-2.07c0-.49.3-.75.71-.75s.71.26.71.75v5.79c0,.47-.29.72-.71.72s-.72-.24-.72-.72v-.3h-.02c-.23.59-.81,1.01-1.61,1.01-1.31,0-2.13-1.04-2.13-2.71Zm3.78,0c0-.95-.45-1.56-1.16-1.56s-1.16.6-1.16,1.56.44,1.55,1.16,1.55,1.16-.6,1.16-1.55Z"/><path class="cls-2" d="m766.19,548.63c0-1.68.98-2.75,2.53-2.75s2.48,1.02,2.48,2.44c0,.4-.22.62-.62.62h-2.99v.06c0,.78.47,1.28,1.19,1.28.52,0,.86-.18,1.25-.63.15-.16.28-.21.46-.21.31,0,.56.2.56.52,0,.11-.03.23-.1.35-.35.64-1.16,1.03-2.17,1.03-1.64,0-2.6-1.01-2.6-2.71Zm3.64-.57c-.03-.68-.47-1.13-1.09-1.13s-1.08.46-1.13,1.13h2.22Z"/><path class="cls-2" d="m771.93,550.59v-3.98c0-.44.26-.72.69-.72s.71.27.71.72v.29h.03c.28-.65.81-1.01,1.61-1.01,1.16,0,1.82.73,1.82,1.96v2.73c0,.49-.3.74-.71.74s-.71-.25-.71-.74v-2.44c0-.68-.32-1.07-.96-1.07s-1.04.47-1.04,1.15v2.36c0,.49-.29.74-.71.74s-.71-.25-.71-.74Z"/><path class="cls-2" d="m808.25,706.74v-5.51c0-.48.27-.77.74-.77h3.35c.41,0,.67.23.67.61s-.27.61-.67.61h-2.61v1.69h2.49c.37,0,.62.21.62.57s-.24.57-.62.57h-2.49v1.78h2.61c.4,0,.67.23.67.61s-.26.61-.67.61h-3.35c-.46,0-.74-.28-.74-.77Z"/><path class="cls-2" d="m813.89,706.87v-5.77c0-.49.3-.75.71-.75s.71.26.71.75v5.77c0,.49-.29.74-.71.74s-.71-.25-.71-.74Z"/><path class="cls-2" d="m816.31,706.89v-5.79c0-.49.3-.75.71-.75s.71.26.71.75v2.08h.03c.29-.62.87-.99,1.62-.99,1.32,0,2.13,1.01,2.13,2.7s-.8,2.7-2.12,2.7c-.77,0-1.35-.37-1.64-.98h-.03v.28c0,.47-.29.72-.71.72s-.7-.24-.7-.72Zm3.74-2c0-.95-.44-1.56-1.15-1.56s-1.17.62-1.17,1.56.47,1.55,1.17,1.55,1.15-.6,1.15-1.55Z"/><path class="cls-2" d="m822.06,704.89c0-1.69,1.03-2.72,2.59-2.72s2.59,1.03,2.59,2.72-1.01,2.73-2.59,2.73-2.59-1.02-2.59-2.73Zm3.74,0c0-1.04-.45-1.64-1.14-1.64s-1.15.6-1.15,1.64.44,1.64,1.15,1.64,1.14-.59,1.14-1.64Z"/><path class="cls-2" d="m828.79,706.87l-1.05-3.65c-.05-.19-.08-.3-.08-.44,0-.36.29-.61.69-.61.36,0,.59.21.67.61l.78,3.38h.03l.81-3.33c.09-.42.37-.65.81-.65s.7.23.8.65l.82,3.33h.03l.78-3.39c.08-.38.31-.6.66-.6.4,0,.67.25.67.61,0,.13-.02.25-.08.43l-1.05,3.65c-.15.52-.42.75-.91.75-.52,0-.8-.22-.92-.76l-.8-3.05h-.03l-.79,3.06c-.12.52-.41.75-.91.75s-.75-.23-.9-.75Z"/><path class="cls-9" d="m430.4,894.97v-7.16c0-.63.36-1,.96-1h2.54c2.75,0,4.37,1.64,4.37,4.54s-1.62,4.61-4.37,4.61h-2.54c-.6,0-.96-.37-.96-1Zm3.27-.58c1.71,0,2.64-1.04,2.64-3.02s-.95-2.97-2.64-2.97h-1.35v5.99h1.35Z"/><path class="cls-9" d="m439.09,892.6c0-2.19,1.28-3.58,3.29-3.58s3.22,1.32,3.22,3.17c0,.51-.29.81-.81.81h-3.88v.08c0,1.01.61,1.67,1.55,1.67.68,0,1.12-.23,1.62-.82.2-.2.36-.27.6-.27.4,0,.72.25.72.68,0,.15-.04.3-.13.45-.45.84-1.5,1.33-2.82,1.33-2.13,0-3.38-1.31-3.38-3.52Zm4.73-.74c-.04-.89-.61-1.47-1.42-1.47s-1.4.6-1.47,1.47h2.89Z"/><path class="cls-9" d="m447.05,895.14v-4.58h-.36c-.39,0-.68-.25-.68-.69s.29-.68.68-.68h.36v-.51c0-1.35.66-1.94,1.94-1.96.98,0,1.4.31,1.4.75,0,.26-.13.41-.37.49-.1.03-.22.04-.36.05-.57.02-.8.25-.8.75v.43h.78c.39,0,.68.25.68.68s-.29.69-.68.69h-.74v4.58c0,.64-.38.96-.93.96s-.93-.32-.93-.96Z"/><path class="cls-9" d="m450.74,892.6c0-2.19,1.28-3.58,3.29-3.58s3.22,1.32,3.22,3.17c0,.51-.29.81-.81.81h-3.88v.08c0,1.01.61,1.67,1.55,1.67.68,0,1.12-.23,1.62-.82.2-.2.36-.27.6-.27.4,0,.72.25.72.68,0,.15-.04.3-.13.45-.45.84-1.5,1.33-2.82,1.33-2.13,0-3.38-1.31-3.38-3.52Zm4.73-.74c-.04-.89-.61-1.47-1.42-1.47s-1.4.6-1.47,1.47h2.89Z"/><path class="cls-9" d="m458.2,895.14v-5.18c0-.58.34-.93.9-.93s.93.36.93.94v.38h.04c.36-.84,1.05-1.31,2.09-1.31,1.51,0,2.36.95,2.36,2.55v3.55c0,.63-.39.96-.93.96s-.93-.33-.93-.96v-3.17c0-.89-.42-1.4-1.25-1.4s-1.36.61-1.36,1.49v3.07c0,.63-.38.96-.93.96s-.93-.33-.93-.96Z"/><path class="cls-9" d="m465.45,892.56c0-2.16,1.08-3.5,2.79-3.5.98,0,1.75.52,2.08,1.28h.04v-2.69c0-.63.39-.97.93-.97s.93.34.93.97v7.52c0,.62-.38.94-.92.94s-.93-.32-.93-.94v-.39h-.03c-.3.76-1.05,1.31-2.09,1.31-1.7,0-2.77-1.35-2.77-3.52Zm4.91.01c0-1.24-.59-2.02-1.51-2.02s-1.5.78-1.5,2.02.57,2.02,1.5,2.02,1.51-.77,1.51-2.02Z"/><path class="cls-9" d="m473.19,892.6c0-2.19,1.28-3.58,3.29-3.58s3.22,1.32,3.22,3.17c0,.51-.29.81-.81.81h-3.88v.08c0,1.01.61,1.67,1.55,1.67.68,0,1.12-.23,1.62-.82.2-.2.36-.27.6-.27.4,0,.72.25.72.68,0,.15-.04.3-.13.45-.45.84-1.5,1.33-2.82,1.33-2.13,0-3.38-1.31-3.38-3.52Zm4.73-.74c-.04-.89-.61-1.47-1.42-1.47s-1.4.6-1.47,1.47h2.89Z"/><path class="cls-9" d="m480.66,895.14v-5.18c0-.59.36-.93.9-.93s.88.34.88.93v.44h.04c.18-.84.74-1.35,1.42-1.35.25,0,.44.06.58.17.18.14.27.37.27.69,0,.29-.09.51-.27.67s-.44.24-.81.24c-.84.01-1.14.49-1.14,1.29v3.02c0,.62-.36.96-.93.96s-.93-.35-.93-.96Z"/><path class="cls-9" d="m487.99,894.36c-.06-.16-.1-.34-.1-.51,0-.51.35-.84.84-.84.39,0,.65.15.88.56.3.7,1.02,1.02,1.89,1.02,1.03,0,1.73-.5,1.73-1.17,0-.6-.43-.95-1.58-1.18l-.97-.19c-1.83-.36-2.72-1.24-2.72-2.6,0-1.68,1.46-2.79,3.5-2.79,1.68,0,2.94.7,3.35,1.9.04.13.07.26.07.43,0,.46-.33.77-.82.77-.43,0-.7-.17-.91-.56-.3-.69-.89-.98-1.68-.98-.95,0-1.57.44-1.57,1.12,0,.57.44.91,1.52,1.13l.97.2c1.94.39,2.78,1.17,2.78,2.56,0,1.79-1.4,2.92-3.69,2.92-1.89,0-3.1-.75-3.47-1.76Z"/><path class="cls-9" d="m496.16,897.43v-7.45c0-.62.38-.95.91-.95s.91.33.91.96v.37h.04c.37-.8,1.12-1.29,2.11-1.29,1.73,0,2.79,1.31,2.79,3.51s-1.05,3.51-2.75,3.51c-.99,0-1.75-.48-2.11-1.25h-.04v2.6c0,.63-.38.96-.93.96s-.93-.33-.93-.96Zm4.86-4.86c0-1.23-.58-2.02-1.51-2.02s-1.5.81-1.5,2.02.6,2.02,1.5,2.02,1.51-.78,1.51-2.02Z"/><path class="cls-9" d="m503.61,894.02c0-1.24.95-1.96,2.65-2.06l1.71-.1v-.45c0-.63-.44-1-1.14-1-.56,0-.91.18-1.32.72-.2.23-.44.34-.74.34-.45,0-.77-.29-.77-.71,0-.15.03-.28.09-.42.32-.81,1.41-1.31,2.82-1.31,1.75,0,2.88.9,2.88,2.27v3.88c0,.62-.38.93-.9.93s-.85-.28-.89-.83v-.35h-.04c-.38.72-1.23,1.15-2.08,1.15-1.29,0-2.28-.84-2.28-2.06Zm4.37-.54v-.49l-1.43.09c-.69.05-1.09.36-1.09.84,0,.51.42.83,1.04.83.81,0,1.48-.53,1.48-1.26Z"/><path class="cls-9" d="m512.07,895.13l-1.37-4.74c-.07-.24-.1-.39-.1-.57,0-.46.37-.79.9-.79.46,0,.76.28.87.79l1.01,4.4h.04l1.05-4.33c.12-.55.48-.85,1.05-.85s.91.3,1.04.85l1.06,4.33h.04l1.02-4.41c.1-.5.4-.77.86-.77.51,0,.88.32.88.79,0,.17-.03.32-.1.56l-1.37,4.75c-.19.67-.54.98-1.19.98-.68,0-1.04-.29-1.2-.98l-1.03-3.96h-.04l-1.03,3.97c-.16.67-.53.97-1.19.97s-.98-.3-1.17-.97Z"/><path class="cls-9" d="m521.23,895.14v-5.18c0-.58.34-.93.9-.93s.93.36.93.94v.38h.04c.36-.84,1.05-1.31,2.09-1.31,1.51,0,2.36.95,2.36,2.55v3.55c0,.63-.39.96-.93.96s-.93-.33-.93-.96v-3.17c0-.89-.42-1.4-1.25-1.4s-1.36.61-1.36,1.49v3.07c0,.63-.38.96-.93.96s-.93-.33-.93-.96Z"/><path class="cls-2" d="m128.39,418.64c0-.12.03-.29.1-.47l1.92-5.24c.21-.57.55-.83,1.11-.83s.92.25,1.13.83l1.93,5.24c.07.19.09.32.09.47,0,.41-.31.69-.74.69s-.63-.19-.77-.65l-.37-1.11h-2.54l-.37,1.1c-.14.47-.36.66-.75.66-.46,0-.75-.27-.75-.69Zm4.07-2.21l-.93-2.89h-.03l-.91,2.89h1.88Z"/><path class="cls-2" d="m137.55,418.64v-5.6c0-.6.35-.95.95-.95.51,0,.8.21,1.01.76l1.75,4.33h.04l1.74-4.33c.21-.54.5-.76,1.02-.76.6,0,.95.35.95.95v5.6c0,.43-.24.69-.66.69s-.65-.25-.65-.69v-4.16h-.04l-1.74,4.26c-.13.31-.32.45-.63.45s-.52-.14-.64-.44l-1.74-4.27h-.04v4.16c0,.43-.24.69-.65.69s-.66-.25-.66-.69Z"/><path class="cls-2" d="m145.74,417.73c0-.95.73-1.5,2.04-1.58l1.32-.08v-.35c0-.49-.34-.77-.88-.77-.43,0-.7.14-1.02.55-.16.18-.34.26-.57.26-.35,0-.6-.22-.6-.55,0-.11.02-.21.07-.32.24-.62,1.08-1.01,2.17-1.01,1.34,0,2.22.69,2.22,1.75v2.98c0,.47-.29.72-.69.72s-.65-.21-.68-.63v-.27h-.03c-.29.56-.95.88-1.6.88-1,0-1.75-.64-1.75-1.59Zm3.36-.42v-.38l-1.1.07c-.53.04-.83.28-.83.65,0,.39.32.63.8.63.62,0,1.14-.41,1.14-.97Z"/><path class="cls-2" d="m151.4,412.62c0-.42.33-.74.76-.74s.76.32.76.74-.33.74-.76.74-.76-.33-.76-.74Zm.05,5.98v-3.96c0-.46.27-.75.71-.75s.71.28.71.75v3.96c0,.46-.27.74-.71.74s-.71-.28-.71-.74Z"/><path class="cls-2" d="m153.82,418.6v-3.98c0-.44.26-.72.69-.72s.71.27.71.72v.29h.03c.28-.65.81-1.01,1.61-1.01,1.16,0,1.82.73,1.82,1.96v2.73c0,.49-.3.74-.71.74s-.71-.25-.71-.74v-2.44c0-.68-.32-1.07-.96-1.07s-1.04.47-1.04,1.15v2.36c0,.49-.29.74-.71.74s-.71-.25-.71-.74Z"/><path class="cls-2" d="m334.44,438.76c0-.12.03-.29.1-.47l1.92-5.24c.21-.57.55-.83,1.11-.83s.92.25,1.13.83l1.93,5.24c.07.19.09.32.09.47,0,.41-.31.69-.74.69s-.63-.19-.77-.65l-.37-1.11h-2.54l-.37,1.1c-.14.47-.36.66-.75.66-.46,0-.75-.27-.75-.69Zm4.07-2.21l-.93-2.89h-.03l-.91,2.89h1.88Z"/><path class="cls-2" d="m343.5,438.13c-.05-.13-.08-.26-.08-.4,0-.39.27-.65.65-.65.3,0,.5.12.68.43.23.54.78.78,1.46.78.79,0,1.33-.38,1.33-.9,0-.46-.33-.73-1.22-.91l-.75-.15c-1.41-.28-2.09-.95-2.09-2,0-1.29,1.12-2.14,2.69-2.14,1.29,0,2.26.54,2.57,1.46.03.1.05.2.05.33,0,.35-.25.59-.63.59-.33,0-.54-.13-.7-.43-.23-.53-.69-.75-1.29-.75-.73,0-1.21.34-1.21.86,0,.43.34.7,1.17.87l.74.15c1.49.3,2.14.9,2.14,1.97,0,1.38-1.08,2.25-2.84,2.25-1.46,0-2.39-.58-2.67-1.35Z"/><path class="cls-2" d="m349.82,438.73v-5.78c0-.46.26-.73.7-.73s.7.27.7.73v2.12h.03c.28-.66.85-1.03,1.65-1.03,1.16,0,1.83.75,1.83,1.96v2.73c0,.49-.29.74-.71.74s-.71-.25-.71-.74v-2.43c0-.67-.33-1.08-.98-1.08s-1.07.47-1.07,1.16v2.35c0,.49-.29.74-.71.74s-.71-.25-.71-.74Z"/><path class="cls-2" d="m355.44,436.74c0-1.69,1.03-2.72,2.59-2.72s2.59,1.03,2.59,2.72-1.01,2.73-2.59,2.73-2.59-1.02-2.59-2.73Zm3.74,0c0-1.04-.45-1.64-1.14-1.64s-1.15.6-1.15,1.64.44,1.64,1.15,1.64,1.14-.59,1.14-1.64Z"/><path class="cls-2" d="m361.36,438.73v-3.98c0-.45.28-.72.69-.72s.67.26.67.72v.34h.03c.14-.65.57-1.04,1.09-1.04.19,0,.34.04.44.13.14.11.21.28.21.53,0,.22-.07.4-.21.51s-.34.18-.62.19c-.65,0-.88.38-.88,1v2.32c0,.47-.28.74-.71.74s-.71-.27-.71-.74Z"/><path class="cls-2" d="m365.37,435.2h-.27c-.34,0-.55-.21-.55-.54s.21-.54.55-.54h.27v-.58c0-.46.27-.74.71-.74s.71.28.71.74v.58h.5c.34,0,.55.21.55.54s-.21.54-.55.54h-.5v2.5c0,.37.13.53.43.55h.09c.35.05.54.2.54.53,0,.42-.41.63-1.01.63h-.05c-.95,0-1.44-.47-1.44-1.4v-2.82Z"/><path class="cls-2" d="m390.06,650.48v-3.88c0-.49.27-.77.74-.77s.74.28.74.77v3.74c0,.9.53,1.49,1.48,1.49s1.47-.59,1.47-1.49v-3.74c0-.49.27-.77.74-.77s.74.28.74.77v3.88c0,1.55-1.15,2.61-2.95,2.61s-2.95-1.05-2.95-2.61Z"/><path class="cls-2" d="m399.12,652.3v-5.7c0-.49.27-.77.74-.77s.74.28.74.77v2.19h3.17v-2.19c0-.49.27-.77.74-.77s.74.28.74.77v5.7c0,.48-.27.77-.74.77s-.74-.28-.74-.77v-2.29h-3.17v2.29c0,.48-.27.77-.74.77s-.74-.28-.74-.77Z"/><path class="cls-2" d="m405.98,651.47c0-.95.73-1.5,2.04-1.58l1.32-.08v-.35c0-.49-.34-.77-.88-.77-.43,0-.7.14-1.02.55-.16.18-.34.26-.57.26-.35,0-.6-.22-.6-.55,0-.11.02-.21.07-.32.24-.62,1.08-1.01,2.17-1.01,1.34,0,2.22.69,2.22,1.75v2.98c0,.47-.29.72-.69.72s-.65-.21-.68-.63v-.27h-.03c-.29.56-.95.88-1.6.88-1,0-1.75-.64-1.75-1.59Zm3.36-.42v-.38l-1.1.07c-.53.04-.83.28-.83.65,0,.39.32.63.8.63.62,0,1.14-.41,1.14-.97Z"/><path class="cls-2" d="m411.69,652.33v-5.77c0-.49.3-.75.71-.75s.71.26.71.75v5.77c0,.49-.29.74-.71.74s-.71-.25-.71-.74Z"/><path class="cls-2" d="m414.11,652.33v-5.77c0-.49.3-.75.71-.75s.71.26.71.75v5.77c0,.49-.29.74-.71.74s-.71-.25-.71-.74Z"/><path class="cls-2" d="m213.92,767.46v-5.7c0-.49.27-.77.74-.77s.74.28.74.77v2.19h3.17v-2.19c0-.49.27-.77.74-.77s.74.28.74.77v5.7c0,.48-.27.77-.74.77s-.74-.28-.74-.77v-2.29h-3.17v2.29c0,.48-.27.77-.74.77s-.74-.28-.74-.77Z"/><path class="cls-2" d="m220.91,765.54c0-1.68.98-2.75,2.53-2.75s2.48,1.02,2.48,2.44c0,.4-.22.62-.62.62h-2.99v.06c0,.78.47,1.28,1.19,1.28.52,0,.86-.18,1.25-.63.15-.16.28-.21.46-.21.31,0,.56.2.56.52,0,.11-.03.23-.1.35-.35.64-1.16,1.03-2.17,1.03-1.64,0-2.6-1.01-2.6-2.71Zm3.64-.57c-.03-.68-.47-1.13-1.09-1.13s-1.08.46-1.13,1.13h2.22Z"/><path class="cls-2" d="m226.44,766.63c0-.95.73-1.5,2.04-1.58l1.32-.08v-.35c0-.49-.34-.77-.88-.77-.43,0-.7.14-1.02.55-.16.18-.34.26-.57.26-.35,0-.6-.22-.6-.55,0-.11.02-.21.07-.32.24-.62,1.08-1.01,2.17-1.01,1.34,0,2.22.69,2.22,1.75v2.98c0,.47-.29.72-.69.72s-.65-.21-.68-.63v-.27h-.03c-.29.56-.95.88-1.6.88-1,0-1.75-.64-1.75-1.59Zm3.36-.42v-.38l-1.1.07c-.53.04-.83.28-.83.65,0,.39.32.63.8.63.62,0,1.14-.41,1.14-.97Z"/><path class="cls-2" d="m233.26,767.51l-1.36-3.65c-.04-.13-.08-.28-.08-.42,0-.39.31-.64.71-.64.35,0,.58.19.68.57l1.06,3.51h.03l1.06-3.53c.1-.38.34-.56.67-.56.4,0,.69.27.69.63,0,.13-.03.28-.08.4l-1.36,3.68c-.18.5-.48.73-1,.73-.55,0-.84-.22-1.03-.73Z"/><path class="cls-2" d="m237.04,765.54c0-1.68.98-2.75,2.53-2.75s2.48,1.02,2.48,2.44c0,.4-.22.62-.62.62h-2.99v.06c0,.78.47,1.28,1.19,1.28.52,0,.86-.18,1.25-.63.15-.16.28-.21.46-.21.31,0,.56.2.56.52,0,.11-.03.23-.1.35-.35.64-1.16,1.03-2.17,1.03-1.64,0-2.6-1.01-2.6-2.71Zm3.64-.57c-.03-.68-.47-1.13-1.09-1.13s-1.08.46-1.13,1.13h2.22Z"/><path class="cls-2" d="m242.78,767.49v-3.98c0-.44.26-.72.69-.72s.71.27.71.72v.29h.03c.28-.65.81-1.01,1.61-1.01,1.16,0,1.82.73,1.82,1.96v2.73c0,.49-.3.74-.71.74s-.71-.25-.71-.74v-2.44c0-.68-.32-1.07-.96-1.07s-1.04.47-1.04,1.15v2.36c0,.49-.29.74-.71.74s-.71-.25-.71-.74Z"/><path class="cls-2" d="m444.56,442.81v-5.6c0-.6.35-.95.95-.95.51,0,.8.21,1.01.76l1.75,4.33h.04l1.74-4.33c.21-.54.5-.76,1.02-.76.6,0,.95.35.95.95v5.6c0,.43-.24.69-.66.69s-.65-.25-.65-.69v-4.16h-.04l-1.74,4.26c-.13.31-.32.45-.63.45s-.52-.14-.64-.44l-1.74-4.27h-.04v4.16c0,.43-.24.69-.65.69s-.66-.25-.66-.69Z"/><path class="cls-2" d="m452.75,441.9c0-.95.73-1.5,2.04-1.58l1.32-.08v-.35c0-.49-.34-.77-.88-.77-.43,0-.7.14-1.02.55-.16.18-.34.26-.57.26-.35,0-.6-.22-.6-.55,0-.11.02-.21.07-.32.24-.62,1.08-1.01,2.17-1.01,1.34,0,2.22.69,2.22,1.75v2.98c0,.47-.29.72-.69.72s-.65-.21-.68-.63v-.27h-.03c-.29.56-.95.88-1.6.88-1,0-1.75-.64-1.75-1.59Zm3.36-.42v-.38l-1.1.07c-.53.04-.83.28-.83.65,0,.39.32.63.8.63.62,0,1.14-.41,1.14-.97Z"/><path class="cls-2" d="m458.43,442.77v-3.98c0-.45.28-.72.69-.72s.67.26.67.72v.34h.03c.14-.65.57-1.04,1.09-1.04.19,0,.34.04.44.13.14.11.21.28.21.53,0,.22-.07.4-.21.51s-.34.18-.62.19c-.65,0-.88.38-.88,1v2.32c0,.47-.28.74-.71.74s-.71-.27-.71-.74Z"/><path class="cls-2" d="m462.11,442.77v-5.77c0-.49.3-.75.71-.75s.71.26.71.75v3.25h.02l1.89-1.9c.19-.2.35-.28.57-.28.37,0,.63.27.63.62,0,.21-.06.35-.27.54l-1.33,1.26,1.46,1.86c.16.21.2.34.2.52,0,.38-.28.64-.68.64-.3,0-.47-.11-.7-.44l-1.34-1.78-.45.42v1.06c0,.49-.29.74-.71.74s-.71-.25-.71-.74Z"/><path class="cls-2" d="m467.02,440.81c0-1.68.98-2.75,2.53-2.75s2.48,1.02,2.48,2.44c0,.4-.22.62-.62.62h-2.99v.06c0,.78.47,1.28,1.19,1.28.52,0,.86-.18,1.25-.63.15-.16.28-.21.46-.21.31,0,.56.2.56.52,0,.11-.03.23-.1.35-.35.64-1.16,1.03-2.17,1.03-1.64,0-2.6-1.01-2.6-2.71Zm3.64-.57c-.03-.68-.47-1.13-1.09-1.13s-1.08.46-1.13,1.13h2.22Z"/><path class="cls-2" d="m473.14,439.25h-.27c-.34,0-.55-.21-.55-.54s.21-.54.55-.54h.27v-.58c0-.46.27-.74.71-.74s.71.28.71.74v.58h.5c.34,0,.55.21.55.54s-.21.54-.55.54h-.5v2.5c0,.37.13.53.43.55h.09c.35.05.54.2.54.53,0,.42-.41.63-1.01.63h-.05c-.95,0-1.44-.47-1.44-1.4v-2.82Z"/><path class="cls-10" d="m390.1,228.79c0-2.27,1.29-3.64,3.32-3.64,1.32,0,2.34.59,2.82,1.6.1.19.15.38.15.55,0,.39-.26.63-.65.63-.33,0-.54-.15-.7-.49-.32-.72-.9-1.08-1.6-1.08-1.11,0-1.83.93-1.83,2.42s.71,2.43,1.84,2.43c.74,0,1.3-.34,1.62-1.04.15-.33.34-.46.65-.46.42,0,.69.26.69.65,0,.17-.04.32-.11.49-.44.98-1.49,1.58-2.82,1.58-2.09,0-3.36-1.37-3.36-3.64Z"/><path class="cls-10" d="m397.09,230.81c0-.95.73-1.5,2.04-1.58l1.32-.08v-.35c0-.49-.34-.77-.88-.77-.43,0-.7.14-1.02.55-.16.18-.34.26-.57.26-.35,0-.6-.22-.6-.55,0-.11.02-.21.07-.32.24-.62,1.08-1.01,2.17-1.01,1.34,0,2.22.69,2.22,1.75v2.98c0,.47-.29.72-.69.72s-.65-.21-.68-.63v-.27h-.03c-.29.56-.95.88-1.6.88-1,0-1.75-.64-1.75-1.59Zm3.36-.42v-.38l-1.1.07c-.53.04-.83.28-.83.65,0,.39.32.63.8.63.62,0,1.14-.41,1.14-.97Z"/><path class="cls-10" d="m403.91,231.69l-1.36-3.65c-.04-.13-.08-.28-.08-.42,0-.39.31-.64.71-.64.35,0,.58.19.68.57l1.06,3.51h.03l1.06-3.53c.1-.38.34-.56.67-.56.4,0,.69.27.69.63,0,.13-.03.28-.08.4l-1.36,3.68c-.18.5-.48.73-1,.73-.55,0-.84-.22-1.03-.73Z"/><path class="cls-10" d="m407.68,229.72c0-1.68.98-2.75,2.53-2.75s2.48,1.02,2.48,2.44c0,.4-.22.62-.62.62h-2.99v.06c0,.78.47,1.28,1.19,1.28.52,0,.86-.18,1.25-.63.15-.16.28-.21.46-.21.31,0,.56.2.56.52,0,.11-.03.23-.1.35-.35.64-1.16,1.03-2.17,1.03-1.64,0-2.6-1.01-2.6-2.71Zm3.64-.57c-.03-.68-.47-1.13-1.09-1.13s-1.08.46-1.13,1.13h2.22Z"/><path class="cls-2" d="m390.1,228.79c0-2.27,1.29-3.64,3.32-3.64,1.32,0,2.34.59,2.82,1.6.1.19.15.38.15.55,0,.39-.26.63-.65.63-.33,0-.54-.15-.7-.49-.32-.72-.9-1.08-1.6-1.08-1.11,0-1.83.93-1.83,2.42s.71,2.43,1.84,2.43c.74,0,1.3-.34,1.62-1.04.15-.33.34-.46.65-.46.42,0,.69.26.69.65,0,.17-.04.32-.11.49-.44.98-1.49,1.58-2.82,1.58-2.09,0-3.36-1.37-3.36-3.64Z"/><path class="cls-2" d="m397.09,230.81c0-.95.73-1.5,2.04-1.58l1.32-.08v-.35c0-.49-.34-.77-.88-.77-.43,0-.7.14-1.02.55-.16.18-.34.26-.57.26-.35,0-.6-.22-.6-.55,0-.11.02-.21.07-.32.24-.62,1.08-1.01,2.17-1.01,1.34,0,2.22.69,2.22,1.75v2.98c0,.47-.29.72-.69.72s-.65-.21-.68-.63v-.27h-.03c-.29.56-.95.88-1.6.88-1,0-1.75-.64-1.75-1.59Zm3.36-.42v-.38l-1.1.07c-.53.04-.83.28-.83.65,0,.39.32.63.8.63.62,0,1.14-.41,1.14-.97Z"/><path class="cls-2" d="m403.91,231.69l-1.36-3.65c-.04-.13-.08-.28-.08-.42,0-.39.31-.64.71-.64.35,0,.58.19.68.57l1.06,3.51h.03l1.06-3.53c.1-.38.34-.56.67-.56.4,0,.69.27.69.63,0,.13-.03.28-.08.4l-1.36,3.68c-.18.5-.48.73-1,.73-.55,0-.84-.22-1.03-.73Z"/><path class="cls-2" d="m407.68,229.72c0-1.68.98-2.75,2.53-2.75s2.48,1.02,2.48,2.44c0,.4-.22.62-.62.62h-2.99v.06c0,.78.47,1.28,1.19,1.28.52,0,.86-.18,1.25-.63.15-.16.28-.21.46-.21.31,0,.56.2.56.52,0,.11-.03.23-.1.35-.35.64-1.16,1.03-2.17,1.03-1.64,0-2.6-1.01-2.6-2.71Zm3.64-.57c-.03-.68-.47-1.13-1.09-1.13s-1.08.46-1.13,1.13h2.22Z"/><path class="cls-2" d="m717.54,723.26v-15.97c0-1.4.79-2.22,2.14-2.22h6.75c3.84,0,6.24,1.97,6.24,5.1,0,2.24-1.67,4.11-3.84,4.43v.11c2.78.21,4.81,2.24,4.81,4.94,0,3.6-2.7,5.85-7.07,5.85h-6.91c-1.35,0-2.14-.82-2.14-2.24Zm7.35-9.7c2.28,0,3.58-1,3.58-2.73s-1.15-2.58-3.14-2.58h-3.51v5.31h3.07Zm.61,8.75c2.46,0,3.79-1.05,3.79-3s-1.37-2.93-3.89-2.93h-3.58v5.93h3.68Z"/><path class="cls-2" d="m281.97,674.51c-1.13,0-1.77-.57-2.17-1.93l-1.08-3.19h-7.38l-1.08,3.23c-.38,1.33-1.02,1.88-2.22,1.88s-2.14-.83-2.14-2.01c0-.42.07-.81.27-1.36l5.61-15.21c.61-1.67,1.6-2.41,3.27-2.41s2.62.76,3.21,2.42l5.58,15.19c.18.52.28,1.01.28,1.36,0,1.23-.84,2.01-2.17,2.01Zm-4.18-8.42l-2.65-8.37h-.1l-2.7,8.37h5.45Z"/><path class="cls-2" d="m219.25,356.14c0-.12.03-.29.1-.47l1.92-5.24c.21-.57.55-.83,1.11-.83s.92.25,1.13.83l1.93,5.24c.07.19.09.32.09.47,0,.41-.31.69-.74.69s-.63-.19-.77-.65l-.37-1.11h-2.54l-.37,1.1c-.14.47-.36.66-.75.66-.46,0-.75-.27-.75-.69Zm4.07-2.21l-.93-2.89h-.03l-.91,2.89h1.88Z"/><path class="cls-2" d="m228.41,355.97v-5.6c0-.49.27-.77.74-.77s.74.28.74.77v5.15h2.5c.4,0,.67.23.67.61s-.26.61-.67.61h-3.24c-.46,0-.74-.28-.74-.77Z"/><path class="cls-2" d="m233.45,354.12c0-1.69,1.03-2.72,2.59-2.72s2.59,1.03,2.59,2.72-1.01,2.73-2.59,2.73-2.59-1.02-2.59-2.73Zm3.74,0c0-1.04-.45-1.64-1.14-1.64s-1.15.6-1.15,1.64.44,1.64,1.15,1.64,1.14-.59,1.14-1.64Z"/><path class="cls-2" d="m239.4,356.12v-5.79c0-.49.3-.75.71-.75s.71.26.71.75v2.08h.03c.29-.62.87-.99,1.62-.99,1.32,0,2.13,1.01,2.13,2.7s-.8,2.7-2.12,2.7c-.77,0-1.35-.37-1.64-.98h-.03v.28c0,.47-.29.72-.71.72s-.7-.24-.7-.72Zm3.74-2c0-.95-.44-1.56-1.15-1.56s-1.17.62-1.17,1.56.47,1.55,1.17,1.55,1.15-.6,1.15-1.55Z"/><path class="cls-2" d="m245.38,356.12v-5.79c0-.49.3-.75.71-.75s.71.26.71.75v2.08h.03c.29-.62.87-.99,1.62-.99,1.32,0,2.13,1.01,2.13,2.7s-.8,2.7-2.12,2.7c-.77,0-1.35-.37-1.64-.98h-.03v.28c0,.47-.29.72-.71.72s-.7-.24-.7-.72Zm3.74-2c0-.95-.44-1.56-1.15-1.56s-1.17.62-1.17,1.56.47,1.55,1.17,1.55,1.15-.6,1.15-1.55Z"/><path class="cls-2" d="m251.12,358.01c0-.29.2-.47.52-.47.1,0,.15,0,.25,0,.25,0,.52-.11.69-.47l.07-.19-1.67-4.4c-.05-.15-.08-.3-.08-.42,0-.39.32-.66.74-.66.38,0,.57.16.69.58l1.14,3.62h.02l1.14-3.63c.12-.4.32-.57.69-.57.41,0,.69.27.69.64,0,.12-.03.28-.08.42l-1.61,4.37c-.49,1.35-1.09,1.85-2.24,1.85-.62,0-.96-.24-.96-.67Z"/><path class="cls-2" d="m798.31,476.62v-5.51c0-.48.27-.77.74-.77h2.33c1.32,0,2.15.68,2.15,1.76,0,.77-.58,1.42-1.32,1.53v.04c.96.07,1.66.77,1.66,1.7,0,1.24-.93,2.02-2.44,2.02h-2.38c-.46,0-.74-.28-.74-.77Zm2.53-3.34c.79,0,1.24-.35,1.24-.94s-.4-.89-1.08-.89h-1.21v1.83h1.06Zm.21,3.02c.85,0,1.31-.36,1.31-1.04s-.47-1.01-1.34-1.01h-1.24v2.05h1.27Z"/><path class="cls-2" d="m806.68,476.62v-5.6c0-.49.27-.77.74-.77s.74.28.74.77v5.15h2.5c.4,0,.67.23.67.61s-.26.61-.67.61h-3.24c-.46,0-.74-.28-.74-.77Z"/><path class="cls-2" d="m811.73,474.77c0-1.69,1.03-2.72,2.59-2.72s2.59,1.03,2.59,2.72-1.01,2.73-2.59,2.73-2.59-1.02-2.59-2.73Zm3.74,0c0-1.04-.45-1.64-1.14-1.64s-1.15.6-1.15,1.64.44,1.64,1.15,1.64,1.14-.59,1.14-1.64Z"/><path class="cls-2" d="m817.65,476.75v-3.98c0-.44.26-.72.69-.72s.71.27.71.72v.29h.03c.28-.65.81-1.01,1.61-1.01,1.16,0,1.82.73,1.82,1.96v2.73c0,.49-.3.74-.71.74s-.71-.25-.71-.74v-2.44c0-.68-.32-1.07-.96-1.07s-1.04.47-1.04,1.15v2.36c0,.49-.29.74-.71.74s-.71-.25-.71-.74Z"/><path class="cls-2" d="m823.54,478.4c-.08-.13-.11-.26-.11-.4,0-.3.22-.52.58-.52.19,0,.33.06.49.21.39.37.76.57,1.23.57.78,0,1.24-.42,1.24-1.08v-.83h-.03c-.24.56-.85.94-1.61.94-1.3,0-2.12-1-2.12-2.59s.8-2.61,2.15-2.61c.75,0,1.32.4,1.6.99h.03v-.29c0-.48.31-.72.72-.72s.71.24.71.72v4.41c0,1.36-.99,2.18-2.67,2.17-1.07,0-1.87-.41-2.2-.96Zm3.45-3.69c0-.94-.46-1.55-1.17-1.55s-1.15.6-1.15,1.54.44,1.52,1.15,1.52,1.17-.57,1.17-1.51Z"/></g></svg>