<?xml version="1.0" encoding="UTF-8"?><svg xmlns="http://www.w3.org/2000/svg" viewBox="0 0 976.45 956.09"><defs><style>.cls-1{fill:#fff;}.cls-2{fill:#b0adb0;}.cls-3{fill:#575548;}.cls-4{fill:#d32027;}.cls-5{fill:#33353b;}.cls-6,.cls-7{fill:none;}.cls-8{fill:#656569;}.cls-7{stroke:#b0adb0;stroke-miterlimit:10;}.cls-9{fill:#79c143;}</style></defs><g id="Body_Merge"><path class="cls-5" d="m918,569.16v-.9h-38.97v-53.03h31.97v-154.99h-14.98v-64.99h-120.02v-52.94c-6.83-36.15-36.99-51.08-36.99-51.08h-11.93c-8.22-3.1-8.06-9.99-8.06-9.99v-53l-12.01-60.99-123.01-47.99h-8.04l-74.95-6.03v-.98h-6.99l-14.01,7.99h-2v65.99c11.09.3,13,31.96,13,31.96v3.71c0,1.52-.35,3.01-1.03,4.37l-3.97,7.97v4.01h-57.96v13.98h-9.07v-9.94h-9.91c-19.61-.69-32.53-4.47-38.37-6.61-2.18-.8-4.18-2-5.91-3.55l-36.74-33.06c-1.33-1.2-2.99-1.98-4.77-2.23l-10.86-1.55c-.13-.02-.27-.02-.4-.03v-.03h-10.99v.02c-.13,0-.26,0-.39.02l-19.58,1.86c-.68.06-1.35.29-1.93.65-20.41,12.78-24.13,22.49-24.13,22.49v71.97h1.08v39l6.07,10.8-31.1,19.82h0l-28.88,18.41h-115.17l2.02,16.96v10.01l-2.93,14.98v28.99h23.94v44.02h-26.03v2.02c-14.83,8.76-48.98,102-48.98,102H13.01v71.98l163.01,106.99h55.01v49h0v26.99h0v43.01c9.83,19.57,19.57,37.38,29.53,51.67,16.59,23.82,31.47,38.33,31.47,38.33h53.01v63h110.98l25.02-51h51.99v-10h13.99v10h90.23s81.77,0,81.77,0l15.02-19.99v-3.02l-11.01-8.06v-1.87l22.02-28.06h2.98l2.01,2h3.99l70.99-40.98h115.99l28.01-27.02v-188.98l-50.99-14.09Zm-558.99,62.07v-9.96h9.38v-7.04h12.6v-40.99h-12.6v-59.06h8.01v-31.95h-8.01v-59h.03v-9.01h52.59v46.01h-50.6v20h7.99v36h-7.99v5h22.02v14.99h63.61v150.98h78.96v33.04h.02v38.98h-10.03v-8l-75.98-27.99h-79.99v-92.01h-10.01Zm-6.6-269.98v8.02h-22.41v-8.02h22.41Zm194.59,33.99v-68.01h60l121.04,109.02v107h-1.04s0-.01,0-.01h-137v-56h-32v-91.99h-11Zm-77-195.02h86v10.03h-11v28.98h-66v-29.01h-9.01v-10Zm46.01-70.99h9.02v9h-9.02v-9Zm41.03,9v-9h9.01v9h-9.01Zm194.97,222v-6.01h4.98v6.01h-4.98Zm-192,360.01v-6.02h7.99v6.02h-7.99Zm-28,103.17v-28.16h-85.02v-9.02h78v-6h10.03v5.99h72.99l10-17v-33.99h-15.01v-14.99h-14v-6.02h29.01v-4.02h95v77.01h-1.01l-34,42.04h-1.97l-12.98-12.01h-32.02v5.01h-6.03v-5.01h-78.99v8.97h-14v-2.81Zm165.1,20.92l24.98-27.91,6.93,6.93-24.98,27.91-6.93-6.93Zm140.9-277.12h-50.01v.99l-19.01,20.02v1.99l11.01,11.01v1.99c-6.32,8.44-64,44.04-64,44.04h-1.98v12.97h-95.02v-66.01h108c29.12-7.57,34.01-38.01,34.01-38.01v-40.99h45v-4.01h5.99v4.01h26.01v51.99Zm-3.02-207.99l-22.99,21.01v103.03h-5.99v-2.04h-31v-109.75h0v-36.25h60v24Zm-132.99-130.99v.99h11.99c17.54,2.81,21.04,19.03,21.04,19.03v111.98h-17.04v-10l-111.99-97.09v-42.89h-15.99v-10.03h15.99v-61.99h-9.02v-9h36c5.49,101.97,69.02,99,69.02,99Zm-273.96-40.98v12.98h6.98v9h-14v120h55.97v66.02h-55.98v6.98h-52.59v-32.95h-.03v-177.03h50.59v-4.99h9.07Zm-277.04,178.99h81.03l17.34-70.99h0l34.58-22.04.02.03,21.07,33.84v23.16h7.39v81.81h0v61.18h23v90.01h-23.4v4h-9.03v-45.01h30.43v-47h-30.43v-12.98l-27-25.03h-72.6v-56.97h-52.39v-14.02Zm114.99,353.98h6l32.01-18.99v-101.93h8.02v4.92h5v18.02h3.97v9h-8.99v95.99h-46.01v-7Zm47.03,33.99v32.01h77.97v8.01h-87v-15.01l-25-19.98h-13v-5.04h47.03Zm218.98,111.01v-14h14v14h-14Z"/></g><g id="Bombsite"><rect class="cls-3" x="797.99" y="630.23" width="106.04" height="107.03" transform="translate(1702.03 1367.48) rotate(180)"/><polyline class="cls-3" points="198.56 452.24 53.52 452.24 34.51 498.37 12.46 498.37 12.44 571.44 13.58 572.22 199.06 572.22 226.51 545.79 226.51 479.85 198.56 452.24"/><rect class="cls-5" x="155.31" y="483.84" width="56.16" height="56.93" transform="translate(366.79 1024.62) rotate(180)"/><rect class="cls-5" x="77.79" y="483.84" width="55.79" height="56.93" transform="translate(211.37 1024.62) rotate(180)"/><rect class="cls-5" x="133.58" y="504.71" width="21.94" height="15.03" transform="translate(289.1 1024.46) rotate(180)"/><path class="cls-5" d="m863.97,695.85l-4.75,2.28-3.29.46-4.7-.35-3.89-1.31-3.29-1.82-2.53-2.68-2.12-3.08-1.06-2.83s-.61-3.29-.61-3.49.35-3.34.35-3.34l.81-3.94.2-1.16-15.07-14.89,10.62-10.74,16.12,16.33,4.2-.46,3.59.35,2.68,1.21,4.5,2.48,1.82,2.12,2.12,2.73,1.11,3.24.96,3.49-.2,3.32-1.26,4.52-1.47,2.83-2.43,2.83-2.43,1.92Z"/></g><g id="Lines"><polygon class="cls-7" points="312.67 190.75 308.62 190.75 300.26 203.9 298.51 206.26 298.51 214.95 300.6 221.76 310.78 226.75 318.6 226.75 326.69 216.71 326.69 212.66 325.47 211.72 325.41 208.75 329.32 202.62 329.32 195.67 324.46 192.98 312.67 190.75"/><path class="cls-2" d="m315.93,128.68l4.67,4.67v8.78l-2.56,3.66h-13.57l-.13.04-14.07,3.91-.64-.5v-5l5.77-9.61,6.8-3.21.26-.12.16-.24,1.53-2.37h11.78m.41-1h-12.74l-1.82,2.83-7.08,3.34-6.07,10.11v5.76l1.42,1.11,14.56-4.04h13.96l3.03-4.35v-9.51l-5.26-5.26h0Z"/><path class="cls-2" d="m368.4,331.24v1.99h-21.38v-1.99h21.38m1-1h-23.38v3.99h23.38v-3.99h0Z"/><path class="cls-2" d="m334,331.26v1.97h-21.57v-1.97h21.57m1-1h-23.57v3.97h23.57v-3.97h0Z"/><path class="cls-2" d="m319,324.22v6.03h-13.99v-6.03h13.99m1-1h-15.99v8.03h15.99v-8.03h0Z"/><path class="cls-2" d="m326.99,322.24v8.02h-6.05v-8.02h6.05m1-1h-8.05v10.02h8.05v-10.02h0Z"/><line class="cls-7" x1="326.01" y1="321.77" x2="304.58" y2="312.79"/><line class="cls-7" x1="314.49" y1="323.81" x2="314.49" y2="316.94"/><line class="cls-7" x1="320.36" y1="323.81" x2="320.36" y2="319.45"/><path class="cls-2" d="m186,280.23v26.99h-11.96v-26.99h11.96m1-1h-13.96v28.99h13.96v-28.99h0Z"/><path class="cls-2" d="m203.4,423.26v12.97h-19.37v-12.97h19.37m1-1h-21.37v14.97h21.37v-14.97h0Z"/><path class="cls-2" d="m254.99,437.21v14h-12.99v-14h12.99m1-1h-14.99v16h14.99v-16h0Z"/><path class="cls-2" d="m240.99,437.21v6h-6.97v-6h6.97m1-1h-8.97v8h8.97v-8h0Z"/><path class="cls-2" d="m303.03,546.25v4.98h-3.99v-4.98h3.99m1-1h-5.99v6.98h5.99v-6.98h0Z"/><path class="cls-2" d="m303.03,552.24v12.97h-19.01v-12.97h19.01m1-1h-21.01v14.97h21.01v-14.97h0Z"/><path class="cls-2" d="m303.03,552.24v12.97h-12.99v-12.97h12.99m1-1h-14.99v14.97h14.99v-14.97h0Z"/><polyline class="cls-7" points="280.49 671.33 280.49 565.75 303.6 565.75"/><rect class="cls-7" x="193.4" y="606.57" width="56.83" height="21.02" transform="translate(546.62 1186.71) rotate(170.08)"/><rect class="cls-7" x="196.74" y="630.94" width="14.82" height="14.14" transform="translate(515.17 1231.32) rotate(170.08)"/><rect class="cls-7" x="210.78" y="629.14" width="6.75" height="6.96" transform="translate(534.1 1218.88) rotate(170.08)"/><polyline class="cls-7" points="198.69 572.57 226.51 545.79 226.51 479.85 198.22 451.9"/><path class="cls-2" d="m210.98,484.24v55.99h-54.97v-55.99h54.97m1-1h-56.97v57.99h56.97v-57.99h0Z"/><path class="cls-2" d="m133.01,484.26v55.97h-55v-55.97h55m1-1h-57v57.97h57v-57.97h0Z"/><line class="cls-7" x1="155.31" y1="519.74" x2="133.58" y2="519.74"/><line class="cls-7" x1="133.7" y1="504.71" x2="155.22" y2="504.71"/><line class="cls-7" x1="307.47" y1="599.98" x2="307.47" y2="566.56"/><line class="cls-7" x1="320.55" y1="625.71" x2="339.98" y2="625.71"/><line class="cls-7" x1="359.55" y1="630.77" x2="349.04" y2="645.24"/><path class="cls-2" d="m266.04,755.21v3.04h-35.02v-3.04h35.02m1-1h-37.02v5.04h37.02v-5.04h0Z"/><path class="cls-2" d="m266.03,723.26v2.96h-35.01v-2.96h35.01m1-1h-37.01v4.96h37.01v-4.96h0Z"/><path class="cls-2" d="m346.03,883.22v4.02h-7.05v-4.02h7.05m1-1h-9.05v6.02h9.05v-6.02h0Z"/><path class="cls-2" d="m318.98,882.26v4.98h-8.97v-4.98h8.97m1-1h-10.97v6.98h10.97v-6.98h0Z"/><polyline class="cls-7" points="280.92 875.77 295.48 875.77 298.67 887.91"/><path class="cls-2" d="m550.01,855.19v6.02h-4.02v-6.02h4.02m1-1h-6.02v8.02h6.02v-8.02h0Z"/><path class="cls-2" d="m630.04,895.27v4h-5.99v-4h5.99m1-1h-7.99v6h7.99v-6h0Z"/><path class="cls-2" d="m476.03,767.28v18.98h-14.03v-18.98h14.03m1-1h-16.03v20.98h16.03v-20.98h0Z"/><path class="cls-2" d="m476.03,774.31v11.96h-14.03v-11.96h14.03m1-1h-16.03v13.96h16.03v-13.96h0Z"/><path class="cls-2" d="m543.98,695.23v4.98h-8.99v-4.98h8.99m1-1h-10.99v6.98h10.99v-6.98h0Z"/><path class="cls-2" d="m548.01,701.25v4.98h-13.02v-4.98h13.02m1-1h-15.02v6.98h15.02v-6.98h0Z"/><path class="cls-2" d="m548.01,701.25v12.98h-13.02v-12.98h13.02m1-1h-15.02v14.98h15.02v-14.98h0Z"/><path class="cls-2" d="m534.19,633.08l1.44,14.01-14.01,1.44-1.44-14.01,14.01-1.44m.89-1.1l-15.99,1.64,1.64,15.99,15.99-1.64-1.64-15.99h0Z"/><path class="cls-2" d="m502.81,621.31l4.65,2.21-5.33,11.19-4.65-2.21,5.33-11.19m-.47-1.33l-6.19,13,6.45,3.07,6.19-13-6.45-3.07h0Z"/><path class="cls-2" d="m476.03,609.22v5.99h-5.01v-5.99h5.01m1-1h-7.01v7.99h7.01v-7.99h0Z"/><path class="cls-2" d="m470.01,601.24v13.98h-13.98v-13.98h13.98m1-1h-15.98v15.98h15.98v-15.98h0Z"/><path class="cls-2" d="m578.88,634.5l2.51,12.1-26.42,5.49-2.51-12.1,26.42-5.49m.78-1.18l-28.37,5.9,2.92,14.06,28.37-5.9-2.92-14.06h0Z"/><path class="cls-2" d="m590.04,537.26v3.93h-17.04v53.06h-4v-56.99h21.04m1-1h-23.04v58.99h6v-53.06h17.04v-5.93h0Z"/><path class="cls-2" d="m633.04,578.25v16h-13v-16h13m1-1h-15v18h15v-18h0Z"/><path class="cls-2" d="m911.01,417.29v12.92h-26.97v-12.92h26.97m1-1h-28.97v14.92h28.97v-14.92h0Z"/><path class="cls-2" d="m911.01,417.29v12.92h-11.96v-12.92h11.96m1-1h-13.96v14.92h13.96v-14.92h0Z"/><path class="cls-2" d="m896.02,352.24v7h-61.03v-7h61.03m1-1h-63.03v9h63.03v-9h0Z"/><path class="cls-2" d="m933,738.26v27.98h-27.98v-27.98h27.98m1-1h-29.98v29.98h29.98v-29.98h0Z"/><path class="cls-2" d="m904.02,738.26v1.94h-31.01v-1.94h31.01m1-1h-33.01v3.94h33.01v-3.94h0Z"/><path class="cls-2" d="m932.99,601.27v27.96h-27.96v-27.96h27.96m1-1h-29.96v29.96h29.96v-29.96h0Z"/><path class="cls-2" d="m933,630.24v107.01h-1.94v-107.01h1.94m1-1h-3.94v109.01h3.94v-109.01h0Z"/><path class="cls-2" d="m854.6,665.32c9.05,0,16.41,7.36,16.41,16.41s-7.36,16.41-16.41,16.41-16.41-7.36-16.41-16.41,7.36-16.41,16.41-16.41m0-1c-9.61,0-17.41,7.79-17.41,17.41s7.79,17.41,17.41,17.41,17.41-7.79,17.41-17.41-7.79-17.41-17.41-17.41h0Z"/><path class="cls-2" d="m834.45,649.68l15.74,15.74.39.39.53-.12c1.17-.25,2.34-.38,3.49-.38,9.05,0,16.41,7.36,16.41,16.41s-7.36,16.41-16.41,16.41-16.41-7.36-16.41-16.41c0-2.25.45-4.44,1.34-6.5l.27-.62-.48-.48-14.66-14.66,9.78-9.78m0-1.41l-11.19,11.19,15.37,15.37c-.91,2.12-1.43,4.45-1.43,6.9,0,9.61,7.79,17.41,17.41,17.41s17.41-7.79,17.41-17.41-7.79-17.41-17.41-17.41c-1.27,0-2.51.14-3.7.4l-16.45-16.45h0Z"/><path class="cls-2" d="m845.85,661.08l4.34,4.34.39.39.53-.12c1.17-.25,2.34-.38,3.49-.38,9.05,0,16.41,7.36,16.41,16.41s-7.36,16.41-16.41,16.41-16.41-7.36-16.41-16.41c0-2.25.45-4.44,1.34-6.5l.27-.62-.48-.48-3.26-3.26,9.78-9.78m0-1.41l-11.19,11.19,3.96,3.96c-.91,2.12-1.43,4.45-1.43,6.9,0,9.61,7.79,17.41,17.41,17.41s17.41-7.79,17.41-17.41-7.79-17.41-17.41-17.41c-1.27,0-2.51.14-3.7.4l-5.05-5.05h0Z"/><path class="cls-2" d="m772.99,758.21v15.02h-12.97v-15.02h12.97m1-1h-14.97v17.02h14.97v-17.02h0Z"/><path class="cls-2" d="m759,710.23v63.01h-3.97v-63.01h3.97m1-1h-5.97v65.01h5.97v-65.01h0Z"/><path class="cls-2" d="m700.01,695.28v14.94h-36.98v-14.94h36.98m1-1h-38.98v16.94h38.98v-16.94h0Z"/><path class="cls-2" d="m700.01,695.28v14.95h-30.01v-14.95h30.01m1-1h-32.01v16.95h32.01v-16.95h0Z"/><polyline class="cls-7" points="573.8 558.75 578.5 558.75 580.53 551.72 589.53 542.7 589.53 541.63"/><rect class="cls-2" x="548.45" y="714.23" width="41.24" height="1" transform="translate(1138.14 1429.45) rotate(180)"/><path class="cls-2" d="m420,460.21v12.01h-49.75v-12.01h49.75m1-1h-51.75v14.01h51.75v-14.01h0Z"/><line class="cls-7" x1="378.5" y1="414.98" x2="378.5" y2="401.27"/><line class="cls-7" x1="401.51" y1="414.75" x2="401.51" y2="401.75"/><polygon class="cls-2" points="834.11 359.64 833.31 359.64 833.31 360.24 834.11 360.24 834.11 359.64 834.11 359.64"/><path class="cls-2" d="m551.99,817.22v4.02h-2.97v1.99h-3.04v-6.01h6.01m1-1h-8.01v8.01h5.04v-1.99h2.97v-6.02h0Z"/><rect class="cls-6" x="546.01" y="895.25" width="10.99" height="4.97" transform="translate(1103.01 1795.46) rotate(180)"/><path class="cls-2" d="m551,894.23v2.02h5v2.99h-9.01v-5.01h4.01m1-1h-6.01v7.01h11.01v-4.99h-5v-2.02h0Z"/><path class="cls-2" d="m651.76,363.1l9.74,8.77-2.21,2.46-9.74-8.77,2.21-2.46m-.07-1.41l-3.55,3.94,11.22,10.11,3.55-3.94-11.22-10.11h0Z"/><path class="cls-2" d="m173,280.24v5.99h-5.99v-5.99h5.99m1-1h-7.99v7.99h7.99v-7.99h0Z"/><path class="cls-2" d="m86.99,280.24h9.04v13.98h-7.38l-1.67-13.98m-1.13-1l1.9,15.99h9.26v-15.98h-11.17Z"/><path class="cls-2" d="m165,353.25v13h-13v-13h13m1-1h-15v15h15v-15h0Z"/><path class="cls-2" d="m539,466.26v5.91h-7v-5.91h7m1-1h-9v7.91h9v-7.91h0Z"/><path class="cls-2" d="m558.02,452.25v5.96h-6v-5.96h6m1-1h-8v7.96h8v-7.96h0Z"/><path class="cls-2" d="m512.31,449.22c6.27,0,12,3.71,14.59,9.44l.27.59h30.85v26.98h-38.09v-6.79l-1.39.59c-1.97.83-4.07,1.26-6.23,1.26-3.13,0-6.17-.91-8.79-2.64l-1.55-1.02v8.61h-27.96v-13.03h24.32l-.63-1.41c-.93-2.08-1.4-4.28-1.4-6.54,0-8.84,7.18-16.03,16.02-16.03m0-1c-9.4,0-17.02,7.63-17.02,17.03,0,2.48.54,4.83,1.49,6.95h-23.78v15.03h29.96v-7.75c2.68,1.77,5.89,2.8,9.34,2.8,2.35,0,4.58-.48,6.61-1.34v6.28h40.09v-28.98h-31.21c-2.67-5.91-8.6-10.03-15.5-10.03h0Z"/><path class="cls-2" d="m930.04,667.22v26.01h-13.02v-26.01h13.02m1-1h-15.02v28.01h15.02v-28.01h0Z"/><path class="cls-2" d="m941.01,665.21v7.02h-7v-7.02h7m1-1h-9v9.02h9v-9.02h0Z"/><path class="cls-2" d="m948.02,624.24v39.97h-14.01v-39.97h14.01m1-1h-16.01v41.97h16.01v-41.97h0Z"/><path class="cls-2" d="m940.01,617.26v5.98h-6.01v-5.98h6.01m1-1h-8.01v7.98h8.01v-7.98h0Z"/><rect class="cls-2" x="806.99" y="737.26" width="65.8" height="1" transform="translate(1679.78 1475.51) rotate(180)"/><ellipse class="cls-7" cx="512.42" cy="465.24" rx="16.47" ry="16.55"/><rect class="cls-2" x="527.12" y="472.22" width="31.48" height=".95" transform="translate(1085.71 945.4) rotate(180)"/><path class="cls-2" d="m454.39,524.21v12.04h-12.95v-12.04h12.95m1-1h-14.95v14.04h14.95v-14.04h0Z"/></g><g id="Outlines"><path class="cls-8" d="m501,12.24v.98l74.95,6.03h8.04l123.01,47.99,12.01,60.99v53s-.17,6.89,8.06,9.99h11.93s30.17,14.93,36.99,51.08v52.94h120.02v64.99h14.98v154.99h-31.97v53.03h38.97v.9l50.99,14.09v188.98l-28.01,27.02h-115.99l-70.99,40.98h-3.99l-2.01-2h-2.98l-22.02,28.06v1.87l11.01,8.06v3.02l-15.02,19.99h-81.77s-6.19,0-6.19,0h-84.03v-10h-13.99v10h-51.99l-25.02,51h-110.98v-63h-53.01s-14.88-14.51-31.47-38.33c-9.95-14.29-19.69-32.11-29.53-51.67v-43.01h0v-26.99h0v-49h-55.01L13.01,571.22v-71.98h22.01s34.15-93.24,48.98-102v-2.02h26.03v-44.02h-23.94v-28.99l2.93-14.98v-10.01l-2.02-16.96h115.17l28.88-18.41,31.1-19.82-6.07-10.8v-39h-1.08v-71.97s3.72-9.71,24.13-22.49c.58-.36,1.25-.59,1.93-.65l19.58-1.86c.13-.01.26-.01.39-.02v-.02h10.99v.03c.13,0,.27,0,.4.03l10.86,1.55c1.78.25,3.44,1.03,4.77,2.23l36.74,33.06c1.73,1.55,3.73,2.76,5.91,3.55,5.84,2.13,18.77,5.91,38.37,6.61h9.91v9.94h9.07v-13.98h57.96v-4.01l3.97-7.97c.68-1.36,1.03-2.86,1.03-4.37v-3.71s-1.9-31.65-13-31.96V20.23h2l14.01-7.99h6.99m95.99,126h9.02v61.99h-15.99v10.03h15.99v42.89l111.99,97.09v10h17.04v-111.98s-3.49-16.22-21.04-19.03h-11.99v-.99s-.19,0-.56,0c-6.26,0-63.27-2.65-68.46-99.01h-36v9m-39.95,0h9.01v-9h-9.01v9m-41.03,0h9.02v-9h-9.02v9m-147.62,231.03h.03v32.95h52.59v-6.98h55.98v-66.02h-55.97v-120h14v-9h-6.98v-12.98h-9.07v4.99h-50.59v177.03m101.61-159.04h9.01v29.01h66v-28.98h11v-10.03h-86v10m-319,170.03h52.39v56.97h72.6l27,25.03v12.98h30.43v47h-30.43v45.01h9.03v-4h23.4v-90.01h-23v-61.18h0v-81.81h-7.39v-23.16l-21.07-33.84-.02-.03-34.58,22.04-17.34,70.99h-81.03v14.02m396,14.98h11v91.99h32v56h137s1.04.01,1.04.01v-107l-121.04-109.02h-60v68.01m228-23.76h0v109.75h31v2.04h5.99v-103.03l22.99-21.01v-24h-60v36.25m-22.99-11.24h4.98v-6.01h-4.98v6.01m-422.01,9.03h22.41v-8.02h-22.41v8.02m38.38,112.96h8.01v31.95h-8.01v59.06h12.6v40.99h-12.6v7.04h-9.38v9.96h10.01v92.01h79.99l75.98,27.99v8h10.03v-38.98h-.02v-33.04h-78.96v-150.98h-63.61v-14.99h-22.02v-5h7.99v-36h-7.99v-20h50.6v-46.01h-52.59v9.01h-.03v59m250.61,177.99h95.02v-12.97h1.98s57.68-35.6,64-44.04v-1.99l-11.01-11.01v-1.99l19.01-20.02v-.99h50.01v-51.99h-26.01v-4.01h-5.99v4.01h-45v40.99s-4.89,30.44-34.01,38.01h-108v66.01m-353.01,66.99h46.01v-95.99h8.99v-9h-3.97v-18.02h-5v-4.92h-8.02v101.93l-32.01,18.99h-6v7m323.01-6.98h14v14.99h15.01v33.99l-10,17h-72.99v-5.99h-10.03v6h-78v9.02h85.02v30.97h14v-8.97h78.99v5.01h6.03v-5.01h32.02l12.98,12.01h1.97l34-42.04h1.01v-77.01h-95v4.02h-29.01v6.02m-28.99,0h7.99v-6.02h-7.99v6.02m-294.02,39.01h13l25,19.98v15.01h87v-8.01h-77.97v-32.01h-47.03v5.04m438.05,92.02l24.98-27.91-6.93-6.93-24.98,27.91,6.93,6.93m-172.03,13.96h14v-14h-14v14M502.05,11.19h-8.32l-.24.14-13.76,7.85h-2.77v68.06l1.02.03c8.3.23,11.46,22.38,11.98,30.94v3.68c0,1.35-.32,2.7-.92,3.9l-3.97,7.97-.11.22v3.21h-57.96v13.98h-6.97v-9.94h-10.96c-19.35-.69-32.12-4.39-38.02-6.54-2.06-.75-3.94-1.88-5.57-3.35l-36.74-33.06c-1.49-1.34-3.33-2.2-5.32-2.49l-10.36-1.48v-.11l-1.05-.03h-12.04v.1l-19.02,1.81c-.85.08-1.67.36-2.38.81-20.47,12.82-24.4,22.6-24.55,23.01l-.07.18v73.21h1.08v38.22l.13.24,5.58,9.94-30.26,19.28-28.63,18.24h-116.04l.14,1.17,2.01,16.9v9.84l-2.91,14.88-.02.1v30.14h23.94v41.92h-26.03v2.5c-14.68,10.18-45.31,92.44-48.66,101.52H11.96v73.59l.47.31,163.01,106.99.26.17h54.28v47.95s0,26.99,0,26.99v1.05h0v42.21l.11.22c11.45,22.78,20.86,39.24,29.6,51.8,16.46,23.63,31.45,38.33,31.6,38.48l.31.3h52.38v63h112.68l.29-.59,24.73-50.41h52.39v-10h11.89v10h91.28s81.77,0,81.77,0h.52l.32-.42,15.02-19.99.21-.28v-3.9l-.43-.31-10.58-7.74v-.98l21.48-27.37h2.03l1.7,1.69.31.31h4.71l.24-.14,70.75-40.84h116.13l.31-.29,28.01-27.02.32-.31v-190.22l-.77-.21-50.22-13.88v-1.15h-38.97v-50.93h31.97v-157.09h-14.98v-64.99h-120.02v-51.99l-.02-.1c-3.58-18.94-13.59-32.02-21.35-39.65-8.42-8.27-15.89-12.02-16.21-12.18l-.22-.11h-11.98c-7.26-2.83-7.2-8.86-7.2-8.92v-53.02s0-.1,0-.1l-.02-.1-12.01-60.99-.11-.57-.54-.21-123.01-47.99-.18-.07h-8.19l-73.95-5.94h0v-1.06h0Zm95.99,119.1h33.96c5.46,94.14,60.47,98.84,68.96,99v.99h12.96c16,2.61,19.72,16.63,20.07,18.1v110.81h-14.94v-9.43l-.36-.31-111.63-96.77v-43.46h-15.99v-7.93h15.99v-64.09h-9.02v-6.9h0Zm-39.95,0h6.91v6.9h-6.91v-6.9h0Zm-41.03,0h6.92v6.9h-6.92v-6.9h0Zm-97.03,58.01h6.97v12.98h6.98v6.9h-14v122.1h55.97v63.92h-55.98v6.98h-50.49v-32.95h-.03v-174.93h50.59v-4.99h0Zm51.02,12.98h83.9v7.93h-11v28.98h-63.9v-29.01h-9.01v-7.9h0Zm-220.76,94.63l33.34-21.24,20.37,32.72v23.91h7.39v80.76s0,61.18,0,61.18v.95h-7.34v-12.39l-.34-.31-27-25.03-.3-.28h-71.96v-56.97h-52.39v-11.92h80.81l.2-.8,17.24-70.58h0Zm297.76,32.38h58.55l120.4,108.44v105.47h-135.94v-56h-32v-91.99h-11v-65.91h0Zm228,8h57.9v22.49l-22.65,20.7-.34.31v102.45h-3.89v-2.04h-31v-109.75h0v-34.15h0Zm-22.99,19h2.88v3.91h-2.88v-3.91h0Zm-422.01,7.02h20.31v5.92h-20.31v-5.92h0Zm38.42,52.97h50.49v43.91h-50.53v-34.9l.03-1.05v-7.96h0Zm437.59,96.99h3.89v4.01h26.01v49.89h-50.01v1.63l-18.72,19.71-.29.3v2.85l.31.31,10.7,10.7v1.19c-6.86,8.36-59.13,40.8-63.25,43.35h-2.73v12.97h-92.92v-63.91h107.08l.13-.03c15.4-4,24.04-14.36,28.58-22.34,4.9-8.62,6.16-16.2,6.21-16.52v-.08s.01-.08.01-.08v-39.94h45v-4.01h0Zm-437.62,10.02h21.94v14.99h63.61v150.98h78.96v33.04h.02v36.88h-7.93v-7.68l-.69-.25-75.98-27.99-.18-.06h-79.13v-92.01h-10.01v-7.86h9.38v-7.05h12.6v-43.09h-12.6v-49.9h0Zm-65.4,1h30.34v38.91h-23.4v4h-6.93v-42.91h0Zm1.01,77.06h5.92v4.92h5v18.02h3.97v6.9h-8.99v95.99h-43.91v-4.9h5.24l.25-.15,32.01-18.99.51-.31v-101.48h0Zm314.01,110.92h92.9v74.91h-.46l-.32.39-33.68,41.65h-1.06l-12.68-11.73-.3-.28h-33.48v5.01h-3.93v-5.01h-81.09v8.97h-11.9v-30.97h-85.02v-6.92h78v-6h7.93v5.99h74.64l.3-.52,10-17,.14-.25v-35.33h-15.01v-14.99h-14v-3.92h29.01v-4.02h0Zm-58,4.02h5.89v3.92h-5.89v-3.92h0Zm-294.02,39.99h44.93v32.01h77.97v5.91h-84.9v-14.46l-.39-.32-25-19.98-.29-.23h-12.32v-2.94h0Zm431.51,89.04l23.58-26.34,5.44,5.44-23.58,26.34-5.44-5.44h0Zm-165.5,7.97h11.9v11.9h-11.9v-11.9h0Z"/></g><g id="Callouts_copy"><path class="cls-4" d="m504.05,63.67c0-.16.04-.37.13-.61l2.5-6.81c.27-.74.72-1.09,1.44-1.09s1.19.33,1.47,1.08l2.51,6.82c.09.25.12.42.12.61,0,.53-.4.9-.96.9s-.83-.25-1-.84l-.48-1.45h-3.31l-.48,1.43c-.18.61-.46.86-.97.86-.6,0-.97-.35-.97-.9Zm5.29-2.88l-1.21-3.75h-.04l-1.19,3.75h2.44Z"/><path class="cls-4" d="m513.27,59.05h-.36c-.44,0-.72-.27-.72-.7s.28-.7.72-.7h.36v-.76c0-.6.35-.96.93-.96s.93.37.93.96v.76h.65c.44,0,.71.27.71.7s-.27.7-.71.7h-.65v3.26c0,.48.17.69.57.72h.12c.46.06.71.25.71.69,0,.55-.53.83-1.31.83h-.06c-1.24,0-1.87-.62-1.87-1.82v-3.67Z"/><path class="cls-4" d="m517.9,59.05h-.36c-.44,0-.72-.27-.72-.7s.28-.7.72-.7h.36v-.76c0-.6.35-.96.93-.96s.93.37.93.96v.76h.65c.44,0,.71.27.71.7s-.27.7-.71.7h-.65v3.26c0,.48.17.69.57.72h.12c.46.06.71.25.71.69,0,.55-.53.83-1.31.83h-.06c-1.24,0-1.87-.62-1.87-1.82v-3.67Z"/><path class="cls-4" d="m521.69,62.5c0-1.24.95-1.96,2.65-2.06l1.71-.1v-.45c0-.63-.45-1-1.14-1-.57,0-.91.18-1.32.72-.2.23-.44.34-.74.34-.45,0-.78-.29-.78-.71,0-.15.03-.28.1-.42.32-.81,1.41-1.31,2.82-1.31,1.75,0,2.88.9,2.88,2.27v3.88c0,.62-.37.93-.9.93s-.85-.28-.89-.83v-.35h-.04c-.38.72-1.23,1.15-2.08,1.15-1.29,0-2.28-.84-2.28-2.06Zm4.37-.54v-.5l-1.44.09c-.69.05-1.08.36-1.08.84,0,.51.42.83,1.04.83.81,0,1.48-.53,1.48-1.26Z"/><path class="cls-4" d="m528.83,61.05c0-2.18,1.29-3.55,3.34-3.55,1.37,0,2.5.66,2.87,1.62.06.16.1.32.1.46,0,.46-.36.72-.79.72-.37,0-.59-.15-.78-.48-.34-.6-.75-.87-1.34-.87-.94,0-1.52.77-1.52,2.09s.58,2.1,1.5,2.1c.65,0,1.05-.32,1.33-.8.25-.39.45-.55.84-.55.43,0,.78.29.78.74,0,.15-.04.3-.12.48-.41.93-1.57,1.57-2.87,1.57-2.05,0-3.35-1.35-3.35-3.55Z"/><path class="cls-4" d="m536.2,63.62v-7.5c0-.63.39-.97.93-.97s.93.34.93.97v4.22h.03l2.46-2.47c.25-.26.46-.37.74-.37.48,0,.83.35.83.81,0,.28-.08.45-.35.7l-1.73,1.64,1.9,2.42c.2.27.26.44.26.68,0,.5-.36.84-.88.84-.39,0-.62-.14-.91-.58l-1.75-2.31-.59.55v1.38c0,.63-.38.96-.93.96s-.93-.33-.93-.96Z"/><path class="cls-4" d="m542.59,61.09c0-2.19,1.28-3.58,3.29-3.58s3.22,1.32,3.22,3.17c0,.51-.29.81-.81.81h-3.88v.08c0,1.01.61,1.67,1.55,1.67.68,0,1.12-.23,1.62-.82.2-.2.36-.27.6-.27.4,0,.72.25.72.68,0,.15-.04.3-.13.45-.45.84-1.5,1.33-2.82,1.33-2.13,0-3.38-1.31-3.38-3.52Zm4.73-.74c-.04-.89-.61-1.47-1.42-1.47s-1.4.6-1.47,1.47h2.89Z"/><path class="cls-4" d="m550.05,63.62v-5.18c0-.59.36-.93.89-.93s.88.34.88.93v.44h.04c.18-.84.74-1.35,1.42-1.35.25,0,.44.06.58.17.18.14.27.37.27.69,0,.29-.09.51-.27.67s-.44.23-.81.24c-.84.01-1.14.49-1.14,1.29v3.02c0,.62-.36.96-.93.96s-.93-.35-.93-.96Z"/><path class="cls-4" d="m557.39,62.85c-.06-.17-.1-.34-.1-.51,0-.51.35-.84.84-.84.39,0,.65.15.88.56.3.7,1.02,1.02,1.89,1.02,1.03,0,1.73-.5,1.73-1.17,0-.6-.43-.95-1.58-1.18l-.97-.19c-1.83-.36-2.72-1.24-2.72-2.6,0-1.68,1.46-2.79,3.5-2.79,1.68,0,2.94.7,3.35,1.9.04.13.07.26.07.43,0,.46-.33.77-.82.77-.43,0-.7-.17-.91-.56-.3-.69-.9-.98-1.68-.98-.95,0-1.57.44-1.57,1.12,0,.56.44.91,1.52,1.13l.96.2c1.94.39,2.78,1.17,2.78,2.56,0,1.79-1.4,2.92-3.69,2.92-1.89,0-3.1-.76-3.47-1.76Z"/><path class="cls-4" d="m565.56,65.92v-7.45c0-.62.38-.95.91-.95s.91.33.91.96v.37h.04c.37-.8,1.12-1.29,2.11-1.29,1.73,0,2.79,1.31,2.79,3.51s-1.05,3.51-2.76,3.51c-.99,0-1.75-.48-2.11-1.25h-.04v2.6c0,.63-.38.96-.93.96s-.93-.33-.93-.96Zm4.86-4.86c0-1.23-.58-2.02-1.51-2.02s-1.5.81-1.5,2.02.6,2.02,1.5,2.02,1.51-.78,1.51-2.02Z"/><path class="cls-4" d="m573.01,62.5c0-1.24.95-1.96,2.65-2.06l1.71-.1v-.45c0-.63-.45-1-1.14-1-.57,0-.91.18-1.32.72-.2.23-.44.34-.74.34-.45,0-.78-.29-.78-.71,0-.15.03-.28.1-.42.32-.81,1.41-1.31,2.82-1.31,1.75,0,2.88.9,2.88,2.27v3.88c0,.62-.37.93-.9.93s-.85-.28-.89-.83v-.35h-.04c-.38.72-1.23,1.15-2.08,1.15-1.29,0-2.28-.84-2.28-2.06Zm4.37-.54v-.5l-1.44.09c-.69.05-1.08.36-1.08.84,0,.51.42.83,1.04.83.81,0,1.48-.53,1.48-1.26Z"/><path class="cls-4" d="m581.47,63.62l-1.37-4.74c-.07-.24-.1-.39-.1-.57,0-.46.38-.79.89-.79.46,0,.76.28.87.79l1.01,4.4h.04l1.05-4.34c.12-.55.48-.85,1.05-.85s.91.3,1.03.85l1.06,4.34h.04l1.02-4.41c.1-.5.4-.77.86-.77.51,0,.88.32.88.79,0,.17-.03.32-.1.56l-1.37,4.75c-.19.67-.55.98-1.19.98-.68,0-1.04-.29-1.2-.98l-1.04-3.96h-.04l-1.03,3.97c-.16.67-.53.97-1.19.97s-.98-.3-1.17-.97Z"/><path class="cls-4" d="m590.63,63.62v-5.18c0-.58.34-.93.89-.93s.93.36.93.94v.38h.04c.36-.84,1.05-1.31,2.09-1.31,1.51,0,2.36.95,2.36,2.55v3.55c0,.63-.39.96-.93.96s-.93-.33-.93-.96v-3.17c0-.89-.42-1.4-1.25-1.4s-1.36.61-1.36,1.49v3.07c0,.63-.38.96-.93.96s-.93-.33-.93-.96Z"/><path class="cls-1" d="m219.42,652.27v-1.96l-2.15-3.32c-.11-.17-.15-.33-.15-.5,0-.4.31-.69.74-.69.32,0,.49.12.68.46l1.61,2.65h.03l1.62-2.65c.19-.32.38-.46.67-.46.42,0,.73.29.73.68,0,.17-.05.33-.16.5l-2.15,3.32v1.96c0,.48-.27.77-.74.77s-.74-.28-.74-.77Z"/><path class="cls-1" d="m222.68,650.35c0-1.68.98-2.75,2.53-2.75s2.48,1.02,2.48,2.44c0,.39-.22.62-.62.62h-2.99v.06c0,.78.47,1.28,1.19,1.28.52,0,.86-.18,1.25-.63.15-.16.28-.21.46-.21.31,0,.56.2.56.52,0,.11-.03.23-.1.35-.35.64-1.16,1.03-2.17,1.03-1.64,0-2.6-1.01-2.6-2.71Zm3.64-.57c-.03-.68-.47-1.13-1.09-1.13s-1.08.46-1.13,1.13h2.22Z"/><path class="cls-1" d="m228.45,652.3v-5.77c0-.49.3-.75.71-.75s.71.26.71.75v5.77c0,.49-.29.74-.71.74s-.71-.25-.71-.74Z"/><path class="cls-1" d="m230.88,652.3v-5.77c0-.49.3-.75.71-.75s.71.26.71.75v5.77c0,.49-.29.74-.71.74s-.71-.25-.71-.74Z"/><path class="cls-1" d="m233.07,650.32c0-1.69,1.03-2.72,2.59-2.72s2.59,1.03,2.59,2.72-1.01,2.73-2.59,2.73-2.59-1.02-2.59-2.73Zm3.74,0c0-1.04-.45-1.64-1.14-1.64s-1.15.6-1.15,1.64.44,1.64,1.15,1.64,1.14-.59,1.14-1.64Z"/><path class="cls-1" d="m239.8,652.3l-1.05-3.65c-.05-.19-.08-.3-.08-.44,0-.36.29-.61.69-.61.36,0,.59.21.67.61l.78,3.38h.03l.81-3.33c.09-.43.37-.65.81-.65s.7.23.8.65l.82,3.33h.03l.78-3.39c.08-.38.31-.6.66-.6.4,0,.67.25.67.61,0,.13-.02.25-.08.43l-1.05,3.65c-.15.52-.42.75-.91.75-.52,0-.8-.22-.92-.76l-.8-3.05h-.03l-.79,3.06c-.12.52-.41.75-.91.75s-.75-.23-.9-.75Z"/><path class="cls-1" d="m654.75,349.61c0-2.27,1.29-3.64,3.32-3.64,1.32,0,2.34.59,2.82,1.6.1.19.15.38.15.55,0,.39-.26.63-.65.63-.33,0-.54-.15-.7-.49-.32-.72-.9-1.08-1.6-1.08-1.11,0-1.83.93-1.83,2.42s.71,2.43,1.84,2.43c.74,0,1.3-.34,1.62-1.04.15-.33.34-.46.65-.46.41,0,.69.26.69.65,0,.17-.04.32-.11.49-.44.98-1.49,1.58-2.82,1.58-2.09,0-3.36-1.37-3.36-3.64Z"/><path class="cls-1" d="m661.74,351.63c0-.95.73-1.5,2.04-1.58l1.32-.08v-.35c0-.49-.34-.77-.88-.77-.44,0-.7.14-1.02.55-.16.18-.34.26-.57.26-.35,0-.6-.22-.6-.55,0-.11.02-.21.07-.32.24-.62,1.08-1.01,2.17-1.01,1.34,0,2.22.69,2.22,1.75v2.98c0,.47-.29.72-.69.72-.38,0-.65-.21-.68-.63v-.27h-.03c-.29.56-.95.88-1.6.88-1,0-1.75-.64-1.75-1.59Zm3.36-.42v-.38l-1.1.07c-.53.04-.84.28-.84.65,0,.39.32.63.8.63.62,0,1.14-.41,1.14-.97Z"/><path class="cls-1" d="m667.42,352.49v-3.98c0-.44.26-.72.69-.72s.71.27.71.72v.29h.03c.28-.65.8-1.01,1.61-1.01,1.16,0,1.82.73,1.82,1.96v2.73c0,.49-.3.74-.71.74s-.71-.25-.71-.74v-2.44c0-.68-.32-1.07-.96-1.07s-1.04.47-1.04,1.15v2.36c0,.49-.29.74-.71.74s-.71-.25-.71-.74Z"/><path class="cls-1" d="m673.18,352.49v-3.98c0-.44.26-.72.69-.72s.71.27.71.72v.29h.03c.28-.65.8-1.01,1.61-1.01,1.16,0,1.82.73,1.82,1.96v2.73c0,.49-.3.74-.71.74s-.71-.25-.71-.74v-2.44c0-.68-.32-1.07-.96-1.07s-1.04.47-1.04,1.15v2.36c0,.49-.29.74-.71.74s-.71-.25-.71-.74Z"/><path class="cls-1" d="m678.76,350.51c0-1.69,1.03-2.72,2.59-2.72s2.59,1.03,2.59,2.72-1.01,2.73-2.59,2.73-2.59-1.02-2.59-2.73Zm3.73,0c0-1.04-.45-1.64-1.14-1.64s-1.15.6-1.15,1.64.44,1.64,1.15,1.64,1.14-.59,1.14-1.64Z"/><path class="cls-1" d="m684.67,352.49v-3.98c0-.44.26-.72.69-.72s.71.27.71.72v.29h.03c.28-.65.81-1.01,1.61-1.01,1.16,0,1.82.73,1.82,1.96v2.73c0,.49-.3.74-.71.74s-.71-.25-.71-.74v-2.44c0-.68-.32-1.07-.96-1.07s-1.04.47-1.04,1.15v2.36c0,.49-.29.74-.71.74s-.71-.25-.71-.74Z"/><path class="cls-1" d="m383.29,501.55v-5.51c0-.48.27-.77.74-.77h1.95c2.11,0,3.36,1.26,3.36,3.5s-1.25,3.55-3.36,3.55h-1.95c-.46,0-.74-.28-.74-.77Zm2.51-.45c1.32,0,2.03-.8,2.03-2.32s-.73-2.29-2.03-2.29h-1.04v4.61h1.04Z"/><path class="cls-1" d="m389.98,499.69c0-1.69,1.03-2.72,2.59-2.72s2.59,1.03,2.59,2.72-1.01,2.73-2.59,2.73-2.59-1.02-2.59-2.73Zm3.74,0c0-1.04-.45-1.64-1.14-1.64s-1.15.6-1.15,1.64.44,1.64,1.15,1.64,1.14-.59,1.14-1.64Z"/><path class="cls-1" d="m395.87,500.46v-2.73c0-.49.3-.75.71-.75s.71.26.71.75v2.44c0,.7.35,1.07.98,1.07s1.03-.45,1.03-1.15v-2.36c0-.49.3-.75.71-.75s.71.26.71.75v3.97c0,.47-.28.72-.69.72s-.69-.25-.69-.72v-.32h-.03c-.26.66-.78,1.04-1.57,1.04-1.13,0-1.88-.74-1.88-1.96Z"/><path class="cls-1" d="m401.69,501.7v-5.79c0-.49.3-.75.71-.75s.71.26.71.75v2.08h.03c.29-.62.87-.99,1.62-.99,1.32,0,2.13,1.01,2.13,2.7s-.8,2.7-2.12,2.7c-.77,0-1.35-.37-1.64-.98h-.03v.28c0,.47-.29.72-.71.72s-.7-.24-.7-.72Zm3.74-2c0-.95-.44-1.56-1.15-1.56s-1.17.62-1.17,1.56.47,1.55,1.17,1.55,1.15-.6,1.15-1.55Z"/><path class="cls-1" d="m407.66,501.68v-5.77c0-.49.3-.75.71-.75s.71.26.71.75v5.77c0,.49-.29.74-.71.74s-.71-.25-.71-.74Z"/><path class="cls-1" d="m409.86,499.72c0-1.68.98-2.75,2.53-2.75s2.48,1.02,2.48,2.44c0,.4-.22.62-.62.62h-2.99v.06c0,.78.47,1.28,1.19,1.28.52,0,.86-.18,1.25-.63.15-.16.28-.21.46-.21.31,0,.56.2.56.52,0,.11-.03.23-.1.35-.35.64-1.16,1.03-2.17,1.03-1.64,0-2.6-1.01-2.6-2.71Zm3.64-.57c-.03-.68-.47-1.13-1.09-1.13s-1.08.46-1.13,1.13h2.22Z"/><path class="cls-1" d="m417.7,501.55v-5.51c0-.48.27-.77.74-.77h1.95c2.11,0,3.36,1.26,3.36,3.5s-1.25,3.55-3.36,3.55h-1.95c-.46,0-.74-.28-.74-.77Zm2.51-.45c1.32,0,2.03-.8,2.03-2.32s-.73-2.29-2.03-2.29h-1.04v4.61h1.04Z"/><path class="cls-1" d="m424.39,499.69c0-1.69,1.03-2.72,2.59-2.72s2.59,1.03,2.59,2.72-1.01,2.73-2.59,2.73-2.59-1.02-2.59-2.73Zm3.74,0c0-1.04-.45-1.64-1.14-1.64s-1.15.6-1.15,1.64.44,1.64,1.15,1.64,1.14-.59,1.14-1.64Z"/><path class="cls-1" d="m430.11,499.69c0-1.69,1.03-2.72,2.59-2.72s2.59,1.03,2.59,2.72-1.01,2.73-2.59,2.73-2.59-1.02-2.59-2.73Zm3.74,0c0-1.04-.45-1.64-1.14-1.64s-1.15.6-1.15,1.64.44,1.64,1.15,1.64,1.14-.59,1.14-1.64Z"/><path class="cls-1" d="m436.03,501.68v-3.98c0-.45.28-.72.69-.72s.67.26.67.72v.34h.03c.14-.65.57-1.04,1.09-1.04.19,0,.34.04.44.13.14.11.21.28.21.53,0,.22-.07.4-.21.51s-.34.18-.62.19c-.65,0-.88.38-.88,1v2.32c0,.47-.28.74-.71.74s-.71-.27-.71-.74Z"/><path class="cls-1" d="m563.37,754.3v-5.76c0-.47.27-.74.74-.74.3,0,.51.12.73.43l3.05,4.26h.04v-3.95c0-.47.26-.74.71-.74s.7.27.7.74v5.78c0,.46-.26.72-.72.72-.32,0-.51-.11-.74-.42l-3.06-4.28h-.04v3.97c0,.47-.26.74-.7.74s-.71-.27-.71-.74Z"/><path class="cls-1" d="m570.2,752.35c0-1.68.98-2.75,2.53-2.75s2.48,1.02,2.48,2.44c0,.4-.22.62-.62.62h-2.99v.06c0,.78.47,1.28,1.19,1.28.52,0,.86-.18,1.25-.63.15-.16.28-.21.46-.21.31,0,.56.2.56.52,0,.11-.03.23-.1.35-.35.64-1.16,1.03-2.17,1.03-1.64,0-2.6-1.01-2.6-2.71Zm3.64-.57c-.03-.68-.47-1.13-1.09-1.13s-1.08.46-1.13,1.13h2.22Z"/><path class="cls-1" d="m575.82,754.01c-.03-.09-.05-.19-.05-.26,0-.33.24-.55.58-.55.23,0,.42.1.62.32.28.37.6.53,1.14.53s.85-.21.85-.56c0-.28-.18-.43-.69-.55l-.88-.19c-1.03-.22-1.54-.74-1.54-1.52,0-1,.86-1.65,2.22-1.65,1.08,0,1.88.49,2.05,1.08.02.07.03.14.03.21,0,.29-.18.49-.55.49-.19,0-.39-.07-.52-.22-.25-.32-.53-.56-1.04-.56-.48,0-.82.23-.82.57,0,.27.21.45.73.57l.86.19c1.11.23,1.57.64,1.57,1.43,0,1.04-.93,1.71-2.31,1.71-1.2,0-2-.43-2.25-1.04Z"/><path class="cls-1" d="m581.47,750.79h-.27c-.34,0-.55-.21-.55-.54s.21-.54.55-.54h.27v-.58c0-.46.27-.74.71-.74s.71.28.71.74v.58h.5c.34,0,.55.21.55.54s-.21.54-.55.54h-.5v2.5c0,.37.13.53.43.55h.09c.35.05.54.2.54.53,0,.42-.41.63-1.01.63h-.05c-.95,0-1.44-.47-1.44-1.4v-2.82Z"/><path class="cls-1" d="m330.59,447.55v-5.7c0-.49.27-.77.74-.77s.74.28.74.77v2.19h3.17v-2.19c0-.49.27-.77.74-.77s.74.28.74.77v5.7c0,.48-.27.77-.74.77s-.74-.28-.74-.77v-2.29h-3.17v2.29c0,.48-.27.77-.74.77s-.74-.28-.74-.77Z"/><path class="cls-1" d="m337.45,446.72c0-.95.73-1.5,2.04-1.58l1.32-.08v-.35c0-.49-.34-.77-.88-.77-.43,0-.7.14-1.02.55-.16.18-.34.26-.57.26-.35,0-.6-.22-.6-.55,0-.11.02-.21.07-.32.24-.62,1.08-1.01,2.17-1.01,1.34,0,2.22.69,2.22,1.75v2.98c0,.47-.29.72-.69.72s-.65-.21-.68-.63v-.27h-.03c-.29.56-.95.88-1.6.88-1,0-1.75-.64-1.75-1.59Zm3.36-.42v-.38l-1.1.07c-.53.04-.83.28-.83.65,0,.39.32.63.8.63.62,0,1.14-.41,1.14-.97Z"/><path class="cls-1" d="m343.17,447.58v-5.77c0-.49.3-.75.71-.75s.71.26.71.75v5.77c0,.49-.29.74-.71.74s-.71-.25-.71-.74Z"/><path class="cls-1" d="m345.59,447.58v-5.77c0-.49.3-.75.71-.75s.71.26.71.75v5.77c0,.49-.29.74-.71.74s-.71-.25-.71-.74Z"/><path class="cls-1" d="m347.86,447.29c-.03-.09-.05-.19-.05-.26,0-.33.24-.55.58-.55.23,0,.42.1.62.32.28.37.6.53,1.14.53s.85-.21.85-.56c0-.28-.18-.43-.69-.55l-.88-.19c-1.03-.22-1.54-.74-1.54-1.52,0-1,.86-1.65,2.22-1.65,1.08,0,1.88.49,2.05,1.08.02.07.03.14.03.21,0,.29-.18.49-.55.49-.19,0-.39-.07-.52-.22-.25-.32-.53-.56-1.04-.56-.48,0-.82.23-.82.57,0,.27.21.45.73.57l.86.19c1.11.23,1.57.64,1.57,1.43,0,1.04-.93,1.71-2.31,1.71-1.2,0-2-.43-2.25-1.04Z"/><path class="cls-1" d="m202,323.71c-.05-.13-.08-.26-.08-.4,0-.39.27-.65.65-.65.3,0,.5.12.68.43.23.54.78.78,1.46.78.79,0,1.33-.38,1.33-.9,0-.46-.33-.73-1.22-.91l-.75-.15c-1.41-.28-2.09-.95-2.09-2,0-1.29,1.12-2.14,2.69-2.14,1.29,0,2.26.54,2.57,1.46.03.1.05.2.05.33,0,.35-.25.59-.63.59-.33,0-.54-.13-.7-.43-.23-.53-.69-.75-1.29-.75-.73,0-1.21.34-1.21.86,0,.43.34.7,1.17.87l.74.15c1.49.3,2.14.9,2.14,1.97,0,1.38-1.08,2.25-2.84,2.25-1.46,0-2.39-.58-2.67-1.35Z"/><path class="cls-1" d="m208.32,324.31v-5.78c0-.46.26-.73.7-.73s.7.27.7.73v2.12h.03c.28-.66.85-1.03,1.65-1.03,1.16,0,1.83.75,1.83,1.96v2.73c0,.49-.29.74-.71.74s-.71-.25-.71-.74v-2.43c0-.67-.33-1.08-.98-1.08s-1.07.47-1.07,1.16v2.35c0,.49-.29.74-.71.74s-.71-.25-.71-.74Z"/><path class="cls-1" d="m213.94,322.33c0-1.69,1.03-2.72,2.59-2.72s2.59,1.03,2.59,2.72-1.01,2.73-2.59,2.73-2.59-1.02-2.59-2.73Zm3.74,0c0-1.04-.45-1.64-1.14-1.64s-1.15.6-1.15,1.64.44,1.64,1.15,1.64,1.14-.59,1.14-1.64Z"/><path class="cls-1" d="m219.85,326.07v-5.73c0-.48.29-.73.7-.73s.7.25.7.74v.28h.03c.28-.62.86-1,1.62-1,1.33,0,2.14,1.01,2.14,2.7s-.81,2.7-2.12,2.7c-.76,0-1.35-.37-1.63-.96h-.03v2c0,.49-.29.74-.71.74s-.71-.25-.71-.74Zm3.74-3.74c0-.95-.45-1.56-1.16-1.56s-1.16.62-1.16,1.56.46,1.55,1.16,1.55,1.16-.6,1.16-1.55Z"/><path class="cls-9" d="m357.31,913.66v-7.16c0-.63.36-1,.96-1h2.54c2.75,0,4.37,1.64,4.37,4.54s-1.62,4.62-4.37,4.62h-2.54c-.6,0-.96-.37-.96-1Zm3.27-.58c1.71,0,2.64-1.04,2.64-3.02s-.95-2.97-2.64-2.97h-1.35v5.99h1.35Z"/><path class="cls-9" d="m366,911.29c0-2.19,1.28-3.58,3.29-3.58s3.22,1.32,3.22,3.17c0,.51-.29.81-.81.81h-3.88v.08c0,1.01.61,1.67,1.55,1.67.68,0,1.12-.23,1.62-.82.2-.2.36-.27.6-.27.4,0,.72.25.72.68,0,.15-.04.3-.13.45-.45.84-1.5,1.33-2.82,1.33-2.13,0-3.38-1.31-3.38-3.52Zm4.73-.74c-.04-.89-.61-1.47-1.42-1.47s-1.4.6-1.47,1.47h2.89Z"/><path class="cls-9" d="m373.96,913.83v-4.58h-.36c-.39,0-.68-.25-.68-.69s.29-.68.68-.68h.36v-.51c0-1.35.66-1.94,1.94-1.96.98,0,1.4.31,1.4.75,0,.26-.13.41-.37.49-.1.03-.22.04-.36.05-.57.02-.8.25-.8.75v.43h.78c.39,0,.68.25.68.68s-.29.69-.68.69h-.74v4.58c0,.64-.38.96-.93.96s-.93-.32-.93-.96Z"/><path class="cls-9" d="m377.65,911.29c0-2.19,1.28-3.58,3.29-3.58s3.22,1.32,3.22,3.17c0,.51-.29.81-.81.81h-3.88v.08c0,1.01.61,1.67,1.55,1.67.68,0,1.12-.23,1.62-.82.2-.2.36-.27.6-.27.4,0,.72.25.72.68,0,.15-.04.3-.13.45-.45.84-1.5,1.33-2.82,1.33-2.13,0-3.38-1.31-3.38-3.52Zm4.73-.74c-.04-.89-.61-1.47-1.42-1.47s-1.4.6-1.47,1.47h2.89Z"/><path class="cls-9" d="m385.12,913.83v-5.18c0-.58.34-.93.9-.93s.93.36.93.94v.38h.04c.36-.84,1.05-1.31,2.09-1.31,1.51,0,2.36.95,2.36,2.54v3.55c0,.63-.39.96-.93.96s-.93-.33-.93-.96v-3.17c0-.89-.42-1.4-1.25-1.4s-1.36.61-1.36,1.49v3.07c0,.63-.38.96-.93.96s-.93-.33-.93-.96Z"/><path class="cls-9" d="m392.36,911.25c0-2.16,1.08-3.5,2.79-3.5.98,0,1.75.52,2.08,1.28h.04v-2.69c0-.63.39-.97.93-.97s.93.34.93.97v7.52c0,.62-.38.94-.92.94s-.93-.32-.93-.94v-.39h-.03c-.3.76-1.05,1.31-2.09,1.31-1.7,0-2.77-1.35-2.77-3.52Zm4.91.01c0-1.24-.59-2.03-1.51-2.03s-1.5.78-1.5,2.03.57,2.02,1.5,2.02,1.51-.77,1.51-2.02Z"/><path class="cls-9" d="m400.1,911.29c0-2.19,1.28-3.58,3.29-3.58s3.22,1.32,3.22,3.17c0,.51-.29.81-.81.81h-3.88v.08c0,1.01.61,1.67,1.55,1.67.68,0,1.12-.23,1.62-.82.2-.2.36-.27.6-.27.4,0,.72.25.72.68,0,.15-.04.3-.13.45-.45.84-1.5,1.33-2.82,1.33-2.13,0-3.38-1.31-3.38-3.52Zm4.73-.74c-.04-.89-.61-1.47-1.42-1.47s-1.4.6-1.47,1.47h2.89Z"/><path class="cls-9" d="m407.57,913.83v-5.18c0-.59.36-.93.9-.93s.88.34.88.93v.45h.04c.18-.84.74-1.35,1.42-1.35.25,0,.44.06.58.17.18.14.27.37.27.69,0,.29-.09.51-.27.67s-.44.23-.81.24c-.84.01-1.14.49-1.14,1.29v3.02c0,.62-.36.96-.93.96s-.93-.35-.93-.96Z"/><path class="cls-9" d="m414.91,913.06c-.06-.17-.1-.34-.1-.51,0-.51.35-.84.84-.84.39,0,.65.15.88.56.3.7,1.02,1.02,1.89,1.02,1.03,0,1.73-.49,1.73-1.17,0-.6-.43-.95-1.58-1.18l-.97-.19c-1.83-.36-2.72-1.24-2.72-2.6,0-1.68,1.46-2.79,3.5-2.79,1.68,0,2.94.71,3.35,1.9.04.13.07.26.07.42,0,.46-.33.77-.82.77-.43,0-.7-.17-.91-.57-.3-.69-.9-.98-1.68-.98-.95,0-1.57.44-1.57,1.12,0,.56.44.91,1.52,1.13l.96.2c1.94.39,2.78,1.17,2.78,2.56,0,1.79-1.4,2.92-3.69,2.92-1.89,0-3.1-.76-3.47-1.76Z"/><path class="cls-9" d="m423.08,916.12v-7.45c0-.62.38-.95.91-.95s.91.33.91.96v.37h.04c.37-.8,1.12-1.29,2.11-1.29,1.73,0,2.79,1.31,2.79,3.51s-1.05,3.51-2.75,3.51c-.99,0-1.75-.48-2.11-1.25h-.04v2.6c0,.63-.38.96-.93.96s-.93-.33-.93-.96Zm4.86-4.86c0-1.23-.58-2.03-1.51-2.03s-1.5.81-1.5,2.03.6,2.02,1.5,2.02,1.51-.78,1.51-2.02Z"/><path class="cls-9" d="m430.52,912.71c0-1.24.95-1.96,2.65-2.06l1.71-.1v-.45c0-.63-.44-1-1.14-1-.56,0-.91.18-1.32.72-.2.23-.44.34-.74.34-.45,0-.77-.29-.77-.71,0-.15.03-.28.1-.42.32-.81,1.41-1.31,2.82-1.31,1.75,0,2.88.9,2.88,2.27v3.88c0,.62-.37.93-.9.93s-.85-.28-.89-.82v-.35h-.04c-.38.72-1.23,1.15-2.08,1.15-1.29,0-2.28-.84-2.28-2.06Zm4.37-.54v-.5l-1.43.09c-.69.05-1.09.36-1.09.84,0,.51.42.83,1.04.83.81,0,1.48-.53,1.48-1.26Z"/><path class="cls-9" d="m438.98,913.83l-1.37-4.74c-.07-.24-.1-.39-.1-.57,0-.46.37-.79.9-.79.46,0,.76.28.87.79l1.01,4.4h.04l1.05-4.34c.12-.55.48-.85,1.05-.85s.91.3,1.03.85l1.06,4.34h.04l1.02-4.41c.1-.5.4-.77.86-.77.51,0,.88.32.88.79,0,.17-.03.32-.1.57l-1.37,4.75c-.19.67-.55.98-1.19.98-.68,0-1.04-.29-1.2-.98l-1.03-3.96h-.04l-1.03,3.97c-.16.67-.53.97-1.19.97s-.98-.3-1.17-.97Z"/><path class="cls-9" d="m448.14,913.83v-5.18c0-.58.34-.93.9-.93s.93.36.93.94v.38h.04c.36-.84,1.05-1.31,2.09-1.31,1.51,0,2.36.95,2.36,2.54v3.55c0,.63-.39.96-.93.96s-.93-.33-.93-.96v-3.17c0-.89-.42-1.4-1.25-1.4s-1.36.61-1.36,1.49v3.07c0,.63-.38.96-.93.96s-.93-.33-.93-.96Z"/><path class="cls-1" d="m846.72,478.16v-5.51c0-.48.27-.77.74-.77h2.33c1.32,0,2.15.68,2.15,1.76,0,.77-.58,1.42-1.32,1.53v.04c.96.07,1.66.77,1.66,1.7,0,1.24-.93,2.02-2.44,2.02h-2.38c-.46,0-.74-.28-.74-.77Zm2.53-3.34c.79,0,1.24-.35,1.24-.94s-.4-.89-1.08-.89h-1.21v1.83h1.06Zm.21,3.02c.85,0,1.31-.36,1.31-1.04s-.47-1.01-1.34-1.01h-1.24v2.05h1.27Z"/><path class="cls-1" d="m855.09,478.33v-5.6c0-.6.35-.95.95-.95.51,0,.8.21,1.01.76l1.75,4.33h.04l1.74-4.33c.21-.54.5-.76,1.02-.76.6,0,.95.35.95.95v5.6c0,.43-.24.69-.66.69s-.65-.25-.65-.69v-4.16h-.04l-1.74,4.26c-.13.31-.32.45-.63.45s-.52-.14-.64-.44l-1.74-4.27h-.04v4.16c0,.43-.24.69-.65.69s-.66-.25-.66-.69Z"/><path class="cls-1" d="m863.29,477.43c0-.95.73-1.5,2.04-1.58l1.32-.08v-.35c0-.49-.34-.77-.88-.77-.43,0-.7.14-1.02.55-.16.18-.34.26-.57.26-.35,0-.6-.22-.6-.55,0-.11.02-.21.07-.32.24-.62,1.08-1.01,2.17-1.01,1.34,0,2.22.69,2.22,1.75v2.98c0,.47-.29.72-.69.72s-.65-.21-.68-.63v-.27h-.03c-.29.56-.95.88-1.6.88-1,0-1.75-.64-1.75-1.59Zm3.36-.42v-.38l-1.1.07c-.53.04-.83.28-.83.65,0,.39.32.63.8.63.62,0,1.14-.41,1.14-.97Z"/><path class="cls-1" d="m868.95,472.31c0-.42.33-.74.76-.74s.76.32.76.74-.33.74-.76.74-.76-.33-.76-.74Zm.05,5.98v-3.96c0-.46.27-.75.71-.75s.71.28.71.75v3.96c0,.46-.27.74-.71.74s-.71-.28-.71-.74Z"/><path class="cls-1" d="m871.37,478.29v-3.98c0-.44.26-.72.69-.72s.71.27.71.72v.29h.03c.28-.65.81-1.01,1.61-1.01,1.16,0,1.82.73,1.82,1.96v2.73c0,.49-.3.74-.71.74s-.71-.25-.71-.74v-2.44c0-.68-.32-1.07-.96-1.07s-1.04.47-1.04,1.15v2.36c0,.49-.29.74-.71.74s-.71-.25-.71-.74Z"/><path class="cls-1" d="m508.62,428.66v-5.6c0-.6.35-.95.95-.95.51,0,.8.21,1.01.76l1.75,4.33h.04l1.74-4.33c.21-.54.5-.76,1.02-.76.6,0,.95.35.95.95v5.6c0,.43-.24.69-.66.69s-.65-.25-.65-.69v-4.16h-.04l-1.74,4.26c-.13.31-.32.45-.63.45s-.52-.14-.64-.44l-1.74-4.27h-.04v4.16c0,.43-.24.69-.65.69s-.66-.25-.66-.69Z"/><path class="cls-1" d="m517.11,422.63c0-.42.33-.74.76-.74s.76.32.76.74-.33.74-.76.74-.76-.33-.76-.74Zm.05,5.98v-3.96c0-.46.27-.75.71-.75s.71.28.71.75v3.96c0,.46-.27.74-.71.74s-.71-.28-.71-.74Z"/><path class="cls-1" d="m519.34,426.63c0-1.66.83-2.69,2.14-2.69.76,0,1.34.4,1.6.98h.03v-2.07c0-.49.3-.75.71-.75s.71.26.71.75v5.79c0,.47-.29.72-.71.72s-.72-.24-.72-.72v-.3h-.02c-.23.59-.81,1.01-1.61,1.01-1.31,0-2.13-1.04-2.13-2.71Zm3.78,0c0-.95-.45-1.56-1.16-1.56s-1.16.6-1.16,1.56.44,1.55,1.16,1.55,1.16-.6,1.16-1.55Z"/><path class="cls-1" d="m648.13,683.89v-5.15h-1.46c-.4,0-.67-.23-.67-.61s.26-.61.67-.61h4.39c.4,0,.66.23.66.61s-.27.61-.66.61h-1.46v5.15c0,.48-.27.77-.74.77s-.74-.28-.74-.77Z"/><path class="cls-1" d="m651.67,682.7v-2.73c0-.49.3-.75.71-.75s.71.26.71.75v2.44c0,.7.35,1.07.98,1.07s1.03-.45,1.03-1.15v-2.36c0-.49.3-.75.71-.75s.71.26.71.75v3.97c0,.47-.28.72-.69.72s-.69-.25-.69-.72v-.32h-.03c-.26.66-.78,1.04-1.57,1.04-1.13,0-1.88-.74-1.88-1.96Z"/><path class="cls-1" d="m657.45,683.92v-3.98c0-.44.26-.72.69-.72s.71.27.71.72v.29h.03c.28-.65.81-1.01,1.61-1.01,1.16,0,1.82.73,1.82,1.96v2.73c0,.49-.3.74-.71.74s-.71-.25-.71-.74v-2.44c0-.68-.32-1.07-.96-1.07s-1.04.47-1.04,1.15v2.36c0,.49-.29.74-.71.74s-.71-.25-.71-.74Z"/><path class="cls-1" d="m663.21,683.92v-3.98c0-.44.26-.72.69-.72s.71.27.71.72v.29h.03c.28-.65.81-1.01,1.61-1.01,1.16,0,1.82.73,1.82,1.96v2.73c0,.49-.3.74-.71.74s-.71-.25-.71-.74v-2.44c0-.68-.32-1.07-.96-1.07s-1.04.47-1.04,1.15v2.36c0,.49-.29.74-.71.74s-.71-.25-.71-.74Z"/><path class="cls-1" d="m668.79,681.97c0-1.68.98-2.75,2.53-2.75s2.48,1.02,2.48,2.44c0,.39-.22.62-.62.62h-2.99v.06c0,.78.47,1.28,1.19,1.28.52,0,.86-.18,1.25-.63.15-.16.28-.21.46-.21.31,0,.56.2.56.52,0,.11-.03.23-.1.35-.35.64-1.16,1.03-2.17,1.03-1.64,0-2.6-1.01-2.6-2.71Zm3.64-.57c-.03-.68-.47-1.13-1.09-1.13s-1.08.46-1.13,1.13h2.22Z"/><path class="cls-1" d="m674.56,683.92v-5.77c0-.49.3-.75.71-.75s.71.26.71.75v5.77c0,.49-.29.74-.71.74s-.71-.25-.71-.74Z"/><path class="cls-1" d="m330.02,313.17v-5.62c0-.48.27-.77.74-.77h2.15c1.62,0,2.55.85,2.55,2.25,0,.88-.43,1.63-1.21,1.96l1.02,1.76c.12.21.16.34.16.51,0,.39-.31.67-.74.67-.35,0-.51-.13-.75-.56l-1.17-2.12h-1.25v1.91c0,.48-.27.77-.74.77s-.74-.28-.74-.77Zm2.74-2.98c.74,0,1.18-.42,1.18-1.12s-.46-1.12-1.19-1.12h-1.25v2.25h1.27Z"/><path class="cls-1" d="m336.06,311.22c0-1.69,1.03-2.72,2.59-2.72s2.59,1.03,2.59,2.72-1.01,2.73-2.59,2.73-2.59-1.02-2.59-2.73Zm3.74,0c0-1.04-.45-1.64-1.14-1.64s-1.15.6-1.15,1.64.44,1.64,1.15,1.64,1.14-.59,1.14-1.64Z"/><path class="cls-1" d="m341.98,314.96v-5.73c0-.48.29-.73.7-.73s.7.25.7.74v.28h.03c.28-.62.86-1,1.62-1,1.33,0,2.14,1.01,2.14,2.7s-.81,2.7-2.12,2.7c-.76,0-1.35-.37-1.63-.96h-.03v2c0,.49-.29.74-.71.74s-.71-.25-.71-.74Zm3.74-3.74c0-.95-.45-1.56-1.16-1.56s-1.16.62-1.16,1.56.46,1.55,1.16,1.55,1.16-.6,1.16-1.55Z"/><path class="cls-1" d="m347.72,311.25c0-1.68.98-2.75,2.53-2.75s2.48,1.02,2.48,2.44c0,.4-.22.62-.62.62h-2.99v.06c0,.78.47,1.28,1.19,1.28.52,0,.86-.18,1.25-.63.15-.16.28-.21.46-.21.31,0,.56.2.56.52,0,.11-.03.23-.1.35-.35.64-1.16,1.03-2.17,1.03-1.64,0-2.6-1.01-2.6-2.71Zm3.64-.57c-.03-.68-.47-1.13-1.09-1.13s-1.08.46-1.13,1.13h2.22Z"/><path class="cls-1" d="m849.61,319.04l-1.47-5.33c-.05-.18-.08-.36-.08-.49,0-.41.28-.66.73-.66.39,0,.62.21.71.63l1.05,4.57h.04l1.19-4.54c.11-.46.35-.66.76-.66s.64.21.75.65l1.19,4.55h.04l1.05-4.57c.09-.42.33-.63.71-.63.45,0,.73.25.73.66,0,.13-.03.3-.08.49l-1.47,5.34c-.15.52-.4.74-.85.74s-.73-.22-.87-.75l-1.17-4.16h-.04l-1.17,4.16c-.14.52-.41.75-.87.75s-.72-.22-.86-.75Z"/><path class="cls-1" d="m857.8,313.08c0-.42.33-.74.76-.74s.76.32.76.74-.33.74-.76.74-.76-.33-.76-.74Zm.05,5.98v-3.96c0-.46.27-.75.71-.75s.71.28.71.75v3.96c0,.46-.27.74-.71.74s-.71-.28-.71-.74Z"/><path class="cls-1" d="m860.22,319.06v-3.98c0-.44.26-.72.69-.72s.71.27.71.72v.29h.03c.28-.65.81-1.01,1.61-1.01,1.16,0,1.82.73,1.82,1.96v2.73c0,.49-.3.74-.71.74s-.71-.25-.71-.74v-2.44c0-.68-.32-1.07-.96-1.07s-1.04.47-1.04,1.15v2.36c0,.49-.29.74-.71.74s-.71-.25-.71-.74Z"/><path class="cls-1" d="m865.8,317.08c0-1.66.83-2.69,2.14-2.69.76,0,1.34.4,1.6.98h.03v-2.07c0-.49.3-.75.71-.75s.71.26.71.75v5.79c0,.47-.29.72-.71.72s-.72-.24-.72-.72v-.3h-.02c-.23.59-.81,1.01-1.61,1.01-1.31,0-2.13-1.04-2.13-2.71Zm3.78,0c0-.95-.45-1.56-1.16-1.56s-1.16.6-1.16,1.56.44,1.55,1.16,1.55,1.16-.6,1.16-1.55Z"/><path class="cls-1" d="m871.75,317.08c0-1.69,1.03-2.72,2.59-2.72s2.59,1.03,2.59,2.72-1.01,2.73-2.59,2.73-2.59-1.02-2.59-2.73Zm3.74,0c0-1.04-.45-1.64-1.14-1.64s-1.15.6-1.15,1.64.44,1.64,1.15,1.64,1.14-.59,1.14-1.64Z"/><path class="cls-1" d="m878.48,319.06l-1.05-3.65c-.05-.19-.08-.3-.08-.44,0-.36.29-.61.69-.61.36,0,.59.21.67.61l.78,3.38h.03l.81-3.33c.09-.42.37-.65.81-.65s.7.23.8.65l.82,3.33h.03l.78-3.39c.08-.38.31-.6.66-.6.4,0,.67.25.67.61,0,.13-.02.25-.08.43l-1.05,3.65c-.15.52-.42.75-.91.75-.52,0-.8-.22-.92-.76l-.8-3.05h-.03l-.79,3.06c-.12.52-.41.75-.91.75s-.75-.23-.9-.75Z"/><path class="cls-1" d="m257.15,741.99v-5.51c0-.48.27-.77.74-.77h2.33c1.32,0,2.15.68,2.15,1.76,0,.77-.58,1.42-1.32,1.53v.04c.96.07,1.66.77,1.66,1.7,0,1.24-.93,2.02-2.44,2.02h-2.38c-.46,0-.74-.28-.74-.77Zm2.53-3.35c.79,0,1.24-.35,1.24-.94s-.4-.89-1.08-.89h-1.21v1.83h1.06Zm.21,3.02c.85,0,1.31-.36,1.31-1.04s-.47-1.01-1.34-1.01h-1.24v2.04h1.27Z"/><path class="cls-1" d="m263.42,742.12v-3.98c0-.45.28-.72.69-.72s.67.26.67.72v.34h.03c.14-.65.57-1.04,1.09-1.04.19,0,.34.04.44.13.14.11.21.28.21.53,0,.22-.07.39-.21.51s-.34.18-.62.19c-.65,0-.88.38-.88,1v2.32c0,.47-.28.74-.71.74s-.71-.27-.71-.74Z"/><path class="cls-1" d="m267.03,736.14c0-.42.33-.74.76-.74s.76.32.76.74-.33.74-.76.74-.76-.33-.76-.74Zm.05,5.98v-3.96c0-.46.27-.75.71-.75s.71.28.71.75v3.96c0,.46-.27.74-.71.74s-.71-.28-.71-.74Z"/><path class="cls-1" d="m269.26,740.13c0-1.66.83-2.69,2.14-2.69.76,0,1.34.4,1.6.98h.03v-2.07c0-.49.3-.75.71-.75s.71.26.71.75v5.79c0,.47-.29.72-.71.72s-.72-.24-.72-.72v-.3h-.02c-.23.59-.81,1.01-1.61,1.01-1.31,0-2.13-1.04-2.13-2.71Zm3.78,0c0-.95-.45-1.56-1.16-1.56s-1.16.6-1.16,1.56.44,1.55,1.16,1.55,1.16-.6,1.16-1.55Z"/><path class="cls-1" d="m275.55,743.77c-.08-.13-.11-.26-.11-.4,0-.3.22-.52.58-.52.19,0,.33.06.49.21.39.37.76.57,1.23.57.78,0,1.24-.42,1.24-1.08v-.84h-.03c-.24.56-.85.94-1.61.94-1.3,0-2.12-1-2.12-2.59s.8-2.61,2.15-2.61c.75,0,1.32.4,1.6.99h.03v-.29c0-.48.31-.72.72-.72s.71.24.71.72v4.41c0,1.36-.99,2.18-2.67,2.17-1.07,0-1.87-.41-2.2-.96Zm3.45-3.69c0-.94-.46-1.55-1.17-1.55s-1.15.6-1.15,1.54.44,1.52,1.15,1.52,1.17-.57,1.17-1.51Z"/><path class="cls-1" d="m281.15,740.17c0-1.68.98-2.75,2.53-2.75s2.48,1.02,2.48,2.44c0,.39-.22.62-.62.62h-2.99v.06c0,.78.47,1.28,1.19,1.28.52,0,.86-.18,1.25-.63.15-.16.28-.21.46-.21.31,0,.56.2.56.52,0,.11-.03.23-.1.35-.35.64-1.16,1.03-2.17,1.03-1.64,0-2.6-1.01-2.6-2.71Zm3.64-.57c-.03-.68-.47-1.13-1.09-1.13s-1.08.46-1.13,1.13h2.22Z"/><path class="cls-1" d="m713.72,564.56v-5.51c0-.48.27-.77.74-.77h3.35c.41,0,.67.23.67.61s-.27.61-.67.61h-2.61v1.69h2.49c.37,0,.62.21.62.57s-.24.57-.62.57h-2.49v1.78h2.61c.4,0,.67.23.67.61s-.26.61-.67.61h-3.35c-.46,0-.74-.28-.74-.77Z"/><path class="cls-1" d="m719.37,564.69v-5.77c0-.49.3-.75.71-.75s.71.26.71.75v5.77c0,.49-.29.74-.71.74s-.71-.25-.71-.74Z"/><path class="cls-1" d="m721.79,564.71v-5.79c0-.49.3-.75.71-.75s.71.26.71.75v2.08h.03c.29-.62.87-.99,1.62-.99,1.32,0,2.13,1.01,2.13,2.7s-.8,2.7-2.12,2.7c-.77,0-1.35-.37-1.64-.98h-.03v.28c0,.47-.29.72-.71.72s-.7-.24-.7-.72Zm3.74-2c0-.95-.44-1.56-1.15-1.56s-1.17.62-1.17,1.56.47,1.55,1.17,1.55,1.15-.6,1.15-1.55Z"/><path class="cls-1" d="m727.53,562.71c0-1.69,1.03-2.72,2.59-2.72s2.59,1.03,2.59,2.72-1.01,2.73-2.59,2.73-2.59-1.02-2.59-2.73Zm3.74,0c0-1.04-.45-1.64-1.14-1.64s-1.15.6-1.15,1.64.44,1.64,1.15,1.64,1.14-.59,1.14-1.64Z"/><path class="cls-1" d="m734.26,564.69l-1.05-3.65c-.05-.19-.08-.3-.08-.44,0-.36.29-.61.69-.61.36,0,.59.21.67.61l.78,3.38h.03l.81-3.33c.09-.42.37-.65.81-.65s.7.23.8.65l.82,3.33h.03l.78-3.39c.08-.38.31-.6.66-.6.4,0,.67.25.67.61,0,.13-.02.25-.08.43l-1.05,3.65c-.15.52-.42.75-.91.75-.52,0-.8-.22-.92-.76l-.8-3.05h-.03l-.79,3.06c-.12.52-.41.75-.91.75s-.75-.23-.9-.75Z"/><path class="cls-1" d="m936.19,605v-5.6c0-.49.27-.77.74-.77s.74.28.74.77v5.15h2.5c.4,0,.67.23.67.61s-.26.61-.67.61h-3.24c-.46,0-.74-.28-.74-.77Z"/><path class="cls-1" d="m941.29,604.27c0-.95.73-1.5,2.04-1.58l1.32-.08v-.35c0-.49-.34-.77-.88-.77-.43,0-.7.14-1.02.55-.16.18-.34.26-.57.26-.35,0-.6-.22-.6-.55,0-.11.02-.21.07-.32.24-.62,1.08-1.01,2.17-1.01,1.34,0,2.22.69,2.22,1.75v2.98c0,.47-.29.72-.69.72s-.65-.21-.68-.63v-.27h-.03c-.29.56-.95.88-1.6.88-1,0-1.75-.64-1.75-1.59Zm3.36-.42v-.38l-1.1.07c-.53.04-.83.28-.83.65,0,.39.32.63.8.63.62,0,1.14-.41,1.14-.97Z"/><path class="cls-1" d="m946.78,603.15c0-1.66.83-2.69,2.14-2.69.76,0,1.34.4,1.6.98h.03v-2.07c0-.49.3-.75.71-.75s.71.26.71.75v5.79c0,.47-.29.72-.71.72s-.72-.24-.72-.72v-.3h-.02c-.23.59-.81,1.01-1.61,1.01-1.31,0-2.13-1.04-2.13-2.71Zm3.78,0c0-.95-.45-1.56-1.16-1.56s-1.16.6-1.16,1.56.44,1.55,1.16,1.55,1.16-.6,1.16-1.55Z"/><path class="cls-1" d="m952.74,603.15c0-1.66.83-2.69,2.14-2.69.76,0,1.34.4,1.6.98h.03v-2.07c0-.49.3-.75.71-.75s.71.26.71.75v5.79c0,.47-.29.72-.71.72s-.72-.24-.72-.72v-.3h-.02c-.23.59-.81,1.01-1.61,1.01-1.31,0-2.13-1.04-2.13-2.71Zm3.78,0c0-.95-.45-1.56-1.16-1.56s-1.16.6-1.16,1.56.44,1.55,1.16,1.55,1.16-.6,1.16-1.55Z"/><path class="cls-1" d="m958.69,603.18c0-1.68.98-2.75,2.53-2.75s2.48,1.02,2.48,2.44c0,.39-.22.62-.62.62h-2.99v.06c0,.78.47,1.28,1.19,1.28.52,0,.86-.18,1.25-.63.15-.16.28-.21.46-.21.31,0,.56.2.56.52,0,.11-.03.23-.1.35-.35.64-1.16,1.03-2.17,1.03-1.64,0-2.6-1.01-2.6-2.71Zm3.64-.57c-.03-.68-.47-1.13-1.09-1.13s-1.08.46-1.13,1.13h2.22Z"/><path class="cls-1" d="m964.44,605.13v-3.98c0-.45.28-.72.69-.72s.67.26.67.72v.34h.03c.14-.65.57-1.04,1.09-1.04.19,0,.34.04.44.13.14.11.21.28.21.53,0,.22-.07.39-.21.51s-.34.18-.62.19c-.65,0-.88.38-.88,1v2.32c0,.47-.28.74-.71.74s-.71-.27-.71-.74Z"/><path class="cls-1" d="m873.61,715.24v-15.97c0-1.4.79-2.22,2.14-2.22h6.75c3.84,0,6.25,1.97,6.25,5.1,0,2.24-1.67,4.11-3.84,4.43v.11c2.78.21,4.81,2.24,4.81,4.94,0,3.6-2.71,5.85-7.07,5.85h-6.91c-1.34,0-2.14-.82-2.14-2.24Zm7.35-9.7c2.28,0,3.58-1.01,3.58-2.73s-1.15-2.58-3.14-2.58h-3.51v5.31h3.07Zm.61,8.75c2.46,0,3.79-1.05,3.79-3s-1.37-2.93-3.89-2.93h-3.58v5.93h3.68Z"/><path class="cls-1" d="m55.16,532.74c-1.13,0-1.77-.57-2.17-1.93l-1.08-3.19h-7.38l-1.08,3.23c-.38,1.33-1.02,1.88-2.22,1.88s-2.14-.83-2.14-2.01c0-.42.07-.81.27-1.36l5.61-15.21c.61-1.67,1.6-2.41,3.27-2.41s2.62.76,3.21,2.42l5.58,15.19c.18.52.28,1.01.28,1.36,0,1.23-.84,2.01-2.17,2.01Zm-4.18-8.42l-2.65-8.37h-.1l-2.7,8.37h5.45Z"/><path class="cls-1" d="m714.02,744.06v-5.7c0-.49.27-.77.74-.77s.74.28.74.77v2.19h3.17v-2.19c0-.49.27-.77.74-.77s.74.28.74.77v5.7c0,.48-.27.77-.74.77s-.74-.28-.74-.77v-2.29h-3.17v2.29c0,.48-.27.77-.74.77s-.74-.28-.74-.77Z"/><path class="cls-1" d="m720.88,743.23c0-.95.73-1.5,2.04-1.58l1.32-.08v-.35c0-.49-.34-.77-.88-.77-.43,0-.7.14-1.02.55-.16.18-.34.26-.57.26-.35,0-.6-.22-.6-.55,0-.11.02-.21.07-.32.24-.62,1.08-1.01,2.17-1.01,1.34,0,2.22.69,2.22,1.75v2.98c0,.47-.29.72-.69.72s-.65-.21-.68-.63v-.27h-.03c-.29.56-.95.88-1.6.88-1,0-1.75-.64-1.75-1.59Zm3.36-.42v-.38l-1.1.07c-.53.04-.83.28-.83.65,0,.39.32.63.8.63.62,0,1.14-.41,1.14-.97Z"/><path class="cls-1" d="m726.59,744.09v-5.77c0-.49.3-.75.71-.75s.71.26.71.75v5.77c0,.49-.29.74-.71.74s-.71-.25-.71-.74Z"/><path class="cls-1" d="m729.36,744.09v-3.52h-.27c-.3,0-.52-.19-.52-.53s.22-.52.52-.52h.27v-.39c0-1.04.51-1.49,1.49-1.5.76,0,1.07.24,1.07.58,0,.2-.1.32-.29.38-.08.02-.17.04-.27.04-.44.02-.62.19-.62.58v.33h.6c.3,0,.52.19.52.52s-.22.53-.52.53h-.57v3.52c0,.49-.29.74-.71.74s-.71-.25-.71-.74Z"/><path class="cls-1" d="m735.96,744.07l-1.47-5.33c-.05-.18-.08-.36-.08-.49,0-.41.28-.66.73-.66.39,0,.62.21.71.63l1.05,4.57h.04l1.19-4.54c.11-.46.35-.66.76-.66s.64.21.75.65l1.19,4.55h.04l1.05-4.57c.09-.42.33-.63.71-.63.45,0,.73.25.73.66,0,.13-.03.3-.08.49l-1.47,5.34c-.15.52-.4.74-.85.74s-.73-.22-.87-.75l-1.17-4.16h-.04l-1.17,4.16c-.14.52-.41.75-.87.75s-.72-.22-.86-.75Z"/><path class="cls-1" d="m743.3,743.23c0-.95.73-1.5,2.04-1.58l1.32-.08v-.35c0-.49-.34-.77-.88-.77-.43,0-.7.14-1.02.55-.16.18-.34.26-.57.26-.35,0-.6-.22-.6-.55,0-.11.02-.21.07-.32.24-.62,1.08-1.01,2.17-1.01,1.34,0,2.22.69,2.22,1.75v2.98c0,.47-.29.72-.69.72s-.65-.21-.68-.63v-.27h-.03c-.29.56-.95.88-1.6.88-1,0-1.75-.64-1.75-1.59Zm3.36-.42v-.38l-1.1.07c-.53.04-.83.28-.83.65,0,.39.32.63.8.63.62,0,1.14-.41,1.14-.97Z"/><path class="cls-1" d="m749.02,744.09v-5.77c0-.49.3-.75.71-.75s.71.26.71.75v5.77c0,.49-.29.74-.71.74s-.71-.25-.71-.74Z"/><path class="cls-1" d="m751.44,744.09v-5.77c0-.49.3-.75.71-.75s.71.26.71.75v5.77c0,.49-.29.74-.71.74s-.71-.25-.71-.74Z"/><path class="cls-1" d="m508.28,667.13v-5.15h-1.46c-.4,0-.67-.23-.67-.61s.26-.61.67-.61h4.39c.4,0,.66.23.66.61s-.27.61-.66.61h-1.46v5.15c0,.48-.27.77-.74.77s-.74-.28-.74-.77Z"/><path class="cls-1" d="m511.15,665.18c0-1.69,1.03-2.72,2.59-2.72s2.59,1.03,2.59,2.72-1.01,2.73-2.59,2.73-2.59-1.02-2.59-2.73Zm3.74,0c0-1.04-.45-1.64-1.14-1.64s-1.15.6-1.15,1.64.44,1.64,1.15,1.64,1.14-.59,1.14-1.64Z"/><path class="cls-1" d="m517.07,668.93v-5.73c0-.48.29-.73.7-.73s.7.25.7.74v.28h.03c.28-.62.86-1,1.62-1,1.33,0,2.14,1.01,2.14,2.7s-.81,2.7-2.12,2.7c-.76,0-1.35-.37-1.63-.96h-.03v2c0,.49-.29.74-.71.74s-.71-.25-.71-.74Zm3.74-3.74c0-.95-.45-1.56-1.16-1.56s-1.16.62-1.16,1.56.46,1.55,1.16,1.55,1.16-.6,1.16-1.55Z"/><path class="cls-1" d="m524.98,667.16v-3.97c0-.48.28-.73.69-.73s.69.25.69.73v.33h.03c.22-.63.78-1.04,1.49-1.04.76,0,1.28.39,1.46,1.07h.03c.23-.66.86-1.07,1.63-1.07,1.03,0,1.71.7,1.71,1.76v2.93c0,.48-.29.74-.72.74s-.71-.26-.71-.74v-2.58c0-.61-.3-.94-.85-.94s-.9.4-.9.98v2.54c0,.48-.26.74-.69.74s-.68-.26-.68-.74v-2.62c0-.56-.32-.89-.84-.89s-.91.41-.91,1v2.52c0,.48-.29.74-.71.74s-.71-.26-.71-.74Z"/><path class="cls-1" d="m533.59,661.18c0-.42.33-.74.76-.74s.76.32.76.74-.33.74-.76.74-.76-.33-.76-.74Zm.05,5.98v-3.96c0-.46.27-.75.71-.75s.71.28.71.75v3.96c0,.46-.27.74-.71.74s-.71-.28-.71-.74Z"/><path class="cls-1" d="m535.82,665.18c0-1.66.83-2.69,2.14-2.69.76,0,1.34.4,1.6.98h.03v-2.07c0-.49.3-.75.71-.75s.71.26.71.75v5.79c0,.47-.29.72-.71.72s-.72-.24-.72-.72v-.3h-.02c-.23.59-.81,1.01-1.61,1.01-1.31,0-2.13-1.04-2.13-2.71Zm3.78,0c0-.95-.45-1.56-1.16-1.56s-1.16.6-1.16,1.56.44,1.55,1.16,1.55,1.16-.6,1.16-1.55Z"/><path class="cls-1" d="m286.3,237.82c0-.12.03-.29.1-.47l1.92-5.24c.21-.57.55-.83,1.11-.83s.92.25,1.13.83l1.93,5.24c.07.19.09.32.09.47,0,.41-.31.69-.74.69s-.63-.19-.77-.65l-.37-1.11h-2.54l-.37,1.1c-.14.47-.36.66-.75.66-.46,0-.75-.27-.75-.69Zm4.07-2.21l-.93-2.89h-.03l-.91,2.89h1.88Z"/><path class="cls-1" d="m295.45,237.83v-5.6c0-.6.35-.95.95-.95.51,0,.8.21,1.01.76l1.75,4.33h.04l1.74-4.33c.21-.54.5-.76,1.02-.76.6,0,.95.35.95.95v5.6c0,.43-.24.69-.66.69s-.65-.25-.65-.69v-4.16h-.04l-1.74,4.26c-.13.31-.32.45-.63.45s-.52-.14-.64-.44l-1.74-4.27h-.04v4.16c0,.43-.24.69-.65.69s-.66-.25-.66-.69Z"/><path class="cls-1" d="m303.65,236.92c0-.95.73-1.5,2.04-1.58l1.32-.08v-.35c0-.49-.34-.77-.88-.77-.43,0-.7.14-1.02.55-.16.18-.34.26-.57.26-.35,0-.6-.22-.6-.55,0-.11.02-.21.07-.32.24-.62,1.08-1.01,2.17-1.01,1.34,0,2.22.69,2.22,1.75v2.98c0,.47-.29.72-.69.72s-.65-.21-.68-.63v-.27h-.03c-.29.56-.95.88-1.6.88-1,0-1.75-.64-1.75-1.59Zm3.36-.42v-.38l-1.1.07c-.53.04-.83.28-.83.65,0,.39.32.63.8.63.62,0,1.14-.41,1.14-.97Z"/><path class="cls-1" d="m309.3,231.8c0-.42.33-.74.76-.74s.76.32.76.74-.33.74-.76.74-.76-.33-.76-.74Zm.05,5.98v-3.96c0-.46.27-.75.71-.75s.71.28.71.75v3.96c0,.46-.27.74-.71.74s-.71-.28-.71-.74Z"/><path class="cls-1" d="m311.72,237.78v-3.98c0-.44.26-.72.69-.72s.71.27.71.72v.29h.03c.28-.65.81-1.01,1.61-1.01,1.16,0,1.82.73,1.82,1.96v2.73c0,.49-.3.74-.71.74s-.71-.25-.71-.74v-2.44c0-.68-.32-1.07-.96-1.07s-1.04.47-1.04,1.15v2.36c0,.49-.29.74-.71.74s-.71-.25-.71-.74Z"/><path class="cls-1" d="m330.9,595.2c-.05-.13-.08-.26-.08-.39,0-.39.27-.65.65-.65.3,0,.5.12.68.43.23.54.78.78,1.46.78.79,0,1.33-.38,1.33-.9,0-.46-.33-.73-1.22-.91l-.75-.15c-1.41-.28-2.09-.95-2.09-2,0-1.29,1.12-2.14,2.69-2.14,1.29,0,2.26.54,2.57,1.46.03.1.05.2.05.33,0,.35-.25.59-.63.59-.33,0-.54-.13-.7-.43-.23-.53-.69-.75-1.29-.75-.73,0-1.21.34-1.21.86,0,.43.34.7,1.17.87l.74.15c1.49.3,2.14.9,2.14,1.97,0,1.38-1.08,2.25-2.84,2.25-1.46,0-2.39-.58-2.67-1.35Z"/><path class="cls-1" d="m338.04,595.79l-1.05-3.65c-.05-.19-.08-.3-.08-.44,0-.36.29-.61.69-.61.36,0,.59.21.67.61l.78,3.38h.03l.81-3.33c.09-.43.37-.65.81-.65s.7.23.8.65l.82,3.33h.03l.78-3.39c.08-.38.31-.6.66-.6.4,0,.67.25.67.61,0,.13-.02.25-.08.43l-1.05,3.65c-.15.52-.42.75-.91.75-.52,0-.8-.22-.92-.76l-.8-3.05h-.03l-.79,3.06c-.12.52-.41.75-.91.75s-.75-.23-.9-.75Z"/><path class="cls-1" d="m345.06,589.81c0-.42.33-.74.76-.74s.76.32.76.74-.33.74-.76.74-.76-.33-.76-.74Zm.05,5.98v-3.96c0-.46.27-.75.71-.75s.71.28.71.75v3.96c0,.46-.27.74-.71.74s-.71-.28-.71-.74Z"/><path class="cls-1" d="m347.86,592.28h-.27c-.34,0-.55-.21-.55-.54s.21-.54.55-.54h.27v-.58c0-.46.27-.74.71-.74s.71.28.71.74v.58h.5c.34,0,.55.21.55.54s-.21.54-.55.54h-.5v2.5c0,.37.13.53.43.55h.09c.35.05.54.2.54.53,0,.42-.41.63-1.01.63h-.05c-.95,0-1.44-.47-1.44-1.4v-2.82Z"/><path class="cls-1" d="m350.77,593.82c0-1.68,1-2.73,2.57-2.73,1.05,0,1.92.51,2.21,1.25.05.12.08.25.08.35,0,.35-.27.56-.61.56-.28,0-.45-.11-.6-.37-.26-.46-.58-.67-1.03-.67-.72,0-1.17.6-1.17,1.61s.44,1.62,1.16,1.62c.5,0,.81-.24,1.03-.62.19-.3.35-.42.65-.42.33,0,.6.22.6.57,0,.11-.03.23-.09.37-.31.71-1.21,1.21-2.21,1.21-1.58,0-2.58-1.04-2.58-2.73Z"/><path class="cls-1" d="m356.45,595.79v-5.78c0-.46.26-.73.7-.73s.7.27.7.73v2.12h.03c.28-.66.85-1.03,1.65-1.03,1.16,0,1.83.75,1.83,1.96v2.73c0,.49-.29.74-.71.74s-.71-.25-.71-.74v-2.43c0-.67-.33-1.08-.98-1.08s-1.07.47-1.07,1.16v2.35c0,.49-.29.74-.71.74s-.71-.25-.71-.74Z"/></g></svg>