<?xml version="1.0" encoding="UTF-8"?><svg xmlns="http://www.w3.org/2000/svg" viewBox="0 0 972.67 1012.58"><defs><style>.cls-1{fill:#fff;}.cls-2{fill:#b0adb0;}.cls-3{fill:#575548;}.cls-4{fill:#d32027;}.cls-5{fill:#33353b;}.cls-6{fill:#656569;}.cls-7{fill:none;stroke:#b0adb0;stroke-miterlimit:10;}.cls-8{fill:#79c143;}</style></defs><g id="Body_Merge"><path class="cls-5" d="m15.35,604.47h32.03v32.01H15.37v96h63.98v-4h32.02v12h5.87l18.13,17.95v6.05h12.01v31.99h-36.01v34c2.11,23.5,27.95,30,27.95,30h187.04l9.02,9.09v116.92h92.88l43.01,9.19,30.07,10.85,33.98,2.97,12.13-10.99h23.87l32.02-6.78,3.03-7.08,3.13-6.07,4.85-4.96,2.12-1.11,27-24.98,11.88-28.06v-106.98h-32.01v-48.02h229c22.84-5.49,27-29,27-29v-50.99h-24.02v-16.01h104.02v-95.97h-32.01v-64.02h32.01v-63.93h-40.01v-32.07h29.02v-79.99h-149v32.01h-32v-80.01h-56.22s-1.77,0-1.77,0l-6.01,6.01-11-10.96,11-11.07v-32l-19-18.99h-27.9v2.98h-129.09V10.48h-144v82.96l-128,127.06h0v63.97h32.01v64.02h-128.01v119.31h0v40.67h-32.01v-18.96l-12.99-13.04h-61.87s-37.13,0-37.13,0v128Zm63.99,58.94v-122.94h30.57s145.44,0,145.44,0h4.96c8.29,3.71,11.07,10.85,11.07,10.85v10.11c-4.2,9.1-11.07,11.03-11.07,11.03H111.36v100.02h-32.01v-9.08Zm176.02-250.94v36h79.99v-4h64.01v32.02h-16v95.98h56.96l23.04,23.24v10.01s0,0,0,0v30.74h8v32h-8v32h-144.01v-228.01h-64v3.99h-32.01v-63.99h32.01Zm208,64.03v55.98h-32v-24.01h15.99v-96h-15.99v-24h32v88.03Zm-260,319.97v-31.99h4v-64.02h16v-63.99h32v24h16.03v16.04h-16.04v55.95l32,32h72.01v32.01h-20.17v-.02h-135.84Zm387.99,80.07h-32v-32.06h-127.93v32.06h-32.06v-128.07h159.98v-16h32v144.07Zm64-144.06v-64h-136v-32h72v-54h-1.97v-10h98.93l31.05,30.98v129.02h-64.01Zm152.02-48h-56.02v-166h16.01v149.99h40v16.01Zm23.99-80v-64.01h8.01v16h47.99v-16h8.01v64.01h-64.01Zm-31.99-192.01h72v32.07h-41.97v16.94l4.96,15.98-28.87,13.96-7.08-14.94h-62.06v.02h-96.96v63.98h-47.98v-96h-65.02v-32h128.98v-97.02l10.93-9.98,11.07,10.99-5.99,6.01v89.99h128Zm-464-159.98v-31.98l47.16-48.03h62.83v-10.97h18v99.95h0v23.02h127.98v64.01h-196.99l-27,30.01v33.99h-32.01v-159.98Z"/></g><g id="Bombsite"><rect class="cls-3" x="799.36" y="524.5" width="64" height="87.14" transform="translate(1662.72 1136.14) rotate(180)"/><rect class="cls-3" x="799.36" y="572.46" width="160.03" height="64.01" transform="translate(1758.75 1208.93) rotate(180)"/><rect class="cls-3" x="111.37" y="640.52" width="64.62" height="59.96" transform="translate(287.35 1340.99) rotate(180)"/><rect class="cls-3" x="111.37" y="571.75" width="111.98" height="120.84" transform="translate(334.72 1264.35) rotate(180)"/><rect class="cls-5" x="831.8" y="557.27" width="63.13" height="46.74" transform="translate(1726.72 1161.28) rotate(180)"/><rect class="cls-5" x="816.03" y="557.02" width="17.43" height="15.95" transform="translate(1649.49 1130) rotate(180)"/><rect class="cls-5" x="807.66" y="565" width="8.38" height="7.97" transform="translate(1623.69 1137.97) rotate(180)"/><rect class="cls-5" x="146.5" y="595.5" width="15.1" height="37.61" transform="translate(-195.31 1142.56) rotate(-132.44)"/><rect class="cls-5" x="832.18" y="541.37" width="6.42" height="31.61" transform="translate(1670.78 1114.34) rotate(180)"/><rect class="cls-5" x="888.28" y="541.31" width="6.24" height="31.66" transform="translate(1782.81 1114.29) rotate(180)"/></g><g id="Lines"><path class="cls-2" d="m162.76,596.8l9.5,10.39-27.1,24.79-9.5-10.39,27.1-24.79m.06-1.41l-28.58,26.14,10.85,11.87,28.58-26.14-10.85-11.87h0Z"/><path class="cls-2" d="m246.35,572.45v15.02h-14.01v-15.02h14.01m1-1h-16.01v17.02h16.01v-17.02h0Z"/><path class="cls-2" d="m223.4,693.44v7.05s-15.01,0-15.01,0h-1s0,1,0,1v5.99h-30.95v-14.03h46.97m1-1h-48.97v16.03h32.94v-6.99s16.02,0,16.02,0v-9.05h0Z"/><polyline class="cls-7" points="258.87 540.97 272.15 527.69 283.95 539.5 270.87 552.57"/><path class="cls-2" d="m30.38,589.49v15.01h-15.05v-15.01h15.05m1-1H14.33v17.01h17.05v-17.01h0Z"/><path class="cls-2" d="m22.34,581.5v6.98h-7.02v-6.98h7.02m1-1h-9.02v8.98h9.02v-8.98h0Z"/><path class="cls-2" d="m246.35,397.51v14.99h-14.04v-14.99h14.04m1-1h-16.04v16.99h16.04v-16.99h0Z"/><path class="cls-2" d="m542.37,220.44v15.04h-14v-15.04h14m1-1h-16v17.04h16v-17.04h0Z"/><path class="cls-2" d="m582.36,364.47v7h-13.99v-7h13.99m1-1h-15.99v9h15.99v-9h0Z"/><path class="cls-2" d="m590.35,348.45v15.01h-29.97v-15.01h29.97m1-1h-31.97v17.01h31.97v-17.01h0Z"/><path class="cls-2" d="m700.49,505.51c1.02,0,1.86.83,1.86,1.86v34.18c0,1.02-.83,1.86-1.86,1.86h-10.21c-1.02,0-1.86-.83-1.86-1.86v-34.18c0-1.02.83-1.86,1.86-1.86h10.21m0-1h-10.21c-1.58,0-2.86,1.28-2.86,2.86v34.18c0,1.58,1.28,2.86,2.86,2.86h10.21c1.58,0,2.86-1.28,2.86-2.86v-34.18c0-1.58-1.28-2.86-2.86-2.86h0Z"/><path class="cls-2" d="m722.48,343.51c1.02,0,1.86.83,1.86,1.86v38.26c0,1.02-.83,1.86-1.86,1.86h-10.21c-1.02,0-1.86-.83-1.86-1.86v-38.26c0-1.02.83-1.86,1.86-1.86h10.21m0-1h-10.21c-1.58,0-2.86,1.28-2.86,2.86v38.26c0,1.58,1.28,2.86,2.86,2.86h10.21c1.58,0,2.86-1.28,2.86-2.86v-38.26c0-1.58-1.28-2.86-2.86-2.86h0Z"/><path class="cls-2" d="m870.36,397.47v15.02h-14v-15.02h14m1-1h-16v17.02h16v-17.02h0Z"/><path class="cls-2" d="m831.36,557.53v14.94h-14.97v-14.94h14.97m1-1h-16.97v16.94h16.97v-16.94h0Z"/><path class="cls-2" d="m815.39,565.49v6.98h-7.03v-6.98h7.03m1-1h-9.03v8.98h9.03v-8.98h0Z"/><path class="cls-2" d="m782.4,613.46v14.06h-15.06v-14.06h15.06m1-1h-17.06v16.06h17.06v-16.06h0Z"/><path class="cls-2" d="m783.34,700.5v6.97h-6.97v-6.97h6.97m1-1h-8.97v8.97h8.97v-8.97h0Z"/><path class="cls-2" d="m798.35,684.46v15.02h-36v-15.02h36m1-1h-38v17.02h38v-17.02h0Z"/><path class="cls-2" d="m590.34,701.52v30.98h-13.97v-30.98h13.97m1-1h-15.97v32.98h15.97v-32.98h0Z"/><path class="cls-2" d="m334.36,700.47v14.99h-14v-14.99h14m1-1h-16v16.99h16v-16.99h0Z"/><path class="cls-2" d="m222.35,796.45v23.03h-14v-23.03h14m1-1h-16v25.03h16v-25.03h0Z"/><polyline class="cls-7" points="323.63 861.17 335.31 849.49 346.38 860.56 334.91 872.03"/><path class="cls-2" d="m478.34,421.47v14h-15.01v-14h15.01m1-1h-17.01v16h17.01v-16h0Z"/><path class="cls-2" d="m591.39,621.56v14.94h-62.96v-14.94h62.96m1-1h-64.96v16.94h64.96v-16.94h0Z"/><path class="cls-2" d="m535.95,519.2l9.49,9.49-21.73,21.73-9.49-9.49,21.73-21.73m0-1.41l-23.14,23.14,10.9,10.9,23.14-23.14-10.9-10.9h0Z"/><path class="cls-2" d="m529.87,525.28l9.49,9.49-9.5,9.5-9.49-9.49,9.5-9.5m0-1.41l-10.91,10.91,10.9,10.9,10.91-10.91-10.9-10.9h0Z"/><rect class="cls-2" x="399.36" y="732.48" width="160.14" height=".99" transform="translate(958.86 1465.95) rotate(180)"/><rect class="cls-2" x="510.36" y="730.48" width="1" height="2.7" transform="translate(1021.73 1463.66) rotate(180)"/><rect class="cls-2" x="479.36" y="730.48" width="31.5" height=".99" transform="translate(990.23 1461.94) rotate(180)"/><rect class="cls-2" x="479.36" y="730.97" width=".99" height="2" transform="translate(959.71 1463.95) rotate(180)"/><rect class="cls-2" x="766.95" y="572.47" width="40.7" height="1" transform="translate(1574.61 1145.94) rotate(180)"/><rect class="cls-2" x="440.17" y="572.49" width="23.19" height=".98" transform="translate(903.54 1145.97) rotate(180)"/><rect class="cls-2" x="303.36" y="604.47" width="16.13" height=".99" transform="translate(622.85 1209.94) rotate(180)"/><rect class="cls-2" x="303.36" y="604.97" width=".99" height="64.5" transform="translate(607.71 1274.44) rotate(180)"/><rect class="cls-2" x="271.25" y="668.47" width="32.61" height=".99" transform="translate(575.1 1337.94) rotate(180)"/><polyline class="cls-7" points="141.88 764.87 141.88 755.49 119.84 733.98 110.93 733.98"/><polyline class="cls-7" points="503.86 9.37 503.86 15.98 521.04 15.98"/><path class="cls-2" d="m487.36,10.37v5.11h-14.04v-5.11h14.04m1-1h-16.04v7.11h16.04v-7.11h0Z"/><rect class="cls-2" x="487.99" y="14.48" width="15.78" height="1" transform="translate(991.75 29.95) rotate(180)"/><path class="cls-2" d="m437.36,10.44v5.03h-14.01v-5.03h14.01m1-1h-16.01v7.03h16.01v-7.03h0Z"/><polyline class="cls-7" points="406.85 9.91 406.85 15.96 389.7 15.96"/><rect class="cls-2" x="406.97" y="14.48" width="15.9" height=".99" transform="translate(829.83 29.95) rotate(180)"/><path class="cls-7" d="m527.75,17.87s-9.03,1.52-8.9-7.83"/><path class="cls-7" d="m382.85,18s9.07,1.21,9.07-7.82"/><rect class="cls-2" x="767.23" y="573.4" width="49.16" height="1.07" transform="translate(1583.62 1147.88) rotate(180)"/><rect class="cls-2" x="863.36" y="636.47" width="96.23" height="1" transform="translate(1822.96 1273.95) rotate(180)"/><path class="cls-2" d="m918.36,653.47v15.04h-14v-15.04h14m1-1h-16v17.04h16v-17.04h0Z"/><path class="cls-2" d="m798.35,700.47v14.99h-13.99v-14.99h13.99m1-1h-15.99v16.99h15.99v-16.99h0Z"/><path class="cls-2" d="m902.36,332.45v15.02h-14v-15.02h14m1-1h-16v17.02h16v-17.02h0Z"/><path class="cls-2" d="m566.36,444.45v15.01h-14v-15.01h14m1-1h-16v17.01h16v-17.01h0Z"/></g><g id="Outlines"><path class="cls-6" d="m527.37,10.48v209.99h129.09v-2.98h27.9l19,18.99v32l-11,11.07,11,10.96,6.01-6.01h1.77s0,0,0,0h56.22v80.01h32v-32.01h149v79.99h-29.02v32.07h40.01v63.93h-32.01v64.02h32.01v95.97h-104.02v16.01h24.02v50.99s-4.16,23.51-27,29h-229v48.02h32.01v106.98l-11.88,28.06-27,24.98-2.12,1.11-4.85,4.96-3.13,6.07-3.03,7.08-32.02,6.78h-23.87l-12.13,10.99-33.98-2.97-30.07-10.85-43.01-9.19h-92.88v-116.92l-9.02-9.09h-187.04s-25.84-6.49-27.95-30v-34h36.01v-31.99h-12.01v-6.05l-18.13-17.95h-5.87v-12h-32.02v4H15.36v-96h32.02v-32.01H15.35v-128h37.13s49.89,0,49.89,0h11.98l13,13.04v18.96h32.01v-40.67h0v-119.31h128.01v-64.02h-32.01v-63.97l128-127.06V10.48h144m-192.01,401.99h32.01v-33.99l27-30.01h196.99v-64.01h-127.98v-23.02h0v-99.95h-18v10.97h-62.83l-47.16,48.03v191.97m191.02,32h65.02v96h47.98v-63.98h96.96v-.02h62.06l7.08,14.94,28.87-13.96-4.96-15.98v-16.94h41.97v-32.07h-200v-89.99l5.99-6.01-11.07-10.99-10.93,9.98v97.02h-128.98v32m-95.02-32h15.99v96h-15.99v24.01h32v-144.01h-32v24m-208.01,63.99h32.01v-3.99h64v228.01h144.01v-32h8v-32h-8v-30.74h0s0-10.01,0-10.01l-23.04-23.24h-56.96v-95.98h16v-32.02h-64.01v4h-79.99v-36h-32.01v63.99m527.99,208.02h56.02v-16.01h-40v-149.99h-16.01v166m-672-11.99h32.01v-100.02h148.96s6.88-1.93,11.07-11.03v-10.11s-2.78-7.14-11.07-10.85H109.92s-30.57,0-30.57,0v132.02m760.02-116.02v-16h-8.01v64.01h64.01v-64.01h-8.01v16h-47.99m-249.99,26.01h1.97v54h-72v32h136v64h64.01v-129.02l-31.05-30.98h-98.93v10m-386.02,213.99h135.84v.02h20.17v-32.01h-72.01l-32-32v-55.95h16.04v-16.04h-16.03v-24h-32v63.99h-16v64.02h-4v31.99m196.01,80.07h32.06v-32.06h127.93v32.06h32v-144.07h-32v16h-159.98v128.07M528.42,9.43h-146.1v83.57l-127.69,126.75-.31.31v65.45h32.01v61.92h-128.01v120.36s0,39.62,0,39.62h-29.91v-18.34l-.31-.31-12.99-13.04-.31-.31h-63.36s-36.08,0-36.08,0h-1.05v130.1h32.03v29.91H14.32v98.1h66.08v-4h29.92v12h6.48l17.51,17.34v6.66h12.01v29.89h-36.01v35.15c.9,9.93,6.16,18.44,15.23,24.59,6.8,4.61,13.25,6.27,13.52,6.34l.13.03h186.74l8.4,8.47v117.53h93.82l42.83,9.15,30,10.83.13.05h.14s33.98,2.98,33.98,2.98l.46.04.34-.31,11.83-10.72h23.57l.11-.02,32.02-6.78.53-.11.21-.5,3.02-7.04,3.05-5.89,4.63-4.72,1.98-1.04.12-.06.1-.09,27-24.98.17-.15.09-.21,11.88-28.06.08-.2v-108.24h-32.01v-45.92h228.07l.12-.03c23.24-5.58,27.74-29.59,27.79-29.84l.02-.09v-52.14h-24.02v-13.91h104.02v-98.07h-32.01v-61.92h32.01v-66.03h-40.01v-29.97h29.02v-82.09h-151.1v32.01h-29.9v-80.01h-56.29s-1-.01-1-.01h-1.77s-.43.02-.43.02l-.3.3-5.27,5.27-9.52-9.48,10.26-10.33.31-.31v-32.87l-.31-.31-19-18.99-.31-.31h-29.38v2.98h-126.99V9.43h0Zm-82.01,153.12h15.9v99.95h0v23.02h127.98v61.91h-196.4l-.31.35-27,30.01-.27.3v33.34h-29.91v-190.49l46.55-47.41h63.44v-10.97h0Zm210,153.37l9.85-9,9.62,9.55-5.25,5.26-.31.31v91.48h200v29.97h-41.97v18.15l.05.15,4.69,15.11-27.1,13.1-6.63-13.98-.28-.6h-63.77v.02h-96.96v63.98h-45.88v-96h-65.02v-29.9h128.98v-97.6h0Zm-224,73.6h29.9v141.91h-29.9v-21.91h15.99v-98.1h-15.99v-21.9h0Zm-208.01,24h29.91v36h82.09v-4h61.91v29.92h-16v98.08h57.57l22.43,22.62v9.58s-.01,1-.01,1h.01v30.8h8v29.9h-8v32h-141.91v-228.01h-66.1v3.99h-29.91v-61.89h0Zm527.99,106.01h13.91v149.99h40v13.91h-53.92v-163.9h0Zm-672,21.99h29.52s145.44,0,145.44,0h4.73c6.94,3.19,9.78,8.96,10.25,10.02v9.66c-3.63,7.69-9.29,9.9-10.19,10.21H110.31v100.02h-29.91v-129.92h0Zm808.01,0h5.91v61.91h-61.91v-61.91h5.91v16h50.09v-16h0Zm-297.97,32.01h97.45l30.44,30.36v127.54h-61.91v-64h-136v-29.9h72v-56.1h-1.97v-7.9h0Zm-366.02,63.99h29.9v24h16.03v13.94h-16.04v57.44l.31.31,32,32,.31.31h71.4v29.91h-18.07l-1.05-.02h-134.79v-29.89h4v-64.01h16v-63.99h0Zm335.99,96h29.9v141.97h-29.9v-32.06h-130.03v32.06h-29.96v-125.97h159.98v-16h0Z"/></g><g id="Callouts_copy"><path class="cls-4" d="m411.38,73.78c0-.16.04-.37.13-.61l2.5-6.81c.27-.74.72-1.09,1.44-1.09s1.19.33,1.47,1.08l2.51,6.82c.09.25.12.42.12.61,0,.53-.4.9-.96.9s-.83-.25-1-.84l-.48-1.45h-3.31l-.48,1.43c-.18.61-.46.86-.97.86-.6,0-.97-.35-.97-.9Zm5.29-2.88l-1.21-3.75h-.04l-1.19,3.75h2.44Z"/><path class="cls-4" d="m420.6,69.16h-.36c-.44,0-.72-.27-.72-.7s.28-.7.72-.7h.36v-.76c0-.6.35-.96.93-.96s.93.37.93.96v.76h.65c.44,0,.71.27.71.7s-.27.7-.71.7h-.65v3.26c0,.48.17.69.56.72h.12c.46.06.7.25.7.69,0,.55-.53.83-1.31.83h-.06c-1.24,0-1.87-.62-1.87-1.82v-3.67Z"/><path class="cls-4" d="m425.22,69.16h-.36c-.44,0-.72-.27-.72-.7s.28-.7.72-.7h.36v-.76c0-.6.35-.96.93-.96s.93.37.93.96v.76h.65c.44,0,.71.27.71.7s-.27.7-.71.7h-.65v3.26c0,.48.17.69.56.72h.12c.46.06.7.25.7.69,0,.55-.53.83-1.31.83h-.06c-1.24,0-1.87-.62-1.87-1.82v-3.67Z"/><path class="cls-4" d="m429.02,72.61c0-1.24.95-1.96,2.65-2.06l1.71-.1v-.45c0-.63-.44-1-1.14-1-.56,0-.91.18-1.32.72-.2.23-.44.34-.74.34-.45,0-.77-.29-.77-.71,0-.15.03-.28.1-.42.32-.81,1.41-1.31,2.82-1.31,1.75,0,2.88.9,2.88,2.27v3.88c0,.62-.37.93-.9.93s-.85-.28-.89-.83v-.35h-.04c-.38.72-1.23,1.15-2.08,1.15-1.29,0-2.28-.84-2.28-2.06Zm4.37-.54v-.5l-1.43.09c-.69.05-1.09.36-1.09.84,0,.51.42.83,1.04.83.81,0,1.48-.53,1.48-1.26Z"/><path class="cls-4" d="m436.15,71.16c0-2.18,1.29-3.55,3.34-3.55,1.36,0,2.5.66,2.87,1.62.06.16.1.32.1.46,0,.46-.36.72-.79.72-.37,0-.59-.15-.78-.48-.34-.6-.75-.87-1.34-.87-.94,0-1.52.77-1.52,2.09s.58,2.1,1.5,2.1c.65,0,1.05-.32,1.33-.8.25-.39.45-.55.84-.55.43,0,.78.29.78.74,0,.15-.04.3-.12.48-.41.93-1.57,1.57-2.87,1.57-2.05,0-3.35-1.35-3.35-3.55Z"/><path class="cls-4" d="m443.53,73.73v-7.5c0-.63.39-.97.93-.97s.93.34.93.97v4.22h.03l2.46-2.47c.25-.26.46-.37.74-.37.48,0,.83.35.83.81,0,.28-.08.45-.35.7l-1.73,1.64,1.9,2.42c.2.27.26.44.26.68,0,.5-.36.84-.88.84-.39,0-.62-.14-.91-.58l-1.75-2.31-.59.55v1.38c0,.63-.38.96-.93.96s-.93-.33-.93-.96Z"/><path class="cls-4" d="m449.91,71.19c0-2.19,1.28-3.58,3.29-3.58s3.22,1.32,3.22,3.17c0,.51-.29.81-.81.81h-3.88v.08c0,1.01.61,1.67,1.55,1.67.68,0,1.12-.23,1.62-.82.2-.2.36-.27.6-.27.4,0,.72.25.72.68,0,.15-.04.3-.13.45-.45.84-1.5,1.33-2.82,1.33-2.13,0-3.38-1.31-3.38-3.52Zm4.73-.74c-.04-.89-.61-1.47-1.42-1.47s-1.4.6-1.47,1.47h2.89Z"/><path class="cls-4" d="m457.38,73.73v-5.18c0-.59.36-.93.9-.93s.88.34.88.93v.44h.04c.18-.84.74-1.35,1.42-1.35.25,0,.44.06.58.17.18.14.27.37.27.69,0,.29-.09.51-.27.67s-.44.23-.81.24c-.84.01-1.14.49-1.14,1.29v3.02c0,.62-.36.96-.93.96s-.93-.35-.93-.96Z"/><path class="cls-4" d="m464.72,72.96c-.06-.17-.1-.34-.1-.51,0-.51.35-.84.84-.84.39,0,.65.15.88.56.3.7,1.02,1.02,1.89,1.02,1.03,0,1.73-.5,1.73-1.17,0-.6-.43-.95-1.58-1.18l-.97-.19c-1.83-.36-2.72-1.24-2.72-2.6,0-1.68,1.46-2.79,3.5-2.79,1.68,0,2.94.7,3.35,1.9.04.13.07.26.07.43,0,.46-.33.77-.82.77-.43,0-.7-.17-.91-.56-.3-.69-.9-.98-1.68-.98-.95,0-1.57.44-1.57,1.12,0,.56.44.91,1.52,1.13l.96.2c1.94.39,2.78,1.17,2.78,2.56,0,1.79-1.4,2.92-3.69,2.92-1.89,0-3.1-.76-3.47-1.76Z"/><path class="cls-4" d="m472.89,76.02v-7.45c0-.62.38-.95.91-.95s.91.33.91.96v.37h.04c.37-.8,1.12-1.29,2.11-1.29,1.73,0,2.79,1.31,2.79,3.51s-1.05,3.51-2.75,3.51c-.99,0-1.75-.48-2.11-1.25h-.04v2.6c0,.63-.38.96-.93.96s-.93-.33-.93-.96Zm4.86-4.86c0-1.23-.58-2.02-1.51-2.02s-1.5.81-1.5,2.02.6,2.02,1.5,2.02,1.51-.78,1.51-2.02Z"/><path class="cls-4" d="m480.33,72.61c0-1.24.95-1.96,2.65-2.06l1.71-.1v-.45c0-.63-.44-1-1.14-1-.56,0-.91.18-1.32.72-.2.23-.44.34-.74.34-.45,0-.77-.29-.77-.71,0-.15.03-.28.1-.42.32-.81,1.41-1.31,2.82-1.31,1.75,0,2.88.9,2.88,2.27v3.88c0,.62-.38.93-.9.93s-.85-.28-.89-.83v-.35h-.04c-.38.72-1.23,1.15-2.08,1.15-1.29,0-2.28-.84-2.28-2.06Zm4.37-.54v-.5l-1.43.09c-.69.05-1.08.36-1.08.84,0,.51.42.83,1.04.83.81,0,1.48-.53,1.48-1.26Z"/><path class="cls-4" d="m488.79,73.73l-1.37-4.74c-.07-.24-.1-.39-.1-.57,0-.46.37-.79.89-.79.46,0,.76.28.87.79l1.01,4.4h.04l1.05-4.34c.12-.55.48-.85,1.05-.85s.91.3,1.03.85l1.06,4.34h.04l1.02-4.41c.1-.5.4-.77.86-.77.51,0,.88.32.88.79,0,.17-.03.32-.1.56l-1.37,4.75c-.19.67-.55.98-1.19.98-.68,0-1.04-.29-1.2-.98l-1.03-3.96h-.04l-1.03,3.97c-.16.67-.53.97-1.19.97s-.98-.3-1.17-.97Z"/><path class="cls-4" d="m497.95,73.73v-5.18c0-.58.34-.93.9-.93s.93.36.93.94v.38h.04c.36-.84,1.05-1.31,2.09-1.31,1.51,0,2.36.95,2.36,2.55v3.55c0,.63-.39.96-.93.96s-.93-.33-.93-.96v-3.17c0-.89-.42-1.4-1.25-1.4s-1.36.61-1.36,1.49v3.07c0,.63-.38.96-.93.96s-.93-.33-.93-.96Z"/><path class="cls-1" d="m268.05,830.82c0-.12.03-.29.1-.47l1.92-5.24c.21-.57.55-.83,1.11-.83s.92.25,1.13.83l1.93,5.24c.07.19.09.32.09.47,0,.41-.31.69-.74.69s-.63-.19-.77-.65l-.37-1.11h-2.54l-.37,1.1c-.14.47-.36.66-.75.66-.46,0-.75-.27-.75-.69Zm4.07-2.21l-.93-2.89h-.03l-.91,2.89h1.88Z"/><path class="cls-1" d="m275.14,830.78v-5.77c0-.49.3-.75.71-.75s.71.26.71.75v5.77c0,.49-.29.74-.71.74s-.71-.25-.71-.74Z"/><path class="cls-1" d="m277.56,830.78v-5.77c0-.49.3-.75.71-.75s.71.26.71.75v5.77c0,.49-.29.74-.71.74s-.71-.25-.71-.74Z"/><path class="cls-1" d="m279.76,828.83c0-1.68.98-2.75,2.53-2.75s2.48,1.02,2.48,2.44c0,.4-.22.62-.62.62h-2.99v.06c0,.78.47,1.28,1.19,1.28.52,0,.86-.18,1.25-.63.15-.16.28-.21.46-.21.31,0,.56.2.56.52,0,.11-.03.23-.1.35-.35.64-1.16,1.03-2.17,1.03-1.64,0-2.6-1.01-2.6-2.71Zm3.64-.57c-.03-.68-.47-1.13-1.09-1.13s-1.08.46-1.13,1.13h2.22Z"/><path class="cls-1" d="m285.35,832.69c0-.29.2-.47.52-.47.1,0,.15,0,.25,0,.25,0,.52-.11.69-.47l.07-.19-1.67-4.4c-.05-.15-.08-.3-.08-.42,0-.39.32-.66.74-.66.38,0,.57.16.69.58l1.14,3.62h.02l1.14-3.63c.12-.4.32-.57.69-.57.41,0,.69.27.69.64,0,.12-.03.28-.08.42l-1.61,4.37c-.49,1.35-1.09,1.85-2.24,1.85-.62,0-.96-.24-.96-.67Z"/><path class="cls-1" d="m617.73,265.55v-5.51c0-.48.27-.77.74-.77h2.33c1.32,0,2.15.68,2.15,1.76,0,.77-.58,1.42-1.32,1.53v.04c.96.07,1.66.77,1.66,1.7,0,1.24-.93,2.02-2.44,2.02h-2.38c-.46,0-.74-.28-.74-.77Zm2.53-3.34c.79,0,1.24-.35,1.24-.94s-.4-.89-1.08-.89h-1.21v1.83h1.06Zm.21,3.02c.85,0,1.31-.36,1.31-1.04s-.47-1.01-1.34-1.01h-1.24v2.05h1.27Z"/><path class="cls-1" d="m626.11,265.55v-5.6c0-.49.27-.77.74-.77s.74.28.74.77v5.15h2.5c.4,0,.67.23.67.61s-.26.61-.67.61h-3.24c-.46,0-.74-.28-.74-.77Z"/><path class="cls-1" d="m631.15,263.7c0-1.69,1.03-2.72,2.59-2.72s2.59,1.03,2.59,2.72-1.01,2.73-2.59,2.73-2.59-1.02-2.59-2.73Zm3.74,0c0-1.04-.45-1.64-1.14-1.64s-1.15.6-1.15,1.64.44,1.64,1.15,1.64,1.14-.59,1.14-1.64Z"/><path class="cls-1" d="m637.1,265.7v-5.79c0-.49.3-.75.71-.75s.71.26.71.75v2.08h.03c.29-.62.87-.99,1.62-.99,1.32,0,2.13,1.01,2.13,2.7s-.8,2.7-2.12,2.7c-.77,0-1.35-.37-1.64-.98h-.03v.28c0,.47-.29.72-.71.72s-.7-.24-.7-.72Zm3.74-2c0-.95-.44-1.56-1.15-1.56s-1.17.62-1.17,1.56.47,1.55,1.17,1.55,1.15-.6,1.15-1.55Z"/><path class="cls-1" d="m643.08,265.7v-5.79c0-.49.3-.75.71-.75s.71.26.71.75v2.08h.03c.29-.62.87-.99,1.62-.99,1.32,0,2.13,1.01,2.13,2.7s-.8,2.7-2.12,2.7c-.77,0-1.35-.37-1.64-.98h-.03v.28c0,.47-.29.72-.71.72s-.7-.24-.7-.72Zm3.74-2c0-.95-.44-1.56-1.15-1.56s-1.17.62-1.17,1.56.47,1.55,1.17,1.55,1.15-.6,1.15-1.55Z"/><path class="cls-1" d="m648.82,267.59c0-.29.2-.47.52-.47.1,0,.15,0,.25,0,.25,0,.52-.11.69-.47l.07-.19-1.67-4.4c-.05-.15-.08-.3-.08-.42,0-.39.32-.66.74-.66.38,0,.57.16.69.58l1.14,3.62h.02l1.14-3.63c.12-.4.32-.57.69-.57.41,0,.69.27.69.64,0,.12-.03.28-.08.42l-1.61,4.37c-.49,1.35-1.09,1.85-2.24,1.85-.62,0-.96-.24-.96-.67Z"/><path class="cls-1" d="m515.63,577.37v-5.6c0-.6.35-.95.95-.95.51,0,.8.21,1.01.76l1.75,4.33h.04l1.74-4.33c.21-.54.5-.76,1.02-.76.6,0,.95.35.95.95v5.6c0,.43-.24.69-.66.69s-.65-.25-.65-.69v-4.16h-.04l-1.74,4.26c-.13.31-.32.45-.63.45s-.52-.14-.64-.44l-1.74-4.27h-.04v4.16c0,.43-.24.69-.65.69s-.66-.25-.66-.69Z"/><path class="cls-1" d="m524.11,571.35c0-.42.33-.74.76-.74s.76.32.76.74-.33.74-.76.74-.76-.33-.76-.74Zm.05,5.98v-3.96c0-.46.27-.75.71-.75s.71.28.71.75v3.96c0,.46-.27.74-.71.74s-.71-.28-.71-.74Z"/><path class="cls-1" d="m526.34,575.34c0-1.66.83-2.69,2.14-2.69.76,0,1.34.4,1.6.98h.03v-2.07c0-.49.3-.75.71-.75s.71.26.71.75v5.79c0,.47-.29.72-.71.72s-.72-.24-.72-.72v-.3h-.02c-.23.59-.81,1.01-1.61,1.01-1.31,0-2.13-1.04-2.13-2.71Zm3.78,0c0-.95-.45-1.56-1.16-1.56s-1.16.6-1.16,1.56.44,1.55,1.16,1.55,1.16-.6,1.16-1.55Z"/><path class="cls-1" d="m417.1,470.25v-5.15h-1.46c-.4,0-.67-.23-.67-.61s.26-.61.67-.61h4.39c.4,0,.66.23.66.61s-.27.61-.66.61h-1.46v5.15c0,.48-.27.77-.74.77s-.74-.28-.74-.77Z"/><path class="cls-1" d="m421.07,464.3c0-.42.33-.74.76-.74s.76.32.76.74-.33.74-.76.74-.76-.33-.76-.74Zm.05,5.98v-3.96c0-.46.27-.75.71-.75s.71.28.71.75v3.96c0,.46-.27.74-.71.74s-.71-.28-.71-.74Z"/><path class="cls-1" d="m423.53,470.28v-5.77c0-.49.3-.75.71-.75s.71.26.71.75v5.77c0,.49-.29.74-.71.74s-.71-.25-.71-.74Z"/><path class="cls-1" d="m425.72,468.33c0-1.68.98-2.75,2.53-2.75s2.48,1.02,2.48,2.44c0,.4-.22.62-.62.62h-2.99v.06c0,.78.47,1.28,1.19,1.28.52,0,.86-.18,1.25-.63.15-.16.28-.21.46-.21.31,0,.56.2.56.52,0,.11-.03.23-.1.35-.35.64-1.16,1.03-2.17,1.03-1.64,0-2.6-1.01-2.6-2.71Zm3.64-.57c-.03-.68-.47-1.13-1.09-1.13s-1.08.46-1.13,1.13h2.22Z"/><path class="cls-1" d="m431.35,469.99c-.03-.09-.05-.19-.05-.26,0-.33.24-.55.58-.55.23,0,.42.1.62.32.28.37.6.53,1.14.53s.85-.21.85-.56c0-.28-.18-.43-.69-.55l-.88-.19c-1.03-.22-1.54-.74-1.54-1.52,0-1,.86-1.65,2.22-1.65,1.08,0,1.88.49,2.05,1.08.02.07.03.14.03.21,0,.29-.18.49-.55.49-.19,0-.39-.07-.52-.22-.25-.32-.53-.56-1.04-.56-.48,0-.82.23-.82.57,0,.27.21.45.73.57l.86.19c1.11.23,1.57.64,1.57,1.43,0,1.04-.93,1.71-2.31,1.71-1.2,0-2-.43-2.25-1.04Z"/><path class="cls-1" d="m203.34,378.13c0-.12.03-.29.1-.47l1.92-5.24c.21-.57.55-.83,1.11-.83s.92.25,1.13.83l1.93,5.24c.07.19.09.32.09.47,0,.41-.31.69-.74.69s-.63-.19-.77-.65l-.37-1.11h-2.54l-.37,1.1c-.14.47-.36.66-.75.66-.46,0-.75-.27-.75-.69Zm4.07-2.21l-.93-2.89h-.03l-.91,2.89h1.88Z"/><path class="cls-1" d="m212.5,377.96v-5.6c0-.49.27-.77.74-.77s.74.28.74.77v5.15h2.5c.4,0,.67.23.67.61s-.26.61-.67.61h-3.24c-.46,0-.74-.28-.74-.77Z"/><path class="cls-1" d="m217.54,376.11c0-1.69,1.03-2.72,2.59-2.72s2.59,1.03,2.59,2.72-1.01,2.73-2.59,2.73-2.59-1.02-2.59-2.73Zm3.74,0c0-1.04-.45-1.64-1.14-1.64s-1.15.6-1.15,1.64.44,1.64,1.15,1.64,1.14-.59,1.14-1.64Z"/><path class="cls-1" d="m223.49,378.11v-5.79c0-.49.3-.75.71-.75s.71.26.71.75v2.08h.03c.29-.62.87-.99,1.62-.99,1.32,0,2.13,1.01,2.13,2.7s-.8,2.7-2.12,2.7c-.77,0-1.35-.37-1.64-.98h-.03v.28c0,.47-.29.72-.71.72s-.7-.24-.7-.72Zm3.74-2c0-.95-.44-1.56-1.15-1.56s-1.17.62-1.17,1.56.47,1.55,1.17,1.55,1.15-.6,1.15-1.55Z"/><path class="cls-1" d="m229.47,378.11v-5.79c0-.49.3-.75.71-.75s.71.26.71.75v2.08h.03c.29-.62.87-.99,1.62-.99,1.32,0,2.13,1.01,2.13,2.7s-.8,2.7-2.12,2.7c-.77,0-1.35-.37-1.64-.98h-.03v.28c0,.47-.29.72-.71.72s-.7-.24-.7-.72Zm3.74-2c0-.95-.44-1.56-1.15-1.56s-1.17.62-1.17,1.56.47,1.55,1.17,1.55,1.15-.6,1.15-1.55Z"/><path class="cls-1" d="m235.21,380c0-.29.2-.47.52-.47.1,0,.15,0,.25,0,.25,0,.52-.11.69-.47l.07-.19-1.67-4.4c-.05-.15-.08-.3-.08-.42,0-.39.32-.66.74-.66.38,0,.57.16.69.58l1.14,3.62h.02l1.14-3.63c.12-.4.32-.57.69-.57.41,0,.69.27.69.64,0,.12-.03.28-.08.42l-1.61,4.37c-.49,1.35-1.09,1.85-2.24,1.85-.62,0-.96-.24-.96-.67Z"/><path class="cls-8" d="m446.81,949.28v-7.16c0-.63.36-1,.96-1h2.54c2.75,0,4.37,1.64,4.37,4.54s-1.62,4.62-4.37,4.62h-2.54c-.6,0-.96-.37-.96-1Zm3.27-.58c1.71,0,2.64-1.04,2.64-3.02s-.95-2.97-2.64-2.97h-1.35v5.99h1.35Z"/><path class="cls-8" d="m455.5,946.91c0-2.19,1.28-3.58,3.29-3.58s3.22,1.32,3.22,3.17c0,.51-.29.81-.81.81h-3.88v.08c0,1.01.61,1.67,1.55,1.67.68,0,1.12-.23,1.62-.82.2-.2.36-.27.6-.27.4,0,.72.25.72.68,0,.15-.04.3-.13.45-.45.84-1.5,1.33-2.82,1.33-2.13,0-3.38-1.31-3.38-3.52Zm4.73-.74c-.04-.89-.61-1.47-1.42-1.47s-1.4.6-1.47,1.47h2.89Z"/><path class="cls-8" d="m463.46,949.45v-4.58h-.36c-.39,0-.68-.25-.68-.69s.29-.68.68-.68h.36v-.51c0-1.35.66-1.94,1.94-1.96.98,0,1.4.31,1.4.75,0,.26-.13.41-.37.49-.1.03-.22.04-.36.05-.57.02-.8.25-.8.75v.43h.78c.39,0,.68.25.68.68s-.29.69-.68.69h-.74v4.58c0,.64-.38.96-.93.96s-.93-.32-.93-.96Z"/><path class="cls-8" d="m467.16,946.91c0-2.19,1.28-3.58,3.29-3.58s3.22,1.32,3.22,3.17c0,.51-.29.81-.81.81h-3.88v.08c0,1.01.61,1.67,1.55,1.67.68,0,1.12-.23,1.62-.82.2-.2.36-.27.6-.27.4,0,.72.25.72.68,0,.15-.04.3-.13.45-.45.84-1.5,1.33-2.82,1.33-2.13,0-3.38-1.31-3.38-3.52Zm4.73-.74c-.04-.89-.61-1.47-1.42-1.47s-1.4.6-1.47,1.47h2.89Z"/><path class="cls-8" d="m474.62,949.45v-5.18c0-.58.34-.93.9-.93s.93.36.93.94v.38h.04c.36-.84,1.05-1.31,2.09-1.31,1.51,0,2.36.95,2.36,2.54v3.55c0,.63-.39.96-.93.96s-.93-.33-.93-.96v-3.17c0-.89-.42-1.4-1.25-1.4s-1.36.61-1.36,1.49v3.07c0,.63-.38.96-.93.96s-.93-.33-.93-.96Z"/><path class="cls-8" d="m481.86,946.87c0-2.16,1.08-3.5,2.79-3.5.98,0,1.75.52,2.08,1.28h.04v-2.69c0-.63.39-.97.93-.97s.93.34.93.97v7.52c0,.62-.38.94-.92.94s-.93-.32-.93-.94v-.39h-.03c-.3.76-1.05,1.31-2.09,1.31-1.7,0-2.77-1.35-2.77-3.52Zm4.91.01c0-1.24-.59-2.03-1.51-2.03s-1.5.78-1.5,2.03.57,2.02,1.5,2.02,1.51-.77,1.51-2.02Z"/><path class="cls-8" d="m489.61,946.91c0-2.19,1.28-3.58,3.29-3.58s3.22,1.32,3.22,3.17c0,.51-.29.81-.81.81h-3.88v.08c0,1.01.61,1.67,1.55,1.67.68,0,1.12-.23,1.62-.82.2-.2.36-.27.6-.27.4,0,.72.25.72.68,0,.15-.04.3-.13.45-.45.84-1.5,1.33-2.82,1.33-2.13,0-3.38-1.31-3.38-3.52Zm4.73-.74c-.04-.89-.61-1.47-1.42-1.47s-1.4.6-1.47,1.47h2.89Z"/><path class="cls-8" d="m497.07,949.45v-5.18c0-.59.36-.93.9-.93s.88.34.88.93v.44h.04c.18-.84.74-1.35,1.42-1.35.25,0,.44.06.58.17.18.14.27.37.27.69,0,.29-.09.51-.27.67s-.44.24-.81.24c-.84.01-1.14.49-1.14,1.29v3.02c0,.62-.36.96-.93.96s-.93-.35-.93-.96Z"/><path class="cls-8" d="m504.41,948.68c-.06-.17-.1-.34-.1-.51,0-.51.35-.84.84-.84.39,0,.65.15.88.56.3.7,1.02,1.02,1.89,1.02,1.03,0,1.73-.5,1.73-1.17,0-.6-.43-.95-1.58-1.18l-.97-.19c-1.83-.36-2.72-1.24-2.72-2.6,0-1.68,1.46-2.79,3.5-2.79,1.68,0,2.94.7,3.35,1.9.04.13.07.26.07.43,0,.46-.33.77-.82.77-.43,0-.7-.17-.91-.56-.3-.69-.9-.98-1.68-.98-.95,0-1.57.44-1.57,1.12,0,.56.44.91,1.52,1.13l.96.2c1.94.39,2.78,1.17,2.78,2.56,0,1.79-1.4,2.92-3.69,2.92-1.89,0-3.1-.76-3.47-1.76Z"/><path class="cls-8" d="m512.58,951.74v-7.45c0-.62.38-.95.91-.95s.91.33.91.96v.37h.04c.37-.8,1.12-1.29,2.11-1.29,1.73,0,2.79,1.31,2.79,3.51s-1.05,3.51-2.75,3.51c-.99,0-1.75-.48-2.11-1.25h-.04v2.6c0,.63-.38.96-.93.96s-.93-.33-.93-.96Zm4.86-4.86c0-1.23-.58-2.03-1.51-2.03s-1.5.81-1.5,2.03.6,2.02,1.5,2.02,1.51-.78,1.51-2.02Z"/><path class="cls-8" d="m520.02,948.33c0-1.24.95-1.96,2.65-2.06l1.71-.1v-.45c0-.63-.44-1-1.14-1-.56,0-.91.18-1.32.72-.2.23-.44.34-.74.34-.45,0-.77-.29-.77-.71,0-.15.03-.28.1-.42.32-.81,1.41-1.31,2.82-1.31,1.75,0,2.88.9,2.88,2.27v3.88c0,.62-.38.93-.9.93s-.85-.28-.89-.83v-.35h-.04c-.38.72-1.23,1.15-2.08,1.15-1.29,0-2.28-.84-2.28-2.06Zm4.37-.54v-.5l-1.43.09c-.69.05-1.08.36-1.08.84,0,.51.42.83,1.04.83.81,0,1.48-.53,1.48-1.26Z"/><path class="cls-8" d="m528.49,949.45l-1.37-4.74c-.07-.24-.1-.39-.1-.57,0-.46.37-.79.89-.79.46,0,.76.28.87.79l1.01,4.4h.04l1.05-4.33c.12-.55.48-.85,1.05-.85s.91.3,1.03.85l1.06,4.33h.04l1.02-4.41c.1-.5.4-.77.86-.77.51,0,.88.32.88.79,0,.17-.03.32-.1.56l-1.37,4.75c-.19.67-.55.98-1.19.98-.68,0-1.04-.29-1.2-.98l-1.03-3.96h-.04l-1.03,3.97c-.16.67-.53.97-1.19.97s-.98-.3-1.17-.97Z"/><path class="cls-8" d="m537.65,949.45v-5.18c0-.58.34-.93.9-.93s.93.36.93.94v.38h.04c.36-.84,1.05-1.31,2.09-1.31,1.51,0,2.36.95,2.36,2.54v3.55c0,.63-.39.96-.93.96s-.93-.33-.93-.96v-3.17c0-.89-.42-1.4-1.25-1.4s-1.36.61-1.36,1.49v3.07c0,.63-.38.96-.93.96s-.93-.33-.93-.96Z"/><path class="cls-1" d="m532.12,392.47v-5.51c0-.48.27-.77.74-.77h2.33c1.32,0,2.15.68,2.15,1.76,0,.77-.58,1.42-1.32,1.53v.04c.96.07,1.66.77,1.66,1.7,0,1.24-.93,2.02-2.44,2.02h-2.38c-.46,0-.74-.28-.74-.77Zm2.53-3.34c.79,0,1.24-.35,1.24-.94s-.4-.89-1.08-.89h-1.21v1.83h1.06Zm.21,3.02c.85,0,1.31-.36,1.31-1.04s-.47-1.01-1.34-1.01h-1.24v2.05h1.27Z"/><path class="cls-1" d="m538.21,390.62c0-1.69,1.03-2.72,2.59-2.72s2.59,1.03,2.59,2.72-1.01,2.73-2.59,2.73-2.59-1.02-2.59-2.73Zm3.74,0c0-1.04-.45-1.64-1.14-1.64s-1.15.6-1.15,1.64.44,1.64,1.15,1.64,1.14-.59,1.14-1.64Z"/><path class="cls-1" d="m544.51,389.08h-.27c-.34,0-.55-.21-.55-.54s.21-.54.55-.54h.27v-.58c0-.46.27-.74.71-.74s.71.28.71.74v.58h.5c.34,0,.55.21.55.54s-.21.54-.55.54h-.5v2.5c0,.37.13.53.43.55h.09c.35.05.54.2.54.53,0,.42-.41.63-1.01.63h-.05c-.95,0-1.44-.47-1.44-1.4v-2.82Z"/><path class="cls-1" d="m548.06,389.08h-.27c-.34,0-.55-.21-.55-.54s.21-.54.55-.54h.27v-.58c0-.46.27-.74.71-.74s.71.28.71.74v.58h.5c.34,0,.55.21.55.54s-.21.54-.55.54h-.5v2.5c0,.37.13.53.43.55h.09c.35.05.54.2.54.53,0,.42-.41.63-1.01.63h-.05c-.95,0-1.44-.47-1.44-1.4v-2.82Z"/><path class="cls-1" d="m550.97,390.62c0-1.69,1.03-2.72,2.59-2.72s2.59,1.03,2.59,2.72-1.01,2.73-2.59,2.73-2.59-1.02-2.59-2.73Zm3.74,0c0-1.04-.45-1.64-1.14-1.64s-1.15.6-1.15,1.64.44,1.64,1.15,1.64,1.14-.59,1.14-1.64Z"/><path class="cls-1" d="m556.89,392.6v-3.97c0-.48.28-.73.69-.73s.69.25.69.73v.33h.03c.22-.63.78-1.04,1.49-1.04.76,0,1.28.39,1.46,1.07h.03c.23-.66.86-1.07,1.63-1.07,1.03,0,1.71.7,1.71,1.76v2.93c0,.48-.29.74-.72.74s-.71-.26-.71-.74v-2.58c0-.61-.3-.94-.85-.94s-.9.4-.9.98v2.54c0,.48-.26.74-.69.74s-.68-.26-.68-.74v-2.62c0-.56-.32-.89-.84-.89s-.91.41-.91,1v2.52c0,.48-.29.74-.71.74s-.71-.26-.71-.74Z"/><path class="cls-1" d="m567.62,392.64v-5.6c0-.6.35-.95.95-.95.51,0,.8.21,1.01.76l1.75,4.33h.04l1.74-4.33c.21-.54.5-.76,1.02-.76.6,0,.95.35.95.95v5.6c0,.43-.24.69-.66.69s-.65-.25-.65-.69v-4.16h-.04l-1.74,4.26c-.13.31-.32.45-.63.45s-.52-.14-.64-.44l-1.74-4.27h-.04v4.16c0,.43-.24.69-.65.69s-.66-.25-.66-.69Z"/><path class="cls-1" d="m576.11,386.62c0-.42.33-.74.76-.74s.76.32.76.74-.33.74-.76.74-.76-.33-.76-.74Zm.05,5.98v-3.96c0-.46.27-.75.71-.75s.71.28.71.75v3.96c0,.46-.27.74-.71.74s-.71-.28-.71-.74Z"/><path class="cls-1" d="m578.34,390.61c0-1.66.83-2.69,2.14-2.69.76,0,1.34.4,1.6.98h.03v-2.07c0-.49.3-.75.71-.75s.71.26.71.75v5.79c0,.47-.29.72-.71.72s-.72-.24-.72-.72v-.3h-.02c-.23.59-.81,1.01-1.61,1.01-1.31,0-2.13-1.04-2.13-2.71Zm3.78,0c0-.95-.45-1.56-1.16-1.56s-1.16.6-1.16,1.56.44,1.55,1.16,1.55,1.16-.6,1.16-1.55Z"/><path class="cls-1" d="m786.96,390.47v-5.51c0-.48.27-.77.74-.77h2.33c1.32,0,2.15.68,2.15,1.76,0,.77-.58,1.42-1.32,1.53v.04c.96.07,1.66.77,1.66,1.7,0,1.24-.93,2.02-2.44,2.02h-2.38c-.46,0-.74-.28-.74-.77Zm2.53-3.34c.79,0,1.24-.35,1.24-.94s-.4-.89-1.08-.89h-1.21v1.83h1.06Zm.21,3.02c.85,0,1.31-.36,1.31-1.04s-.47-1.01-1.34-1.01h-1.24v2.05h1.27Z"/><path class="cls-1" d="m795.33,390.64v-5.6c0-.6.35-.95.95-.95.51,0,.8.21,1.01.76l1.75,4.33h.04l1.74-4.33c.21-.54.5-.76,1.02-.76.6,0,.95.35.95.95v5.6c0,.43-.24.69-.66.69s-.65-.25-.65-.69v-4.16h-.04l-1.74,4.26c-.13.31-.32.45-.63.45s-.52-.14-.64-.44l-1.74-4.27h-.04v4.16c0,.43-.24.69-.65.69s-.66-.25-.66-.69Z"/><path class="cls-1" d="m803.53,389.74c0-.95.73-1.5,2.04-1.58l1.32-.08v-.35c0-.49-.34-.77-.88-.77-.43,0-.7.14-1.02.55-.16.18-.34.26-.57.26-.35,0-.6-.22-.6-.55,0-.11.02-.21.07-.32.24-.62,1.08-1.01,2.17-1.01,1.34,0,2.22.69,2.22,1.75v2.98c0,.47-.29.72-.69.72s-.65-.21-.68-.63v-.27h-.03c-.29.56-.95.88-1.6.88-1,0-1.75-.64-1.75-1.59Zm3.36-.42v-.38l-1.1.07c-.53.04-.83.28-.83.65,0,.39.32.63.8.63.62,0,1.14-.41,1.14-.97Z"/><path class="cls-1" d="m809.19,384.62c0-.42.33-.74.76-.74s.76.32.76.74-.33.74-.76.74-.76-.33-.76-.74Zm.05,5.98v-3.96c0-.46.27-.75.71-.75s.71.28.71.75v3.96c0,.46-.27.74-.71.74s-.71-.28-.71-.74Z"/><path class="cls-1" d="m811.61,390.6v-3.98c0-.44.26-.72.69-.72s.71.27.71.72v.29h.03c.28-.65.81-1.01,1.61-1.01,1.16,0,1.82.73,1.82,1.96v2.73c0,.49-.3.74-.71.74s-.71-.25-.71-.74v-2.44c0-.68-.32-1.07-.96-1.07s-1.04.47-1.04,1.15v2.36c0,.49-.29.74-.71.74s-.71-.25-.71-.74Z"/><path class="cls-1" d="m324.98,742c0-.12.03-.29.1-.47l1.92-5.24c.21-.57.55-.83,1.11-.83s.92.25,1.13.83l1.93,5.24c.07.19.09.32.09.47,0,.41-.31.69-.74.69s-.63-.19-.77-.65l-.37-1.11h-2.54l-.37,1.1c-.14.47-.36.66-.75.66-.46,0-.75-.27-.75-.69Zm4.07-2.21l-.93-2.89h-.03l-.91,2.89h1.88Z"/><path class="cls-1" d="m334.13,741.83v-5.6c0-.49.27-.77.74-.77s.74.28.74.77v5.15h2.5c.4,0,.67.23.67.61s-.26.61-.67.61h-3.24c-.46,0-.74-.28-.74-.77Z"/><path class="cls-1" d="m339.42,735.98c0-.42.33-.74.76-.74s.76.32.76.74-.33.74-.76.74-.76-.33-.76-.74Zm.05,5.98v-3.96c0-.46.27-.75.71-.75s.71.28.71.75v3.96c0,.46-.27.74-.71.74s-.71-.28-.71-.74Z"/><path class="cls-1" d="m341.84,741.96v-3.98c0-.44.26-.72.69-.72s.71.27.71.72v.29h.03c.28-.65.81-1.01,1.61-1.01,1.16,0,1.82.73,1.82,1.96v2.73c0,.49-.3.74-.71.74s-.71-.25-.71-.74v-2.44c0-.68-.32-1.07-.96-1.07s-1.04.47-1.04,1.15v2.36c0,.49-.29.74-.71.74s-.71-.25-.71-.74Z"/><path class="cls-1" d="m347.63,741.96v-5.77c0-.49.3-.75.71-.75s.71.26.71.75v3.25h.02l1.89-1.9c.19-.2.35-.28.57-.28.37,0,.63.27.63.62,0,.21-.06.35-.27.54l-1.33,1.26,1.46,1.86c.16.21.2.34.2.52,0,.38-.28.64-.68.64-.3,0-.47-.11-.7-.44l-1.34-1.78-.45.42v1.06c0,.49-.29.74-.71.74s-.71-.25-.71-.74Z"/><path class="cls-1" d="m680.63,493.06v-5.6c0-.6.35-.95.95-.95.51,0,.8.21,1.01.76l1.75,4.33h.04l1.74-4.33c.21-.54.5-.76,1.02-.76.6,0,.95.35.95.95v5.6c0,.43-.24.69-.66.69s-.65-.25-.65-.69v-4.16h-.04l-1.74,4.26c-.13.31-.32.45-.63.45s-.52-.14-.64-.44l-1.74-4.27h-.04v4.16c0,.43-.24.69-.65.69s-.66-.25-.66-.69Z"/><path class="cls-1" d="m688.83,492.15c0-.95.73-1.5,2.04-1.58l1.32-.08v-.35c0-.49-.34-.77-.88-.77-.43,0-.7.14-1.02.55-.16.18-.34.26-.57.26-.35,0-.6-.22-.6-.55,0-.11.02-.21.07-.32.24-.62,1.08-1.01,2.17-1.01,1.34,0,2.22.69,2.22,1.75v2.98c0,.47-.29.72-.69.72s-.65-.21-.68-.63v-.27h-.03c-.29.56-.95.88-1.6.88-1,0-1.75-.64-1.75-1.59Zm3.36-.42v-.38l-1.1.07c-.53.04-.83.28-.83.65,0,.39.32.63.8.63.62,0,1.14-.41,1.14-.97Z"/><path class="cls-1" d="m694.51,493.02v-3.98c0-.45.28-.72.69-.72s.67.26.67.72v.34h.03c.14-.65.57-1.04,1.09-1.04.19,0,.34.04.44.13.14.11.21.28.21.53,0,.22-.07.4-.21.51s-.34.18-.62.19c-.65,0-.88.38-.88,1v2.32c0,.47-.28.74-.71.74s-.71-.27-.71-.74Z"/><path class="cls-1" d="m698.18,493.02v-5.77c0-.49.3-.75.71-.75s.71.26.71.75v3.25h.02l1.89-1.9c.19-.2.35-.28.57-.28.37,0,.63.27.63.62,0,.21-.06.35-.27.54l-1.33,1.26,1.46,1.86c.16.21.2.34.2.52,0,.38-.28.64-.68.64-.3,0-.47-.11-.7-.44l-1.34-1.78-.45.42v1.06c0,.49-.29.74-.71.74s-.71-.25-.71-.74Z"/><path class="cls-1" d="m703.09,491.07c0-1.68.98-2.75,2.53-2.75s2.48,1.02,2.48,2.44c0,.4-.22.62-.62.62h-2.99v.06c0,.78.47,1.28,1.19,1.28.52,0,.86-.18,1.25-.63.15-.16.28-.21.46-.21.31,0,.56.2.56.52,0,.11-.03.23-.1.35-.35.64-1.16,1.03-2.17,1.03-1.64,0-2.6-1.01-2.6-2.71Zm3.64-.57c-.03-.68-.47-1.13-1.09-1.13s-1.08.46-1.13,1.13h2.22Z"/><path class="cls-1" d="m709.22,489.5h-.27c-.34,0-.55-.21-.55-.54s.21-.54.55-.54h.27v-.58c0-.46.27-.74.71-.74s.71.28.71.74v.58h.5c.34,0,.55.21.55.54s-.21.54-.55.54h-.5v2.5c0,.37.13.53.43.55h.09c.35.05.54.2.54.53,0,.42-.41.63-1.01.63h-.05c-.95,0-1.44-.47-1.44-1.4v-2.82Z"/><path class="cls-1" d="m921.52,610.98v-15.97c0-1.4.79-2.22,2.14-2.22h6.75c3.84,0,6.25,1.97,6.25,5.1,0,2.24-1.67,4.11-3.84,4.43v.11c2.78.21,4.81,2.24,4.81,4.94,0,3.6-2.71,5.85-7.07,5.85h-6.91c-1.34,0-2.14-.82-2.14-2.24Zm7.35-9.7c2.28,0,3.58-1.01,3.58-2.73s-1.15-2.58-3.14-2.58h-3.51v5.31h3.07Zm.61,8.75c2.46,0,3.79-1.05,3.79-3s-1.37-2.93-3.89-2.93h-3.58v5.93h3.68Z"/><path class="cls-1" d="m202.28,618.58c-1.13,0-1.77-.57-2.17-1.93l-1.08-3.19h-7.38l-1.08,3.23c-.38,1.33-1.02,1.88-2.22,1.88s-2.14-.84-2.14-2.01c0-.42.07-.81.27-1.36l5.61-15.21c.61-1.67,1.6-2.41,3.27-2.41s2.62.76,3.21,2.42l5.58,15.19c.18.52.28,1,.28,1.36,0,1.23-.84,2.01-2.17,2.01Zm-4.18-8.43l-2.65-8.37h-.1l-2.7,8.37h5.45Z"/><path class="cls-1" d="m826.89,726.13v-5.51c0-.48.27-.77.74-.77h2.33c1.32,0,2.15.68,2.15,1.76,0,.77-.58,1.42-1.32,1.53v.04c.96.07,1.66.77,1.66,1.7,0,1.24-.93,2.02-2.44,2.02h-2.38c-.46,0-.74-.28-.74-.77Zm2.53-3.34c.79,0,1.24-.35,1.24-.94s-.4-.89-1.08-.89h-1.21v1.83h1.06Zm.21,3.02c.85,0,1.31-.36,1.31-1.04s-.47-1.01-1.34-1.01h-1.24v2.05h1.27Z"/><path class="cls-1" d="m832.97,724.28c0-1.69,1.03-2.72,2.59-2.72s2.59,1.03,2.59,2.72-1.01,2.73-2.59,2.73-2.59-1.02-2.59-2.73Zm3.74,0c0-1.04-.45-1.64-1.14-1.64s-1.15.6-1.15,1.64.44,1.64,1.15,1.64,1.14-.59,1.14-1.64Z"/><path class="cls-1" d="m838.92,726.28v-5.79c0-.49.3-.75.71-.75s.71.26.71.75v2.08h.03c.29-.62.87-.99,1.62-.99,1.32,0,2.13,1.01,2.13,2.7s-.8,2.7-2.12,2.7c-.77,0-1.35-.37-1.64-.98h-.03v.28c0,.47-.29.72-.71.72s-.7-.24-.7-.72Zm3.74-2c0-.95-.44-1.56-1.15-1.56s-1.17.62-1.17,1.56.47,1.55,1.17,1.55,1.15-.6,1.15-1.55Z"/><path class="cls-1" d="m844.65,725.4c0-.95.73-1.5,2.04-1.58l1.32-.08v-.35c0-.49-.34-.77-.88-.77-.43,0-.7.14-1.02.55-.16.18-.34.26-.57.26-.35,0-.6-.22-.6-.55,0-.11.02-.21.07-.32.24-.62,1.08-1.01,2.17-1.01,1.34,0,2.22.69,2.22,1.75v2.98c0,.47-.29.72-.69.72s-.65-.21-.68-.63v-.27h-.03c-.29.56-.95.88-1.6.88-1,0-1.75-.64-1.75-1.59Zm3.36-.42v-.38l-1.1.07c-.53.04-.83.28-.83.65,0,.39.32.63.8.63.62,0,1.14-.41,1.14-.97Z"/><path class="cls-1" d="m503.55,705.64v-5.15h-1.46c-.4,0-.67-.23-.67-.61s.26-.61.67-.61h4.39c.4,0,.66.23.66.61s-.27.61-.66.61h-1.46v5.15c0,.48-.27.77-.74.77s-.74-.28-.74-.77Z"/><path class="cls-1" d="m506.42,703.69c0-1.69,1.03-2.72,2.59-2.72s2.59,1.03,2.59,2.72-1.01,2.73-2.59,2.73-2.59-1.02-2.59-2.73Zm3.74,0c0-1.04-.45-1.64-1.14-1.64s-1.15.6-1.15,1.64.44,1.64,1.15,1.64,1.14-.59,1.14-1.64Z"/><path class="cls-1" d="m512.33,707.44v-5.73c0-.48.29-.73.7-.73s.7.25.7.74v.28h.03c.28-.62.86-1,1.62-1,1.33,0,2.14,1.01,2.14,2.7s-.81,2.7-2.12,2.7c-.76,0-1.35-.37-1.63-.96h-.03v2c0,.49-.29.74-.71.74s-.71-.25-.71-.74Zm3.74-3.74c0-.95-.45-1.56-1.16-1.56s-1.16.62-1.16,1.56.46,1.55,1.16,1.55,1.16-.6,1.16-1.55Z"/><path class="cls-1" d="m520.24,705.68v-3.97c0-.48.28-.73.69-.73s.69.25.69.73v.33h.03c.22-.63.78-1.04,1.49-1.04.76,0,1.28.39,1.46,1.07h.03c.23-.66.86-1.07,1.63-1.07,1.03,0,1.71.7,1.71,1.76v2.93c0,.48-.29.74-.72.74s-.71-.26-.71-.74v-2.58c0-.61-.3-.94-.85-.94s-.9.4-.9.98v2.54c0,.48-.26.74-.69.74s-.68-.26-.68-.74v-2.62c0-.56-.32-.89-.84-.89s-.91.41-.91,1v2.52c0,.48-.29.74-.71.74s-.71-.26-.71-.74Z"/><path class="cls-1" d="m528.85,699.69c0-.42.33-.74.76-.74s.76.32.76.74-.33.74-.76.74-.76-.33-.76-.74Zm.05,5.98v-3.96c0-.46.27-.75.71-.75s.71.28.71.75v3.96c0,.46-.27.74-.71.74s-.71-.28-.71-.74Z"/><path class="cls-1" d="m531.08,703.69c0-1.66.83-2.69,2.14-2.69.76,0,1.34.4,1.6.98h.03v-2.07c0-.49.3-.75.71-.75s.71.26.71.75v5.79c0,.47-.29.72-.71.72s-.72-.24-.72-.72v-.3h-.02c-.23.59-.81,1.01-1.61,1.01-1.31,0-2.13-1.04-2.13-2.71Zm3.78,0c0-.95-.45-1.56-1.16-1.56s-1.16.6-1.16,1.56.44,1.55,1.16,1.55,1.16-.6,1.16-1.55Z"/><path class="cls-1" d="m218.01,511.85c0-.12.03-.29.1-.47l1.92-5.24c.21-.57.55-.83,1.11-.83s.92.25,1.13.83l1.93,5.24c.07.19.09.32.09.47,0,.41-.31.69-.74.69s-.63-.19-.77-.65l-.37-1.11h-2.54l-.37,1.1c-.14.47-.36.66-.75.66-.46,0-.75-.27-.75-.69Zm4.07-2.21l-.93-2.89h-.03l-.91,2.89h1.88Z"/><path class="cls-1" d="m227.16,511.86v-5.6c0-.6.35-.95.95-.95.51,0,.8.21,1.01.76l1.75,4.33h.04l1.74-4.33c.21-.54.5-.76,1.02-.76.6,0,.95.35.95.95v5.6c0,.43-.24.69-.66.69s-.65-.25-.65-.69v-4.16h-.04l-1.74,4.26c-.13.31-.32.45-.63.45s-.52-.14-.64-.44l-1.74-4.27h-.04v4.16c0,.43-.24.69-.65.69s-.66-.25-.66-.69Z"/><path class="cls-1" d="m235.36,510.95c0-.95.73-1.5,2.04-1.58l1.32-.08v-.35c0-.49-.34-.77-.88-.77-.43,0-.7.14-1.02.55-.16.18-.34.26-.57.26-.35,0-.6-.22-.6-.55,0-.11.02-.21.07-.32.24-.62,1.08-1.01,2.17-1.01,1.34,0,2.22.69,2.22,1.75v2.98c0,.47-.29.72-.69.72s-.65-.21-.68-.63v-.27h-.03c-.29.56-.95.88-1.6.88-1,0-1.75-.64-1.75-1.59Zm3.36-.42v-.38l-1.1.07c-.53.04-.83.28-.83.65,0,.39.32.63.8.63.62,0,1.14-.41,1.14-.97Z"/><path class="cls-1" d="m241.01,505.83c0-.42.33-.74.76-.74s.76.32.76.74-.33.74-.76.74-.76-.33-.76-.74Zm.05,5.98v-3.96c0-.46.27-.75.71-.75s.71.28.71.75v3.96c0,.46-.27.74-.71.74s-.71-.28-.71-.74Z"/><path class="cls-1" d="m243.43,511.81v-3.98c0-.44.26-.72.69-.72s.71.27.71.72v.29h.03c.28-.65.81-1.01,1.61-1.01,1.16,0,1.82.73,1.82,1.96v2.73c0,.49-.3.74-.71.74s-.71-.25-.71-.74v-2.44c0-.68-.32-1.07-.96-1.07s-1.04.47-1.04,1.15v2.36c0,.49-.29.74-.71.74s-.71-.25-.71-.74Z"/><path class="cls-1" d="m47.94,525.54v-5.51c0-.48.27-.77.74-.77h3.35c.41,0,.67.23.67.61s-.27.61-.67.61h-2.61v1.69h2.49c.37,0,.62.21.62.57s-.24.57-.62.57h-2.49v1.78h2.61c.4,0,.67.23.67.61s-.26.61-.67.61h-3.35c-.46,0-.74-.28-.74-.77Z"/><path class="cls-1" d="m53.58,525.67v-5.77c0-.49.3-.75.71-.75s.71.26.71.75v5.77c0,.49-.29.74-.71.74s-.71-.25-.71-.74Z"/><path class="cls-1" d="m56,525.69v-5.79c0-.49.3-.75.71-.75s.71.26.71.75v2.08h.03c.29-.62.87-.99,1.62-.99,1.32,0,2.13,1.01,2.13,2.7s-.8,2.7-2.12,2.7c-.77,0-1.35-.37-1.64-.98h-.03v.28c0,.47-.29.72-.71.72s-.7-.24-.7-.72Zm3.74-2c0-.95-.44-1.56-1.15-1.56s-1.17.62-1.17,1.56.47,1.55,1.17,1.55,1.15-.6,1.15-1.55Z"/><path class="cls-1" d="m61.75,523.69c0-1.69,1.03-2.72,2.59-2.72s2.59,1.03,2.59,2.72-1.01,2.73-2.59,2.73-2.59-1.02-2.59-2.73Zm3.74,0c0-1.04-.45-1.64-1.14-1.64s-1.15.6-1.15,1.64.44,1.64,1.15,1.64,1.14-.59,1.14-1.64Z"/><path class="cls-1" d="m68.47,525.67l-1.05-3.65c-.05-.19-.08-.3-.08-.44,0-.36.29-.61.69-.61.36,0,.59.21.67.61l.78,3.38h.03l.81-3.33c.09-.42.37-.65.81-.65s.7.23.8.65l.82,3.33h.03l.78-3.39c.08-.38.31-.6.66-.6.4,0,.67.25.67.61,0,.13-.02.25-.08.43l-1.05,3.65c-.15.52-.42.75-.91.75-.52,0-.8-.22-.92-.76l-.8-3.05h-.03l-.79,3.06c-.12.52-.41.75-.91.75s-.75-.23-.9-.75Z"/></g></svg>