<?xml version="1.0" encoding="UTF-8"?><svg xmlns="http://www.w3.org/2000/svg" viewBox="0 0 853.21 959.87"><defs><style>.cls-1{fill:#fff;}.cls-2{stroke-dasharray:0 0 3.36 2.52;}.cls-2,.cls-3,.cls-4,.cls-5,.cls-6,.cls-7{fill:none;}.cls-2,.cls-3,.cls-4,.cls-6,.cls-7{stroke:#b0adb0;stroke-miterlimit:10;}.cls-3{stroke-dasharray:0 0 3.76 2.82;}.cls-8{fill:#b0adb0;}.cls-9{fill:#575548;}.cls-4{stroke-dasharray:0 0 4.21 3.16;}.cls-10{fill:#d32027;}.cls-5{stroke:#656569;}.cls-11{fill:#33353b;}.cls-12{fill:#656569;}.cls-13{fill:#79c143;}.cls-7{stroke-dasharray:0 0 4 3;}</style></defs><g id="Body_Merge"><path class="cls-11" d="m62.41,541.14v14.9l-56.95,20.04v9.57h.05v146.48h117.9l.08,11.02h-4.03v95.68s19-5.98,19-5.98h7s16.93,2.04,16.93,2.04l53.12,21.94,9.94,10.99,16.99-5.97h3.97l10.09-9.03h8.97l11.99,9.03h37.96v30.64l-14.96,18.34v7.99h-.05v38.31h129.07v-38.31l-21-27v-27.99h27.96l9.03-19.01v-14.01l8.99-8.97,15.99-5.01v-2.98l1.03-1.99,22.96-14.16v-22.87h56.01l16.97-8.7h12l15.03,10.71h9.03s0,1,0,1h47.95l6.03,4.99h4s10.01-5.99,10.01-5.99h5.99l28.01,39h1.98l19.01-10.95v-37.79h95.09l16.89-27.2v-74.78h-16.99l-36.98-30.97v-34.31l37.48-30.7h26.49v-136.01h0v-78.99h-120.03v-23.99h-49v16.03h-80.01v-40.02h-59.02v-58h-51.94v-75.99h-136.96v29.05h-5.01v-41.36h137.98v-34.72h-107.01V2.81h-101.02v125.34h-51.98v31.98h76.96v38.05h-4.96v-25.04H29.42v25.99h-1v1h-2v101.69h3v2.29h.04v16.06H5.44v220.96h56.97Zm199.05-26.01v-194.95h-49v-11.05h57.99v104.6h93.03v26.4h23.98v82.04h-27.03v-3.05h-90.08v101.04h-74.94v-52.03h-26.95v-53h92.98Zm89.02,106.65v26.43h-33v-74.06h33v47.63Zm-196.08,110.34h106.07v-62.34h8.97v73.36h-114.97l-.08-11.02Zm247.07-31.97v-78.37h30.93v-117.91h5.07v122.26h-27.04v68.99h61.13s4.45,0,4.45,0l44-21.37h3.46v26.39h-122.01Zm164.95-149.03h50.02v70.01h63.04v5.01h-177.03v-5.01h11.98v-70.01h52Zm-108,0v70.01h27.03v5.01h-9.44s-22.52,0-22.52,0v-122.26h4.93v47.25Zm80.09,100.05v-6.05h168v-23.99h25.96v81.04h-183.04v-51h-10.92Zm175.92-139.96h-148.01v-26.29h-106.99v-88.72h-32.02v-32.02h-71.02v-76.04h26.04v-5h76.03v98.92h32.97v51.06h223v78.09Zm-218.93-242.43v66.33h44.9s11.5,0,11.5,0l8.51-8.29h6.02v24.33h-78v-68.01h.02v-14.35h7.04Zm-420,35.33h87.98v16.06h-87.98v-16.06Zm87.98,48h61.99v54.06h-74.98v-54.06h12.99Z"/></g><g id="Lines_under_map"><rect class="cls-5" x="622.87" y="682.3" width="31.06" height="19.34"/><rect class="cls-5" x="622.87" y="664.58" width="31.06" height="17.73"/><rect class="cls-5" x="622.87" y="645.65" width="31.06" height="18.93"/><path class="cls-5" d="m622.87,701.64l31.06-19.34"/><path class="cls-5" d="m622.87,682.3l31.06-17.73"/><path class="cls-5" d="m622.87,664.58l31.06-18.53"/><path class="cls-5" d="m622.87,682.3l31.06,19.34"/><path class="cls-5" d="m622.87,664.58l31.06,17.73"/><path class="cls-5" d="m622.87,646.05l31.06,18.53"/></g><g id="Bombsite"><polygon class="cls-9" points="734.43 634.14 734.43 619.38 681.36 619.38 679.36 619.35 645.4 619.35 645.4 512.89 716.35 512.89 716.35 497.18 762.41 497.18 762.41 634.14 734.43 634.14"/><path class="cls-9" d="m760.41,499.18v132.96h-23.98v-14.76h-53.07v-.03h-35.97v-102.46h70.96v-15.71h42.06m4-4h-50.06v15.71h-70.96v110.46h35.97v.03h53.07v14.76h31.98v-140.96h0Z"/><rect class="cls-9" x="7.53" y="632.14" width="185.89" height="98.23"/><path class="cls-9" d="m191.42,634.14v94.23H9.53v-94.23h181.89m4-4H5.53v102.23h189.89v-102.23h0Z"/><rect class="cls-11" x="665.93" y="572.64" width="7" height="9" transform="translate(1338.85 1154.28) rotate(180)"/><rect class="cls-11" x="90.92" y="648.65" width="21" height="9.98" transform="translate(202.83 1307.28) rotate(180)"/><polyline class="cls-11" points="47.12 689.58 32.94 688.66 33.87 674.48 48.04 675.41 47.12 689.58"/><rect class="cls-11" x="4.99" y="629.64" width="25.92" height="14" transform="translate(35.9 1273.28) rotate(180)"/></g><g id="Hell_lines"><polyline class="cls-7" points="433.94 476.51 456.66 476.51 456.66 484.95"/><line class="cls-6" x1="439.23" y1="503.91" x2="441.23" y2="503.91"/><line class="cls-2" x1="443.75" y1="503.91" x2="448.37" y2="503.91"/><line class="cls-6" x1="449.63" y1="503.91" x2="451.63" y2="503.91"/><line class="cls-6" x1="736.55" y1="552.44" x2="736.55" y2="554.44"/><line class="cls-3" x1="736.55" y1="557.26" x2="736.55" y2="562.43"/><polyline class="cls-6" points="736.55 563.84 736.55 565.84 734.55 565.84"/><line class="cls-4" x1="731.39" y1="565.84" x2="674" y2="565.84"/><polyline class="cls-6" points="672.42 565.84 670.42 565.84 670.42 563.84"/><line class="cls-3" x1="670.42" y1="561.02" x2="670.42" y2="555.85"/><line class="cls-6" x1="670.42" y1="554.44" x2="670.42" y2="552.44"/></g><g id="Shapes"><rect class="cls-6" x="194.92" y="496.62" width="13.98" height="19.04"/><rect class="cls-6" x="232.87" y="492.65" width="5.87" height="6.98"/><rect class="cls-6" x="238.9" y="492.65" width="8" height="6.98"/><rect class="cls-6" x="246.91" y="490.63" width="15.05" height="25.05"/><rect class="cls-6" x="232.87" y="499.63" width="14.04" height="16.04"/><path class="cls-8" d="m160.42,460.14v23.99h-86v-23.99h86m1-1h-88v25.99h88v-25.99h0Z"/><path class="cls-8" d="m168.5,516.14v50.97h-57.08v-50.97h57.08m1-1h-59.08v52.97h59.08v-52.97h0Z"/><path class="cls-8" d="m168.5,529.16v14.97h-46.09v-14.97h46.09m1-1h-48.09v16.97h48.09v-16.97h0Z"/><path class="cls-8" d="m168.5,545.14v7.99h-43.08v-7.99h43.08m1-1h-45.08v9.99h45.08v-9.99h0Z"/><rect class="cls-6" x="73.91" y="592.63" width="73" height="26.02"/><rect class="cls-6" x="4.99" y="629.64" width="25.92" height="14"/><rect class="cls-6" x="90.92" y="648.65" width="21" height="9.98"/><rect class="cls-6" x="77.91" y="658.63" width="88" height="28.01"/><polygon class="cls-6" points="195.84 663.65 211.9 663.65 211.9 619.64 195.92 619.64 195.84 663.65"/><rect class="cls-6" x="220.91" y="302.63" width="12.01" height="7.04"/><rect class="cls-6" x="269.91" y="318.63" width="8" height="8"/><rect class="cls-6" x="269.91" y="326.63" width="14" height="14"/><rect class="cls-6" x="283.91" y="334.63" width="8.02" height="6"/><rect class="cls-6" x="269.91" y="340.63" width="26.01" height="73.66"/><rect class="cls-6" x="429.89" y="277.64" width="8.02" height="6.04"/><rect class="cls-6" x="526.91" y="292.68" width="14.04" height="12.94"/><rect class="cls-6" x="490.85" y="382.6" width="74.06" height="51.06"/><rect class="cls-6" x="647.95" y="367.81" width="13.96" height="14.82"/><rect class="cls-6" x="641.88" y="374.69" width="6.07" height="7.95"/><rect class="cls-6" x="840.91" y="365.62" width="8.06" height="9.01"/><rect class="cls-6" x="832.91" y="353.61" width="16.06" height="12.02"/><rect class="cls-6" x="758.92" y="455.65" width="15" height="13.98"/><rect class="cls-6" x="773.92" y="396.62" width="28.99" height="73"/><rect class="cls-6" x="665.93" y="572.64" width="7" height="9"/><polyline class="cls-6" points="678.95 624.11 678.94 581.64 658.96 581.64 658.96 551.63 746.96 551.63 746.96 581.64 698.96 581.64 698.96 619.67 698.96 621.67 706.64 621.67"/><rect class="cls-6" x="472.92" y="625.6" width="8" height="6.04"/><rect class="cls-6" x="566.91" y="510.69" width="13.01" height="14.93"/><rect class="cls-6" x="350.95" y="171.66" width="14.95" height="11.96"/><rect class="cls-6" x="365.91" y="171.66" width="29.89" height="2.98"/><rect class="cls-6" x="365.91" y="174.65" width="29.89" height="26.01"/><rect class="cls-6" x="350.9" y="183.62" width="15.01" height="17.04"/><rect class="cls-6" x="395.92" y="185.87" width="21.01" height="14.79"/><rect class="cls-6" x="395.92" y="171.66" width="21.01" height="13.98"/><rect class="cls-6" x="275.01" y="172.6" width="21.94" height="23.08"/><rect class="cls-6" x="231.93" y="172.6" width="25.99" height="17.04"/><rect class="cls-6" x="257.92" y="172.6" width="17.09" height="17.04"/><rect class="cls-6" x="259.94" y="189.64" width="15.07" height="15"/><rect class="cls-6" x="240.93" y="189.64" width="19.01" height="14.01"/><rect class="cls-6" x="231.93" y="189.64" width="9" height="11.01"/><polyline class="cls-6" points="286.89 196.09 286.89 201.74 291.94 203.76 293.96 209.63 300.9 209.63 300.9 203.29"/><rect class="cls-8" x="300.41" y="197.84" width=".99" height="71.28"/><rect class="cls-8" x="346.52" y="200.98" width=".98" height="67.15"/><rect class="cls-6" x="595.91" y="639.64" width="6.01" height="6.01"/><polyline class="cls-6" points="522.93 718.21 522.93 706.65 550.93 706.65 550.93 769.63 522.93 769.63 522.93 764.08"/><line class="cls-6" x1="522.93" y1="775" x2="522.93" y2="770.07"/><line class="cls-6" x1="522.93" y1="699.82" x2="522.93" y2="706.9"/><rect class="cls-8" x="53.45" y="352.14" width="97.42" height="1"/><rect class="cls-8" x="5.3" y="376.14" width="133.12" height="1"/><polygon class="cls-8" points="27.8 515.12 28.41 515.12 61.42 515.12 61.42 541.16 62.41 541.16 62.41 515.12 62.41 514.63 62.41 514.14 28.41 514.14 28.41 429.13 73.42 429.13 73.42 459.62 75.41 459.62 75.41 429.13 77.41 429.13 77.91 429.13 78.41 429.13 78.41 405.11 150.51 405.11 150.51 404.14 77.41 404.14 77.41 404.63 77.41 405.11 77.41 428.14 27.41 428.14 27.41 428.63 27.41 429.12 27.41 515.12 27.8 515.12"/><path class="cls-8" d="m91.42,405.14v12.99h-12.99v-12.99h12.99m1-1h-14.99v14.99h14.99v-14.99h0Z"/><circle class="cls-6" cx="95.92" cy="408.57" r="3.07"/><circle class="cls-6" cx="81.95" cy="422.51" r="3.07"/><circle class="cls-6" cx="31.98" cy="432.7" r="3.07"/><circle class="cls-6" cx="31.98" cy="439.85" r="3.07"/><circle class="cls-6" cx="259.24" cy="488.05" r="1.74"/><circle class="cls-6" cx="254.76" cy="488.05" r="1.74"/><circle class="cls-6" cx="259.24" cy="483.68" r="1.74"/><circle class="cls-6" cx="211.62" cy="512.95" r="1.74"/><circle class="cls-6" cx="230.24" cy="512.83" r="1.74"/><circle class="cls-6" cx="230.24" cy="508.32" r="1.74"/><polyline class="cls-6" points="30.96 629.64 62.95 629.64 62.95 592.63 74.07 592.63 159.89 592.63 159.89 627.01"/><line class="cls-6" x1="209.96" y1="663.65" x2="226.41" y2="663.65"/><rect class="cls-8" x="5.16" y="711.12" width="255.48" height=".99"/><rect class="cls-6" x="33.39" y="674.93" width="14.2" height="14.2" transform="translate(44.39 -1.19) rotate(3.72)"/><polyline class="cls-6" points="672.83 776.99 672.83 735.73 609.93 735.73 609.93 777.85"/><line class="cls-6" x1="550.93" y1="702.06" x2="550.93" y2="775.09"/><line class="cls-6" x1="494.95" y1="746.14" x2="494.95" y2="775.05"/><polyline class="cls-6" points="445.78 722.64 494.96 722.64 494.96 725.69"/><polyline class="cls-6" points="409.92 862.82 409.92 848.58 439.89 848.58 439.89 857.78"/><rect class="cls-6" x="409.92" y="848.58" width="17.04" height="15.8"/><rect class="cls-6" x="283.91" y="848.65" width="29.95" height="13.75"/><rect class="cls-6" x="283.91" y="848.65" width="14.97" height="7.97"/><rect class="cls-6" x="289.87" y="856.62" width="9.01" height="5.78"/><line class="cls-6" x1="313.85" y1="849.32" x2="313.85" y2="803.15"/><line class="cls-6" x1="409.92" y1="849.42" x2="409.92" y2="803.14"/><line class="cls-6" x1="494.96" y1="727.13" x2="494.96" y2="721.6"/><rect class="cls-6" x="4.9" y="319.68" width="12.02" height="13.96"/><rect class="cls-6" x="4.9" y="333.64" width="4.99" height="7.01"/><circle class="cls-6" cx="20.69" cy="323.71" r="3.07"/><rect class="cls-6" x="349.94" y="622.36" width="52.06" height="25.29"/><rect class="cls-6" x="339.92" y="647.67" width="32.99" height="16.99"/><rect class="cls-6" x="269.88" y="518.62" width="15.02" height="15.02"/><rect class="cls-6" x="284.89" y="518.62" width="15.02" height="15.02"/><polyline class="cls-6" points="457.9 504.42 457.9 418.66 432.94 418.66 432.94 504.42"/><polygon class="cls-8" points="512.55 678.17 509.33 671.91 509.33 671.91 508.84 670.98 475.19 688.11 418.42 688.11 418.42 648.82 426.71 627.04 425.82 626.7 417.47 648.63 417.47 648.63 417.47 689.16 417.95 689.16 418.42 689.16 475.45 689.16 475.45 689.16 475.45 689.16 508.38 672.4 511.61 678.66 512.55 678.17"/><rect class="cls-6" x="118.95" y="786.63" width="3.96" height="6"/><rect class="cls-6" x="118.95" y="770.64" width="12.97" height="15.99"/><line class="cls-6" x1="132.02" y1="770.64" x2="239.41" y2="770.64"/><polyline class="cls-6" points="254.44 854.98 251.01 850.16 241.74 853.19 240.86 857.14 245.89 862.34"/><polyline class="cls-6" points="240.86 857.14 239.01 858.55 238.03 862.5 232.84 852.45 228.39 851.31 223.06 852.11 218.95 854.07 217.1 859.16"/><path class="cls-6" d="m199.03,850.66l-9.17-9.38h-3.24l-2.26,2.08c-.26.2-.65.01-.64-.32l.97-7.62-3.64-1.82-3.19-1.47-2.02,1.11-1.97,2.58-2.15,3.48"/><polyline class="cls-6" points="157.88 834.79 155.17 828.99 151.08 826.97 145.31 826.16 141.57 826.97 140.01 829.5 140.01 832.85"/><path class="cls-6" d="m142.09,826.86l-3.8-2.06-2.07-4.2s-2.88-1.26-3.03-1.42-3.54-1.82-3.54-1.82l-2.48.86-4.1,1.87-4.12,2.88"/><polyline class="cls-6" points="727.02 772.34 712.77 805.59 712.77 808.59 715.12 811.46"/><polyline class="cls-6" points="726.46 793.11 721.87 793.68 718.99 795.42 717.52 798.35 718.43 803.81 721.67 807.65"/><polyline class="cls-6" points="718.21 802.48 715.2 804.92 712.77 808.66"/><polyline class="cls-6" points="701.76 810.69 703.87 808.26 707.11 806.44 710.24 806.44 712.77 807.65"/><polyline class="cls-6" points="838.79 729.77 834.05 732.01 832.5 735.18 832.9 741.52 833.51 744.01 835.66 745.49"/><line class="cls-6" x1="159.89" y1="630.14" x2="159.89" y2="626.51"/><rect class="cls-8" x="491.07" y="406.14" width="73.51" height="1" transform="translate(1055.66 813.27) rotate(180)"/><path class="cls-8" d="m609.4,419.18v13.98h-13.98v-13.98h13.98m1-1h-15.98v15.98h15.98v-15.98h0Z"/><path class="cls-8" d="m712.42,383.15v22.99h-72v-22.99h72m1-1h-74v24.99h74v-24.99h0Z"/><rect class="cls-8" x="522.42" y="731.14" width="1" height="21" transform="translate(1045.83 1483.28) rotate(180)"/><line class="cls-6" x1="372.91" y1="689.14" x2="372.91" y2="664.66"/><rect class="cls-8" x="482.46" y="747.14" width="12.24" height=".99" transform="translate(977.16 1495.28) rotate(180)"/><rect class="cls-8" x="482.46" y="725.14" width="12.21" height=".99" transform="translate(977.14 1451.27) rotate(180)"/><polygon class="cls-8" points="479.42 621.73 479.42 607.14 513.42 607.14 513.42 621.14 514.41 621.14 514.41 607.14 514.41 606.86 514.41 606.14 478.42 606.14 478.42 606.64 478.42 607.14 478.42 621.73 479.42 621.73"/><rect class="cls-8" x="485.29" y="622.16" width="17.36" height=".99" transform="translate(987.94 1245.31) rotate(180)"/></g><g id="Outlines"><path class="cls-12" d="m377.44,2.81v122.33h107.01v34.72h-137.98v41.36h5.01v-29.05h136.96v75.99h51.94v58h59.02v40.02h80.01v-16.03h49v23.99h120.03v78.99h0v136.01h-26.49l-37.48,30.7v34.31l36.98,30.97h16.99v74.78l-16.89,27.2h-95.09v37.79l-19.01,10.95h-1.98l-28.01-39h-5.99l-10.01,6h-4s-6.03-5-6.03-5h-47.95v-1h0s-9.03,0-9.03,0l-15.03-10.71h-12l-16.97,8.7h-56.01v22.87l-22.96,14.16-1.03,1.99v2.98l-15.99,5.01-8.99,8.97v14.01l-9.03,19.01h-27.96v27.99l21,27v38.31h-129.07v-38.31h.05v-7.99l14.96-18.34v-30.64h-37.96l-11.99-9.03h-8.97l-10.09,9.03h-3.97l-16.99,5.97-9.94-10.99-53.12-21.94-16.93-2.03h-7s-19,5.97-19,5.97v-73.54s0-22.15,0-22.15h4.03l-.08-11.02H5.51v-146.48h-.05v-9.57l56.95-20.04v-14.9H5.44v-220.96h24.03v-16.06h-.04v-2.29h-3v-101.69h2v-1h1v-25.99h267.02v25.04h4.96v-38.05h-76.96v-31.98h51.98V2.81h101.02m110.98,348.35h78v-24.33h-6.02l-8.51,8.29h-11.5s0,0,0,0h-44.9v-66.33h-7.04v14.35h-.02v68.01m-132.05,13.03h71.02v32.02h32.02v88.72h106.99v26.29h148.01v-78.09h-223v-51.06h-32.97v-98.92h-76.03v5h-26.04v76.04m-280.89-44.01h87.98v-16.06h-87.98v16.06m136.97,0h49v194.95h-92.98v53h26.95v52.03h74.94v-101.04h90.08v3.05h27.03v-82.04h-23.98v-26.4h-93.03v-104.6h-57.99v11.05m-61.99,86.01h74.98v-54.06h-74.98v54.06m303.02,219.95h22.52s9.44,0,9.44,0v-5.01h-27.03v-117.26h-4.93v122.26m-52.03,74.02h122.01v-26.39h-3.46l-44,21.37h-4.45s-61.13,0-61.13,0v-68.99h27.04v-122.26h-5.07v117.91h-30.93v78.37m100.97-74.01h177.03v-5.01h-63.04v-70.01h-102.02v70.01h-11.98v5.01m-184.96,22.07h33v-74.06h-33v74.06m221.02,2.97h10.92v51h183.04v-81.04h-25.96v23.99h-168v6.05m-384.03,91.97h114.97v-73.36h-8.97v62.34h-106.07l.08,11.02M378.49,1.76h-103.12v125.34h-51.98v34.08h76.96v35.95h-2.86v-25.04H28.37v25.99h-1v1h-2v103.79h3v2.29h.04v13.96H4.39v223.06h56.97v13.11l-56.25,19.79-.7.25v11.33h.05v146.52h117.91l.07,8.92h-4.02v96.73s0,1.43,0,1.43l1.37-.43,18.85-5.94h6.77s16.73,2.02,16.73,2.02l52.77,21.8,9.78,10.81.47.52.66-.23,16.82-5.91h4.19l.3-.27,9.79-8.76h8.22l11.71,8.81.28.21h37.26v29.22l-14.72,18.05-.24.29v7.31l-.05,1.05v39.36h131.17v-39.72l-.22-.28-20.78-26.72v-26.58h27.57l.28-.6,9.03-19.01.1-.21v-13.81l8.5-8.48,15.75-4.93.74-.23v-3.5l.78-1.5,22.71-14,.5-.31v-22.41h55.21l.23-.12,16.75-8.58h11.41l14.76,10.51.27.19h8.31v1h48.62l5.74,4.75.29.24h.38s4,0,4,0h.29s.25-.15.25-.15l9.76-5.85h5.16l27.69,38.56.31.44h2.8l.24-.14,19.01-10.95.53-.3v-37.34h94.62l.31-.5,16.89-27.2.16-.25v-76.13h-17.66l-36.31-30.41v-33.32l36.81-30.14h27.17v-216.06s0-1.05,0-1.05h-120.03v-23.99h-51.1v16.03h-77.91v-40.02h-59.02v-58h-51.94v-75.99h-139.06v29.05h-2.91v-39.26h137.98v-36.82h-107.01V1.76h0Zm111,268.09h4.94v66.33h47s10.45,0,10.45,0h.43s.31-.3.31-.3l8.21-7.99h4.55v22.23h-75.9v-65.91l.02-1.05v-13.3h0Zm-106.03,14.35h73.93v98.92h32.97v51.06h223v75.99h-145.91v-26.29h-106.99v-88.72h-32.02v-32.02h-71.02v-73.94h26.04v-5h0Zm-306.93,20.97h85.88v13.96h-85.88v-13.96h0Zm136.97,5.01h55.89v104.6h93.03v26.4h23.98v79.94h-24.93v-3.05h-92.18v101.04h-72.84v-52.03h-26.95v-50.9h92.98v-197.05h-49v-8.95h0Zm-61.99,42.99h72.88v51.96h-72.88v-51.96h0Zm303.02,151.75h2.83v117.26h27.03v2.91h-8.39s-21.47,0-21.47,0v-120.16h0Zm-21.1,0h2.97v120.16h-27.04v71.09h62.18s4.45,0,4.45,0h.24l.22-.11,43.79-21.26h2.16v24.29h-119.91v-76.27h30.93v-117.91h0Zm82.03,47.25h99.92v70.01h63.04v2.91h-174.93v-2.91h11.98v-70.01h0Zm-196.94,23.03h30.9v71.96h-30.9v-71.96h0Zm389.02,46.98h23.86v78.94h-180.94v-51h-10.92v-3.95h168v-23.99h0Zm-446.03,48.65h6.87v71.26h-112.88l-.07-8.92h106.07v-62.34h0Z"/></g><g id="Callouts_copy"><path class="cls-10" d="m280.19,52.97c0-.16.04-.38.13-.61l2.5-6.81c.27-.74.72-1.08,1.44-1.08s1.19.33,1.47,1.08l2.51,6.82c.09.25.12.42.12.61,0,.53-.4.9-.96.9s-.83-.25-1-.84l-.48-1.45h-3.31l-.48,1.43c-.18.61-.46.86-.97.86-.6,0-.97-.35-.97-.9Zm5.29-2.88l-1.21-3.75h-.04l-1.19,3.75h2.44Z"/><path class="cls-10" d="m289.41,48.34h-.36c-.44,0-.72-.27-.72-.7s.28-.7.72-.7h.36v-.75c0-.6.35-.96.93-.96s.93.37.93.96v.75h.65c.44,0,.71.27.71.7s-.27.7-.71.7h-.65v3.26c0,.48.17.69.56.72h.12c.46.06.7.25.7.69,0,.55-.53.83-1.31.83h-.06c-1.24,0-1.87-.62-1.87-1.82v-3.67Z"/><path class="cls-10" d="m294.03,48.34h-.36c-.44,0-.72-.27-.72-.7s.28-.7.72-.7h.36v-.75c0-.6.35-.96.93-.96s.93.37.93.96v.75h.65c.44,0,.71.27.71.7s-.27.7-.71.7h-.65v3.26c0,.48.17.69.56.72h.12c.46.06.7.25.7.69,0,.55-.53.83-1.31.83h-.06c-1.24,0-1.87-.62-1.87-1.82v-3.67Z"/><path class="cls-10" d="m297.83,51.79c0-1.24.95-1.96,2.65-2.06l1.71-.1v-.45c0-.63-.44-1-1.14-1-.56,0-.91.18-1.32.72-.2.23-.44.34-.74.34-.45,0-.77-.29-.77-.71,0-.15.03-.28.1-.42.32-.81,1.41-1.31,2.82-1.31,1.75,0,2.88.9,2.88,2.27v3.88c0,.62-.37.93-.9.93s-.85-.28-.89-.83v-.35h-.04c-.38.72-1.23,1.15-2.08,1.15-1.29,0-2.28-.84-2.28-2.06Zm4.37-.54v-.49l-1.43.09c-.69.05-1.09.36-1.09.84,0,.51.42.83,1.04.83.81,0,1.48-.53,1.48-1.26Z"/><path class="cls-10" d="m304.96,50.35c0-2.18,1.29-3.55,3.34-3.55,1.36,0,2.5.66,2.87,1.62.06.16.1.32.1.46,0,.46-.36.72-.79.72-.37,0-.59-.15-.78-.48-.34-.6-.75-.87-1.34-.87-.94,0-1.52.77-1.52,2.09s.58,2.1,1.5,2.1c.65,0,1.05-.32,1.33-.8.25-.39.45-.55.84-.55.43,0,.78.29.78.74,0,.15-.04.3-.12.48-.41.93-1.57,1.57-2.87,1.57-2.05,0-3.35-1.35-3.35-3.55Z"/><path class="cls-10" d="m312.34,52.92v-7.5c0-.63.39-.97.93-.97s.93.34.93.97v4.22h.03l2.46-2.47c.25-.26.46-.37.74-.37.48,0,.83.35.83.81,0,.28-.08.45-.35.7l-1.73,1.64,1.9,2.42c.2.27.26.44.26.68,0,.49-.36.84-.88.84-.39,0-.62-.14-.91-.58l-1.75-2.31-.59.55v1.38c0,.63-.38.96-.93.96s-.93-.33-.93-.96Z"/><path class="cls-10" d="m318.73,50.38c0-2.19,1.28-3.58,3.29-3.58s3.22,1.32,3.22,3.17c0,.51-.29.81-.81.81h-3.88v.08c0,1.01.61,1.67,1.55,1.67.68,0,1.12-.23,1.62-.82.2-.2.36-.27.6-.27.4,0,.72.25.72.68,0,.15-.04.3-.13.45-.45.84-1.5,1.33-2.82,1.33-2.13,0-3.38-1.31-3.38-3.52Zm4.73-.74c-.04-.89-.61-1.47-1.42-1.47s-1.4.6-1.47,1.47h2.89Z"/><path class="cls-10" d="m326.19,52.92v-5.18c0-.59.36-.93.9-.93s.88.34.88.93v.44h.04c.18-.84.74-1.35,1.42-1.35.25,0,.44.06.58.17.18.14.27.37.27.69,0,.29-.09.51-.27.67s-.44.24-.81.24c-.84.01-1.14.49-1.14,1.29v3.02c0,.62-.36.96-.93.96s-.93-.35-.93-.96Z"/><path class="cls-10" d="m333.53,52.14c-.06-.16-.1-.34-.1-.51,0-.51.35-.84.84-.84.39,0,.65.15.88.56.3.7,1.02,1.02,1.89,1.02,1.03,0,1.73-.5,1.73-1.17,0-.6-.43-.95-1.58-1.18l-.97-.19c-1.83-.36-2.72-1.24-2.72-2.6,0-1.68,1.46-2.79,3.5-2.79,1.68,0,2.94.7,3.35,1.9.04.13.07.26.07.43,0,.46-.33.77-.82.77-.43,0-.7-.17-.91-.56-.3-.69-.9-.98-1.68-.98-.95,0-1.57.44-1.57,1.12,0,.57.44.91,1.52,1.13l.96.2c1.94.39,2.78,1.17,2.78,2.56,0,1.79-1.4,2.92-3.69,2.92-1.89,0-3.1-.75-3.47-1.76Z"/><path class="cls-10" d="m341.7,55.21v-7.45c0-.62.38-.95.91-.95s.91.33.91.96v.37h.04c.37-.8,1.12-1.29,2.11-1.29,1.73,0,2.79,1.31,2.79,3.51s-1.05,3.51-2.75,3.51c-.99,0-1.75-.48-2.11-1.25h-.04v2.6c0,.63-.38.96-.93.96s-.93-.33-.93-.96Zm4.86-4.86c0-1.23-.58-2.02-1.51-2.02s-1.5.81-1.5,2.02.6,2.02,1.5,2.02,1.51-.78,1.51-2.02Z"/><path class="cls-10" d="m349.14,51.79c0-1.24.95-1.96,2.65-2.06l1.71-.1v-.45c0-.63-.44-1-1.14-1-.56,0-.91.18-1.32.72-.2.23-.44.34-.74.34-.45,0-.77-.29-.77-.71,0-.15.03-.28.1-.42.32-.81,1.41-1.31,2.82-1.31,1.75,0,2.88.9,2.88,2.27v3.88c0,.62-.37.93-.9.93s-.85-.28-.89-.83v-.35h-.04c-.38.72-1.23,1.15-2.08,1.15-1.29,0-2.28-.84-2.28-2.06Zm4.37-.54v-.49l-1.43.09c-.69.05-1.09.36-1.09.84,0,.51.42.83,1.04.83.81,0,1.48-.53,1.48-1.26Z"/><path class="cls-10" d="m357.61,52.91l-1.37-4.74c-.07-.24-.1-.39-.1-.57,0-.46.37-.79.9-.79.46,0,.76.28.87.79l1.01,4.4h.04l1.05-4.33c.12-.55.48-.85,1.05-.85s.91.3,1.03.85l1.06,4.33h.04l1.02-4.41c.1-.5.4-.77.86-.77.51,0,.88.32.88.79,0,.17-.03.32-.1.56l-1.37,4.75c-.19.67-.55.98-1.19.98-.68,0-1.04-.29-1.2-.98l-1.03-3.96h-.04l-1.03,3.97c-.16.67-.53.97-1.19.97s-.98-.3-1.17-.97Z"/><path class="cls-10" d="m366.77,52.92v-5.18c0-.58.34-.93.9-.93s.93.36.93.94v.38h.04c.36-.84,1.05-1.31,2.09-1.31,1.51,0,2.36.95,2.36,2.55v3.55c0,.63-.39.96-.93.96s-.93-.33-.93-.96v-3.17c0-.89-.42-1.4-1.25-1.4s-1.36.61-1.36,1.49v3.07c0,.63-.38.96-.93.96s-.93-.33-.93-.96Z"/><path class="cls-13" d="m317.09,939.62v-7.16c0-.63.36-1,.96-1h2.54c2.75,0,4.37,1.64,4.37,4.54s-1.62,4.62-4.37,4.62h-2.54c-.6,0-.96-.37-.96-1Zm3.27-.58c1.71,0,2.64-1.04,2.64-3.02s-.95-2.97-2.64-2.97h-1.35v5.99h1.35Z"/><path class="cls-13" d="m325.78,937.25c0-2.19,1.28-3.58,3.29-3.58s3.22,1.32,3.22,3.17c0,.51-.29.81-.81.81h-3.88v.08c0,1.01.61,1.67,1.55,1.67.68,0,1.12-.23,1.62-.82.2-.2.36-.27.6-.27.4,0,.72.25.72.68,0,.15-.04.3-.13.45-.45.84-1.5,1.33-2.82,1.33-2.13,0-3.38-1.31-3.38-3.52Zm4.73-.74c-.04-.89-.61-1.47-1.42-1.47s-1.4.6-1.47,1.47h2.89Z"/><path class="cls-13" d="m333.74,939.79v-4.58h-.36c-.39,0-.68-.25-.68-.69s.29-.68.68-.68h.36v-.51c0-1.35.66-1.94,1.94-1.96.98,0,1.4.31,1.4.75,0,.26-.13.41-.37.49-.1.03-.22.04-.36.05-.57.02-.8.25-.8.75v.43h.78c.39,0,.68.25.68.68s-.29.69-.68.69h-.74v4.58c0,.64-.38.96-.93.96s-.93-.32-.93-.96Z"/><path class="cls-13" d="m337.43,937.25c0-2.19,1.28-3.58,3.29-3.58s3.22,1.32,3.22,3.17c0,.51-.29.81-.81.81h-3.88v.08c0,1.01.61,1.67,1.55,1.67.68,0,1.12-.23,1.62-.82.2-.2.36-.27.6-.27.4,0,.72.25.72.68,0,.15-.04.3-.13.45-.45.84-1.5,1.33-2.82,1.33-2.13,0-3.38-1.31-3.38-3.52Zm4.73-.74c-.04-.89-.61-1.47-1.42-1.47s-1.4.6-1.47,1.47h2.89Z"/><path class="cls-13" d="m344.9,939.79v-5.18c0-.58.34-.93.9-.93s.93.36.93.94v.38h.04c.36-.84,1.05-1.31,2.09-1.31,1.51,0,2.36.95,2.36,2.54v3.55c0,.63-.39.96-.93.96s-.93-.33-.93-.96v-3.17c0-.89-.42-1.4-1.25-1.4s-1.36.61-1.36,1.49v3.07c0,.63-.38.96-.93.96s-.93-.33-.93-.96Z"/><path class="cls-13" d="m352.14,937.21c0-2.16,1.08-3.5,2.79-3.5.98,0,1.75.52,2.08,1.28h.04v-2.69c0-.63.39-.97.93-.97s.93.34.93.97v7.52c0,.62-.38.94-.92.94s-.93-.32-.93-.94v-.39h-.03c-.3.76-1.05,1.31-2.09,1.31-1.7,0-2.77-1.35-2.77-3.52Zm4.91.01c0-1.24-.59-2.03-1.51-2.03s-1.5.78-1.5,2.03.57,2.02,1.5,2.02,1.51-.77,1.51-2.02Z"/><path class="cls-13" d="m359.88,937.25c0-2.19,1.28-3.58,3.29-3.58s3.22,1.32,3.22,3.17c0,.51-.29.81-.81.81h-3.88v.08c0,1.01.61,1.67,1.55,1.67.68,0,1.12-.23,1.62-.82.2-.2.36-.27.6-.27.4,0,.72.25.72.68,0,.15-.04.3-.13.45-.45.84-1.5,1.33-2.82,1.33-2.13,0-3.38-1.31-3.38-3.52Zm4.73-.74c-.04-.89-.61-1.47-1.42-1.47s-1.4.6-1.47,1.47h2.89Z"/><path class="cls-13" d="m367.35,939.79v-5.18c0-.59.36-.93.9-.93s.88.34.88.93v.45h.04c.18-.84.74-1.35,1.42-1.35.25,0,.44.06.58.17.18.14.27.37.27.69,0,.29-.09.51-.27.67s-.44.23-.81.24c-.84.01-1.14.49-1.14,1.29v3.02c0,.62-.36.96-.93.96s-.93-.35-.93-.96Z"/><path class="cls-13" d="m374.68,939.02c-.06-.17-.1-.34-.1-.51,0-.51.35-.84.84-.84.39,0,.65.15.88.56.3.7,1.02,1.02,1.89,1.02,1.03,0,1.73-.49,1.73-1.17,0-.6-.43-.95-1.58-1.18l-.97-.19c-1.83-.36-2.72-1.24-2.72-2.6,0-1.68,1.46-2.79,3.5-2.79,1.68,0,2.94.71,3.35,1.9.04.13.07.26.07.42,0,.46-.33.77-.82.77-.43,0-.7-.17-.91-.57-.3-.69-.9-.98-1.68-.98-.95,0-1.57.44-1.57,1.12,0,.56.44.91,1.52,1.13l.96.2c1.94.39,2.78,1.17,2.78,2.56,0,1.79-1.4,2.92-3.69,2.92-1.89,0-3.1-.76-3.47-1.76Z"/><path class="cls-13" d="m382.85,942.09v-7.45c0-.62.38-.95.91-.95s.91.33.91.96v.37h.04c.37-.8,1.12-1.29,2.11-1.29,1.73,0,2.79,1.31,2.79,3.51s-1.05,3.51-2.75,3.51c-.99,0-1.75-.48-2.11-1.25h-.04v2.6c0,.63-.38.96-.93.96s-.93-.33-.93-.96Zm4.86-4.86c0-1.23-.58-2.03-1.51-2.03s-1.5.81-1.5,2.03.6,2.02,1.5,2.02,1.51-.78,1.51-2.02Z"/><path class="cls-13" d="m390.3,938.67c0-1.24.95-1.96,2.65-2.06l1.71-.1v-.45c0-.63-.44-1-1.14-1-.56,0-.91.18-1.32.72-.2.23-.44.34-.74.34-.45,0-.77-.29-.77-.71,0-.15.03-.28.1-.42.32-.81,1.41-1.31,2.82-1.31,1.75,0,2.88.9,2.88,2.27v3.88c0,.62-.37.93-.9.93s-.85-.28-.89-.82v-.35h-.04c-.38.72-1.23,1.15-2.08,1.15-1.29,0-2.28-.84-2.28-2.06Zm4.37-.54v-.5l-1.43.09c-.69.05-1.09.36-1.09.84,0,.51.42.83,1.04.83.81,0,1.48-.53,1.48-1.26Z"/><path class="cls-13" d="m398.76,939.79l-1.37-4.74c-.07-.24-.1-.39-.1-.57,0-.46.37-.79.9-.79.46,0,.76.28.87.79l1.01,4.4h.04l1.05-4.34c.12-.55.48-.85,1.05-.85s.91.3,1.03.85l1.06,4.34h.04l1.02-4.41c.1-.5.4-.77.86-.77.51,0,.88.32.88.79,0,.17-.03.32-.1.57l-1.37,4.75c-.19.67-.55.98-1.19.98-.68,0-1.04-.29-1.2-.98l-1.03-3.96h-.04l-1.03,3.97c-.16.67-.53.97-1.19.97s-.98-.3-1.17-.97Z"/><path class="cls-13" d="m407.92,939.79v-5.18c0-.58.34-.93.9-.93s.93.36.93.94v.38h.04c.36-.84,1.05-1.31,2.09-1.31,1.51,0,2.36.95,2.36,2.54v3.55c0,.63-.39.96-.93.96s-.93-.33-.93-.96v-3.17c0-.89-.42-1.4-1.25-1.4s-1.36.61-1.36,1.49v3.07c0,.63-.38.96-.93.96s-.93-.33-.93-.96Z"/><path class="cls-1" d="m34.37,406.24v-6.06c0-.53.3-.84.81-.84h2.56c1.46,0,2.37.75,2.37,1.93,0,.85-.63,1.56-1.46,1.68v.04c1.05.08,1.83.85,1.83,1.87,0,1.37-1.03,2.22-2.68,2.22h-2.62c-.51,0-.81-.31-.81-.85Zm2.79-3.68c.86,0,1.36-.38,1.36-1.04s-.44-.98-1.19-.98h-1.33v2.01h1.17Zm.23,3.32c.93,0,1.44-.4,1.44-1.14s-.52-1.11-1.48-1.11h-1.36v2.25h1.4Z"/><path class="cls-1" d="m41.07,404.24c0-1.85,1.08-3.03,2.78-3.03s2.73,1.12,2.73,2.68c0,.44-.25.68-.68.68h-3.29v.07c0,.85.52,1.41,1.31,1.41.57,0,.95-.19,1.38-.69.17-.17.31-.23.51-.23.34,0,.61.21.61.58,0,.12-.04.25-.11.38-.38.71-1.27,1.13-2.38,1.13-1.8,0-2.86-1.11-2.86-2.97Zm4-.63c-.03-.75-.52-1.24-1.2-1.24s-1.19.5-1.24,1.24h2.44Z"/><path class="cls-1" d="m47.42,406.39v-6.34c0-.54.33-.82.78-.82s.78.29.78.82v6.34c0,.54-.32.82-.78.82s-.78-.28-.78-.82Z"/><path class="cls-1" d="m50.47,402.51h-.3c-.37,0-.61-.23-.61-.59s.24-.59.61-.59h.3v-.64c0-.51.3-.82.78-.82s.78.31.78.82v.64h.55c.37,0,.6.23.6.59s-.23.59-.6.59h-.55v2.76c0,.41.14.58.48.61h.1c.39.05.6.21.6.58,0,.46-.45.7-1.11.7h-.05c-1.05,0-1.58-.52-1.58-1.54v-3.1Z"/><path class="cls-1" d="m42.45,474.65c-.09-.22-.13-.42-.13-.65,0-.47.3-.76.75-.76.41,0,.64.19.77.63.15.52.5.81,1.02.81.68,0,1.04-.42,1.04-1.2v-4.54c0-.54.3-.85.81-.85s.81.31.81.85v4.55c0,1.65-.99,2.58-2.65,2.58-1.17,0-2.06-.53-2.43-1.42Z"/><path class="cls-1" d="m48.52,474.29c0-1.05.81-1.65,2.25-1.74l1.45-.09v-.38c0-.54-.38-.85-.97-.85-.48,0-.77.16-1.12.61-.17.19-.37.29-.62.29-.38,0-.66-.25-.66-.6,0-.12.03-.24.08-.35.27-.69,1.19-1.11,2.38-1.11,1.48,0,2.44.76,2.44,1.92v3.28c0,.52-.32.79-.76.79s-.72-.24-.75-.7v-.29h-.03c-.32.61-1.04.97-1.76.97-1.1,0-1.93-.71-1.93-1.75Zm3.7-.46v-.42l-1.21.07c-.59.04-.92.31-.92.71,0,.43.35.7.88.7.69,0,1.25-.45,1.25-1.07Z"/><path class="cls-1" d="m54.74,468.66c0-.46.37-.81.84-.81s.84.35.84.81-.37.81-.84.81-.84-.36-.84-.81Zm.05,6.58v-4.35c0-.51.3-.82.78-.82s.78.31.78.82v4.35c0,.51-.3.82-.78.82s-.78-.31-.78-.82Z"/><path class="cls-1" d="m57.44,475.25v-6.34c0-.54.33-.82.78-.82s.78.29.78.82v6.34c0,.54-.32.82-.78.82s-.78-.28-.78-.82Z"/><path class="cls-1" d="m107.11,475.62v-6.34c0-.52.3-.81.82-.81.33,0,.56.13.81.47l3.35,4.68h.04v-4.34c0-.52.29-.82.78-.82s.77.29.77.82v6.35c0,.5-.28.79-.79.79-.35,0-.56-.12-.81-.47l-3.36-4.71h-.05v4.37c0,.52-.29.81-.77.81s-.78-.29-.78-.81Z"/><path class="cls-1" d="m114.62,473.48c0-1.85,1.08-3.03,2.78-3.03s2.73,1.12,2.73,2.68c0,.44-.25.68-.68.68h-3.29v.07c0,.85.52,1.41,1.31,1.41.57,0,.95-.19,1.38-.69.17-.17.31-.23.51-.23.34,0,.61.21.61.58,0,.12-.04.25-.11.38-.38.71-1.27,1.13-2.38,1.13-1.8,0-2.86-1.11-2.86-2.97Zm4-.63c-.03-.75-.52-1.24-1.2-1.24s-1.19.5-1.24,1.24h2.44Z"/><path class="cls-1" d="m120.81,475.3c-.04-.1-.06-.21-.06-.29,0-.36.27-.6.63-.6.25,0,.47.11.68.36.31.4.66.58,1.26.58s.94-.24.94-.62c0-.31-.2-.48-.76-.6l-.97-.2c-1.13-.24-1.7-.82-1.7-1.67,0-1.1.95-1.81,2.44-1.81,1.19,0,2.07.54,2.26,1.19.02.08.04.16.04.23,0,.32-.2.54-.6.54-.2,0-.43-.08-.57-.24-.27-.35-.59-.62-1.15-.62-.53,0-.9.25-.9.62,0,.3.23.5.8.62l.95.2c1.22.26,1.73.71,1.73,1.57,0,1.14-1.03,1.88-2.55,1.88-1.32,0-2.2-.47-2.48-1.15Z"/><path class="cls-1" d="m127.02,471.75h-.3c-.37,0-.61-.23-.61-.59s.24-.59.61-.59h.3v-.64c0-.51.3-.82.78-.82s.78.31.78.82v.64h.55c.37,0,.6.23.6.59s-.23.59-.6.59h-.55v2.76c0,.41.14.58.48.61h.1c.39.05.6.21.6.58,0,.46-.45.7-1.11.7h-.05c-1.05,0-1.58-.52-1.58-1.54v-3.1Z"/><path class="cls-1" d="m132.7,539.52v-6.17c0-.53.3-.84.81-.84h2.34c1.59,0,2.69,1.06,2.69,2.65s-1.13,2.65-2.77,2.65h-1.45v1.7c0,.53-.3.84-.81.84s-.81-.31-.81-.84Zm2.72-2.97c.93,0,1.47-.49,1.47-1.38s-.54-1.38-1.47-1.38h-1.1v2.76h1.1Z"/><path class="cls-1" d="m139.34,532.98c0-.46.37-.81.84-.81s.84.35.84.81-.37.81-.84.81-.84-.36-.84-.81Zm.05,6.58v-4.35c0-.51.3-.82.78-.82s.78.31.78.82v4.35c0,.51-.3.82-.78.82s-.78-.31-.78-.82Z"/><path class="cls-1" d="m142,541.5v-6.31c0-.53.32-.81.77-.81s.77.28.77.81v.31h.03c.31-.68.95-1.1,1.78-1.1,1.46,0,2.36,1.11,2.36,2.97s-.89,2.97-2.33,2.97c-.84,0-1.48-.41-1.79-1.06h-.03v2.2c0,.54-.32.82-.78.82s-.78-.28-.78-.82Zm4.11-4.11c0-1.04-.49-1.71-1.28-1.71s-1.27.68-1.27,1.71.5,1.71,1.27,1.71,1.28-.66,1.28-1.71Z"/><path class="cls-1" d="m148.32,537.41c0-1.85,1.08-3.03,2.78-3.03s2.73,1.12,2.73,2.68c0,.44-.25.68-.68.68h-3.29v.07c0,.85.52,1.41,1.31,1.41.57,0,.95-.19,1.38-.69.17-.17.31-.23.51-.23.34,0,.61.21.61.58,0,.12-.04.25-.11.38-.38.71-1.27,1.13-2.38,1.13-1.8,0-2.86-1.11-2.86-2.97Zm4-.63c-.03-.75-.52-1.24-1.2-1.24s-1.19.5-1.24,1.24h2.44Z"/><path class="cls-1" d="m154.51,539.24c-.04-.1-.06-.21-.06-.29,0-.36.27-.6.63-.6.25,0,.47.11.68.36.31.4.66.58,1.26.58s.94-.24.94-.62c0-.31-.2-.48-.76-.6l-.97-.2c-1.13-.24-1.7-.82-1.7-1.67,0-1.1.95-1.81,2.44-1.81,1.19,0,2.07.54,2.26,1.19.02.08.04.16.04.23,0,.32-.2.54-.6.54-.2,0-.43-.08-.57-.24-.27-.35-.59-.62-1.15-.62-.53,0-.9.25-.9.62,0,.3.23.5.8.62l.95.2c1.22.26,1.73.71,1.73,1.57,0,1.14-1.03,1.88-2.55,1.88-1.32,0-2.2-.47-2.48-1.15Z"/><path class="cls-1" d="m101.92,609.34v-.75h-2.89c-.59,0-.98-.37-.98-.91,0-.33.1-.63.34-1.06.53-.96,1.31-2.14,2.15-3.39.54-.82.93-1.09,1.58-1.09.82,0,1.34.45,1.34,1.17v3.98h.44c.43,0,.67.27.67.65s-.24.64-.67.64h-.44v.75c0,.52-.33.79-.77.79s-.77-.27-.77-.79Zm.03-5.9h-.03c-1.11,1.59-1.82,2.69-2.45,3.86v.04h2.48v-3.9Z"/><path class="cls-1" d="m105.37,606.86c0-.43.32-.68.74-.68h2.24c.42,0,.74.25.74.68s-.32.69-.74.69h-2.24c-.42,0-.74-.25-.74-.69Z"/><path class="cls-1" d="m111.9,609.32v-5.55h-.03l-1.13.79c-.15.11-.26.15-.43.15-.33,0-.57-.24-.57-.58,0-.25.1-.43.35-.61l1.54-1.06c.38-.26.63-.31.97-.31.57,0,.92.35.92.91v6.26c0,.49-.32.81-.8.81s-.81-.32-.81-.81Z"/><path class="cls-1" d="m115.15,606.13c0-2.5,1.21-4.04,3.16-4.04s3.16,1.53,3.16,4.03-1.19,4.07-3.16,4.07-3.16-1.55-3.16-4.06Zm4.67,0c0-1.77-.56-2.74-1.51-2.74s-1.51.98-1.51,2.74.56,2.76,1.51,2.76,1.51-.98,1.51-2.76Z"/><path class="cls-1" d="m220.93,644.43c-.05-.14-.09-.29-.09-.43,0-.43.3-.71.71-.71.33,0,.55.13.75.47.25.59.86.86,1.6.86.87,0,1.46-.42,1.46-.99,0-.51-.37-.8-1.34-1l-.82-.16c-1.55-.31-2.3-1.05-2.3-2.2,0-1.42,1.24-2.36,2.96-2.36,1.42,0,2.49.6,2.83,1.61.04.11.06.22.06.36,0,.39-.28.65-.69.65-.37,0-.59-.14-.77-.48-.26-.58-.76-.83-1.42-.83-.8,0-1.33.38-1.33.95,0,.48.37.77,1.29.96l.82.17c1.64.33,2.35.99,2.35,2.16,0,1.51-1.19,2.47-3.12,2.47-1.6,0-2.63-.64-2.94-1.49Z"/><path class="cls-1" d="m227.63,642.91c0-1.84,1.1-3,2.83-3,1.15,0,2.12.56,2.43,1.38.05.13.09.27.09.39,0,.39-.3.61-.67.61-.31,0-.5-.12-.66-.41-.28-.5-.63-.74-1.13-.74-.79,0-1.28.66-1.28,1.77s.49,1.78,1.27,1.78c.55,0,.89-.27,1.13-.68.21-.33.38-.46.71-.46.37,0,.66.24.66.63,0,.12-.03.25-.1.41-.34.79-1.33,1.33-2.43,1.33-1.73,0-2.84-1.14-2.84-3Z"/><path class="cls-1" d="m233.84,645.08v-4.38c0-.5.31-.79.76-.79s.74.29.74.79v.38h.03c.15-.71.62-1.14,1.2-1.14.21,0,.38.05.49.15.15.12.23.31.23.58,0,.25-.08.43-.23.56s-.38.2-.68.21c-.71,0-.97.41-.97,1.1v2.56c0,.52-.31.82-.78.82s-.78-.3-.78-.82Z"/><path class="cls-1" d="m237.44,642.94c0-1.85,1.08-3.03,2.78-3.03s2.73,1.12,2.73,2.68c0,.44-.25.68-.68.68h-3.29v.07c0,.85.52,1.41,1.31,1.41.57,0,.95-.19,1.38-.69.17-.17.31-.23.51-.23.34,0,.61.21.61.58,0,.12-.04.25-.11.38-.38.71-1.27,1.13-2.38,1.13-1.8,0-2.86-1.11-2.86-2.97Zm4-.63c-.03-.75-.52-1.24-1.2-1.24s-1.19.5-1.24,1.24h2.44Z"/><path class="cls-1" d="m243.55,642.94c0-1.85,1.08-3.03,2.78-3.03s2.73,1.12,2.73,2.68c0,.44-.25.68-.68.68h-3.29v.07c0,.85.52,1.41,1.31,1.41.57,0,.95-.19,1.37-.69.17-.17.31-.23.51-.23.34,0,.61.21.61.58,0,.12-.04.25-.11.38-.38.71-1.27,1.13-2.38,1.13-1.8,0-2.86-1.11-2.86-2.97Zm4-.63c-.03-.75-.52-1.24-1.2-1.24s-1.19.5-1.24,1.24h2.44Z"/><path class="cls-1" d="m249.86,645.08v-4.38c0-.49.28-.79.76-.79s.78.3.78.79v.32h.03c.31-.71.89-1.11,1.77-1.11,1.28,0,2,.81,2,2.15v3.01c0,.54-.33.82-.78.82s-.78-.28-.78-.82v-2.68c0-.75-.35-1.18-1.06-1.18s-1.15.52-1.15,1.26v2.6c0,.54-.32.82-.78.82s-.78-.28-.78-.82Z"/><path class="cls-1" d="m116.85,725.35v-6.18c0-.53.3-.84.81-.84h2.36c1.78,0,2.8.94,2.8,2.47,0,.97-.48,1.79-1.33,2.16l1.12,1.93c.13.23.17.37.17.56,0,.43-.34.74-.82.74-.39,0-.56-.14-.83-.61l-1.29-2.34h-1.38v2.11c0,.53-.3.84-.81.84s-.81-.31-.81-.84Zm3.02-3.28c.82,0,1.29-.47,1.29-1.24s-.5-1.23-1.31-1.23h-1.38v2.47h1.4Z"/><path class="cls-1" d="m123.51,724.42c0-1.05.81-1.65,2.25-1.74l1.45-.09v-.38c0-.54-.38-.85-.97-.85-.48,0-.77.16-1.12.61-.17.19-.37.29-.62.29-.38,0-.66-.25-.66-.6,0-.12.03-.24.08-.35.27-.69,1.19-1.11,2.38-1.11,1.48,0,2.44.76,2.44,1.92v3.28c0,.52-.32.79-.76.79s-.72-.24-.75-.7v-.29h-.03c-.32.61-1.04.97-1.76.97-1.1,0-1.93-.71-1.93-1.75Zm3.7-.46v-.42l-1.21.07c-.59.04-.92.31-.92.71,0,.43.35.7.88.7.69,0,1.25-.45,1.25-1.07Z"/><path class="cls-1" d="m130.17,725.38v-3.87h-.3c-.33,0-.57-.21-.57-.58s.25-.57.57-.57h.3v-.44c0-1.14.56-1.64,1.64-1.65.83,0,1.18.26,1.18.63,0,.22-.11.35-.32.41-.09.02-.18.04-.3.04-.48.02-.68.21-.68.63v.37h.66c.33,0,.57.21.57.57s-.25.58-.57.58h-.62v3.87c0,.54-.32.82-.78.82s-.78-.27-.78-.82Z"/><path class="cls-1" d="m134.09,721.5h-.3c-.37,0-.61-.23-.61-.59s.24-.59.61-.59h.3v-.64c0-.51.3-.82.78-.82s.78.31.78.82v.64h.55c.37,0,.6.23.6.59s-.23.59-.6.59h-.55v2.76c0,.41.14.58.48.61h.1c.39.05.6.21.6.58,0,.46-.45.7-1.11.7h-.05c-1.05,0-1.58-.52-1.58-1.54v-3.1Z"/><path class="cls-1" d="m137.29,723.23c0-1.85,1.08-3.03,2.78-3.03s2.73,1.12,2.73,2.68c0,.44-.25.68-.68.68h-3.29v.07c0,.85.52,1.41,1.31,1.41.57,0,.95-.19,1.38-.69.17-.17.31-.23.51-.23.34,0,.61.21.61.58,0,.12-.04.25-.11.38-.38.71-1.27,1.13-2.38,1.13-1.8,0-2.86-1.11-2.86-2.97Zm4-.63c-.03-.75-.52-1.24-1.2-1.24s-1.19.5-1.24,1.24h2.44Z"/><path class="cls-1" d="m143.61,725.38v-4.38c0-.5.31-.79.76-.79s.74.29.74.79v.38h.03c.15-.71.62-1.14,1.2-1.14.21,0,.38.05.49.15.15.12.23.31.23.58,0,.25-.08.43-.23.56s-.38.2-.68.21c-.71,0-.97.41-.97,1.1v2.56c0,.52-.31.82-.78.82s-.78-.3-.78-.82Z"/><path class="cls-1" d="m147.48,725.05c-.04-.1-.06-.21-.06-.29,0-.36.27-.6.63-.6.25,0,.47.11.68.36.31.4.66.58,1.26.58s.94-.24.94-.62c0-.31-.2-.48-.76-.6l-.97-.2c-1.13-.24-1.7-.82-1.7-1.67,0-1.1.95-1.81,2.44-1.81,1.19,0,2.07.54,2.26,1.19.02.08.04.16.04.23,0,.32-.2.54-.6.54-.2,0-.43-.08-.57-.24-.27-.35-.59-.62-1.15-.62-.53,0-.9.25-.9.62,0,.3.23.5.8.62l.95.2c1.22.26,1.73.71,1.73,1.57,0,1.14-1.03,1.88-2.55,1.88-1.32,0-2.2-.47-2.48-1.15Z"/><path class="cls-1" d="m362.68,638.17v-6.06c0-.53.3-.84.81-.84h2.56c1.46,0,2.37.75,2.37,1.93,0,.85-.63,1.56-1.46,1.68v.04c1.05.08,1.83.85,1.83,1.88,0,1.36-1.03,2.22-2.68,2.22h-2.62c-.51,0-.81-.31-.81-.85Zm2.79-3.68c.86,0,1.36-.38,1.36-1.04s-.44-.98-1.19-.98h-1.33v2.01h1.17Zm.23,3.32c.93,0,1.44-.4,1.44-1.14s-.52-1.11-1.48-1.11h-1.36v2.25h1.4Z"/><path class="cls-1" d="m369.38,636.14c0-1.86,1.13-3,2.85-3s2.85,1.13,2.85,3-1.11,3.01-2.85,3.01-2.85-1.12-2.85-3.01Zm4.11,0c0-1.14-.49-1.8-1.26-1.8s-1.26.66-1.26,1.8.49,1.8,1.26,1.8,1.26-.65,1.26-1.8Z"/><path class="cls-1" d="m375.86,631.74c0-.46.37-.81.84-.81s.84.36.84.81-.37.81-.84.81-.84-.36-.84-.81Zm.05,6.58v-4.35c0-.51.3-.82.78-.82s.78.31.78.82v4.35c0,.51-.3.82-.78.82s-.78-.31-.78-.82Z"/><path class="cls-1" d="m378.56,638.32v-6.34c0-.54.33-.82.78-.82s.78.28.78.82v6.34c0,.54-.32.82-.78.82s-.78-.28-.78-.82Z"/><path class="cls-1" d="m380.98,636.17c0-1.85,1.08-3.03,2.78-3.03s2.73,1.12,2.73,2.68c0,.43-.25.68-.68.68h-3.29v.07c0,.85.52,1.41,1.31,1.41.57,0,.95-.19,1.38-.69.17-.17.31-.23.51-.23.34,0,.61.21.61.57,0,.12-.04.25-.11.38-.38.71-1.27,1.13-2.38,1.13-1.8,0-2.86-1.11-2.86-2.98Zm4-.63c-.03-.75-.52-1.24-1.2-1.24s-1.19.51-1.24,1.24h2.44Z"/><path class="cls-1" d="m387.3,638.32v-4.38c0-.5.31-.79.76-.79s.74.29.74.79v.38h.03c.15-.71.62-1.14,1.2-1.14.21,0,.38.05.49.14.15.12.23.31.23.58,0,.25-.08.44-.23.56s-.38.2-.68.2c-.71.01-.97.41-.97,1.1v2.56c0,.52-.31.82-.78.82s-.78-.29-.78-.82Z"/><path class="cls-1" d="m272.18,543.52v-6.17c0-.53.3-.84.81-.84h2.34c1.59,0,2.69,1.06,2.69,2.65s-1.13,2.65-2.77,2.65h-1.45v1.7c0,.53-.3.84-.81.84s-.81-.31-.81-.84Zm2.72-2.97c.93,0,1.47-.49,1.47-1.38s-.54-1.38-1.47-1.38h-1.1v2.76h1.1Z"/><path class="cls-1" d="m278.24,542.6c0-1.05.81-1.65,2.25-1.74l1.45-.09v-.38c0-.54-.38-.85-.97-.85-.48,0-.77.16-1.12.61-.17.19-.37.29-.62.29-.38,0-.66-.25-.66-.6,0-.12.03-.24.08-.35.27-.69,1.19-1.11,2.38-1.11,1.48,0,2.44.76,2.44,1.92v3.28c0,.52-.32.79-.76.79s-.72-.24-.75-.7v-.29h-.03c-.32.61-1.04.97-1.76.97-1.1,0-1.93-.71-1.93-1.75Zm3.7-.46v-.42l-1.21.07c-.59.04-.92.31-.92.71,0,.43.35.7.88.7.69,0,1.25-.45,1.25-1.07Z"/><path class="cls-1" d="m284.52,543.56v-6.34c0-.54.33-.82.78-.82s.78.29.78.82v6.34c0,.54-.32.82-.78.82s-.78-.28-.78-.82Z"/><path class="cls-1" d="m287.19,543.56v-6.34c0-.54.33-.82.78-.82s.78.29.78.82v6.34c0,.54-.32.82-.78.82s-.78-.28-.78-.82Z"/><path class="cls-1" d="m289.61,541.41c0-1.85,1.08-3.03,2.78-3.03s2.73,1.12,2.73,2.68c0,.44-.25.68-.68.68h-3.29v.07c0,.85.52,1.41,1.31,1.41.57,0,.95-.19,1.38-.69.17-.17.31-.23.51-.23.34,0,.61.21.61.58,0,.12-.04.25-.11.38-.38.71-1.27,1.13-2.38,1.13-1.8,0-2.86-1.11-2.86-2.97Zm4-.63c-.03-.75-.52-1.24-1.2-1.24s-1.19.5-1.24,1.24h2.44Z"/><path class="cls-1" d="m296.34,539.68h-.3c-.37,0-.61-.23-.61-.59s.24-.59.61-.59h.3v-.64c0-.51.3-.82.78-.82s.78.31.78.82v.64h.55c.37,0,.6.23.6.59s-.23.59-.6.59h-.55v2.76c0,.41.14.58.48.61h.1c.39.05.6.21.6.58,0,.46-.45.7-1.11.7h-.05c-1.05,0-1.58-.52-1.58-1.54v-3.1Z"/><path class="cls-1" d="m435.48,465.82v-5.67h-1.6c-.44,0-.74-.25-.74-.67s.29-.67.74-.67h4.83c.44,0,.73.25.73.67s-.3.67-.73.67h-1.61v5.67c0,.53-.3.84-.81.84s-.81-.31-.81-.84Z"/><path class="cls-1" d="m439.37,464.51v-3.01c0-.54.33-.82.78-.82s.78.28.78.82v2.68c0,.77.38,1.18,1.07,1.18s1.13-.5,1.13-1.26v-2.59c0-.54.33-.82.78-.82s.79.28.79.82v4.37c0,.52-.31.79-.76.79s-.76-.27-.76-.79v-.36h-.03c-.29.73-.85,1.14-1.72,1.14-1.25,0-2.07-.81-2.07-2.15Z"/><path class="cls-1" d="m445.78,465.88v-6.37c0-.54.33-.82.78-.82s.78.29.78.82v2.29h.03c.32-.68.96-1.09,1.78-1.09,1.46,0,2.34,1.11,2.34,2.97s-.88,2.97-2.34,2.97c-.84,0-1.48-.41-1.8-1.08h-.03v.31c0,.52-.32.79-.78.79s-.77-.27-.77-.79Zm4.11-2.2c0-1.05-.49-1.71-1.27-1.71s-1.28.68-1.28,1.71.52,1.71,1.28,1.71,1.27-.66,1.27-1.71Z"/><path class="cls-1" d="m452.1,463.71c0-1.85,1.08-3.03,2.78-3.03s2.73,1.12,2.73,2.68c0,.44-.25.68-.68.68h-3.29v.07c0,.85.52,1.41,1.31,1.41.58,0,.95-.19,1.38-.69.17-.17.31-.23.51-.23.34,0,.61.21.61.58,0,.12-.04.25-.11.38-.38.71-1.27,1.13-2.38,1.13-1.8,0-2.86-1.11-2.86-2.97Zm4-.63c-.03-.75-.52-1.24-1.2-1.24s-1.19.5-1.24,1.24h2.44Z"/><path class="cls-1" d="m449.51,660.96v-6.27c0-.54.3-.85.81-.85s.81.31.81.85v2.69h.05l2.92-3.19c.23-.25.43-.35.7-.35.43,0,.76.33.76.75,0,.23-.08.4-.29.62l-2.14,2.24,2.33,2.83c.24.3.35.53.35.75,0,.44-.34.78-.78.78-.33,0-.56-.12-.81-.45l-2.31-2.84-.77.81v1.63c0,.53-.3.84-.81.84s-.81-.31-.81-.84Z"/><path class="cls-1" d="m456.61,654.41c0-.46.37-.81.84-.81s.84.36.84.81-.37.81-.84.81-.84-.36-.84-.81Zm.05,6.58v-4.35c0-.51.3-.82.79-.82s.78.31.78.82v4.35c0,.51-.3.82-.78.82s-.79-.31-.79-.82Z"/><path class="cls-1" d="m459.7,657.12h-.3c-.37,0-.61-.23-.61-.59s.24-.59.61-.59h.3v-.64c0-.5.3-.82.79-.82s.78.31.78.82v.64h.55c.37,0,.6.23.6.59s-.23.59-.6.59h-.55v2.75c0,.41.14.58.48.61h.1c.39.05.6.21.6.58,0,.46-.45.7-1.11.7h-.05c-1.05,0-1.58-.52-1.58-1.54v-3.1Z"/><path class="cls-1" d="m462.9,658.82c0-1.84,1.1-3,2.83-3,1.15,0,2.12.56,2.43,1.38.05.13.09.27.09.39,0,.39-.3.61-.67.61-.31,0-.5-.12-.66-.41-.29-.51-.63-.74-1.13-.74-.79,0-1.28.66-1.28,1.77s.49,1.78,1.27,1.78c.55,0,.89-.27,1.13-.68.21-.33.38-.46.71-.46.37,0,.66.24.66.63,0,.12-.03.25-.1.41-.34.78-1.33,1.33-2.43,1.33-1.73,0-2.84-1.14-2.84-3Z"/><path class="cls-1" d="m469.14,660.99v-6.36c0-.5.29-.8.77-.8s.77.3.77.8v2.33h.03c.31-.73.93-1.13,1.81-1.13,1.28,0,2.01.83,2.01,2.16v3c0,.54-.32.82-.79.82s-.78-.28-.78-.82v-2.67c0-.74-.37-1.19-1.08-1.19s-1.18.52-1.18,1.28v2.58c0,.54-.32.82-.79.82s-.78-.28-.78-.82Z"/><path class="cls-1" d="m475.32,658.84c0-1.85,1.08-3.03,2.78-3.03s2.73,1.12,2.73,2.68c0,.43-.25.68-.68.68h-3.29v.07c0,.85.52,1.41,1.31,1.41.58,0,.95-.19,1.38-.69.17-.17.31-.23.51-.23.34,0,.61.21.61.57,0,.12-.04.25-.11.38-.38.71-1.27,1.13-2.38,1.13-1.8,0-2.86-1.11-2.86-2.98Zm4-.63c-.03-.75-.52-1.24-1.2-1.24s-1.19.51-1.24,1.24h2.44Z"/><path class="cls-1" d="m481.64,660.99v-4.38c0-.49.29-.79.76-.79s.78.3.78.79v.32h.03c.31-.71.89-1.11,1.77-1.11,1.28,0,2,.81,2,2.15v3.01c0,.54-.33.82-.78.82s-.79-.28-.79-.82v-2.68c0-.75-.35-1.18-1.06-1.18s-1.15.52-1.15,1.26v2.6c0,.54-.32.82-.78.82s-.78-.28-.78-.82Z"/><path class="cls-1" d="m622.87,638.9v-6.27c0-.54.3-.85.81-.85s.81.31.81.85v2.41h3.49v-2.41c0-.54.3-.85.81-.85s.81.31.81.85v6.27c0,.53-.3.84-.81.84s-.81-.31-.81-.84v-2.52h-3.49v2.52c0,.53-.3.84-.81.84s-.81-.31-.81-.84Z"/><path class="cls-1" d="m630.42,637.99c0-1.05.81-1.65,2.25-1.74l1.45-.09v-.38c0-.54-.38-.85-.97-.85-.48,0-.77.16-1.12.61-.17.19-.37.29-.62.29-.38,0-.66-.25-.66-.6,0-.12.03-.24.08-.35.27-.69,1.19-1.11,2.38-1.11,1.48,0,2.44.76,2.44,1.92v3.28c0,.52-.32.79-.76.79s-.72-.24-.75-.7v-.3h-.03c-.32.61-1.04.97-1.76.97-1.1,0-1.93-.71-1.93-1.75Zm3.7-.46v-.42l-1.21.08c-.59.04-.92.31-.92.71,0,.43.35.7.88.7.69,0,1.25-.45,1.25-1.07Z"/><path class="cls-1" d="m636.7,638.94v-6.34c0-.54.33-.82.78-.82s.78.28.78.82v6.34c0,.54-.32.82-.78.82s-.78-.28-.78-.82Z"/><path class="cls-1" d="m639.36,638.94v-6.34c0-.54.33-.82.78-.82s.78.28.78.82v6.34c0,.54-.32.82-.78.82s-.78-.28-.78-.82Z"/><path class="cls-1" d="m764.77,720.38c-.05-.14-.09-.29-.09-.44,0-.43.3-.71.71-.71.33,0,.55.13.75.47.25.59.86.86,1.6.86.87,0,1.46-.42,1.46-.99,0-.51-.37-.8-1.34-1l-.82-.16c-1.55-.31-2.3-1.05-2.3-2.2,0-1.42,1.24-2.36,2.96-2.36,1.42,0,2.49.6,2.83,1.61.04.11.06.22.06.36,0,.39-.28.65-.69.65-.37,0-.59-.15-.77-.48-.26-.59-.76-.83-1.42-.83-.8,0-1.33.38-1.33.95,0,.48.37.77,1.29.96l.82.17c1.64.33,2.35.99,2.35,2.17,0,1.51-1.19,2.47-3.12,2.47-1.6,0-2.63-.64-2.94-1.49Z"/><path class="cls-1" d="m771.68,721.04v-4.38c0-.49.28-.79.76-.79s.79.3.79.79v.32h.03c.31-.71.89-1.11,1.77-1.11,1.28,0,2,.81,2,2.15v3.01c0,.54-.33.82-.79.82s-.78-.28-.78-.82v-2.68c0-.75-.36-1.18-1.06-1.18s-1.15.52-1.15,1.26v2.6c0,.54-.32.82-.78.82s-.78-.28-.78-.82Z"/><path class="cls-1" d="m777.81,718.86c0-1.86,1.13-3,2.85-3s2.85,1.13,2.85,3-1.11,3.01-2.85,3.01-2.85-1.12-2.85-3.01Zm4.11,0c0-1.14-.49-1.8-1.26-1.8s-1.26.66-1.26,1.8.49,1.8,1.26,1.8,1.26-.65,1.26-1.8Z"/><path class="cls-1" d="m785.2,721.03l-1.16-4.01c-.06-.2-.09-.33-.09-.48,0-.39.32-.67.76-.67.39,0,.64.24.74.67l.85,3.72h.03l.89-3.67c.1-.47.41-.72.89-.72s.77.25.88.72l.9,3.67h.03l.86-3.73c.09-.42.34-.66.73-.66.43,0,.74.27.74.67,0,.14-.03.27-.09.48l-1.16,4.02c-.16.57-.46.83-1,.83-.57,0-.88-.25-1.02-.83l-.88-3.35h-.03l-.87,3.36c-.13.57-.45.82-1,.82s-.83-.25-.99-.82Z"/><path class="cls-1" d="m792.95,721.04v-4.37c0-.53.31-.8.76-.8s.76.27.76.8v.36h.03c.24-.69.86-1.15,1.64-1.15.83,0,1.41.43,1.61,1.18h.03c.26-.73.95-1.18,1.79-1.18,1.13,0,1.89.77,1.89,1.93v3.23c0,.53-.32.82-.79.82s-.78-.28-.78-.82v-2.84c0-.67-.33-1.03-.94-1.03s-.99.44-.99,1.07v2.79c0,.53-.29.82-.76.82s-.75-.28-.75-.82v-2.88c0-.62-.35-.98-.93-.98s-1,.45-1,1.1v2.77c0,.53-.32.82-.78.82s-.79-.28-.79-.82Z"/><path class="cls-1" d="m802.22,720.09c0-1.05.8-1.65,2.24-1.74l1.45-.09v-.38c0-.54-.38-.85-.97-.85-.48,0-.77.16-1.12.61-.17.19-.37.29-.62.29-.38,0-.66-.25-.66-.6,0-.12.03-.24.08-.35.27-.69,1.19-1.11,2.38-1.11,1.48,0,2.44.76,2.44,1.92v3.28c0,.52-.32.79-.76.79s-.72-.24-.75-.7v-.3h-.03c-.32.61-1.04.97-1.76.97-1.1,0-1.93-.71-1.93-1.75Zm3.7-.46v-.42l-1.21.08c-.58.04-.92.31-.92.71,0,.43.35.7.88.7.69,0,1.25-.45,1.25-1.07Z"/><path class="cls-1" d="m808.47,721.04v-4.38c0-.49.29-.79.76-.79s.78.3.78.79v.32h.03c.31-.71.89-1.11,1.77-1.11,1.28,0,2,.81,2,2.15v3.01c0,.54-.33.82-.78.82s-.79-.28-.79-.82v-2.68c0-.75-.35-1.18-1.06-1.18s-1.15.52-1.15,1.26v2.6c0,.54-.32.82-.78.82s-.78-.28-.78-.82Z"/><path class="cls-1" d="m813.4,435.27v-2.15l-2.36-3.65c-.12-.18-.17-.37-.17-.55,0-.44.34-.76.81-.76.35,0,.54.13.75.5l1.77,2.92h.04l1.78-2.92c.2-.35.41-.5.74-.5.46,0,.8.32.8.75,0,.19-.05.37-.17.55l-2.36,3.66v2.15c0,.53-.3.84-.81.84s-.81-.31-.81-.84Z"/><path class="cls-1" d="m816.99,433.16c0-1.85,1.08-3.03,2.78-3.03s2.73,1.12,2.73,2.68c0,.44-.25.68-.68.68h-3.29v.07c0,.85.52,1.41,1.31,1.41.57,0,.95-.19,1.38-.69.17-.17.31-.23.51-.23.34,0,.61.21.61.58,0,.12-.04.25-.11.38-.38.71-1.27,1.13-2.38,1.13-1.8,0-2.86-1.11-2.86-2.97Zm4-.63c-.03-.75-.52-1.24-1.2-1.24s-1.19.5-1.24,1.24h2.44Z"/><path class="cls-1" d="m823.34,435.3v-6.34c0-.54.33-.82.78-.82s.79.29.79.82v6.34c0,.54-.32.82-.79.82s-.78-.28-.78-.82Z"/><path class="cls-1" d="m826,435.3v-6.34c0-.54.33-.82.78-.82s.79.29.79.82v6.34c0,.54-.32.82-.79.82s-.78-.28-.78-.82Z"/><path class="cls-1" d="m828.42,433.12c0-1.86,1.13-3,2.85-3s2.85,1.13,2.85,3-1.11,3.01-2.85,3.01-2.85-1.12-2.85-3.01Zm4.11,0c0-1.14-.49-1.8-1.26-1.8s-1.26.66-1.26,1.8.49,1.8,1.26,1.8,1.26-.65,1.26-1.8Z"/><path class="cls-1" d="m835.82,435.3l-1.16-4.01c-.06-.21-.09-.33-.09-.48,0-.39.32-.67.76-.67.39,0,.64.24.74.67l.85,3.72h.03l.89-3.67c.1-.47.41-.72.89-.72s.77.25.88.72l.9,3.67h.03l.86-3.73c.09-.42.34-.66.73-.66.43,0,.74.27.74.67,0,.15-.03.27-.09.48l-1.16,4.02c-.16.57-.46.83-1,.83-.57,0-.88-.25-1.02-.83l-.88-3.35h-.03l-.87,3.36c-.13.57-.45.82-1,.82s-.83-.25-.99-.82Z"/><path class="cls-1" d="m218.42,339.97c0-.13.04-.32.11-.52l2.12-5.76c.23-.63.61-.92,1.22-.92s1.01.28,1.24.91l2.13,5.77c.08.21.1.35.1.52,0,.45-.34.76-.81.76s-.7-.21-.84-.71l-.41-1.22h-2.8l-.41,1.21c-.15.52-.39.73-.82.73-.5,0-.82-.29-.82-.76Zm4.47-2.43l-1.03-3.17h-.04l-1,3.17h2.07Z"/><path class="cls-1" d="m228.49,339.98v-6.16c0-.66.39-1.05,1.05-1.05.56,0,.88.24,1.11.84l1.92,4.76h.04l1.92-4.76c.24-.6.55-.84,1.12-.84.66,0,1.04.39,1.04,1.05v6.16c0,.48-.27.76-.73.76s-.72-.28-.72-.76v-4.58h-.04l-1.92,4.69c-.14.34-.35.49-.69.49s-.57-.16-.7-.49l-1.92-4.69h-.04v4.58c0,.48-.26.76-.72.76s-.73-.28-.73-.76Z"/><path class="cls-1" d="m237.51,338.98c0-1.05.81-1.65,2.25-1.74l1.45-.09v-.38c0-.54-.38-.85-.97-.85-.48,0-.77.16-1.12.61-.17.19-.37.29-.62.29-.38,0-.66-.25-.66-.6,0-.12.03-.24.08-.35.27-.69,1.19-1.11,2.38-1.11,1.48,0,2.44.76,2.44,1.92v3.28c0,.52-.32.79-.76.79s-.72-.24-.75-.7v-.29h-.03c-.32.61-1.04.97-1.76.97-1.1,0-1.93-.71-1.93-1.75Zm3.7-.46v-.42l-1.21.07c-.59.04-.92.31-.92.71,0,.43.35.7.88.7.69,0,1.25-.45,1.25-1.07Z"/><path class="cls-1" d="m243.73,333.35c0-.46.37-.81.84-.81s.84.35.84.81-.37.81-.84.81-.84-.36-.84-.81Zm.05,6.58v-4.35c0-.51.3-.82.78-.82s.78.31.78.82v4.35c0,.51-.3.82-.78.82s-.78-.31-.78-.82Z"/><path class="cls-1" d="m246.4,339.93v-4.38c0-.49.28-.79.76-.79s.78.3.78.79v.32h.03c.31-.71.89-1.11,1.77-1.11,1.28,0,2,.81,2,2.15v3.01c0,.54-.33.82-.78.82s-.78-.28-.78-.82v-2.68c0-.75-.35-1.18-1.06-1.18s-1.15.52-1.15,1.26v2.6c0,.54-.32.82-.78.82s-.78-.28-.78-.82Z"/><path class="cls-1" d="m398.93,477.4v-6.16c0-.66.39-1.05,1.05-1.05.56,0,.88.24,1.11.84l1.92,4.76h.04l1.92-4.76c.24-.6.55-.84,1.12-.84.66,0,1.04.39,1.04,1.05v6.16c0,.48-.27.76-.73.76s-.72-.28-.72-.76v-4.58h-.04l-1.92,4.69c-.14.34-.35.49-.69.49s-.57-.16-.7-.49l-1.92-4.69h-.04v4.58c0,.48-.26.76-.72.76s-.73-.28-.73-.76Z"/><path class="cls-1" d="m408.26,470.77c0-.46.37-.81.84-.81s.84.36.84.81-.37.81-.84.81-.84-.36-.84-.81Zm.05,6.58v-4.35c0-.51.3-.82.78-.82s.78.31.78.82v4.35c0,.51-.3.82-.78.82s-.78-.31-.78-.82Z"/><path class="cls-1" d="m410.72,475.17c0-1.83.91-2.96,2.36-2.96.83,0,1.48.44,1.76,1.08h.03v-2.28c0-.54.33-.82.78-.82s.78.28.78.82v6.36c0,.52-.32.79-.78.79s-.79-.27-.79-.79v-.33h-.03c-.25.64-.89,1.11-1.77,1.11-1.44,0-2.35-1.14-2.35-2.98Zm4.16.01c0-1.05-.5-1.71-1.28-1.71s-1.27.66-1.27,1.71.48,1.71,1.27,1.71,1.28-.66,1.28-1.71Z"/><path class="cls-1" d="m500.4,279.67c0-2.48,1.42-3.99,3.7-3.99,1.49,0,2.65.7,3.09,1.65.09.19.12.34.12.5,0,.41-.28.7-.71.7-.34,0-.58-.15-.78-.47-.38-.69-.95-1.03-1.71-1.03-1.28,0-2.05.97-2.05,2.62s.82,2.71,2.11,2.71c1.06,0,1.79-.65,1.83-1.61v-.12s-1.12,0-1.12,0c-.39,0-.65-.22-.65-.59s.26-.59.65-.59h1.9c.51,0,.81.31.81.84v.12c0,1.97-1.25,3.3-3.44,3.3-2.31,0-3.73-1.51-3.73-4.03Z"/><path class="cls-1" d="m508.22,281.91c0-1.05.81-1.65,2.25-1.74l1.45-.09v-.38c0-.54-.38-.85-.97-.85-.48,0-.77.16-1.12.61-.17.19-.37.29-.62.29-.38,0-.66-.25-.66-.6,0-.12.03-.24.08-.35.27-.69,1.19-1.11,2.38-1.11,1.48,0,2.44.76,2.44,1.92v3.28c0,.52-.32.79-.76.79s-.72-.24-.75-.7v-.29h-.03c-.32.61-1.04.97-1.76.97-1.1,0-1.93-.71-1.93-1.75Zm3.7-.46v-.42l-1.21.07c-.59.04-.92.31-.92.71,0,.43.35.7.88.7.69,0,1.25-.45,1.25-1.07Z"/><path class="cls-1" d="m514.47,282.87v-4.38c0-.5.31-.79.76-.79s.74.29.74.79v.38h.03c.15-.71.62-1.14,1.2-1.14.21,0,.38.05.49.15.15.12.23.31.23.58,0,.25-.08.43-.23.56s-.38.2-.68.21c-.71,0-.97.41-.97,1.1v2.56c0,.52-.31.82-.79.82s-.78-.3-.78-.82Z"/><path class="cls-1" d="m518.11,281.91c0-1.05.81-1.65,2.25-1.74l1.45-.09v-.38c0-.54-.38-.85-.97-.85-.48,0-.77.16-1.12.61-.17.19-.37.29-.62.29-.38,0-.65-.25-.65-.6,0-.12.03-.24.08-.35.27-.69,1.19-1.11,2.38-1.11,1.48,0,2.44.76,2.44,1.92v3.28c0,.52-.32.79-.76.79s-.72-.24-.75-.7v-.29h-.03c-.32.61-1.04.97-1.76.97-1.1,0-1.93-.71-1.93-1.75Zm3.7-.46v-.42l-1.21.07c-.59.04-.92.31-.92.71,0,.43.35.7.88.7.69,0,1.25-.45,1.25-1.07Z"/><path class="cls-1" d="m524.51,284.68c-.09-.15-.12-.29-.12-.43,0-.33.25-.58.64-.58.21,0,.37.06.54.23.42.4.83.62,1.35.63.86,0,1.36-.47,1.36-1.19v-.92h-.03c-.27.62-.94,1.03-1.77,1.03-1.43,0-2.34-1.1-2.34-2.85s.88-2.87,2.36-2.87c.83,0,1.46.44,1.76,1.09h.03v-.32c0-.53.34-.79.79-.79s.78.26.78.79v4.86c0,1.5-1.08,2.4-2.94,2.39-1.18,0-2.05-.45-2.42-1.06Zm3.8-4.06c0-1.04-.51-1.7-1.29-1.7s-1.26.65-1.26,1.7.48,1.67,1.26,1.67,1.29-.62,1.29-1.67Z"/><path class="cls-1" d="m530.67,280.72c0-1.85,1.08-3.03,2.78-3.03s2.73,1.12,2.73,2.68c0,.44-.25.68-.68.68h-3.29v.07c0,.85.52,1.41,1.31,1.41.57,0,.95-.19,1.38-.69.17-.17.31-.23.51-.23.34,0,.61.21.61.58,0,.12-.04.25-.11.38-.38.71-1.27,1.13-2.38,1.13-1.8,0-2.86-1.11-2.86-2.97Zm4-.63c-.03-.75-.52-1.24-1.2-1.24s-1.19.5-1.24,1.24h2.44Z"/><path class="cls-1" d="m585.97,398.72v-6.06c0-.53.3-.84.81-.84h2.56c1.46,0,2.37.75,2.37,1.93,0,.85-.63,1.56-1.46,1.68v.04c1.05.08,1.83.85,1.83,1.88,0,1.36-1.03,2.22-2.68,2.22h-2.62c-.51,0-.81-.31-.81-.85Zm2.79-3.68c.86,0,1.36-.38,1.36-1.04s-.43-.98-1.19-.98h-1.33v2.01h1.17Zm.23,3.32c.93,0,1.44-.4,1.44-1.14s-.52-1.11-1.48-1.11h-1.36v2.25h1.4Z"/><path class="cls-1" d="m595.18,398.91v-6.16c0-.66.39-1.05,1.05-1.05.56,0,.88.24,1.11.84l1.92,4.76h.04l1.92-4.76c.24-.6.55-.84,1.12-.84.66,0,1.04.39,1.04,1.05v6.16c0,.48-.27.76-.73.76s-.72-.28-.72-.76v-4.58h-.04l-1.92,4.69c-.14.34-.35.49-.69.49s-.57-.16-.7-.49l-1.92-4.69h-.04v4.58c0,.48-.26.76-.72.76s-.72-.28-.72-.76Z"/><path class="cls-1" d="m604.2,397.91c0-1.05.81-1.65,2.25-1.74l1.45-.09v-.38c0-.54-.38-.85-.97-.85-.48,0-.77.16-1.12.61-.17.19-.37.29-.62.29-.38,0-.66-.25-.66-.6,0-.12.03-.24.08-.35.27-.69,1.19-1.11,2.38-1.11,1.48,0,2.44.76,2.44,1.92v3.28c0,.52-.32.79-.76.79s-.72-.24-.75-.7v-.3h-.03c-.32.61-1.04.97-1.76.97-1.1,0-1.93-.71-1.93-1.75Zm3.7-.46v-.42l-1.21.08c-.58.04-.92.31-.92.71,0,.43.36.7.88.7.69,0,1.25-.45,1.25-1.07Z"/><path class="cls-1" d="m610.42,392.28c0-.46.37-.81.84-.81s.84.36.84.81-.37.81-.84.81-.84-.36-.84-.81Zm.05,6.58v-4.35c0-.51.29-.82.78-.82s.78.31.78.82v4.35c0,.51-.3.82-.78.82s-.78-.31-.78-.82Z"/><path class="cls-1" d="m613.08,398.86v-4.38c0-.49.28-.79.76-.79s.79.3.79.79v.32h.03c.31-.71.89-1.11,1.77-1.11,1.28,0,2,.81,2,2.15v3.01c0,.54-.33.82-.79.82s-.78-.28-.78-.82v-2.68c0-.75-.36-1.18-1.06-1.18s-1.15.52-1.15,1.26v2.6c0,.54-.32.82-.78.82s-.78-.28-.78-.82Z"/><path class="cls-1" d="m272.96,381.22v-6.06c0-.53.3-.84.81-.84h2.56c1.46,0,2.37.75,2.37,1.93,0,.85-.63,1.56-1.46,1.68v.04c1.05.08,1.83.85,1.83,1.88,0,1.36-1.03,2.22-2.68,2.22h-2.62c-.51,0-.81-.31-.81-.85Zm2.79-3.68c.86,0,1.36-.38,1.36-1.04s-.44-.98-1.19-.98h-1.33v2.01h1.17Zm.23,3.32c.93,0,1.44-.4,1.44-1.14s-.52-1.11-1.48-1.11h-1.36v2.25h1.4Z"/><path class="cls-1" d="m279.9,381.36v-6.34c0-.54.33-.82.78-.82s.78.28.78.82v6.34c0,.54-.32.82-.78.82s-.78-.28-.78-.82Z"/><path class="cls-1" d="m282.5,380.02v-3.01c0-.54.33-.82.78-.82s.78.29.78.82v2.68c0,.77.38,1.18,1.07,1.18s1.13-.5,1.13-1.26v-2.59c0-.54.33-.82.78-.82s.78.29.78.82v4.37c0,.52-.31.79-.76.79s-.76-.27-.76-.79v-.35h-.03c-.28.72-.85,1.14-1.72,1.14-1.25,0-2.07-.81-2.07-2.15Z"/><path class="cls-1" d="m288.65,379.22c0-1.85,1.08-3.03,2.78-3.03s2.73,1.12,2.73,2.68c0,.43-.25.68-.68.68h-3.29v.07c0,.85.52,1.41,1.31,1.41.57,0,.95-.19,1.38-.69.17-.17.31-.23.51-.23.34,0,.61.21.61.57,0,.12-.04.25-.11.38-.38.71-1.27,1.13-2.38,1.13-1.8,0-2.86-1.11-2.86-2.98Zm4-.63c-.03-.75-.52-1.24-1.2-1.24s-1.19.51-1.24,1.24h2.44Z"/><path class="cls-1" d="m500.82,740.44v-6.27c0-.54.3-.85.81-.85s.81.31.81.85v2.41h3.49v-2.41c0-.54.3-.85.81-.85s.81.31.81.85v6.27c0,.53-.3.84-.81.84s-.81-.31-.81-.84v-2.52h-3.49v2.52c0,.53-.3.84-.81.84s-.81-.31-.81-.84Z"/><path class="cls-1" d="m508.69,739.14v-3.01c0-.54.33-.82.79-.82s.78.29.78.82v2.68c0,.77.38,1.18,1.07,1.18s1.13-.5,1.13-1.26v-2.59c0-.54.33-.82.78-.82s.78.29.78.82v4.37c0,.52-.31.79-.76.79s-.76-.27-.76-.79v-.35h-.03c-.28.72-.85,1.14-1.72,1.14-1.25,0-2.07-.81-2.07-2.15Z"/><path class="cls-1" d="m515.47,736.61h-.3c-.37,0-.61-.23-.61-.59s.24-.59.61-.59h.3v-.64c0-.5.3-.82.78-.82s.78.31.78.82v.64h.55c.37,0,.6.23.6.59s-.23.59-.6.59h-.55v2.75c0,.41.14.58.48.61h.1c.39.05.6.21.6.58,0,.46-.45.7-1.11.7h-.05c-1.05,0-1.58-.52-1.58-1.54v-3.1Z"/><path class="cls-1" d="m8.02,650.45c0-2.48,1.42-3.99,3.7-3.99,1.49,0,2.65.7,3.09,1.65.09.19.12.34.12.5,0,.41-.28.7-.71.7-.34,0-.59-.14-.78-.47-.38-.69-.95-1.03-1.71-1.03-1.28,0-2.05.97-2.05,2.62s.82,2.71,2.11,2.71c1.06,0,1.79-.65,1.83-1.61v-.12s-1.12,0-1.12,0c-.39,0-.65-.22-.65-.59s.26-.59.65-.59h1.9c.51,0,.81.31.81.84v.12c0,1.97-1.25,3.3-3.44,3.3-2.31,0-3.73-1.51-3.73-4.03Z"/><path class="cls-1" d="m15.91,651.5c0-1.85,1.08-3.03,2.78-3.03s2.73,1.12,2.73,2.68c0,.43-.25.68-.68.68h-3.29v.07c0,.85.52,1.41,1.31,1.41.57,0,.95-.19,1.38-.69.17-.17.31-.23.51-.23.34,0,.61.21.61.57,0,.12-.04.25-.11.38-.38.71-1.27,1.13-2.38,1.13-1.8,0-2.86-1.11-2.86-2.98Zm4-.63c-.03-.75-.52-1.24-1.2-1.24s-1.19.51-1.24,1.24h2.44Z"/><path class="cls-1" d="m22.23,653.65v-4.38c0-.49.28-.79.76-.79s.78.3.78.79v.32h.03c.31-.71.89-1.11,1.77-1.11,1.28,0,2,.81,2,2.15v3.01c0,.54-.33.82-.78.82s-.78-.28-.78-.82v-2.68c0-.75-.35-1.18-1.06-1.18s-1.15.52-1.15,1.26v2.6c0,.54-.32.82-.78.82s-.78-.28-.78-.82Z"/><path class="cls-1" d="m467.23,582.6c0-2.47,1.44-4.01,3.74-4.01s3.74,1.54,3.74,4.01-1.45,4-3.74,4-3.74-1.54-3.74-4Zm5.82,0c0-1.63-.81-2.66-2.08-2.66s-2.08,1.03-2.08,2.66.81,2.65,2.08,2.65,2.08-1.03,2.08-2.65Z"/><path class="cls-1" d="m475.61,585.77v-4.38c0-.5.31-.79.76-.79s.74.29.74.79v.38h.03c.15-.71.62-1.14,1.2-1.14.21,0,.38.05.49.14.15.12.23.31.23.58,0,.25-.08.44-.23.56s-.38.2-.68.2c-.71.01-.97.41-.97,1.1v2.56c0,.52-.31.82-.79.82s-.78-.3-.78-.82Z"/><path class="cls-1" d="m479.25,584.82c0-1.05.81-1.65,2.25-1.74l1.45-.09v-.38c0-.54-.38-.85-.97-.85-.48,0-.77.16-1.12.61-.17.19-.37.29-.62.29-.38,0-.65-.25-.65-.6,0-.12.03-.24.08-.35.27-.69,1.19-1.11,2.38-1.11,1.48,0,2.44.76,2.44,1.92v3.28c0,.52-.32.79-.76.79s-.72-.24-.75-.7v-.29h-.03c-.32.61-1.04.97-1.76.97-1.1,0-1.93-.71-1.93-1.75Zm3.7-.46v-.42l-1.21.08c-.59.04-.92.31-.92.71,0,.43.35.7.88.7.69,0,1.25-.45,1.25-1.07Z"/><path class="cls-1" d="m485.5,585.77v-4.38c0-.49.28-.79.76-.79s.79.3.79.79v.32h.03c.31-.71.89-1.11,1.77-1.11,1.28,0,2,.8,2,2.15v3.01c0,.54-.33.82-.79.82s-.78-.28-.78-.82v-2.68c0-.75-.36-1.18-1.06-1.18s-1.15.52-1.15,1.26v2.6c0,.54-.32.82-.78.82s-.78-.28-.78-.82Z"/><path class="cls-1" d="m491.99,587.58c-.09-.14-.12-.29-.12-.43,0-.33.25-.58.64-.58.21,0,.37.06.54.23.42.4.83.62,1.35.63.86,0,1.36-.47,1.36-1.19v-.92h-.03c-.27.62-.94,1.03-1.77,1.03-1.43,0-2.34-1.1-2.34-2.85s.88-2.87,2.36-2.87c.83,0,1.46.44,1.76,1.08h.03v-.32c0-.53.34-.79.79-.79s.78.26.78.79v4.86c0,1.5-1.08,2.4-2.94,2.39-1.18,0-2.05-.45-2.42-1.06Zm3.8-4.06c0-1.04-.51-1.7-1.29-1.7s-1.26.66-1.26,1.7.48,1.67,1.26,1.67,1.29-.62,1.29-1.67Z"/><path class="cls-1" d="m498.15,583.62c0-1.85,1.08-3.03,2.78-3.03s2.73,1.12,2.73,2.68c0,.43-.25.68-.68.68h-3.29v.07c0,.85.52,1.41,1.31,1.41.57,0,.95-.19,1.38-.69.17-.17.31-.23.51-.23.34,0,.61.21.61.57,0,.12-.04.25-.11.38-.38.71-1.27,1.13-2.38,1.13-1.8,0-2.86-1.11-2.86-2.98Zm4-.63c-.03-.75-.52-1.24-1.2-1.24s-1.19.5-1.24,1.24h2.44Z"/><path class="cls-1" d="m571.29,540.23v-5.67h-1.6c-.44,0-.74-.25-.74-.67s.29-.67.74-.67h4.83c.44,0,.73.25.73.67s-.3.67-.73.67h-1.61v5.67c0,.53-.3.84-.81.84s-.81-.31-.81-.84Z"/><path class="cls-1" d="m574.38,539.32c0-1.05.81-1.65,2.25-1.74l1.45-.09v-.38c0-.54-.38-.85-.97-.85-.48,0-.77.16-1.12.61-.17.19-.37.29-.62.29-.38,0-.66-.25-.66-.6,0-.12.03-.24.08-.35.27-.69,1.19-1.11,2.38-1.11,1.48,0,2.44.76,2.44,1.92v3.28c0,.52-.32.79-.76.79s-.72-.24-.75-.7v-.29h-.03c-.32.61-1.04.97-1.76.97-1.1,0-1.93-.71-1.93-1.75Zm3.7-.46v-.42l-1.21.07c-.58.04-.92.31-.92.71,0,.43.36.7.88.7.69,0,1.25-.45,1.25-1.07Z"/><path class="cls-1" d="m580.66,540.27v-6.34c0-.54.33-.82.78-.82s.78.29.78.82v6.34c0,.54-.32.82-.78.82s-.78-.28-.78-.82Z"/><path class="cls-1" d="m583.32,540.27v-6.34c0-.54.33-.82.78-.82s.78.29.78.82v6.34c0,.54-.32.82-.78.82s-.78-.28-.78-.82Z"/><path class="cls-1" d="m588.26,540.12v-6.06c0-.53.3-.84.81-.84h2.56c1.46,0,2.37.75,2.37,1.93,0,.85-.63,1.56-1.46,1.68v.04c1.05.08,1.83.85,1.83,1.87,0,1.37-1.03,2.22-2.68,2.22h-2.62c-.51,0-.81-.31-.81-.85Zm2.79-3.68c.87,0,1.36-.38,1.36-1.04s-.44-.98-1.19-.98h-1.33v2.01h1.17Zm.23,3.32c.94,0,1.44-.4,1.44-1.14s-.52-1.11-1.48-1.11h-1.36v2.25h1.4Z"/><path class="cls-1" d="m594.95,538.09c0-1.86,1.13-3,2.85-3s2.85,1.13,2.85,3-1.11,3.01-2.85,3.01-2.85-1.12-2.85-3.01Zm4.11,0c0-1.14-.49-1.8-1.26-1.8s-1.26.66-1.26,1.8.49,1.8,1.26,1.8,1.26-.65,1.26-1.8Z"/><path class="cls-1" d="m601.18,540.45c0-.19.06-.34.21-.54l1.35-1.8-1.34-1.83c-.11-.15-.17-.31-.17-.49,0-.39.32-.69.75-.69.32,0,.48.11.69.45l1.07,1.62h.03l1.05-1.61c.21-.33.38-.46.67-.46.44,0,.74.27.74.67,0,.19-.06.35-.21.54l-1.32,1.76,1.34,1.85c.12.16.17.31.17.48,0,.42-.32.69-.75.69-.31,0-.46-.13-.63-.4l-1.14-1.71h-.03l-1.12,1.69c-.21.33-.37.42-.65.42-.41,0-.71-.26-.71-.64Z"/><path class="cls-1" d="m49.23,656.43c0-.35.1-.83.28-1.36l5.58-15.19c.59-1.66,1.6-2.42,3.21-2.42s2.66.74,3.27,2.41l5.61,15.21c.2.55.27.94.27,1.36,0,1.18-.89,2.01-2.14,2.01s-1.84-.55-2.22-1.88l-1.08-3.23h-7.38l-1.08,3.19c-.4,1.36-1.03,1.93-2.17,1.93-1.33,0-2.17-.78-2.17-2.01Zm11.8-6.41l-2.7-8.37h-.1l-2.65,8.37h5.45Z"/><path class="cls-1" d="m722.48,608.98v-15.97c0-1.4.79-2.22,2.14-2.22h6.75c3.84,0,6.24,1.97,6.24,5.1,0,2.24-1.67,4.11-3.84,4.43v.11c2.78.21,4.81,2.24,4.81,4.94,0,3.6-2.7,5.85-7.07,5.85h-6.91c-1.34,0-2.14-.82-2.14-2.24Zm7.35-9.7c2.28,0,3.58-1,3.58-2.73s-1.15-2.58-3.14-2.58h-3.51v5.31h3.07Zm.61,8.75c2.46,0,3.79-1.05,3.79-3s-1.37-2.93-3.89-2.93h-3.58v5.93h3.68Z"/></g></svg>